<svg xmlns="http://www.w3.org/2000/svg" width="27" height="26" viewBox="0 0 27 26">
    <defs>
        <linearGradient id="a" x1="214.12%" x2="-37.607%" y1="50%" y2="50%">
            <stop offset="0%" stop-color="#FFEB50"/>
            <stop offset="100%" stop-color="#FFAB4E"/>
        </linearGradient>
    </defs>
    <path fill="url(#a)" fill-rule="evenodd" d="M19.979 14.167v-2.542h-5.208V6.417h-2.542v5.208H7.021v2.542h5.208v5.208h2.542v-5.208h5.208zM13.5 0c2.356 0 4.536.589 6.541 1.767a12.223 12.223 0 0 1 4.588 4.588c1.178 2.005 1.767 4.185 1.767 6.541 0 2.356-.589 4.536-1.767 6.541a12.223 12.223 0 0 1-4.588 4.588c-2.005 1.178-4.185 1.767-6.541 1.767-2.356 0-4.536-.589-6.541-1.767a12.454 12.454 0 0 1-4.588-4.619 12.626 12.626 0 0 1-1.767-6.51c0-2.335.589-4.505 1.767-6.51A12.692 12.692 0 0 1 6.99 1.767 12.626 12.626 0 0 1 13.5 0z"/>
</svg>
