<svg xmlns="http://www.w3.org/2000/svg" width="99" height="99" viewBox="0 0 99 99">
    <g fill="none" fill-rule="nonzero">
        <path fill="#000" d="M62 67a2 2 0 1 0 .002 4.002A2 2 0 0 0 62 67z"/>
        <path fill="#333" d="M89.332 0H9.668C4.337 0 0 4.337 0 9.668v59.168c0 5.33 4.337 9.668 9.668 9.668h30.164v8.894h-1.934a9.606 9.606 0 0 0-6.835 2.833 9.606 9.606 0 0 0-2.833 6.835c0 1.068.866 1.934 1.934 1.934h38.672a1.933 1.933 0 0 0 1.934-1.934c0-5.33-4.337-9.668-9.668-9.668h-1.934v-8.894h30.164c5.331 0 9.668-4.337 9.668-9.668V9.668C99 4.337 94.663 0 89.332 0zM9.668 3.867h79.664c3.199 0 5.8 2.602 5.8 5.801v49.5h-8.894V14.695a1.933 1.933 0 0 0-1.933-1.933h-15.47a1.933 1.933 0 0 0-1.933 1.933v44.473h-9.678c-.02-2-.073-3.971-.156-5.884-.338-7.875-1.11-13.15-1.51-15.47 3.99-2.938 5.078-8.382 2.64-12.612l-6.702-11.607a1.935 1.935 0 0 0-3.35 0l-6.704 11.608c-2.3 3.988-1.485 9.154 2.127 12.202-.418 2.314-1.263 7.778-1.63 15.875a172.477 172.477 0 0 0-.163 5.888h-9.678V30.164c0-.307-.073-.586-.191-.835-.006-.01-.009-.02-.013-.03L24.159 13.83a1.934 1.934 0 0 0-3.459 0L12.966 29.3l-.012.03c-.121.25-.192.534-.192.834v29.004H3.867v-49.5c0-3.199 2.602-5.8 5.801-5.8zM70.77 59.168v-42.54H82.37v3.868h-1.933a1.933 1.933 0 1 0 0 3.867h1.933v5.801h-1.933a1.933 1.933 0 1 0 0 3.867h1.933v5.801h-1.933a1.933 1.933 0 1 0 0 3.867h1.933v7.735h-1.933a1.933 1.933 0 1 0 0 3.867h1.933v3.867H70.77zM49.82 39.698c.702 0 1.402-.08 2.086-.232.359 2.3.886 6.37 1.198 11.968h-7.197c.327-5.594.879-9.727 1.26-12.105a9.68 9.68 0 0 0 2.653.37zm0-3.867c-4.42 0-7.27-4.81-5.03-8.695l5.03-8.707 5.027 8.706c2.23 3.87-.58 8.696-5.027 8.696zm-4.09 19.47h7.544c.04 1.27.069 2.563.082 3.867h-7.714c.015-1.296.044-2.588.087-3.867zm-21.368 3.867v-27.07h3.867v27.07h-3.867zm-7.734 0v-27.07h3.867v27.07H16.63zm1.195-30.938l4.606-9.211 4.606 9.211h-9.212zM66.57 95.133H32.427a5.785 5.785 0 0 1 1.37-2.168 5.765 5.765 0 0 1 4.101-1.7h23.204a5.81 5.81 0 0 1 5.469 3.868zM55.3 87.398H43.699v-8.894h11.602v8.894zm34.031-12.761H9.668a5.807 5.807 0 0 1-5.8-5.801v-5.8h91.265v5.8c0 3.199-2.602 5.8-5.801 5.8z"/>
        <path fill="#000" d="M52.125 67h-11.25C39.839 67 39 67.895 39 69s.84 2 1.875 2h11.25C53.161 71 54 70.105 54 69s-.84-2-1.875-2z"/>
    </g>
</svg>
