<svg xmlns="http://www.w3.org/2000/svg" width="16" height="29" viewBox="0 0 16 29">
    <defs>
        <linearGradient id="a" x1="170.915%" x2="-13.534%" y1="50%" y2="50%">
            <stop offset="0%" stop-color="#6DB6FF"/>
            <stop offset="100%" stop-color="#5044FF"/>
        </linearGradient>
    </defs>
    <path fill="url(#a)" fill-rule="evenodd" stroke="url(#a)" d="M14.736 17.854c0 3.074-2.2 5.5-5.394 6.027v2.637c0 .271-.211.482-.483.482H6.825a.485.485 0 0 1-.482-.482V23.88C2.818 23.384.89 21.275.813 21.184a.5.5 0 0 1-.03-.618l1.552-2.034a.491.491 0 0 1 .347-.18.41.41 0 0 1 .362.135c.03.015 2.139 2.034 4.806 2.034 1.476 0 3.074-.783 3.074-2.486 0-1.446-1.778-2.154-3.812-2.968-2.712-1.07-6.087-2.426-6.087-6.208 0-2.772 2.17-5.062 5.318-5.665V.482c0-.271.226-.482.482-.482H8.86c.272 0 .483.21.483.482v2.652c3.058.346 4.685 2.004 4.746 2.064.15.166.18.392.075.573l-1.22 2.2a.445.445 0 0 1-.347.24.497.497 0 0 1-.407-.105c-.015-.015-1.838-1.627-4.098-1.627-1.914 0-3.24.949-3.24 2.32 0 1.597 1.839 2.305 3.978 3.134 2.773 1.07 5.907 2.29 5.907 5.921z" transform="translate(0 1)"/>
</svg>
