<svg xmlns="http://www.w3.org/2000/svg" width="77" height="99" viewBox="0 0 77 99">
    <g fill="#333" fill-rule="nonzero">
        <path d="M24 39a2 2 0 1 0-.002-4.002A2 2 0 0 0 24 39z"/>
        <path d="M71.225 11.602H65.45V5.8C65.45 2.602 62.86 0 59.675 0H26.619c-1.53 0-3.008.62-4.083 1.7L1.692 22.635A5.839 5.839 0 0 0 0 26.738v53.7c0 3.198 2.59 5.8 5.775 5.8h5.775V93.2c0 3.199 2.59 5.801 5.775 5.801h53.9C74.41 99 77 96.398 77 93.2V17.401c0-3.198-2.59-5.8-5.775-5.8zm-48.125-5v16.601H6.572L23.1 6.603zM5.775 82.372a1.931 1.931 0 0 1-1.925-1.934V27.07h21.175a1.93 1.93 0 0 0 1.925-1.933V3.867h32.725c1.062 0 1.925.867 1.925 1.934v74.636a1.931 1.931 0 0 1-1.925 1.934h-53.9zM73.15 93.198a1.931 1.931 0 0 1-1.925 1.934h-53.9a1.931 1.931 0 0 1-1.925-1.934v-6.96h44.275c3.185 0 5.775-2.603 5.775-5.802V15.47h5.775c1.062 0 1.925.867 1.925 1.933V93.2z"/>
        <path d="M63 12H47c-1.105 0-2 .84-2 1.875v11.25c0 1.036.895 1.875 2 1.875h16c1.105 0 2-.84 2-1.875v-11.25C65 12.839 64.105 12 63 12zm-2 11.25H49v-7.5h12v7.5zM63.056 35H31.944C30.87 35 30 35.895 30 37s.87 2 1.944 2h31.112C64.13 39 65 38.105 65 37s-.87-2-1.944-2zM62.09 47H23.91c-1.055 0-1.91.895-1.91 2s.855 2 1.91 2h38.18c1.055 0 1.91-.895 1.91-2s-.855-2-1.91-2zM62.09 58H23.91c-1.055 0-1.91.895-1.91 2s.855 2 1.91 2h38.18c1.055 0 1.91-.895 1.91-2s-.855-2-1.91-2zM62.09 69H23.91c-1.055 0-1.91.895-1.91 2s.855 2 1.91 2h38.18c1.055 0 1.91-.895 1.91-2s-.855-2-1.91-2z"/>
    </g>
</svg>
