<svg xmlns="http://www.w3.org/2000/svg" width="585" height="294" viewBox="0 0 585 294">
    <g fill="none" fill-rule="evenodd">
        <path fill="#F2C3AA" d="M276.23 282.629l.378 22.824c-.154 6.333.42 12.646.807 18.957.36 5.863-.829 11.906 1.968 17.339.876 1.704 2.742 2.89 4.162.922 1.093-1.516.59-4.14.86-5.901 2.031-13.231 5.811-26.135 7.697-39.39 1.976-13.887-3.424-13.52-15.871-14.751"/>
        <path fill="#1C1D33" d="M277.725 338.995l-1.494 3.71 7.353 6.192 6.737.266 2.179-3.4-9.06-7.538-5.715.77"/>
        <path fill="#F2C3AA" d="M259.962 283.079l-4.075 22.615c-1.412 10.117-4.623 19.97-6.035 30.088-.324 2.326-.161 4.87-1.106 7.066-.923 2.146-2.731 2.23-4.327.774-2.138-1.951-1.152-5.437-1.113-8.103.262-17.755-1.094-35.258-1.42-53.043-.005-.233.005-.5.18-.648.142-.12.345-.118.529-.105 1.677.115 17.278 1.843 17.367 1.356"/>
        <path fill="#1C1D33" d="M244.113 339.137l-2.228 3.564 5.452 8.252 6.213 1.855 2.796-3.078-6.738-10.07-5.495-.523M299.73 297.211l-3.076-32.747-1.484-21.276-4.99-17.378-26.942-4.247-33.31 5.799-1.601 6.571 6.41 60.833 32.13 2.445-.436-37.861 4.956 23.467-.21 14.394h28.554"/>
        <path fill="#FFFFFE" d="M236.636 161.988a135.71 135.71 0 0 0-.097 3.325c-.396 22.542.845 45.37.988 68.099a251.823 251.823 0 0 1 35.155-3.004c.968-.015 3.16.218 5.66.45 4.526.422 10.062.844 11.174-.205 2.34-2.21-.234-1.793-.062-4.672.22-3.724-1.567-6.774-.891-11.188.793-5.186 2.372-10.317 3.282-15.502a226.705 226.705 0 0 0 3.277-31.477c.316-9.359-.023-19.065-4.044-27.52-9.915-20.85-41.882-20.475-50.653 1.296-2.597 6.448-3.5 13.429-3.79 20.398"/>
        <path fill="#1C1D33" d="M272.56 95.698c1.313 2.406 1.946 5.178 2.063 7.947.031.736.079 1.586.648 2.02.61.465.073 1.486.537.864.464-.623 2.037-2.784 2.108-3.57a30.44 30.44 0 0 0-.007-5.535c-.15-1.599-.462-3.27-1.463-4.49-.593-.723-1.385-1.231-2.166-1.724-1.13-.715-2.296-1.435-3.595-1.688-2.24-.436-3.613.403-1.638 2.036 1.416 1.17 2.613 2.491 3.513 4.14"/>
        <path fill="#F2C3AA" d="M257.44 128.25c.015 1.128-.215 2.298.774 3.173.476.42 1.118.589 1.743.689 1.616.257 3.29.138 4.854-.347.644-.199 1.285-.47 1.77-.939.574-.554.603-1.08.63-1.806.033-.85.203-1.714.314-2.576.242-1.887.35-3.787.405-5.687 2.776-.48 6.04-1.383 6.99-4.31.298-.921.309-1.924.316-2.904l.088-12.162c.01-1.403.014-2.848-.464-4.149-.837-2.283-2.964-3.644-5.05-4.5-5.324-2.186-11.529-2.099-16.443 1.01-1.307.827-2.541 1.89-3.295 3.335-1.16 2.227-1.015 4.977-.834 7.547l.5 7.116c.19 2.728.597 5.868 2.703 7.31 1.117.764 2.562.904 3.525 1.895 1.682 1.727.88 4.309 1.377 6.404.07.292.092.595.097.901"/>
        <path fill="#1C1D33" d="M266.158 116.872c-1.446.94-3.039.99-4.65.522-.685-.2-.394-1.31.291-1.111 1.336.389 2.596.379 3.8-.403.605-.394 1.16.601.56.992zm10.043-5.477c-.045-.722-.372-2.836-1.494-1.507-.294.347-.366.838-.384 1.3-.019.463.003.94-.148 1.375-.346 1-1.49 1.454-2.51 1.437-.407-.007-.82-.072-1.179-.269-.348-.191-.624-.496-.894-.795-.655-.726-1.31-1.451-1.964-2.178-1.126-1.247-3.358-.708-4.874-.516-1.748.22-3.496.73-4.924 1.84-.144.113-.284.23-.426.348-.344.287-.69.571-1.09.76-1.35.634-3.02-.028-3.968-1.216-.433-.544-.837-1.244-1.51-1.336-.527-.071-1.04.294-1.31.77-.27.476-.343 1.045-.38 1.596-.133 2.01.154 4.082 1.055 5.864 1.955 3.865 5.735 4.34 9.533 4.253l4.505-.103c2.745-.063 5.646-.173 7.958-1.714 2.04-1.36 3.253-3.672 3.75-6.094.257-1.25.333-2.54.254-3.815zM277.403 88.653c.262-.978.456-1.975.58-2.98a5.789 5.789 0 0 1-2.887.25l-.007-1.741c-.005-.483-6.466-.82-6.99-.864-4.916-.407-9.41-.795-13.855 1.87-3.796 2.277-6.23 5.677-6.813 10.102-.556 4.227.813 9.748 3.233 13.257-.014-1.125-.656-3.78-.392-4.85a9.613 9.613 0 0 1 1.032-3.06c1.01-1.905 2.574-3.508 4.381-4.652 2.881-1.825 6.23-2.79 9.576-3.26 3.064-.431 6.8-.83 9.828-.009 1.455.394 1.697.764 2.578-.72.155-.262 1.388-3.318 1.267-3.32l-1.531-.023"/>
        <path fill="#FFFFFE" d="M198.216 33.969c-4.83-34.64 19.103-66.667 53.454-71.536 34.351-4.87 66.113 19.263 70.942 53.902 4.828 34.64-19.104 66.667-53.455 71.536-34.351 4.87-66.113-19.263-70.941-53.902"/>
        <path fill="#7295C1" d="M322.327 15.582c-3.26-22.107-17.79-39.833-36.969-48.202l-.089-.103c19.239 8.365 33.817 26.134 37.058 48.305"/>
        <path fill="#ECECE8" d="M260.478 87.584c-18.658 0-35.879-8.359-47.516-21.948a62.159 62.159 0 0 0 24.959 5.23c2.902 0 5.84-.202 8.796-.619 34.273-4.829 58.152-36.592 53.334-70.945a62.861 62.861 0 0 0-5.928-19.228 58.576 58.576 0 0 1 12.092 9.123 58.523 58.523 0 0 0-14.242-13.092 62.666 62.666 0 0 0-6.296-8.828c19.14 8.409 33.64 26.22 36.892 48.435l.044.307c4.818 34.354-19.06 66.117-53.333 70.946-2.959.417-5.897.62-8.802.62"/>
        <path fill="#FFFFFE" d="M219.603 67.533c-8.872-8.795-15.051-20.513-16.913-33.925-4.481-32.278 17.73-62.123 49.61-66.66a58.016 58.016 0 0 1 8.187-.583c11.52 0 22.452 3.462 31.667 9.524a63.47 63.47 0 0 1 2.154 4.017c-8.54-4.9-18.346-7.655-28.626-7.655-2.699 0-5.434.191-8.184.583-31.88 4.537-54.09 34.383-49.61 66.661 1.473 10.607 5.645 20.157 11.715 28.038"/>
        <path fill="#F2F1EE" d="M306.058-10.85a59.66 59.66 0 0 0-12.279-9.526 65.887 65.887 0 0 0-2.183-4.144 60.086 60.086 0 0 1 14.462 13.67"/>
        <path fill="#1C1D33" d="M236.462 41.425c3.335 13.387 15.936 22.338 29.494 20.368 13.558-1.97 23.283-14.164 22.919-27.982l-52.413 7.614"/>
        <path fill="#FF69B1" d="M246.404 56.187a26.983 26.983 0 0 0 19.376 4.702 26.918 26.918 0 0 0 16.778-9.175l-.327-.538c-19.062-6.163-35.601 4.86-35.827 5.011"/>
        <path fill="#1C1D33" d="M274.48 12.397c1.146-4.544 4.962-7.9 9.719-8.552 4.655-.637 9.227 1.489 11.647 5.416.462.753.32 1.692-.348 2.285a1.897 1.897 0 0 1-2.37.13c-3.937-2.797-9.794-4.673-15.339 2.28a1.889 1.889 0 0 1-1.223.697 1.921 1.921 0 0 1-1.082-.168c-.807-.38-1.22-1.239-1.005-2.088M221.152 19.688c1.147-4.543 4.962-7.9 9.72-8.551 4.655-.637 9.227 1.488 11.645 5.415.464.752.322 1.691-.344 2.285a1.897 1.897 0 0 1-2.373.13c-3.937-2.797-9.792-4.673-15.337 2.281a1.886 1.886 0 0 1-1.224.696 1.92 1.92 0 0 1-1.082-.168c-.807-.38-1.22-1.239-1.005-2.088"/>
        <path fill="#FF69B1" d="M238.162 38.668c.834 5.981-3.298 11.51-9.23 12.352-5.93.84-11.414-3.327-12.248-9.308-.834-5.98 3.299-11.51 9.23-12.35 5.93-.842 11.414 3.325 12.248 9.306M313.181 26.82c.834 5.98-3.298 11.51-9.23 12.351-5.93.84-11.415-3.326-12.248-9.307-.834-5.98 3.298-11.51 9.23-12.351 5.93-.84 11.415 3.326 12.248 9.307"/>
        <path fill="#F2C3AA" d="M217.998 62.035c.09.154.184.315.227.484.402 1.58-.306 2.653-.338 4.281-.015.726 1.484 1.772.235 2.57-.461.295-1.691.852-2.68 1.47-1.443.902-2.743 2.944-3.486 4.762-1.33 3.278-2.266 6.702-2.946 10.182-.603 3.092-2.035 7.844-1.496 10.968.488 2.828 4.137 6.376 5.774 8.784a379.506 379.506 0 0 1 6.056 9.188c1.39 2.178 2.782 4.428 3.352 6.969.345 1.538.333 3.288-.6 4.54-.603.808-1.51 1.303-2.387 1.774-1.55.831-3.223 1.687-4.957 1.468-2.135-.27-3.742-2.075-5.097-3.799-3.054-3.888-5.884-7.998-8.112-12.453-1.575-3.149-4.54-8.716-3.843-12.305 1.588-8.187 3.867-16.181 6.315-24.17.672-2.196 2.378-3.747 2.982-5.783.386-1.3-.217-2.604-.116-3.914.1-1.295.55-2.969 1.106-4.133 1.095-2.297 3.617-2.76 5.783-3.39.539-.157.902-.264 1.416-.15.834.185 1.372.835 1.929 1.46.329.37.63.77.883 1.197M307.348 58.389a1.942 1.942 0 0 0-.227.485c-.402 1.58.306 2.652.338 4.28.015.726-1.484 1.772-.235 2.57.462.295 1.691.852 2.68 1.47 1.443.902 2.743 2.944 3.486 4.762 1.33 3.278 2.266 6.703 2.946 10.183.604 3.091 2.036 7.843 1.496 10.968-.488 2.828-4.137 6.375-5.774 8.783a377.324 377.324 0 0 0-6.056 9.188c-1.39 2.178-2.782 4.428-3.352 6.969-.345 1.538-.333 3.288.6 4.54.603.809 1.51 1.303 2.386 1.774 1.55.831 3.224 1.688 4.958 1.468 2.136-.27 3.743-2.075 5.097-3.799 3.055-3.888 5.884-7.997 8.112-12.452 1.574-3.15 4.539-8.716 3.843-12.306-1.588-8.186-3.867-16.181-6.314-24.17-.673-2.196-2.379-3.747-2.983-5.782-.386-1.3.217-2.605.117-3.914-.1-1.296-.551-2.97-1.106-4.134-1.096-2.297-3.618-2.76-5.783-3.39-.54-.156-.903-.264-1.417-.15-.834.185-1.372.836-1.928 1.46-.33.371-.632.77-.884 1.197"/>
        <path fill="#25A2FF" d="M258.821 128.028l-.223-2.837c-3.213.765-7.192 1.133-10.648 2.035-4.43-1.582-9.394-1.68-13.461-4.076-2.864-1.688-5.015-4.366-7.1-6.986-2.652-3.332-3.86-6.828-7.744-5.509-2.9.985-6.74 6.254-9.051 8.387l-3.365 3.108c-.262.242-.541.515-.587.873-.035.26.064.518.16.761 3.06 7.43 7.612 14.904 13.706 20.126 3.8 3.258 6.714 6.926 9.484 10.886-1.394 10.203-.012 21.097-.003 31.243.004 4.183-2.767 49.02-.661 49.127 7.301.377 14.967-.892 22.248-1.56 3.33-.307 7.235.438 7.974-3.348.529-2.71.165-5.942.242-8.7l.828-29.771c.073-2.61.971-41.27 1.15-41.27l-8.485-15.77 5.536-6.72M317.8 120.266c-.047-.357-.332-.63-.601-.87-1.15-1.035-2.298-2.07-3.448-3.103-2.368-2.13-6.303-7.39-9.274-8.373-3.98-1.316-5.216 2.173-7.934 5.5-2.136 2.615-4.34 5.288-7.275 6.973-4.466 2.564-9.99 2.49-14.764 4.433a7.924 7.924 0 0 0-.819.39 78.188 78.188 0 0 1-2.855-.632c-1.995-.486-6.29-2.031-5.211 1.892.617 2.244 4.221 5.05 5.746 6.852l-8.692 15.744 1.363 47.71.628 21.99c.072 2.544.136 5.09.218 7.634.036 1.142-.281 3.065.374 3.998 1.091 1.551 4.404 1.542 6.913 1.533.764-.003 1.453-.005 1.982.036 3.539.277 7.13.565 10.462 1.779 2.22.809 4.323 2.026 6.664 2.352.526.073 1.114.084 1.526-.248.462-.37.541-1.028.585-1.617.814-10.918.83-22.174 1.44-33.21.498-9.03 1.77-18.573.981-27.617a4.752 4.752 0 0 0-.055-.45c-1.508-8.137-.52-15.234-1.019-22.16 2.587-3.501 5.354-6.76 8.859-9.685 6.244-5.214 10.907-12.675 14.042-20.09.1-.244.2-.5.165-.761"/>
        <path fill="#F2C3AA" d="M436.668 104.91c.187.008.38.019.551.08 1.594.571 2.09 1.846 3.466 2.84.613.442 2.403-.297 2.342 1.308-.023.591-.278 2.035-.338 3.297-.088 1.84.886 4.226 2.001 5.974 4.381 6.869 10.466 12.327 16.65 17.532.353.296.725.6 1.171.697.8.174 1.566-.352 2.232-.838a60.976 60.976 0 0 1 9.814-5.84c3.069-1.454 6.345-2.665 9.725-2.623 3.381.043 6.9 1.541 8.675 4.488 1.33 2.207 1.53 5.086.522 7.463-2.503 5.899-11.675 5.787-16.972 6.76a106.415 106.415 0 0 1-15.173 1.677c-.628.024-1.276.04-1.863-.19-.626-.247-1.117-.747-1.589-1.235-6.067-6.282-11.559-13.077-16.944-20.022-1.48-1.908-1.792-4.37-3.177-6.123-.883-1.117-2.36-1.344-3.422-2.21-1.05-.857-2.215-2.256-2.882-3.448-1.315-2.351-.21-4.91.543-7.243.187-.58.312-.974.715-1.37.656-.647 1.534-.75 2.402-.883a7.736 7.736 0 0 1 1.55-.092"/>
        <path fill="#FFDA50" d="M479.944 151.36c-5.557.855-11.26 1.172-16.418.75-1.306-.109-2.648-.28-3.792-.933-.948-.542-1.697-1.377-2.428-2.199l-12.765-14.343c-.607-.682-1.26-1.562-.97-2.436.173-.527.649-.878 1.097-1.193l6.16-4.335c.372-.261.78-.535 1.233-.516.418.018.784.284 1.1.565 2.004 1.787 3.057 4.547 5.222 6.125 1.982 1.444 4.624 1.656 7.002 1.133 9.968-2.195 18.932-10.479 27.588-15.65 4.582-2.738 9.35-5.54 14.633-6.068 11.278-1.13 18.273 12.348 10.013 20.856-7.01 7.222-16.04 12.446-25.517 15.438-3.764 1.188-7.919 2.153-12.158 2.806"/>
        <path fill="#F3CCA9" d="M505.822 321.238l1.851 12.332-7.89 1.01-2.052-13.672 8.09.33"/>
        <path fill="#1C1D33" d="M500.396 332.757l6.645 1.353 2.157 1.865.283 5.037-17.083 3.593c-1.722-1.998-1.133-5.083 1.195-6.255l.768-.386 6.035-5.207"/>
        <path fill="#F3CCA9" d="M559.478 270.224c3.334-1.084 6.566-3.231 9.919-4 .174 2.57.42 5.131.641 7.697-4.054 1.875-8.234 3.363-12.653 4.15.701-2.6 1.6-5.2 2.093-7.847"/>
        <path fill="#1C1D33" d="M570.455 274.383c-.227-.329-.25-.338-.443-1.104-.479-1.897-1.727-7.154.035-8.766.286-.261.42-.003.676.12 4.288 2.074 7.386 4.464 10.805 7.98 1.458 1.503 2.87 3.39 2.969 5.579.04.959-.344 1.704-.706 2.467-.525 1.124-1.137 2.106-1.832 3.076-.256.354-.466.749-.962.714-.998-.067-1.476-1.228-1.669-2.182-.192-.954-.268-2.114-.892-2.917-.28-.36-.689-.581-1.027-.779-2.509-1.467-5.163-1.61-6.954-4.188M505.085 264.172c6.144 11.02 15.183 15.822 26.062 19.23 12.448 3.9 23.172 1.769 34.263-4.49.19-3.736-.166-7.45.11-10.956-12.335 1.974-18.29 1.538-26.614-9.585-12.031-16.075-.085-39.74-3.381-59.158-.38-2.232-.983-4.455-2.107-6.414-13.064-22.773-36.581-7.555-39.485 13.297-2.6 18.66 1.988 41.641 11.152 58.076"/>
        <path fill="#1C1D33" d="M527.888 198.031c-.836-6.915-2.5-13.473-4.415-18.393-10.667.757-22.497 3.439-32.711 6.892-9.984 3.376-16.095 6.42-14.785 17.606 2.41 20.582-3.408 39.1-4.41 59.3-.581 11.739 4.155 21.58 9.31 31.737a364.72 364.72 0 0 1 15.799 35.761l10.64-1.4c1.539-16.297-1.946-32.589-3.66-48.87-1.19-11.313-1.473-23.01 1.338-34.117 3.09-12.21 10.19-8.394 16.844-16.084 6.468-7.477 7.494-20.487 6.05-32.432"/>
        <path fill="#FFDA50" d="M514.265 117.331c1.234.87 2.331 1.936 3.416 2.993l2.917 2.842c3.368 3.28 5.19 8.287 6.77 12.607 8.316 22.734 12.404 54.272 8.84 78.606-17.743 2.387-38.574-1.146-56.463-2.742-1.74-.156-3.715-.452-4.683-1.911-.587-.885-.655-2.005-.704-3.066-.717-15.307 1.734-31.912 4.049-47.144.977-6.428 2.252-12.817 3.978-19.086 1.826-6.637 3.9-13.809 8.661-18.989 5.094-5.544 15.201-8.64 22.083-4.826.392.218.77.458 1.136.716"/>
        <path fill="#FADACD" d="M511.434 120.473l.674-6.326c.422-.23.824-.48 1.193-.743 7.214-5.14 18.488-31.435-1.606-36.248-18.244-4.369-16.141 20.55-12.142 30.791.684 1.753 1.566 3.397 2.824 4.8.861.96 1.035.762.972 1.924-.061 1.125-1.107 2.444-1.304 3.637-.21 1.272-.043 2.662.732 3.688.474.628 1.146 1.082 1.855 1.418 1.127.535 2.42.798 3.631.506 1.441-.346 3.01-1.938 3.171-3.447"/>
        <path fill="#15253B" d="M495.531 98.618a38.308 38.308 0 0 0 5.225 9.018 62.847 62.847 0 0 1 1.391-18.01c.102-.451.198-.96-.076-1.34-.255-.356-.744-.471-1.191-.542-7.98-1.268-7.632 5.282-5.349 10.874M515.808 107.51c1.259 1.656 3.823 1.07 5.6.037 7.3-4.24 11.275-13.785 9.23-22.165-1.712-7.01-10.606-11.899-11.954-3.044-.479 3.14 1.554 7.36 1.292 10.83-.376 4.96-2.389 9.782-4.168 14.343"/>
        <path fill="#15253B" d="M493.719 71.613c-.84.383-1.696.785-2.597 1.191-1.865.84-3.23 1.16-5.242.128-.576-.295-4.497-3.7-3.63-4.487-5.759 5.218-.497 12.186 1.988 17.176 1.675 3.364 2.212 8.2 5.72 10.284 3.86 2.292 6.282-.954 9.615-2.515 2.941-1.377 6.15-2.199 9.15-3.443 4.977-2.064 12.36-5.625 10.366-12.335-2.328-7.838-10.378-9.436-17.499-8.49-3.043.405-5.395 1.364-7.871 2.491"/>
        <path fill="#F2C3AA" d="M491.97 127.75c.186-.038.377-.076.56-.059 1.697.152 2.491 1.254 4.077 1.867.244.094.59.018.954-.058.69-.144 1.44-.288 1.654.732.12.575.22 2.026.465 3.254.358 1.79 1.889 3.842 3.402 5.246 2.864 2.655 13.502 6.555 12.68 11.533-1.928 11.694-17.32-6.835-19.039-8.13-1.134-.855-2.635-.705-3.883-1.273-1.235-.562-2.713-1.617-3.654-2.597-1.854-1.933-1.39-4.668-1.218-7.098.043-.605.07-1.015.37-1.497.485-.784 1.32-1.1 2.136-1.446.484-.203.986-.37 1.496-.474"/>
        <path fill="#FFDA50" d="M537.3 164.31c-1.486 4.8-10.8 1.667-14.063.227-6.854-3.024-13.331-6.69-19.248-11.324-.369-.29-.762-.627-.826-1.093-.063-.46.217-.888.484-1.266l4.997-7.082c.358-.507.742-1.037 1.303-1.3 2.117-.99 5.022 1.808 7.177 2.031.598-5.325-2.57-9.843-4.132-14.685-2.139-6.631 5.387-8.402 9.454-4.997 4.978 4.168 8.33 10.38 10.469 16.429 2.318 6.557 3.406 13.479 4.481 20.354.172 1.1.124 1.99-.097 2.705"/>
        <path fill="#F2C3AA" d="M348.082 105.174c-.907-1.018-1.785-2.073-2.646-2.952l-.437-4.105c-.022-.212-.042-.442.054-.627.084-.162.24-.26.39-.349l1.983-1.184c.13-.079.268-.159.418-.169.325-.02.581.287.785.57.702.974 3.203 4.245 3.27 1.594.01-.406.34-.733.697-.837.356-.105.733-.038 1.096.03.262.048.57.137.657.414.04.125.022.261.005.392-.189 1.402-.442 2.58-.184 4l.753 4.69c.013.079-1.86 1.13-2.03 1.246-.988.673-.58.97-1.692.215-1.09-.743-2.123-1.813-3.119-2.928"/>
        <path fill="#FF69B1" d="M397.404 132.14l-25.544 3.214-12.911-28.63-6.737 4.025 6.912 42.14 8.934 9.432 17.57-1.457 11.776-28.724"/>
        <path fill="#F2C3AA" d="M416.385 221.25l-9.524 60.845 3.382 43.956-6.937 2.149-6.209-40.617-13.25-74.222 32.538 7.888"/>
        <path fill="#1C1D33" d="M403.637 329.456l-.81 4.594 1.84 8.733 6.058-.486 1.14-12.935-.891-2.074-7.337 2.168"/>
        <path fill="#F2C3AA" d="M360.346 218.246l3.052 51.554 12.91 72.071 6.997-.083-3.11-66.824 9.074-61.603-28.923 4.885"/>
        <path fill="#1C1D33" d="M377.262 341.871l-8.781 5.738 1.095 4.288 16.078-3.416-1.308-6.194-7.084-.416M359.442 226.12l.285 60.426 8.017 40.742 18.266-2.726-.532-47.087 3.791-51.724-1.878-7.833-26.419 2.765-1.53 5.437"/>
        <path fill="#1C1D33" d="M392.135 278.054l5.764 42.854 16.19-2.28-3.712-40.797 6.008-52.167-3.528-14.126-27.203 4.143 6.481 62.373"/>
        <path fill="#FF69B1" d="M424.379 151.12c-1.78-6-4.917-16.224-10.177-19.112l-.333-.18a26.428 26.428 0 0 0-3.333-1.468c-2.099-1.328-5.116-1.9-8.097-1.7-2.735-.183-5.455.036-7.907.762-1.152.342-2.24.911-3.32 1.477-3.154 1.652-5.575 2.364-7.534 5.61-1.702 2.818-2.721 6.107-4.012 9.148-10.787 25.426-19.552 59.367-26.55 86.238 3.305-.32 6.62-.862 9.922-1.39 15.185 1.72 32.524 6.33 45.916 10.906 4.014 2.4 7.967 4.927 11.886 7.495-1.003-.657 3.777-21.924 4.154-24.32 1.365-8.675 2.557-17.38 3.37-26.123 1.51-16.235.61-31.855-3.985-47.342"/>
        <path fill="#F2C3AA" d="M418.71 109.036c-2.862-10.834-17.955-15.442-22.225-3.3-1.283 3.65-2.154 7.55-1.646 11.39.509 3.838 2.588 7.616 5.992 9.379l.059.027c.585.3-2.7 6.526-2.932 7.024-.363.78-.73 1.57-.91 2.41-.396 1.872.17 3.804.836 5.597.61 1.64 1.31 3.247 2.095 4.811.068.136.141.278.267.364.3.21.709.008 1.012-.198a26.115 26.115 0 0 0 6.325-6.08c.398-.54.78-1.103 1.002-1.737.25-.722.281-1.5.282-2.264.002-2.13-1.813-7.388-.735-9.056.41-.635 2.418-1.099 3.113-1.524 1.15-.705 2.185-1.595 3.106-2.575 3.447-3.667 5.683-9.252 4.36-14.268"/>
        <path fill="#1C1D33" d="M396.526 109.611c-1.615 2.696-1.52 5.994-1.111 9.03.4 2.97.083 5.872.75 8.812-.306.46-.987.156-1.412-.181a341.19 341.19 0 0 1-7.401-6.045c-.246-.207-.498-.422-.641-.716-.182-.373-.164-.814-.135-1.233.58-8.252 3.696-14.28 8.163-20.79 2.169-3.162 7.964-6.657 11.251-2.883.75.859 1.023 2.054 1.217 3.202.116.685.212 1.394.062 2.072-.599 2.703-3.043 2.553-4.958 3.418-2.36 1.066-4.423 3.04-5.785 5.314"/>
        <path fill="#1C1D33" d="M414.755 114.27c0 2.402-.563 5.128-1.287 7.4-.25.786-1.763 2.615-1.81 3.148-.137 1.543 3.048 5.166 3.877 6.515l14.946-8.26c.382-.212.782-.44 1.003-.819.202-.343.226-.76.24-1.16.28-7.852-1.749-14.91-4.753-22.014-3.002-7.1-9.737-12.87-17.673-12.378-6.41.399-10.895 5.108-8.552 11.687 1.769 4.967 7.972 6.02 11.35 9.413 2.118 2.131 2.725 4.246 2.66 6.467"/>
        <path fill="#F2C3AA" d="M95.004 80.83c-.095.14-.192.286-.243.443-.466 1.456.157 2.497.105 4.022-.024.68-1.516 1.579-.358 2.392.427.3 1.579.888 2.496 1.519 1.338.92 2.48 2.9 3.1 4.641 2.431 6.84 2.946 14.155 3.23 21.408.015.413.026.845-.15 1.22-.313.67-1.099.943-1.802 1.164a54.968 54.968 0 0 0-9.437 3.969c-2.69 1.44-5.322 3.16-7.133 5.626-1.81 2.466-2.675 5.81-1.575 8.67.824 2.14 2.733 3.824 4.95 4.367 5.498 1.345 10.412-5.343 13.977-8.65a98.488 98.488 0 0 0 9.436-10.07c.358-.44.722-.9.88-1.448.168-.583.085-1.207 0-1.808-1.103-7.744-2.879-15.347-4.816-22.952-.532-2.09-2.09-3.633-2.565-5.57-.303-1.235.344-2.425.314-3.655-.03-1.217-.376-2.807-.849-3.926-.932-2.208-3.328-2.777-5.374-3.48-.51-.176-.852-.296-1.35-.217-.81.129-1.36.708-1.927 1.264a7.244 7.244 0 0 0-.909 1.071"/>
        <path fill="#FF69B1" d="M100.588 131.112l-5.771-12.54c.124.269-19.332 7.646-20.475 8.125-4.363 1.829-8.871 3.756-12.078 7.257-6.849 7.474-1.262 19.63 9.082 18.23 11.23-1.52 22.827-7.494 30.842-15.534.174-.175.354-.362.42-.6.088-.329-.056-.67-.199-.979l-1.821-3.96"/>
        <path fill="#1C1D33" d="M2.247 251.291A69.211 69.211 0 0 0 1.708 256c-.215 2.546.165 5.45-.439 7.932-.239.98-.563 1.933-.704 2.943-.14 1.01-.075 2.123.405 2.95.589 1.014 1.642 1.372 2.619 1.605.904.217 1.839.385 2.74.146 1.817-.48 3.156-2.565 3.71-4.81.664-2.685.33-5.33.238-8.05 0-4.287-1.076-7.943-.909-12.262.028-.729.043-1.513-.34-2.117-.405-.639-1.176-.92-1.897-.897-1.438.043-2.826.471-3.404 1.932-.697 1.764-1.159 3.837-1.48 5.92"/>
        <path fill="#F2C3AA" d="M5.828 248.172c-.854.667-1.46 1.596-2.05 2.506-.399.614-.802 1.42-.4 2.032.153.233.4.385.637.53l2.99 1.821c.202.124.426.252.661.22.194-.026.356-.157.506-.284a32.972 32.972 0 0 0 2.738-2.61c3.892-4.163-1.59-6.947-5.082-4.215"/>
        <path fill="#2D3271" d="M71.819 212.006c-.241-.929-1.027-1.587-1.847-2.15-8.443-5.798-17.649-9.748-27.61-11.988-.839-.188-6.184 16.623-6.698 18.254-1.996 6.331-3.696 12.755-5.152 19.235-1.595 7.1-3.25 14.186-4.94 21.263a91.729 91.729 0 0 0-10.427-8.904c-.636-.465-1.321-.938-2.104-.987-.95-.06-1.817.515-2.572 1.102a29.93 29.93 0 0 0-3.677 3.385c-.378.41-.76.865-.849 1.419-.088.552.13 1.102.343 1.617 3.665 8.847 9.471 23.073 14.127 31.442 2.252 4.047 6.57 5.434 10.951 5.086 1.122-.089 1.897-.405 2.874-.755 1.154-.412 2.41-.408 3.575-.814.764-.267 1.363-.867 1.903-1.476 4.692-5.282 7.889-12.692 10.72-19.126 3.072-6.985 5.575-14.213 7.834-21.505.167-.538.336-1.072.51-1.602 3.551-10.905 8.348-20.29 12.64-30.993.325-.808.64-1.576.399-2.503"/>
        <path fill="#F2C3AA" d="M58.346 336.522c1.595.594 3.264.49 4.898.792a79.306 79.306 0 0 0 3.237-16.406c-3.304 1.891-4.878-.257-6.39 4.705-.49 1.606-.64 8.573-1.745 10.909"/>
        <path fill="#1C1D33" d="M64.296 335.985c.003 3.049 2.367 6.333 3.675 9.075.154.322.311.658.317 1.016.01.532-.31 1.006-.618 1.437-.426.6-.89 1.23-1.567 1.498-.667.265-1.415.133-2.114-.023a38.969 38.969 0 0 1-3.468-.943c-.284-.093-.574-.19-.806-.382-.274-.225-.44-.557-.597-.878-.806-1.65-1.493-2.82-1.449-4.656.045-1.897.281-3.862-.06-5.743-.17-.912-.394-2.078.376-2.579.595-.387 1.684.147 2.332.254 1.143.19 2.199.117 3.25.727.215.124.424.273.556.485.134.214.172.458.173.712"/>
        <path fill="#2D3271" d="M56.867 238.837c.678 13.502 2.122 26.954 1.1 40.55-1.264 16.796-.19 33.892-2.09 50.528a40.686 40.686 0 0 0 5.877 1.559c2.287.426 5.973.921 7.519-1.238.79-1.103.982-3.237 1.318-4.534 1.078-4.154 2.06-8.333 3.032-12.512 2.752-11.824 5.815-23.707 7.24-35.764 1.498-12.685 3.104-25.381 4.872-37.98.913-6.512 1.579-13.058 1.934-19.624.092-1.692.993-19.144.14-19.267-10.118-1.468-20.13-1.085-30.077 1.276-.967.23-1.934.561-2.486 1.334-.552.772-.527 1.594-.507 2.457.186 8.231 1.353 16.26 1.715 24.514.126 2.872.266 5.747.413 8.7"/>
        <path fill="#FF69B1" d="M50.384 129.896a15.74 15.74 0 0 0-.487.176c-2.695 1.035-4.986 2.895-7.228 4.725-3.368 2.75-5.026 3.956-6.327 8.03-1.213 3.797-1.972 7.809-2.715 11.723-3.813 20.095-4.55 40.106-7.287 60.352-.745 5.511-1.32 11.99 2.711 15.776 7.153-5.63 16.144-5.954 24.82-5.962 6.091-.006 12.048-2 18.155-1.312 5.836.656 10.933-.818 16.856-.429 1.428.095 3.248.078 3.81-1.251-2.049-6.213-2.014-12.893-2.478-19.424-1.2-16.895-6.735-33.107-8.97-49.888-.759-5.703-1.164-15.171-5.533-19.488-4.748-4.692-15.578-4.788-21.68-3.87-1.235.186-2.465.438-3.647.842"/>
        <path fill="#F2C3AA" d="M55.567 129.445c.102.197.238.386.419.566.716.708 1.708 1.11 2.694 1.251 1.298.187 2.617-.03 3.905-.276 1.74-.333 1.68-1.354 1.932-2.938.137-.866.224-1.738.289-2.612.035-.478-.15-2.193.155-2.529.207-.227 1.047-.15 1.416-.344.585-.305 1.073-.869 1.424-1.416.566-.882.877-1.9 1.182-2.904l1.592-5.238c.542-1.784 1.087-3.583 1.262-5.44.262-2.798-.19-6.749-2.296-8.795-1.922-1.866-4.727-2.52-7.299-2.85-3.404-.436-6.934.19-9.876 2.001-1.187.732-2.313 1.681-3.014 2.986-1.081 2.01-1 4.522-.883 6.87l.322 6.501c.123 2.492.433 5.365 2.296 6.717.989.717 2.282.87 3.128 1.79 1.061 1.153.992 2.883 1.037 4.345.025.834-.038 1.625.315 2.315"/>
        <path fill="#1C1D33" d="M66.515 102.068c.117.206.216.42.292.643.398 1.167.13 2.484.518 3.653.618 1.855 2.753 2.97 3.075 4.9.263 1.578-.801 3.08-.891 4.677-.098 1.746 1.005 3.4.834 5.122-.149 1.498-1.086 3.602-1.967 4.801.273-.371 2.745-.24 3.386-.636.983-.608 1.095-.992 1.388-2.03.29-1.03.065-2.046.518-3.102.555-1.295 1.695-2.246 2.095-3.627.545-1.885-.444-3.874-.368-5.836.117-2.971 2.65-5.77 1.731-8.593-.539-1.656-2.126-2.715-3.018-4.206-.678-1.133-.928-2.468-1.397-3.704-.47-1.235-1.279-2.472-2.532-2.847-.696-.208-1.445-.123-2.158-.257-1.234-.232-2.26-1.095-3.448-1.503-1.7-.583-4.7 1.16-5.692 2.62-.986 1.45-.489 2.683.519 3.965 1.677 2.135 5.73 3.532 7.115 5.96"/>
        <path fill="#1C1D33" d="M42.995 92.954c-1.033.742-2.307 1.277-3.25 2.143-1.839 1.69-2.188 4.39-2.255 6.858-.058 2.196-1.04 4.148-.798 6.437.164 1.537.831 3.092 2.11 4 1.592 1.13 4.092 1.316 4.802 3.11.771 1.95-1.293 4.406-.04 6.1.691.934 2.046 1.071 3.035 1.7 1.103.7 1.67 1.951 2.344 3.056.673 1.106 1.685 2.213 3 2.24.053-1.957.113-3.508-.742-5.297-.498-1.043-1.963-2.967-.837-4.096.71-.938 2.385-1.244 2.428-2.41.02-.548-.37-1.015-.678-1.472-1.194-1.772-1.315-4.134-.506-6.102.809-1.97 2.476-3.542 4.427-4.467 2.287-1.084 1.919-1.631 2.583-3.774.612-1.972 1.756-2.434 3.57-3.153 1.629-.646 2.152-1.048 2.753-2.54.44-1.092.982-2.399.344-3.617-.508-.969-1.42-1.661-2.304-2.321-1.847-1.378-3.922-2.827-6.238-2.663-1.287.09-2.497.682-3.785.753-.858.048-1.713-.138-2.572-.166-1.466-.048-3.012.388-4.2 1.242-1.196.862-1.163 1.763-1.828 2.986-.325.599-.81 1.055-1.363 1.453"/>
        <path fill="#1C1D33" d="M48.597 84.08c.22-1.39.08-3.204-1.224-3.674-.396-.142-.817-.12-1.24-.097-.342.018-.686.036-1.018-.032-1.582-.328-2.12-2.281-2.95-3.692-.124-.212-.272-.426-.493-.526-.315-.143-.677-.017-1.02.026-1.575.196-2.772-1.388-4.254-1.962-1.836-.71-4.144.46-4.698 2.379-.226.79-.187 1.636-.4 2.43-.864 3.213-5.48 4.58-5.597 7.908-.079 2.25 2.081 4.405 1.241 6.487-.536 1.331-2.217 2.24-2.025 3.665.124.918 1.083 1.543 1.99 1.53.91-.013 1.744-.521 2.429-1.13 1.086-.967 1.904-2.208 2.94-3.232 1.034-1.024 2.414-1.854 3.845-1.672 1.386.176 2.64 1.277 4.018 1.04 1.101-.188 1.92-1.19 3.002-1.472 1.013-.264 2.065.142 3.109.206 1.043.064 2.325-.49 2.353-1.555.006-.257-.065-.524.015-.77.222-.686 1.373-.646 1.592-1.335-.545-.856-1.313-.55-1.703-1.667-.303-.865-.05-1.98.088-2.855"/>
        <path fill="#F2C3AA" d="M48.344 208.774a1.77 1.77 0 0 0 .057-.5c-.117-1.519-1.076-2.24-1.597-3.663-.233-.635.797-2.03-.566-2.338-.504-.114-1.776-.217-2.852-.448-1.568-.339-3.353-1.727-4.57-3.094-4.779-5.371-7.982-11.91-10.95-18.479-.17-.374-.34-.768-.32-1.18.037-.736.655-1.285 1.215-1.756a54.899 54.899 0 0 0 7.154-7.245c1.924-2.349 3.69-4.934 4.425-7.892.736-2.96.278-6.367-1.796-8.58-1.553-1.657-3.929-2.482-6.16-2.138-5.534.853-7.533 8.879-9.56 13.28a98.993 98.993 0 0 0-4.874 12.86c-.164.541-.324 1.103-.264 1.667.064.6.373 1.143.675 1.665 3.901 6.71 8.365 13.032 12.978 19.297 1.268 1.72 3.27 2.549 4.427 4.151.739 1.023.593 2.363 1.079 3.484.481 1.11 1.392 2.442 2.243 3.292 1.678 1.678 4.083 1.29 6.218 1.16.53-.032.89-.053 1.316-.315.694-.427.98-1.17 1.29-1.896.184-.43.335-.877.432-1.332"/>
        <path fill="#FF69B1" d="M25.023 164.01l10.063 9.248c-.216-.198 15.009-14.267 15.887-15.135 3.349-3.314 6.794-6.773 8.443-11.174 3.522-9.397-6.226-18.366-15.27-13.183-9.82 5.625-18.302 15.448-22.69 25.802-.096.224-.191.463-.162.705.04.333.304.589.552.817l3.177 2.92"/>
        <path fill="#FFFFFE" d="M20.56 32.218c7.86-28.09 36.816-44.437 64.673-36.51 27.858 7.926 44.068 37.124 36.207 65.215-7.86 28.09-36.816 44.437-64.673 36.51C28.91 89.507 12.699 60.31 20.56 32.218"/>
        <path fill="#7295C1" d="M121.45 61.153l.023-.086c4.997-18.232.019-36.933-11.575-49.931l-.033-.111c11.629 13 16.628 31.725 11.625 49.982l-.04.146"/>
        <path fill="#ECECE8" d="M71.27 99.433c-4.69 0-9.462-.645-14.199-1.996-17.776-5.068-30.789-18.856-35.783-35.485a51.844 51.844 0 0 0 24.183 14.989 51.7 51.7 0 0 0 14.199 1.996c22.773-.002 43.706-15.187 50.195-38.43a53.222 53.222 0 0 0 1.919-16.785 49.446 49.446 0 0 1 6.162 11.11 49.474 49.474 0 0 0-6.473-14.89c-.36-3.037-.979-6.02-1.842-8.917 11.837 13.026 16.92 31.768 11.818 50.039l-.024.086c-6.538 23.16-27.428 38.284-50.154 38.283"/>
        <path fill="#FFFFFE" d="M25.678 64.799a49.54 49.54 0 0 1-1.65-31.616c6.04-21.672 25.513-35.83 46.703-35.83 4.365 0 8.804.602 13.212 1.86 11.728 3.353 21.228 10.792 27.419 20.364a53.51 53.51 0 0 1 .311 3.796c-6.17-8.382-15.015-14.845-25.718-17.904a48.021 48.021 0 0 0-13.21-1.86c-21.19 0-40.666 14.16-46.704 35.83a49.542 49.542 0 0 0-.363 25.36"/>
        <path fill="#F2F1EE" d="M118 34.722a48.453 48.453 0 0 0-6.023-10.88 52.18 52.18 0 0 0-.304-3.703A48.501 48.501 0 0 1 118 34.722"/>
        <path fill="#1C1D33" d="M59.759 30.307c-.965 3.475-3.39 5.82-5.42 5.238-2.027-.582-2.89-3.87-1.925-7.344.965-3.476 3.391-5.82 5.42-5.24 2.027.583 2.89 3.871 1.925 7.346M96.816 40.332c-.964 3.475-3.39 5.82-5.419 5.238-2.028-.581-2.89-3.87-1.925-7.344.964-3.475 3.39-5.82 5.419-5.238 2.028.582 2.89 3.87 1.925 7.344M36.214 42.013c-2.862 17.503 7.77 34.747 25.184 39.678 17.415 4.93 35.462-4.194 42.14-20.616L36.214 42.013"/>
        <path fill="#FF69B1" d="M40.27 66.272c4.507 7.276 11.785 12.971 20.91 15.455a36.695 36.695 0 0 0 25.185-2.134l-.106-.798C66.509 61.79 40.623 66.21 40.269 66.272"/>
        <path fill="#FFFFFE" d="M247.365 233.867c0-52.098 41.883-94.332 93.548-94.332 51.666 0 93.549 42.234 93.549 94.332 0 52.099-41.883 94.333-93.549 94.333-51.665 0-93.548-42.234-93.548-94.333"/>
        <path fill="#7295C1" d="M423.558 234.323c-.007-11.166-1.918-21.878-5.423-31.816l.008-.083c3.506 9.946 5.415 20.667 5.415 31.844v.055"/>
        <path fill="#D26173" d="M418.126 202.424c-7.172-20.126-20.976-37.067-38.747-48.132l-.11-.174c17.832 11.069 31.68 28.044 38.866 48.223l-.009.083"/>
        <path fill="#ECECE8" d="M340.36 328.2c-32.986 0-61.97-17.3-78.533-43.402 14.185 8.809 30.883 13.893 48.76 13.893 51.47 0 93.196-42.119 93.196-94.074 0-10.399-1.672-20.403-4.758-29.754a87.473 87.473 0 0 1 15.923 16.056 87.565 87.565 0 0 0-18.27-22.394 94.117 94.117 0 0 0-7.447-14.407c17.82 11.1 31.663 28.095 38.855 48.284 3.536 9.926 5.465 20.625 5.472 31.779-.03 51.93-41.745 94.019-93.197 94.019"/>
        <path fill="#FFFFFE" d="M270.824 288.097c-11.307-14.716-18.036-33.147-18.036-53.157 0-48.16 38.95-87.202 86.997-87.202 21.834 0 41.792 8.065 57.067 21.382a93.378 93.378 0 0 1 2.36 6.328c-14.666-11.297-33.026-18.014-52.952-18.014-48.047 0-86.996 39.04-86.996 87.2 0 15.827 4.207 30.668 11.56 43.463"/>
        <path fill="#F2F1EE" d="M404.577 190.575a85.99 85.99 0 0 0-15.755-15.684 91.028 91.028 0 0 0-2.322-6.19 85.767 85.767 0 0 1 18.077 21.874"/>
        <path fill="#1C1D33" d="M302.315 244.341c-2.398-2.339-6.239.249-4.997 3.365 6.876 17.261 23.673 29.454 43.311 29.454 19.31 0 35.874-11.79 42.96-28.594 1.292-3.065-2.58-5.719-4.959-3.401-13.62 13.266-42.534 32.142-76.315-.824M312.442 210.626c0 6.545-3.035 11.849-6.779 11.849-3.743 0-6.778-5.304-6.778-11.849 0-6.544 3.035-11.848 6.778-11.848 3.744 0 6.78 5.304 6.78 11.848M381.135 210.626c0 6.545-3.036 11.849-6.78 11.849-3.743 0-6.778-5.304-6.778-11.849 0-6.544 3.035-11.848 6.778-11.848 3.744 0 6.78 5.304 6.78 11.848"/>
        <path fill="#FFFFFE" d="M438.14 79.264c-1.434-30.67 22.061-56.706 52.477-58.15 30.416-1.445 56.234 22.247 57.667 52.918 1.433 30.67-22.063 56.705-52.479 58.15-30.415 1.444-56.233-22.248-57.666-52.918"/>
        <path fill="#7295C1" d="M539.25 74.825c-1.08-19.743-12.518-36.537-28.854-45.474l-.07-.098c16.387 8.939 27.863 25.776 28.924 45.572"/>
        <path fill="#ECECE8" d="M493.972 132.244c-18.47 0-35-9.187-45.049-23.412a54.76 54.76 0 0 0 26.608 6.876c.876 0 1.757-.021 2.641-.063 30.471-1.44 54.01-27.4 52.573-57.983a55.542 55.542 0 0 0-3.638-17.382 51.67 51.67 0 0 1 9.87 9.006 51.636 51.636 0 0 0-11.435-12.67 55.251 55.251 0 0 0-4.808-8.274c16.1 8.948 27.373 25.762 28.438 45.529l.016.327c1.435 30.583-22.103 56.543-52.573 57.984-.886.041-1.766.062-2.643.062"/>
        <path fill="#FFFFFE" d="M454.662 110.37c-7.017-8.365-11.459-19.048-12.008-30.85-1.324-28.405 20.382-52.516 48.482-53.854a51.374 51.374 0 0 1 2.437-.058c11.843 0 22.821 4.125 31.527 11.08a55.348 55.348 0 0 1 1.554 3.665c-8.267-5.817-18.29-9.208-29.027-9.208-.808 0-1.622.02-2.437.059-28.1 1.337-49.807 25.449-48.483 53.854.435 9.334 3.303 17.97 7.955 25.312"/>
        <path fill="#F2F1EE" d="M526.596 49.305a52.723 52.723 0 0 0-10.142-9.07 54.92 54.92 0 0 0-1.608-3.69 52.384 52.384 0 0 1 11.75 12.76"/>
        <path fill="#1C1D33" d="M479.503 66.37c-1.728-3.918-5.535-6.32-9.697-6.116-4.073.198-7.618 2.881-9.03 6.837-.27.757.006 1.583.673 2.009a1.575 1.575 0 0 0 2.042-.277c2.893-3.186 7.574-5.857 13.45-.49.33.303.746.446 1.157.426.313-.015.624-.125.894-.332a1.708 1.708 0 0 0 .51-2.056M525.6 64.548c-1.729-3.919-5.535-6.32-9.698-6.117-4.073.198-7.617 2.882-9.03 6.836a1.69 1.69 0 0 0 .672 2.009 1.574 1.574 0 0 0 2.044-.277c2.892-3.185 7.573-5.856 13.449-.49.331.304.746.447 1.157.427.314-.015.625-.126.894-.333a1.707 1.707 0 0 0 .511-2.055"/>
        <path fill="#FF69B1" d="M469.69 88.725l-.002-.087c-.254-5.549-4.389-10.44-10.256-10.156-4.663.226-7.21 3.802-7.984 7.072-1.07-3.18-3.932-6.495-8.594-6.27-5.868.285-9.538 5.554-9.284 11.102l.006.089c.025 1.208.617 13.49 19.13 22.627v.002h.003l.004-.001h.002v-.002c17.596-10.885 17.063-23.17 16.976-24.376"/>
        <path fill="#1C1D33" d="M494.883 108.537c-4.876.237-9.029-3.665-9.258-8.699-.1-2.19.555-4.3 1.828-6.001a9.228 9.228 0 0 1-2.366-5.798c-.23-5.034 3.549-9.321 8.424-9.559 2.97-.144 5.795 1.25 7.557 3.728.496.697.35 1.678-.326 2.19a1.484 1.484 0 0 1-2.12-.337c-1.16-1.63-3.016-2.546-4.968-2.451-3.204.156-5.688 2.974-5.537 6.282a6.038 6.038 0 0 0 2.394 4.573c.372.28.6.718.623 1.193.022.475-.167.934-.512 1.248a6.073 6.073 0 0 0-1.966 4.785c.15 3.308 2.88 5.873 6.084 5.717 1.933-.094 3.69-1.17 4.698-2.88a1.49 1.49 0 0 1 2.084-.523c.716.45.942 1.414.506 2.152-1.533 2.6-4.205 4.237-7.145 4.38"/>
        <path fill="#F2C3AA" d="M408.293 221.055a11.878 11.878 0 0 1-1.17 2.44c-.247.393-.525.779-.902 1.055-.267.195-.573.329-.876.46l-2.151.936c-.242.105-.503.212-.762.162-.19-.036-.353-.153-.508-.27a44.207 44.207 0 0 1-2.363-1.885c-.125-.108-.253-.222-.313-.375-.121-.309.083-.644.294-.903 1.062-1.296.68-1.78 1.02-3.183.23-.947.916-1.412 1.643-2.047 1.214-1.06 2.433-2.112 3.65-3.168.137-.119 2.958 1.838 3.299 2.047-.447 1.051-.246 2.366-.506 3.495-.096.418-.215.83-.355 1.236"/>
        <path fill="#FF69B1" d="M409.967 139.275a7.591 7.591 0 0 0-1.328 1.724c-1.634 2.842-1.875 6.362-1.318 9.617.881 5.155 3.354 10.06 4.8 15.078l4.958 17.218-13.348 32.206 6.458 3.711 23.369-35.724c-2.557-7.51-5.082-14.838-7.16-22.457-1.864-6.83-2.497-14.578-7.213-20.112-2.662-3.124-6.538-3.817-9.218-1.261"/>
        <path fill="#1C1D33" d="M142.596 303.624c-1.206 6.585-2.195 14.092 2.055 19.33 4.096 5.049 11.432 5.96 17.995 6.485 10.96.878 22.797 1.56 32.108-4.17 6.452-3.97 10.922-10.884 11.826-18.291.057-.469.1-.952-.032-1.406-.187-.646-.698-1.146-1.19-1.614l-11.865-11.309c-.964-.92-1.945-1.851-3.132-2.472-1.002-.524-2.114-.808-3.218-1.076-10.43-2.523-24.024-5.863-34.81-4.206-9.348 1.437-8.313 10.958-9.737 18.73"/>
        <path fill="#C06C5B" d="M149.769 254.729a7.677 7.677 0 0 0-1.275-8.746L136.28 233.09c-2.286-2.413-5.763-4.959-7.09-7.941-2.343-5.273-3.062-12.106-4.21-17.747-.583-2.864-1.978-6.663-1.613-9.577.068-.546 2.177-5.222 2.056-5.307l-.985-.82-.8.998-.893.088 1.446-3.51-4.053-1.433-3.889 3.14c.672 3.087 2.149 6.063 2.079 9.264-.03 1.354-.277 2.692-.42 4.039-.247 2.312-.184 4.64-.215 6.961-.03 2.246-.496 4.493-.496 6.702 0 4.932.036 9.864.054 14.796l19.845 23.475c3.54 4.187 10.195 3.405 12.672-1.49"/>
        <path fill="#25A2FF" d="M132.531 229.59c.134-.64.272-1.278.413-1.915 1.223-.054 2.45-.008 3.678.037 1.442.053 2.887.107 4.332 0 3.293-.244 6.531-1 9.818-1.324 1.478-.146 2.964-.204 4.449-.263 6.556-.257 2.081 9.726 1.21 13.214-1.298 5.2-2.881 10.34-4.864 15.313-1.042 2.615-2.196 5.19-3.526 7.668-.677 1.26-2.013 5.303-3.42 5.678-1.136.302-2.066-.884-2.695-1.887a41.6 41.6 0 0 0-12.145-12.5c-.332-.222-.69-.465-.82-.845-.094-.272-.054-.571-.013-.857 1.073-7.467 2.058-14.997 3.583-22.318"/>
        <path fill="#C06C5B" d="M187.578 251.995a7.678 7.678 0 0 1 1.274-8.746l12.213-12.893c2.286-2.413 5.763-4.958 7.09-7.941 2.344-5.273 3.063-12.106 4.21-17.747.583-2.864 1.979-6.663 1.614-9.577-.069-.546-2.178-5.221-2.057-5.306l.985-.821.8.998.893.088-1.446-3.51 4.054-1.433 3.888 3.14c-.672 3.087-2.148 6.064-2.078 9.264.029 1.354.276 2.692.42 4.038.246 2.313.183 4.64.214 6.962.03 2.246.497 4.492.497 6.702-.002 4.932-.037 9.864-.055 14.796l-19.845 23.475c-3.54 4.187-10.195 3.404-12.671-1.489"/>
        <path fill="#25A2FF" d="M204.815 227.768a152.31 152.31 0 0 0-.413-1.916c-1.223-.053-2.45-.008-3.68.037-1.44.053-2.885.106-4.33 0-3.293-.243-6.53-1-9.818-1.324-1.478-.146-2.964-.204-4.448-.262-6.557-.258-2.082 9.726-1.211 13.214 1.298 5.198 2.881 10.338 4.864 15.313 1.042 2.615 2.196 5.189 3.527 7.667.676 1.26 2.011 5.304 3.42 5.678 1.135.302 2.065-.883 2.694-1.886a41.609 41.609 0 0 1 12.145-12.5c.332-.222.689-.466.82-.845.094-.273.054-.571.013-.857-1.073-7.468-2.058-14.998-3.583-22.319"/>
        <path fill="#25A2FF" d="M162.164 223.362c-5.348 1.026-9.964 3.137-13.042 8.505-2.206 3.848-3.126 8.353-4.058 12.656-2.432 11.245-3.516 22.708-4.73 34.135-1.163 10.937-4.254 22.474-.818 33.261.459 1.444 1.77 3.175 3.074 2.431l2.03-7.158c.292-1.026.6-2.085 1.278-2.903.59-.709 1.409-1.174 2.223-1.595a38.19 38.19 0 0 1 14.564-4.136c5.622-.428 11.253.409 16.695 1.808 5.364 1.379 10.539 3.833 15.943 4.85 3.541.667 7.051 1.508 10.512 2.52.115.035.238.068.352.031.214-.07.28-.338.308-.564.301-2.41.112-4.883-.546-7.218-.664-2.362-.62-4.944-.854-7.404-.5-5.29-1.174-10.571-2.25-15.774-2.338-11.309-6.394-22.186-8.366-33.581-.852-4.921-1.378-13.08-5.962-16.848-4.982-4.095-16.227-4.3-22.552-3.58-1.299.148-2.57.327-3.8.564"/>
        <path fill="#6F594A" d="M171.618 224.331c-1.052.718-3.679 1.27-6.583.52a1.482 1.482 0 0 1-1.098-1.272 39.873 39.873 0 0 1-.236-5.215c.009-.45-5.972-2.403-6.645-2.904-3.747-2.791-4.394-7.787-4.605-12.196-.096-2.026-.141-4.181.858-5.93 1.14-1.996 3.383-3.012 5.544-3.66a30.456 30.456 0 0 1 10.989-1.191c3.37.253 7.032 1.302 8.87 4.219 2.64 4.188 1.97 12.414-.276 16.606-1.298 2.424-3.383 3.192-5.039 5.084-1.53 1.748-1.079 3.818-1.779 5.94"/>
        <path fill="#131412" d="M181.416 193.19c.528-.954 1.045-1.883.707-2.866-.232-.673-.826-1.15-1.155-1.78-.806-1.545.166-3.512-.395-5.164-.737-2.173-3.839-3.069-4.05-5.355-.818-.737-1.783.68-2.698 1.288-1.167.774-2.46.1-3.806-.576-1.051-.527-2.134-1.055-3.212-.892-1.871.284-3.104 2.592-4.994 2.505-1.414-.066-2.792-1.5-4.042-.827-.552.298-.844.928-1.329 1.328-1.548 1.278-4.595-.002-5.459 1.822-.505 1.068-.29 2.014-1.378 2.731-.39.257-.935.237-1.483.217-.794-.029-1.596-.057-1.942.756-.129.302-.109.645-.087.973l.675 9.958c.062.908.141 1.869.669 2.606.372.52.947.896 1.197 1.486.31.728.039 1.583.224 2.353.301 1.25 4.312 7.66 5.511 5.533.43-.764.28-1.713.135-2.58-.213-1.27-.367-2.66.276-3.772 1.016-1.756 3.397-1.934 5.404-2.06 1.87-.118 3.78-.383 5.437-1.268 1.148-.615 2.679-1.473 3.557-.504.228.253.354.597.62.807.477.374 1.176.168 1.693-.145.517-.313 1.019-.733 1.621-.759.602-.026 1.241.65.91 1.16.13.384.52.212.95.04.257-.102.528-.205.766-.189.53.034.767.676.878 1.201l1.003 4.734c1.28.186 2.533-.75 3.056-1.948 1.36-3.108-.741-6.086-.04-9.055.144-.606.465-1.187.78-1.758"/>
        <path fill="#FFFFFE" d="M115.41 178.993c-1.394-28.405 20.311-52.57 48.48-53.976 28.168-1.405 52.134 20.482 53.527 48.887 1.394 28.405-20.312 52.57-48.48 53.975-28.169 1.406-52.134-20.482-53.527-48.886"/>
        <path fill="#7295C1" d="M217.48 173.258c-.955-18.58-11.334-34.377-26.147-42.745a8.911 8.911 0 0 0-.064-.092c14.862 8.37 25.276 24.204 26.212 42.837"/>
        <path fill="#ECECE8" d="M166.146 227.943c-17.102 0-32.42-8.571-41.761-21.86a50.459 50.459 0 0 0 27.176 6.325c28.293-1.419 50.094-25.822 48.694-54.507a52.565 52.565 0 0 0-3.417-16.296 48.166 48.166 0 0 1 9.186 8.426 48.283 48.283 0 0 0-10.646-11.86 51.959 51.959 0 0 0-4.483-7.75c15.022 8.387 25.548 24.218 26.517 42.84l.005.11c1.4 28.685-20.401 53.089-48.694 54.508a51.65 51.65 0 0 1-2.577.064"/>
        <path fill="#FFFFFE" d="M129.3 206.98c-6.514-7.71-10.649-17.569-11.184-28.47-1.286-26.234 18.754-48.554 44.763-49.852.794-.04 1.582-.06 2.368-.06 10.92 0 21.05 3.783 29.095 10.167a51.097 51.097 0 0 1 1.446 3.382c-7.635-5.335-16.88-8.442-26.777-8.442-.785 0-1.575.02-2.367.06-26.01 1.297-46.05 23.617-44.763 49.852.422 8.621 3.097 16.592 7.418 23.364"/>
        <path fill="#F2F1EE" d="M205.73 150.473a48.73 48.73 0 0 0-9.357-8.419 51.428 51.428 0 0 0-1.488-3.43 48.575 48.575 0 0 1 10.846 11.849"/>
        <path fill="#1C1D33" d="M145.295 181.806c-1.386-1.217-3.436.306-2.665 1.98 4.263 9.27 13.863 15.494 24.698 14.96 10.655-.526 19.473-7.437 22.927-16.838.63-1.715-1.58-3.063-2.829-1.73-7.155 7.641-22.596 18.771-42.131 1.628M178.698 161.951c1.227-3.988 4.456-6.7 8.225-6.909 3.688-.204 7.11 2.067 8.717 5.784.307.712.127 1.544-.438 2.024s-1.331.451-1.864-.07c-2.876-2.824-7.321-4.97-12.164.833a1.414 1.414 0 0 1-1.008.53 1.362 1.362 0 0 1-.834-.238c-.603-.405-.863-1.209-.634-1.954M135.314 163.774c1.227-3.989 4.455-6.7 8.224-6.909 3.688-.203 7.11 2.067 8.716 5.783.308.712.13 1.544-.436 2.024-.564.482-1.332.453-1.865-.07-2.876-2.823-7.32-4.97-12.164.834a1.414 1.414 0 0 1-1.007.529 1.361 1.361 0 0 1-.834-.237c-.604-.405-.864-1.209-.634-1.954"/>
        <path fill="#FF69B1" d="M137.028 184.223c.234 4.776-3.415 8.839-8.152 9.076-4.736.236-8.766-3.444-9-8.22-.234-4.777 3.415-8.84 8.152-9.076 4.736-.236 8.766 3.444 9 8.22M212.95 180.577c.235 4.777-3.414 8.84-8.15 9.076-4.737.236-8.767-3.444-9-8.22-.235-4.776 3.414-8.84 8.15-9.076 4.737-.236 8.767 3.445 9 8.22"/>
        <path fill="#C06C5B" d="M161.398 338.08c-1.563.323-3.09 0-4.644.053a71.884 71.884 0 0 1-.55-15.402c2.772 2.175 4.546.43 5.205 5.163.213 1.53-.685 7.904-.01 10.185"/>
        <path fill="#1C1D33" d="M156.982 334.602c-1.722-.36-1.51 3.818-1.385 4.788.075.583.224 1.166.164 1.752-.067.644-.381 1.226-.688 1.787l-1.93 3.523c-.29.528-.584 1.069-.695 1.668-.273 1.483.744 3.032 2.105 3.507 4.72 1.65 7.93-4.645 8.351-8.534.065-.596.09-1.196.113-1.795.05-1.24.543-4.004-.077-5.111-.723-1.291-2.186-.043-3.309-.396-1.042-.327-1.95-1.043-2.649-1.19M168.226 263.953c.427.492.823 1.01 1.182 1.547 2.871 4.292 3.888 9.671 3.776 14.884-.113 5.211-1.276 10.331-2.433 15.406-1.397 6.125-3.196 12.236-3.49 18.47-.158 3.313-.695 6.64-1.052 9.935-.319 2.94-.665 5.882-.876 8.833-.075 1.04-.24 1.098-1.312 1.269a22.741 22.741 0 0 1-11.651-1.198c-1.747-.666-1.223-4.125-1.374-5.686-.44-4.54-.779-9.091-1.108-13.64-.658-9.092-1.468-18.179-1.727-27.295-.224-7.888-1.445-15.655 3.925-22.104 2.02-2.426 4.81-4.385 7.909-4.523 3.157-.14 6.094 1.643 8.231 4.102"/>
        <path fill="#C06C5B" d="M182.759 335.403c1.56.264 3.051-.147 4.59-.165a79.82 79.82 0 0 0-.224-16.152c-2.63 2.41-4.469.667-4.884 5.653-.134 1.614 1.07 8.244.518 10.664"/>
        <path fill="#1C1D33" d="M187.671 332.79c1.767-.448 1.743 3.748 1.66 4.726-.05.589-.177 1.18-.087 1.763.1.642.453 1.21.798 1.756l2.165 3.432c.324.513.654 1.04.797 1.634.354 1.472-.627 3.075-2.015 3.62-4.812 1.89-8.433-4.252-9.054-8.126a25.224 25.224 0 0 1-.2-1.792c-.11-1.24-.752-3.984-.162-5.123.689-1.33 2.262-.154 3.41-.564 1.065-.382 1.972-1.144 2.688-1.326M173.68 263.317a15.197 15.197 0 0 0-1.066 1.561c-2.564 4.313-3.3 9.594-2.959 14.659.34 5.064 1.685 9.988 3.022 14.869 1.614 5.89 3.614 11.747 4.176 17.796.147 1.584 3.071 19.323 2.753 19.34 2.054-.104 4.096.484 6.17.247 2.238-.257 4.477-.409 6.708-.753-.055-1.266.36-2.112.498-3.306.133-1.167.01-2.345.067-3.516.22-4.436.342-8.88.454-13.32.226-8.875.598-17.752.44-26.631-.138-7.684.687-15.297-4.755-21.312-2.046-2.263-4.812-4.035-7.792-4.02-3.036.017-5.775 1.892-7.717 4.386"/>
    </g>
</svg>
