<svg xmlns="http://www.w3.org/2000/svg" width="29" height="26" viewBox="0 0 29 26">
    <defs>
        <linearGradient id="a" x1="140.112%" x2="-28.277%" y1="50%" y2="50%">
            <stop offset="0%" stop-color="#FF8282"/>
            <stop offset="100%" stop-color="#FF4146"/>
        </linearGradient>
    </defs>
    <path fill="url(#a)" fill-rule="evenodd" d="M17.238 5.601V2.863h-5.476V5.6h5.476zm8.15 0c.76 0 1.395.266 1.906.799.51.532.766 1.178.766 1.939v14.896c0 .761-.255 1.408-.766 1.94-.51.532-1.146.799-1.907.799H3.613c-.76 0-1.396-.267-1.907-.799-.51-.532-.766-1.179-.766-1.94V8.34c0-.76.255-1.407.766-1.94.51-.532 1.146-.798 1.907-.798h5.476V2.863c0-.76.255-1.396.766-1.907.51-.51 1.146-.766 1.907-.766h5.476c.76 0 1.396.255 1.907.766.51.51.766 1.146.766 1.907V5.6h5.476z"/>
</svg>
