<svg xmlns="http://www.w3.org/2000/svg" width="46" height="46" viewBox="0 0 46 46">
    <g fill="none" fill-rule="evenodd">
        <path fill="#FFF" d="M0 22.962c0 12.681 10.28 22.961 22.962 22.961 12.681 0 22.961-10.28 22.961-22.961C45.923 10.28 35.643 0 22.962 0 10.28 0 0 10.28 0 22.962z"/>
        <path fill="#2CA8FF" d="M22.994 9.97a1.84 1.84 0 0 1 0-3.678 1.84 1.84 0 0 1 0 3.678zm0 25.94a1.839 1.839 0 1 1-1.838 1.838 1.84 1.84 0 0 1 1.838-1.838zm7.76-18.71l-2.939 4.961-.99-1.674 2.453-4.147.002-.002c.195-.343.302-.674.304-.99a1.218 1.218 0 0 0-.394-.898 1.687 1.687 0 0 0-1.17-.455l-.076.002-.04.002h-9.912c-.531 0-1.012.159-1.332.47-.21.206-.323.475-.32.769 0 .332.123.695.337 1.07l2.423 4.218.245.427 2.269 3.95c.224.389.452.66.665.838.216.177.412.27.604.273.221-.004.441-.117.678-.317.234-.2.479-.496.71-.897l.615-1.039.991 1.675-.124.212-.002.002c-.809 1.399-1.858 2.071-2.868 2.07-.974 0-1.972-.62-2.75-1.968l-.205-.356-.244-.426-1.209-2.107-.246-.425-3.03-5.279c-.395-.687-.566-1.335-.566-1.92a2.756 2.756 0 0 1 .964-2.11c.602-.523 1.446-.837 2.398-.837h9.88l.142-.003a3.412 3.412 0 0 1 2.298.876c.597.547.975 1.307.975 2.184 0 .57-.16 1.197-.537 1.85zm-.44 15.557a3.414 3.414 0 0 1-2.294.876l-.145-.002h-9.881c-.953 0-1.795-.315-2.397-.837a2.755 2.755 0 0 1-.964-2.11c0-.585.17-1.235.566-1.92l2.861-4.985.985 1.714-2.368 4.123c-.214.374-.337.736-.338 1.068-.002.295.11.564.32.767.32.313.802.473 1.335.473h9.91l.039.002.077.001c.44 0 .863-.161 1.17-.455.255-.242.395-.558.394-.899-.002-.315-.11-.647-.304-.99l-.002-.001-2.513-4.245-.247-.417-1.218-2.058-.247-.417-.782-1.322c-.231-.402-.476-.698-.71-.897-.237-.2-.457-.314-.678-.318-.192.003-.388.095-.604.272-.213.18-.441.45-.665.839l-.646 1.124-.984-1.714.15-.26c.777-1.346 1.775-1.967 2.749-1.967 1.01 0 2.06.672 2.868 2.07l.002.003.183.31.246.417L27.4 23.06l.248.417 3.105 5.245c.377.653.537 1.279.537 1.851 0 .877-.378 1.635-.975 2.183zm-7.353 8.415a3.4 3.4 0 1 1 .002-6.801 3.4 3.4 0 0 1-.002 6.801zm0-36.421a3.4 3.4 0 1 1 0 6.8 3.4 3.4 0 0 1 0-6.8zm0-4.751C10.282 0 0 10.28 0 22.962c0 12.681 10.28 22.961 22.962 22.961 12.681 0 22.961-10.28 22.961-22.961C45.923 10.28 35.643 0 22.962 0z"/>
    </g>
</svg>
