<svg xmlns="http://www.w3.org/2000/svg" width="27" height="27" viewBox="0 0 27 27">
    <defs>
        <linearGradient id="a" x1="64.958%" x2="95.322%" y1="54.313%" y2="94.157%">
            <stop offset="0%" stop-color="#826EFF"/>
            <stop offset="100%" stop-color="#985BFF"/>
        </linearGradient>
    </defs>
    <path fill="url(#a)" fill-rule="evenodd" d="M4.898 22.906c-1.375 0-2.535-.44-3.48-1.321C.473 20.705 0 19.619 0 18.33V4.86c0-1.29.473-2.385 1.418-3.288C2.363.67 3.523.22 4.898.22h17.016c1.375 0 2.535.45 3.48 1.353.946.903 1.419 1.998 1.419 3.287V18.33c0 1.29-.473 2.374-1.418 3.255-.946.88-2.106 1.321-3.48 1.321h-.259v4.125a887.778 887.778 0 0 1-5.543-3.802c-.3-.215-.752-.323-1.353-.323H4.898z" transform="matrix(-1 0 0 1 26.813 0)"/>
</svg>
