<svg xmlns="http://www.w3.org/2000/svg" width="59" height="100" viewBox="0 0 59 100">
    <g fill="#333" fill-rule="nonzero">
        <path d="M45.172 62.42a25.92 25.92 0 0 0 8.78-14.312c.235-1.058-.418-2.11-1.46-2.348-1.04-.239-2.075.425-2.31 1.483-2.189 9.841-10.975 16.984-20.892 16.984-11.806 0-21.411-9.757-21.411-21.75V28.964C7.879 27.88 7.013 27 5.946 27H1.933C.865 27 0 27.88 0 28.963c0 1.085.865 1.964 1.933 1.964h2.08v11.55c0 12.36 8.641 22.707 20.11 25.137v21.191H10.908c-2.1 0-3.808 1.736-3.808 3.869v5.363c0 1.084.865 1.963 1.932 1.963H30.26v-3.927H10.966v-3.341h36.649v3.341h-17.93c-1.068 0-1.933.88-1.933 1.964S28.617 100 29.685 100h19.863c1.067 0 1.933-.88 1.933-1.963v-5.363c0-2.133-1.709-3.869-3.809-3.869H34.46V67.603a25.176 25.176 0 0 0 10.713-5.184zM30.593 88.804h-2.605v-20.08h2.605v20.08z"/>
        <path d="M29.5 0C18.748 0 10 8.817 10 19.656v22.688C10 53.183 18.748 62 29.5 62S49 53.183 49 42.344V19.656C49 8.817 40.252 0 29.5 0zm15.664 24.152H36.34c-1.059 0-1.918.866-1.918 1.933 0 1.068.86 1.933 1.918 1.933h8.824v5.964H36.34c-1.059 0-1.918.866-1.918 1.933 0 1.068.86 1.934 1.918 1.934h8.824v4.495c0 .199-.008.396-.015.593H36.34c-1.06 0-1.918.865-1.918 1.933s.859 1.933 1.918 1.933h8.184a15.821 15.821 0 0 1-3.788 6.526v-1.774a1.926 1.926 0 0 0-1.918-1.934c-1.06 0-1.918.866-1.918 1.934v4.701a15.457 15.457 0 0 1-5.916 1.805v-6.506a1.926 1.926 0 0 0-1.918-1.934c-1.06 0-1.918.866-1.918 1.934v6.4a15.46 15.46 0 0 1-5.048-1.699v-4.701a1.926 1.926 0 0 0-1.918-1.934c-1.06 0-1.918.866-1.918 1.934v1.774a15.821 15.821 0 0 1-3.788-6.525h8.184c1.06 0 1.918-.866 1.918-1.934a1.926 1.926 0 0 0-1.918-1.933H13.85c-.007-.197-.015-.394-.015-.593V37.85h8.824c1.06 0 1.918-.866 1.918-1.934a1.926 1.926 0 0 0-1.918-1.933h-8.824V28.02h8.824c1.06 0 1.918-.866 1.918-1.934a1.926 1.926 0 0 0-1.918-1.933h-8.824v-4.496c0-.199.008-.395.015-.592h8.809c1.06 0 1.918-.866 1.918-1.934a1.926 1.926 0 0 0-1.918-1.933h-8.184a15.822 15.822 0 0 1 3.788-6.526v1.774c0 1.068.859 1.934 1.918 1.934 1.06 0 1.918-.866 1.918-1.934V5.744a15.456 15.456 0 0 1 5.048-1.699v6.4c0 1.068.858 1.934 1.918 1.934s1.918-.866 1.918-1.933V3.939c2.123.202 4.123.832 5.916 1.805v4.701c0 1.068.859 1.934 1.918 1.934 1.06 0 1.918-.866 1.918-1.934V8.671a15.821 15.821 0 0 1 3.788 6.526H36.34c-1.06 0-1.918.866-1.918 1.933 0 1.068.859 1.934 1.918 1.934h8.81c.006.197.014.393.014.592v4.496zM57.283 27h-3.566C52.77 27 52 27.855 52 28.91v5.18c0 1.055.769 1.91 1.717 1.91.949 0 1.718-.855 1.718-1.91v-3.27h1.848c.948 0 1.717-.856 1.717-1.91 0-1.055-.769-1.91-1.717-1.91z"/>
    </g>
</svg>
