<svg xmlns="http://www.w3.org/2000/svg" width="28" height="24" viewBox="0 0 28 24">
    <defs>
        <linearGradient id="a" x1="100%" x2="0%" y1="53.822%" y2="42.614%">
            <stop offset="0%" stop-color="#FFC78E"/>
            <stop offset="100%" stop-color="#FFA183"/>
        </linearGradient>
    </defs>
    <path fill="url(#a)" fill-rule="evenodd" d="M24.037 16.734h-2.543v-3.088h-3.088v-2.542h3.088V8.016h2.543v3.088h3.088v2.542h-3.088v3.088zM23.25 24H0c0-1.05.04-1.857.121-2.422.162-.807 1.796-1.796 4.904-2.967.485-.161 1.07-.363 1.756-.605.929-.323 1.474-.575 1.635-.757.161-.182.242-.716.242-1.604v-.364c0-.484-.181-.958-.545-1.423-.363-.464-.646-1.281-.847-2.452-.081-.403-.202-.726-.364-.969-.161-.242-.323-.726-.484-1.453a1.641 1.641 0 0 1-.03-1.029c.1-.323.151-.525.151-.605-.08-.646-.161-1.312-.242-1.998-.08-.929.323-1.928 1.21-2.998C8.397 1.284 9.769.75 11.626.75c1.857 0 3.23.535 4.117 1.604.888 1.07 1.292 2.07 1.211 2.998-.08.686-.161 1.352-.242 1.998 0 .08.05.282.151.605.101.323.091.666-.03 1.03-.161.726-.323 1.21-.484 1.453-.162.242-.283.565-.364.968-.201 1.17-.484 1.988-.847 2.452-.364.465-.545.939-.545 1.423 0 1.211.12 1.897.363 2.059.08.08 1.07.464 2.967 1.15.08.04.182.081.303.121 3.108 1.17 4.742 2.16 4.904 2.967L23.25 24z"/>
</svg>
