<svg xmlns="http://www.w3.org/2000/svg" width="27" height="27" viewBox="0 0 27 27">
    <defs>
        <linearGradient id="a" x1="112.035%" x2="0%" y1="34.667%" y2="50%">
            <stop offset="0%" stop-color="#FF7EEF"/>
            <stop offset="100%" stop-color="#FF5EE5"/>
        </linearGradient>
    </defs>
    <path fill="url(#a)" fill-rule="evenodd" d="M27.578.166a.976.976 0 0 1 .407.964l-3.857 23.143a.968.968 0 0 1-.95.798c-.12 0-.24-.03-.361-.075l-6.825-2.787-3.647 4.444a.936.936 0 0 1-.738.347.859.859 0 0 1-.331-.06.962.962 0 0 1-.633-.904v-5.259L23.66 4.821 7.554 18.758l-5.951-2.44a.955.955 0 0 1-.603-.83.974.974 0 0 1 .482-.888L26.554.136A.935.935 0 0 1 27.036 0c.196 0 .391.06.542.166z" transform="translate(-1)"/>
</svg>
