<svg xmlns="http://www.w3.org/2000/svg" xmlns:xlink="http://www.w3.org/1999/xlink" width="33" height="30" viewBox="0 0 33 30">
    <defs>
        <path id="a" d="M25.52 18.425a11.637 11.637 0 1 1-2.742-12.103l6.767 6.373a1.455 1.455 0 1 0 1.994-2.118l-6.734-6.342C20.256-.317 13.197-1.318 7.524 1.81a14.546 14.546 0 1 0 20.739 17.584 1.455 1.455 0 1 0-2.743-.97zm-3.706-8.243a1.455 1.455 0 1 0 0 2.909h8.728c.803 0 1.455-.651 1.455-1.455V2.91a1.455 1.455 0 1 0-2.91 0v7.273h-7.273z"/>
    </defs>
    <use fill="#FFF" fill-rule="nonzero" transform="translate(.5)" xlink:href="#a"/>
</svg>
