<svg xmlns="http://www.w3.org/2000/svg" xmlns:xlink="http://www.w3.org/1999/xlink" width="862" height="1080" viewBox="0 0 862 1080">
    <defs>
        <linearGradient id="b" x1="-35.795%" x2="60.618%" y1="14.282%" y2="42.381%">
            <stop offset="0%" stop-color="#4FCFFF"/>
            <stop offset="100%" stop-color="#2CA8FF"/>
        </linearGradient>
        <path id="a" d="M53.156 163.803C-4.146 121.222-26.26-21.072 45.92 3.356c66.877 22.635-25.985 130.582 59.126 157.166l-51.89 3.281z"/>
        <linearGradient id="e" x1="-29.895%" y1="37.386%" y2="19.642%">
            <stop offset="0%" stop-color="#4FCFFF"/>
            <stop offset="100%" stop-color="#2CA8FF"/>
        </linearGradient>
        <path id="d" d="M31.18 283.138c-67.92-98.813-15.794-344.367 87.941-268.012 96.117 70.732-124.095 202.186-.386 288.547l-87.554-20.535z"/>
        <linearGradient id="g" x1="16.5%" x2="93.4%" y1="4%" y2="53.3%">
            <stop offset="0%" stop-color="#0FF"/>
            <stop offset="100%" stop-color="#FFF" stop-opacity="0"/>
        </linearGradient>
        <linearGradient id="i" x1="66.912%" x2="5.715%" y1="5.814%" y2="42.351%">
            <stop offset="0%" stop-color="#FFEB50"/>
            <stop offset="100%" stop-color="#FFAB4E"/>
        </linearGradient>
        <path id="h" d="M160.527 328.308C25.269 259.638-77.797-24.46 80.779 2.268c146.922 24.755-.765 275.638 185.326 302.597l-105.578 23.443z"/>
        <linearGradient id="l" x1="50%" x2="50%" y1="0%" y2="100%">
            <stop offset="0%" stop-color="#FFEB50"/>
            <stop offset="100%" stop-color="#FFAB4E"/>
        </linearGradient>
        <path id="k" d="M393.407 388.655C171.884 368.745-147.883 50.609 76.797 3.65 284.97-39.86 255.333 364.34 516.137 303.483l-122.73 85.172z"/>
    </defs>
    <g fill="none" fill-rule="evenodd">
        <path fill="#FFF4E9" d="M938.361 189.616c-31.803-12.237-154.312-59.39-297.556-21.186-30.478 8.128-173.716 46.332-222.879 151.494-65.047 139.145 104.12 246.856 64.27 397.502-34.265 129.54-239.27 98.969-296.917 237.83-30.094 72.491-16.873 168.35 34.453 223.403 160.153 171.808 859.114 125.964 1035.907-252.613 128.694-275.567-61.125-637.854-317.278-736.43z"/>
        <path fill="#FFECD7" d="M1323.417 449.6c-26.387-19.995-128.072-97.04-277.584-97.87-31.803-.177-181.322-1.007-262.84 86.732-107.864 116.09 18.551 263.21-68.984 396.874-75.275 114.935-261.281 32.228-361.972 149.978-52.565 61.471-71.382 156.589-40.38 222.611 96.768 206.063 780.192 344.534 1073.481 28.649 213.473-229.956 150.86-625.905-61.721-786.974z"/>
        <path fill="#F7F7F7" fill-rule="nonzero" stroke="#F7F7F7" d="M332.571 1093.471c-29.994 0-57.127-4.135-80.267-12.72-67.002-24.833-125.411-97.735-135.86-169.575-9.879-67.93 30.432-114.844 69.421-160.222 38.542-44.86 74.943-87.234 58.064-145.713-18.883-65.45-72.14-105.065-123.645-143.378C62.912 419.179 8.717 378.87 1.512 306.509-5.22 238.91 33.52 164.685 110.6 97.502 155.536 58.318 235.912 9.804 363.506 1.147 488.093-7.294 634.52 41.442 755.211 131.523c127.236 94.97 207.467 222.038 220.125 348.622 17.449 174.508-93.4 357.99-296.52 490.821-119.726 78.291-248.258 122.505-346.245 122.505zM363.636 2.621l.122 1.477c-126.6 8.588-206.284 56.68-250.839 95.513C36.562 166.159-1.824 239.544 4.801 306.24c7.083 71.143 60.765 111.074 117.606 153.354 51.906 38.614 105.577 78.54 124.732 144.907 17.28 59.876-19.598 102.802-58.637 148.248-38.578 44.893-78.468 91.334-68.765 158.044 10.307 70.884 67.847 142.77 133.84 167.23 97.688 36.216 267.803-7.764 423.278-109.438C879.032 836.372 989.382 653.879 972.03 480.41c-12.59-125.819-92.382-252.152-218.95-346.622C633.043 44.189 487.483-4.302 363.761 4.092l-.125-1.471z"/>
        <g transform="translate(453 317)">
            <mask id="c" fill="#fff">
                <use xlink:href="#a"/>
            </mask>
            <use fill="url(#b)" xlink:href="#a"/>
            <g fill="#FFF" mask="url(#c)" opacity=".3">
                <path d="M111.295 192.797c-.66-.5-64.398-50.685-76.836-110.017C21.952 23.09 40.421 1.158 89.423-28.255l1.71 2.284C41.087 4.066 25.444 24.932 37.473 82.27c12.24 58.403 75.199 107.958 75.832 108.452l-2.01 2.074z"/>
                <path d="M31.749 45.198C2.239 33.225-1.66 16.708-1.811 16.012l3.006-.53c.037.158 3.872 15.873 31.818 27.219l-1.264 2.497zM36.786 86.652l-.4-2.725c18.552-2.186 36.02-19.41 36.196-19.585l2.28 1.84c-.742.74-18.412 18.154-38.076 20.47zM47.098 115.625c-53.805-10.613-56.865-35.17-56.97-36.21l3.053-.254c.026.237 3.192 23.642 54.578 33.78l-.66 2.684z"/>
            </g>
        </g>
        <g transform="translate(504 270)">
            <mask id="f" fill="#fff">
                <use xlink:href="#d"/>
            </mask>
            <use fill="url(#e)" xlink:href="#d"/>
            <g fill="#FFF" mask="url(#f)" opacity=".3">
                <path d="M108.941 359.985c-.746-1.145-74.575-115.721-58.136-219.712C67.343 35.658 111.423 8.751 210.485-15.222l1.393 4.619C110.717 13.875 71.974 40.45 56.073 140.942 39.9 243.305 112.797 356.438 113.533 357.57l-4.592 2.414z"/>
                <path d="M69.726 76.988c-41.18-34.48-37.324-63.648-37.139-64.873l5.281.63c-.04.278-3.502 28.105 35.496 60.75l-3.638 3.493zM52.224 147.82l1.037-4.692c31.933 5.672 71.442-13.979 71.838-14.177l2.611 4.172c-1.683.846-41.641 20.709-75.486 14.697zM51.188 200.718c-82.032-44.377-71.819-86.388-71.343-88.163l5.189 1.113c-.103.399-9.458 40.552 68.91 82.95l-2.756 4.1z"/>
            </g>
        </g>
        <g transform="translate(194 388)">
            <path fill="#818C96" d="M.154 342.793a8.68 8.68 0 0 0 .407 2.576c.62 2.017 2.012 3.777 3.938 4.976.269.177.55.34.84.488l186.027 95.548c3.22 1.675 7.205 1.675 10.425 0l323.878-166.41c2.342-1.182 4.069-3.135 4.807-5.439 1.343-4.097-.645-8.48-4.807-10.6L339.682 168.36c-3.228-1.65-7.197-1.65-10.426 0L5.35 334.772c-1.752.886-3.165 2.22-4.056 3.828a8.446 8.446 0 0 0-1.139 4.193z" opacity=".168"/>
            <path fill="#E5E5E5" d="M1.283 194.324h3.216v1.829c.268-.178.549-.342.84-.49l323.907-166.41c3.229-1.648 7.198-1.648 10.426 0l185.987 95.575a10.114 10.114 0 0 1 2.978 2.293h2.196l.03.565v10.011a.589.589 0 0 1-.02.135c-.028 3.262-2.006 6.264-5.19 7.88L201.773 312.124c-3.22 1.672-7.204 1.672-10.425 0L5.336 216.575a10.506 10.506 0 0 1-3.13-2.474C.874 212.488.154 210.538.15 208.536v-10.01c0-1.46.387-2.9 1.132-4.202z"/>
            <path fill="#FFF" d="M.154 198.523a8.68 8.68 0 0 0 .407 2.576c.62 2.017 2.012 3.778 3.938 4.976.269.177.55.34.84.489l186.027 95.547c3.22 1.675 7.205 1.675 10.425 0l323.878-166.41c2.342-1.181 4.069-3.134 4.807-5.438 1.342-4.097-.646-8.48-4.807-10.6L339.682 24.09c-3.228-1.649-7.197-1.649-10.426 0L5.35 190.503c-1.752.886-3.165 2.22-4.056 3.827a8.446 8.446 0 0 0-1.139 4.193z"/>
            <path fill="#D1E3E8" d="M251.069 191.292l55.011 28.265c.73.364 1.183 1.052 1.183 1.797 0 .746-.452 1.433-1.183 1.798l-52.666 27.058c-3.731 1.916-8.328 1.916-12.06 0l-52.662-27.058c-.73-.365-1.182-1.052-1.182-1.798 0-.745.452-1.433 1.182-1.797l55.012-28.265a8.153 8.153 0 0 1 7.365 0z"/>
            <path fill="#90AAAF" d="M219.796 216.71c-1.459 6.671 7.279 13.658 19.52 15.604 12.242 1.947 23.336-1.887 24.795-8.559 1.459-6.671-7.279-13.658-19.52-15.604-12.242-1.947-23.336 1.875-24.795 8.559z"/>
            <path fill="#8FBBC1" d="M222.07 213.56c-1.5 6.665 6.699 13.543 18.309 15.371 11.61 1.829 22.24-2.102 23.735-8.768 1.496-6.666-6.7-13.543-18.31-15.369-11.609-1.825-22.236 2.1-23.735 8.765z"/>
            <ellipse cx="334.421" cy="57.951" fill="#818C96" rx="15.408" ry="8.097"/>
            <path fill="#FFF" d="M318.894 48.724c0 7.637 6.952 13.83 15.534 13.838a17.09 17.09 0 0 0 4.764-.665c7.589-2.166 12.11-9.086 10.47-16.026-1.64-6.94-8.912-11.653-16.838-10.915-7.926.74-13.941 6.69-13.93 13.783v-.015z"/>
            <path fill="#D3E8EA" fill-rule="nonzero" d="M334.428 63.283c-6.618.003-12.586-3.543-15.12-8.983-2.535-5.44-1.137-11.704 3.542-15.87 4.679-4.164 11.716-5.411 17.83-3.158 6.115 2.253 10.102 7.563 10.102 13.452.002 3.86-1.72 7.565-4.787 10.295-3.067 2.731-7.229 4.265-11.567 4.264zm0-27.646a16.06 16.06 0 0 0-2.588.206c-7.494 1.197-12.721 7.287-12.049 14.037.672 6.749 7.023 11.925 14.637 11.931 1.53.003 3.05-.21 4.506-.63 6.892-1.975 11.143-8.121 10.02-14.487-1.123-6.366-7.285-11.057-14.526-11.057z"/>
            <path fill="#D3E8EA" d="M333.945 63.283c-.372 0-.697-.22-.796-.539-.1-.318.051-.656.369-.827 3.144-1.488 5.3-4.223 5.803-7.36.261-2.503-.83-4.968-2.938-6.64-2.496-2.243-6.048-3.288-9.555-2.812-3.139.538-5.807 2.366-7.193 4.929a.838.838 0 0 1-.691.406.865.865 0 0 1-.741-.33.669.669 0 0 1-.05-.735c1.62-2.976 4.725-5.096 8.374-5.718 4.017-.56 8.094.618 10.974 3.174 2.496 1.984 3.782 4.905 3.464 7.87-.545 3.6-2.997 6.75-6.594 8.47a.91.91 0 0 1-.426.112zM349.147 49.16c-3.178-.542-6.058-2.024-8.172-4.205-2.226-1.674-3.523-4.128-3.553-6.722.007-1.184.524-2.321 1.446-3.177a.907.907 0 0 1 .83-.14c.285.093.49.317.535.583a.7.7 0 0 1-.32.697 3.144 3.144 0 0 0-.84 2.111c.07 2.171 1.19 4.21 3.07 5.594 2.859 2.544 6.14 4.181 7.507 3.701a.908.908 0 0 1 .816.108c.231.164.347.424.303.683a.757.757 0 0 1-.513.575 3.254 3.254 0 0 1-1.109.192z"/>
            <path fill="#C6C6C6" d="M338.692 144.48l84.527 43.429-56.35 28.95-84.518-43.424z"/>
            <path fill="#D8D8D8" d="M338.692 143.43l84.527 43.428-56.35 28.95-84.518-43.427z"/>
            <path fill="#F2F2F2" d="M338.692 142.375l84.527 43.429-56.35 28.95-84.518-43.427z"/>
            <path fill="#96A5A8" fill-rule="nonzero" d="M365.34 215.273c.464.003.91-.16 1.239-.452a1.46 1.46 0 0 0 .507-1.103 1.265 1.265 0 0 0-.152-.627 1.694 1.694 0 0 0-.33-.456c-.693-.594-1.785-.604-2.492-.024-.159.15-.287.323-.377.513a1.399 1.399 0 0 0 .15 1.461c.325.433.873.692 1.458.688h-.003zm0-2.061a.626.626 0 0 1 .41.135c.047.051.086.108.116.168a.361.361 0 0 1 .046.189.468.468 0 0 1-.162.359.65.65 0 0 1-.808 0 .464.464 0 0 1-.112-.548.755.755 0 0 1 .136-.188.612.612 0 0 1 .367-.1l.007-.015zM356.165 210.562c.847.001 1.574-.54 1.722-1.282.149-.743-.323-1.473-1.12-1.732-.795-.26-1.685.027-2.11.68-.483.742-.2 1.691.634 2.122.264.142.566.215.874.212zm0-2.061c.095 0 .189.022.271.065.272.138.366.446.212.689-.16.225-.488.304-.754.182a.513.513 0 0 1-.274-.303.45.45 0 0 1 .055-.386.599.599 0 0 1 .5-.244l-.01-.003zm-9.178-2.65c.79.001 1.48-.47 1.686-1.148.206-.678-.126-1.394-.81-1.746a1.919 1.919 0 0 0-1.944.102c-.564.384-.809 1.035-.62 1.644.116.402.413.744.821.945.268.133.57.2.877.194l-.01.01zm0-2.06c.099-.001.196.022.281.067a.52.52 0 0 1 .265.294.461.461 0 0 1-.063.38.54.54 0 0 1-.34.232.6.6 0 0 1-.424-.061c-.221-.114-.328-.346-.26-.565.067-.22.292-.37.548-.368l-.007.02zm-9.178-2.65c.617 0 1.19-.286 1.512-.754.412-.613.308-1.395-.253-1.906-.56-.51-1.436-.62-2.134-.27-.698.353-1.042 1.078-.838 1.769.204.69.904 1.171 1.706 1.172l.007-.012zm.5-1.302c-.17.232-.51.31-.785.182a.514.514 0 0 1-.258-.294.464.464 0 0 1 .06-.383.546.546 0 0 1 .33-.232.639.639 0 0 1 .424.05c.133.067.23.178.272.309.04.12.028.247-.033.36l-.01.008zm-9.675-3.41c.544 0 1.056-.223 1.388-.606.332-.383.445-.881.306-1.349a1.568 1.568 0 0 0-.81-.942c-.83-.393-1.86-.133-2.334.59-.474.722-.222 1.649.57 2.098.271.137.579.206.89.2l-.01.01zm0-2.06c.099 0 .196.022.282.064.126.064.219.17.258.295.04.127.02.263-.057.377-.164.233-.504.313-.777.182-.217-.118-.32-.35-.25-.567.07-.218.294-.368.548-.366l-.004.014zm-9.174-2.65c.623 0 1.198-.298 1.505-.78.484-.743.201-1.694-.632-2.126-.838-.43-1.909-.175-2.392.57-.483.746-.196 1.7.642 2.13.274.136.583.204.897.197l-.02.009zm0-2.061a.576.576 0 0 1 .49.249c.1.155.099.347-.004.501-.163.229-.496.307-.764.18-.222-.114-.33-.347-.263-.567.067-.22.291-.373.547-.372l-.006.009zm-9.175-2.65c.624 0 1.202-.294 1.515-.775a1.42 1.42 0 0 0-.126-1.738c-.437-.502-1.172-.718-1.859-.546-.929.233-1.476 1.086-1.23 1.916.117.397.411.734.813.934.276.138.588.207.904.2l-.017.009zm.496-1.307a.54.54 0 0 1-.348.242.603.603 0 0 1-.436-.066.465.465 0 0 1-.195-.677.553.553 0 0 1 .331-.241.59.59 0 0 1 .42.05c.281.127.393.432.252.683l-.024.009zm-9.664-3.404c.625.002 1.201-.297 1.509-.78.442-.739.15-1.656-.663-2.078-.811-.421-1.853-.197-2.358.508-.235.361-.297.79-.172 1.193.124.402.425.742.834.945.263.136.563.206.867.203l-.017.009zm0-2.061c.099 0 .196.024.281.068a.512.512 0 0 1 .265.308.453.453 0 0 1-.063.384.593.593 0 0 1-.563.235.548.548 0 0 1-.466-.368.442.442 0 0 1 .056-.38.592.592 0 0 1 .507-.259l-.017.012zm-9.174-2.65c.62-.003 1.195-.295 1.512-.771.481-.747.191-1.7-.647-2.128-.839-.428-1.91-.17-2.39.576a1.403 1.403 0 0 0-.005 1.56c.314.483.896.777 1.523.772l.007-.009zm.492-1.301c-.167.232-.506.312-.78.182a.515.515 0 0 1-.263-.308.456.456 0 0 1 .06-.384.555.555 0 0 1 .332-.226.635.635 0 0 1 .43.053c.265.128.37.42.238.662l-.017.02zM282.781 172.855c.226 0 .45-.035.662-.106a1.81 1.81 0 0 0 .576-.345c.167-.15.3-.328.39-.524a1.464 1.464 0 0 0 0-1.178 1.794 1.794 0 0 0-.36-.491 1.831 1.831 0 0 0-.583-.348 1.985 1.985 0 0 0-1.323 0c-.213.076-.407.19-.57.333-.163.146-.294.319-.383.51-.18.376-.18.8 0 1.177.085.19.215.363.38.506.32.297.766.46 1.228.45l-.017.016zm0-2.061c.078 0 .156.012.228.038.064.023.121.057.17.1a.66.66 0 0 1 .128.168c.025.06.036.124.033.188a.448.448 0 0 1-.033.189.639.639 0 0 1-.149.188.518.518 0 0 1-.159.094.777.777 0 0 1-.433 0 .594.594 0 0 1-.179-.112.405.405 0 0 1-.119-.156.456.456 0 0 1 .12-.559.55.55 0 0 1 .178-.103.676.676 0 0 1 .218-.024l-.003-.011z"/>
            <path fill="#3084FD" d="M171.313 210.771l-67.687 34.174L42.593 174.4l62.532-24.331z"/>
            <path fill="#D9F0F4" d="M163.471 210.565l-69.129 32.387-58.26-71.546 63.438-22.783z"/>
            <path fill="#FFF4E9" d="M151.379 221.562l-75.326 23.622-42.145-75.297 63.495-17.077z"/>
            <path fill="#818C96" d="M323.887 407.101a4.157 4.157 0 0 0 .886 2.568 4.969 4.969 0 0 0 1.691 1.404l15.583 8.012 100.769 51.766c8.244 4.23 18.397 4.23 26.64 0l102.804-52.826 13.542-6.952a5.012 5.012 0 0 0 1.694-1.404c.8-1.054 1.073-2.358.752-3.598-.321-1.24-1.207-2.306-2.446-2.941l-13.542-6.949-107.995-55.5c-5.036-2.585-11.239-2.585-16.274 0l-105.957 54.437-15.583 8.012c-1.598.814-2.579 2.333-2.564 3.971z" opacity=".1"/>
            <path fill="#E6EFEF" d="M556.409 410.897c2.536-.009 4.753-1.527 5.41-3.707.659-2.18-.404-4.482-2.595-5.62l-89.691-46.114c-4.805-2.482-7.765-7.049-7.776-11.992V286.61c-.007-4.951 2.958-9.528 7.777-12.003 4.818-2.475 10.755-2.471 15.569.01l36.725 18.877c8.29 4.255 18.502 4.253 26.79-.006 8.289-4.26 13.396-12.129 13.399-20.646v-53.194c0-2.764-2.519-5.005-5.625-5.005s-5.625 2.24-5.625 5.005v53.194c.008 4.95-2.956 9.528-7.773 12.003-4.818 2.476-10.754 2.473-15.568-.008L490.7 265.962c-8.29-4.256-18.501-4.254-26.79.005-8.288 4.258-13.395 12.126-13.4 20.643v56.854c.015 8.511 5.113 16.375 13.387 20.645l89.708 46.128c.853.435 1.82.663 2.803.66z"/>
            <path fill="#D8491D" d="M421.294 350.268c-.662 10.485 1.76 9.757 0 15.443-1.396 4.51-9.803 8.933-24.646 4.578-14.842-4.354-28.404-12.601-33.601-21.016-5.198-8.415 13.393-12.145 29.019-6.38a217.711 217.711 0 0 0 29.228 7.375"/>
            <path fill="#4817CE" d="M406.6 260.615c3.163 18.71 19.408 87.504 14.889 97.285-4.52 9.78-18.898 9.507-29.158-4.461-10.26-13.968-29-91.226-29.288-105.323-.248-12.54 39.409-12.074 43.557 12.499z"/>
            <path fill="#4817CE" d="M428.07 289.816c-20.219-10.92-55.915-27.658-62.863-39.527-6.948-11.868 2.61-28.12 22.323-27.865 19.712.257 61.41 29.426 76.368 31.228 14.958 1.801-9.277 50.517-35.828 36.164z"/>
            <path fill="#F05A25" d="M381.009 364.704c1.518 10.414 2.6 14.132 2.6 17.215s-7.206 8.35-22.693 6.495c-15.487-1.855-37.48-8.868-44.335-16.29-6.855-7.423 19.59-15.102 34.237-11.54a227.773 227.773 0 0 0 30.178 4.123"/>
            <path fill="#6123EA" d="M366.057 274.132c3.163 18.71 19.408 87.504 14.889 97.285-4.52 9.78-18.899 9.504-29.158-4.46-10.26-13.966-29.003-91.226-29.291-105.324-.232-12.54 39.421-12.077 43.56 12.499z"/>
            <path fill="#CCC" d="M361.508 299.924l11.372-5.848v3.749L450.2 258.1c3.676-1.887 8.203-1.887 11.878 0l78.81 40.499v-3.745l9.883 5.07c1.17.592 1.89 1.701 1.882 2.9v3.745c.009 1.199-.711 2.308-1.882 2.9l-9.883 5.073-75.018 38.55c-6.017 3.088-13.428 3.088-19.444 0l-73.546-37.776-11.372-5.847c-1.17-.592-1.89-1.701-1.882-2.9v-3.745c-.009-1.199.711-2.308 1.882-2.9z"/>
            <path fill="#FFF" d="M359.626 302.824c0 .67.23 1.323.661 1.872.318.421.74.772 1.234 1.025l11.372 5.847 73.546 37.778c6.018 3.086 13.426 3.086 19.444 0l75.018-38.552 9.883-5.073a3.609 3.609 0 0 0 1.237-1.025c.585-.769.784-1.72.55-2.626-.235-.905-.882-1.683-1.787-2.146l-9.883-5.07-78.81-40.502c-3.675-1.887-8.202-1.887-11.877 0l-77.321 39.724-11.372 5.848c-1.176.59-1.901 1.699-1.895 2.9z"/>
            <path fill="#F8B7B0" d="M456.755 163.595c-11.212 4.068-23.98 2.762-33.863-3.463-4.41-3.065 5.545-9.162 8.506-13.785 1.237-2.565 1.385-5.442.417-8.096a160.957 160.957 0 0 0-7.898-25.027l33.807-3.718s2.852 15.213 4.344 20.81c.216.886.59 1.736 1.109 2.517 2.177 3.239 6.67 3.851 14.418 7.066 9.43 3.928-4.34 18.134-20.84 23.696z"/>
            <path fill="#F8B7B0" d="M480.47 90.15c-3.536 17.96-4.122 24.063-14.104 30.985-9.982 6.922-32.093 8.833-39.845 8.45-9.694-.488-12.49-10.363-14.395-18.13a117.909 117.909 0 0 1 .635-48.23c2.336-9.946 18.035-21.367 33.264-20.61 15.23.756 43.084 3.668 34.446 47.535z"/>
            <path fill="#1C1E38" d="M420.265 83.013c1.492 15.77 6.772 18.46 11.798 28.339 4.685 9.21 17.132 15.972 26.167 13.676 16.212-4.122 17.08-9.422 26.548-24.965 6.756-10.808 9.38-23.277 7.478-35.528-1.211-8.763-15.835-19.742-31.408-20.154-15.574-.412-44.23.112-40.583 38.632z"/>
            <path fill="#F8B7B0" d="M414.362 102.707c.682 5.874 5.625 10.382 11.028 10.067 5.403-.315 9.237-5.332 8.552-11.21-.684-5.876-5.624-10.38-11.027-10.066-5.403.315-9.25 5.332-8.553 11.21z"/>
            <path fill="#1C1E38" d="M428.503 71.645c-10.514-5.247-23.616-9.463-17.016-17.318 6.6-7.856 27.554-18.729 55.624-11.085 28.07 7.643-38.608 28.403-38.608 28.403z"/>
            <path fill="#F8B7B0" d="M393.995 141.424c-12.387-.424-14.187-4.448-24.255-5.888-10.068-1.44-14.227-1.472-20.636 2.435-6.408 3.907-10.835 14.65 6.618 14.427 17.452-.224 19.341 2.756 29.552 3.85 10.865 1.182 8.72-14.824 8.72-14.824z"/>
            <path fill="#1C1E38" d="M346.68 157.009c-.513 0-.973-.28-1.158-.705-.185-.425-.058-.908.32-1.215l25.655-20.843c.327-.266.79-.356 1.212-.237.423.12.742.43.837.816.095.385-.048.786-.375 1.052l-25.641 20.858a1.336 1.336 0 0 1-.85.274z"/>
            <path fill="#F8B7B0" d="M396.324 151.626c-12.344.248-14.706-1.401-24.897-1.666-10.19-.265-14.336-.133-20.112 1.749-5.777 1.881-8.636 6.6 8.638 5.909 17.274-.692 19.577.506 29.857.618 10.948.121 6.514-6.61 6.514-6.61z"/>
            <path fill="#FF46CB" d="M473.463 193.008c-23.722-1.41-82.81-28.936-93.14-34.707-1.331-.759-2.166-2.047-2.236-3.454-.625-9.127 4.89-16.417 7.716-16.92 3.064-.548 74.664 32.94 107.6 25.562"/>
            <path fill="#6123EA" d="M499.27 266.483c3.722 15.457 6.203 29.24-1.654 36.886-7.858 7.646-31.197 20.527-65.229 15.743-34.031-4.785-57.843-13.968-53.052-22.377 4.79-8.409 1.24-30.24 38.048-27.296 36.808 2.944 81.887-2.956 81.887-2.956z"/>
            <path fill="#6123EA" d="M387.54 307.623c-20.219-10.92-55.898-27.658-62.863-39.527-6.964-11.868 2.61-28.12 22.326-27.865 19.716.257 61.407 29.426 76.365 31.228 14.958 1.801-9.274 50.506-35.828 36.164z"/>
            <path fill="#FE70CD" d="M403.947 270.434c-.189 8.267 1.87 20.516 20.708 24.27 21.056 4.204 42.747 1.637 58.254-5.786 18.965-9.089 17.982-13.658 14.174-30.14a239.815 239.815 0 0 1-3.309-28.899c0-17.777 3.001-27.087 5-38.743 2.918-16.821 7.483-38.043-12.05-51.982-6.006-3.8-13.236-5.763-20.603-5.594-22.61 3.357-51.534 15.69-60.57 41.597a51.134 51.134 0 0 0-2.186 8.833 55.554 55.554 0 0 0-.606 10.92c.761 19.162 1.142 33.33 1.324 44.023.033.368.033.733.033 1.101.274 17.504-.043 25.292-.169 30.4z"/>
            <path fill="#FF46CB" d="M402.782 194.916c.761 19.161 1.142 33.33 1.324 44.023a294.95 294.95 0 0 0 25.115-34.743c13.668-22.912 12.146-38.57-7.739-36.712-6.278.466-12.05 3.25-15.917 7.676a51.134 51.134 0 0 0-2.187 8.833 55.552 55.552 0 0 0-.596 10.923z"/>
            <path fill="#FFF" d="M454.604 273.308v21.063c0 1.53.684 2.996 1.9 4.076 1.217 1.08 2.866 1.686 4.585 1.683 1.125 0 2.23-.267 3.2-.774l87.345-44.886c1.995-1.027 3.224-2.922 3.226-4.973v-21.06c-.001-2.055-1.233-3.954-3.233-4.982a7.167 7.167 0 0 0-6.464-.003l-87.346 44.874c-1.992 1.032-3.217 2.93-3.213 4.982z"/>
            <path fill="#CCC" d="M459.054 274.87v21.064c-.009 1.59.729 3.111 2.035 4.196 1.125 0 2.23-.267 3.2-.774l87.345-44.886c1.995-1.027 3.224-2.922 3.226-4.973v-21.06c.011-1.594-.732-3.118-2.048-4.199a6.89 6.89 0 0 0-3.2.775l-87.345 44.873c-1.993 1.033-3.217 2.933-3.213 4.985z"/>
            <path fill="#E6EFEF" d="M456.133 462.377c2.534-.01 4.748-1.528 5.405-3.706.658-2.178-.402-4.479-2.59-5.618l-89.685-46.081c-4.809-2.479-7.773-7.047-7.781-11.992v-59.528c-.008-4.95 2.958-9.527 7.776-12.002 4.818-2.475 10.755-2.471 15.569.01l36.725 18.873c8.29 4.255 18.5 4.253 26.788-.004 8.288-4.258 13.396-12.125 13.4-20.641v-53.186c-.176-2.644-2.637-4.708-5.614-4.708-2.976 0-5.438 2.064-5.614 4.708V321.7c.007 4.95-2.958 9.528-7.777 12.003-4.818 2.475-10.755 2.47-15.569-.011l-36.724-18.876c-8.29-4.255-18.502-4.253-26.79.005s-13.395 12.127-13.4 20.643v59.516c.015 8.515 5.118 16.38 13.397 20.648l89.682 46.078a6.11 6.11 0 0 0 2.802.671z"/>
            <path fill="#F8B7B0" d="M277.253 209.255c-11.743-1.658-12.94-5.67-22.343-8.059-9.403-2.388-13.377-2.841-19.96.233-6.585 3.074-15.524 14.15 1.121 15.716a188.57 188.57 0 0 1 30.981 5.359c10.2 2.208 10.2-13.25 10.2-13.25z"/>
            <path fill="#FE70CD" d="M444.84 178.337c-19.13 19.076-62.878 48.61-85.274 53.312-23.16 4.858-88.712-5.995-100.494-8.806-1.523-.38-2.744-1.393-3.275-2.718-3.613-8.562-.751-16.968 1.783-18.19 2.75-1.325 82.25 11.951 111.29-3.718 20.275-10.938 21.489-11.648 36.837-28.527 12.4-13.638 22.6-29.199 42.872-26.428 20.272 2.77 14.353 17.032-3.738 35.075z"/>
            <path fill="#C2CECE" d="M151.68 143.344h1.217v.695a2.46 2.46 0 0 1 .331-.186l122.599-62.986a4.4 4.4 0 0 1 3.943 0l70.396 36.173c.437.222.82.517 1.132.868h.83V120.125c-.011 1.235-.76 2.371-1.965 2.983l-122.588 62.987a4.332 4.332 0 0 1-3.944 0l-70.406-36.165a4.002 4.002 0 0 1-1.185-.939 3.282 3.282 0 0 1-.777-2.105v-1.952a3.197 3.197 0 0 1 .417-1.59z"/>
            <path fill="#E6EFEF" d="M151.253 144.934c.001.33.052.66.152.978.236.762.764 1.427 1.492 1.88.105.07.216.132.331.186l70.406 36.165a4.332 4.332 0 0 0 3.944 0l122.588-62.987c.89-.446 1.544-1.187 1.82-2.061.508-1.55-.244-3.207-1.82-4.007L279.77 78.912a4.4 4.4 0 0 0-3.943 0l-122.599 62.986a3.619 3.619 0 0 0-1.535 1.443 3.203 3.203 0 0 0-.44 1.593z"/>
            <path fill="#C2CECE" d="M258.318 143.718l14.557 7.479a2.313 2.313 0 0 0 2.091 0l20.533-10.541c.654-.332 1.058-.95 1.058-1.62 0-.669-.404-1.287-1.058-1.619l-14.557-7.478a2.317 2.317 0 0 0-2.091 0l-20.533 10.54c-.654.332-1.058.95-1.058 1.62 0 .67.404 1.288 1.058 1.619z"/>
            <path fill="#818C96" d="M308.158 103.635l-29.139-14.97a2.743 2.743 0 0 0-2.461 0l-105.824 54.373c-.763.391-1.232 1.115-1.232 1.897 0 .783.47 1.507 1.232 1.898l29.135 14.966a2.731 2.731 0 0 0 2.465 0l105.824-54.37c.762-.39 1.232-1.114 1.232-1.897 0-.783-.47-1.506-1.232-1.897z"/>
            <path fill="#99BCC1" d="M277.782 3.532v72.344c-.003 1.256-.76 2.415-1.985 3.038l-122.579 62.987a4.37 4.37 0 0 1-3.94-.001c-1.22-.627-1.971-1.784-1.972-3.037V66.519c.002-1.256.76-2.415 1.985-3.038L271.886.494a4.367 4.367 0 0 1 3.93.01c1.215.625 1.964 1.78 1.966 3.028z"/>
            <path fill="#FAFEFF" d="M271.208 71.5V10.11c-.009-.519-.323-.995-.828-1.254a1.834 1.834 0 0 0-1.634-.01l-111.922 57.5c-1.82.935-2.94 2.663-2.94 4.534v61.379c.008.518.322.994.827 1.253a1.834 1.834 0 0 0 1.634.01l111.922-57.505c1.814-.931 2.935-2.652 2.94-4.516z"/>
            <path fill="#D8EDEF" fill-rule="nonzero" d="M168.887 119.887a10.098 10.098 0 0 1-4.605-1.11c-2.868-1.451-4.63-4.169-4.609-7.104V83.216c.013-7.65 4.6-14.716 12.04-18.549l79.882-41.043c2.85-1.466 6.364-1.466 9.215-.001 2.852 1.465 4.608 4.172 4.608 7.102v28.457c-.014 7.65-4.599 14.715-12.037 18.549L173.5 118.777a10.102 10.102 0 0 1-4.613 1.11z"/>
            <path fill="#D8EDEF" fill-rule="nonzero" d="M256.213 23.983a8.248 8.248 0 0 0-3.781.913l-79.892 41.04c-6.926 3.574-11.197 10.155-11.213 17.28v28.457c0 2.403 1.442 4.625 3.78 5.827 2.34 1.202 5.222 1.203 7.562.002l79.885-41.046c6.928-3.571 11.198-10.152 11.21-17.277v-28.46c-.011-3.713-3.388-6.723-7.56-6.739l.01.003z"/>
            <path fill="url(#g)" d="M685.995 4.692v561.003c0 5.691-5.185 10.305-11.58 10.305H562.023L156.328 133.534a1.811 1.811 0 0 1-1.635-.004c-.505-.261-.815-.742-.813-1.262V70.909c-.009-1.873 1.116-3.606 2.944-4.534L268.753 8.844l417.242-4.152z" opacity=".2"/>
            <path fill="#317DBC" d="M537.11 66.05c-36.262-11.862-86.06-15.333-98.926 5.153-12.867 20.487-11.226 39.819-6.386 48.931 4.84 9.113 14.482 31.916 3.931 41.965-10.551 10.049-26.541 27.709-22.128 58.138 4.414 30.429 18.035 66.738 2.124 68.702-15.91 1.964-85.294-43.184-100.232 0-14.938 43.183-25.87 107.466 0 140.833 25.87 33.368 115.726 79.475 203.42 66.732 87.693-12.742 120.762-8.52 110.284-133.56-10.478-125.041 17.095-261.179-92.087-296.893z" opacity=".01"/>
        </g>
        <g transform="translate(291.712 749.809)">
            <mask id="j" fill="#fff">
                <use xlink:href="#h"/>
            </mask>
            <use fill="url(#i)" xlink:href="#h"/>
            <path fill="#FFF" fill-opacity=".19" d="M292.026 368.896c-1.528-.815-153.162-82.968-202.76-200.392C39.373 50.37 68.555-.468 157.624-76.478l4.44 4.131C71.106 5.271 47.343 53.023 95.267 166.5c48.823 115.584 198.552 196.701 200.06 197.507l-3.301 4.889z" mask="url(#j)"/>
            <path fill="#FFF" fill-opacity=".19" d="M68.492 92.461C2.855 77.478-11.855 44.933-12.448 43.552l5.984-2.065c.136.295 14.389 31.244 76.55 45.439l-1.594 5.535zM95.622 175.685l-1.925-5.45c37.336-10.46 66.362-51.34 66.654-51.759l5.441 3.04c-1.23 1.743-30.596 43.078-70.17 54.17zM128.578 231.655c-115.102-4.37-131.37-53.642-132.006-55.737l6.19-1.501c.15.472 16.128 47.354 126.091 51.532l-.275 5.706z" mask="url(#j)"/>
        </g>
        <g transform="translate(79 731)">
            <mask id="m" fill="#fff">
                <use xlink:href="#k"/>
            </mask>
            <use fill="url(#l)" xlink:href="#k"/>
            <g fill="#FFF" fill-opacity=".22" mask="url(#m)">
                <path d="M591.73 373.81c-2.526-.277-254.24-29.36-395.555-157.24C54.012 87.926 59.042 6.4 125.958-138.948l8.493 3.098C66.111 12.564 66.153 87.264 202.716 210.843c139.101 125.876 387.655 154.588 390.15 154.862l-1.137 8.105z"/>
                <path d="M119.49 127.902C37.123 142.21 2.278 107.263.835 105.773l5.588-5.777c.328.336 33.754 33.41 111.754 19.857l1.311 8.05zM209.158 222.672l-6.064-6.068c41.99-32.648 53.303-100.449 53.412-101.147l9.083 1.14c-.46 2.914-11.923 71.478-56.43 106.075zM288.693 278.816c-111.459 53.727-150.255-2.28-151.85-4.691l5.17-5.158c.367.54 37.756 53.571 144.237 2.251l2.443 7.598z"/>
            </g>
        </g>
    </g>
</svg>
