<svg xmlns="http://www.w3.org/2000/svg" width="93" height="99" viewBox="0 0 93 99">
    <g fill="#333" fill-rule="nonzero">
        <path d="M21 35a2 2 0 1 0 .002 4.002A2 2 0 0 0 21 35z"/>
        <path d="M60.176 7.734h-9.705C50.47 3.462 46.996 0 42.706 0c-4.281 0-7.765 3.47-7.765 7.734H5.824C2.612 7.734 0 10.336 0 13.535V93.2C0 96.398 2.612 99 5.824 99h54.352C63.388 99 66 96.398 66 93.2V13.534c0-3.199-2.612-5.8-5.824-5.8zm-21.352 0c0-2.132 1.741-3.867 3.882-3.867a3.874 3.874 0 0 1 3.882 3.867v71.024a11.626 11.626 0 0 0-7.764-2.961V7.734zm-1.942 71.93h1.942c4.28 0 7.764 3.47 7.764 7.734 0 4.485-3.956 7.735-8.318 7.735H15.53V11.602H34.94V77.73c0 1.068.87 1.934 1.941 1.934zm-33 13.535V13.535a1.94 1.94 0 0 1 1.942-1.933h5.823v83.53H5.824A1.94 1.94 0 0 1 3.882 93.2zm58.236 0a1.94 1.94 0 0 1-1.942 1.934h-12.83c1.981-2.084 3.125-4.747 3.125-7.735V11.602h9.705a1.94 1.94 0 0 1 1.942 1.933V93.2z"/>
        <path d="M21 15c-1.105 0-2 .84-2 1.875v11.25c0 1.036.895 1.875 2 1.875s2-.84 2-1.875v-11.25C23 15.839 22.105 15 21 15zM83.5 8c-5.238 0-9.5 4.324-9.5 9.64v64.008c0 .294.068.592.2.863l7.6 15.423c.323.653.98 1.066 1.7 1.066s1.377-.413 1.7-1.066l7.6-15.423c.124-.253.2-.547.2-.863V17.64C93 12.324 88.738 8 83.5 8zm-5.7 71.72V33.064h3.8V79.72h-3.8zm0-50.512v-3.856h11.4v3.856H77.8zm7.6 3.856h3.8V79.72h-3.8V33.064zm-1.9-21.208c3.143 0 5.7 2.594 5.7 5.784v3.856H77.8V17.64c0-3.19 2.557-5.784 5.7-5.784zm0 80.905l-4.526-9.185h9.052L83.5 92.761z"/>
    </g>
</svg>
