<svg xmlns="http://www.w3.org/2000/svg" xmlns:xlink="http://www.w3.org/1999/xlink" width="17" height="16" viewBox="0 0 17 16">
    <defs>
        <path id="a" d="M6.51 5.602A.738.738 0 0 1 5.954 6l-3.626.521L4.95 9.035a.72.72 0 0 1 .213.644l-.619 3.551 3.242-1.677a.75.75 0 0 1 .688 0l3.242 1.677-.619-3.55a.72.72 0 0 1 .213-.645l2.624-2.514L10.308 6a.738.738 0 0 1-.556-.398L8.132 2.37 6.51 5.602zm-1.154-.986L7.468.406a.745.745 0 0 1 1.326 0l2.112 4.21 4.723.679c.606.087.848.82.41 1.24L12.62 9.81l.807 4.627c.103.594-.53 1.047-1.073.767l-4.224-2.186-4.224 2.186c-.542.28-1.176-.173-1.072-.767L3.64 9.81.224 6.536a.724.724 0 0 1 .409-1.241l4.723-.68z"/>
    </defs>
    <use fill="#FFAB4E" fill-rule="nonzero" xlink:href="#a"/>
</svg>
