<svg xmlns="http://www.w3.org/2000/svg" width="104" height="97" viewBox="0 0 104 97">
    <g fill="#333" fill-rule="nonzero">
        <path d="M94.182 0H9.818C4.404 0 0 4.46 0 9.943V66.67c0 5.484 4.404 9.946 9.818 9.946h27.827c-.25 5.485-1.22 10.801-2.89 15.854h-6.798c-1.235 0-2.237 1.014-2.237 2.265 0 1.25 1.002 2.265 2.237 2.265h48.086c1.235 0 2.237-1.014 2.237-2.265 0-1.251-1.002-2.265-2.237-2.265h-6.798c-1.67-5.053-2.64-10.37-2.89-15.854h27.827c5.414 0 9.818-4.462 9.818-9.946V9.943C104 4.461 99.596 0 94.182 0zM4.473 9.943c0-2.984 2.398-5.413 5.345-5.413h84.364c2.947 0 5.345 2.428 5.345 5.413v51.728H4.473V9.943zM39.456 92.47c1.542-5.082 2.437-10.394 2.669-15.854h19.75c.233 5.46 1.127 10.772 2.67 15.854h-25.09zm60.071-25.8c0 2.987-2.398 5.416-5.345 5.416H9.818c-2.947 0-5.345-2.43-5.345-5.415v-.47h95.054v.47z"/>
        <path d="M82.748 53H34.252C33.01 53 32 53.895 32 55s1.009 2 2.252 2h48.496C83.99 57 85 56.105 85 55s-1.009-2-2.252-2zM22.15 53h-.299C20.83 53 20 53.895 20 55s.829 2 1.851 2h.298C23.17 57 24 56.105 24 55s-.829-2-1.85-2zM64.798 19.012L78.219 30.5 64.798 41.988A2.281 2.281 0 0 0 66.278 46c.524 0 1.05-.18 1.478-.547l15.447-13.22a2.28 2.28 0 0 0 0-3.465L67.756 15.547a2.275 2.275 0 0 0-3.21.251 2.28 2.28 0 0 0 .252 3.214zM20.798 32.233l15.446 13.22a2.27 2.27 0 0 0 3.21-.252 2.28 2.28 0 0 0-.251-3.213L25.78 30.5l13.422-11.488a2.281 2.281 0 0 0 .25-3.214 2.275 2.275 0 0 0-3.21-.251l-15.446 13.22a2.28 2.28 0 0 0 0 3.466zM45.654 49.888c.246.076.496.112.741.112 1.009 0 1.947-.608 2.276-1.564l12.21-35.47c.41-1.19-.277-2.467-1.535-2.854-1.257-.387-2.608.263-3.017 1.452l-12.21 35.471c-.41 1.188.277 2.466 1.535 2.853z"/>
    </g>
</svg>
