<svg xmlns="http://www.w3.org/2000/svg" width="105" height="99" viewBox="0 0 105 99">
    <g fill="#000" fill-rule="nonzero">
        <path d="M65 41a2 2 0 1 0 .002 4.002A2 2 0 0 0 65 41zM65 53a2 2 0 1 0 .002 4.002A2 2 0 0 0 65 53zM15 62a2 2 0 1 0 .002 4.002A2 2 0 0 0 15 62z"/>
        <path d="M103.898 24.984a2.041 2.041 0 0 0-2.122.137L84.668 37.125H79.16v-2.063c0-3.411-2.76-6.187-6.152-6.187h-7.623A16.502 16.502 0 0 0 70.957 16.5c0-9.098-7.36-16.5-16.406-16.5-6.171 0-11.555 3.446-14.356 8.523C37.395 3.446 32.011 0 25.84 0 16.793 0 9.434 7.402 9.434 16.5c0 4.925 2.159 9.349 5.571 12.375H6.152C2.76 28.875 0 31.651 0 35.063v37.124c0 3.412 2.76 6.188 6.152 6.188h11.485v6.188c0 1.139.918 2.062 2.05 2.062h6.153v10.313c0 1.139.918 2.062 2.05 2.062H52.5c1.133 0 2.05-.923 2.05-2.063V86.626h6.153c1.133 0 2.05-.923 2.05-2.063v-6.187h10.255c3.392 0 6.152-2.776 6.152-6.188V66h5.508l17.108 12.004c.62.435 1.437.497 2.122.137A2.065 2.065 0 0 0 105 76.312v-49.5c0-.768-.425-1.472-1.102-1.828zM54.55 4.125c6.785 0 12.304 5.552 12.304 12.375 0 6.824-5.519 12.375-12.304 12.375S42.246 23.324 42.246 16.5c0-6.823 5.52-12.375 12.305-12.375zm-10.835 24.75h-7.042a16.583 16.583 0 0 0 3.521-4.398 16.596 16.596 0 0 0 3.521 4.398zM13.536 16.5c0-6.823 5.519-12.375 12.304-12.375S38.145 9.677 38.145 16.5c0 6.824-5.52 12.375-12.305 12.375S13.535 23.324 13.535 16.5zm36.913 78.375H29.941v-8.25H50.45v8.25zM58.652 82.5H21.738v-4.125h36.914V82.5zM75.06 72.187c0 1.138-.92 2.063-2.051 2.063H6.152a2.059 2.059 0 0 1-2.05-2.063V35.063A2.06 2.06 0 0 1 6.152 33h66.856a2.06 2.06 0 0 1 2.05 2.063v37.124zM79.16 41.25h4.102v20.625H79.16V41.25zm21.738 31.11l-13.535-9.498V40.264l13.535-9.497v41.592z"/>
        <path d="M26 11c-3.309 0-6 2.691-6 6s2.691 6 6 6 6-2.691 6-6-2.691-6-6-6zm0 8c-1.103 0-2-.897-2-2 0-1.102.897-2 2-2s2 .898 2 2c0 1.103-.897 2-2 2zM54 23c3.309 0 6-2.691 6-6s-2.691-6-6-6-6 2.691-6 6 2.691 6 6 6zm0-8c1.103 0 2 .898 2 2 0 1.103-.897 2-2 2s-2-.897-2-2c0-1.102.897-2 2-2zM46 55.875v-12.75C46 41.951 45.077 41 43.937 41H15.064c-1.14 0-2.063.951-2.063 2.125v12.75c0 1.174.923 2.125 2.063 2.125h28.874c1.14 0 2.063-.951 2.063-2.125zm-4.125-2.125h-24.75v-8.5h24.75v8.5zM65.91 62H24.09c-1.154 0-2.09.895-2.09 2s.936 2 2.09 2h41.82c1.154 0 2.09-.895 2.09-2s-.936-2-2.09-2z"/>
    </g>
</svg>
