<?xml version="1.0" encoding="UTF-8"?>
<svg xmlns="http://www.w3.org/2000/svg" xmlns:xlink="http://www.w3.org/1999/xlink" width="512" height="512" viewBox="0 0 58 58" version="1.1"><!-- Generator: Sketch 51.3 (57544) - http://www.bohemiancoding.com/sketch --><title>007 - Car Insurance</title><desc>Created with Sketch.</desc><defs/><g id="Page-1" stroke="none" stroke-width="1" fill="none" fill-rule="evenodd"><g id="007---Car-Insurance" transform="translate(0.000000, -1.000000)" fill-rule="nonzero"><path d="M48,32 L4,32 L10.1,14.67 C10.6637681,13.0709269 12.1744564,12.001023 13.87,12 L33,12 L48,32 Z" id="Shape" fill="#90BAE1"/><path d="M27,12 L27,16 C27,16.5522847 26.5522847,17 26,17 C25.4477153,17 25,16.5522847 25,16 L25,12 L27,12 Z" id="Shape" fill="#35495E"/><path d="M9.648,29 C9.32366413,28.9999094 9.019516,28.8425262 8.83211041,28.5778134 C8.64470482,28.3131005 8.59732047,27.9739393 8.705,27.668 L12.459,17 C12.884726,15.802142 14.017739,15.0014261 15.289,15 L17,15 C17.5522847,15 18,15.4477153 18,16 C18,16.5522847 17.5522847,17 17,17 L15.289,17 C14.8648006,17.0001185 14.4868342,17.2678614 14.346,17.668 L10.592,28.332 C10.451044,28.7324849 10.0725665,29.0003059 9.648,29 Z" id="Shape" fill="#B0D3F0"/><path d="M30,20 L22,20 C21.4477153,20 21,19.5522847 21,19 L21,17 C21,16.4477153 21.4477153,16 22,16 L30,16" id="Shape" fill="#2C3E50"/><path d="M3,50 L13,50 L13,57 C13,58.1045695 12.1045695,59 11,59 L5,59 C3.8954305,59 3,58.1045695 3,57 L3,50 Z" id="Shape" fill="#35495E"/><path d="M39,50 L49,50 L49,57 C49,58.1045695 48.1045695,59 47,59 L41,59 C39.8954305,59 39,58.1045695 39,57 L39,50 Z" id="Shape" fill="#35495E"/><path d="M38.13,32 L4,32 C1.790861,32 2.22044605e-16,33.790861 0,36 L0,51 C0,51.5522847 0.44771525,52 1,52 L51,52 C51.5522847,52 52,51.5522847 52,51 L52,36 C52.0048489,34.3591861 50.9992857,32.884625 49.47,32.29 L38.13,32 Z" id="Shape" fill="#2980BA"/><path d="M6,36 L10,36 C12.209139,36 14,37.790861 14,40 C14,41.1045695 13.1045695,42 12,42 L6,42 C4.8954305,42 4,41.1045695 4,40 L4,38 C4,36.8954305 4.8954305,36 6,36 Z" id="Shape" fill="#F9EAB0"/><path d="M42,36 L46,36 C47.1045695,36 48,36.8954305 48,38 L48,40 C48,41.1045695 47.1045695,42 46,42 L40,42 C38.8954305,42 38,41.1045695 38,40 C38,37.790861 39.790861,36 42,36 Z" id="Shape" fill="#F9EAB0"/><path d="M6,48 L8,48 C8.55228475,48 9,48.4477153 9,49 L9,52 L5,52 L5,49 C5,48.4477153 5.44771525,48 6,48 Z" id="Shape" fill="#FB7B76"/><path d="M44,48 L46,48 C46.5522847,48 47,48.4477153 47,49 L47,52 L43,52 L43,49 C43,48.4477153 43.4477153,48 44,48 Z" id="Shape" fill="#FB7B76"/><rect id="Rectangle-path" fill="#A5A5A4" x="18" y="42" width="16" height="6" rx="1"/><rect id="Rectangle-path" fill="#D1D4D1" x="19" y="42" width="14" height="6" rx="1"/><path d="M44.29,35.928 L54.131,28.922 C56.5521985,27.2095836 57.9940717,24.4305585 58,21.465 L58,7.332 C58.0002955,7.13291949 57.8824606,6.95263207 57.7,6.873 L44.2,1.041 C44.0724748,0.985343426 43.9275252,0.985343426 43.8,1.041 L30.3,6.873 C30.1175394,6.95263207 29.9997045,7.13291949 30,7.332 L30,21.465 C30.0059283,24.4305585 31.4478015,27.2095836 33.869,28.922 L43.71,35.928 C43.8835822,36.051589 44.1164178,36.051589 44.29,35.928 Z" id="Shape" fill="#894B9D"/><path d="M36.188,25.664 C34.8239601,24.6992838 34.0092071,23.1356877 34,21.465 L34,9.633 L44,5.313 L54,9.633 L54,21.465 C53.991115,23.1360413 53.1763259,24.7000788 51.812,25.665 L44,31.225 L36.188,25.664 Z" id="Shape" fill="#955BA5"/><path d="M36.188,25.664 C34.8239601,24.6992838 34.0092071,23.1356877 34,21.465 L34,9.633 L44,5.313 L54,9.633 L54,21.465 C53.991115,23.1360413 53.1763259,24.7000788 51.812,25.665 L44,31.225 L36.188,25.664 Z" id="Shape" fill="#B49ACA"/><path d="M42,23.955 C41.7836298,23.955 41.5730962,23.8848221 41.4,23.755 L37.4,20.755 C37.1141875,20.5406406 36.9644453,20.1900853 37.0071797,19.8353848 C37.0499141,19.4806842 37.2786328,19.1757259 37.6071797,19.0353848 C37.9357266,18.8950436 38.3141875,18.9406406 38.6,19.155 L41.825,21.573 L49.219,12.33 C49.5650579,11.9027006 50.1911792,11.8349554 50.6206245,12.1783466 C51.0500699,12.5217379 51.1217114,13.1474254 50.781,13.579 L42.781,23.579 C42.5913371,23.8165116 42.3039469,23.954871 42,23.955 Z" id="Shape" fill="#3D324C"/></g></g></svg>
