<?xml version="1.0" encoding="UTF-8"?>
<svg xmlns="http://www.w3.org/2000/svg" xmlns:xlink="http://www.w3.org/1999/xlink" width="512" height="512" viewBox="0 0 58 60" version="1.1"><!-- Generator: Sketch 51.3 (57544) - http://www.bohemiancoding.com/sketch --><title>033 - Insurance</title><desc>Created with Sketch.</desc><defs/><g id="Page-1" stroke="none" stroke-width="1" fill="none" fill-rule="evenodd"><g id="033---Insurance" transform="translate(0.000000, -1.000000)" fill-rule="nonzero"><path d="M29.41,40.789 L40.468,32.917 C43.2346297,30.9593115 44.8821188,27.7832089 44.889,24.394 L44.889,8.2 C44.8892955,8.00091949 44.7714606,7.82063207 44.589,7.741 L29.089,1.041 C28.9614748,0.985343426 28.8165252,0.985343426 28.689,1.041 L13.189,7.741 C13.0065394,7.82063207 12.8887045,8.00091949 12.889,8.2 L12.889,24.4 C12.8957769,27.7894732 14.5437322,30.9657562 17.311,32.923 L28.369,40.795 C28.682072,41.0142467 29.099476,41.0118409 29.41,40.789 Z" id="Shape" fill="#894B9D"/><path d="M19.63,29.658 C17.9201796,28.4486601 16.8993807,26.4882495 16.889,24.394 L16.889,10.5 L28.889,5.317 L40.889,10.5 L40.889,24.4 C40.8787852,26.4942906 39.8579491,28.4547724 38.148,29.664 L28.889,36.255 L19.63,29.658 Z" id="Shape" fill="#B49ACA"/><path d="M26.6,27.1 C26.3836298,27.1 26.1730962,27.0298221 26,26.9 L21.429,23.471 C21.1431875,23.2566406 20.9934453,22.9060853 21.0361797,22.5513848 C21.0789141,22.1966842 21.3076328,21.8917259 21.6361797,21.7513848 C21.9647266,21.6110436 22.3431875,21.6566406 22.629,21.871 L26.429,24.719 L34.966,14.047 C35.3109018,13.6153895 35.9403894,13.5450982 36.372,13.8900001 C36.8036105,14.2349019 36.8739018,14.8643895 36.529,15.296 L27.385,26.722 C27.1948624,26.9613597 26.9056878,27.1006056 26.6,27.1 Z" id="Shape" fill="#3D324C"/><path d="M13.316,43.738 L8.748,39.169 C7.7681854,38.1891673 6.98418578,37.0314951 6.438,35.758 L4.2,30.539 C3.85513073,29.7350887 3.06476152,29.213681 2.19,29.213 C1.44646337,29.2140738 0.754308811,29.5925026 0.352092311,30.2178583 C-0.0501241893,30.843214 -0.107402032,31.6299831 0.2,32.307 L4.119,40.929 C4.59961649,41.9858913 5.26620497,42.9478381 6.087,43.769 L13.316,51 L23,51 L23,48.139 C23.0326513,45.9976631 22.3373789,43.908673 21.028,42.214 C20.2961932,41.248342 19.2994007,40.5162954 18.159,40.107 C15.9390106,39.1700159 13.8927151,37.8657688 12.106,36.249 C10.6792055,35.057914 8.57863147,35.1551709 7.268,36.473" id="Shape" fill="#FDD7AD"/><path d="M44.682,43.738 L49.251,39.169 C50.2308146,38.1891673 51.0148142,37.0314951 51.561,35.758 L53.8,30.539 C54.1451559,29.7344212 54.9365118,29.2128815 55.812,29.213 C56.5551814,29.2147517 57.2467117,29.5934549 57.6484508,30.2186967 C58.0501899,30.8439386 58.107257,31.6303059 57.8,32.307 L53.881,40.929 C53.4003835,41.9858913 52.733795,42.9478381 51.913,43.769 L44.682,51 L35,51 L35,48.139 C34.9676344,45.997544 35.6632634,43.9085416 36.973,42.214 C37.7048068,41.248342 38.7015993,40.5162954 39.842,40.107 C42.0616805,39.1700017 44.1076446,37.8657503 45.894,36.249 C47.3212824,35.0582638 49.4218253,35.1554991 50.733,36.473" id="Shape" fill="#FDD7AD"/><rect id="Rectangle-path" fill="#41767F" transform="translate(39.500000, 56.000000) rotate(-180.000000) translate(-39.500000, -56.000000) " x="33" y="51" width="13" height="10" rx="1"/><path d="M38,57 L37,57 C36.4477153,57 36,56.5522847 36,56 C36,55.4477153 36.4477153,55 37,55 L38,55 C38.5522847,55 39,55.4477153 39,56 C39,56.5522847 38.5522847,57 38,57 Z" id="Shape" fill="#2C3E50"/><rect id="Rectangle-path" fill="#41767F" x="11.999" y="51" width="13" height="10" rx="1"/><path d="M21,57 L20,57 C19.4477153,57 19,56.5522847 19,56 C19,55.4477153 19.4477153,55 20,55 L21,55 C21.5522847,55 22,55.4477153 22,56 C22,56.5522847 21.5522847,57 21,57 Z" id="Shape" fill="#2C3E50"/><path d="M14.92,43.99 C14.5256639,44.3767403 13.8943361,44.3767403 13.5,43.99 L8.93,39.42 C8.26487524,38.7545304 7.68081611,38.0127081 7.19,37.21 C7.1,37.06 7.02,36.92 6.94,36.77 L7.32,36.42 C7.67833639,36.059544 8.11205442,35.7829206 8.59,35.61 C9.05144569,36.4946972 9.64491409,37.3039723 10.35,38.01 L14.92,42.57 C15.3099779,42.9630079 15.3099779,43.5969921 14.92,43.99 Z" id="Shape" fill="#F09372"/><path d="M43.158,43.99 C43.5523361,44.3767403 44.1836639,44.3767403 44.578,43.99 L49.148,39.42 C49.8131248,38.7545304 50.3971839,38.0127081 50.888,37.21 C50.978,37.06 51.058,36.92 51.138,36.77 L50.758,36.42 C50.3996636,36.059544 49.9659456,35.7829206 49.488,35.61 C49.0265543,36.4946972 48.4330859,37.3039723 47.728,38.01 L43.158,42.57 C42.7680221,42.9630079 42.7680221,43.5969921 43.158,43.99 Z" id="Shape" fill="#F09372"/></g></g></svg>
