<?xml version="1.0" encoding="UTF-8"?>
<svg xmlns="http://www.w3.org/2000/svg" xmlns:xlink="http://www.w3.org/1999/xlink" width="512" height="512" viewBox="0 0 61 58" version="1.1"><!-- Generator: Sketch 51.3 (57544) - http://www.bohemiancoding.com/sketch --><title>027 - Motocross</title><desc>Created with Sketch.</desc><defs/><g id="Page-1" stroke="none" stroke-width="1" fill="none" fill-rule="evenodd"><g id="027---Motocross" fill-rule="nonzero"><path d="M46.167,23.625 C46.039031,24.8988748 46.0249753,26.181627 46.125,27.458 C44.875,26.328 42.37,24.09 40,24.09 C39.5513548,24.0962185 39.1036532,24.1329701 38.66,24.2 C39.775389,22.7892895 41.100843,21.5582699 42.59,20.55 C43.8886894,19.6487251 45.4200591,19.141741 47,19.09 C45.9,19.09 46.167,21.135 46.167,23.625 Z" id="Shape" fill="#008A00"/><path d="M47.96,29.98 C40.87,31.52 38.48,37.64 38.03,45.09 L23.3,45.09 C23.103884,45.0890041 22.9124731,45.0298407 22.75,44.92 L20,43.09 L16.89,36.09 L35.73,24.82 C36.6520996,24.5707634 37.586739,24.3704835 38.53,24.22 C38.58,24.21 38.62,24.21 38.66,24.2 C39.1036532,24.1329701 39.5513548,24.0962185 40,24.09 C41.9854369,24.070285 43.9031878,24.810909 45.36,26.16 C45.9830796,26.7315116 46.5308212,27.3800645 46.99,28.09 C47.3771081,28.6851752 47.7021426,29.3184898 47.96,29.98 Z" id="Shape" fill="#37474F"/><path d="M45,29.98 C37.91,31.52 35.52,37.64 35.07,45.09 L23.3,45.09 C23.103884,45.0890041 22.9124731,45.0298407 22.75,44.92 L20,43.09 L16.89,36.09 L35.73,24.82 C36.6520996,24.5707634 37.586739,24.3704835 38.53,24.22 C39.977206,24.4885654 41.3188855,25.1611385 42.4,26.16 C43.0230796,26.7315116 43.5708212,27.3800645 44.03,28.09 C44.4171081,28.6851752 44.7421426,29.3184898 45,29.98 Z" id="Shape" fill="#607D8B"/><path d="M39,28.51 L39,29.53 C39.0017148,29.8809158 38.8145295,30.2056251 38.51,30.38 L34,33.09 L26,36.09 L14.49,36.09 C14.2537245,36.0909072 14.0183615,36.0606462 13.79,36 C13.7044603,35.9906777 13.6204532,35.970516 13.54,35.94 L8.68,34.32 C8.27535339,34.1788492 8.00313712,33.7985471 8,33.37 L8,32.94 C8.001417,32.4483838 7.64528511,32.0286569 7.16,31.95 L3.35,31.32 C2.56977192,31.1876994 1.99911473,30.511365 2,29.72 L2,29.71 C2.0032904,28.8166652 2.72666518,28.0932904 3.62,28.09 L8.85,28.09 C8.95,28.09 9.05,28.1 9.15,28.11 L18.52,29.55 L20.77,29.9 L26,28.11 C27.03,27.71 28.08,27.32 29.12,26.95 C30.62,26.41 32.09,25.91 33.48,25.48 C34.26,25.23 35.02,25.01 35.73,24.82 L38.71,27.8 C38.8941958,27.9906836 38.9980257,28.2448879 39,28.51 Z" id="Shape" fill="#549414"/><path d="M36,28.42 L36,29.44 C36.0017148,29.7909158 35.8145295,30.1156251 35.51,30.29 L31,33 L23,36 L13.79,36 C13.7044603,35.9906777 13.6204532,35.970516 13.54,35.94 L8.68,34.32 C8.27535339,34.1788492 8.00313712,33.7985471 8,33.37 L8,32.94 C8.001417,32.4483838 7.64528511,32.0286569 7.16,31.95 L3.35,31.32 C2.56977192,31.1876994 1.99911473,30.511365 2,29.72 L2,29.71 C2.0032904,28.8166652 2.72666518,28.0932904 3.62,28.09 L6.6,28.09 L17.77,29.81 L18.52,29.55 L20.77,29.9 L26,28.11 C27.03,27.71 28.08,27.32 29.12,26.95 C30.62,26.41 32.09,25.91 33.48,25.48 L35.71,27.71 C35.8941958,27.9006836 35.9980257,28.1548879 36,28.42 Z" id="Shape" fill="#60A917"/><path d="M57.79,33.12 C57.3753689,34.0433551 56.3362679,34.5113799 55.37,34.21 C54.1210247,33.7994816 52.8147108,33.5902014 51.5,33.59 C45.3052751,33.5979201 40.0470366,38.1335228 39.13,44.26 C39.0518214,44.7399786 38.6363001,45.0918997 38.15,45.09 L35.03,45.0900077 C35.04,44.89 35.06,44.7 35.08,44.5 C35.7716264,37.3795884 40.9729218,31.5160163 47.96,29.98 C49.1217228,29.7181478 50.309135,29.5873312 51.5,29.59 C52.6219388,29.5906352 53.7409469,29.7045462 54.84,29.93 C55.42,30.05 55.98,30.2 56.53,30.37 C57.0822394,30.5398223 57.5357043,30.93734 57.7763655,31.4625925 C58.0170266,31.9878451 58.0219873,32.5908593 57.79,33.12 Z" id="Shape" fill="#007900"/><path d="M55.76,32.53 C55.3453689,33.4533551 54.3062679,33.9213799 53.34,33.62 C52.0910247,33.2094816 50.7847108,33.0002014 49.47,33 C43.2752751,33.0079201 38.0170366,37.5435228 37.1,43.67 C37.0218214,44.1499786 36.6063001,44.5018997 36.12,44.5 L35.08,44.5000077 C35.7716264,37.3795884 40.9729218,31.5160163 47.96,29.98 C49.1217228,29.7181478 50.309135,29.5873312 51.5,29.59 C52.6219388,29.5906352 53.7409469,29.7045462 54.84,29.93 C55.7886935,30.414631 56.1927566,31.5565482 55.76,32.53 Z" id="Shape" fill="#008A00"/><path d="M34.29,6.86 L31.93,5.72 C31.7185284,4.71660189 31.2260354,3.79404455 30.51,3.06 C29.7914023,2.20634471 28.8599496,1.55777763 27.81,1.18 C29.22,0.75 30.95,1.01 32.82,3.06 C33.8461898,4.04805173 34.3841017,5.43857233 34.29,6.86 Z" id="Shape" fill="#CFD8DC"/><path d="M32.12,10.8 L32.12,10.81 C31.5517458,11.3718975 30.936136,11.8837905 30.28,12.34 C29.8675414,12.6257367 29.3071939,12.5615747 28.97,12.19 L28.87,12.08 L28.65,11.84 L27.5,10.58 L27.48,10.55 L25.99,8.93 L25.94,8.87 L24.83,7.65 L24.43,7.21 C24.2537524,7.01648148 24.1604057,6.76157332 24.17,6.5 L24.27,4.37 C24.2790614,4.18145558 24.337701,3.99863804 24.44,3.84 C25.2721256,2.63634645 26.4459874,1.70979674 27.81,1.18 C28.8599496,1.55777763 29.7914023,2.20634471 30.51,3.06 C31.2260354,3.79404455 31.7185284,4.71660189 31.93,5.72 L31.4,5.46 C31.2260692,5.37346677 31.0342648,5.32894073 30.84,5.33 C30.5146392,5.33020867 30.2009804,5.451395 29.96,5.67 C29.911086,5.71487673 29.8674689,5.7652042 29.83,5.82 C29.4691025,6.26153297 29.4406473,6.88754657 29.76,7.36 L32.12,10.8 Z" id="Shape" fill="#F5F5F5"/><path d="M31.98,6.86 L29.83,5.82 C29.8674689,5.7652042 29.911086,5.71487673 29.96,5.67 C30.2009804,5.451395 30.5146392,5.33020867 30.84,5.33 C31.0342648,5.32894073 31.2260692,5.37346677 31.4,5.46 L31.93,5.72 C32.0060346,6.09506491 32.0229053,6.47971843 31.98,6.86 Z" id="Shape" fill="#CFD8DC"/><path d="M34.29,6.86 C34.0393297,8.38312545 33.2732886,9.77400191 32.12,10.8 L29.76,7.36 C29.4892607,6.96105995 29.4615457,6.44504626 29.6879967,6.0194022 C29.9144478,5.59375814 30.3578689,5.32839819 30.84,5.33 C31.0342648,5.32894073 31.2260692,5.37346677 31.4,5.46 L34.29,6.86 Z" id="Shape" fill="#607D8B"/><path d="M49,23.59 C49,26.08 48.1,28.09 47,28.09 L46.99,28.09 L45.36,26.16 C45.1124116,25.3261007 44.9910666,24.4598323 45,23.59 C45,21.1 45.9,19.09 47,19.09 C48.1,19.09 49,21.1 49,23.59 Z" id="Shape" fill="#FFEB3A"/><path d="M36.99,19.92 C37.0479877,20.5075905 36.834382,21.0894819 36.41,21.5 C36.2328685,21.6863866 36.0181164,21.8329634 35.78,21.93 C35.5332466,22.0347357 35.2680598,22.089133 35,22.09 L31.46,22.09 C31.1874595,22.090835 30.9157099,22.0606406 30.65,22 C29.963406,21.8606377 29.3254572,21.5433874 28.8,21.08 L25.44,18.09 L24.79,17.52 L24.41,18.09 L24.04,18.65 L23,20.24 L20.29,24.38 L21,24.59 L23.84,25.41 C25.1211561,25.7878297 26.0004497,26.9642919 26,28.3 L26,36.45 C26.0278617,37.7677005 25.065341,38.8978029 23.76,39.08 C23.2692111,39.1331316 22.7738833,39.0354613 22.34,38.8 C21.5141169,38.3730404 20.9967148,37.5197131 21,36.59 L21,30.54 C21,30.0955556 20.7066667,29.7044444 20.28,29.58 L17.42,28.75 L16.33,28.44 L14.29,27.85 C13.3811722,27.5863687 12.6500045,26.9093905 12.3173076,26.0235112 C11.9846107,25.1376318 12.0893891,24.1467094 12.6,23.35 L13.25,22.34 L20.38,11.46 C20.5549608,11.1976576 20.787545,10.9787548 21.06,10.82 C21.8002637,10.3962268 22.7278289,10.4885818 23.37,11.05 L31.18,17.85 C31.2503136,17.9091239 31.3275453,17.9594924 31.41,18 C31.5417264,18.0603756 31.6851006,18.0910986 31.83,18.09 L34.89,18.09 C35.955918,18.0706501 36.8633941,18.8614508 36.99,19.92 Z" id="Shape" fill="#CFD8DC"/><path d="M34.87,19.82 C34.921324,20.4116059 34.7048165,20.9950752 34.28,21.41 C34.1028685,21.5963866 33.8881164,21.7429634 33.65,21.84 C33.4032466,21.9447357 33.1380598,21.999133 32.87,22 L29.33,22 C28.3526167,22.000139 27.4093539,21.6406313 26.68,20.99 L24.04,18.65 L23.31,18 L22.66,17.43 L22.28,18 L20.87,20.15 L18.16,24.29 L18.87,24.5 L21.71,25.32 C22.99,25.6933333 23.87,26.8666667 23.87,28.2 L23.87,36.36 C23.8777274,37.4016145 23.2809883,38.3532769 22.34,38.8 C21.5141169,38.3730404 20.9967148,37.5197131 21,36.59 L21,30.54 C21,30.0955556 20.7066667,29.7044444 20.28,29.58 L17.42,28.75 L16.33,28.44 L14.29,27.85 C13.3811722,27.5863687 12.6500045,26.9093905 12.3173076,26.0235112 C11.9846107,25.1376318 12.0893891,24.1467094 12.6,23.35 L13.25,22.34 L21,11 C21.1749608,10.7376576 21.407545,10.5187548 21.68,10.36 C21.7445734,10.3966206 21.8049345,10.4402147 21.86,10.49 L30,17 C30.18,17.16 29.76,17 30,17 L32.76,18 C32.9634348,17.9990138 33.1658077,18.0293697 33.36,18.09 C34.1772198,18.2914785 34.7808419,18.9830456 34.87,19.82 Z" id="Shape" fill="#F5F5F5"/><circle id="Oval" fill="#D1D4D1" cx="31" cy="39.093" r="2"/><path d="M9,54.093 C4.581722,54.093 1,50.511278 1,46.093 C1,41.674722 4.581722,38.093 9,38.093 C13.418278,38.093 17,41.674722 17,46.093 C16.9950401,50.5092219 13.4162219,54.0880401 9,54.093 Z M9,40.093 C5.6862915,40.093 3,42.7792915 3,46.093 C3,49.4067085 5.6862915,52.093 9,52.093 C12.3137085,52.093 15,49.4067085 15,46.093 C14.9966926,42.7806624 12.3123376,40.0963074 9,40.093 Z" id="Shape" fill="#000000"/><path d="M9,50.093 C6.790861,50.093 5,48.302139 5,46.093 C5,43.883861 6.790861,42.093 9,42.093 C11.209139,42.093 13,43.883861 13,46.093 C13,48.302139 11.209139,50.093 9,50.093 Z M9,44.093 C7.8954305,44.093 7,44.9884305 7,46.093 C7,47.1975695 7.8954305,48.093 9,48.093 C10.1045695,48.093 11,47.1975695 11,46.093 C11,44.9884305 10.1045695,44.093 9,44.093 Z" id="Shape" fill="#000000"/><path d="M9,40.093 C8.44771525,40.093 8,39.6452847 8,39.093 L8,38.093 C8,37.5407153 8.44771525,37.093 9,37.093 C9.55228475,37.093 10,37.5407153 10,38.093 L10,39.093 C10,39.6452847 9.55228475,40.093 9,40.093 Z" id="Shape" fill="#000000"/><path d="M9,55.093 C8.44771525,55.093 8,54.6452847 8,54.093 L8,53.093 C8,52.5407153 8.44771525,52.093 9,52.093 C9.55228475,52.093 10,52.5407153 10,53.093 L10,54.093 C10,54.6452847 9.55228475,55.093 9,55.093 Z" id="Shape" fill="#000000"/><path d="M17,47.093 L16,47.093 C15.4477153,47.093 15,46.6452847 15,46.093 C15,45.5407153 15.4477153,45.093 16,45.093 L17,45.093 C17.5522847,45.093 18,45.5407153 18,46.093 C18,46.6452847 17.5522847,47.093 17,47.093 Z" id="Shape" fill="#000000"/><path d="M2,47.093 L1,47.093 C0.44771525,47.093 6.76353751e-17,46.6452847 0,46.093 C-6.76353751e-17,45.5407153 0.44771525,45.093 1,45.093 L2,45.093 C2.55228475,45.093 3,45.5407153 3,46.093 C3,46.6452847 2.55228475,47.093 2,47.093 Z" id="Shape" fill="#000000"/><path d="M2.937,43.593 C2.76130053,43.5932123 2.5887162,43.5466146 2.437,43.458 L1.572,42.958 C1.25106063,42.7852885 1.0494998,42.4516475 1.0459308,42.0872047 C1.0423618,41.7227618 1.23734988,41.3852374 1.55484528,41.2062737 C1.87234068,41.02731 2.26205851,41.0352512 2.572,41.227 L3.437,41.727 C3.82894126,41.9533139 4.02002085,42.4146562 3.90288095,42.8518223 C3.78574105,43.2889884 3.38958806,43.5929801 2.937,43.593 Z" id="Shape" fill="#000000"/><path d="M15.927,51.093 C15.7512622,51.0935035 15.5786028,51.0468854 15.427,50.958 L14.561,50.458 C14.2400606,50.2852885 14.0384998,49.9516475 14.0349308,49.5872047 C14.0313618,49.2227618 14.2263499,48.8852374 14.5438453,48.7062737 C14.8613407,48.52731 15.2510585,48.5352512 15.561,48.727 L16.427,49.227 C16.8189413,49.4533139 17.0100208,49.9146562 16.8928809,50.3518223 C16.7757411,50.7889884 16.3795881,51.0929801 15.927,51.093 Z" id="Shape" fill="#000000"/><path d="M12.5,41.03 C12.1429176,41.029634 11.8131261,40.8388904 11.6347434,40.5295563 C11.4563607,40.2202222 11.4564585,39.8392425 11.635,39.53 L12.135,38.665 C12.4130058,38.1907864 13.021647,38.0298714 13.4976943,38.3047255 C13.9737416,38.5795795 14.1386903,39.18714 13.867,39.665 L13.367,40.53 C13.1881932,40.8397028 12.8576137,41.0303484 12.5,41.03 Z" id="Shape" fill="#000000"/><path d="M5,54.021 C4.6429176,54.020634 4.31312606,53.8298904 4.13474338,53.5205563 C3.95636071,53.2112222 3.95645852,52.8302425 4.135,52.521 L4.635,51.655 C4.81236158,51.3430492 5.14327321,51.1500468 5.5021183,51.1492579 C5.86096339,51.148469 6.19272041,51.3400146 6.37145186,51.6511826 C6.55018331,51.9623505 6.54848438,52.3454296 6.367,52.655 L5.867,53.521 C5.68819322,53.8307028 5.35761373,54.0213484 5,54.021 Z" id="Shape" fill="#000000"/><path d="M2.073,51.093 C1.62041194,51.0929801 1.22425895,50.7889884 1.10711905,50.3518223 C0.989979154,49.9146562 1.18105874,49.4533139 1.573,49.227 L2.438,48.727 C2.74794149,48.5352512 3.13765932,48.52731 3.45515472,48.7062737 C3.77265012,48.8852374 3.9676382,49.2227618 3.9640692,49.5872047 C3.9605002,49.9516475 3.75893937,50.2852885 3.438,50.458 L2.573,50.958 C2.42139722,51.0468854 2.24873777,51.0935035 2.073,51.093 Z" id="Shape" fill="#000000"/><path d="M15.063,43.593 C14.6104119,43.5929801 14.2142589,43.2889884 14.0971191,42.8518223 C13.9799792,42.4146562 14.1710587,41.9533139 14.563,41.727 L15.429,41.227 C15.7389415,41.0352512 16.1286593,41.02731 16.4461547,41.2062737 C16.7636501,41.3852374 16.9586382,41.7227618 16.9550692,42.0872047 C16.9515002,42.4516475 16.7499394,42.7852885 16.429,42.958 L15.563,43.458 C15.4113972,43.5468854 15.2387378,43.5935035 15.063,43.593 Z" id="Shape" fill="#000000"/><path d="M5.5,41.03 C5.14238627,41.0303484 4.81180678,40.8397028 4.633,40.53 L4.133,39.665 C3.95151562,39.3554296 3.94981669,38.9723505 4.12854814,38.6611826 C4.30727959,38.3500146 4.63903661,38.158469 4.9978817,38.1592579 C5.35672679,38.1600468 5.68763842,38.3530492 5.865,38.665 L6.365,39.53 C6.54354148,39.8392425 6.54363929,40.2202222 6.36525662,40.5295563 C6.18687394,40.8388904 5.8570824,41.029634 5.5,41.03 Z" id="Shape" fill="#000000"/><path d="M13,54.021 C12.6423863,54.0213484 12.3118068,53.8307028 12.133,53.521 L11.633,52.655 C11.3613097,52.17714 11.5262584,51.5695795 12.0023057,51.2947255 C12.478353,51.0198714 13.0869942,51.1807864 13.365,51.655 L13.865,52.521 C14.0435415,52.8302425 14.0436393,53.2112222 13.8652566,53.5205563 C13.6868739,53.8298904 13.3570824,54.020634 13,54.021 Z" id="Shape" fill="#000000"/><path d="M51.5,54.093 C47.081722,54.093 43.5,50.511278 43.5,46.093 C43.5,41.674722 47.081722,38.093 51.5,38.093 C55.918278,38.093 59.5,41.674722 59.5,46.093 C59.4950401,50.5092219 55.9162219,54.0880401 51.5,54.093 Z M51.5,40.093 C48.1862915,40.093 45.5,42.7792915 45.5,46.093 C45.5,49.4067085 48.1862915,52.093 51.5,52.093 C54.8137085,52.093 57.5,49.4067085 57.5,46.093 C57.4966926,42.7806624 54.8123376,40.0963074 51.5,40.093 Z" id="Shape" fill="#000000"/><path d="M51.5,50.093 C49.290861,50.093 47.5,48.302139 47.5,46.093 C47.5,43.883861 49.290861,42.093 51.5,42.093 C53.709139,42.093 55.5,43.883861 55.5,46.093 C55.5,48.302139 53.709139,50.093 51.5,50.093 Z M51.5,44.093 C50.3954305,44.093 49.5,44.9884305 49.5,46.093 C49.5,47.1975695 50.3954305,48.093 51.5,48.093 C52.6045695,48.093 53.5,47.1975695 53.5,46.093 C53.5,44.9884305 52.6045695,44.093 51.5,44.093 Z" id="Shape" fill="#000000"/><path d="M51.5,40.093 C50.9477153,40.093 50.5,39.6452847 50.5,39.093 L50.5,38.093 C50.5,37.5407153 50.9477153,37.093 51.5,37.093 C52.0522847,37.093 52.5,37.5407153 52.5,38.093 L52.5,39.093 C52.5,39.6452847 52.0522847,40.093 51.5,40.093 Z" id="Shape" fill="#000000"/><path d="M51.5,55.093 C50.9477153,55.093 50.5,54.6452847 50.5,54.093 L50.5,53.093 C50.5,52.5407153 50.9477153,52.093 51.5,52.093 C52.0522847,52.093 52.5,52.5407153 52.5,53.093 L52.5,54.093 C52.5,54.6452847 52.0522847,55.093 51.5,55.093 Z" id="Shape" fill="#000000"/><path d="M59.5,47.093 L58.5,47.093 C57.9477153,47.093 57.5,46.6452847 57.5,46.093 C57.5,45.5407153 57.9477153,45.093 58.5,45.093 L59.5,45.093 C60.0522847,45.093 60.5,45.5407153 60.5,46.093 C60.5,46.6452847 60.0522847,47.093 59.5,47.093 Z" id="Shape" fill="#000000"/><path d="M44.5,47.093 L43.5,47.093 C42.9477153,47.093 42.5,46.6452847 42.5,46.093 C42.5,45.5407153 42.9477153,45.093 43.5,45.093 L44.5,45.093 C45.0522847,45.093 45.5,45.5407153 45.5,46.093 C45.5,46.6452847 45.0522847,47.093 44.5,47.093 Z" id="Shape" fill="#000000"/><path d="M45.437,43.593 C45.2613005,43.5932123 45.0887162,43.5466146 44.937,43.458 L44.072,42.958 C43.7510606,42.7852885 43.5494998,42.4516475 43.5459308,42.0872047 C43.5423618,41.7227618 43.7373499,41.3852374 44.0548453,41.2062737 C44.3723407,41.02731 44.7620585,41.0352512 45.072,41.227 L45.937,41.727 C46.3289413,41.9533139 46.5200208,42.4146562 46.4028809,42.8518223 C46.2857411,43.2889884 45.8895881,43.5929801 45.437,43.593 Z" id="Shape" fill="#000000"/><path d="M58.427,51.093 C58.2512622,51.0935035 58.0786028,51.0468854 57.927,50.958 L57.061,50.458 C56.7400606,50.2852885 56.5384998,49.9516475 56.5349308,49.5872047 C56.5313618,49.2227618 56.7263499,48.8852374 57.0438453,48.7062737 C57.3613407,48.52731 57.7510585,48.5352512 58.061,48.727 L58.927,49.227 C59.3189413,49.4533139 59.5100208,49.9146562 59.3928809,50.3518223 C59.2757411,50.7889884 58.8795881,51.0929801 58.427,51.093 Z" id="Shape" fill="#000000"/><path d="M55,41.03 C54.6429176,41.029634 54.3131261,40.8388904 54.1347434,40.5295563 C53.9563607,40.2202222 53.9564585,39.8392425 54.135,39.53 L54.635,38.665 C54.9130058,38.1907864 55.521647,38.0298714 55.9976943,38.3047255 C56.4737416,38.5795795 56.6386903,39.18714 56.367,39.665 L55.867,40.53 C55.6881932,40.8397028 55.3576137,41.0303484 55,41.03 Z" id="Shape" fill="#000000"/><path d="M47.5,54.021 C47.1429176,54.020634 46.8131261,53.8298904 46.6347434,53.5205563 C46.4563607,53.2112222 46.4564585,52.8302425 46.635,52.521 L47.135,51.655 C47.3123616,51.3430492 47.6432732,51.1500468 48.0021183,51.1492579 C48.3609634,51.148469 48.6927204,51.3400146 48.8714519,51.6511826 C49.0501833,51.9623505 49.0484844,52.3454296 48.867,52.655 L48.367,53.521 C48.1881932,53.8307028 47.8576137,54.0213484 47.5,54.021 Z" id="Shape" fill="#000000"/><path d="M44.573,51.093 C44.1204119,51.0929801 43.7242589,50.7889884 43.6071191,50.3518223 C43.4899792,49.9146562 43.6810587,49.4533139 44.073,49.227 L44.938,48.727 C45.2479415,48.5352512 45.6376593,48.52731 45.9551547,48.7062737 C46.2726501,48.8852374 46.4676382,49.2227618 46.4640692,49.5872047 C46.4605002,49.9516475 46.2589394,50.2852885 45.938,50.458 L45.073,50.958 C44.9213972,51.0468854 44.7487378,51.0935035 44.573,51.093 Z" id="Shape" fill="#000000"/><path d="M57.563,43.593 C57.1104119,43.5929801 56.7142589,43.2889884 56.5971191,42.8518223 C56.4799792,42.4146562 56.6710587,41.9533139 57.063,41.727 L57.929,41.227 C58.2389415,41.0352512 58.6286593,41.02731 58.9461547,41.2062737 C59.2636501,41.3852374 59.4586382,41.7227618 59.4550692,42.0872047 C59.4515002,42.4516475 59.2499394,42.7852885 58.929,42.958 L58.063,43.458 C57.9113972,43.5468854 57.7387378,43.5935035 57.563,43.593 Z" id="Shape" fill="#000000"/><path d="M48,41.03 C47.6423863,41.0303484 47.3118068,40.8397028 47.133,40.53 L46.633,39.665 C46.4515156,39.3554296 46.4498167,38.9723505 46.6285481,38.6611826 C46.8072796,38.3500146 47.1390366,38.158469 47.4978817,38.1592579 C47.8567268,38.1600468 48.1876384,38.3530492 48.365,38.665 L48.865,39.53 C49.0435415,39.8392425 49.0436393,40.2202222 48.8652566,40.5295563 C48.6868739,40.8388904 48.3570824,41.029634 48,41.03 Z" id="Shape" fill="#000000"/><path d="M55.5,54.021 C55.1423863,54.0213484 54.8118068,53.8307028 54.633,53.521 L54.133,52.655 C53.9515156,52.3454296 53.9498167,51.9623505 54.1285481,51.6511826 C54.3072796,51.3400146 54.6390366,51.148469 54.9978817,51.1492579 C55.3567268,51.1500468 55.6876384,51.3430492 55.865,51.655 L56.365,52.521 C56.5435415,52.8302425 56.5436393,53.2112222 56.3652566,53.5205563 C56.1868739,53.8298904 55.8570824,54.020634 55.5,54.021 Z" id="Shape" fill="#000000"/><path d="M35,23.093 C34.4477153,23.093 34,22.6452847 34,22.093 C34,21.5407153 34.4477153,21.093 35,21.093 C35.1375348,21.0922905 35.2735375,21.06407 35.4,21.01 C35.7322787,20.8580617 36.1209711,20.8994361 36.4138205,21.1179161 C36.70667,21.3363962 36.8570533,21.6971988 36.806063,22.058992 C36.7550727,22.4207852 36.5108268,22.7259697 36.169,22.855 C35.7991955,23.0117921 35.4016703,23.0927254 35,23.093 Z" id="Shape" fill="#000000"/><path d="M23.507,40.092 C22.5777033,40.0938586 21.685817,39.7260677 21.0279537,39.0697051 C20.3700905,38.4133426 20.0002637,37.5222985 20,36.593 L20,30.543 L14.011,28.81 C12.8003469,28.4569908 11.8270549,27.5537383 11.3847815,26.3727681 C10.9425082,25.1917979 11.0830488,23.871415 11.764,22.81 L12.409,21.81 L19.547,10.919 C20.0221217,10.1944836 20.7872763,9.71075727 21.6455504,9.59230854 C22.5038245,9.47385981 23.3713981,9.73225653 24.025,10.301 L31.834,17.101 L34.888,17.101 C36.4726226,17.079112 37.8145267,18.2647493 37.988,19.84 C38.0687336,20.7277328 37.7451053,21.6045781 37.107,22.227 C36.8410254,22.5021921 36.5205191,22.7188148 36.166,22.863 C35.7964586,23.0163207 35.4000823,23.0945081 35,23.093 L31.461,23.093 C30.2365512,23.0936259 29.0545952,22.6441196 28.14,21.83 L24.99,19.03 L21.865,23.8 L24.114,24.453 C25.8217414,24.9547781 26.9960164,26.5200713 27,28.3 L27,36.452 C27.0223062,38.2818768 25.6732894,39.839624 23.859,40.079 C23.741,40.086 23.624,40.092 23.507,40.092 Z M22.061,11.555 C22.0138567,11.5550081 21.9667617,11.5580142 21.92,11.564 C21.6331317,11.6022526 21.3773658,11.7641158 21.22,12.007 L13.445,23.888 C13.1045353,24.4187757 13.034331,25.079034 13.2555721,25.669535 C13.4768131,26.260036 13.9635853,26.7116138 14.569,26.888 L20.559,28.622 C21.4106994,28.8740659 21.9963446,29.6547907 22,30.543 L22,36.593 C22.0021816,37.0179253 22.1837758,37.422154 22.5,37.706 C22.8151198,37.9936412 23.2389827,38.1314057 23.663,38.084 C24.4565574,37.952296 25.0289543,37.2518911 25,36.448 L25,28.3 C24.996541,27.4114043 24.410293,26.6304178 23.558,26.379 L20.007,25.346 C19.7034937,25.2565745 19.4602145,25.0287871 19.3510411,24.731812 C19.2418678,24.4348369 19.2796819,24.1037146 19.453,23.839 L23.478,17.696 L23.205,17.453 C22.8074916,17.0824092 22.778722,16.4621897 23.1402166,16.0563916 C23.5017112,15.6505934 24.1211203,15.6077869 24.535,15.96 L29.468,20.339 C30.0170963,20.827198 30.7262592,21.0969148 31.461,21.097 L35,21.097 C35.1375348,21.0962905 35.2735375,21.06807 35.4,21.014 C35.5083615,20.9704549 35.6062005,20.9043198 35.687,20.82 C35.9135492,20.6104672 36.02931,20.3071961 36,20 C35.9121766,19.4614084 35.4373488,19.0722896 34.892,19.092 L31.834,19.092 C31.3509574,19.0920607 30.8842141,18.9172983 30.52,18.6 L22.713,11.8 C22.5328535,11.6414933 22.3009515,11.5543522 22.061,11.555 Z" id="Shape" fill="#000000"/><path d="M9,47.093 C8.49889241,47.0928748 8.07525011,46.7218756 8.00902187,46.2251638 C7.94279362,45.7284519 8.25443115,45.2594154 8.738,45.128 L19.738,42.128 C20.0170696,42.0519446 20.3154003,42.1004507 20.556,42.261 L23.3,44.093 L35.03,44.093 C35.5822847,44.093 36.03,44.5407153 36.03,45.093 C36.03,45.6452847 35.5822847,46.093 35.03,46.093 L23.3,46.093 C22.9048733,46.0935091 22.5185122,45.9765566 22.19,45.757 L19.821,44.177 L9.263,47.058 C9.17727703,47.0812963 9.0888321,47.0930665 9,47.093 Z" id="Shape" fill="#000000"/><path d="M39.04,46.093 L35.03,46.093 C34.7538682,46.0935143 34.4898141,45.9798257 34.3004211,45.7788797 C34.1110281,45.5779337 34.0131555,45.307618 34.03,45.032 C34.3647896,39.6419364 37.166092,34.7073019 41.6226823,31.6571098 C46.0792726,28.6069177 51.6932975,27.7819102 56.839,29.421 C57.6676054,29.6848822 58.344485,30.2893819 58.7,31.083 C59.1758501,32.1597951 58.9779185,33.4153861 58.1938847,34.2935728 C57.4098509,35.1717596 56.1846422,35.5102109 55.061,35.159 C53.9112228,34.7825167 52.708845,34.5914595 51.499,34.593 C45.5148178,34.6178879 40.5405129,39.2089864 40.037,45.172 C39.995786,45.6920657 39.5616962,46.0930654 39.04,46.093 Z M36.129,44.093 L38.148,44.093 C38.7362486,40.1647994 41.0245554,36.6949888 44.4036932,34.6073529 C47.7828311,32.519717 51.9098524,32.0261292 55.686,33.258 C56.1644472,33.4025104 56.6753431,33.1661834 56.875,32.708 C56.9910222,32.450464 56.9910222,32.155536 56.875,31.898 C56.7510448,31.6239678 56.5160231,31.4158681 56.229,31.326 C51.8492083,29.9322168 47.0769557,30.5507538 43.1972159,33.0150642 C39.317476,35.4793746 36.7290882,39.5361259 36.129,44.093 Z" id="Shape" fill="#000000"/><path d="M47.96,30.983 C47.5408741,30.9833208 47.1660175,30.7222386 47.021,30.329 C46.7899366,29.7336883 46.4977041,29.1639689 46.149,28.629 C45.7389569,27.9929751 45.2489512,27.4122275 44.691,26.901 C43.4157066,25.721215 41.737215,25.0742926 40,25.093 C39.5981996,25.0991737 39.1972802,25.1325836 38.8,25.193 C35.6112851,25.8081272 32.4850883,26.7118458 29.46,27.893 C28.425,28.261 27.385,28.647 26.36,29.044 C26.0253658,29.1810443 25.6428145,29.1267545 25.3595227,28.902017 C25.0762308,28.6772796 24.9363364,28.3171095 24.9936602,27.9600729 C25.050984,27.6030362 25.2965947,27.3047607 25.636,27.18 C26.675,26.78 27.736,26.38 28.783,26.01 C31.9351192,24.7806792 35.1934663,23.8434107 38.517,23.21 C39.0080527,23.136926 39.5035635,23.0978331 40,23.093 C42.2339114,23.0700682 44.3918759,23.9030547 46.031,25.421 C46.7172326,26.0477313 47.3198598,26.7602631 47.824,27.541 C48.2550477,28.1997226 48.6156939,28.9019103 48.9,29.636 C49.0910588,30.153755 48.8265576,30.7284072 48.309,30.92 C48.1974187,30.9618778 48.0791809,30.9832216 47.96,30.983 Z" id="Shape" fill="#000000"/><path d="M29.717,13.52 C29.1530301,13.5200182 28.6151033,13.2826335 28.235,12.866 L25.255,9.6 L23.691,7.888 C23.3368787,7.49653649 23.1511472,6.98137397 23.174,6.454 L23.274,4.321 C23.2901625,3.94484475 23.4121737,3.58089084 23.626,3.271 C24.298,2.333 26.126,0.159 28.689,0.008 C30.5958918,-0.00158159623 32.3984586,0.877520934 33.565,2.386 C34.8052222,3.60091793 35.4359812,5.30752656 35.284,7.037 C34.962,9.908 32.372,12.104 30.857,13.157 C30.5244233,13.3944628 30.1256487,13.521441 29.717,13.52 Z M28.961,2 C28.908,2 28.855,2 28.803,2 C27.048,2.1 25.644,3.88 25.255,4.422 L25.172,6.541 L26.679,8.188 L26.733,8.247 L29.711,11.511 C30.711,10.818 33.051,8.974 33.294,6.811 C33.3741508,5.65533531 32.9306196,4.52484476 32.086,3.732 C31.3349888,2.74004301 30.2002143,2.11110555 28.961,2 Z" id="Shape" fill="#000000"/><path d="M32.116,11.813 C31.7849985,11.8131797 31.4753539,11.6495586 31.289,11.376 L28.937,7.921 C28.3496074,7.06140664 28.414434,5.9141005 29.0949185,5.12614638 C29.775403,4.33819227 30.9010458,4.1070169 31.837,4.563 L34.737,5.963 C35.2340563,6.20379615 35.4417962,6.80194373 35.201,7.299 C34.9602038,7.79605627 34.3620563,8.00379615 33.865,7.763 L30.971,6.363 C30.8509374,6.30550273 30.707242,6.33553894 30.6202625,6.43631359 C30.533283,6.53708825 30.5245719,6.68363053 30.599,6.794 L32.95,10.249 C33.1584965,10.5550619 33.1807777,10.9512891 33.0079091,11.2787966 C32.8350405,11.606304 32.4953301,11.8114607 32.125,11.812 L32.116,11.813 Z" id="Shape" fill="#000000"/><path d="M47,29.093 C46.4477153,29.0957614 45.9977615,28.6502847 45.9950001,28.098 C45.9922386,27.5457153 46.4377153,27.0957615 46.99,27.093 C47.26,27.003 48,25.786 48,23.593 C48,21.4 47.26,20.183 46.978,20.093 C46.74,20.186 46,21.402 46,23.593 C45.9904885,24.3603886 46.0959926,25.1248726 46.313,25.861 C46.4380399,26.206433 46.3636086,26.5926139 46.1191396,26.8668288 C45.8746706,27.1410438 45.4995308,27.2591361 45.1420677,27.1744065 C44.7846047,27.089677 44.5023806,26.8157696 44.407,26.461 C44.1284582,25.5307798 43.9912602,24.5639886 44,23.593 C44,20.86 45.03,18.093 47,18.093 C48.97,18.093 50,20.86 50,23.593 C50,26.326 48.97,29.093 47,29.093 Z" id="Shape" fill="#000000"/><path d="M38.659,25.2 C38.2740485,25.1995332 37.9235418,24.978142 37.7577317,24.6307303 C37.5919216,24.2833186 37.64025,23.8715744 37.882,23.572 C39.534,21.524 42.916,18.09 47,18.09 C47.5522847,18.09 48,18.5377153 48,19.09 C48,19.6422847 47.5522847,20.09 47,20.09 C43.626,20.09 40.588,23.403 39.438,24.828 C39.2479841,25.0634666 38.9615732,25.2002379 38.659,25.2 Z" id="Shape" fill="#000000"/><path d="M42.591,21.553 C42.2762427,21.553 41.9798544,21.4048058 41.791,21.153 L40.821,19.853 C40.2070427,19.03361 39.0717143,18.8134644 38.196,19.344 L37.206,19.935 C36.8991089,20.1180986 36.5178478,20.1235642 36.2058342,19.949338 C35.8938206,19.7751118 35.6984567,19.4476629 35.6933342,19.090338 C35.6882117,18.7330132 35.8741089,18.4000986 36.181,18.217 L37.17,17.627 C38.9256094,16.5692547 41.1971123,17.0141303 42.424,18.656 L43.395,19.956 C43.6222632,20.2590176 43.6588192,20.6644296 43.4894272,21.0032136 C43.3200352,21.3419976 42.9737721,21.556 42.595,21.556 L42.591,21.553 Z" id="Shape" fill="#000000"/><path d="M21,37.093 L14.49,37.093 C14.0603456,37.0944826 13.6332411,37.0269562 13.225,36.893 L8.363,35.271 C7.55114094,34.9927373 7.00427074,34.2312115 7,33.373 L7,32.943 L3.187,32.31 C1.84202245,32.0818706 0.895471088,30.8622171 1.0083078,29.5027041 C1.12114451,28.1431911 2.2558164,27.0962747 3.62,27.093 L8.85,27.093 C8.98367433,27.0944547 9.11718481,27.1027991 9.25,27.118 L20.92,28.918 C21.2836834,28.9595811 21.5955842,29.1965493 21.7331282,29.5357783 C21.8706721,29.8750072 21.8118759,30.2622784 21.5798458,30.5453979 C21.3478157,30.8285175 20.9796368,30.9622347 20.62,30.894 L9,29.1 C8.984,29.1 8.918,29.092 8.852,29.092 L3.62,29.092 C3.29842727,29.0973706 3.03306517,29.3451824 3.0057376,29.6656369 C2.97841002,29.9860914 3.19797999,30.275257 3.514,30.335 L7.323,30.965 C8.29162827,31.123512 9.0020876,31.9614897 9,32.943 L9,33.373 L13.856,34.994 C14.0605717,35.0612475 14.2746613,35.0950156 14.49,35.094 L21,35.094 C21.5522847,35.094 22,35.5417153 22,36.094 C22,36.6462847 21.5522847,37.094 21,37.094 L21,37.093 Z" id="Shape" fill="#000000"/><path d="M31,42.093 C29.3431458,42.093 28,40.7498542 28,39.093 C28,37.4361458 29.3431458,36.093 31,36.093 C32.6568542,36.093 34,37.4361458 34,39.093 C34,40.7498542 32.6568542,42.093 31,42.093 Z M31,38.093 C30.4477153,38.093 30,38.5407153 30,39.093 C30,39.6452847 30.4477153,40.093 31,40.093 C31.5522847,40.093 32,39.6452847 32,39.093 C32,38.5407153 31.5522847,38.093 31,38.093 Z" id="Shape" fill="#000000"/><path d="M33,40.093 C32.9447136,40.0927649 32.8895357,40.0880831 32.835,40.079 C32.5733489,40.035402 32.3397399,39.8896334 32.1855792,39.673771 C32.0314186,39.4579086 31.9693385,39.1896405 32.013,38.928 L33.013,32.928 C33.060986,32.6391903 33.2331251,32.3859155 33.484,32.235 L38,29.526 L38,28.507 L35.023,25.53 C34.6440278,25.1376211 34.6494476,24.5139152 35.0351814,24.1281814 C35.4209152,23.7424476 36.0446211,23.7370278 36.437,24.116 L39.414,27.093 C39.7904121,27.4671062 40.0014371,27.9763028 40,28.507 L40,29.526 C39.9980308,30.228007 39.6299476,30.8781231 39.029,31.241 L34.91,33.713 L33.986,39.257 C33.9058339,39.7391996 33.488818,40.092775 33,40.093 Z" id="Shape" fill="#000000"/><path d="M26,37.093 C25.5156703,37.0942981 25.1000301,36.7483267 25.0134336,36.2717996 C24.926837,35.7952726 25.1941797,35.3251865 25.648,35.156 L33.648,32.156 C34.1614397,31.9766681 34.7240658,32.2405485 34.9144602,32.7499895 C35.1048546,33.2594306 34.8532041,33.8276322 34.348,34.029 L26.348,37.029 C26.2366363,37.0705239 26.1188505,37.0921857 26,37.093 Z" id="Shape" fill="#000000"/><path d="M20,44.093 C19.6043478,44.0934458 19.2456347,43.8605763 19.085,43.499 L15.975,36.499 C15.8299502,36.1724592 15.870126,35.79334 16.0803937,35.5044528 C16.2906613,35.2155655 16.6390762,35.0607992 16.9943937,35.0984527 C17.3497112,35.1361063 17.6579502,35.3604592 17.803,35.687 L20.913,42.687 C21.0503604,42.9961867 21.0220718,43.3538613 20.8378159,43.6376113 C20.6535601,43.9213613 20.3383256,44.0927047 20,44.093 Z" id="Shape" fill="#000000"/><path d="M47,58 L8,58 C7.44771525,58 7,57.5522847 7,57 C7,56.4477153 7.44771525,56 8,56 L47,56 C47.5522847,56 48,56.4477153 48,57 C48,57.5522847 47.5522847,58 47,58 Z" id="Shape" fill="#000000"/><path d="M4,58 L1,58 C0.44771525,58 6.76353751e-17,57.5522847 0,57 C-6.76353751e-17,56.4477153 0.44771525,56 1,56 L4,56 C4.55228475,56 5,56.4477153 5,57 C5,57.5522847 4.55228475,58 4,58 Z" id="Shape" fill="#000000"/></g></g></svg>
