<?xml version="1.0" encoding="UTF-8"?>
<svg width="512px" height="512px" viewBox="0 0 512 512" version="1.1" xmlns="http://www.w3.org/2000/svg" xmlns:xlink="http://www.w3.org/1999/xlink">
    <!-- Generator: Sketch 49.2 (51160) - http://www.bohemiancoding.com/sketch -->
    <title>phone</title>
    <desc>Created with Sketch.</desc>
    <defs></defs>
    <g id="Page-1" stroke="none" stroke-width="1" fill="none" fill-rule="evenodd">
        <g id="phone" transform="translate(256.000000, 256.000000) scale(-1, 1) translate(-256.000000, -256.000000) " fill="#FFFFFF" fill-rule="nonzero">
            <path d="M493.397,24.615 L389.397,0.618 C378.083,-1.993 366.518,3.87 361.941,14.549 L313.941,126.546 C309.72891,136.374412 312.527049,147.803883 320.803,154.575 L381.42,204.171 C345.447,280.846 282.482,344.679 204.171,381.419 L154.575,320.803 C147.803883,312.527049 136.374412,309.72891 126.546,313.941 L14.549,361.941 C3.873,366.516 -1.994,378.08 0.618,389.397 L24.615,493.397 C27.109,504.204 36.748,512 48,512 C304.087,512 512,304.468 512,48 C512,36.824 504.286,27.127 493.397,24.615 Z" id="Shape"></path>
        </g>
    </g>
</svg>