<svg id="Layer_1" data-name="Layer 1" xmlns="http://www.w3.org/2000/svg" viewBox="0 0 512 512"><defs><style>.cls-1{fill:#00efd1;}.cls-2{fill:#fedb41;}.cls-3{fill:#00acea;}.cls-4{fill:#083863;}</style></defs><title>Travel-01</title><path class="cls-1" d="M160.52,57.71a101.83,101.83,0,0,0-33.08,123.61q1.77,4,3.87,7.76a97.75,97.75,0,0,0,6.38,10.14c.34.45.67.91,1,1.37q2,2.73,4.21,5.29c.65.77,1.31,1.52,2,2.26l.51.55c.52.57,1,1.13,1.57,1.68l.55.57c.55.56,1.1,1.12,1.67,1.67l.44.43c.67.65,1.34,1.29,2,1.91l.11.11a101.76,101.76,0,0,0,162.77-36.31c.69-1.68,1.33-3.37,1.94-5.1a101.77,101.77,0,0,0-156-115.94ZM298,195.21a95,95,0,0,1-132.77,22.2,92.36,92.36,0,0,1-31.69-39A95.17,95.17,0,1,1,298,195.21Z"/><path class="cls-2" d="M368.24,173l20.67,14.72a10.47,10.47,0,0,1,.31,16.83L287.68,283l0,0L234.32,240.9l0-.14a101.9,101.9,0,0,0,82.17-67.11l9.76-4.54A41.92,41.92,0,0,1,368.24,173Z"/><path class="cls-3" d="M160.8,294.77l-47.6-30.46a46.69,46.69,0,0,1,14.17-83l.08,0A101.78,101.78,0,0,0,234.3,240.76l0,.14L287.65,283l70,55.31a18.08,18.08,0,0,0,18.69,2.27l31.39-14.3a18.07,18.07,0,0,1,19.08,30.32c-.48.4-1,.77-1.49,1.12l-45.51,30.66a18,18,0,0,0-7.36,10.33l-14.11,53A18.07,18.07,0,0,1,334.46,464l-.12-.05a18.06,18.06,0,0,1-11.59-18.44l2.91-33.72A18.05,18.05,0,0,0,317.4,395l-75.24-48.16Z"/><path class="cls-2" d="M160.8,294.77l81.36,52.09,0,.08L201.7,467.66a10.46,10.46,0,0,1-16,5.2l-20.61-14.68a41.91,41.91,0,0,1-17.36-38.49Z"/><path class="cls-4" d="M132.26,77.12a108.19,108.19,0,0,0-13.37,100.39,53.16,53.16,0,0,0-9.49,92.07l.29.21,44.22,28.31-12.74,121a48.61,48.61,0,0,0,20,44.59l20.62,14.69a17.73,17.73,0,0,0,17.6,1.12,16.88,16.88,0,0,0,8.53-9.8l37.79-112.9,68.22,43.67a11.49,11.49,0,0,1,5.28,10.73L316.27,445a24.72,24.72,0,0,0,15.79,25.1l.08,0a24.57,24.57,0,0,0,32.48-16.64l14.13-53a11.39,11.39,0,0,1,4.7-6.6L429,363.15l.07,0c.76-.53,1.4-1,2-1.49a24.58,24.58,0,0,0-26-41.23l-31.38,14.29a11.52,11.52,0,0,1-12-1.43L298.2,283.07l95-73.4a17,17,0,0,0-.46-27.34L372.06,167.6a48.59,48.59,0,0,0-45.61-5.68,109.18,109.18,0,0,0-2.58-54,107.21,107.21,0,0,0-40.61-56.13A108.39,108.39,0,0,0,132.26,77.12ZM385.18,192.93a4,4,0,0,1,.91,5.57,4.83,4.83,0,0,1-.83.86l-97.57,75.4-38.54-30.44a108.27,108.27,0,0,0,72.49-65.89L329,175a35.46,35.46,0,0,1,35.5,3.23ZM425,336.61a11.57,11.57,0,0,1-2.39,15,12.07,12.07,0,0,1-1,.73L376.18,383a24.57,24.57,0,0,0-10,14.07l-14.11,53a11.58,11.58,0,0,1-14.14,8.2,8.43,8.43,0,0,1-1.17-.38l-.09,0a11.63,11.63,0,0,1-7.42-11.8l2.91-33.72a24.47,24.47,0,0,0-11.23-22.81l-204-130.61a40.16,40.16,0,0,1,7.27-69.51,108.24,108.24,0,0,0,108.14,58.14l121.35,95.89A24.48,24.48,0,0,0,379,346.53l31.38-14.3A11.57,11.57,0,0,1,425,336.61ZM298,195.21a95,95,0,0,1-132.77,22.2,92.36,92.36,0,0,1-31.69-39A95.17,95.17,0,1,1,298,195.21ZM195.52,465.62a3.86,3.86,0,0,1-2,2.27,4.84,4.84,0,0,1-4.24-.08l-20.62-14.69a35.58,35.58,0,0,1-14.58-32.63l12-114.48,68.22,43.61Z"/><path class="cls-1" d="M275.76,62.36A95.2,95.2,0,1,1,165.25,217.41a92.36,92.36,0,0,1-31.69-39A95.1,95.1,0,0,1,275.76,62.36Z"/><path class="cls-3" d="M220.45,144.53a17.28,17.28,0,0,0-4.87-12,17,17,0,0,0-12-4.86,16.6,16.6,0,0,0-16.83,16.82,17.29,17.29,0,0,0-4.86-12,17,17,0,0,0-12-4.86,17.29,17.29,0,0,0-12,4.86c-3,3.18-4.86,10.28-4.86,10.28a67.29,67.29,0,0,1,134.58,0,41.52,41.52,0,0,0-1.31-3.95,20.59,20.59,0,0,0-3.55-6.33,17,17,0,0,0-12-4.86,16.6,16.6,0,0,0-16.83,16.82,17.27,17.27,0,0,0-4.86-12,17,17,0,0,0-12-4.86,16.6,16.6,0,0,0-16.82,16.82Z"/><path class="cls-4" d="M159.45,144.51c.69-2.59,2.11-6.08,3.2-7.36a10.86,10.86,0,0,1,7.33-2.93,10.48,10.48,0,0,1,7.3,2.88,11,11,0,0,1,3,7.43,6.51,6.51,0,1,0,13,0,10.51,10.51,0,0,1,21,0V195a2.9,2.9,0,0,1-3,2.84,3,3,0,0,1-2.13-.8,2.83,2.83,0,0,1-.86-2,6.53,6.53,0,0,0-13.05,0,15.82,15.82,0,0,0,4.61,11.24,16.22,16.22,0,0,0,11.43,4.61,15.84,15.84,0,0,0,16-15.86V144.53a10.84,10.84,0,0,1,2.75-7.36,10.61,10.61,0,0,1,7.27-2.95,10.36,10.36,0,0,1,7.25,2.88,10.92,10.92,0,0,1,3,7.43,6.5,6.5,0,1,0,13,0,10.1,10.1,0,0,1,10.32-10.31,10.45,10.45,0,0,1,7.27,2.86,14.73,14.73,0,0,1,2.17,4.18,33.24,33.24,0,0,1,1.08,3.23,6.51,6.51,0,0,0,12.8-1.64,73.8,73.8,0,1,0-147.59,0,6.51,6.51,0,0,0,12.8,1.66Zm18-44.66a60.81,60.81,0,0,1,100.15,22.31,23.73,23.73,0,0,0-23.11,5.66l-.28.28-.12.13-.12-.13-.15-.14a23.54,23.54,0,0,0-16.56-6.75,24,24,0,0,0-16.42,6.62l-.29.29-.11.12-.12-.13a1.85,1.85,0,0,1-.14-.14,23.49,23.49,0,0,0-16.56-6.76,24,24,0,0,0-16.42,6.62l-.28.28-.12.13-.12-.12-.15-.16a23.72,23.72,0,0,0-23.29-5.78,60.52,60.52,0,0,1,14.21-22.32Z"/></svg>