<svg xmlns="http://www.w3.org/2000/svg" xmlns:xlink="http://www.w3.org/1999/xlink" width="1440" height="1665" viewBox="0 0 1440 1665">
    <defs>
        <linearGradient id="b" x1="16.893%" x2="36.643%" y1="68.072%" y2="97.672%">
            <stop offset="0%" stop-color="#00E7E8"/>
            <stop offset="100%" stop-color="#00CBCC"/>
        </linearGradient>
        <path id="a" d="M244.065 1348.453c251.42 190.55 571.94 304.742 921.032 304.742 349.093 0 669.613-114.191 921.033-304.742h3051.588c.446 0 .607.047.77.134.163.087.291.215.378.378.088.163.134.324.134.77v865.812c0 349.451-283.286 632.738-632.738 632.738a632.736 632.736 0 0 1-65.407-3.39c-492.696-51.205-1222.32-22.365-2188.873 86.52-389.66 43.895-664.976-199.887-1131.538-66.39-371.452 106.283-240.378 103.455-458.868 135-218.49 31.544-313.816-135-553.784-135-59.531 0-107.79-48.26-107.79-107.79L0 1349.452a1 1 0 0 1 1-1h243.065zM2594.682 0h2334.633c.446 0 .608.046.77.134.163.087.291.215.379.378.087.163.133.324.133.77v1293.312c0 .446-.046.608-.133.77a.909.909 0 0 1-.378.379c-.163.087-.325.133-.77.133H2159.524c-.446 0-.608-.046-.77-.133a.909.909 0 0 1-.379-.378c-.087-.163-.133-.325-.133-.77v-4.522c288.5-249.327 469.102-605.894 469.102-1001.836 0-98.887-11.265-195.319-32.663-288.237z"/>
        <linearGradient id="c" x1="72.806%" x2="37.581%" y1="37.288%" y2="132.215%">
            <stop offset="0%" stop-color="#00E7E8"/>
            <stop offset="100%" stop-color="#00CBCC"/>
        </linearGradient>
        <linearGradient id="e" x1="50%" x2="17.998%" y1="0%" y2="77.37%">
            <stop offset="0%" stop-color="#00E7E8"/>
            <stop offset="100%" stop-color="#00CBCC"/>
        </linearGradient>
        <path id="f" d="M411.665 1290.547c244.257 163.685 547.744 260.66 876.583 260.66 328.84 0 632.326-96.975 876.583-260.66h2972.887c.446 0 .607.046.77.133.163.088.291.215.378.378.088.163.134.325.134.77v828.577c0 335.986-272.37 608.356-608.356 608.356a608.355 608.355 0 0 1-64.487-3.427c-492.88-52.543-1230.938-25.81-2214.175 80.197-389.66 42.011-664.976-191.303-1131.538-63.538-371.452 101.719-240.378 99.012-458.868 129.202-218.49 30.19-313.816-129.202-553.784-129.202-59.531 0-107.79-48.26-107.79-107.79L0 1291.546a1 1 0 0 1 1-1h410.665zM2724.85 0h2204.465c.446 0 .608.046.77.134.163.087.291.215.379.378.087.163.133.324.133.77v1237.664c0 .446-.046.607-.133.77a.909.909 0 0 1-.378.378c-.163.087-.325.134-.77.134H2235.301c315.228-239.615 515.194-596.628 515.194-995.365 0-83.692-8.81-165.547-25.646-244.863z"/>
        <filter id="g" width="103.1%" height="105.5%" x="-1.5%" y="-2.5%" filterUnits="objectBoundingBox">
            <feOffset dy="7" in="SourceAlpha" result="shadowOffsetOuter1"/>
            <feGaussianBlur in="shadowOffsetOuter1" result="shadowBlurOuter1" stdDeviation="25"/>
            <feColorMatrix in="shadowBlurOuter1" values="0 0 0 0 0.168739371 0 0 0 0 0.168739371 0 0 0 0 0.168739371 0 0 0 0.5 0"/>
        </filter>
    </defs>
    <g fill="none" fill-rule="evenodd">
        <g transform="translate(-627 -1362)">
            <mask id="d" fill="#fff">
                <use xlink:href="#a"/>
            </mask>
            <use fill="url(#b)" xlink:href="#a"/>
            <path fill="url(#c)" d="M618 1703.666c122.926-72.1 330.743-80.975 623.45-26.627 292.707 54.349 598.89 63.224 918.55 26.627V2062H618v-358.334z" mask="url(#d)"/>
            <path fill="url(#e)" d="M618 2129.647c127.202-85.083 337.157-101.132 629.864-48.146 292.708 52.987 596.753 69.035 912.136 48.146V2479H618v-349.353z" mask="url(#d)" transform="rotate(180 1389 2265)"/>
        </g>
        <g transform="translate(-627 -1266)">
            <mask id="h" fill="#fff">
                <use xlink:href="#f"/>
            </mask>
            <use fill="#000" filter="url(#g)" xlink:href="#f"/>
            <use fill="#172143" xlink:href="#f"/>
            <path fill="#172143" d="M618 1631.023c122.926-69.01 330.743-77.505 623.45-25.486 292.707 52.02 598.89 60.515 918.55 25.486V1974H618v-342.977z" mask="url(#h)"/>
            <path fill="#172143" d="M618 2038.156c127.202-81.307 337.157-96.643 629.864-46.009 292.708 50.635 596.753 65.97 912.136 46.009V2372H618v-333.844z" mask="url(#h)" transform="rotate(180 1389 2167.5)"/>
        </g>
    </g>
</svg>
