<svg xmlns="http://www.w3.org/2000/svg" xmlns:xlink="http://www.w3.org/1999/xlink" width="1440" height="1793" viewBox="0 0 1440 1793">
    <defs>
        <linearGradient id="c" x1="50%" x2="50%" y1="0%" y2="100%">
            <stop offset="0%" stop-color="#00E7E8"/>
            <stop offset="100%" stop-color="#00CBCC"/>
        </linearGradient>
        <path id="b" d="M119.64 300.043c227.707 106.687 543.863 172.793 893.356 172.793 613.349 0 1124.023-203.6 1234.133-472.836h316.82c.713 0 .972.074 1.232.214.261.14.466.344.605.605.14.26.214.519.214 1.232v827.94c0 .713-.074.972-.214 1.232-.14.261-.344.466-.605.605-.26.14-.519.214-1.232.214h-9.078l-10.476 500.823c-7.115 340.114-288.6 610.064-628.715 602.95a615.967 615.967 0 0 1-249.117-58.364c-214.21-100.674-533.273-126.957-750.257-136.29-94.404-4.06-182.725-4.069-264.964-.026-342.479 16.834-633.759-247.153-650.593-589.63A620.86 620.86 0 0 1 0 1121.022V302.094c0-.713.074-.971.214-1.232.14-.26.344-.465.605-.605.26-.14.519-.214 1.232-.214h117.59z"/>
        <filter id="a" width="106.1%" height="108.1%" x="-3.1%" y="-3.7%" filterUnits="objectBoundingBox">
            <feOffset dy="7" in="SourceAlpha" result="shadowOffsetOuter1"/>
            <feGaussianBlur in="shadowOffsetOuter1" result="shadowBlurOuter1" stdDeviation="25"/>
            <feColorMatrix in="shadowBlurOuter1" values="0 0 0 0 0.149394133 0 0 0 0 0.149394133 0 0 0 0 0.149394133 0 0 0 0.5 0"/>
        </filter>
        <path id="e" d="M1726.298 433.043h139.011v-51.576c193.594-82.862 330.765-193.587 381.82-318.424h316.82c.713 0 .972.075 1.232.214.261.14.466.344.605.605.14.26.214.52.214 1.232v827.94c0 .713-.074.972-.214 1.233-.14.26-.344.465-.605.604-.26.14-.519.214-1.232.214h-7.614l-10.789 515.73c-7.27 347.517-294.881 623.342-642.399 616.073a629.374 629.374 0 0 1-258.098-61.32c-221.355-105.729-511.76-82.074-728.743-91.406-94.404-4.06-182.725-4.07-264.964-.027-342.479 16.834-633.759-247.153-650.593-589.63A620.86 620.86 0 0 1 0 1254.022V435.094c0-.713.074-.971.214-1.232.14-.26.344-.465.605-.605.26-.14.519-.214 1.232-.214h297.643C502.302 497.895 748.07 535.88 1012.996 535.88c264.924 0 510.693-37.985 713.302-102.837z"/>
        <filter id="d" width="106.1%" height="108%" x="-3.1%" y="-3.6%" filterUnits="objectBoundingBox">
            <feOffset dy="7" in="SourceAlpha" result="shadowOffsetOuter1"/>
            <feGaussianBlur in="shadowOffsetOuter1" result="shadowBlurOuter1" stdDeviation="25"/>
            <feColorMatrix in="shadowBlurOuter1" values="0 0 0 0 0.149394133 0 0 0 0 0.149394133 0 0 0 0 0.149394133 0 0 0 0.5 0"/>
        </filter>
    </defs>
    <g fill="none" fill-rule="evenodd">
        <g transform="rotate(180 914.5 992.976)">
            <use fill="#000" filter="url(#a)" xlink:href="#b"/>
            <use fill="url(#c)" xlink:href="#b"/>
        </g>
        <g transform="rotate(180 914.5 1070.036)">
            <use fill="#000" filter="url(#d)" xlink:href="#e"/>
            <use fill="#172143" xlink:href="#e"/>
        </g>
    </g>
</svg>
