<svg xmlns="http://www.w3.org/2000/svg" width="40" height="30" viewBox="0 0 40 30">
    <g fill="#E57B93" fill-rule="nonzero">
        <path d="M35.066.061H4.884C2.19.061 0 2.215 0 4.866v20.293c0 2.65 2.19 4.804 4.884 4.804h30.174c2.694 0 4.884-2.154 4.884-4.804V4.874C39.95 2.224 37.76.061 35.066.061zm2.653 25.098c0 1.439-1.19 2.61-2.653 2.61H4.884c-1.463 0-2.653-1.171-2.653-2.61V4.874c0-1.439 1.19-2.61 2.653-2.61h30.174c1.463 0 2.653 1.171 2.653 2.61v20.285h.008z"/>
        <path d="M25.19 14.76l9.769-8.618a1.09 1.09 0 0 0 .082-1.553 1.134 1.134 0 0 0-1.578-.08L19.992 16.401l-2.628-2.309c-.009-.008-.017-.016-.017-.024a1.645 1.645 0 0 0-.182-.154L6.471 4.5a1.127 1.127 0 0 0-1.578.09 1.084 1.084 0 0 0 .09 1.552l9.885 8.691-9.843 9.065a1.09 1.09 0 0 0-.05 1.553 1.128 1.128 0 0 0 1.579.057l9.991-9.195 2.711 2.382a1.126 1.126 0 0 0 1.488-.008l2.785-2.455 9.934 9.284c.215.204.496.301.768.301.298 0 .587-.114.81-.341A1.09 1.09 0 0 0 35 23.923l-9.81-9.163z"/>
    </g>
</svg>
