<svg xmlns="http://www.w3.org/2000/svg" width="128" height="24" viewBox="0 0 128 24">
    <g fill="none" fill-rule="evenodd">
        <path fill="#FFF" d="M87.432 13.346l2.77-1.735C88.99 9.277 86.444 7.8 83.574 7.8c-2.22 0-4.084.739-5.593 2.245-1.48 1.507-2.22 3.34-2.22 5.555 0 2.216.74 4.048 2.22 5.555 1.51 1.506 3.373 2.245 5.593 2.245 2.87 0 5.385-1.507 6.687-3.84l-2.826-1.71a4.507 4.507 0 0 1-3.904 2.25 4.504 4.504 0 0 1-4.508-4.5c0-2.485 2.018-4.5 4.508-4.5 1.666 0 3.122.903 3.901 2.246zM71.512 23.4v-15h-3.606v15zM69.694 4.8c1.33 0 2.419-1.087 2.419-2.385 0-1.298-1.089-2.415-2.42-2.415-1.3 0-2.388 1.117-2.388 2.415S68.394 4.8 69.694 4.8zM59.493 8.4h-3.606v15h3.606v-7.17c0-1.44.706-2.4 1.634-3.03.928-.63 2.006-.75 3.173-.6V8.4c-2.035 0-4.088.48-4.807 2.4V8.4zM51.68 8.412h-3.605V4.2L44.47 5.384v3.028h-2.403V12h2.403v6.364c0 4.107 1.683 5.636 7.212 5.036v-3.507c-2.312.12-3.606.026-3.606-1.593V12h3.606V8.412zM16.571 7.98c-1.978 0-3.476.72-4.465 2.16-.869-1.44-2.247-2.16-4.075-2.16-1.888 0-3.266.66-4.165 2.01V8.4H0v15h3.606v-8.43c0-2.19 1.252-3.39 2.764-3.39 2.042.016 2.644 1.05 2.644 2.85v8.97h3.606v-8.43c0-2.19.996-3.39 2.764-3.39 2.062 0 2.644 1.05 2.644 2.85v8.97h3.606v-9.24c0-3.75-1.617-6.18-5.063-6.18zM39.886 16.8H28.364c.506 1.861 2.207 3.3 4.498 3.3 1.459 0 3.051-.657 3.795-1.632l2.634 1.77c-1.458 2.098-3.63 3.162-6.488 3.162-2.47 0-4.435-.739-5.923-2.216-1.488-1.477-2.232-3.339-2.232-5.584 0-2.216.744-4.077 2.202-5.555C28.31 8.54 30.213 7.8 32.505 7.8c2.173 0 3.988.739 5.387 2.245 1.429 1.507 2.143 3.34 2.143 5.555 0 .502-.06.639-.149 1.2zm-11.341-3h7.812c-.46-1.858-1.992-2.76-3.8-2.76-2.113 0-3.553 1.011-4.012 2.76z"/>
        <path fill="#1AB394" d="M127.4 23.4v-15h-3.607v15zM125.581 4.8c1.33 0 2.419-1.087 2.419-2.385C128 1.117 126.912 0 125.581 0c-1.3 0-2.389 1.117-2.389 2.415s1.089 2.385 2.39 2.385zM115.981 10.17V8.4h3.606v15h-3.606v-1.77c-1.183 1.47-3.127 2.19-5.25 2.19-2.032 0-3.76-.75-5.216-2.28-1.426-1.53-2.153-3.42-2.153-5.64 0-2.22.727-4.08 2.153-5.61 1.456-1.53 3.184-2.31 5.216-2.31 2.123 0 4.067.72 5.25 2.19zm-7.779 8.922c.824.814 1.87 1.22 3.136 1.22 1.267 0 2.312-.406 3.136-1.22.855-.844 1.267-1.908 1.267-3.19 0-1.283-.412-2.347-1.267-3.16-.824-.845-1.869-1.252-3.136-1.252-1.267 0-2.312.407-3.136 1.251-.823.814-1.235 1.878-1.235 3.16 0 1.283.412 2.347 1.235 3.191zM99.054 23.3a2.407 2.407 0 0 0 0-3.4 2.416 2.416 0 0 0-3.404 0 2.407 2.407 0 0 0 0 3.4 2.416 2.416 0 0 0 3.404 0z"/>
        <path fill="#F8AC59" d="M97.337 4.8c1.33 0 2.419-1.087 2.419-2.385C99.756 1.117 98.667 0 97.337 0c-1.3 0-2.389 1.117-2.389 2.415S96.037 4.8 97.337 4.8z"/>
        <path fill="#23C6C8" d="M97.337 14.4c1.33 0 2.419-1.087 2.419-2.385 0-1.298-1.089-2.415-2.419-2.415-1.3 0-2.389 1.117-2.389 2.415s1.089 2.385 2.389 2.385z"/>
    </g>
</svg>
