<svg xmlns="http://www.w3.org/2000/svg" width="18" height="18" viewBox="0 0 18 18">
    <g fill="#FFF" fill-rule="nonzero">
        <path d="M8.982.018A5.199 5.199 0 0 0 3.79 5.21c0 1.773.894 3.342 2.255 4.279a8.948 8.948 0 0 0-3.413 2.14A8.924 8.924 0 0 0 0 17.983h1.404c0-4.179 3.4-7.578 7.578-7.578a5.199 5.199 0 0 0 5.193-5.193A5.199 5.199 0 0 0 8.982.018zm0 8.982c-2.09 0-3.789-1.7-3.789-3.79 0-2.089 1.7-3.789 3.79-3.789 2.089 0 3.789 1.7 3.789 3.79S11.072 9 8.982 9zM15.053 13.632v-2.948h-1.404v2.948h-2.947v1.403h2.947v2.947h1.404v-2.947H18v-1.403z"/>
    </g>
</svg>
