<svg xmlns="http://www.w3.org/2000/svg" width="20" height="14" viewBox="0 0 20 14">
    <path fill="none" fill-rule="evenodd" stroke="#262A49" d="M5.235 1.545c0-.3.24-.545.537-.545h12.691c.3 0 .537.243.537.545a.54.54 0 0 1-.537.546H5.772a.538.538 0 0 1-.537-.546zm0 5.455c0-.3.24-.545.537-.545h12.691c.3 0 .537.242.537.545a.54.54 0 0 1-.537.545H5.772A.538.538 0 0 1 5.235 7zm0 5.455c0-.301.24-.546.537-.546h12.691c.3 0 .537.243.537.546a.54.54 0 0 1-.537.545H5.772a.538.538 0 0 1-.537-.545zM1.53 2.09A.538.538 0 0 1 1 1.545c0-.3.237-.545.53-.545.292 0 .529.244.529.545a.538.538 0 0 1-.53.546zm0 5.454A.538.538 0 0 1 1 7c0-.301.237-.545.53-.545.292 0 .529.244.529.545a.538.538 0 0 1-.53.545zm0 5.455A.538.538 0 0 1 1 12.455c0-.302.237-.546.53-.546.292 0 .529.244.529.546a.538.538 0 0 1-.53.545z"/>
</svg>
