<svg xmlns="http://www.w3.org/2000/svg" width="25" height="23" viewBox="0 0 25 23">
    <g fill="none" fill-rule="evenodd">
        <path fill="#3B345F" fill-rule="nonzero" d="M0 3.403A3.406 3.406 0 0 1 3.41 0h18.18A3.409 3.409 0 0 1 25 3.403v15.922a3.406 3.406 0 0 1-3.41 3.402H3.41A3.409 3.409 0 0 1 0 19.325V3.403zM2.273 5.69v13.62c0 .633.505 1.145 1.129 1.145h18.196c.624 0 1.13-.513 1.13-1.145V5.69c0-.633-.506-1.145-1.13-1.145H3.402c-.624 0-1.13.513-1.13 1.145z"/>
        <path stroke="#3B345F" stroke-linecap="round" stroke-linejoin="round" stroke-width="2" d="M7.955 11.364l2.272-2.273v6.818M13.636 11.364L15.91 9.09v6.818"/>
    </g>
</svg>
