<svg xmlns="http://www.w3.org/2000/svg" width="20" height="20" viewBox="0 0 20 20">
    <g fill="#AFB0BF" fill-rule="nonzero">
        <path d="M19.22.482a1.646 1.646 0 0 0-2.349.02l-.752.764-.008.011-9.818 9.944c-.032.032-.048.072-.072.11a.626.626 0 0 0-.1.158l-1.002 2.343a.642.642 0 0 0 .123.691.623.623 0 0 0 .675.157l2.407-.92a.624.624 0 0 0 .178-.11c.04-.025.081-.044.113-.077l9.857-9.982.005-.007.72-.728c.652-.66.662-1.725.022-2.374zM8.171 12.225l-.547-.554 8.97-9.084.546.554-8.97 9.084zM18.31 1.957l-.282.285-.549-.556.28-.284a.427.427 0 0 1 .3-.13c.106-.003.2.037.271.108.152.153.142.413-.02.577z"/>
        <path d="M17.986 6.954a.632.632 0 0 0-.628.636v10.503c0 .35-.281.635-.628.635H1.883a.632.632 0 0 1-.628-.635V3.058c0-.35.282-.635.628-.635h10.278a.632.632 0 0 0 .628-.636c0-.35-.281-.635-.628-.635H1.883C.845 1.152 0 2.007 0 3.058v15.035C0 19.145.845 20 1.883 20H16.73c1.039 0 1.884-.855 1.884-1.907V7.59c0-.351-.281-.636-.628-.636z"/>
    </g>
</svg>
