<svg xmlns="http://www.w3.org/2000/svg" width="22" height="22" viewBox="0 0 22 22">
    <g fill="none" fill-rule="evenodd">
        <path fill="#FFF" fill-rule="nonzero" d="M14.293 21.707a1 1 0 0 0 1.414 0L18.414 19H19c1.552 0 3-1.448 3-3v-6c0-1.552-1.448-3-3-3v2c.448 0 1 .552 1 1v6c0 .448-.552 1-1 1h-1a1 1 0 0 0-.707.293L15 19.586l-2.293-2.293A1 1 0 0 0 12 17H7c-.448 0-1-.552-1-1l-2-1.5V16c0 1.552 1.448 3 3 3h4.78l2.513 2.707z"/>
        <path stroke="#FFF" stroke-linejoin="round" stroke-width="2" d="M3.586 10.691l2.707 2.624L7 14l.707-.685 2.707-2.624h4.595c1.095 0 1.991-.869 1.991-1.935v-5.82C17 1.87 16.098 1 14.993 1H3.007C1.9 1 1 1.864 1 2.935v5.82c0 1.065.897 1.936 2 1.936h.586z"/>
    </g>
</svg>
