<svg xmlns="http://www.w3.org/2000/svg" width="22" height="22" viewBox="0 0 22 22">
    <g fill="none" fill-rule="evenodd">
        <path fill="#E57B93" fill-rule="nonzero" d="M14.293 21.707a1 1 0 0 0 1.414 0L18.414 19H19c1.552 0 3-1.448 3-3v-6c0-1.552-1.448-3-3-3v2c.448 0 1 .552 1 1v6c0 .448-.552 1-1 1h-1a1 1 0 0 0-.707.293L15 19.586l-2.293-2.293A1 1 0 0 0 12 17H7c-.448 0-1-.552-1-1l-2-1.5V16c0 1.552 1.448 3 3 3h4.78l2.513 2.707z"/>
        <path stroke="#E57B93" stroke-linejoin="round" stroke-width="2" d="M3.586 11l2.707 2.707.707.707.707-.707L10.414 11h4.595C16.104 11 17 10.103 17 9.003V2.997C17 1.897 16.098 1 14.993 1H3.007A2.001 2.001 0 0 0 1 2.997v6.006C1 10.101 1.897 11 3 11h.586z"/>
    </g>
</svg>
