<svg xmlns="http://www.w3.org/2000/svg" width="16" height="15" viewBox="0 0 16 15">
    <path fill="#AFB0BF" fill-rule="nonzero" d="M9.86 7.422l-3.29-3.29-.968-.967-.968-.968A1.832 1.832 0 1 0 2.042 4.79L4.433 7.18l1.889 1.89 2.71 2.71a2.933 2.933 0 0 0 4.148-4.148l-2.71-2.711-2.987-2.988A.732.732 0 1 1 8.52.897L14.223 6.6A4.4 4.4 0 1 1 8 12.823L.74 5.563C-.283 4.253-.2 2.356 1 1.155A3.3 3.3 0 0 1 5.393.91l7.274 7.246a2.2 2.2 0 0 1-3.111 3.11L3.853 5.565A.732.732 0 1 1 4.89 4.527L8.822 8.46l1.77 1.77a.731.731 0 0 0 1.038 0 .731.731 0 0 0 0-1.036l-1.77-1.77z"/>
</svg>
