<svg xmlns="http://www.w3.org/2000/svg" width="38" height="32" viewBox="0 0 38 32">
    <g fill="none" fill-rule="evenodd" stroke="#696B84" stroke-width="2">
        <path stroke-linejoin="round" d="M12.455 27h-4.91C3.93 27 1 23.674 1 19.571c0-4.102 2.93-7.428 6.545-7.428.587 0 1.155.087 1.696.252a11.7 11.7 0 0 1-.06-1.18c0-5.642 4.03-10.215 9-10.215 4.202 0 7.73 3.267 8.723 7.684a7.278 7.278 0 0 1 1.914-.255c4.519 0 8.182 4.157 8.182 9.285C37 22.843 33.337 27 28.818 27h-3.273"/>
        <path d="M19 17v15"/>
        <path stroke-linejoin="round" d="M24 19l-5-5-5 5"/>
    </g>
</svg>
