<?xml version="1.0" encoding="UTF-8"?>
<svg width="16px" height="17px" viewBox="0 0 16 17" version="1.1" xmlns="http://www.w3.org/2000/svg" xmlns:xlink="http://www.w3.org/1999/xlink">
    <!-- Generator: Sketch 50.2 (55047) - http://www.bohemiancoding.com/sketch -->
    <title>add-user</title>
    <desc>Created with Sketch.</desc>
    <defs></defs>
    <g id="Page-1" stroke="none" stroke-width="1" fill="none" fill-rule="evenodd">
        <g id="Guests-(Add-Guest---Personal-Details)" transform="translate(-580.000000, -318.000000)" fill="#696B84" fill-rule="nonzero">
            <g id="add-user" transform="translate(580.000000, 318.000000)">
                <path d="M7.71802987,0.0175429687 C5.25769469,0.0175429687 3.25605943,2.01920845 3.25605943,4.47951341 C3.25605943,6.0034483 4.02420429,7.35118322 5.19347369,8.15648323 C4.10180719,8.53320016 3.10121611,9.15547332 2.26060361,9.99608582 C0.802823002,11.4538966 0,13.3920359 0,15.4536027 L1.20594122,15.4536027 C1.20594122,11.8628147 4.12724185,8.94151406 7.71802987,8.94151406 C10.178365,8.94151406 12.1800003,6.93984858 12.1800003,4.47951341 C12.1800003,2.01917824 10.178365,0.0175429687 7.71802987,0.0175429687 Z M7.71802987,7.73557283 C5.92265096,7.73557283 4.46200065,6.27492252 4.46200065,4.47954362 C4.46200065,2.68416471 5.92265096,1.22348419 7.71802987,1.22348419 C9.51340877,1.22348419 10.9740591,2.68413451 10.9740591,4.47954362 C10.9740591,6.27495273 9.51340877,7.73557283 7.71802987,7.73557283 Z" id="Shape"></path>
                <polygon id="Shape" points="13.0526406 12.6315898 13.0526406 9.68419531 11.6491328 9.68419531 11.6491328 12.6315898 8.70173828 12.6315898 8.70173828 14.0350977 11.6491328 14.0350977 11.6491328 16.982457 13.0526406 16.982457 13.0526406 14.0350977 16 14.0350977 16 12.6315898"></polygon>
            </g>
        </g>
    </g>
</svg>