<svg xmlns="http://www.w3.org/2000/svg" width="17" height="17" viewBox="0 0 17 17">
    <g fill="#262A49" fill-rule="nonzero">
        <path d="M14.321 6.56l-3.66-3.617a.317.317 0 0 0-.446 0l-8.13 8.143a.31.31 0 0 0-.08.14L.698 16.174a.314.314 0 0 0 .149.352.317.317 0 0 0 .24.032l4.967-1.333a.311.311 0 0 0 .14-.08l8.13-8.144a.312.312 0 0 0-.003-.442zM1.446 15.813l.4-1.52 1.119 1.113-1.519.407zm4.358-1.17l-2.142.576-1.631-1.623.561-2.126 7.851-7.864 3.212 3.174-7.85 7.864zM16.427 3.866L12.708.272a.326.326 0 0 0-.222-.093.3.3 0 0 0-.217.084L10.812 1.69a.296.296 0 0 0 .012.427l3.718 3.594a.328.328 0 0 0 .223.093.3.3 0 0 0 .217-.084l1.457-1.427a.297.297 0 0 0-.012-.427zm-1.683 1.209l-3.267-3.158 1.03-1.008 3.267 3.157-1.03 1.009z"/>
        <path d="M5.59 12.1a.293.293 0 0 0 .415-.007l5.072-5.185a.301.301 0 0 0 .005-.42.291.291 0 0 0-.415.006L5.594 11.68a.301.301 0 0 0-.004.42z"/>
    </g>
</svg>
