<svg xmlns="http://www.w3.org/2000/svg" width="16" height="16" viewBox="0 0 16 16">
    <g fill="#e57b93" fill-rule="nonzero">
        <path d="M7.99 0H1.965a.282.282 0 0 0-.282.282v13.054c.094-.011.188-.016.282-.016h6.307V.282A.282.282 0 0 0 7.99 0zM4.456 10.544H3.087V9.176h1.369v1.368zm0-2.458H3.087V6.717h1.369v1.369zm0-2.459H3.087V4.26h1.369v1.368zm0-2.458H3.087V1.8h1.369V3.17zm2.406 7.375H5.5V9.176h1.363v1.368zm0-2.458H5.5V6.717h1.363v1.369zm0-2.459H5.5V4.26h1.363v1.368zm0-2.458H5.5V1.8h1.363V3.17zM14.015 3.89h-5.32v9.417h.963V9.005h3.62v4.315h.737c.094 0 .188.005.282.016V4.173a.282.282 0 0 0-.282-.282zM10.94 7.13H9.572V5.76h1.369l-.002 1.369zm2.408 0h-1.365V5.76h1.365v1.369zM14.02 13.742H1.966a1.974 1.974 0 0 0-1.962 1.962c0 .156.126.282.282.282H15.7a.282.282 0 0 0 .282-.282 1.974 1.974 0 0 0-1.962-1.962z"/>
    </g>
</svg>
