<svg xmlns="http://www.w3.org/2000/svg" width="22" height="20" viewBox="0 0 22 20">
    <g fill="none" fill-rule="evenodd">
        <path fill="#696b84" fill-rule="nonzero" stroke="#F9F8F8" d="M1 3.722A2.725 2.725 0 0 1 3.729 1H18.27A2.727 2.727 0 0 1 21 3.722V16.46a2.725 2.725 0 0 1-2.729 2.722H3.73A2.727 2.727 0 0 1 1 16.46V3.722zm1.818 1.83v10.896c0 .507.405.916.903.916H18.28a.91.91 0 0 0 .903-.916V5.552a.909.909 0 0 0-.903-.916H3.72a.91.91 0 0 0-.903.916z"/>
        <path stroke="#696b84" stroke-linecap="round" stroke-linejoin="round" stroke-width="2" d="M7.364 10.09l1.818-1.817v5.454M11.91 10.09l1.817-1.817v5.454"/>
    </g>
</svg>
