<?xml version="1.0" encoding="UTF-8"?>
<svg width="25px" height="22px" viewBox="0 0 25 22" version="1.1" xmlns="http://www.w3.org/2000/svg" xmlns:xlink="http://www.w3.org/1999/xlink">
    <!-- Generator: Sketch 50.2 (55047) - http://www.bohemiancoding.com/sketch -->
    <title>Group 2</title>
    <desc>Created with Sketch.</desc>
    <defs></defs>
    <g id="Page-1" stroke="none" stroke-width="1" fill="none" fill-rule="evenodd">
        <g id="Events" transform="translate(-1323.000000, -176.000000)">
            <g id="Icons" transform="translate(1279.000000, 161.000000)">
                <g id="Group-3" transform="translate(30.000000, 0.000000)">
                    <g id="Group-4">
                        <g id="Group-2" transform="translate(14.000000, 15.000000)">
                            <path d="M0,2.99420208 C0,1.34054993 1.34308127,0 3.00138694,0 L18.9986131,0 C20.6562333,0 22,1.34331197 22,2.99420208 L22,17.0057979 C22,18.6594501 20.6569187,20 18.9986131,20 L3.00138694,20 C1.3437667,20 0,18.656688 0,17.0057979 L0,2.99420208 Z M2,5.00684547 L2,16.9931545 C2,17.5500512 2.44475929,18 2.99339768,18 L19.0066023,18 C19.5550537,18 20,17.5492199 20,16.9931545 L20,5.00684547 C20,4.44994876 19.5552407,4 19.0066023,4 L2.99339768,4 C2.44494629,4 2,4.45078007 2,5.00684547 Z" id="Combined-Shape" fill="#FFFFFF" fill-rule="nonzero"></path>
                            <polyline id="Path-4" stroke="#FFFFFF" stroke-width="2" stroke-linecap="round" stroke-linejoin="round" points="7 10 9 8 9 14"></polyline>
                            <polyline id="Path-4" stroke="#FFFFFF" stroke-width="2" stroke-linecap="round" stroke-linejoin="round" points="12 10 14 8 14 14"></polyline>
                            <path d="M21,17 L21,15.4976988 C21,15.2228273 20.7680664,15 20.5,15 C20.2238576,15 20,15.2148438 20,15.4976988 L20,17 L18.4976988,17 C18.2148438,17 18,17.2238576 18,17.5 C18,17.7680664 18.2228273,18 18.4976988,18 L20,18 L20,19.5023012 C20,19.7771727 20.2319336,20 20.5,20 C20.7761424,20 21,19.7851562 21,19.5023012 L21,18 L22.5023012,18 C22.7851562,18 23,17.7761424 23,17.5 C23,17.2319336 22.7771727,17 22.5023012,17 L21,17 Z M20.5,22 C18.0147186,22 16,19.9852814 16,17.5 C16,15.0147186 18.0147186,13 20.5,13 C22.9852814,13 25,15.0147186 25,17.5 C25,19.9852814 22.9852814,22 20.5,22 Z" id="Combined-Shape" fill="#FFFFFF" fill-rule="nonzero"></path>
                            <path d="M21,17 L22.5023012,17 C22.7771727,17 23,17.2319336 23,17.5 C23,17.7761424 22.7851562,18 22.5023012,18 L21,18 L21,19.5023012 C21,19.7851562 20.7761424,20 20.5,20 C20.2319336,20 20,19.7771727 20,19.5023012 L20,18 L18.4976988,18 C18.2228273,18 18,17.7680664 18,17.5 C18,17.2238576 18.2148438,17 18.4976988,17 L20,17 L20,15.4976988 C20,15.2148438 20.2238576,15 20.5,15 C20.7680664,15 21,15.2228273 21,15.4976988 L21,17 Z" id="Combined-Shape" fill="#38315d" fill-rule="nonzero"></path>
                        </g>
                    </g>
                </g>
            </g>
        </g>
    </g>
</svg>