<svg xmlns="http://www.w3.org/2000/svg" width="22" height="21" viewBox="0 0 22 21">
    <g fill="none" fill-rule="evenodd" transform="translate(-1 1)">
        <path fill="#FFF" fill-rule="nonzero" d="M14.257 12H7c-2.8 0-4.61 1.168-5.474 3.09a6.233 6.233 0 0 0-.521 3.01 1 1 0 1 0 1.99-.2l-.002-.038a4.314 4.314 0 0 1 .356-1.952C3.891 14.707 4.987 14 7 14h6.207a5.485 5.485 0 0 1 1.05-2zM19 15v-1.502a.504.504 0 0 0-.5-.498c-.276 0-.5.215-.5.498V15h-1.502a.494.494 0 0 0-.498.5c0 .268.223.5.498.5H18v1.502c0 .275.232.498.5.498.276 0 .5-.215.5-.498V16h1.502a.494.494 0 0 0 .498-.5c0-.268-.223-.5-.498-.5H19zm-.5 5a4.5 4.5 0 1 1 0-9 4.5 4.5 0 0 1 0 9z"/>
        <circle cx="12" cy="5" r="5" stroke="#FFF" stroke-width="2"/>
    </g>
</svg>
