<svg xmlns="http://www.w3.org/2000/svg" width="34" height="36" viewBox="0 0 34 36">
    <g fill="#262A49" fill-rule="nonzero">
        <path d="M29.308 14.331l-7.681-7.589a.665.665 0 0 0-.933-.001L3.634 23.827a.65.65 0 0 0-.167.293L.727 34.505a.66.66 0 0 0 .31.74.665.665 0 0 0 .505.066l10.42-2.796a.653.653 0 0 0 .294-.17L29.315 15.26a.654.654 0 0 0-.007-.929zM2.295 33.746l.84-3.188 2.347 2.333-3.187.855zm9.144-2.454l-4.494 1.206-3.423-3.404 1.177-4.46 16.472-16.5 6.74 6.66-16.472 16.498zM33.726 8.68l-7.802-7.54a.685.685 0 0 0-.466-.195.63.63 0 0 0-.455.175l-3.058 2.993c-.248.242-.236.644.025.896l7.802 7.541a.688.688 0 0 0 .466.195.63.63 0 0 0 .456-.176l3.057-2.993c.247-.242.236-.643-.025-.896zm-3.531 2.535L23.34 4.59 25.5 2.475 32.356 9.1l-2.161 2.115z"/>
        <path d="M10.99 25.954c.037.039.08.07.124.097a.614.614 0 0 0 .745-.111l10.643-10.877a.632.632 0 0 0 .01-.884.61.61 0 0 0-.87.015L10.997 25.07a.631.631 0 0 0-.009.883z"/>
    </g>
</svg>
