<svg xmlns="http://www.w3.org/2000/svg" width="20" height="19" viewBox="0 0 20 19">
    <g fill="none" fill-rule="evenodd">
        <path fill="#AFB0BF" fill-rule="nonzero" d="M0 2.722A2.725 2.725 0 0 1 2.729 0H17.27A2.727 2.727 0 0 1 20 2.722V15.46a2.725 2.725 0 0 1-2.729 2.722H2.73A2.727 2.727 0 0 1 0 15.46V2.722zm1.818 1.83v10.896c0 .507.405.916.903.916H17.28a.91.91 0 0 0 .903-.916V4.552a.909.909 0 0 0-.903-.916H2.72a.91.91 0 0 0-.903.916z"/>
        <path stroke="#AFB0BF" stroke-linecap="round" stroke-linejoin="round" stroke-width="2" d="M6.364 9.09l1.818-1.817v5.454M10.91 9.09l1.817-1.817v5.454"/>
    </g>
</svg>
