<svg xmlns="http://www.w3.org/2000/svg" width="22" height="15" viewBox="0 0 22 15">
    <path fill="#3A3060" fill-rule="evenodd" stroke="#38315D" d="M5.706 1.59c0-.325.265-.59.596-.59h14.102a.59.59 0 1 1 0 1.182H6.302a.59.59 0 0 1-.596-.591zm0 5.91c0-.326.265-.59.596-.59h14.102a.59.59 0 1 1 0 1.18H6.302a.59.59 0 0 1-.596-.59zm0 5.91c0-.327.265-.592.596-.592h14.102a.59.59 0 1 1 0 1.182H6.302a.59.59 0 0 1-.596-.59zM1.588 2.181A.59.59 0 0 1 1 1.59.59.59 0 0 1 1.588 1a.59.59 0 0 1 .588.59.59.59 0 0 1-.588.592zm0 5.909A.59.59 0 0 1 1 7.5a.59.59 0 0 1 .588-.59.59.59 0 0 1 .588.59.59.59 0 0 1-.588.59zm0 5.909A.59.59 0 0 1 1 13.41a.59.59 0 0 1 .588-.592.59.59 0 0 1 .588.591.59.59 0 0 1-.588.591z"/>
</svg>
