<svg xmlns="http://www.w3.org/2000/svg" width="24" height="19" viewBox="0 0 24 19">
    <g fill="none" fill-rule="evenodd" stroke="#AFB0BF" stroke-width="2">
        <path stroke-linejoin="round" d="M2.418 10.579l-.968-3.61c-.143-.538.18-1.09.698-1.23L19.55 1.078a1 1 0 0 1 1.219.715l.913 3.406L21.9 6"/>
        <path d="M16.904 2.821c.388 1.45 2.225 2.51 3.674 2.122" opacity=".5"/>
        <g>
            <path stroke-linejoin="round" d="M2.4 7.002C2.4 6.45 2.855 6 3.392 6h18.016c.548 0 .992.456.992 1.002v9.996c0 .553-.455 1.002-.992 1.002H3.392c-.548 0-.992-.456-.992-1.002V7.002zM12.4 14a2 2 0 1 0 0-4 2 2 0 0 0 0 4z"/>
            <path d="M18.4 7c0 1.5 1.5 3 3 3M6.4 7c0 1.5-1.5 3-3 3M18.4 17c0-1.5 1.5-3 3-3M6.4 17c0-1.5-1.5-3-3-3"/>
        </g>
    </g>
</svg>
