<svg xmlns="http://www.w3.org/2000/svg" width="24" height="20" viewBox="0 0 24 20">
    <g fill="none" fill-rule="evenodd" stroke="#FFF" stroke-width="2">
        <path stroke-linejoin="round" d="M2.81 11.402l-.968-3.61c-.144-.537.18-1.09.697-1.229L19.942 1.9a1 1 0 0 1 1.218.715l.913 3.406.218.802"/>
        <path d="M17.295 3.645c.388 1.449 2.225 2.51 3.674 2.121" opacity=".5"/>
        <g>
            <path stroke-linejoin="round" d="M3 8.002C3 7.45 3.455 7 3.992 7h18.016c.548 0 .992.456.992 1.002v9.996c0 .553-.455 1.002-.992 1.002H3.992C3.444 19 3 18.544 3 17.998V8.002zM13 15a2 2 0 1 0 0-4 2 2 0 0 0 0 4z"/>
            <path d="M19 8c0 1.5 1.5 3 3 3M7 8c0 1.5-1.5 3-3 3M19 18c0-1.5 1.5-3 3-3M7 18c0-1.5-1.5-3-3-3"/>
        </g>
    </g>
</svg>
