<svg xmlns="http://www.w3.org/2000/svg" width="26" height="21" viewBox="0 0 26 21">
    <g fill="none" fill-rule="evenodd" stroke="#3B345F" stroke-width="2">
        <path stroke-linejoin="round" d="M2.966 11.394L1.915 7.469a1.094 1.094 0 0 1 .758-1.335L21.59 1.065a1.086 1.086 0 0 1 1.324.777l.992 3.703.238.872"/>
        <path d="M18.712 2.962c.422 1.574 2.419 2.727 3.994 2.305" opacity=".5"/>
        <g>
            <path stroke-linejoin="round" d="M3.174 7.698c0-.601.495-1.09 1.078-1.09h19.583c.595 0 1.078.496 1.078 1.09v10.865c0 .601-.495 1.09-1.078 1.09H4.252a1.089 1.089 0 0 1-1.078-1.09V7.698zm10.87 7.606a2.174 2.174 0 1 0 0-4.347 2.174 2.174 0 0 0 0 4.347z"/>
            <path d="M20.565 7.696c0 1.63 1.63 3.26 3.261 3.26M7.522 7.696c0 1.63-1.63 3.26-3.261 3.26M20.565 18.565c0-1.63 1.63-3.26 3.261-3.26M7.522 18.565c0-1.63-1.63-3.26-3.261-3.26"/>
        </g>
    </g>
</svg>
