<?xml version="1.0" encoding="UTF-8"?>
<svg width="28px" height="36px" viewBox="0 0 28 36" version="1.1" xmlns="http://www.w3.org/2000/svg" xmlns:xlink="http://www.w3.org/1999/xlink">
    <!-- Generator: Sketch 50.2 (55047) - http://www.bohemiancoding.com/sketch -->
    <title>padlock</title>
    <desc>Created with Sketch.</desc>
    <defs></defs>
    <g id="Page-1" stroke="none" stroke-width="1" fill="none" fill-rule="evenodd">
        <g id="Settings-1" transform="translate(-810.000000, -281.000000)" fill-rule="nonzero" stroke="#262A49" stroke-width="1.3">
            <g id="Password" transform="translate(669.320007, 282.000000)">
                <g id="padlock" transform="translate(141.690002, 0.000000)">
                    <path d="M2.94452967,10.29 L2.94452967,13.867 L2.70729268,13.867 C1.21409517,13.867 0,15.085 0,16.583 L0,31.542 C0,33.04 1.21409517,34.258 2.70729268,34.258 L23.514372,34.258 C25.0075695,34.258 26.2216647,33.04 26.2216647,31.542 L26.2216647,16.576 C26.2216647,15.078 25.0075695,13.86 23.514372,13.86 L23.4445964,13.86 L23.4445964,10.283 C23.4445964,4.613 18.8463854,0 13.194563,0 C7.54274069,0.007 2.94452967,4.62 2.94452967,10.29 Z M14.7156708,24.724 C14.506344,24.878 14.4505236,25.025 14.4505236,25.27 C14.4575011,26.369 14.4575011,27.461 14.4575011,28.56 C14.4784338,29.015 14.2481744,29.463 13.843476,29.666 C12.8875505,30.156 11.931625,29.47 11.931625,28.56 L11.931625,28.553 C11.931625,27.454 11.931625,26.355 11.9386025,25.256 C11.9386025,25.032 11.8897596,24.885 11.694388,24.738 C10.7035747,24.003 10.3756294,22.75 10.8710361,21.651 C11.3524876,20.58 12.531695,19.95 13.6411268,20.174 C14.8761546,20.426 15.7343943,21.42 15.7483494,22.659 C15.7483494,23.52 15.4064491,24.22 14.7156708,24.724 Z M7.43109976,10.29 C7.43109976,7.098 10.0197739,4.508 13.194563,4.508 C16.3763297,4.508 18.9580263,7.105 18.9580263,10.29 L18.9580263,13.867 L7.43109976,13.867 L7.43109976,10.29 Z" id="Shape"></path>
                </g>
            </g>
        </g>
    </g>
</svg>