<svg xmlns="http://www.w3.org/2000/svg" width="20" height="18" viewBox="0 0 20 18">
    <path fill="#e57b93" fill-rule="nonzero" d="M12.824 9.028L8.712 4.916l-1.21-1.21-1.21-1.21a2.29 2.29 0 0 0-3.246-.006 2.29 2.29 0 0 0 .006 3.247l2.99 2.99 2.36 2.36 3.388 3.388a3.674 3.674 0 0 0 5.192.007 3.667 3.667 0 0 0-.007-5.192l-3.387-3.388-3.735-3.734A.916.916 0 1 1 11.15.872L18.28 8a5.5 5.5 0 0 1-7.779 7.778L1.425 6.704l.018-.018A4.126 4.126 0 0 1 7.241.888L7.26.87l9.075 9.075a2.75 2.75 0 0 1-3.89 3.889L5.317 6.705A.916.916 0 1 1 6.612 5.41l4.916 4.915 2.213 2.213a.914.914 0 0 0 1.296 0 .914.914 0 0 0 0-1.296l-2.213-2.213z"/>
</svg>
