<svg xmlns="http://www.w3.org/2000/svg" width="21" height="22" viewBox="0 0 21 22">
    <path fill="none" fill-rule="evenodd" stroke="#AFB0BF" stroke-width="2" d="M6.095 2.403c-.308-.46-.975-.674-1.478-.455 0 0-1.2.33-2.615 1.743C.588 5.106.588 10.055 5.892 15.36c5.303 5.303 10.252 5.303 11.667 3.889 1.414-1.414 1.743-2.615 1.743-2.615a1.17 1.17 0 0 0-.48-1.418l-2.964-1.718c-.474-.274-1.15-.159-1.514.262l-.726.84a1.122 1.122 0 0 1-1.475.18s-1.288-.82-3.07-2.602c-1.782-1.782-2.602-3.07-2.602-3.07a1.141 1.141 0 0 1 .175-1.481l1.1-.964c.416-.366.501-1.04.197-1.495L6.095 2.403z"/>
</svg>
