<svg xmlns="http://www.w3.org/2000/svg" width="67" height="66" viewBox="0 0 67 66">
    <g fill="none" fill-rule="nonzero">
        <path fill="#4FA6DC" d="M55.083 35a.927.927 0 0 0-.918.937c0 .656-.523 1.19-1.165 1.19a1.179 1.179 0 0 1-1.165-1.19.927.927 0 0 0-.918-.937.927.927 0 0 0-.917.937C50 37.626 51.346 39 53 39s3-1.374 3-3.063a.927.927 0 0 0-.917-.937z"/>
        <path fill="#262A49" d="M64.44 35.082l-2.743-.883a1.151 1.151 0 0 1-.741-.755 17.82 17.82 0 0 0-2.595-5.158 18.903 18.903 0 0 0-1.733-2.055c.405-1.785.625-3.806.597-5.551-.041-2.497-.538-3.962-1.518-4.478-.528-.279-2.135-1.124-10.833 2.878a3.161 3.161 0 0 0-.576.345 37.662 37.662 0 0 0-1.789-.436l-.22-.046a13.408 13.408 0 0 0 1.193-4.964.976.976 0 0 0-1.948-.088 11.414 11.414 0 0 1-3.315 7.56 11.282 11.282 0 0 1-4.108 2.637 28.133 28.133 0 0 0-7.848 0 11.28 11.28 0 0 1-4.108-2.637 11.372 11.372 0 0 1-3.327-8.074c0-3.05 1.182-5.916 3.327-8.073a11.255 11.255 0 0 1 8.032-3.344c3.034 0 5.886 1.188 8.032 3.344a11.41 11.41 0 0 1 2.117 2.94.973.973 0 0 0 1.31.434.982.982 0 0 0 .432-1.316 13.362 13.362 0 0 0-2.48-3.444A13.187 13.187 0 0 0 30.187 0a13.187 13.187 0 0 0-9.41 3.918 13.325 13.325 0 0 0-3.899 9.46c0 3.572 1.385 6.932 3.898 9.459a13.313 13.313 0 0 0 2.349 1.88c-.606.158-1.207.336-1.803.536a.981.981 0 0 0-.615 1.24c.17.514.723.791 1.234.62a26.04 26.04 0 0 1 16.492 0 .97.97 0 0 0 1.234-.62.981.981 0 0 0-.615-1.24c-.595-.2-1.197-.378-1.803-.536a13.308 13.308 0 0 0 4.048-3.978 37.2 37.2 0 0 1 1.843.41c-.011.042-.022.085-.031.128-.476 2.268-.445 4.275.091 5.963.483 1.517 1.353 2.746 2.586 3.653 1.454 1.07 3.21 1.531 4.8 1.531 1.196 0 2.3-.262 3.11-.723.916-.522 1.684-1.621 2.292-3.272.281.33.547.667.798 1.013a15.857 15.857 0 0 1 2.31 4.59 3.11 3.11 0 0 0 2.006 2.034l2.744.883c.72.232 1.204.898 1.204 1.658v4.575c0 .76-.484 1.426-1.204 1.658l-4.421 1.423a3.016 3.016 0 0 0-1.686 1.376c-1.737 3.018-4.468 5.515-8.118 7.423-.422.22-.714.615-.802 1.082l-1.416 7.537a.439.439 0 0 1-.43.359h-4.605a.439.439 0 0 1-.43-.359l-.785-4.165a1.533 1.533 0 0 0-1.742-1.239 40.555 40.555 0 0 1-6.074.454c-1.523 0-3.027-.085-4.469-.253a1.546 1.546 0 0 0-1.69 1.245l-.745 3.958a.439.439 0 0 1-.43.359h-4.605a.44.44 0 0 1-.43-.362l-1.364-7.119a1.538 1.538 0 0 0-.787-1.07c-6.222-3.338-9.51-8.916-9.51-16.13 0-3.644.793-6.866 2.357-9.578 1.46-2.53 3.593-4.623 6.338-6.22a.983.983 0 0 0 .356-1.338.973.973 0 0 0-1.333-.358c-5.323 3.095-8.534 7.87-9.417 13.935-.094-.008-.188-.016-.282-.026a4.902 4.902 0 0 0-.357-1.956c-.566-1.413-1.728-2.433-2.96-2.599-.972-.13-1.897.284-2.538 1.136-.93 1.236-.779 2.214-.488 2.816.491 1.018 1.754 1.737 3.848 2.19-.057.086-.12.173-.19.26-1.238 1.561-2.696 1.906-3.643 1.939A1.027 1.027 0 0 0 0 40.583v.005c0 .55.432.999.978 1.024.07.003.143.005.22.005 1.198 0 3.12-.445 4.968-2.773.292-.368.53-.755.712-1.156a26.273 26.273 0 0 0 .53.053c-.033.532-.051 1.07-.051 1.619 0 4.081.968 7.72 2.877 10.816 1.76 2.854 4.28 5.191 7.492 6.949l1.326 6.92A2.393 2.393 0 0 0 21.398 66h4.605a2.393 2.393 0 0 0 2.346-1.954l.674-3.579c1.4.149 2.849.225 4.314.225 2.01 0 4.017-.141 5.974-.419l.71 3.773A2.393 2.393 0 0 0 42.368 66h4.604a2.394 2.394 0 0 0 2.347-1.954l1.379-7.339c3.895-2.07 6.831-4.79 8.729-8.086.136-.238.347-.412.592-.49l4.422-1.424A3.688 3.688 0 0 0 67 43.18v-4.574a3.688 3.688 0 0 0-2.56-3.525zm-9.312-11.648c-.375 3.226-1.382 5.986-2.393 6.561-1.15.655-3.805.781-5.798-.684-1.995-1.467-2.659-4.105-1.92-7.63.074-.354.324-.66.669-.819 4.881-2.246 7.696-2.98 8.741-2.98.158 0 .276.016.354.047.314.337.726 2.25.347 5.505zM2.738 34.316c-.101-.21.137-.577.288-.778.24-.318.46-.383.626-.383.036 0 .068.003.099.007.448.06 1.076.556 1.409 1.388.078.195.18.52.204.924-1.35-.281-2.399-.686-2.626-1.158z"/>
        <path fill="#4FA6DC" d="M31.757 11.89V8.425c1.247.085 1.71.631 2.138.631.535 0 .784-.648.784-.973 0-.837-1.71-1.195-2.922-1.23v-.46c0-.205-.267-.393-.534-.393-.303 0-.517.188-.517.393v.495c-1.693.17-3.385 1.024-3.385 3.175 0 2.186 1.781 2.8 3.385 3.347v4.012c-1.817-.137-2.298-1.332-2.886-1.332-.446 0-.82.564-.82.973 0 .837 1.497 1.98 3.706 2.015v.53c0 .204.214.392.517.392.267 0 .534-.188.534-.393v-.58C33.682 18.77 35 17.61 35 15.51c0-2.322-1.693-3.074-3.243-3.62zm-.944-.324c-.945-.342-1.71-.7-1.71-1.673 0-.888.712-1.315 1.71-1.434v3.107zm.837 5.822v-3.603c.873.359 1.568.837 1.568 1.912 0 .974-.606 1.52-1.568 1.69z"/>
    </g>
</svg>
