<svg xmlns="http://www.w3.org/2000/svg" xmlns:xlink="http://www.w3.org/1999/xlink" width="83" height="83" viewBox="0 0 83 83">
    <defs>
        <circle id="a" cx="41.5" cy="41.5" r="41.5"/>
    </defs>
    <g fill="none" fill-rule="evenodd">
        <mask id="b" fill="#fff">
            <use xlink:href="#a"/>
        </mask>
        <use fill="#DAEAF4" xlink:href="#a"/>
        <g stroke-width="2" mask="url(#b)">
            <g transform="translate(12 23)">
                <path stroke="#696B84" stroke-linecap="round" stroke-linejoin="round" d="M13.086 37.234s0-8.049 8.05-8.049h16.098c8.062 0 8.062 8.05 8.062 8.05"/>
                <path fill="#696B84" fill-rule="nonzero" stroke="#DAEAF4" d="M16.651 20.018c-4.865-.707-8.602-4.895-8.602-9.956C8.05 4.505 12.554 0 18.111 0a10.03 10.03 0 0 1 7.088 2.92 14.066 14.066 0 0 0-3.738 2.118 6.037 6.037 0 1 0-5.358 10.718 14.093 14.093 0 0 0 .548 4.262zm.803 2.118h-7.392c-4.312 0-7.256 1.962-8.843 5.137C.299 29.112 0 30.907 0 32.197a2.012 2.012 0 0 0 4.025 0c0-.147.023-.478.098-.927a7.806 7.806 0 0 1 .695-2.197c.928-1.857 2.513-2.913 5.244-2.913h10.265a14.123 14.123 0 0 1-2.873-4.024zM40.822 20.018c4.865-.707 8.602-4.895 8.602-9.956C49.424 4.505 44.92 0 39.362 0a10.03 10.03 0 0 0-7.087 2.92 14.066 14.066 0 0 1 3.738 2.118 6.037 6.037 0 1 1 5.358 10.718 14.093 14.093 0 0 1-.548 4.262zm-.803 2.118h7.393c4.312 0 7.256 1.962 8.843 5.137.92 1.839 1.218 3.634 1.218 4.924a2.012 2.012 0 1 1-4.024 0c0-.147-.024-.478-.099-.927a7.806 7.806 0 0 0-.695-2.197c-.928-1.857-2.512-2.913-5.243-2.913H37.147a14.123 14.123 0 0 0 2.872-4.024z"/>
                <circle cx="29.185" cy="15.099" r="8.049" stroke="#696B84"/>
            </g>
        </g>
    </g>
</svg>
