<svg xmlns="http://www.w3.org/2000/svg" width="20" height="20" viewBox="0 0 20 20">
    <g fill="none" fill-rule="evenodd" transform="translate(1 1)">
        <path stroke="#696B84" stroke-width="2" d="M3.018 15H1.996A1.993 1.993 0 0 1 0 13V7c0-1.105.893-2 1.995-2h14.01C17.107 5 18 5.887 18 7v6c0 1.105-.898 2-2.009 2h-.93M3 1c0-.552.456-1 1.002-1h9.996A.999.999 0 0 1 15 1v4H3V1z"/>
        <path stroke="#696B84" stroke-width="2" d="M3 11h12v5.997c0 .554-.456 1.003-1.002 1.003H4.002A.996.996 0 0 1 3 16.997V11z"/>
        <path fill="#696B84" fill-rule="nonzero" d="M6 13h6v1H6zM6 15h6v1H6z"/>
        <circle cx="4" cy="8" r="1" fill="#E9D6DD" fill-rule="nonzero" opacity=".5"/>
        <circle cx="7" cy="8" r="1" fill="#E9D6DD" fill-rule="nonzero" opacity=".5"/>
    </g>
</svg>
