<svg xmlns="http://www.w3.org/2000/svg" width="19" height="16" viewBox="0 0 19 16">
    <g fill="none" fill-rule="evenodd">
        <path stroke="#AFB0BF" stroke-linecap="round" stroke-linejoin="round" stroke-width="2" d="M5.25 14.25s0-3 3-3h6c3.005 0 3.005 3 3.005 3"/>
        <path fill="#AFB0BF" fill-rule="nonzero" d="M6.206 7.46a3.75 3.75 0 1 1 3.186-6.372c-.507.192-.976.46-1.394.79a2.25 2.25 0 1 0-1.997 3.995 5.253 5.253 0 0 0 .204 1.588zm.3.79H3.75c-1.607 0-2.704.731-3.296 1.915A4.205 4.205 0 0 0 0 12a.75.75 0 0 0 1.5 0c0-.055.009-.178.037-.345a2.91 2.91 0 0 1 .259-.82c.346-.691.936-1.085 1.954-1.085h3.826a5.264 5.264 0 0 1-1.07-1.5z"/>
        <circle cx="11.25" cy="6" r="3" stroke="#AFB0BF" stroke-width="2"/>
    </g>
</svg>
