<svg xmlns="http://www.w3.org/2000/svg" width="75" height="20" viewBox="0 0 75 20">
    <g fill="none" fill-rule="nonzero">
        <path fill="#003087" d="M14.043 1.915C13.174.925 11.603.5 9.593.5H3.76a.835.835 0 0 0-.825.704L.507 16.61a.5.5 0 0 0 .495.579h3.6l.905-5.737-.028.18a.833.833 0 0 1 .822-.705h1.711c3.362 0 5.994-1.365 6.763-5.315.023-.117.043-.23.06-.342.228-1.46-.002-2.454-.791-3.353"/>
        <path fill="#009CDE" d="M58.129 9.246c-.22 1.445-1.324 1.445-2.392 1.445h-.607l.426-2.699a.335.335 0 0 1 .331-.283h.279c.727 0 1.413 0 1.767.414.212.248.275.615.196 1.123m-.465-3.772h-4.027a.56.56 0 0 0-.553.473l-1.628 10.325a.336.336 0 0 0 .332.388h2.066c.193 0 .357-.14.387-.33l.462-2.929a.56.56 0 0 1 .552-.472h1.274c2.653 0 4.184-1.283 4.584-3.828.18-1.112.007-1.986-.514-2.598-.572-.673-1.587-1.03-2.935-1.03"/>
        <path fill="#003087" d="M29.407 9.246c-.22 1.445-1.324 1.445-2.392 1.445h-.607l.426-2.699a.335.335 0 0 1 .331-.283h.279c.727 0 1.413 0 1.767.414.212.248.276.615.196 1.123m-.465-3.772h-4.026a.56.56 0 0 0-.553.473l-1.628 10.325a.335.335 0 0 0 .331.388h1.923c.275 0 .51-.2.553-.473l.44-2.785a.56.56 0 0 1 .552-.473h1.274c2.653 0 4.184-1.283 4.583-3.828.18-1.112.008-1.986-.513-2.598-.573-.673-1.588-1.03-2.935-1.03m9.348 7.48c-.186 1.101-1.06 1.841-2.176 1.841-.56 0-1.007-.18-1.295-.52-.285-.338-.392-.82-.302-1.355.173-1.092 1.062-1.855 2.16-1.855.549 0 .992.181 1.286.525.296.346.412.83.327 1.364m2.688-3.754H39.05a.336.336 0 0 0-.332.284l-.084.539-.135-.195c-.417-.606-1.348-.81-2.278-.81-2.13 0-3.95 1.615-4.304 3.879-.184 1.13.078 2.21.718 2.963.589.692 1.428.98 2.429.98 1.717 0 2.67-1.103 2.67-1.103l-.087.536a.335.335 0 0 0 .332.388h1.736c.275 0 .51-.2.553-.472l1.042-6.6a.336.336 0 0 0-.332-.389"/>
        <path fill="#009CDE" d="M67.013 12.953c-.187 1.101-1.06 1.841-2.177 1.841-.559 0-1.007-.18-1.294-.52-.286-.338-.393-.82-.303-1.355.174-1.092 1.062-1.855 2.161-1.855.548 0 .992.181 1.286.525.295.346.412.83.327 1.364M69.7 9.199h-1.928a.336.336 0 0 0-.332.284l-.084.539-.135-.195c-.418-.606-1.349-.81-2.278-.81-2.13 0-3.95 1.615-4.304 3.879-.185 1.13.078 2.21.718 2.963.589.692 1.428.98 2.429.98 1.718 0 2.67-1.103 2.67-1.103l-.086.536a.334.334 0 0 0 .33.388h1.736c.275 0 .51-.2.553-.472l1.043-6.6a.336.336 0 0 0-.332-.389"/>
        <path fill="#003087" d="M51.249 9.2H49.31a.557.557 0 0 0-.462.245l-2.674 3.937L45.041 9.6a.56.56 0 0 0-.536-.4H42.6a.336.336 0 0 0-.318.444l2.134 6.265-2.007 2.832a.336.336 0 0 0 .274.53h1.936a.56.56 0 0 0 .46-.24l6.445-9.304a.335.335 0 0 0-.275-.527"/>
        <path fill="#009CDE" d="M71.973 5.758L70.32 16.272a.336.336 0 0 0 .331.388h1.662c.275 0 .51-.2.553-.472l1.63-10.326a.335.335 0 0 0-.332-.388h-1.86a.335.335 0 0 0-.331.284"/>
        <path fill="#003087" d="M14.043 1.915C13.174.925 11.603.5 9.593.5H3.76a.835.835 0 0 0-.825.704L.507 16.61a.5.5 0 0 0 .495.579h3.6l.905-5.737-.028.18a.833.833 0 0 1 .822-.705h1.711c3.362 0 5.994-1.365 6.763-5.315.023-.117.043-.23.06-.342.228-1.46-.002-2.454-.791-3.353"/>
        <path fill="#003087" d="M6.479 5.288a.731.731 0 0 1 .72-.616h4.574c.541 0 1.047.035 1.508.11.252.04.502.095.748.166.279.079.549.186.805.321.23-1.46-.001-2.454-.79-3.354C13.173.925 11.603.5 9.593.5H3.76c-.41 0-.76.3-.825.705L.507 16.608a.5.5 0 0 0 .494.58h3.601l.905-5.738.972-6.162z"/>
        <path fill="#009CDE" d="M14.835 5.269a9.498 9.498 0 0 1-.06.341c-.77 3.95-3.401 5.316-6.763 5.316H6.3c-.41 0-.759.299-.821.704l-.877 5.557-.249 1.576a.438.438 0 0 0 .433.507h3.036a.73.73 0 0 0 .721-.617l.03-.154.572-3.626.036-.2a.73.73 0 0 1 .722-.617h.454c2.94 0 5.243-1.194 5.916-4.65.28-1.443.135-2.65-.607-3.496a2.9 2.9 0 0 0-.831-.641"/>
        <path fill="#012169" d="M14.03 4.948a6.42 6.42 0 0 0-.748-.166 9.43 9.43 0 0 0-1.51-.11H7.2a.729.729 0 0 0-.721.616l-.972 6.163-.028.18a.832.832 0 0 1 .821-.705h1.712c3.362 0 5.994-1.366 6.763-5.316.023-.117.042-.23.06-.341a4.152 4.152 0 0 0-.806-.321"/>
    </g>
</svg>
