<svg xmlns="http://www.w3.org/2000/svg" width="12" height="12" viewBox="0 0 12 12">
    <g fill="#696B84" fill-rule="nonzero">
        <path d="M6 0C2.691 0 0 2.691 0 6s2.691 6 6 6 6-2.691 6-6-2.691-6-6-6zm0 11c-2.757 0-5-2.243-5-5s2.243-5 5-5 5 2.243 5 5-2.243 5-5 5z"/>
        <path d="M5.875 8.085a.605.605 0 0 0-.595.625.595.595 0 0 0 .615.575h-.02a.605.605 0 0 0 .595-.605.61.61 0 0 0-.595-.595zM5.99 2.735a2.5 2.5 0 0 0-1.875.765.391.391 0 0 0-.085.25.415.415 0 0 0 .4.41.422.422 0 0 0 .28-.105c.31-.321.738-.502 1.185-.5.675 0 1 .365 1 .795 0 .92-1.635 1.035-1.635 2.23 0 .29.18.825.555.825h.01a.365.365 0 0 0 .365-.365c0-.135-.095-.25-.095-.385 0-.9 1.76-1.025 1.8-2.42 0-.85-.72-1.5-1.905-1.5z"/>
    </g>
</svg>
