<svg xmlns="http://www.w3.org/2000/svg" width="13" height="13" viewBox="0 0 13 13">
    <g fill="#262A49" fill-rule="nonzero">
        <path d="M11.021 4.983L8.156 2.152a.248.248 0 0 0-.348 0L1.445 8.525a.243.243 0 0 0-.063.109L.36 12.508a.246.246 0 0 0 .116.276.248.248 0 0 0 .189.024l3.887-1.043a.244.244 0 0 0 .109-.063l6.363-6.373a.244.244 0 0 0-.003-.346zM.945 12.225l.314-1.19.875.87-1.189.32zm3.411-.916l-1.676.45-1.277-1.27.44-1.663L7.986 2.67 10.5 5.155 4.356 11.31zM12.67 2.875L9.76.062a.255.255 0 0 0-.174-.073.235.235 0 0 0-.17.066l-1.14 1.116a.232.232 0 0 0 .009.335l2.91 2.812a.257.257 0 0 0 .174.073.235.235 0 0 0 .17-.066l1.14-1.116a.232.232 0 0 0-.01-.334zm-1.318.945L8.795 1.35l.807-.79 2.557 2.471-.807.79z"/>
        <path d="M4.188 9.318a.229.229 0 0 0 .324-.005l3.971-4.057a.236.236 0 0 0 .003-.33.228.228 0 0 0-.324.005L4.192 8.99a.236.236 0 0 0-.004.33z"/>
    </g>
</svg>
