<svg xmlns="http://www.w3.org/2000/svg" width="25" height="25" viewBox="0 0 25 25">
    <g fill="#696B84" fill-rule="nonzero">
        <path d="M12.5 0C5.607 0 0 5.607 0 12.5S5.607 25 12.5 25 25 19.393 25 12.5 19.393 0 12.5 0zm0 22.917c-5.744 0-10.417-4.673-10.417-10.417S6.756 2.083 12.5 2.083 22.917 6.756 22.917 12.5 18.244 22.917 12.5 22.917z"/>
        <path d="M18 10.2V8.508h-2.043l.472-2.37-1.572-.338-.55 2.708H11.95l.55-2.37-1.571-.338-.55 2.708H7.786V10.2h2.278l-.707 3.385H7v1.692h2.043l-.472 2.37 1.572.338.55-2.708h2.357l-.55 2.37 1.571.338.55-2.708h2.593v-1.692h-2.278l.707-3.385H18zm-4.714 3.385h-2.357l.785-3.385h2.357l-.785 3.385z"/>
    </g>
</svg>
