<svg xmlns="http://www.w3.org/2000/svg" width="40" height="33" viewBox="0 0 40 33">
    <path fill="#262A49" fill-rule="nonzero" d="M39.962 10.147l-2.5-9.269C37.325.361 36.822 0 36.25 0H3.75c-.572 0-1.075.361-1.212.878l-2.5 9.27c-.025.09-.038.184-.038.28 0 1.941.993 3.654 2.5 4.706v16.148c0 .64.56 1.159 1.25 1.159h12.5c.69 0 1.25-.52 1.25-1.159v-8.11h5v8.11c0 .64.56 1.159 1.25 1.159h12.5c.69 0 1.25-.52 1.25-1.159V15.134c1.508-1.052 2.5-2.765 2.5-4.707 0-.095-.013-.19-.038-.28zm-5.001 20.09h-9.974v-8.07c0-.637-.559-1.153-1.247-1.153h-7.48c-.688 0-1.247.516-1.247 1.153v8.07H5.04V16.31c.307.048.616.092.935.092 1.9 0 3.591-.874 4.676-2.23a5.972 5.972 0 0 0 4.675 2.23c1.9 0 3.59-.874 4.675-2.23a5.972 5.972 0 0 0 4.675 2.23c1.9 0 3.59-.874 4.675-2.23a5.972 5.972 0 0 0 4.676 2.23c.319 0 .628-.044.935-.092v13.925zm-.915-16.379c-1.893 0-3.433-1.568-3.433-3.496 0-.643-.56-1.165-1.25-1.165-.688 0-1.248.522-1.248 1.165 0 1.928-1.54 3.496-3.434 3.496-1.893 0-3.434-1.568-3.434-3.496 0-.643-.559-1.165-1.248-1.165-.69 0-1.249.522-1.249 1.165 0 1.928-1.54 3.496-3.434 3.496-1.893 0-3.434-1.568-3.434-3.496 0-.643-.56-1.165-1.248-1.165-.69 0-1.25.522-1.25 1.165 0 1.928-1.54 3.496-3.433 3.496-1.848 0-3.361-1.496-3.431-3.36l2.222-8.293h30.516l2.222 8.292c-.072 1.865-1.586 3.361-3.434 3.361z"/>
</svg>
