<svg xmlns="http://www.w3.org/2000/svg" width="25" height="25" viewBox="0 0 25 25">
    <g fill="#696B84" fill-rule="nonzero">
        <path d="M16.664 15.856c-.59 0-1.072-.417-1.072-.928 0-.512.481-.928 1.072-.928.592 0 1.073.416 1.073.928a.487.487 0 0 0 .974 0c0-.893-.665-1.644-1.56-1.848v-.253a.487.487 0 0 0-.974 0v.253c-.894.204-1.56.955-1.56 1.848 0 1.049.919 1.902 2.047 1.902.592 0 1.073.417 1.073.928 0 .512-.481.928-1.073.928-.59 0-1.072-.416-1.072-.928a.487.487 0 0 0-.974 0c0 .893.665 1.644 1.56 1.848v.21a.487.487 0 0 0 .974 0v-.21c.894-.204 1.56-.955 1.56-1.848 0-1.049-.919-1.902-2.048-1.902zM22.002 12.957a6.35 6.35 0 0 0-2.594-2.295.487.487 0 1 0-.422.878 5.393 5.393 0 0 1 3.041 4.834 5.37 5.37 0 0 1-.625 2.514.487.487 0 1 0 .86.458 6.348 6.348 0 0 0-.26-6.39zM17.43 10.04l-.032-.001a.487.487 0 0 0 0 .975h.03a.487.487 0 0 0 .002-.975zM14.347 21.209a5.393 5.393 0 0 1-3.04-4.835c0-.876.215-1.746.624-2.514a.487.487 0 1 0-.86-.458 6.348 6.348 0 0 0 .26 6.39 6.35 6.35 0 0 0 2.594 2.295.485.485 0 0 0 .65-.228.487.487 0 0 0-.228-.65zM15.936 21.735h-.028a.487.487 0 1 0-.005.975h.033a.487.487 0 0 0 0-.975z"/>
        <path d="M18.88 8.39a2.237 2.237 0 0 0-.217-.398h1.269a2.244 2.244 0 0 0 2.241-2.242 2.244 2.244 0 0 0-2.241-2.241h-3.903c.248-.36.394-.797.394-1.267A2.244 2.244 0 0 0 14.181 0H2.241A2.244 2.244 0 0 0 0 2.242a2.244 2.244 0 0 0 2.242 2.241h3.902a2.229 2.229 0 0 0 0 2.535h-1.27a2.244 2.244 0 0 0-2.242 2.241c0 .71.332 1.344.848 1.755a2.238 2.238 0 0 0 0 3.508 2.238 2.238 0 0 0 0 3.51 2.238 2.238 0 0 0-.848 1.754 2.244 2.244 0 0 0 2.241 2.241h5.743a8.263 8.263 0 0 0 6.05 2.632c4.569 0 8.285-3.717 8.285-8.285 0-3.802-2.574-7.013-6.071-7.984zm1.052-3.907c.698 0 1.267.569 1.267 1.267 0 .7-.569 1.268-1.267 1.268H7.992A1.268 1.268 0 0 1 6.725 5.75c0-.698.569-1.267 1.267-1.267h11.94zM2.242 3.51A1.268 1.268 0 0 1 .975 2.242c0-.699.568-1.267 1.267-1.267h11.94c.698 0 1.266.568 1.266 1.267 0 .698-.568 1.267-1.267 1.267H2.241zm2.631 4.483h11.94c.196 0 .384.046.553.127a8.259 8.259 0 0 0-6.562 2.407h-5.93A1.269 1.269 0 0 1 3.605 9.26c0-.698.569-1.267 1.267-1.267zm0 3.509h5.098a8.261 8.261 0 0 0-1.252 2.534H4.873a1.268 1.268 0 0 1-1.267-1.267c0-.699.569-1.267 1.267-1.267zm0 3.509h3.622a8.304 8.304 0 0 0-.03 2.534H4.873a1.268 1.268 0 0 1-1.267-1.267c0-.699.569-1.267 1.267-1.267zm0 6.043a1.268 1.268 0 0 1-1.267-1.267c0-.7.569-1.267 1.267-1.267h3.791a8.252 8.252 0 0 0 1.17 2.534h-4.96zm11.794 2.631c-4.031 0-7.31-3.279-7.31-7.31 0-4.03 3.279-7.31 7.31-7.31 4.03 0 7.31 3.28 7.31 7.31 0 4.031-3.28 7.31-7.31 7.31z"/>
    </g>
</svg>
