<svg xmlns="http://www.w3.org/2000/svg" width="25" height="25" viewBox="0 0 25 25">
    <g fill="#696B84" fill-rule="nonzero">
        <path d="M12.5 0C5.607 0 0 5.607 0 12.5S5.607 25 12.5 25 25 19.393 25 12.5 19.393 0 12.5 0zm0 22.917c-5.744 0-10.417-4.673-10.417-10.417S6.756 2.083 12.5 2.083 22.917 6.756 22.917 12.5 18.244 22.917 12.5 22.917z"/>
        <path d="M12.24 16.844A1.26 1.26 0 0 0 11 18.147a1.24 1.24 0 0 0 1.281 1.197h-.041a1.26 1.26 0 0 0 1.24-1.26 1.27 1.27 0 0 0-1.24-1.24zM12.48 5.698a5.207 5.207 0 0 0-3.907 1.594.815.815 0 0 0-.177.52.864.864 0 0 0 .833.855.878.878 0 0 0 .583-.22 3.409 3.409 0 0 1 2.47-1.04c1.405 0 2.083.76 2.083 1.655 0 1.917-3.407 2.157-3.407 4.646 0 .604.375 1.72 1.157 1.72h.02c.42 0 .76-.342.76-.761 0-.282-.197-.521-.197-.802 0-1.875 3.667-2.136 3.75-5.042 0-1.77-1.5-3.125-3.969-3.125z"/>
    </g>
</svg>
