<svg xmlns="http://www.w3.org/2000/svg" width="15" height="19" viewBox="0 0 15 19">
    <path fill="#AFB0BF" fill-rule="nonzero" d="M1.587 5.513v1.916H1.46c-.8 0-1.45.652-1.45 1.455v8.014c0 .802.65 1.454 1.45 1.454h11.147c.8 0 1.45-.652 1.45-1.454V8.88c0-.803-.65-1.455-1.45-1.455h-.037V5.509C12.57 2.47 10.106 0 7.079 0 4.05.004 1.587 2.475 1.587 5.513zm6.306 7.732c-.112.083-.142.161-.142.293.004.588.004 1.173.004 1.762a.628.628 0 0 1-.329.592.685.685 0 0 1-1.024-.592v-.004c0-.588 0-1.177.004-1.766 0-.12-.026-.199-.131-.277a1.345 1.345 0 0 1-.441-1.654c.258-.574.89-.912 1.484-.792.661.136 1.121.668 1.129 1.332 0 .461-.184.836-.554 1.106zM3.991 5.513a3.096 3.096 0 0 1 3.088-3.098 3.096 3.096 0 0 1 3.087 3.098v1.916H3.991V5.512z"/>
</svg>
