<svg xmlns="http://www.w3.org/2000/svg" width="18" height="17" viewBox="0 0 18 17">
    <g fill="none" fill-rule="evenodd">
        <path fill="#AFB0BF" fill-rule="nonzero" d="M11.138 16.777a.762.762 0 0 0 1.077 0l2.063-2.063h.446c1.183 0 2.286-1.103 2.286-2.285V7.857c0-1.183-1.103-2.286-2.286-2.286v1.524c.341 0 .762.421.762.762v4.572c0 .34-.42.761-.762.761h-.762a.762.762 0 0 0-.538.224l-1.747 1.747-1.747-1.747a.762.762 0 0 0-.539-.224h-3.81c-.34 0-.761-.42-.761-.761l-1.524-1.143v1.143c0 1.182 1.103 2.285 2.285 2.285h3.642l1.915 2.063z"/>
        <path stroke="#AFB0BF" stroke-linejoin="round" stroke-width="2" d="M2.98 8.619l2.063 2.063.538.538.54-.538 2.062-2.063h3.5c.835 0 1.517-.683 1.517-1.521V2.522C13.2 1.684 12.513 1 11.671 1H2.54c-.843 0-1.529.68-1.529 1.522v4.576c0 .836.684 1.521 1.524 1.521h.446z"/>
    </g>
</svg>
