<svg xmlns="http://www.w3.org/2000/svg" width="31" height="31" viewBox="0 0 31 31">
    <g fill="none" fill-rule="nonzero">
        <path fill="#3C3360" stroke="#38315D" d="M22.157 23.129a.411.411 0 0 1-.537.226l-1.381-.575a.549.549 0 0 0-.672.202 8.454 8.454 0 0 1-2.353 2.352.549.549 0 0 0-.201.672l.568 1.381a.411.411 0 0 1-.226.538l-1.503.63a.411.411 0 0 1-.538-.227l-.574-1.38a.549.549 0 0 0-.617-.33c-1.1.22-2.218.22-3.324 0a.552.552 0 0 0-.617.33l-.575 1.38a.416.416 0 0 1-.537.226l-1.503-.623a.41.41 0 0 1-.226-.226.41.41 0 0 1 0-.318l.574-1.38a.549.549 0 0 0-.202-.673 8.454 8.454 0 0 1-2.352-2.352.549.549 0 0 0-.672-.202l-1.381.575a.41.41 0 0 1-.538-.226l-.623-1.503a.411.411 0 0 1 .226-.538l1.381-.574a.549.549 0 0 0 .33-.618 8.454 8.454 0 0 1 0-3.323.552.552 0 0 0-.33-.618l-1.38-.574a.41.41 0 0 1-.227-.226.41.41 0 0 1 0-.318l.623-1.503a.41.41 0 0 1 .226-.226.41.41 0 0 1 .318 0l1.381.575a.549.549 0 0 0 .672-.202 8.454 8.454 0 0 1 2.352-2.352.549.549 0 0 0 .202-.673l-.574-1.38a.41.41 0 0 1 0-.318.41.41 0 0 1 .226-.226l1.503-.623a.411.411 0 0 1 .538.226l.574 1.38a.553.553 0 0 0 1.02-.421l-.574-1.38a1.524 1.524 0 0 0-1.986-.826l-1.503.623a1.516 1.516 0 0 0-.825.825 1.543 1.543 0 0 0 0 1.167l.404.972A9.616 9.616 0 0 0 4.7 12.497l-.971-.403a1.543 1.543 0 0 0-1.167 0 1.516 1.516 0 0 0-.825.825l-.623 1.503a1.543 1.543 0 0 0 0 1.167c.152.373.446.666.824.825l.972.403a9.348 9.348 0 0 0 0 2.86l-.972.403a1.524 1.524 0 0 0-.824 1.985l.623 1.485a1.522 1.522 0 0 0 1.986.825l.971-.403a9.616 9.616 0 0 0 2.022 2.022l-.403.972a1.543 1.543 0 0 0 0 1.167c.153.372.446.666.825.825l1.503.623a1.522 1.522 0 0 0 1.986-.825l.403-.972a9.348 9.348 0 0 0 2.86 0l.403.972c.244.586.812.94 1.405.94.196 0 .391-.036.58-.115l1.504-.623a1.524 1.524 0 0 0 .824-1.986L18.204 26a9.616 9.616 0 0 0 2.023-2.022l.971.403a1.517 1.517 0 0 0 1.986-.825l.623-1.503a1.543 1.543 0 0 0 0-1.167 1.516 1.516 0 0 0-.825-.825l-1.38-.574a.553.553 0 0 0-.422 1.02l1.38.575a.41.41 0 0 1 .227.226.41.41 0 0 1 0 .318l-.63 1.503z"/>
        <path fill="#3B345F" stroke="#3D3362" d="M12.43 14.452a.553.553 0 1 0-.006-1.105h-.006A4.867 4.867 0 0 0 8.972 14.8a4.843 4.843 0 0 0-1.405 3.464 4.867 4.867 0 0 0 1.454 3.446 4.845 4.845 0 0 0 3.428 1.405h.036a4.867 4.867 0 0 0 3.446-1.454 4.843 4.843 0 0 0 1.406-3.464c0-.306-.251-.55-.556-.55h-.007c-.305 0-.55.25-.55.556a3.77 3.77 0 0 1-1.087 2.682 3.741 3.741 0 0 1-2.664 1.124h-.03a3.75 3.75 0 0 1-2.652-1.087 3.741 3.741 0 0 1-1.125-2.664 3.77 3.77 0 0 1 1.088-2.682 3.816 3.816 0 0 1 2.676-1.125z"/>
        <path fill="#3B345F" d="M29.69 10.689a1.26 1.26 0 0 0 1.26-1.259V8.25a1.26 1.26 0 0 0-1.26-1.258h-.64a7.128 7.128 0 0 0-.722-1.741l.459-.458a1.261 1.261 0 0 0 0-1.778l-.837-.838a1.248 1.248 0 0 0-.886-.366c-.336 0-.654.128-.886.366l-.459.459a6.99 6.99 0 0 0-1.74-.721v-.648a1.26 1.26 0 0 0-1.26-1.259h-1.185a1.26 1.26 0 0 0-1.259 1.26v.647a7.128 7.128 0 0 0-1.74.72l-.46-.458a1.248 1.248 0 0 0-.885-.366c-.336 0-.654.128-.886.366l-.837.838a1.261 1.261 0 0 0 0 1.778l.458.458a6.99 6.99 0 0 0-.72 1.741h-.648a1.26 1.26 0 0 0-1.26 1.259v1.185c0 .69.563 1.259 1.26 1.259h.647c.165.61.403 1.197.721 1.741l-.458.458a1.261 1.261 0 0 0 0 1.778l.837.837c.238.239.556.367.886.367.336 0 .654-.128.886-.367l.458-.458a6.99 6.99 0 0 0 1.741.721v.648c0 .69.563 1.258 1.26 1.258h1.184a1.26 1.26 0 0 0 1.26-1.258v-.654a7.128 7.128 0 0 0 1.74-.72l.459.457c.238.239.556.367.886.367.336 0 .653-.128.886-.367l.837-.837a1.261 1.261 0 0 0 0-1.778l-.459-.458a6.99 6.99 0 0 0 .721-1.741h.642zm-1.624-.66a5.952 5.952 0 0 1-.905 2.181.554.554 0 0 0 .068.697l.77.77a.148.148 0 0 1 0 .213l-.838.837a.146.146 0 0 1-.103.043.137.137 0 0 1-.104-.043l-.77-.77a.548.548 0 0 0-.697-.067c-.666.446-1.399.746-2.181.905a.556.556 0 0 0-.446.543v1.088c0 .08-.067.147-.147.147h-1.185a.149.149 0 0 1-.147-.147v-1.088a.561.561 0 0 0-.446-.543 5.952 5.952 0 0 1-2.18-.905.558.558 0 0 0-.306-.091.541.541 0 0 0-.391.165l-.77.77a.146.146 0 0 1-.104.042.137.137 0 0 1-.104-.043l-.837-.837a.148.148 0 0 1 0-.213l.77-.77a.548.548 0 0 0 .067-.697 6.059 6.059 0 0 1-.904-2.181.556.556 0 0 0-.544-.446h-1.088a.149.149 0 0 1-.146-.147V8.251c0-.08.067-.147.146-.147h1.088c.263 0 .489-.19.544-.446a5.952 5.952 0 0 1 .904-2.181.554.554 0 0 0-.067-.697l-.77-.77a.146.146 0 0 1-.043-.103c0-.031.006-.068.043-.104l.83-.843a.146.146 0 0 1 .105-.043c.03 0 .067.006.104.043l.77.77c.189.189.482.213.696.067a6.059 6.059 0 0 1 2.181-.905.556.556 0 0 0 .446-.543V1.267c0-.08.067-.147.147-.147h1.185c.08 0 .147.068.147.147v1.088c0 .262.19.488.446.543a5.952 5.952 0 0 1 2.181.905c.22.146.513.116.697-.067l.77-.77a.146.146 0 0 1 .103-.043c.031 0 .068.006.104.043l.837.837a.148.148 0 0 1 0 .214l-.77.77a.548.548 0 0 0-.067.696c.446.666.746 1.4.905 2.181a.556.556 0 0 0 .543.446h1.088c.08 0 .147.067.147.147v1.185c0 .08-.068.147-.147.147h-1.088a.533.533 0 0 0-.537.44z"/>
        <path fill="#3B345F" d="M22.12 5.287a3.553 3.553 0 0 0-3.55 3.55 3.553 3.553 0 0 0 3.55 3.55 3.553 3.553 0 0 0 3.55-3.55 3.557 3.557 0 0 0-3.55-3.55zm0 5.994a2.443 2.443 0 1 1 0-4.886 2.443 2.443 0 0 1 0 4.886z"/>
    </g>
</svg>
