<svg xmlns="http://www.w3.org/2000/svg" width="17" height="13" viewBox="0 0 17 13">
    <g fill="#AFB0BF" fill-rule="nonzero">
        <path d="M1.548 4.024c.204.147.817.584 1.84 1.312 1.023.727 1.806 1.288 2.35 1.68.06.044.188.137.382.282.194.144.356.26.485.35.128.089.284.188.466.299.183.11.355.193.516.248.162.056.311.083.449.083h.018c.138 0 .287-.027.449-.083.161-.055.333-.138.516-.248.182-.11.338-.21.466-.3.129-.088.29-.205.485-.35.194-.144.321-.237.381-.28l4.2-2.994c.436-.313.801-.69 1.094-1.132.293-.442.44-.906.44-1.39a1.43 1.43 0 0 0-.426-1.042 1.37 1.37 0 0 0-1.01-.433H1.441c-.46 0-.815.16-1.064.48C.13.824.005 1.223.005 1.702c0 .386.165.806.494 1.257.328.451.679.806 1.05 1.064z"/>
        <path d="M15.187 5.009a186.452 186.452 0 0 0-4.468 3.177c-.341.258-.618.46-.83.604a5.074 5.074 0 0 1-.848.442c-.353.15-.682.225-.987.225h-.018c-.305 0-.634-.075-.987-.225A5.077 5.077 0 0 1 6.2 8.79a21.26 21.26 0 0 1-.83-.604C4.563 7.58 3.077 6.52.911 5.01a4.79 4.79 0 0 1-.906-.801v7.312c0 .406.14.752.422 1.04.28.29.619.434 1.014.434h13.208c.395 0 .733-.144 1.014-.433.281-.289.422-.635.422-1.04V4.207a4.989 4.989 0 0 1-.898.8z"/>
    </g>
</svg>
