<svg xmlns="http://www.w3.org/2000/svg" width="26" height="26" viewBox="0 0 26 26">
    <g fill="#F9F8F8" fill-rule="nonzero">
        <path stroke="#FFF" d="M18.631 19.274a.343.343 0 0 1-.448.188l-1.15-.478a.457.457 0 0 0-.56.168 7.045 7.045 0 0 1-1.961 1.96.457.457 0 0 0-.168.56l.473 1.15a.343.343 0 0 1-.188.449l-1.252.524a.343.343 0 0 1-.449-.188l-.478-1.15a.457.457 0 0 0-.514-.276 7.045 7.045 0 0 1-2.77 0 .46.46 0 0 0-.515.275l-.478 1.15a.347.347 0 0 1-.448.19l-1.253-.52a.342.342 0 0 1-.188-.189.341.341 0 0 1 0-.264l.478-1.151a.457.457 0 0 0-.168-.56 7.045 7.045 0 0 1-1.96-1.96.457.457 0 0 0-.56-.168l-1.15.478a.341.341 0 0 1-.449-.188l-.519-1.253a.343.343 0 0 1 .188-.448l1.151-.478c.204-.087.32-.3.275-.515a7.045 7.045 0 0 1 0-2.77.46.46 0 0 0-.275-.514l-1.15-.478a.342.342 0 0 1-.189-.189.341.341 0 0 1 0-.265l.52-1.252a.342.342 0 0 1 .188-.188.341.341 0 0 1 .264 0l1.151.478a.457.457 0 0 0 .56-.168 7.045 7.045 0 0 1 1.96-1.96.457.457 0 0 0 .169-.56l-.479-1.151a.341.341 0 0 1 0-.265.342.342 0 0 1 .188-.188l1.253-.52a.343.343 0 0 1 .448.189l.479 1.15a.46.46 0 0 0 .85-.35l-.479-1.151a1.27 1.27 0 0 0-1.655-.688l-1.252.52c-.31.127-.555.371-.687.687-.128.31-.128.657 0 .972l.336.81a8.013 8.013 0 0 0-1.686 1.685l-.81-.336a1.286 1.286 0 0 0-.972 0c-.31.128-.555.372-.687.688l-.52 1.252c-.127.31-.127.657 0 .973.128.31.372.555.688.687l.81.336a7.79 7.79 0 0 0 0 2.383l-.81.336a1.27 1.27 0 0 0-.688 1.655l.52 1.237a1.268 1.268 0 0 0 1.655.688l.81-.337a8.013 8.013 0 0 0 1.685 1.686l-.337.81c-.127.31-.127.656 0 .972.128.31.372.555.688.687l1.252.52c.647.264 1.39-.041 1.655-.688l.336-.81a7.79 7.79 0 0 0 2.383 0l.336.81c.204.489.677.784 1.171.784.163 0 .326-.03.484-.096l1.252-.52a1.27 1.27 0 0 0 .688-1.655l-.336-.81a8.013 8.013 0 0 0 1.685-1.684l.81.336c.646.27 1.39-.041 1.655-.688l.519-1.252c.127-.31.127-.657 0-.973a1.264 1.264 0 0 0-.688-.687l-1.15-.479a.46.46 0 0 0-.352.85l1.151.48a.342.342 0 0 1 .189.188.341.341 0 0 1 0 .264l-.525 1.253z"/>
        <path stroke="#FFF" d="M10.525 12.044a.46.46 0 1 0-.005-.922h-.005a4.056 4.056 0 0 0-2.872 1.212 4.036 4.036 0 0 0-1.17 2.887 4.056 4.056 0 0 0 1.211 2.872 4.038 4.038 0 0 0 2.856 1.17h.031a4.056 4.056 0 0 0 2.872-1.211 4.036 4.036 0 0 0 1.17-2.887.46.46 0 0 0-.463-.458h-.005a.46.46 0 0 0-.458.463 3.141 3.141 0 0 1-.906 2.235c-.59.601-1.38.932-2.22.937h-.026c-.83 0-1.619-.32-2.21-.906-.6-.59-.931-1.38-.936-2.22a3.141 3.141 0 0 1 .906-2.235 3.18 3.18 0 0 1 2.23-.937z"/>
        <path d="M24.91 8.907a1.05 1.05 0 0 0 1.048-1.049v-.982a1.05 1.05 0 0 0-1.049-1.05h-.535a5.94 5.94 0 0 0-.6-1.45l.382-.382a1.051 1.051 0 0 0 0-1.482l-.698-.697a1.04 1.04 0 0 0-.738-.306c-.28 0-.545.107-.739.306l-.381.381a5.826 5.826 0 0 0-1.452-.6v-.54A1.05 1.05 0 0 0 19.1.007h-.988a1.05 1.05 0 0 0-1.05 1.049v.54a5.94 5.94 0 0 0-1.45.6l-.382-.381a1.04 1.04 0 0 0-.738-.306c-.28 0-.545.107-.739.306l-.697.697a1.051 1.051 0 0 0 0 1.482l.382.382a5.826 5.826 0 0 0-.601 1.45h-.54a1.05 1.05 0 0 0-1.049 1.05v.987a1.05 1.05 0 0 0 1.05 1.05h.539c.137.508.336.997.6 1.45l-.381.382a1.051 1.051 0 0 0 0 1.482l.697.698c.199.198.464.305.739.305.28 0 .544-.107.738-.305l.382-.382c.458.264.942.468 1.45.6v.54a1.05 1.05 0 0 0 1.05 1.05h.988a1.05 1.05 0 0 0 1.048-1.05v-.545a5.94 5.94 0 0 0 1.452-.6l.381.381c.199.199.464.306.739.306.28 0 .545-.107.738-.306l.698-.697a1.051 1.051 0 0 0 0-1.482l-.382-.382c.264-.458.468-.942.6-1.45h.535zm-1.355-.55a4.96 4.96 0 0 1-.754 1.818.462.462 0 0 0 .056.58l.642.642c.05.051.05.127 0 .178l-.698.698a.121.121 0 0 1-.086.035.114.114 0 0 1-.087-.035l-.641-.642a.456.456 0 0 0-.58-.056 5.049 5.049 0 0 1-1.819.754.464.464 0 0 0-.371.453v.906a.124.124 0 0 1-.123.122h-.987a.124.124 0 0 1-.123-.122v-.906a.468.468 0 0 0-.371-.453 4.96 4.96 0 0 1-1.818-.754.465.465 0 0 0-.255-.076.45.45 0 0 0-.325.137l-.642.642a.121.121 0 0 1-.086.036.114.114 0 0 1-.087-.036l-.698-.698a.123.123 0 0 1 0-.178l.642-.641a.456.456 0 0 0 .056-.58 5.049 5.049 0 0 1-.754-1.819.464.464 0 0 0-.453-.371h-.906a.124.124 0 0 1-.122-.122v-.993c0-.067.056-.123.122-.123h.906a.468.468 0 0 0 .453-.371 4.96 4.96 0 0 1 .754-1.818.462.462 0 0 0-.056-.58l-.642-.642a.121.121 0 0 1-.035-.087c0-.025.005-.056.035-.086l.693-.703a.121.121 0 0 1 .086-.035c.026 0 .056.005.087.035l.642.642a.456.456 0 0 0 .58.056 5.049 5.049 0 0 1 1.818-.754.464.464 0 0 0 .371-.453v-.901c0-.066.056-.122.123-.122h.987c.067 0 .123.056.123.122v.906c0 .22.157.408.371.453a4.96 4.96 0 0 1 1.818.754.462.462 0 0 0 .58-.056l.642-.642a.121.121 0 0 1 .087-.035c.025 0 .056.005.086.035l.698.698c.05.05.05.127 0 .178l-.642.642a.456.456 0 0 0-.056.58c.372.555.621 1.166.754 1.818.04.214.234.372.453.372h.906c.066 0 .122.056.122.122v.988a.124.124 0 0 1-.122.122h-.906a.444.444 0 0 0-.448.366z"/>
        <path d="M18.6 4.406a2.96 2.96 0 0 0-2.958 2.958 2.96 2.96 0 0 0 2.959 2.959 2.96 2.96 0 0 0 2.958-2.959A2.964 2.964 0 0 0 18.6 4.406zm0 4.995a2.036 2.036 0 1 1 0-4.072 2.036 2.036 0 0 1 0 4.072z"/>
    </g>
</svg>
