<svg xmlns="http://www.w3.org/2000/svg" width="83" height="83" viewBox="0 0 83 83">
    <g fill="none" fill-rule="evenodd">
        <circle cx="41.5" cy="41.5" r="41.5" fill="#DAEAF4"/>
        <path fill="#262A49" fill-rule="nonzero" d="M66.32 29.697a.798.798 0 0 0-.907.67l-2.292 15.279h-5.533l-.116-2.66h.23a.798.798 0 0 0 .798-.833l-.277-6.382a.798.798 0 0 0-.798-.764h-6.648v-2.796a2.398 2.398 0 0 0 1.595-2.257v-2.66a.798.798 0 0 0-.798-.797h-3.191a.798.798 0 0 0-.798.798v2.66c0 1.04.667 1.926 1.596 2.256v2.796h-4.256v-7.712a2.93 2.93 0 0 0-2.127-2.814v-4.633a.798.798 0 1 0-1.596 0v4.633a2.93 2.93 0 0 0-2.127 2.814v7.712h-4.256v-2.796a2.398 2.398 0 0 0 1.596-2.257v-2.66a.798.798 0 0 0-.798-.797h-3.191a.798.798 0 0 0-.798.798v2.66c0 1.04.667 1.926 1.595 2.256v2.796h-6.648a.798.798 0 0 0-.798.764l-.277 6.382a.798.798 0 0 0 .797.833h.23l-.115 2.66h-5.533l-2.292-15.278a.797.797 0 1 0-1.578.236l2.385 15.899v16.962a.798.798 0 1 0 1.595 0V50.433h5.215l-.427 9.805a.798.798 0 0 0 .798.833c.985 0 1.753-.133 2.393-.328v2.722a.798.798 0 1 0 1.596 0v-3.419l.252-.138c.78-.43 1.473-.81 2.674-.927v4.484a.798.798 0 1 0 1.595 0V58.98c1.2.116 1.894.497 2.673.927.989.545 2.109 1.163 4.242 1.163 2.134 0 3.254-.618 4.242-1.163.78-.43 1.473-.81 2.673-.927v4.484a.798.798 0 1 0 1.595 0V58.98c1.2.116 1.894.497 2.674.927l.252.138v3.419a.798.798 0 1 0 1.596 0v-2.722c.64.195 1.407.328 2.393.328a.798.798 0 0 0 .798-.833l-.427-9.805h5.215v13.032a.798.798 0 1 0 1.595 0V46.503l2.385-15.899a.798.798 0 0 0-.67-.907zm-40.047 19.14H20.99v-1.596h5.353l-.069 1.596zm22.908-20.745h1.595v1.862a.799.799 0 0 1-1.595 0v-1.862zm-8.51-.797c0-.734.596-1.33 1.329-1.33s1.33.596 1.33 1.33v7.712h-2.66v-7.712zm-7.448.797h1.596v1.862a.799.799 0 0 1-1.596 0v-1.862zm20.222 14.894h2.43l.716 16.45c-1.18-.121-1.864-.5-2.636-.925-.988-.545-2.108-1.163-4.242-1.163s-3.254.618-4.242 1.163c-.938.517-1.748.964-3.47.964-1.723 0-2.534-.447-3.472-.964-.988-.545-2.108-1.163-4.242-1.163-2.133 0-3.253.618-4.242 1.163-.222.122-.437.24-.659.35a5.463 5.463 0 0 1-1.977.574l.716-16.449h22.128a.798.798 0 1 0 0-1.596H27.13l.209-4.787h29.323l.208 4.787h-3.425a.798.798 0 1 0 0 1.596zm9.566 5.851h-5.284l-.07-1.596h5.354v1.596z"/>
    </g>
</svg>
