<svg xmlns="http://www.w3.org/2000/svg" width="23" height="19" viewBox="0 0 23 19">
    <g fill="none" fill-rule="evenodd">
        <path stroke="#696B84" stroke-linecap="round" stroke-linejoin="round" stroke-width="2" d="M6.569 17.83s0-3.754 3.754-3.754h7.507c3.76 0 3.76 3.754 3.76 3.754"/>
        <path fill="#696B84" fill-rule="nonzero" d="M7.765 9.335a4.693 4.693 0 1 1 3.986-7.973 6.56 6.56 0 0 0-1.743.988 2.815 2.815 0 1 0-2.499 4.998 6.572 6.572 0 0 0 .256 1.987zm.375.988H4.692c-2.01 0-3.384.915-4.124 2.395A5.261 5.261 0 0 0 0 15.015a.938.938 0 0 0 1.877 0c0-.069.01-.223.046-.433a3.64 3.64 0 0 1 .324-1.024c.433-.866 1.172-1.359 2.445-1.359H9.48a6.586 6.586 0 0 1-1.34-1.876z"/>
        <circle cx="14.076" cy="7.507" r="3.754" stroke="#696B84" stroke-width="2"/>
    </g>
</svg>
