<svg xmlns="http://www.w3.org/2000/svg" width="83" height="83" viewBox="0 0 83 83">
    <g fill="none" fill-rule="evenodd">
        <circle cx="41.5" cy="41.5" r="41.5" fill="#DAEAF4"/>
        <g fill="#262A49" fill-rule="nonzero">
            <path d="M34.138 55.608a.731.731 0 0 0-.73.73v3.126a.731.731 0 0 0 1.461 0v-3.125a.731.731 0 0 0-.73-.731zM49.764 55.608a.731.731 0 0 0-.73.73v3.126a.731.731 0 0 0 1.461 0v-3.125a.731.731 0 0 0-.73-.731zM28.215 40.059c-1.698-.849-4.88-.859-5.015-.859a.73.73 0 0 0 0 1.462c.822 0 3.209.128 4.36.704a.731.731 0 0 0 .654-1.308zM20.856 54.045a.731.731 0 0 0-.73.731v4.688a.731.731 0 0 0 1.461 0v-4.688a.731.731 0 0 0-.73-.731z"/>
            <path d="M65.203 51.315l-2.96-1.48a.05.05 0 0 1-.028-.045v-1.488a5.398 5.398 0 0 0 2.29-3.712 6.18 6.18 0 0 0-1.643-8.05c.089-.294.134-.597.134-.906 0-1.91-1.73-3.465-3.856-3.465s-3.856 1.554-3.856 3.465c0 .31.045.612.133.906a6.232 6.232 0 0 0-2.029 2.644c-.181-1.781-.37-3.886-.55-6.338-.24-3.235-1.403-5.968-3.365-7.901-1.948-1.919-4.549-2.933-7.522-2.933s-5.574 1.014-7.52 2.933c-1.963 1.933-3.127 4.666-3.366 7.9a259.23 259.23 0 0 1-.192 2.449h-6.892a4.643 4.643 0 0 0-4.637 4.637v.044c0 .595.14 1.192.407 1.725l.374.748v1.193c0 1.892.932 3.589 2.344 4.61v1.056c0 .135-.09.256-.221.293l-3.018.862A3.088 3.088 0 0 0 17 53.42v6.045a.731.731 0 0 0 1.462 0v-6.045a1.62 1.62 0 0 1 1.17-1.551l3.018-.862c.109-.031.212-.074.31-.124l1.853 1.853v6.729a.731.731 0 0 0 1.462 0v-6.73l1.865-1.865c.25.123.498.194.68.246l.741.212a3.857 3.857 0 0 0-1.623 3.141v4.996a.731.731 0 0 0 1.462 0v-4.996c0-.947.56-1.807 1.427-2.19l4.18-1.846a7.753 7.753 0 0 0 6.944 4.294 7.736 7.736 0 0 0 6.946-4.293l4.179 1.845a2.395 2.395 0 0 1 1.427 2.19v4.996a.731.731 0 0 0 1.462 0v-4.996c0-.935-.34-1.816-.924-2.5l1.132-.566.849.807a3.066 3.066 0 0 0 2.118.846c.762 0 1.524-.282 2.118-.846l.85-.807 2.441 1.22c.55.276.892.828.892 1.443v5.399a.731.731 0 0 0 1.462 0v-5.399a3.059 3.059 0 0 0-1.7-2.75zM59.14 33.631c1.32 0 2.394.898 2.394 2.003 0 .047-.004.092-.007.138a6.165 6.165 0 0 0-2.387-.478c-.845 0-1.652.17-2.386.478-.004-.046-.008-.091-.008-.138 0-1.105 1.074-2.003 2.394-2.003zM25.544 51.398l-1.666-1.665a1.75 1.75 0 0 0 .053-.426v-.308a5.121 5.121 0 0 0 1.615.258c.554 0 1.096-.084 1.61-.244v.294c0 .158.017.302.046.434l-1.658 1.657zm-.122-3.605c-2.115-.064-3.835-1.926-3.835-4.152v-1.366a.73.73 0 0 0-.077-.327l-.451-.902a2.407 2.407 0 0 1-.253-1.071v-.044a3.18 3.18 0 0 1 3.175-3.175h6.301v3.034c0 .49-.116.982-.335 1.42l-.369.738a.73.73 0 0 0-.077.327v1.563c0 1.08-.427 2.088-1.202 2.84a3.929 3.929 0 0 1-2.877 1.115zm6.11 2.576l-2.31-.66c-.603-.172-.603-.24-.603-.402V48.3a5.488 5.488 0 0 0 1.112-1.023c.117.239.297.447.53.597.586.38 1.692 1.01 3.318 1.59l-2.048.905zm10.42 2.895a6.294 6.294 0 0 1-5.607-3.423l1.064-.47a2.295 2.295 0 0 0 1.367-2.098V45.52a8.499 8.499 0 0 0 3.175.612 8.5 8.5 0 0 0 3.176-.612v1.754c0 .908.536 1.732 1.367 2.098l1.064.47a6.279 6.279 0 0 1-5.607 3.423zm6.338-4.698l-1.206-.532a.832.832 0 0 1-.495-.76V44.76a8.544 8.544 0 0 0 3.906-7.173v-1.37c0-.891-.378-1.731-1.039-2.306-1.469-1.277-4.793-3.506-10.557-4.083a.732.732 0 0 0-.146 1.455c5.362.536 8.406 2.568 9.744 3.732.34.296.536.734.536 1.202v1.37a7.09 7.09 0 0 1-7.082 7.082 7.09 7.09 0 0 1-7.082-7.082v-.611c0-.281.156-.538.417-.688.914-.527 2.12-1.502 2.671-3.157a.731.731 0 0 0-1.387-.462c-.407 1.22-1.32 1.952-2.014 2.352a2.272 2.272 0 0 0-1.149 1.955v.612a8.544 8.544 0 0 0 3.907 7.172v2.513c0 .33-.195.628-.496.76l-1.205.533c-2.355-.63-3.863-1.47-4.558-1.919-.013-.009-.021-.019-.017-.042.255-1.507.91-5.855 1.485-13.651.213-2.877 1.227-5.287 2.933-6.968 1.668-1.643 3.914-2.512 6.495-2.512s4.827.869 6.495 2.512c1.707 1.681 2.72 4.09 2.933 6.967.576 7.797 1.23 12.144 1.486 13.652.004.023-.004.033-.018.042-.695.45-2.204 1.29-4.557 1.92zm7.775 1.224a.05.05 0 0 1-.028.045l-2.29 1.145-.08-.04-3.343-1.475c1.625-.58 2.73-1.21 3.318-1.59.504-.327.765-.92.664-1.514a73.312 73.312 0 0 1-.017-.103 5.407 5.407 0 0 0 1.776 2.044v1.488zm4.186 1.36a1.612 1.612 0 0 1-2.222 0l-.68-.646c.115-.215.178-.459.178-.714v-.778a5.434 5.434 0 0 0 3.226 0v.778c0 .255.062.499.177.714l-.68.645zm-1.111-3.355a3.947 3.947 0 0 1-3.932-3.526.731.731 0 0 0-.104-.304 4.723 4.723 0 0 1-.702-2.471 4.743 4.743 0 0 1 4.738-4.738 4.744 4.744 0 0 1 4.738 4.738 4.69 4.69 0 0 1-.24 1.479c-2.076-2.11-5.727-2.935-5.903-2.974a.731.731 0 0 0-.889.714c0 .004-.033.511-.567 1.045a.73.73 0 1 0 1.034 1.034c.411-.411.652-.828.794-1.18 1.23.365 3.783 1.288 4.929 2.907a3.946 3.946 0 0 1-3.896 3.276z"/>
            <path d="M63.046 55.01a.731.731 0 0 0-.73.732v3.722a.731.731 0 0 0 1.461 0v-3.722a.731.731 0 0 0-.73-.731z"/>
        </g>
    </g>
</svg>
