<svg xmlns="http://www.w3.org/2000/svg" width="21" height="18" viewBox="0 0 21 18">
    <g fill="none" fill-rule="evenodd">
        <path stroke="#FFF" stroke-linecap="round" stroke-linejoin="round" stroke-width="2" d="M6 17s0-4 3.499-4h6.997C20 13 20 17 20 17"/>
        <path fill="#FFF" fill-rule="nonzero" d="M7.269 8.777a4.407 4.407 0 0 1-3.755-4.365C3.514 1.975 5.48 0 7.906 0c1.207 0 2.3.489 3.094 1.28a6.133 6.133 0 0 0-1.632.93 2.615 2.615 0 0 0-1.462-.445 2.641 2.641 0 0 0-2.635 2.647c0 1.153.734 2.134 1.758 2.497l-.001.15c0 .596.084 1.173.24 1.718zm.35.929H4.392c-1.882 0-3.167.86-3.86 2.252A4.965 4.965 0 0 0 0 14.118.88.88 0 0 0 .878 15a.88.88 0 0 0 .879-.882c0-.065.01-.21.043-.407.055-.332.154-.663.303-.963.406-.814 1.097-1.277 2.29-1.277h4.48A6.192 6.192 0 0 1 7.62 9.706z"/>
        <circle cx="13.5" cy="7.5" r="3.5" stroke="#FFF" stroke-width="2"/>
    </g>
</svg>
