<svg xmlns="http://www.w3.org/2000/svg" width="31" height="26" viewBox="0 0 31 26">
    <g fill="none" fill-rule="evenodd">
        <path stroke="#696B84" stroke-linecap="round" stroke-linejoin="round" stroke-width="2" d="M9.042 24.542s0-5.167 5.166-5.167h10.334c5.174 0 5.174 5.167 5.174 5.167"/>
        <path fill="#696B84" fill-rule="nonzero" d="M10.688 12.85A6.46 6.46 0 0 1 11.625 0c1.775 0 3.382.716 4.55 1.874-.873.33-1.68.792-2.4 1.36a3.875 3.875 0 1 0-3.44 6.88 9.046 9.046 0 0 0 .352 2.735zm.515 1.358H6.458c-2.767 0-4.657 1.26-5.676 3.298-.59 1.18-.782 2.332-.782 3.16a1.292 1.292 0 0 0 2.583 0c0-.094.016-.307.063-.594a5.01 5.01 0 0 1 .447-1.411c.596-1.191 1.612-1.87 3.365-1.87h6.59a9.065 9.065 0 0 1-1.845-2.583z"/>
        <circle cx="19.375" cy="10.333" r="5.167" stroke="#696B84" stroke-width="2"/>
    </g>
</svg>
