<?xml version="1.0" encoding="UTF-8"?>
<svg width="24px" height="20px" viewBox="0 0 24 20" version="1.1" xmlns="http://www.w3.org/2000/svg" xmlns:xlink="http://www.w3.org/1999/xlink">
    <!-- Generator: Sketch 50.2 (55047) - http://www.bohemiancoding.com/sketch -->
    <title>users</title>
    <desc>Created with Sketch.</desc>
    <defs></defs>
    <g id="Page-1" stroke="none" stroke-width="1" fill="none" fill-rule="evenodd">
        <g id="Guests-(Tables)" transform="translate(-345.000000, -313.000000)">
            <g id="toolbar" transform="translate(281.000000, 277.000000)">
                <g id="nav" transform="translate(64.000000, 34.000000)">
                    <g id="link" transform="translate(0.000000, 1.000000)">
                        <g id="text">
                            <g id="users" transform="translate(0.000000, 1.000000)">
                                <path d="M7,19 C7,19 7,15 11,15 C15,15 14.9937515,15 19,15 C23.0062485,15 23.0062485,19 23.0062485,19" id="Path-41" stroke="#696B84" stroke-width="2" stroke-linecap="round" stroke-linejoin="round"></path>
                                <path d="M8.27455269,9.9477557 C5.85692935,9.5963698 4,7.51503944 4,5 C4,2.23857625 6.23857625,0 9,0 C10.373942,0 11.6184509,0.55416948 12.5221996,1.45118158 C11.8469348,1.70680858 11.2215328,2.06387931 10.664592,2.50379553 C10.1883045,2.18555118 9.61582114,2 9,2 C7.34314575,2 6,3.34314575 6,5 C6,6.3069749 6.83577432,7.41874424 8.00202365,7.83000873 C8.00067709,7.88650926 8,7.94317556 8,8 C8,8.6759052 8.09579644,9.329436 8.27455269,9.9477557 Z M8.67363116,11 L5,11 C2.85717375,11 1.39436214,11.9752077 0.605572809,13.5527864 C0.148670182,14.4665917 -7.10542736e-14,15.3586127 -7.10542736e-14,16 C-7.10542736e-14,16.5522847 0.44771525,17 1,17 C1.55228475,17 2,16.5522847 2,16 C2,15.9269061 2.01176795,15.7621548 2.04889392,15.539399 C2.11167338,15.1627222 2.22417415,14.7877197 2.39442719,14.4472136 C2.85563786,13.5247923 3.64282625,13 5,13 L10.1010173,13 C9.51513298,12.4258795 9.02972955,11.7496048 8.67363116,11 Z" id="Combined-Shape" fill="#696B84" fill-rule="nonzero"></path>
                                <circle id="Oval-40" stroke="#696B84" stroke-width="2" cx="15" cy="8" r="4"></circle>
                            </g>
                        </g>
                    </g>
                </g>
            </g>
        </g>
    </g>
</svg>