<svg xmlns="http://www.w3.org/2000/svg" width="22" height="18" viewBox="0 0 22 18">
    <g fill="none" fill-rule="evenodd">
        <path stroke="#e57b93" stroke-linecap="round" stroke-linejoin="round" stroke-width="2" d="M6.125 16.227s0-3.416 3.5-3.416h7c3.505 0 3.505 3.416 3.505 3.416"/>
        <path fill="#e57b93" fill-rule="nonzero" d="M7.24 8.496C5.125 8.196 3.5 6.418 3.5 4.27 3.5 1.912 5.459 0 7.875 0c1.202 0 2.291.473 3.082 1.24a6.157 6.157 0 0 0-1.625.898 2.658 2.658 0 0 0-1.457-.43c-1.45 0-2.625 1.147-2.625 2.562 0 1.117.731 2.066 1.752 2.417a5.848 5.848 0 0 0 .238 1.809zm.35.899H4.374c-1.875 0-3.155.833-3.845 2.18-.4.78-.53 1.542-.53 2.09 0 .472.392.854.875.854a.865.865 0 0 0 .875-.854c0-.062.01-.203.043-.393.055-.322.153-.642.302-.933.404-.788 1.092-1.236 2.28-1.236h4.463A5.999 5.999 0 0 1 7.59 9.395z"/>
        <ellipse cx="13.125" cy="6.833" stroke="#e57b93" stroke-width="2" rx="3.5" ry="3.416"/>
    </g>
</svg>
