<svg xmlns="http://www.w3.org/2000/svg" width="26" height="23" viewBox="0 0 26 23">
    <g fill="none" fill-rule="evenodd">
        <path stroke="#3B345F" stroke-linecap="round" stroke-linejoin="round" stroke-width="2" d="M7.5 21.25s0-5 4.373-5h8.747c4.38 0 4.38 5 4.38 5"/>
        <path fill="#3B345F" fill-rule="nonzero" d="M9.086 10.972a5.508 5.508 0 0 1-4.694-5.457C4.392 2.469 6.85 0 9.882 0a5.46 5.46 0 0 1 3.868 1.6 7.666 7.666 0 0 0-2.04 1.162 3.269 3.269 0 0 0-1.828-.556 3.302 3.302 0 0 0-3.294 3.309 3.31 3.31 0 0 0 2.199 3.121 7.756 7.756 0 0 0 .3 2.336zm.438 1.16H5.49c-2.353 0-3.959 1.076-4.825 2.816C.163 15.956 0 16.94 0 17.648a1.1 1.1 0 0 0 1.098 1.102 1.1 1.1 0 0 0 1.098-1.103c0-.08.013-.262.054-.508.069-.415.192-.829.38-1.205.506-1.017 1.37-1.596 2.86-1.596h5.601a7.74 7.74 0 0 1-1.567-2.206z"/>
        <circle cx="16.875" cy="9.375" r="4.375" stroke="#3B345F" stroke-width="2"/>
    </g>
</svg>
