<svg xmlns="http://www.w3.org/2000/svg" xmlns:xlink="http://www.w3.org/1999/xlink" width="83" height="83" viewBox="0 0 83 83">
    <defs>
        <circle id="a" cx="41.5" cy="41.5" r="41.5"/>
    </defs>
    <g fill="none" fill-rule="evenodd">
        <mask id="b" fill="#fff">
            <use xlink:href="#a"/>
        </mask>
        <use fill="#DAEAF4" xlink:href="#a"/>
        <path fill="#665F8A" fill-rule="nonzero" d="M43.215 22.572a3.118 3.118 0 0 0-2.22-.92 3.12 3.12 0 0 0-1.557.411 3.123 3.123 0 0 0-1.556-.41c-.839 0-1.628.326-2.22.919a3.144 3.144 0 0 0 0 4.44l3.113 3.112a.94.94 0 0 0 1.328 0l3.111-3.112a3.144 3.144 0 0 0 0-4.44zm-1.329 3.112l-2.447 2.448-2.449-2.448a1.263 1.263 0 0 1 .892-2.154c.337 0 .654.132.893.37a.939.939 0 0 0 1.328 0 1.25 1.25 0 0 1 .891-.37 1.263 1.263 0 0 1 .892 2.154z" mask="url(#b)"/>
        <path fill="#665F8A" fill-rule="nonzero" d="M61.978 16H19.403a.94.94 0 0 0-.94.94v47.583c0 .519.42.94.94.94h42.575a.94.94 0 0 0 .939-.94V16.939c0-.519-.42-.939-.939-.939zm-.94 47.584H20.343v-8.14h40.697v8.14zM34.743 34.47c0 .519.42.939.94.939.669 0 1.24.423 1.463 1.015l-.282-.207c-.01-.008-.021-.014-.032-.021l-.034-.022a.923.923 0 0 0-.05-.029l-.028-.014a.906.906 0 0 0-.058-.026l-.025-.01a.845.845 0 0 0-.06-.02l-.027-.008a.925.925 0 0 0-.059-.013l-.032-.006a1.154 1.154 0 0 0-.186-.012 1.024 1.024 0 0 0-.234.04l-.027.007c-.484.16-1.936.577-2.834.577-.899 0-2.35-.416-2.834-.577l-.013-.004a1.147 1.147 0 0 0-.046-.012c-.015-.004-.03-.009-.046-.012l-.038-.006c-.018-.003-.036-.007-.054-.008l-.03-.003a.869.869 0 0 0-.061-.003l-.029.001c-.02 0-.041 0-.061.003-.013 0-.025.003-.037.004-.017.002-.035.004-.052.008-.015.002-.03.007-.046.01l-.042.01-.047.016-.039.013-.043.02c-.014.006-.028.012-.042.02l-.036.02-.045.027c-.004.002-.007.003-.01.006l-.398.264c.2-2.359 1.843-3.395 5.614-3.535v1.548zm-4.546 3.533c.674.197 1.976.536 2.98.536.993 0 2.276-.33 2.957-.529l1.114.817v1.903a4.074 4.074 0 0 1-4.07 4.07 4.074 4.074 0 0 1-4.07-4.07v-2l1.09-.727zm7.318 9.928h1.924c.863 0 1.565.703 1.565 1.566v4.07h-6.306l2.817-5.636zm-4.337 4.474L30.36 46.77v-.803a5.91 5.91 0 0 0 2.817.711 5.91 5.91 0 0 0 2.818-.71v.802l-2.818 5.635zm-1.52 1.161h-6.306v-4.07c0-.862.702-1.565 1.565-1.565h1.924l2.818 5.635zm14.042-3.13h7.513a.94.94 0 0 0 .94-.94v-1.565h.312c.863 0 1.566.703 1.566 1.566v4.07H42.882v-4.07c0-.863.702-1.566 1.565-1.566h.313v1.565c0 .52.42.94.939.94zm-.3-12.512a4.074 4.074 0 0 1 4.057-3.767c.759 0 1.47.21 2.079.573l-6.137 3.194zm7.536-1.806c.33.542.536 1.167.58 1.836l-2.094-1.047 1.514-.789zm-3.572 1.86l4.162 2.08v.672a4.074 4.074 0 0 1-4.07 4.07 4.074 4.074 0 0 1-4.069-4.07v-.682l3.977-2.07zm-1.472 9.014v-.524a5.93 5.93 0 0 0 3.13 0v.524c0 .519.42.94.939.94h.313v.625h-5.635v-.626h.313a.94.94 0 0 0 .94-.939zm13.148 6.574h-3.131v-4.07a3.447 3.447 0 0 0-3.434-3.443H52.9v-.478a5.944 5.944 0 0 0 2.505-4.845v-2.503a5.92 5.92 0 0 0-1.443-3.878 5.934 5.934 0 0 0-4.505-2.07 5.955 5.955 0 0 0-5.948 5.948v2.503c0 1.997.99 3.766 2.504 4.846v.477h-1.565c-.986 0-1.876.417-2.504 1.084a3.433 3.433 0 0 0-2.495-1.084h-1.575v-1.678a5.916 5.916 0 0 0 1.252-3.645v-3.756a3.45 3.45 0 0 0-2.504-3.312v-1.696c0-.519-.42-.94-.94-.94-2.589 0-4.419.337-5.759 1.06-1.787.964-2.693 2.608-2.693 4.888v3.756c0 1.373.469 2.637 1.252 3.645v1.678h-1.565a3.447 3.447 0 0 0-3.443 3.444v4.07h-3.131V17.877h40.697v35.688z" mask="url(#b)"/>
        <path fill="#665F8A" fill-rule="nonzero" d="M46.951 58.575H34.43a.94.94 0 0 0 0 1.878h12.523a.94.94 0 1 0 0-1.878z" mask="url(#b)"/>
        <g mask="url(#b)">
            <g transform="translate(52 50)">
                <circle cx="10" cy="10" r="10" fill="#665F8A"/>
                <g stroke="#DAEAF4" stroke-width="2">
                    <path d="M15.99 10H4.676M10.333 4.343v11.314"/>
                </g>
            </g>
        </g>
    </g>
</svg>
