<svg xmlns="http://www.w3.org/2000/svg" width="13.359" height="16" viewBox="0 0 13.359 16">
    <defs>
        <style>
            .cls-1{fill:#c4c4c8}
        </style>
    </defs>
    <g id="Group_5" data-name="Group 5" transform="translate(-184 -730)">
        <path id="icons8-attach" d="M15.56 3.018a3.717 3.717 0 0 0-2.707 1.169L7.5 9.835a5.587 5.587 0 0 0 0 7.622.669.669 0 0 0 .218.153 4.992 4.992 0 0 0 7.1-.154l3.766-3.974a.669.669 0 1 0-.97-.919l-3.764 3.974a3.633 3.633 0 0 1-5.381 0 4.266 4.266 0 0 1 0-5.783l5.353-5.648a2.335 2.335 0 0 1 3.475 0 2.788 2.788 0 0 1 0 3.772l-4.873 5.142a1.038 1.038 0 0 1-1.57 0 1.311 1.311 0 0 1 0-1.762l3.919-4.136A.669.669 0 1 0 13.8 7.2l-3.916 4.138a2.631 2.631 0 0 0 0 3.6.669.669 0 0 0 .225.155 2.4 2.4 0 0 0 3.287-.155L18.268 9.8a4.084 4.084 0 0 0 .138-5.4.669.669 0 0 0-.137-.217 3.72 3.72 0 0 0-2.709-1.165z" class="cls-1" transform="translate(178.003 726.982)"/>
    </g>
</svg>
