<svg xmlns="http://www.w3.org/2000/svg" id="dribbble-ball-mark" width="24" height="24" viewBox="0 0 24 24">
    <defs>
        <style>
            .cls-1{fill:#353ec4}
        </style>
    </defs>
    <path id="Shape" d="M12 24a12 12 0 1 1 12-12 12.014 12.014 0 0 1-12 12zm1.823-10.335a.142.142 0 0 1-.034.014h-.008l-.023.01a14.179 14.179 0 0 0-8.043 6.4 10.217 10.217 0 0 0 10.294 1.341 42.675 42.675 0 0 0-2.187-7.764zm4.029-.631a13.7 13.7 0 0 0-2.129.163 43.927 43.927 0 0 1 1.992 7.3A10.185 10.185 0 0 0 22.1 13.64a14.5 14.5 0 0 0-4.249-.605zM1.744 11.7v.312a10.22 10.22 0 0 0 2.629 6.845A16.215 16.215 0 0 1 12.7 12.1l.2-.058.061-.017.039-.007.1-.031c-.31-.7-.567-1.236-.833-1.744A37.771 37.771 0 0 1 2.111 11.7h-.346zm15.727-.257a25.662 25.662 0 0 1 4.735.458l.037.007a10.259 10.259 0 0 0-2.317-6.377 13.9 13.9 0 0 1-5.713 4.035c.26.534.487 1.034.677 1.484.023.052.044.105.065.157l.011.026.006.016.012.031.019.046v.008l.006.016c.034.086.064.159.1.234a18.723 18.723 0 0 1 2.362-.14zM7.64 2.733A10.32 10.32 0 0 0 1.966 9.9h.071a38.775 38.775 0 0 0 9.4-1.249A63.955 63.955 0 0 0 7.64 2.733zM12 1.77a10.466 10.466 0 0 0-2.408.273l.015.021a55.3 55.3 0 0 1 3.811 5.98 11.565 11.565 0 0 0 5.375-3.7A10.242 10.242 0 0 0 12 1.77z" class="cls-1"/>
</svg>
