<svg xmlns="http://www.w3.org/2000/svg" width="24" height="15" viewBox="0 0 24 15">
    <defs>
        <style>
            .cls-1{fill:#353ec4}
        </style>
    </defs>
    <path id="Shape" d="M18.625 15c-3.484 0-5.564-2.122-5.564-5.675A6.156 6.156 0 0 1 14.616 4.9a5.327 5.327 0 0 1 3.911-1.5A5.03 5.03 0 0 1 23.9 7.831a13.254 13.254 0 0 1 .1 2.14h-8.03a2.637 2.637 0 0 0 2.681 2.8A2.555 2.555 0 0 0 20.558 12h3.168a4.192 4.192 0 0 1-1.564 1.986A6.1 6.1 0 0 1 18.625 15zm-.1-9.22A2.3 2.3 0 0 0 16.04 8h4.965a2.239 2.239 0 0 0-2.477-2.219zM6.466 14.988H0V.021h6.953c2.389.035 4.065 1.129 4.484 2.926a3.575 3.575 0 0 1-1.764 3.98 3.889 3.889 0 0 1 2.263 4.373 4.062 4.062 0 0 1-1.561 2.557 6.3 6.3 0 0 1-3.909 1.131zM3 9v3.016h3.341a2.784 2.784 0 0 0 1.68-.461 1.273 1.273 0 0 0 .548-1.02C8.569 9.772 7.821 9 6.391 9zm0-6v3h3.584c1.293 0 1.991-.782 1.991-1.517a1.262 1.262 0 0 0-.553-1.021A2.952 2.952 0 0 0 6.272 3zm19-1h-7V0h7v2z" class="cls-1"/>
</svg>
