<svg xmlns="http://www.w3.org/2000/svg" width="30" height="30" viewBox="0 0 30 30">
    <g fill="none" fill-rule="evenodd">
        <path d="M0 0h30v30H0z"/>
        <g fill-rule="nonzero">
            <path fill="#353EC4" d="M2.727 0A2.727 2.727 0 0 0 0 2.727v8.182a2.727 2.727 0 0 0 2.727 2.727h8.182a2.727 2.727 0 0 0 2.727-2.727V2.727A2.727 2.727 0 0 0 10.91 0H2.727zm4.091 2.727a4.09 4.09 0 1 1 0 8.182 4.09 4.09 0 0 1 0-8.182zm12.273 13.637a2.727 2.727 0 0 0-2.727 2.727v8.182A2.727 2.727 0 0 0 19.09 30h8.182A2.727 2.727 0 0 0 30 27.273V19.09a2.727 2.727 0 0 0-2.727-2.727H19.09zm4.09 2.045l4.774 4.773-4.773 4.773-4.773-4.773 4.773-4.773z"/>
            <path fill="#989CCE" d="M19.09 0a2.727 2.727 0 0 0-2.726 2.727v8.182a2.727 2.727 0 0 0 2.727 2.727h8.182A2.727 2.727 0 0 0 30 10.91V2.727A2.727 2.727 0 0 0 27.273 0H19.09zm0 2.727h8.183v8.182H19.09V2.727zM2.728 16.364A2.727 2.727 0 0 0 0 19.09v8.182A2.727 2.727 0 0 0 2.727 30h8.182a2.727 2.727 0 0 0 2.727-2.727V19.09a2.727 2.727 0 0 0-2.727-2.727H2.727zm4.091 2.727l3.937 6.818H2.882l3.936-6.818z"/>
        </g>
    </g>
</svg>
