<svg xmlns="http://www.w3.org/2000/svg" width="30" height="30" viewBox="0 0 30 30">
    <g fill="none" fill-rule="evenodd">
        <path d="M0 0h30v30H0z"/>
        <g fill-rule="nonzero">
            <path fill="#353EC4" d="M25.184 1.154c-.59 0-1.181.228-1.632.678l-1.63 1.63 4.616 4.615 1.63-1.63c.9-.9.903-2.36.002-3.26L26.813 1.83a2.294 2.294 0 0 0-1.63-.676zm-5.569 4.615L3.727 21.657l1.465.843.577 1.73 1.73.577.844 1.465L24.23 10.384 19.615 5.77zM2.184 25.26l-.987 2.788a.577.577 0 0 0 .744.76l2.8-.99-2.557-2.558z"/>
            <path fill="#989CCE" d="M7.599 0c-.295 0-.59.113-.816.338L.338 6.783a1.153 1.153 0 0 0 0 1.632l6.684 6.684 1.632-1.632L2.785 7.6 7.6 2.785l1.492 1.492L7.599 5.77l1.632 1.632 1.491-1.492 1.253 1.253L9.57 9.569l1.492 1.491 4.038-4.038-1.492-1.492L8.415.338A1.15 1.15 0 0 0 7.599 0zM22.977 14.9L18.94 18.94l1.492 1.492 2.407-2.407 1.253 1.253-1.492 1.492L24.23 22.4l1.492-1.491 1.492 1.491-4.814 4.814-5.868-5.868-1.631 1.631 6.684 6.684a1.15 1.15 0 0 0 1.631 0l6.445-6.445c.452-.45.452-1.18 0-1.631l-5.192-5.193-1.492-1.491z"/>
        </g>
    </g>
</svg>
