<svg xmlns="http://www.w3.org/2000/svg" width="29" height="30" viewBox="0 0 29 30">
    <g fill="none" fill-rule="nonzero">
        <path fill="#989CCE" d="M3.75 0a3.75 3.75 0 1 0 0 7.5 3.75 3.75 0 0 0 0-7.5zM2.5 10A2.5 2.5 0 0 0 0 12.5v16.208a1.293 1.293 0 0 0 2.58.086l.547-8.21a.624.624 0 0 1 1.245-.002l.547 8.212a1.292 1.292 0 0 0 2.581-.086V13.75c0-.69.56-1.25 1.25-1.25H15a1.25 1.25 0 1 0 0-2.5H2.5zm8.75 17.5a1.25 1.25 0 1 0 0 2.5H27.5a1.25 1.25 0 1 0 0-2.5H11.25z"/>
        <path fill="#353EC4" d="M13.75 1.25a2.5 2.5 0 0 0-2.5 2.5V7.5h2.5V3.75H25V17.5H13.75V15h-2.5v10H27.5V3.75a2.5 2.5 0 0 0-2.5-2.5H13.75z"/>
    </g>
</svg>
