<svg xmlns="http://www.w3.org/2000/svg" width="26" height="30" viewBox="0 0 26 30">
    <g fill="none" fill-rule="evenodd">
        <path d="M-2 0h30v30H-2z"/>
        <g fill-rule="nonzero">
            <path fill="#989CCE" d="M16.464 0a1.154 1.154 0 0 0 0 2.308h5.77a1.154 1.154 0 0 0 0-2.308h-5.77zm0 4.615L13.989 8.74a6.922 6.922 0 0 0-.987 3.563v3.577a9.209 9.209 0 0 1 3.462 7.2c0 2.49-.991 4.745-2.594 6.405.396.317.892.516 1.44.516h8.077a2.307 2.307 0 0 0 2.308-2.308v-15.39a6.93 6.93 0 0 0-.987-3.563l-2.475-4.124h-5.77z"/>
            <path fill="#353EC4" d="M7.233 16.154A6.923 6.923 0 0 0 .31 23.077a6.923 6.923 0 1 0 13.846 0c0-3.824-3.1-6.923-6.923-6.923zm-.04 2.308h.078c.47.004.813.446.726.908l-.424 2.27a.344.344 0 0 1-.34.283.349.349 0 0 1-.342-.284l-.424-2.27c-.087-.46.256-.903.726-.907zm-3.401 1.935a.763.763 0 0 1 .629.174l1.737 1.49a.348.348 0 0 1-.34.592l-2.16-.76a.766.766 0 0 1-.41-1.106l.01-.016a.763.763 0 0 1 .534-.374zm6.882 0a.762.762 0 0 1 .534.374l.01.016c.24.417.043.95-.41 1.109l-2.16.76a.348.348 0 0 1-.34-.593l1.738-1.492a.763.763 0 0 1 .628-.174zm-4.856 3.101a.348.348 0 0 1 .34.593l-1.737 1.492a.766.766 0 0 1-1.163-.2l-.01-.016a.769.769 0 0 1 .41-1.11l2.16-.759zm2.83.003l2.16.76c.453.158.65.689.41 1.106l-.01.015a.766.766 0 0 1-1.162.2l-1.738-1.489a.348.348 0 0 1 .34-.592zm-1.415.73c.167 0 .311.119.343.284l.423 2.27c.087.46-.256.903-.725.907h-.079c-.47-.004-.812-.446-.726-.908l.424-2.27a.344.344 0 0 1 .34-.283z"/>
        </g>
    </g>
</svg>
