<svg xmlns="http://www.w3.org/2000/svg" width="28" height="28" viewBox="0 0 28 28">
    <g fill="none" fill-rule="evenodd">
        <path d="M-1-1h30v30H-1z"/>
        <g fill-rule="nonzero">
            <path fill="#989CCE" d="M13.984-.014A1 1 0 0 0 13 1v1.05C7.182 2.536 2.535 7.183 2.05 13H1a1 1 0 1 0 0 2h1.05C2.536 20.818 7.183 25.465 13 25.95V27a1 1 0 1 0 2 0v-1.05c5.818-.485 10.465-5.132 10.95-10.95H27a1 1 0 1 0 0-2h-1.05C25.464 7.182 20.817 2.535 15 2.05V1a1 1 0 0 0-1.016-1.014zM13 4.05v2.02A8.017 8.017 0 0 0 6.068 13h-2.02A9.986 9.986 0 0 1 13 4.049zm2 0A9.986 9.986 0 0 1 23.951 13h-2.02A8.017 8.017 0 0 0 15 6.068v-2.02zm-1.996 4.039a1 1 0 0 0 1.992 0 5.973 5.973 0 0 1 4.916 4.916 1 1 0 0 0 0 1.992 5.973 5.973 0 0 1-4.916 4.916 1 1 0 0 0-1.992 0 5.973 5.973 0 0 1-4.916-4.916 1 1 0 0 0 0-1.992 5.973 5.973 0 0 1 4.916-4.916zM4.049 15h2.02A8.017 8.017 0 0 0 13 21.932v2.02A9.986 9.986 0 0 1 4.049 15zm17.883 0h2.02A9.986 9.986 0 0 1 15 23.951v-2.02A8.017 8.017 0 0 0 21.932 15z"/>
            <path fill="#353EC4" d="M14 12a2 2 0 1 0 0 4 2 2 0 0 0 0-4z"/>
        </g>
    </g>
</svg>
