<svg xmlns="http://www.w3.org/2000/svg" width="16" height="16" viewBox="0 0 16 16">
    <defs>
        <style>
            .cls-1{fill:#c4c4c8}
        </style>
    </defs>
    <path id="icons8-dropbox" d="M14.371 3a.359.359 0 0 0-.2.073l-3.183 2.465L16.013 8.3l2.849-2.18a.308.308 0 0 0-.033-.517l-4.252-2.552A.357.357 0 0 0 14.371 3zm1.642 5.3l-5.025 3 3.047 2.231a.726.726 0 0 0 .8.034l4.012-2.417a.309.309 0 0 0 .039-.512zM7.768 3a.36.36 0 0 0-.211.052L3.155 5.75a.307.307 0 0 0-.02.522l3.073 2.186-3.07 2.184a.308.308 0 0 0 .022.523l3.985 2.4a.726.726 0 0 0 .8-.034l3.042-2.231-4.776-2.842 4.776-2.919L7.97 3.085a.356.356 0 0 0-.202-.079zm3.22 9.948l-2.26 1.654a2.065 2.065 0 0 1-2.272.1l-.789-.477v.991a.668.668 0 0 0 .3.555l4.667 3.112a.669.669 0 0 0 .733.005l4.663-3.028a.668.668 0 0 0 .3-.56v-1.083l-.814.491a2.062 2.062 0 0 1-2.271-.1z" class="cls-1" transform="translate(-3 -3.001)"/>
</svg>
