<svg id="_figure_3" data-name="&lt;figure&gt;3" xmlns="http://www.w3.org/2000/svg" width="59.192" height="59.849" viewBox="0 0 59.192 59.849">
  <g id="create">
    <g id="Group">
      <path id="Shape" d="M0,43.79H43.79V0H0Z" transform="translate(15.401)" fill="#989cce"/>
      <path id="Shape-2" data-name="Shape" d="M0,21.188H21.188V0H0Z" transform="translate(15.401 22.603)" fill="#6b6e91"/>
      <g id="Group-2" data-name="Group" transform="translate(0 26.745)">
        <path id="Shape-3" data-name="Shape" d="M20.69,22.724a1.379,1.379,0,1,1,1.379-1.38A1.381,1.381,0,0,1,20.69,22.724Zm-9.655,0a1.379,1.379,0,1,1,1.379-1.38A1.381,1.381,0,0,1,11.035,22.724Zm-9.655,0a1.379,1.379,0,1,1,1.379-1.38A1.381,1.381,0,0,1,1.38,22.724Zm0-9.986a1.379,1.379,0,1,1,1.379-1.38A1.381,1.381,0,0,1,1.38,12.738Zm0-9.979A1.379,1.379,0,1,1,2.759,1.38,1.381,1.381,0,0,1,1.38,2.759Z" transform="translate(9.655 0.397)" fill="#353ec4"/>
        <path id="Shape-4" data-name="Shape" d="M11.03,12.722A1.374,1.374,0,1,1,12.4,11.348,1.376,1.376,0,0,1,11.03,12.722Zm-9.655,0a1.374,1.374,0,1,1,1.374-1.374A1.376,1.376,0,0,1,1.374,12.722ZM11.03,2.749A1.374,1.374,0,1,1,12.4,1.374,1.376,1.376,0,0,1,11.03,2.749Zm-9.655,0A1.374,1.374,0,1,1,2.749,1.374,1.376,1.376,0,0,1,1.374,2.749Z" transform="translate(19.313 0.409)" fill="#fff"/>
        <path id="Shape-5" data-name="Shape" d="M30.344,32.709a1.379,1.379,0,1,1,1.379-1.38A1.381,1.381,0,0,1,30.344,32.709Zm-9.655,0a1.379,1.379,0,1,1,1.379-1.38A1.381,1.381,0,0,1,20.688,32.709Zm-9.655,0a1.379,1.379,0,1,1,1.379-1.38A1.381,1.381,0,0,1,11.033,32.709Zm-9.653,0a1.379,1.379,0,1,1,1.379-1.38A1.381,1.381,0,0,1,1.38,32.709Zm0-9.984a1.379,1.379,0,1,1,1.379-1.379A1.381,1.381,0,0,1,1.38,22.725Zm0-9.983a1.38,1.38,0,1,1,1.379-1.38A1.381,1.381,0,0,1,1.38,12.742Zm0-9.984A1.379,1.379,0,1,1,2.759,1.38,1.381,1.381,0,0,1,1.38,2.759Z" transform="translate(0 0.395)" fill="#d0d0d6"/>
      </g>
    </g>
  </g>
</svg>
