<svg xmlns="http://www.w3.org/2000/svg" xmlns:xlink="http://www.w3.org/1999/xlink" width="100.182" height="59.493" viewBox="0 0 100.182 59.493">
  <defs>
    <clipPath id="clip-path">
      <path id="validate-a" d="M0,33.075H43.064V0H0Z" transform="translate(0.357 0.561)" fill="none"/>
    </clipPath>
  </defs>
  <g id="_figure_4" data-name="&lt;figure&gt;4" transform="translate(0)">
    <g id="validate">
      <g id="Group">
        <path id="Shape" d="M16.382,37.819A1.818,1.818,0,1,1,18.2,36,1.821,1.821,0,0,1,16.382,37.819ZM14.691,25.237a1.816,1.816,0,1,1,1.582-.916,1.816,1.816,0,0,1-1.582.916ZM9.718,13.564a1.825,1.825,0,0,1-1.563-.882,1.824,1.824,0,1,1,1.563.882Zm-7.9-9.927A1.818,1.818,0,0,1,.509.555,1.811,1.811,0,0,1,3.074.509a1.823,1.823,0,0,1,.054,2.573A1.842,1.842,0,0,1,1.819,3.637Z" transform="translate(79.904 14.49)" fill="#d0d0d6"/>
        <path id="Shape-2" data-name="Shape" d="M1.813,45.221A1.813,1.813,0,0,1,1.6,45.2a1.784,1.784,0,0,1-1.211-.666,1.817,1.817,0,0,1,1.63-2.943,1.819,1.819,0,0,1-.21,3.627Zm3.145-12.29a2.059,2.059,0,0,1-.69-.128A1.821,1.821,0,0,1,4.955,29.3a1.818,1.818,0,0,1,0,3.635Zm6.3-11.01a1.817,1.817,0,1,1,1.1-3.254,1.81,1.81,0,0,1-1.1,3.254Zm8.992-8.945A1.822,1.822,0,0,1,19.15,9.7v.009a1.811,1.811,0,0,1,2.544.345A1.819,1.819,0,0,1,21.35,12.6,1.848,1.848,0,0,1,20.25,12.976ZM31.286,6.722a1.827,1.827,0,0,1-1.691-1.146,1.82,1.82,0,0,1,1.018-2.363,1.821,1.821,0,0,1,2.365,1.009,1.84,1.84,0,0,1-1.011,2.372A2.042,2.042,0,0,1,31.286,6.722Zm25-2.81a1.571,1.571,0,0,1-.292-.018H56a1.808,1.808,0,0,1-1.518-2.073,1.816,1.816,0,1,1,3.589.554A1.8,1.8,0,0,1,56.286,3.912ZM43.6,3.64A1.819,1.819,0,0,1,42.174.683,1.8,1.8,0,0,1,43.4.013C43.482,0,43.55,0,43.608,0a1.815,1.815,0,0,1,1.409,2.951,1.8,1.8,0,0,1-1.221.671A1.526,1.526,0,0,1,43.6,3.64Z" transform="translate(0 1.569)" fill="#353ec4"/>
        <path id="Shape-3" data-name="Shape" d="M50.666,0,28.69,26.365H0L14.225,42.787l0-.069L28.644,59.4l28.644-33.02L79.5,0Z" transform="translate(20.679)" fill="#989cce"/>
        <g id="Group-2" data-name="Group" transform="translate(34.545 25.856)">
          <g id="Clipped">
            <path id="validate-a-2" data-name="validate-a" d="M0,33.075H43.064V0H0Z" transform="translate(0.357 0.561)" fill="none"/>
            <g id="Clipped-2" data-name="Clipped" clip-path="url(#clip-path)">
              <path id="Shape-4" data-name="Shape" d="M14.225,0,0,16.425,14.42,33.075,43.064,0Z" transform="translate(0.357 0.561)" fill="#6b6e91"/>
            </g>
          </g>
        </g>
      </g>
    </g>
  </g>
</svg>
