<svg xmlns="http://www.w3.org/2000/svg" xmlns:xlink="http://www.w3.org/1999/xlink" width="90.443" height="58.904" viewBox="0 0 90.443 58.904">
  <defs>
    <clipPath id="clip-path">
      <path id="path-1" d="M45.544,0V58.048H0V0Z" transform="translate(0.115 0.076)" fill="none"/>
    </clipPath>
    <clipPath id="clip-path-2">
      <path id="path-3" d="M0,0H57.946V32.215H0Z" transform="translate(0.019 0.173)" fill="none"/>
    </clipPath>
  </defs>
  <g id="_figure_w_o_2" data-name="&lt;figure&gt;w/o 2" transform="translate(0 -0.173)" opacity="0.45">
    <g id="ideate">
      <g id="_---_-Services" data-name="---↳-Services">
        <g id="Services-J">
          <g id="Icon_Ideate" data-name="Icon/Ideate">
            <g id="Page-1">
              <path id="Fill-1" d="M0,28.586A32.853,32.853,0,0,1,16.788,0L45.737,28.586,16.788,57.171A32.853,32.853,0,0,1,0,28.586" transform="translate(0 0.953)" fill="#6b6e91"/>
              <g id="Group-5" transform="translate(44.784 0.953)">
                <g id="Fill-3_Clipped" data-name="Fill-3 Clipped">
                  <path id="path-1-2" data-name="path-1" d="M45.544,0V58.048H0V0Z" transform="translate(0.115 0.076)" fill="none"/>
                  <g id="Fill-3_Clipped-2" data-name="Fill-3 Clipped" clip-path="url(#clip-path)">
                    <path id="Fill-3" d="M45.544,29.024A33.467,33.467,0,0,0,28.827,0L0,29.024,28.827,58.048A33.467,33.467,0,0,0,45.544,29.024" transform="translate(0.115 0.076)" fill="#989cce"/>
                  </g>
                </g>
              </g>
              <g id="Group-8" transform="translate(14.293)">
                <g id="Fill-6_Clipped" data-name="Fill-6 Clipped">
                  <path id="path-3-2" data-name="path-3" d="M0,0H57.946V32.215H0Z" transform="translate(0.019 0.173)" fill="none"/>
                  <g id="Fill-6_Clipped-2" data-name="Fill-6 Clipped" clip-path="url(#clip-path-2)">
                    <path id="Fill-6" d="M1.851,32.215H1.833A1.86,1.86,0,0,1,1.82,28.5a1.845,1.845,0,0,1,1.425.675,1.9,1.9,0,0,1,.426,1.175A1.847,1.847,0,0,1,1.851,32.215Zm2.711-12.6a1.788,1.788,0,0,1-.779-.177,1.869,1.869,0,0,1-.875-2.477A1.837,1.837,0,0,1,4.569,15.9a1.794,1.794,0,0,1,.785.177,1.891,1.891,0,0,1,.62.493,1.862,1.862,0,0,1-1.412,3.047Zm51.548-.344a1.861,1.861,0,0,1-.8-3.526,1.8,1.8,0,0,1,.807-.192,1.819,1.819,0,0,1,1.41.67,1.783,1.783,0,0,1,.233.372,1.874,1.874,0,0,1-.847,2.488A1.792,1.792,0,0,1,56.11,19.275ZM12.395,9.546a1.819,1.819,0,0,1-1.427-.713,1.785,1.785,0,0,1,.189-2.551,1.647,1.647,0,0,1,1.059-.389,1.86,1.86,0,0,1,1.427.713l.012.014a1.76,1.76,0,0,1-.164,2.53A1.727,1.727,0,0,1,12.395,9.546Zm35.714-.307a1.8,1.8,0,0,1-1.14-.4,1.877,1.877,0,0,1-.3-2.609,1.807,1.807,0,0,1,2.85-.029,1.887,1.887,0,0,1,.033,2.339A1.832,1.832,0,0,1,48.109,9.239ZM23.867,3.805A1.864,1.864,0,0,1,23.453.132a1.791,1.791,0,0,1,.418-.049,1.847,1.847,0,0,1,1.414.67,1.872,1.872,0,0,1-1,3A1.814,1.814,0,0,1,23.867,3.805ZM36.61,3.712a1.824,1.824,0,0,1-.4-.045,1.859,1.859,0,0,1-1.4-2.218A1.826,1.826,0,0,1,36.595,0a1.873,1.873,0,0,1,.4.045,1.769,1.769,0,0,1,1.018.617,1.847,1.847,0,0,1,.375,1.593A1.842,1.842,0,0,1,36.61,3.712Z" transform="translate(0.019 0.173)" fill="#353ec4"/>
                  </g>
                </g>
              </g>
              <path id="Fill-9" d="M3.4,3.091A1.908,1.908,0,1,1,3.084.41a1.887,1.887,0,0,1,.285.283,1.9,1.9,0,0,1,.035,2.4" transform="translate(71.464 27.633)" fill="#353ec4"/>
            </g>
          </g>
        </g>
      </g>
    </g>
  </g>
</svg>
