<svg xmlns="http://www.w3.org/2000/svg" width="272" height="210" viewBox="0 0 272 210">
    <path fill="#626478" fill-rule="evenodd" d="M252.397 161.64c0 25.836-19.873 48.36-46.372 48.36-33.123 0-53.66-24.511-53.66-60.946 0-59.622 43.723-110.631 107.32-149.054l11.924 13.25c-44.385 35.11-71.546 74.195-76.846 109.968l4.638 2.65 1.987-.663c5.3-2.65 10.6-3.312 17.224-3.312 19.874 0 33.785 17.224 33.785 39.747zm-151.703 0c0 25.836-20.536 48.36-47.035 48.36C20.536 210 0 185.489 0 149.054 0 89.432 43.722 38.423 107.319 0l11.924 13.25C74.858 48.36 48.36 87.444 42.397 123.217l4.638 2.65 1.987-.663c5.962-2.65 10.6-3.312 17.887-3.312 19.873 0 33.785 17.224 33.785 39.747z"/>
</svg>
