<svg xmlns="http://www.w3.org/2000/svg" width="24" height="30" viewBox="0 0 24 30">
    <g fill="none" fill-rule="evenodd">
        <path d="M-3 0h30v30H-3z"/>
        <g fill-rule="nonzero">
            <path fill="#989CCE" d="M12.001 0a3.35 3.35 0 0 0-3.333 3.333H4.223A3.35 3.35 0 0 0 .89 6.667v20A3.35 3.35 0 0 0 4.223 30H19.78a3.35 3.35 0 0 0 3.333-3.333v-20a3.35 3.35 0 0 0-3.333-3.334h-4.445A3.35 3.35 0 0 0 12.001 0zm0 2.222c.627 0 1.111.485 1.111 1.111 0 .627-.484 1.111-1.11 1.111a1.095 1.095 0 0 1-1.112-1.11c0-.627.484-1.112 1.111-1.112zM4.223 5.556h2.223c0 1.227.994 2.222 2.222 2.222h6.666a2.222 2.222 0 0 0 2.223-2.222h2.222c.628 0 1.111.483 1.111 1.11v20c0 .628-.483 1.112-1.111 1.112H4.223a1.093 1.093 0 0 1-1.11-1.111v-20c0-.628.483-1.111 1.11-1.111z"/>
            <path fill="#353EC4" d="M17.535 12.211c-.289.009-.563.13-.764.337l-.786.785h-.65a1.111 1.111 0 1 0 0 2.223h1.11c.295 0 .578-.118.786-.326l1.111-1.111a1.111 1.111 0 0 0-.807-1.908zM6.446 13.333a1.111 1.111 0 1 0 0 2.223h4.444a1.111 1.111 0 1 0 0-2.223H6.446zM17.535 18.878c-.289.009-.563.13-.764.336l-.786.786h-.65a1.111 1.111 0 1 0 0 2.222h1.11c.295 0 .578-.117.786-.325l1.111-1.111a1.111 1.111 0 0 0-.807-1.908zM6.446 20a1.111 1.111 0 1 0 0 2.222h4.444a1.111 1.111 0 1 0 0-2.222H6.446z"/>
        </g>
    </g>
</svg>
