<svg xmlns="http://www.w3.org/2000/svg" width="30" height="30" viewBox="0 0 30 30">
    <g fill="none" fill-rule="evenodd">
        <path d="M0 0h30v30H0z"/>
        <g fill-rule="nonzero">
            <path fill="#989CCE" d="M1.364 0a1.364 1.364 0 1 0 0 2.727 1.364 1.364 0 0 0 0-2.727zm5.454 0a1.364 1.364 0 1 0 0 2.727 1.364 1.364 0 0 0 0-2.727zm5.455 0a1.364 1.364 0 1 0 0 2.727 1.364 1.364 0 0 0 0-2.727zM1.363 5.455a1.364 1.364 0 1 0 0 2.727 1.364 1.364 0 0 0 0-2.727zm0 5.454a1.364 1.364 0 1 0 0 2.727 1.364 1.364 0 0 0 0-2.727zm0 5.455a1.364 1.364 0 1 0 0 2.727 1.364 1.364 0 0 0 0-2.727zm27.273 0a1.364 1.364 0 1 0 0 2.727 1.364 1.364 0 0 0 0-2.727zM1.364 21.818a1.364 1.364 0 1 0 0 2.727 1.364 1.364 0 0 0 0-2.727zm27.272 0a1.364 1.364 0 1 0 0 2.727 1.364 1.364 0 0 0 0-2.727zM1.364 27.273a1.364 1.364 0 1 0 0 2.727 1.364 1.364 0 0 0 0-2.727zm5.454 0a1.364 1.364 0 1 0 0 2.727 1.364 1.364 0 0 0 0-2.727zm5.455 0a1.364 1.364 0 1 0 0 2.727 1.364 1.364 0 0 0 0-2.727zm5.454 0a1.364 1.364 0 1 0 0 2.727 1.364 1.364 0 0 0 0-2.727zm5.455 0a1.364 1.364 0 1 0 0 2.727 1.364 1.364 0 0 0 0-2.727zm5.454 0a1.364 1.364 0 1 0 0 2.727 1.364 1.364 0 0 0 0-2.727z"/>
            <path fill="#353EC4" d="M17.727 0a1.364 1.364 0 1 0 0 2.727h2.727a6.797 6.797 0 0 1 6.819 6.818v2.728a1.364 1.364 0 1 0 2.727 0V9.545C30 4.29 25.71 0 20.454 0h-2.727z"/>
        </g>
    </g>
</svg>
