<svg xmlns="http://www.w3.org/2000/svg" width="28" height="30" viewBox="0 0 28 30">
    <g fill="none" fill-rule="evenodd">
        <path d="M-1 0h30v30H-1z"/>
        <g fill-rule="nonzero">
            <path fill="#989CCE" d="M1.771 0C1.157 0 .661.497.66 1.111v23.333c0 .614.497 1.111 1.111 1.112h13.333v-2.223H2.882V2.223H19.55v5.555h2.222V1.11c0-.614-.497-1.11-1.111-1.111H1.771zM4.55 3.333a.556.556 0 1 0 0 1.111.556.556 0 0 0 0-1.11zm2.222 0a.556.556 0 1 0 0 1.111.556.556 0 0 0 0-1.11zm2.222 0a.556.556 0 1 0 0 1.111.556.556 0 0 0 0-1.11zm2.223 0a.556.556 0 1 0 0 1.111.556.556 0 0 0 0-1.11zm2.222 0a.556.556 0 1 0 0 1.111.556.556 0 0 0 0-1.11zm2.222 0a.556.556 0 1 0 0 1.111.556.556 0 0 0 0-1.11zm2.222 0a.556.556 0 1 0 0 1.111.556.556 0 0 0 0-1.11zM4.55 5.556a.556.556 0 1 0 0 1.11.556.556 0 0 0 0-1.11zm4.444 0a.556.556 0 1 0 0 1.11.556.556 0 0 0 0-1.11zm4.445 0a.556.556 0 1 0 0 1.11.556.556 0 0 0 0-1.11zm4.444 0a.556.556 0 1 0 0 1.11.556.556 0 0 0 0-1.11zM4.55 7.778a.556.556 0 1 0 0 1.11.556.556 0 0 0 0-1.11zm2.222 0a.556.556 0 1 0 0 1.11.556.556 0 0 0 0-1.11zm2.222 0a.556.556 0 1 0 0 1.11.556.556 0 0 0 0-1.11zm2.223 0a.556.556 0 1 0 0 1.11.556.556 0 0 0 0-1.11zm2.222 0a.556.556 0 1 0 0 1.11.556.556 0 0 0 0-1.11zm2.222 0a.556.556 0 1 0 0 1.11.556.556 0 0 0 0-1.11zm2.222 0a.556.556 0 1 0 0 1.11.556.556 0 0 0 0-1.11zM4.55 10a.556.556 0 1 0 0 1.111.556.556 0 0 0 0-1.111zm4.444 0a.556.556 0 1 0 0 1.111.556.556 0 0 0 0-1.111zm4.445 0a.556.556 0 1 0 0 1.111.556.556 0 0 0 0-1.111zm-8.89 2.222a.556.556 0 1 0 0 1.111.556.556 0 0 0 0-1.11zm2.223 0a.556.556 0 1 0 0 1.111.556.556 0 0 0 0-1.11zm2.222 0a.556.556 0 1 0 0 1.111.556.556 0 0 0 0-1.11zm2.223 0a.556.556 0 1 0 0 1.111.556.556 0 0 0 0-1.11zm2.222 0a.556.556 0 1 0 0 1.111.556.556 0 0 0 0-1.11zm2.222 0a.556.556 0 1 0 0 1.111.556.556 0 0 0 0-1.11zM4.549 14.444a.556.556 0 1 0 0 1.112.556.556 0 0 0 0-1.112zm4.444 0a.556.556 0 1 0 0 1.112.556.556 0 0 0 0-1.112zm4.445 0a.556.556 0 1 0 0 1.112.556.556 0 0 0 0-1.112zm-8.89 2.223a.556.556 0 1 0 0 1.11.556.556 0 0 0 0-1.11zm2.223 0a.556.556 0 1 0 0 1.11.556.556 0 0 0 0-1.11zm2.222 0a.556.556 0 1 0 0 1.11.556.556 0 0 0 0-1.11zm2.223 0a.556.556 0 1 0 0 1.11.556.556 0 0 0 0-1.11zm2.222 0a.556.556 0 1 0 0 1.11.556.556 0 0 0 0-1.11zm2.222 0a.556.556 0 1 0 0 1.11.556.556 0 0 0 0-1.11zM4.549 18.889a.556.556 0 1 0 0 1.111.556.556 0 0 0 0-1.111zm4.444 0a.556.556 0 1 0 0 1.111.556.556 0 0 0 0-1.111zm4.445 0a.556.556 0 1 0 0 1.111.556.556 0 0 0 0-1.111zm-8.89 2.222a.556.556 0 1 0 0 1.111.556.556 0 0 0 0-1.11zm2.223 0a.556.556 0 1 0 0 1.111.556.556 0 0 0 0-1.11zm2.222 0a.556.556 0 1 0 0 1.111.556.556 0 0 0 0-1.11zm2.223 0a.556.556 0 1 0 0 1.111.556.556 0 0 0 0-1.11zm2.222 0a.556.556 0 1 0 0 1.111.556.556 0 0 0 0-1.11zm2.222 0a.556.556 0 1 0 0 1.111.556.556 0 0 0 0-1.11z"/>
            <path fill="#353EC4" d="M18.438 10a1.11 1.11 0 0 0-1.111 1.111V28.89A1.11 1.11 0 0 0 18.437 30h7.779a1.11 1.11 0 0 0 1.11-1.111v-1.111h-2.222a1.11 1.11 0 1 1 0-2.222h2.223v-2.223h-1.111a1.11 1.11 0 1 1 0-2.222h1.11V18.89h-2.222a1.11 1.11 0 1 1 0-2.222h2.223v-2.223h-1.111a1.11 1.11 0 1 1 0-2.222h1.11v-1.11A1.11 1.11 0 0 0 26.217 10h-7.778z"/>
        </g>
    </g>
</svg>
