<svg xmlns="http://www.w3.org/2000/svg" width="28" height="30" viewBox="0 0 28 30">
    <g fill="none" fill-rule="evenodd">
        <path d="M-1 0h30v30H-1z"/>
        <g fill-rule="nonzero">
            <path fill="#989CCE" d="M2.743 0A2.142 2.142 0 0 0 .6 2.143v23.571c0 1.184.959 2.143 2.143 2.143H8.1c0 1.171.972 2.143 2.143 2.143h15a2.159 2.159 0 0 0 2.143-2.143v-9.373a1.073 1.073 0 0 0 0-.106v-1.235A2.159 2.159 0 0 0 25.243 15h-3.214V8.036a1.07 1.07 0 0 0-.314-.758L14.75.314A1.07 1.07 0 0 0 13.993 0H2.743zm10.714 2.04l6.531 6.531h-5.46c-.59 0-1.07-.48-1.07-1.071V2.04z"/>
            <path fill="#353EC4" d="M10.243 17.143h15v.734l-5.631 4.025c-1.122.8-2.617.8-3.738 0l-5.631-4.025v-.734z"/>
            <path fill="#353EC4" d="M25.243 20.512v7.345h-15v-7.343l4.386 3.13a5.367 5.367 0 0 0 6.228 0l4.386-3.132z"/>
        </g>
    </g>
</svg>
