<svg xmlns="http://www.w3.org/2000/svg" width="30" height="28" viewBox="0 0 30 28">
    <g fill="none" fill-rule="evenodd">
        <path d="M0-1h30v30H0z"/>
        <g fill-rule="nonzero">
            <path fill="#989CCE" d="M2.5.2A2.5 2.5 0 0 0 0 2.7v23.75c0 .69.56 1.25 1.25 1.25h27.5c.69 0 1.25-.56 1.25-1.25V2.7A2.5 2.5 0 0 0 27.5.2h-25zm0 6.25h25V25.2h-25V6.45z"/>
            <path fill="#353EC4" d="M6.25 10.2a1.25 1.25 0 1 0 0 2.5h5a1.25 1.25 0 1 0 0-2.5h-5z"/>
            <path fill="#989CCE" d="M16.25 10.2c-.69 0-1.25.56-1.25 1.25v10c0 .69.56 1.25 1.25 1.25h7.5c.69 0 1.25-.56 1.25-1.25v-10c0-.69-.56-1.25-1.25-1.25h-7.5z"/>
            <path fill="#353EC4" d="M6.25 15.2a1.25 1.25 0 1 0 0 2.5h5a1.25 1.25 0 1 0 0-2.5h-5zM6.25 20.2a1.25 1.25 0 1 0 0 2.5h5a1.25 1.25 0 1 0 0-2.5h-5z"/>
        </g>
    </g>
</svg>
