<svg xmlns="http://www.w3.org/2000/svg" width="30" height="28" viewBox="0 0 30 28">
    <g fill="none" fill-rule="evenodd">
        <path d="M0-1h30v30H0z"/>
        <g fill-rule="nonzero">
            <path fill="#989CCE" d="M1.086 4.361v16.056a2.14 2.14 0 0 0 2.14 2.14H13.93v1.361a2.14 2.14 0 0 0-1.07 1.85 2.14 2.14 0 1 0 3.21-1.852v-1.359h10.704a2.14 2.14 0 0 0 2.14-2.14V4.36H1.086zM19.28 9.713h5.352a1.07 1.07 0 0 1 0 2.14h-5.352a1.07 1.07 0 0 1 0-2.14zm0 4.282h5.352a1.07 1.07 0 0 1 0 2.14h-5.352a1.07 1.07 0 0 1 0-2.14zM8.578 9.713v4.282h4.281a4.282 4.282 0 1 1-4.281-4.282zm2.14-2.14A4.282 4.282 0 0 1 15 11.852h-4.281v-4.28z"/>
            <path fill="#353EC4" d="M1.086.08a1.07 1.07 0 1 0 0 2.14h27.828a1.07 1.07 0 1 0 0-2.14H1.086z"/>
        </g>
    </g>
</svg>
