<svg xmlns="http://www.w3.org/2000/svg" width="21" height="21" viewBox="0 0 21 21">
    <path fill="#555" fill-rule="evenodd" d="M20.172 14.487c-2.408-2.409-2.77-3.618-2.77-7.468a7.166 7.166 0 0 0-14.33 0c0 2.076-.055 2.85-.341 3.802-.355 1.185-1.084 2.32-2.43 3.666-.644.645-.187 1.748.724 1.748h5.68l-.051.512a3.584 3.584 0 1 0 7.165 0l-.052-.512h5.68c.913 0 1.37-1.103.725-1.748zm-9.935 4.82a2.56 2.56 0 0 1-2.56-2.56l.053-.512h5.014l.052.512a2.56 2.56 0 0 1-2.56 2.56zm-9.211-4.096c3.07-3.072 3.07-5.12 3.07-8.192a6.142 6.142 0 1 1 12.282 0c0 3.072 0 5.12 3.07 8.192H1.027z"/>
</svg>
