<svg xmlns="http://www.w3.org/2000/svg" width="102" height="54" viewBox="0 0 102 54">
    <path fill="#05582D" fill-rule="evenodd" d="M87.798 25.676c7.738 0 14.012 6.217 14.012 13.885 0 7.659-6.274 13.88-14.012 13.88-7.735 0-14.01-6.221-14.01-13.88 0-4.305 1.976-8.145 5.078-10.697l-1.48-2.377-6.054 16.498H30.687a13.984 13.984 0 0 1-13.56 10.452c-7.742 0-14.013-6.217-14.013-13.876 0-7.668 6.265-13.885 14.006-13.885a13.962 13.962 0 0 1 13.86 11.938h.137s1.225-4.464 3.408-9.988C27.264 25.234-.577 15.65.22 9.694 1.141 2.85 22.768 7.12 22.768 7.12l2.167 6.44 15.403 2.265c1.985-3.14 4.238-5.848 6.71-7.417 9.612-6.103 25.798 4.938 25.798 4.938S56.1-4.319 68.255 1.278c38.436 19.546 23.024 22.807 23.024 22.807H80.473l1.718 2.759a14.01 14.01 0 0 1 5.607-1.168zM17.12 30.834c-4.855 0-8.804 3.916-8.804 8.727 0 4.808 3.945 8.722 8.804 8.722a8.823 8.823 0 0 0 8.104-5.298h-10.69v-5.37H25.7a8.795 8.795 0 0 0-8.581-6.781zm56.216-6.08l-5.148 15.409 2.09.687 5.146-15.413-2.088-.684zm5.654 14.801c.004 4.814 3.952 8.728 8.808 8.728 4.858 0 8.807-3.914 8.807-8.722 0-4.81-3.949-8.727-8.807-8.727a8.73 8.73 0 0 0-2.835.47l4.496 7.242-3.325 2.024-4.496-7.242a8.67 8.67 0 0 0-2.648 6.227z" opacity=".3"/>
</svg>
