<svg xmlns="http://www.w3.org/2000/svg" width="87" height="81" viewBox="0 0 87 81">
    <path fill="#066735" fill-rule="evenodd" d="M86.545 22.91v12.726c0 1.467-1.715 3.182-3.181 3.182h-3.182v-19.09h3.182c1.466 0 3.181 1.72 3.181 3.181zM26.091.635h35C69.866.636 77 7.77 77 16.546v47.727c0 2.927-3.436 6.363-6.364 6.363v3.182c0 2.93-2.924 6.326-5.854 6.326h-5.295c-2.93 0-4.76-3.395-4.76-6.326v-3.182H32.455v3.182c0 2.93-1.83 6.326-4.757 6.326H22.4c-2.93 0-5.855-3.395-5.855-6.326v-3.182c-2.927 0-6.363-3.436-6.363-6.363V16.545C10.182 7.77 17.315.636 26.09.636zm1.607 58.317a5.296 5.296 0 1 0-10.593-.003 5.296 5.296 0 0 0 10.593.003zm42.385 0a5.298 5.298 0 1 0-10.596 0 5.298 5.298 0 0 0 10.596 0zm-52.98-42.385l-.558 31.796h54.091V16.545l-53.534.023zm15.352-6.386h22.272V7H32.455v3.182zM7 38.818v-19.09H3.818c-1.467 0-3.182 1.72-3.182 3.181v12.727c0 1.467 1.715 3.182 3.182 3.182H7z" opacity=".3"/>
</svg>
