<svg xmlns="http://www.w3.org/2000/svg" width="37" height="31" viewBox="0 0 37 31">
    <path fill="#FFF" fill-rule="evenodd" d="M32.722 30.677H4.09c-2.468 0-4.09-1.624-4.09-4.09V10.226c0-2.34 1.74-4.09 4.09-4.09h6.136V4.09C10.809 1.601 13.81 0 16.36 0h4.09c2.559 0 5.56 1.601 6.136 4.09v2.045h6.135c2.348 0 4.09 1.743 4.09 4.09v16.362c0 2.466-1.621 4.09-4.09 4.09zm2.045-20.451c0-1.338-.705-2.045-2.045-2.045h-6.135c-1.896 0-1.95-1.635-2.045-2.046l.049-1.026c-.389-1.653-2.442-3.064-4.14-3.064h-4.09c-1.697 0-3.759 1.411-4.147 3.064l.057 1.026c-.098.42-.086 2.046-2.045 2.046H4.09c-1.34 0-2.045.707-2.045 2.045v16.36c0 1.459.587 2.046 2.045 2.046h28.632c1.458 0 2.045-.587 2.045-2.045V10.226zm-16.36 14.316a6.135 6.135 0 1 1 0-12.271 6.135 6.135 0 0 1 0 12.27zm0-10.124a3.988 3.988 0 1 0 0 7.976 3.988 3.988 0 0 0 0-7.976zM6.282 12.285a1.227 1.227 0 1 1 0-2.454 1.227 1.227 0 0 1 0 2.454z"/>
</svg>
