<svg xmlns="http://www.w3.org/2000/svg" width="97" height="68" viewBox="0 0 97 68">
    <path fill="#066735" fill-rule="evenodd" d="M95.805 21.297a2.485 2.485 0 0 0-1.902-.894h-9.33c-2.306-6.008-5.3-11.894-8.711-14.115-11.795-7.678-43.079-7.678-54.874 0-3.41 2.224-6.398 8.114-8.715 14.115H2.944c-.736-.001-1.434.327-1.903.894a2.405 2.405 0 0 0-.5 2.027l1.382 6.618a2.45 2.45 0 0 0 2.402 1.938H7.09c-2.67 3.041-3.961 6.875-3.98 10.713-.016 4.737 1.8 9.02 5.129 12.05l.108.085v9.269c0 2.008 1.648 3.64 3.681 3.64h8.607c2.03 0 3.681-1.632 3.681-3.64V60.27h48.211v3.726c0 2.008 1.648 3.64 3.682 3.64h8.603c2.033 0 3.685-1.632 3.685-3.64V54.91c3.525-3.198 5.215-7.595 5.234-11.99.016-3.964-1.336-7.938-4.162-11.044h2.946c1.16.008 2.164-.8 2.406-1.934l1.384-6.622a2.425 2.425 0 0 0-.5-2.023zm-70.773-8.925c9.4-6.119 37.383-6.119 46.776 0 1.827 1.187 4.175 5.975 6.329 11.84h-59.43c2.148-5.865 4.499-10.65 6.325-11.84zM14.02 43.506c0-3.955 3.242-7.162 7.242-7.162 4.003 0 7.245 3.207 7.245 7.162 0 3.958-3.242 7.165-7.245 7.165-4 0-7.242-3.207-7.242-7.165zm61.657 7.165c-4 0-7.245-3.207-7.245-7.165 0-3.955 3.246-7.162 7.245-7.162 4.003 0 7.245 3.207 7.245 7.162 0 3.958-3.245 7.165-7.245 7.165z" opacity=".3"/>
</svg>
