<svg xmlns="http://www.w3.org/2000/svg" width="28" height="28" viewBox="0 0 28 28">
    <path fill="#05582D" fill-rule="evenodd" d="M23.58 23.393a13.63 13.63 0 0 1-9.647 3.996c-2.196 0-4.41-.53-6.431-1.62-1.817 1.308-3.592 1.59-4.797 1.59-.45 0-.818-.04-1.077-.08a1.278 1.278 0 0 1-.37-2.41c1.044-.513 1.748-1.539 2.186-2.422-4.468-5.378-4.122-13.352.858-18.332A13.53 13.53 0 0 1 13.94.119a13.53 13.53 0 0 1 9.637 3.996 13.543 13.543 0 0 1 4 9.64c0 3.643-1.418 7.061-3.995 9.638zM22.47 5.215c-4.703-4.71-12.364-4.71-17.072 0C.89 9.725.67 16.99 4.89 21.756c.11.127.173.282.19.438a.796.796 0 0 1-.04.502c-.432.986-1.17 2.254-2.34 3.107h.005c1.014 0 2.548-.254 4.11-1.464a.218.218 0 0 1 .063-.046.777.777 0 0 1 .946-.122 12.066 12.066 0 0 0 14.65-1.88c4.71-4.71 4.71-12.366-.005-17.076zm-3.598 9.496a.956.956 0 1 1 0-1.911.956.956 0 0 1 0 1.911zm-4.933 0a.957.957 0 1 1 0-1.914.957.957 0 0 1 0 1.914zm-4.934 0a.957.957 0 1 1 0-1.914.957.957 0 0 1 0 1.914z"/>
</svg>
