<svg xmlns="http://www.w3.org/2000/svg" width="176" height="156" viewBox="0 0 176 156">
    <g fill="none" fill-rule="evenodd">
        <path fill="#FFFCE1" d="M129.626 155.338c52.461 0 45.508-42.528 45.508-94.988S147.45 0 94.988 0C42.528 0 0 7.89 0 60.35s77.166 94.988 129.626 94.988z"/>
        <g fill-rule="nonzero">
            <path fill="#292929" d="M122.12 60.592h-3.873V58.1l2.417-2.662a7.478 7.478 0 0 0 1.946-5.037v-6.313c0-4.414-3.592-8.005-8.006-8.005h-3.682c-4.414 0-8.005 3.591-8.005 8.005v6.313a7.48 7.48 0 0 0 1.946 5.037l2.417 2.662v2.49h-3.874c-3.763 0-6.917 2.654-7.694 6.187a8.716 8.716 0 0 0-1.21-.086h-4.537v-3.047l2.768-3.048a8.25 8.25 0 0 0 2.146-5.556v-7.11c0-4.875-3.966-8.84-8.841-8.84a1.383 1.383 0 1 0 0 2.765 6.082 6.082 0 0 1 6.075 6.075v7.11c0 1.37-.507 2.683-1.428 3.696l-2.85 3.14a1.382 1.382 0 0 0-.635 1.163v5.036c0 .764.619 1.383 1.383 1.383h5.92a5.94 5.94 0 0 1 5.934 5.933v8.679H67.492v-8.679c0-2.55 1.618-4.73 3.882-5.567.106-.023.207-.058.303-.103a5.918 5.918 0 0 1 1.748-.263h5.92c.765 0 1.384-.62 1.384-1.384V63.04c0-.488-.253-.918-.636-1.164l-2.85-3.139a5.488 5.488 0 0 1-1.428-3.696v-7.11a6.082 6.082 0 0 1 6.075-6.075 1.383 1.383 0 1 0 0-2.766c-4.875 0-8.841 3.966-8.841 8.841v7.11a8.25 8.25 0 0 0 2.146 5.556l2.767 3.048v3.047h-4.537c-.386 0-.766.028-1.14.077-.78-3.529-3.931-6.177-7.692-6.177H60.72V58.1l2.417-2.662a7.478 7.478 0 0 0 1.945-5.037v-6.313c0-4.414-3.59-8.005-8.005-8.005h-3.682c-4.414 0-8.005 3.591-8.005 8.005v6.313c0 1.866.691 3.655 1.946 5.037l2.417 2.662v2.49h-3.874c-4.344 0-7.879 3.535-7.879 7.88v8.933c0 .764.62 1.383 1.383 1.383h21.52a1.383 1.383 0 1 0 0-2.766H40.765v-7.55a5.119 5.119 0 0 1 5.113-5.113h5.257c.764 0 1.383-.62 1.383-1.383v-4.47c0-.482-.246-.906-.618-1.153l-2.517-2.773a4.717 4.717 0 0 1-1.228-3.177v-6.313a5.245 5.245 0 0 1 5.24-5.239h3.681c2.89 0 5.24 2.35 5.24 5.239v6.313a4.717 4.717 0 0 1-1.228 3.177l-2.517 2.773a1.382 1.382 0 0 0-.618 1.152v4.47c0 .765.619 1.384 1.383 1.384h5.256a5.12 5.12 0 0 1 5.032 4.21c-2.898 1.413-4.9 4.388-4.9 7.824v10.061c0 .764.62 1.383 1.384 1.383h35.71c.764 0 1.383-.619 1.383-1.383V75.392c0-3.41-1.971-6.365-4.833-7.79a5.12 5.12 0 0 1 5.037-4.244h5.257c.764 0 1.383-.62 1.383-1.383v-4.471c0-.481-.246-.905-.618-1.153l-2.517-2.772a4.717 4.717 0 0 1-1.228-3.177v-6.313a5.245 5.245 0 0 1 5.24-5.239h3.681c2.89 0 5.24 2.35 5.24 5.239v6.313a4.717 4.717 0 0 1-1.228 3.177l-2.517 2.773a1.382 1.382 0 0 0-.618 1.152v4.47c0 .765.619 1.384 1.383 1.384h5.257a5.119 5.119 0 0 1 5.113 5.113v7.55h-19.898a1.383 1.383 0 1 0 0 2.766h21.28c.765 0 1.384-.619 1.384-1.383v-8.933c0-4.345-3.535-7.88-7.88-7.88z"/>
            <path fill="#05582D" d="M97.909 104.365a1.383 1.383 0 0 0-1.091-.938l-7.555-1.24-3.515-6.802a1.383 1.383 0 0 0-2.457 0l-3.514 6.802-7.555 1.24a1.383 1.383 0 0 0-.76 2.338l5.383 5.444-1.155 7.568a1.383 1.383 0 0 0 1.988 1.445l6.841-3.438 6.842 3.438a1.382 1.382 0 0 0 1.988-1.445l-1.156-7.568 5.383-5.444c.365-.368.493-.908.333-1.4zm-8.17 5.393c-.308.311-.45.75-.384 1.181l.856 5.609L85.14 114a1.383 1.383 0 0 0-1.242 0l-5.07 2.547.856-5.609a1.383 1.383 0 0 0-.384-1.181l-3.99-4.035 5.6-.919a1.384 1.384 0 0 0 1.004-.73l2.604-5.04 2.605 5.04c.2.389.573.66 1.004.73l5.6.92-3.99 4.034zM128.184 94.195a1.383 1.383 0 0 0-1.09-.937l-7.556-1.24-3.514-6.803a1.383 1.383 0 0 0-2.458 0l-3.514 6.802-7.555 1.24a1.383 1.383 0 0 0-.76 2.338l5.384 5.444-1.156 7.569a1.383 1.383 0 0 0 1.988 1.444l6.841-3.437 6.842 3.437a1.381 1.381 0 0 0 1.988-1.444l-1.156-7.569 5.384-5.444c.364-.368.492-.908.332-1.4zm-8.17 5.393c-.308.311-.45.75-.384 1.181l.856 5.61-5.07-2.548a1.383 1.383 0 0 0-1.242 0l-5.07 2.547.856-5.609a1.383 1.383 0 0 0-.384-1.18l-3.99-4.035 5.6-.92a1.383 1.383 0 0 0 1.004-.73l2.605-5.04 2.604 5.04c.2.39.573.66 1.005.73l5.599.92-3.99 4.034zM67.634 94.195a1.383 1.383 0 0 0-1.092-.937l-7.555-1.24-3.514-6.803a1.383 1.383 0 0 0-2.458 0l-3.513 6.803-7.556 1.24a1.383 1.383 0 0 0-.76 2.337l5.384 5.444-1.155 7.569a1.383 1.383 0 0 0 1.988 1.444l6.841-3.437 6.841 3.437a1.381 1.381 0 0 0 1.988-1.444l-1.155-7.569 5.383-5.444c.365-.368.493-.908.333-1.4zm-8.17 5.393c-.308.311-.45.75-.385 1.181l.856 5.61-5.07-2.548a1.38 1.38 0 0 0-1.242 0l-5.07 2.547.857-5.609a1.383 1.383 0 0 0-.384-1.18l-3.99-4.035 5.6-.92a1.384 1.384 0 0 0 1.005-.73l2.604-5.04 2.604 5.04c.2.39.573.66 1.005.73l5.599.92-3.99 4.034z"/>
        </g>
    </g>
</svg>
