<svg xmlns="http://www.w3.org/2000/svg" width="50" height="52" viewBox="0 0 50 52">
    <g fill="none" fill-rule="nonzero">
        <path fill="#292929" d="M47.557 26.729a1.518 1.518 0 0 1 0-1.345l1.94-3.96a4.501 4.501 0 0 0-1.949-5.985l-3.903-2.066a1.522 1.522 0 0 1-.792-1.088l-.764-4.342a4.516 4.516 0 0 0-5.102-3.698l-4.376.617a1.527 1.527 0 0 1-1.281-.416l-3.176-3.065a4.524 4.524 0 0 0-6.307 0L18.67 4.447c-.343.33-.81.482-1.282.415l-4.375-.617A4.515 4.515 0 0 0 7.91 7.943l-.763 4.342a1.522 1.522 0 0 1-.792 1.088L2.452 15.44a4.501 4.501 0 0 0-1.949 5.984l1.94 3.96c.21.428.21.918 0 1.345l-1.94 3.96a4.501 4.501 0 0 0 1.949 5.985l3.903 2.066c.422.223.71.62.793 1.088l.763 4.342a4.511 4.511 0 0 0 5.103 3.699l4.375-.618c.472-.067.94.085 1.282.416l3.176 3.065a4.527 4.527 0 0 0 6.307 0l3.176-3.065c.342-.33.81-.482 1.281-.416l4.376.618a4.515 4.515 0 0 0 5.102-3.699l.764-4.342c.082-.468.37-.865.792-1.088l3.903-2.066a4.501 4.501 0 0 0 1.95-5.984l-1.941-3.961zm-1.415 7.3l-3.904 2.066a4.497 4.497 0 0 0-2.341 3.216l-.764 4.342a1.528 1.528 0 0 1-1.726 1.251l-4.375-.617a4.512 4.512 0 0 0-3.789 1.228l-3.176 3.065a1.531 1.531 0 0 1-2.134 0l-3.176-3.065a4.508 4.508 0 0 0-3.788-1.228l-4.376.617a1.528 1.528 0 0 1-1.726-1.251l-.764-4.343a4.496 4.496 0 0 0-2.341-3.215L3.858 34.03a1.523 1.523 0 0 1-.659-2.025l1.94-3.96a4.487 4.487 0 0 0 0-3.975L3.2 20.11a1.523 1.523 0 0 1 .66-2.025l3.903-2.066a4.497 4.497 0 0 0 2.341-3.215l.764-4.343a1.528 1.528 0 0 1 1.726-1.25l4.375.617a4.513 4.513 0 0 0 3.79-1.229l3.175-3.065a1.531 1.531 0 0 1 2.134 0l3.176 3.065a4.513 4.513 0 0 0 3.789 1.229l4.375-.618a1.528 1.528 0 0 1 1.726 1.251l.764 4.343a4.496 4.496 0 0 0 2.341 3.215l3.904 2.066a1.523 1.523 0 0 1 .66 2.025l-1.942 3.96a4.487 4.487 0 0 0 0 3.975l1.941 3.96a1.523 1.523 0 0 1-.66 2.025z"/>
        <path fill="#05582D" d="M35.964 15.118a1.503 1.503 0 0 0-2.122 0l-19.806 19.76a1.498 1.498 0 1 0 1.061 2.556c.384 0 .768-.147 1.061-.44l19.806-19.758a1.494 1.494 0 0 0 0-2.118zM18.998 12.584c-3.034 0-5.502 2.462-5.502 5.489 0 3.026 2.468 5.489 5.502 5.489s5.502-2.463 5.502-5.49c0-3.026-2.468-5.488-5.502-5.488zm0 7.984a2.5 2.5 0 0 1-2.5-2.495 2.5 2.5 0 0 1 5.001 0 2.5 2.5 0 0 1-2.5 2.495zM31.002 28.552c-3.034 0-5.502 2.462-5.502 5.489 0 3.026 2.468 5.489 5.502 5.489s5.502-2.463 5.502-5.49c0-3.026-2.468-5.488-5.502-5.488zm0 7.983a2.5 2.5 0 0 1-2.5-2.494 2.5 2.5 0 0 1 5 0 2.5 2.5 0 0 1-2.5 2.494z"/>
    </g>
</svg>
