<svg xmlns="http://www.w3.org/2000/svg" width="56" height="35" viewBox="0 0 56 35">
    <path fill="#FFF" fill-rule="evenodd" d="M49.538 17.23v6.462h-2.153v-6.461h-6.462v-2.154h6.462V8.615h2.153v6.462H56v2.154h-6.462zM17.231 34.463C6.97 34.462 0 27.492 0 17.23 0 6.97 6.97 0 17.23 0 21.7 0 25.649.375 28 2.154l-4.308 6.461c-1.994-1.738-3.793-2.153-6.461-2.153-6.156 0-10.77 4.613-10.77 10.769 0 6.155 4.218 11.165 10.373 11.165 4.853 0 9.628-4.68 11.166-9.011H17.23v-4.308h17.232v4.308c.01 5.352-6.97 15.077-17.231 15.077z"/>
</svg>
