<svg xmlns="http://www.w3.org/2000/svg" width="55" height="49" viewBox="0 0 55 49">
    <g fill="none" fill-rule="nonzero">
        <path fill="#292929" d="M33.197 6.43L21.14 4.266c-5.423-1.08-10.716 2.455-11.81 7.892l-.556 2.767c-.614 3.055 1.365 6.041 4.411 6.657 3.047.616 6.024-1.368 6.639-4.423l.34-1.692 5.406.474L39.69 30.1l2.559 2.567c.518.52.518 1.366 0 1.885-.518.52-1.362.52-1.88 0l-6.855-6.875a1.22 1.22 0 0 0-1.729 0 1.229 1.229 0 0 0 0 1.735l6.855 6.874c.251.252.39.587.39.943s-.139.69-.39.942c-.518.52-1.361.52-1.88 0l-6.854-6.875a1.22 1.22 0 0 0-1.729 0 1.229 1.229 0 0 0 0 1.735l6.855 6.874c.518.52.518 1.365 0 1.885-.251.252-.585.39-.94.39s-.689-.138-.94-.39l-6.854-6.875a1.22 1.22 0 0 0-1.73 0 1.229 1.229 0 0 0 0 1.734l6.855 6.875c.519.52.518 1.366 0 1.885-.518.52-1.36.52-1.88 0L5.29 21.086l-3.203-3.212a1.22 1.22 0 0 0-1.729 0 1.229 1.229 0 0 0 0 1.734l3.203 3.212 3.486 3.496-1.922 1.927a3.324 3.324 0 0 0-.975 2.362c0 .893.346 1.732.975 2.363l.627.628c.55.552 1.259.887 2.023.962.075.767.409 1.477.959 2.029l.627.629a3.31 3.31 0 0 0 2.022.96c.075.766.409 1.478.96 2.03l.627.629c.55.551 1.258.886 2.022.962a3.32 3.32 0 0 0 .96 2.028l.626.629c.65.651 1.503.977 2.356.977s1.706-.326 2.355-.977l1.921-1.927 4.605 4.617a3.744 3.744 0 0 0 2.669 1.11 3.744 3.744 0 0 0 2.668-1.11 3.76 3.76 0 0 0 1.098-2.518 3.74 3.74 0 0 0 2.511-1.1 3.772 3.772 0 0 0 1.096-2.52 3.75 3.75 0 0 0 2.512-1.1 3.772 3.772 0 0 0 1.097-2.52 3.75 3.75 0 0 0 2.512-1.099 3.797 3.797 0 0 0 0-5.353l-1.694-1.7 6.414-7.652c-9.11-9.347-14.278-14.397-15.5-15.152zM6.854 31.233a.891.891 0 0 1 0-1.256l1.802-1.807 1.88 1.885-1.802 1.807a.885.885 0 0 1-1.253 0l-.627-.629zm3.609 3.62a.89.89 0 0 1 0-1.257l1.802-1.807 1.88 1.885-1.802 1.807a.885.885 0 0 1-1.253 0l-.627-.629zm3.608 3.619a.884.884 0 0 1-.259-.628c0-.237.092-.46.26-.628l1.801-1.807 1.88 1.884L15.95 39.1a.885.885 0 0 1-1.253 0l-.627-.628zm5.489 4.248a.885.885 0 0 1-1.253 0l-.627-.63a.891.891 0 0 1 0-1.255l1.802-1.807 1.88 1.885-1.802 1.807zM40.554 27.5l-13.57-13.609a1.22 1.22 0 0 0-.758-.354l-6.939-.609a1.224 1.224 0 0 0-1.305.98l-.556 2.766a3.194 3.194 0 0 1-3.758 2.504 3.169 3.169 0 0 1-2.026-1.365 3.186 3.186 0 0 1-.47-2.404l.556-2.766c.828-4.122 4.844-6.8 8.956-5.968l.026.005 11.88 2.133 1.464 1.467 11.835 11.87-5.335 5.35z"/>
        <path stroke="#05582D" stroke-width="2" d="M53.636 14.38l-3.447 3.457-11.835-11.87a1.228 1.228 0 0 1-.36-.872c0-.33.128-.64.36-.873l2.577-2.584a1.22 1.22 0 0 1 .87-.362c.328 0 .637.129.87.362l10.965 10.997c.232.233.36.543.36.873 0 .33-.128.64-.36.872z"/>
    </g>
</svg>
