<svg xmlns="http://www.w3.org/2000/svg" width="140" height="85" viewBox="0 0 140 85">
    <path fill="#292929" fill-rule="evenodd" d="M47.948 3.053c0 2.315 3.358 6.392-3.25 12.962-4.233 4.209-8.95 4.892-14.331 1.918-5.311-2.943-3-5.382-8.069-.35-1.07 1.064-2.14 2.19-2.983 3.433.773 1.445 6.639 5.646 3.288 12.255-.703 1.398-1.093 1.825-2.156 2.897-2.155 2.166-4.944 2.958-8.115 2.958-2.061 0-3.249-.815-5.209-.815-.125.536-.297.885-.508 1.398L4.952 43.91c-.375.94-.688 1.786-1.07 2.742-.375.924-.734 1.98-1.14 2.819 2.819 1.483 4.139 1.887 6.404 4.116.96.94 1.515 1.81 2.093 3.09 1.414 3.13.976 6.71-.055 9.762-1.28 3.798-4.795 6.702-8.755 7.362-2.101.35-2.429.055-2.429 1.53 0 2.96.726 5.965 1.375 8.714h5.201c1.828 0 3.296.14 5.21.14 2.46 0 5.287-.156 7.693.116 1.062.117 1.75-.116 2.577-.116 0-1.515-.82-4.334-1.171-5.918-.93-4.085-.484-5.887-.828-8.17l.226-5.102c.29-5.312 2.484-12.597 4.655-16.883 1.562-3.107 3.32-6.275 5.499-8.97l2.413-2.912c.344-.365.43-.575.812-.956.633-.613 1.149-1.164 1.781-1.77.375-.35.594-.443.969-.808l1.968-1.724c2.398-1.903 4.905-3.58 7.537-5.164 6.022-3.611 16.113-6.151 22.853-6.151 5.545 0 6.553.202 11.762.839 1.414.17 8.6 2.578 9.685 3.028.484.202.726.365 1.218.567 2.304.948 6.022 3.192 8.037 4.668.711.52 1.32.994 2.007 1.545l2.937 2.524c1.086 1.087 1.593 1.351 2.75 2.718.327.389.491.497.843.932l3.952 5.056c.406.536.851 1.025 1.117 1.615.125.272.164.396.304.645 3.093 5.521 4.757 8.045 6.24 15.438.829 4.132 1.079 8.434.93 13.25-.015.667-.117.861-.14 1.622-.047 1.546-.422 3.215-.68 4.769-.343 2.027-1.203 3.937-1.374 5.987l20.549.14c.46 0 .687-.792.687-1.227 0-.31-3.382-1.336-3.796-1.538-1.343-.668-2.062-1.281-3.023-2.306-1.554-1.662-2.772-5.04-2.772-8.139 0-5.863 3.225-9.894 8.138-11.92 1.648-.676 1.859-.296 1.859-2.098 0-2.718-1.421-8.519-2.46-10.072-3.062.256-4.327 1.413-8.006.466-.578-.148-.523-.148-.992-.373-1.554-.753-3.163-1.646-4.233-3.005-2.585-3.285-3.35-5.724-3.35-10.018 0-2.462 1.28-5.514 2.842-7.114 1.75-1.802 2.976-1.328-2.46-6.74l-4.624-4.389c-.812.427-1.124.862-1.78 1.367l-1.96 1.313c-3.375 1.716-8.123 1.522-11.38-.047-2.57-1.235-4.507-2.998-5.608-5.584-.438-1.017-.531-1.833-.742-2.935-.32-1.616-.172-1.647-.18-3.23-.015-4.373 2.617-3.573-6.678-5.888-.757-.186-1.687-.512-2.632-.512-.296 1.274-.968 2.726-1.671 3.782-.547.83-1.195 1.514-1.921 2.174-.29.264-.477.466-.758.746-1.773 1.786-5.452 3.099-7.982 3.099-2.273 0-3.991-.365-5.772-1.072-.773-.303-1.265-.637-1.953-1.049-2.147-1.273-4.56-4.154-5.303-6.577-.757-2.447-.195-2.431-4.085-1.639-.484.101-.898.21-1.437.342-.726.178-.835.295-1.406.505-.812.287-5.521 1.079-5.521 1.731z"/>
</svg>
