<svg xmlns="http://www.w3.org/2000/svg" width="15" height="15" viewBox="0 0 15 15">
    <path fill="#251E1B" fill-rule="evenodd" d="M7.5 5.052A2.455 2.455 0 0 0 5.052 7.5 2.455 2.455 0 0 0 7.5 9.948 2.456 2.456 0 0 0 9.948 7.5 2.456 2.456 0 0 0 7.5 5.052zm5.447 1.836c-.306-2.57-2.326-4.59-4.835-4.835V.768H6.888v1.285a5.356 5.356 0 0 0-4.835 4.835H.768v1.224h1.285c.306 2.57 2.326 4.59 4.835 4.835v1.285h1.224v-1.285c2.57-.306 4.59-2.326 4.835-4.835h1.285V6.888h-1.285zM7.5 11.784A4.257 4.257 0 0 1 3.216 7.5 4.257 4.257 0 0 1 7.5 3.216 4.257 4.257 0 0 1 11.784 7.5 4.257 4.257 0 0 1 7.5 11.784z"/>
</svg>
