<svg xmlns="http://www.w3.org/2000/svg" width="44" height="44" viewBox="0 0 44 44">
    <g fill="none" fill-rule="nonzero">
        <path fill="#292929" d="M43.816 35.068l-7.98-13.854a15.023 15.023 0 0 0 1.29-6.089C37.125 6.785 30.34 0 22 0 13.66 0 6.875 6.784 6.875 15.125a15 15 0 0 0 1.29 6.086L.185 35.063a1.374 1.374 0 0 0 .101 1.526c.341.44.91.638 1.447.49l8.074-2.173 2.148 8.071A1.371 1.371 0 0 0 13.283 44c.487 0 .943-.258 1.19-.688L22 30.284l7.527 13.03a1.375 1.375 0 0 0 2.52-.333l2.147-8.072 8.074 2.173a1.375 1.375 0 1 0 1.548-2.013zm-30.06 3.99l-1.647-6.19a1.384 1.384 0 0 0-.641-.839 1.402 1.402 0 0 0-1.045-.137l-6.199 1.666 5.528-9.595c2.192 3.031 5.467 5.226 9.265 5.99l-5.261 9.105zm-4.13-23.933C9.625 8.302 15.177 2.75 22 2.75c6.823 0 12.375 5.552 12.375 12.375S28.823 27.5 22 27.5c-6.822 0-12.375-5.552-12.375-12.375zm23.952 16.77a1.387 1.387 0 0 0-1.045.137 1.369 1.369 0 0 0-.64.839l-1.648 6.19-5.26-9.105c3.794-.762 7.072-2.96 9.264-5.99l5.527 9.595-6.198-1.666z"/>
        <path fill="#05582D" d="M30.179 11.693a1.37 1.37 0 0 0-.957-.896l-3.9-1.02-2.14-3.603c-.494-.836-1.87-.836-2.361 0l-2.14 3.602-3.902 1.02a1.374 1.374 0 0 0-.729 2.19l2.615 3.272-.286 4.276c-.03.476.187.935.578 1.213.39.278.896.33 1.334.143L22 20.314l3.71 1.576a1.38 1.38 0 0 0 1.336-.143c.39-.278.607-.737.574-1.213l-.286-4.276 2.613-3.272c.291-.364.377-.85.23-1.293zm-5.324 3.267c-.215.27-.322.608-.297.949l.173 2.576-2.192-.932a1.37 1.37 0 0 0-1.078 0l-2.189.932.17-2.576a1.366 1.366 0 0 0-.296-.949l-1.625-2.038 2.4-.63c.35-.09.65-.319.834-.627L22 9.567l1.246 2.098c.184.309.484.537.833.628l2.401.63-1.625 2.037z"/>
    </g>
</svg>
