<svg xmlns="http://www.w3.org/2000/svg" width="42" height="42" viewBox="0 0 42 42">
    <g fill="none" fill-rule="nonzero">
        <path fill="#292929" d="M4.974 29.03c-6.632-6.632-6.632-17.423 0-24.056 6.632-6.632 17.424-6.632 24.056 0 5.627 5.627 6.48 13.995 2.559 20.53 0 0-.282.472.099.852l8.678 8.679c1.728 1.727 2.139 4.143.607 5.675l-.264.263c-1.531 1.532-3.947 1.121-5.674-.606l-8.66-8.66c-.4-.4-.871-.118-.871-.118-6.535 3.92-14.903 3.068-20.53-2.558zm20.916-3.14c4.9-4.9 4.9-12.874 0-17.775-4.9-4.9-12.875-4.9-17.775 0-4.9 4.9-4.9 12.874 0 17.775 4.9 4.9 12.874 4.9 17.775 0z"/>
        <path fill="#05582D" d="M24.804 15.993a1.756 1.756 0 0 0 1.616-2.44C24.045 7.94 17.547 5.306 11.935 7.68a1.756 1.756 0 0 0 1.368 3.234c3.83-1.62 8.263.177 9.884 4.006.283.67.933 1.072 1.617 1.072z"/>
    </g>
</svg>
