<svg xmlns="http://www.w3.org/2000/svg" width="40" height="48" viewBox="0 0 40 48">
    <g fill="none" fill-rule="nonzero">
        <path fill="#292929" d="M39.953 12.837l-.001-.037c-.02-.451-.034-.929-.043-1.46-.038-2.59-2.097-4.732-4.687-4.877-5.4-.301-9.579-2.062-13.148-5.542l-.03-.029a3.006 3.006 0 0 0-4.086 0l-.03.03c-3.57 3.479-7.748 5.24-13.15 5.542C2.189 6.608.13 8.75.092 11.34A48.412 48.412 0 0 1 .05 12.8l-.002.085c-.105 5.507-.236 12.36 2.057 18.582 1.261 3.42 3.17 6.395 5.675 8.839 2.853 2.784 6.59 4.994 11.105 6.569a3.434 3.434 0 0 0 1.116.19 3.373 3.373 0 0 0 1.118-.191c4.51-1.578 8.243-3.789 11.094-6.572 2.503-2.445 4.412-5.42 5.674-8.842 2.302-6.24 2.172-13.106 2.067-18.623zM35.3 30.507c-2.418 6.557-7.355 11.06-15.091 13.765a.62.62 0 0 1-.416 0c-7.746-2.7-12.686-7.201-15.102-13.758-2.114-5.734-1.994-12.026-1.888-17.576v-.031c.022-.477.036-.977.044-1.526a2.213 2.213 0 0 1 2.086-2.165c3.056-.171 5.74-.762 8.208-1.806 2.464-1.043 4.652-2.513 6.689-4.494a.254.254 0 0 1 .34 0c2.038 1.981 4.227 3.451 6.69 4.494 2.467 1.044 5.152 1.635 8.208 1.806a2.212 2.212 0 0 1 2.085 2.166c.009.551.023 1.051.045 1.525.105 5.557.222 11.853-1.898 17.6z"/>
        <path fill="#05582D" d="M20 11.872c-6.455 0-11.707 5.252-11.707 11.707 0 6.455 5.252 11.706 11.707 11.706 6.454 0 11.706-5.251 11.706-11.706 0-6.455-5.252-11.707-11.706-11.707zm0 20.657c-4.935 0-8.95-4.015-8.95-8.95s4.015-8.95 8.95-8.95c4.934 0 8.95 4.015 8.95 8.95s-4.016 8.95-8.95 8.95z"/>
        <path fill="#05582D" d="M23.364 19.944l-5.437 5.438-1.476-1.476a1.378 1.378 0 0 0-1.95 1.949l2.451 2.45c.27.27.622.404.975.404.352 0 .705-.135.974-.404l6.412-6.412a1.378 1.378 0 0 0-1.949-1.949z"/>
    </g>
</svg>
