<?xml version="1.0" encoding="UTF-8"?>
<!DOCTYPE svg PUBLIC "-//W3C//DTD SVG 1.1//EN" "http://www.w3.org/Graphics/SVG/1.1/DTD/svg11.dtd">
<!-- Creator: CorelDRAW Home & Student 2014 -->
<svg xmlns="http://www.w3.org/2000/svg" xml:space="preserve" width="297mm" height="210mm" version="1.1" style="shape-rendering:geometricPrecision; text-rendering:geometricPrecision; image-rendering:optimizeQuality; fill-rule:evenodd; clip-rule:evenodd"
viewBox="0 0 29700 21000"
 xmlns:xlink="http://www.w3.org/1999/xlink">
 <defs>
  <style type="text/css">
   <![CDATA[
    .str0 {stroke:#015030;stroke-width:7.62}
    .str1 {stroke:#16712E;stroke-width:7.62}
    .fil0 {fill:none}
    .fil3 {fill:#015030}
    .fil2 {fill:#E6E105}
    .fil5 {fill:#FBFCFB}
    .fil4 {fill:#FDFDFD}
    .fil1 {fill:#015030;fill-rule:nonzero}
   ]]>
  </style>
 </defs>
 <g id="Ebene_x0020_1">
  <metadata id="CorelCorpID_0Corel-Layer"/>
  <rect class="fil0" width="29700" height="21000"/>
  <path class="fil1 str0" d="M4715 14844l284 0 738 2374 -442 0 -438 -1589 -437 1589 -441 0 736 -2374zm-327 1594l949 0 0 404 -949 0 0 -404zm2221 804c-150,0 -279,-29 -386,-87 -107,-58 -189,-143 -245,-254 -56,-111 -84,-244 -84,-400l0 -1657 426 0 0 1668c0,97 26,172 76,226 51,53 122,80 213,80 93,0 165,-27 215,-80 52,-54 77,-129 77,-226l0 -1668 428 0 0 1657c0,156 -28,289 -85,400 -56,111 -139,196 -246,254 -108,58 -238,87 -389,87zm1371 -2202l427 0 0 2178 -427 0 0 -2178zm-519 -196l1465 0 0 410 -1465 0 0 -410zm2339 2398c-149,0 -279,-29 -391,-87 -111,-58 -196,-141 -256,-249 -60,-108 -90,-235 -90,-380l0 -990c0,-146 30,-273 90,-381 60,-109 145,-192 256,-249 112,-58 242,-87 391,-87 150,0 280,29 392,87 111,57 196,140 256,249 60,108 90,235 90,381l0 990c0,145 -30,272 -90,380 -60,108 -145,191 -256,249 -112,58 -242,87 -392,87zm0 -426c61,0 114,-13 160,-38 46,-26 80,-62 104,-109 24,-46 36,-102 36,-165l0 -950c0,-62 -12,-116 -36,-163 -24,-47 -58,-83 -104,-109 -46,-25 -99,-38 -160,-38 -61,0 -114,13 -159,38 -46,26 -80,62 -104,109 -24,47 -36,101 -36,163l0 950c0,63 12,119 36,165 24,47 58,83 104,109 45,25 98,38 159,38zm1334 -4l556 0c77,0 136,-20 178,-58 41,-38 63,-91 63,-160l0 -161c0,-50 -10,-92 -29,-127 -19,-36 -47,-62 -83,-81 -37,-18 -81,-28 -132,-28l-553 0 0 -403 548 0c70,0 124,-19 163,-58 38,-39 58,-93 58,-164l0 -128c0,-61 -20,-109 -58,-144 -39,-34 -93,-51 -163,-51l-548 0 0 -405 576 0c131,0 242,22 335,66 92,44 163,109 211,193 47,85 71,188 71,307l0 127c0,82 -16,155 -47,218 -32,63 -78,115 -139,156 -61,41 -134,68 -219,82 92,12 170,40 235,83 66,43 115,98 150,167 34,69 51,149 51,240l0 164c0,120 -24,223 -72,309 -48,85 -118,150 -210,195 -93,45 -204,67 -333,67l-609 0 0 -406zm-214 -1968l426 0 0 2374 -426 0 0 -2374zm1781 0l426 0 0 2374 -426 0 0 -2374zm170 1961l1152 0 0 413 -1152 0 0 -413zm0 -973l1022 0 0 413 -1022 0 0 -413zm0 -988l1152 0 0 413 -1152 0 0 -413zm2116 2398c-135,0 -253,-20 -353,-59 -101,-40 -185,-99 -251,-176 -67,-78 -113,-175 -141,-292l0 0 397 -177 0 0c31,96 78,169 141,218 64,49 141,73 231,73 94,0 167,-20 220,-62 51,-41 78,-99 78,-173l0 -106c0,-53 -16,-97 -46,-131 -31,-35 -70,-62 -118,-83 -49,-20 -113,-43 -194,-68 -3,-1 -6,-3 -9,-3 -2,-1 -5,-1 -7,-2l-20 -7c-129,-39 -235,-79 -318,-120 -82,-41 -152,-105 -210,-191 -58,-86 -87,-203 -87,-349l0 -62c0,-137 28,-254 85,-353 57,-97 140,-172 250,-223 110,-51 242,-77 398,-77 117,0 221,19 311,57 89,38 165,95 225,170 61,75 105,169 133,281l0 0 -376 178 0 0c-31,-90 -74,-159 -128,-206 -55,-46 -118,-70 -190,-70 -90,0 -160,19 -209,57 -50,39 -75,92 -75,160l0 79c0,58 16,106 48,143 32,37 73,67 121,89 48,21 116,45 202,71 5,2 11,3 18,5 8,2 14,5 21,8 5,1 10,3 15,5 4,1 9,2 14,4 119,36 217,76 295,119 78,42 143,105 195,188 52,84 79,194 79,331l0 101c0,137 -29,255 -88,353 -58,98 -143,172 -255,223 -111,52 -245,77 -402,77zm1370 -2202l426 0 0 2178 -426 0 0 -2178zm-519 -196l1465 0 0 410 -1465 0 0 -410zm1822 1043l590 0c44,0 81,-10 113,-30 33,-20 58,-49 75,-86 18,-37 27,-80 27,-129l0 -139c0,-51 -8,-95 -26,-133 -17,-37 -42,-66 -74,-86 -32,-20 -70,-30 -115,-30l-590 0 0 -410 590 0c133,0 248,25 347,75 98,51 174,124 227,219 52,96 79,208 79,336l0 199c0,128 -27,238 -80,332 -54,93 -129,166 -227,216 -98,50 -213,76 -346,76l-590 0 0 -410zm-196 -1043l427 0 0 2374 -427 0 0 -2374zm2190 0l284 0 738 2374 -442 0 -438 -1589 -437 1589 -441 0 736 -2374zm-327 1594l949 0 0 404 -949 0 0 -404zm1764 -610l627 0c40,0 76,-9 105,-27 30,-18 54,-43 70,-76 16,-32 24,-71 24,-116l0 -132c0,-45 -8,-86 -24,-120 -15,-34 -38,-60 -69,-78 -30,-18 -66,-27 -106,-27l-627 0 0 -410 632 0c130,0 242,25 337,75 95,50 169,122 219,216 52,95 77,206 77,333l0 138c0,130 -25,243 -77,338 -50,95 -124,168 -220,219 -96,51 -208,77 -336,77l-632 0 0 -410zm-180 -986l422 0 0 2376 -422 0 0 -2376zm595 1322l424 -74 509 1128 -488 0 -445 -1054zm1525 -1124l426 0 0 2178 -426 0 0 -2178zm-519 -196l1465 0 0 410 -1465 0 0 -410zm2281 2398c-135,0 -253,-20 -353,-59 -101,-40 -185,-99 -251,-176 -66,-78 -113,-175 -141,-292l0 0 397 -177 0 0c31,96 78,169 141,218 64,49 141,73 232,73 93,0 166,-20 219,-62 51,-41 78,-99 78,-173l0 -106c0,-53 -15,-97 -46,-131 -31,-35 -70,-62 -118,-83 -49,-20 -113,-43 -194,-68 -3,-1 -6,-3 -9,-3 -2,-1 -5,-1 -7,-2l-20 -7c-129,-39 -235,-79 -318,-120 -81,-41 -152,-105 -210,-191 -58,-86 -87,-203 -87,-349l0 -62c0,-137 28,-254 85,-353 58,-97 141,-172 250,-223 110,-51 242,-77 398,-77 117,0 221,19 311,57 89,38 165,95 225,170 61,75 105,169 133,281l0 0 -376 178 0 0c-31,-90 -74,-159 -128,-206 -55,-46 -118,-70 -190,-70 -90,0 -160,19 -209,57 -50,39 -75,92 -75,160l0 79c0,58 16,106 48,143 32,37 73,67 121,89 48,21 116,45 202,71 5,2 11,3 19,5 7,2 13,5 20,8 5,1 10,3 15,5 4,1 9,2 14,4 119,36 217,76 295,119 78,42 143,105 195,188 52,84 79,194 79,331l0 101c0,137 -29,255 -88,353 -58,98 -143,172 -255,223 -111,52 -245,77 -402,77z"/>
  <path class="fil1" d="M7814 19156c-75,0 -139,-14 -193,-43 -53,-29 -93,-72 -121,-127 -27,-56 -41,-124 -41,-203l0 -867 166 0 0 874c0,65 17,115 49,150 33,36 79,53 140,53 60,0 107,-17 140,-53 33,-35 49,-85 49,-150l0 -874 167 0 0 867c0,79 -14,147 -42,203 -27,55 -67,98 -121,127 -53,29 -118,43 -193,43zm818 0c-59,0 -110,-8 -153,-23 -44,-15 -79,-39 -107,-70 -28,-31 -48,-70 -61,-116l0 0 148 -66 0 0c17,42 40,74 69,95 28,20 63,31 104,31 51,0 91,-10 118,-31 27,-21 40,-50 40,-89 0,-25 -7,-45 -22,-60 -15,-14 -33,-25 -55,-32 -21,-7 -53,-14 -93,-21 -4,-1 -7,-2 -11,-2 -4,-1 -8,-2 -11,-2 -2,-1 -4,-1 -6,-2 -2,0 -4,0 -6,0 -49,-10 -91,-22 -125,-37 -34,-15 -63,-40 -86,-73 -23,-34 -34,-79 -34,-136 0,-58 11,-107 34,-147 23,-40 57,-70 101,-90 44,-21 98,-31 161,-31 55,0 101,7 141,21 40,13 73,34 100,62 26,28 46,63 59,104l0 0 -149 67 0 0c-15,-35 -35,-62 -60,-80 -25,-17 -55,-26 -91,-26 -44,0 -78,9 -100,29 -23,20 -35,49 -35,87 0,24 7,43 22,57 14,13 32,23 54,30 22,6 52,12 91,19 1,0 3,0 4,0 2,0 3,1 4,1 1,0 3,1 4,1 2,0 3,0 4,0 55,9 100,21 136,35 37,14 68,39 93,75 25,36 37,86 37,151 0,58 -12,107 -36,147 -25,40 -61,71 -108,91 -48,21 -106,31 -175,31zm813 0c-68,0 -127,-13 -176,-39 -48,-27 -86,-66 -111,-117 -26,-51 -39,-113 -39,-186l0 -201c0,-76 13,-141 38,-195 24,-53 60,-94 107,-122 47,-28 104,-42 170,-42 65,0 119,15 165,44 46,29 80,71 104,127 24,56 36,123 36,202l0 144 -501 0 0 -136 342 0 0 -47c0,-58 -13,-103 -39,-135 -26,-33 -62,-49 -107,-49 -49,0 -88,18 -115,52 -27,35 -41,84 -41,147l0 216c0,57 15,102 44,133 29,31 70,47 123,47 35,0 63,-8 85,-23 22,-16 38,-39 47,-69l0 0 152 49 0 0c-16,66 -48,116 -96,150 -48,33 -111,50 -188,50zm921 -1240l166 0 0 1228 -166 0 0 -1228zm-196 1243c-53,0 -97,-12 -135,-36 -37,-25 -65,-60 -85,-106 -19,-47 -29,-102 -29,-167l0 -284c0,-66 10,-123 29,-170 19,-47 47,-83 84,-107 36,-24 80,-37 131,-37 46,0 88,14 126,41 39,27 69,65 93,114l-18 152c0,-33 -5,-60 -16,-83 -11,-23 -26,-41 -47,-53 -20,-12 -45,-18 -74,-18 -45,0 -80,15 -104,44 -25,29 -37,70 -37,123l0 275c0,50 12,89 37,117 24,27 59,41 104,41 29,0 54,-6 74,-18 21,-12 36,-30 47,-52 11,-23 16,-50 16,-83l12 154c-16,46 -42,83 -78,111 -36,28 -80,42 -130,42zm1162 -3c-68,0 -127,-12 -175,-37 -48,-25 -84,-62 -110,-110 -25,-48 -38,-105 -38,-173l0 -257c0,-69 13,-127 38,-176 26,-49 62,-86 110,-111 48,-25 107,-38 175,-38 56,0 104,8 144,25 41,17 73,43 98,77 25,34 41,76 50,127l0 0 -153 48 0 0c-8,-40 -24,-70 -48,-90 -23,-21 -53,-31 -89,-31 -50,0 -89,15 -117,44 -27,30 -41,71 -41,125l0 257c0,52 14,92 41,121 28,29 67,43 117,43 37,0 67,-10 90,-30 23,-20 39,-49 47,-88l0 0 154 52 0 0c-8,48 -25,89 -49,123 -25,34 -58,58 -99,75 -41,16 -89,24 -145,24zm884 -611c0,-46 -13,-82 -38,-108 -24,-25 -59,-38 -104,-38 -32,0 -61,8 -86,23 -25,14 -44,36 -57,63l-141 -43c16,-60 49,-107 99,-139 49,-34 111,-50 185,-50 63,0 118,12 163,34 45,23 80,56 103,99 24,43 36,95 36,156l0 602 -160 0 0 -599zm-187 611c-90,0 -157,-21 -202,-64 -45,-43 -67,-107 -67,-194 0,-93 23,-162 70,-208 47,-46 118,-69 212,-69l181 0 12 141 -192 0c-42,0 -73,11 -94,34 -21,22 -31,56 -31,102 0,39 11,69 35,88 23,19 58,29 106,29 52,0 92,-10 118,-28 26,-18 39,-46 39,-83l17 102c-8,34 -20,62 -38,84 -18,22 -40,39 -68,50 -28,11 -60,16 -98,16zm571 -889l166 0 0 877 -166 0 0 -877zm441 177c-9,-10 -21,-17 -35,-22 -14,-4 -30,-7 -48,-7 -61,0 -108,15 -141,47 -33,30 -50,73 -51,128l-18 -170c28,-53 64,-94 108,-123 43,-29 92,-44 144,-44 21,0 39,3 55,9 16,6 30,14 43,26l-57 156zm472 -177l166 0 0 1233 -166 0 0 -1233zm358 889c-48,0 -91,-13 -126,-39 -35,-27 -61,-64 -77,-111l11 -159c0,33 6,61 17,85 11,23 27,42 47,54 20,13 45,19 74,19 44,0 79,-15 104,-45 25,-29 37,-71 37,-125l0 -260c0,-54 -12,-96 -37,-126 -25,-30 -60,-45 -104,-45 -29,0 -54,6 -74,18 -20,13 -36,30 -47,53 -11,24 -17,51 -17,84l-18 -146c23,-51 53,-90 91,-118 38,-28 80,-42 126,-42 52,0 97,12 134,37 36,25 64,61 83,109 19,47 29,105 29,172l0 266c0,67 -10,124 -29,172 -20,48 -49,85 -87,110 -38,25 -84,37 -137,37zm889 -611c0,-46 -13,-82 -37,-108 -25,-25 -60,-38 -105,-38 -32,0 -61,8 -86,23 -25,14 -44,36 -57,63l-141 -43c17,-60 50,-107 99,-139 50,-34 111,-50 185,-50 63,0 118,12 163,34 46,23 80,56 104,99 23,43 35,95 35,156l0 602 -160 0 0 -599zm-187 611c-90,0 -157,-21 -202,-64 -45,-43 -67,-107 -67,-194 0,-93 23,-162 70,-208 48,-46 118,-69 213,-69l180 0 12 141 -192 0c-42,0 -73,11 -94,34 -21,22 -31,56 -31,102 0,39 11,69 35,88 23,19 59,29 106,29 52,0 92,-10 118,-28 26,-18 39,-46 39,-83l17 102c-7,34 -20,62 -38,84 -18,22 -40,39 -68,50 -28,11 -60,16 -98,16zm571 -889l166 0 0 877 -166 0 0 -877zm441 177c-9,-10 -21,-17 -35,-22 -14,-4 -30,-7 -48,-7 -60,0 -107,15 -141,47 -33,30 -50,73 -51,128l-18 -170c28,-53 64,-94 108,-123 44,-29 92,-44 145,-44 20,0 38,3 54,9 16,6 30,14 43,26l-57 156zm426 704c-71,0 -123,-20 -156,-59 -33,-39 -49,-97 -49,-173l0 -904 166 0 0 905c0,23 5,40 14,53 10,13 24,20 42,20l74 0 0 158 -91 0zm-296 -881l387 0 0 154 -387 0 0 -154zm829 889c-60,0 -111,-8 -154,-23 -43,-15 -79,-39 -107,-70 -28,-31 -48,-70 -61,-116l0 0 148 -66 0 0c17,42 40,74 69,95 29,20 63,31 105,31 51,0 90,-10 117,-31 27,-21 40,-50 40,-89 0,-25 -7,-45 -22,-60 -14,-14 -33,-25 -54,-32 -22,-7 -54,-14 -94,-21 -4,-1 -7,-2 -11,-2 -4,-1 -8,-2 -11,-2 -2,-1 -4,-1 -6,-2 -2,0 -4,0 -6,0 -49,-10 -91,-22 -125,-37 -34,-15 -63,-40 -86,-73 -22,-34 -34,-79 -34,-136 0,-58 12,-107 34,-147 23,-40 57,-70 101,-90 44,-21 98,-31 161,-31 55,0 102,7 141,21 40,13 74,34 100,62 27,28 46,63 59,104l0 0 -149 67 0 0c-15,-35 -35,-62 -60,-80 -25,-17 -55,-26 -91,-26 -44,0 -78,9 -100,29 -23,20 -35,49 -35,87 0,24 8,43 22,57 14,13 32,23 54,30 22,6 52,12 91,19 1,0 3,0 5,0 1,0 2,1 3,1 1,0 3,1 5,1 1,0 2,0 4,0 54,9 99,21 136,35 36,14 67,39 92,75 25,36 38,86 38,151 0,58 -13,107 -37,147 -25,40 -61,71 -108,91 -48,21 -106,31 -174,31zm1282 -532l0 158 -500 0 0 -158 500 0zm858 532c-75,0 -141,-15 -196,-46 -55,-31 -98,-75 -128,-132 -30,-57 -45,-125 -45,-202l0 -492c0,-78 15,-146 45,-203 30,-57 73,-101 128,-131 55,-31 121,-47 196,-47 74,0 139,16 195,47 55,30 98,74 128,131 29,57 44,125 44,203l0 492c0,77 -15,145 -44,202 -30,57 -73,101 -128,132 -56,31 -121,46 -195,46zm0 -163c40,0 75,-8 105,-25 31,-17 54,-42 70,-74 16,-32 24,-70 24,-113l0 -503c0,-43 -8,-81 -24,-112 -16,-32 -39,-56 -70,-74 -30,-17 -65,-25 -105,-25 -41,0 -77,8 -107,25 -30,18 -53,42 -69,74 -16,31 -24,69 -24,112l0 503c0,43 8,81 24,113 16,32 39,57 69,74 30,17 66,25 107,25zm587 -726l166 0 0 877 -166 0 0 -877zm453 307c0,-54 -12,-94 -37,-122 -25,-28 -61,-42 -108,-42 -46,0 -81,13 -105,40 -25,26 -37,64 -37,114l-18 -146c24,-54 55,-95 95,-123 39,-28 83,-42 132,-42 78,0 138,26 181,77 42,52 63,125 63,220l0 594 -166 0 0 -570zm557 340c0,24 5,42 15,54 10,13 24,19 44,19l64 0 0 158 -85 0c-65,0 -115,-20 -151,-60 -36,-41 -54,-98 -54,-172l0 -997 167 0 0 998zm283 -993l166 0 0 167 -166 0 0 -167zm0 346l166 0 0 877 -166 0 0 -877zm389 0l166 0 0 877 -166 0 0 -877zm453 307c0,-54 -12,-94 -37,-122 -25,-28 -61,-42 -108,-42 -46,0 -81,13 -106,40 -24,26 -36,64 -36,114l-18 -146c24,-54 55,-95 94,-123 40,-28 83,-42 132,-42 79,0 139,26 182,77 42,52 63,125 63,220l0 594 -166 0 0 -570zm695 582c-69,0 -128,-13 -176,-39 -49,-27 -86,-66 -112,-117 -25,-51 -38,-113 -38,-186l0 -201c0,-76 12,-141 37,-195 25,-53 61,-94 108,-122 47,-28 104,-42 170,-42 64,0 119,15 164,44 46,29 81,71 105,127 24,56 36,123 36,202l0 144 -501 0 0 -136 341 0 0 -47c0,-58 -13,-103 -39,-135 -26,-33 -61,-49 -106,-49 -50,0 -88,18 -115,52 -28,35 -41,84 -41,147l0 216c0,57 14,102 43,133 29,31 70,47 124,47 34,0 62,-8 85,-23 22,-16 37,-39 46,-69l0 0 153 49 0 0c-17,66 -49,116 -97,150 -48,33 -110,50 -187,50z"/>
  <path class="fil2" d="M12190 3679c0,298 430,823 -416,1669 -542,542 -1146,630 -1835,247 -680,-379 -384,-693 -1033,-45 -137,137 -274,282 -382,442 99,186 850,727 421,1578 -90,180 -140,235 -276,373 -276,279 -633,381 -1039,381 -264,0 -416,-105 -667,-105 -16,69 -38,114 -65,180l-213 541c-48,121 -88,230 -137,353 -48,119 -94,255 -146,363 361,191 530,243 820,530 123,121 194,233 268,398 181,403 125,864 -7,1257 -164,489 -614,863 -1121,948 -269,45 -311,7 -311,197 0,381 93,768 176,1122 222,0 444,0 666,0 234,0 422,18 667,18 315,0 677,-20 985,15 136,15 224,-15 330,-15 0,-195 -105,-558 -150,-762 -119,-526 -62,-758 -106,-1052l29 -657c37,-684 318,-1622 596,-2174 200,-400 425,-808 704,-1155l309 -375c44,-47 55,-74 104,-123 81,-79 147,-150 228,-228 48,-45 76,-57 124,-104l252 -222c307,-245 628,-461 965,-665 771,-465 2063,-792 2926,-792 710,0 839,26 1506,108 181,22 1101,332 1240,390 62,26 93,47 156,73 295,122 771,411 1029,601 91,67 169,128 257,199l376 325c139,140 204,174 352,350 42,50 63,64 108,120l506 651c52,69 109,132 143,208 16,35 21,51 39,83 396,711 609,1036 799,1988 106,532 138,1086 119,1706 -2,86 -15,111 -18,209 -6,199 -54,414 -87,614 -44,261 -154,507 -176,771l2631 18c59,0 88,-102 88,-158 0,-40 -433,-172 -486,-198 -172,-86 -264,-165 -387,-297 -199,-214 -355,-649 -355,-1048 0,-755 413,-1274 1042,-1535 211,-87 238,-38 238,-270 0,-350 -182,-1097 -315,-1297 -392,33 -554,182 -1025,60 -74,-19 -67,-19 -127,-48 -199,-97 -405,-212 -542,-387 -331,-423 -429,-737 -429,-1290 0,-317 164,-710 364,-916 224,-232 381,-171 -315,-868l-592 -565c-104,55 -144,111 -228,176l-251 169c-432,221 -1040,196 -1457,-6 -329,-159 -577,-386 -718,-719 -56,-131 -68,-236 -95,-378 -41,-208 -22,-212 -23,-416 -2,-563 335,-460 -855,-758 -97,-24 -216,-66 -337,-66 -38,164 -124,351 -214,487 -70,107 -153,195 -246,280 -37,34 -61,60 -97,96 -227,230 -698,399 -1022,399 -291,0 -511,-47 -739,-138 -99,-39 -162,-82 -250,-135 -275,-164 -584,-535 -679,-847 -97,-315 -25,-313 -523,-211 -62,13 -115,27 -184,44 -93,23 -107,38 -180,65 -104,37 -707,139 -707,223z"/>
  <path class="fil3" d="M17693 13036c-132,112 -449,88 -662,95l-702 19c-485,6 -941,54 -1438,42 -489,-13 -983,-18 -1473,-26 -155,-3 -621,33 -702,-57 -81,-89 -6,-189 51,-247 122,-121 473,-485 572,-550 129,-85 517,-50 710,-56 487,-15 984,-6 1474,-10 262,-3 1273,-59 1454,22 55,25 149,131 207,179 65,54 135,116 198,171 101,89 324,242 311,418zm-6367 -237c-177,-87 -148,-255 -177,-490 -32,-260 -194,-413 -119,-496 31,-33 77,-27 158,-16l401 90c174,45 343,100 528,139 625,130 483,274 189,620 -51,60 -93,112 -163,170 -179,150 -624,78 -817,-17zm7852 -1096c248,-34 53,185 9,387 -95,436 129,647 -598,733 -436,51 -470,-145 -664,-345 -377,-390 -19,-419 201,-484 209,-61 887,-268 1052,-291zm-6711 -733c23,-18 -26,2 33,-20 108,-38 500,103 595,133 814,256 433,381 1235,381l1596 5c699,5 391,-152 1201,-419 160,-53 459,-177 640,-148 -46,117 -431,153 -609,213 -416,137 -268,111 -546,278 -399,239 -925,172 -1458,177 -273,2 -551,-2 -825,-11 -748,-25 -450,-63 -949,-287l-609 -199c-120,-27 -249,-18 -304,-103zm-1433 -1032c91,49 128,125 270,148 223,37 390,109 689,153 119,17 207,52 338,65 195,19 362,25 547,84 81,26 74,24 118,93 195,310 259,339 -157,343 -867,8 -561,289 -1029,158 -263,-75 -767,-193 -862,-384 -91,-182 39,-473 86,-660zm4895 -2726c336,-7 677,-16 1014,-12 501,7 472,3 746,291 155,163 287,391 417,618 428,751 117,761 -391,758 -242,-1 -404,28 -491,26 -336,-6 -656,15 -985,41 -136,11 -334,-10 -491,-2 -162,7 -328,17 -488,23 -336,12 -662,14 -1000,9 -676,-9 -1374,9 -2047,-19 -445,-18 -442,-229 -271,-554 184,-349 369,-646 612,-948 119,-146 80,-156 318,-192 200,-31 2691,-32 3057,-39zm3294 2670c-2,4 -5,10 -5,13l-9 27c-7,48 12,95 26,143 17,62 35,114 50,178 95,402 -154,418 -688,610 -517,187 -459,36 -695,-35 -268,-81 -568,-2 -824,-68 2,-124 147,-395 326,-441 196,-49 450,-66 651,-102 215,-38 412,-84 618,-137 327,-86 452,-189 533,-201 -52,-107 -237,-425 -175,-562 84,-185 441,5 582,-191 94,-129 80,-395 -181,-492 -146,-54 -487,-132 -647,-55 -22,92 -6,272 -35,333 -36,-24 -58,-53 -83,-92l-293 -584c-231,-391 -441,-724 -727,-1079 -126,-157 -210,-219 -443,-258 -387,-66 -2240,-36 -2822,-38 -127,-1 -193,19 -333,18l-1028 59c-218,34 -364,105 -494,225l-239 287c-143,210 -608,1045 -704,1277 -21,49 -28,78 -50,125 -31,68 -46,55 -63,130 -195,-130 234,-500 -600,-302 -432,103 -407,483 -235,594 161,104 752,-116 484,409l-331 722c-121,303 -125,570 -125,908 0,342 -2,715 33,1020l37 996c0,112 13,159 18,246 11,200 -56,534 185,603 111,32 368,10 499,10 505,0 563,-5 561,-491 -1,-326 -16,-207 281,-210 157,-2 495,36 737,35 112,-1 151,15 244,18 168,5 364,-13 526,0 379,32 1141,17 1545,17l772 -17c108,0 136,-18 244,-19 189,0 316,-14 493,-16 270,-2 956,-80 1227,-88 43,-2 80,-7 111,-9 63,-5 40,7 117,9 0,93 12,108 17,177 6,92 -85,369 116,478 134,73 570,56 779,46 312,-14 333,-172 332,-491l18 -1209c0,-364 50,-829 17,-1226 -84,-1016 -268,-936 -350,-1300z"/>
  <path class="fil4" d="M15929 7212c-366,7 -2857,8 -3057,39 -238,36 -199,46 -318,192 -243,302 -428,599 -612,948 -171,325 -174,536 271,554 673,28 1371,10 2047,19 338,5 664,3 1000,-9 160,-6 326,-16 488,-23 157,-8 355,13 491,2 329,-26 649,-47 985,-41 87,2 249,-27 491,-26 508,3 819,-7 391,-758 -130,-227 -262,-455 -417,-618 -274,-288 -245,-284 -746,-291 -337,-4 -678,5 -1014,12z"/>
  <path class="fil3" d="M12786 13043c261,83 878,49 1193,50 409,2 818,14 1228,19 407,5 822,-9 1228,-22 345,-12 856,-18 1173,-88 -12,-98 -87,-157 -155,-227 -56,-57 -141,-121 -210,-176 -145,-117 -236,-279 -496,-291 -501,-23 -1035,8 -1540,12 -512,3 -1033,9 -1544,20 -337,7 -362,104 -524,262 -96,92 -339,261 -353,441z"/>
  <path class="fil4" d="M19223 9882l-17 -13c-81,12 -206,115 -533,201 -206,53 -403,99 -618,137 -201,36 -455,53 -651,102 -179,46 -324,317 -326,441 256,66 556,-13 824,68 236,71 178,222 695,35 534,-192 783,-208 688,-610 -15,-64 -33,-116 -50,-178 -14,-48 -33,-95 -26,-143l9 -27c0,-3 3,-9 5,-13z"/>
  <path class="fil4" d="M11034 9938c-47,187 -177,478 -86,660 95,191 599,309 862,384 468,131 162,-150 1029,-158 416,-4 352,-33 157,-343 -44,-69 -37,-67 -118,-93 -185,-59 -352,-65 -547,-84 -131,-13 -219,-48 -338,-65 -299,-44 -466,-116 -689,-153 -142,-23 -179,-99 -270,-148z"/>
  <path class="fil3" d="M17850 12180c15,154 218,342 294,430 73,83 90,109 241,126 107,11 235,9 336,-7 269,-41 326,-87 354,-360 53,-526 117,-451 135,-589 -227,28 -1239,306 -1360,400z"/>
  <path class="fil3 str1" d="M12471 12231c-362,-149 -925,-279 -1352,-364 42,216 88,227 131,588 37,307 78,300 381,332 284,31 388,46 553,-123 80,-83 275,-280 287,-433z"/>
  <path class="fil5" d="M12786 13043c14,-180 257,-349 353,-441 162,-158 187,-255 524,-262 511,-11 1032,-17 1544,-20 505,-4 1039,-35 1540,-12 260,12 351,174 496,291 69,55 154,119 210,176 68,70 143,129 155,227 -317,70 -828,76 -1173,88 -406,13 -821,27 -1228,22 -410,-5 -819,-17 -1228,-19 -315,-1 -932,33 -1193,-50zm4907 -7c13,-176 -210,-329 -311,-418 -63,-55 -133,-117 -198,-171 -58,-48 -152,-154 -207,-179 -181,-81 -1192,-25 -1454,-22 -490,4 -987,-5 -1474,10 -193,6 -581,-29 -710,56 -99,65 -450,429 -572,550 -57,58 -132,158 -51,247 81,90 547,54 702,57 490,8 984,13 1473,26 497,12 953,-36 1438,-42l702 -19c213,-7 530,17 662,-95z"/>
  <path class="fil4" d="M12467 10970c55,85 184,76 304,103l609 199c499,224 201,262 949,287 274,9 552,13 825,11 533,-5 1059,62 1458,-177 278,-167 130,-141 546,-278 178,-60 563,-96 609,-213 -181,-29 -480,95 -640,148 -810,267 -502,424 -1201,419l-1596 -5c-802,0 -421,-125 -1235,-381 -95,-30 -487,-171 -595,-133 -59,22 -10,2 -33,20z"/>
  <path class="fil5" d="M11119 11867c427,85 990,215 1352,364 -12,153 -207,350 -287,433 -165,169 -269,154 -553,123 -303,-32 -344,-25 -381,-332 -43,-361 -89,-372 -131,-588zm-89 -54c-75,83 87,236 119,496 29,235 0,403 177,490 193,95 638,167 817,17 70,-58 112,-110 163,-170 294,-346 436,-490 -189,-620 -185,-39 -354,-94 -528,-139l-401 -90c-81,-11 -127,-17 -158,16z"/>
  <path class="fil5" d="M17850 12180c121,-94 1133,-372 1360,-400 -18,138 -82,63 -135,589 -28,273 -85,319 -354,360 -101,16 -229,18 -336,7 -151,-17 -168,-43 -241,-126 -76,-88 -279,-276 -294,-430zm1328 -477c-165,23 -843,230 -1052,291 -220,65 -578,94 -201,484 194,200 228,396 664,345 727,-86 503,-297 598,-733 44,-202 239,-421 -9,-387z"/>
  <path class="fil1" d="M4715 14844l284 0 738 2374 -442 0 -438 -1589 -437 1589 -441 0 736 -2374zm-327 1594l949 0 0 404 -949 0 0 -404zm2221 804c-150,0 -279,-29 -386,-87 -107,-58 -189,-143 -245,-254 -56,-111 -84,-244 -84,-400l0 -1657 426 0 0 1668c0,97 26,172 76,226 51,53 122,80 213,80 93,0 165,-27 215,-80 52,-54 77,-129 77,-226l0 -1668 428 0 0 1657c0,156 -28,289 -85,400 -56,111 -139,196 -246,254 -108,58 -238,87 -389,87zm1371 -2202l427 0 0 2178 -427 0 0 -2178zm-519 -196l1465 0 0 410 -1465 0 0 -410zm2339 2398c-149,0 -279,-29 -391,-87 -111,-58 -196,-141 -256,-249 -60,-108 -90,-235 -90,-380l0 -990c0,-146 30,-273 90,-381 60,-109 145,-192 256,-249 112,-58 242,-87 391,-87 150,0 280,29 392,87 111,57 196,140 256,249 60,108 90,235 90,381l0 990c0,145 -30,272 -90,380 -60,108 -145,191 -256,249 -112,58 -242,87 -392,87zm0 -426c61,0 114,-13 160,-38 46,-26 80,-62 104,-109 24,-46 36,-102 36,-165l0 -950c0,-62 -12,-116 -36,-163 -24,-47 -58,-83 -104,-109 -46,-25 -99,-38 -160,-38 -61,0 -114,13 -159,38 -46,26 -80,62 -104,109 -24,47 -36,101 -36,163l0 950c0,63 12,119 36,165 24,47 58,83 104,109 45,25 98,38 159,38zm1334 -4l556 0c77,0 136,-20 178,-58 41,-38 63,-91 63,-160l0 -161c0,-50 -10,-92 -29,-127 -19,-36 -47,-62 -83,-81 -37,-18 -81,-28 -132,-28l-553 0 0 -403 548 0c70,0 124,-19 163,-58 38,-39 58,-93 58,-164l0 -128c0,-61 -20,-109 -58,-144 -39,-34 -93,-51 -163,-51l-548 0 0 -405 576 0c131,0 242,22 335,66 92,44 163,109 211,193 47,85 71,188 71,307l0 127c0,82 -16,155 -47,218 -32,63 -78,115 -139,156 -61,41 -134,68 -219,82 92,12 170,40 235,83 66,43 115,98 150,167 34,69 51,149 51,240l0 164c0,120 -24,223 -72,309 -48,85 -118,150 -210,195 -93,45 -204,67 -333,67l-609 0 0 -406zm-214 -1968l426 0 0 2374 -426 0 0 -2374zm1781 0l426 0 0 2374 -426 0 0 -2374zm170 1961l1152 0 0 413 -1152 0 0 -413zm0 -973l1022 0 0 413 -1022 0 0 -413zm0 -988l1152 0 0 413 -1152 0 0 -413zm2116 2398c-135,0 -253,-20 -353,-59 -101,-40 -185,-99 -251,-176 -67,-78 -113,-175 -141,-292l0 0 397 -177 0 0c31,96 78,169 141,218 64,49 141,73 231,73 94,0 167,-20 220,-62 51,-41 78,-99 78,-173l0 -106c0,-53 -16,-97 -46,-131 -31,-35 -70,-62 -118,-83 -49,-20 -113,-43 -194,-68 -3,-1 -6,-3 -9,-3 -2,-1 -5,-1 -7,-2l-20 -7c-129,-39 -235,-79 -318,-120 -82,-41 -152,-105 -210,-191 -58,-86 -87,-203 -87,-349l0 -62c0,-137 28,-254 85,-353 57,-97 140,-172 250,-223 110,-51 242,-77 398,-77 117,0 221,19 311,57 89,38 165,95 225,170 61,75 105,169 133,281l0 0 -376 178 0 0c-31,-90 -74,-159 -128,-206 -55,-46 -118,-70 -190,-70 -90,0 -160,19 -209,57 -50,39 -75,92 -75,160l0 79c0,58 16,106 48,143 32,37 73,67 121,89 48,21 116,45 202,71 5,2 11,3 18,5 8,2 14,5 21,8 5,1 10,3 15,5 4,1 9,2 14,4 119,36 217,76 295,119 78,42 143,105 195,188 52,84 79,194 79,331l0 101c0,137 -29,255 -88,353 -58,98 -143,172 -255,223 -111,52 -245,77 -402,77zm1370 -2202l426 0 0 2178 -426 0 0 -2178zm-519 -196l1465 0 0 410 -1465 0 0 -410zm1822 1043l590 0c44,0 81,-10 113,-30 33,-20 58,-49 75,-86 18,-37 27,-80 27,-129l0 -139c0,-51 -8,-95 -26,-133 -17,-37 -42,-66 -74,-86 -32,-20 -70,-30 -115,-30l-590 0 0 -410 590 0c133,0 248,25 347,75 98,51 174,124 227,219 52,96 79,208 79,336l0 199c0,128 -27,238 -80,332 -54,93 -129,166 -227,216 -98,50 -213,76 -346,76l-590 0 0 -410zm-196 -1043l427 0 0 2374 -427 0 0 -2374zm2190 0l284 0 738 2374 -442 0 -438 -1589 -437 1589 -441 0 736 -2374zm-327 1594l949 0 0 404 -949 0 0 -404zm1764 -610l627 0c40,0 76,-9 105,-27 30,-18 54,-43 70,-76 16,-32 24,-71 24,-116l0 -132c0,-45 -8,-86 -24,-120 -15,-34 -38,-60 -69,-78 -30,-18 -66,-27 -106,-27l-627 0 0 -410 632 0c130,0 242,25 337,75 95,50 169,122 219,216 52,95 77,206 77,333l0 138c0,130 -25,243 -77,338 -50,95 -124,168 -220,219 -96,51 -208,77 -336,77l-632 0 0 -410zm-180 -986l422 0 0 2376 -422 0 0 -2376zm595 1322l424 -74 509 1128 -488 0 -445 -1054zm1525 -1124l426 0 0 2178 -426 0 0 -2178zm-519 -196l1465 0 0 410 -1465 0 0 -410zm2281 2398c-135,0 -253,-20 -353,-59 -101,-40 -185,-99 -251,-176 -66,-78 -113,-175 -141,-292l0 0 397 -177 0 0c31,96 78,169 141,218 64,49 141,73 232,73 93,0 166,-20 219,-62 51,-41 78,-99 78,-173l0 -106c0,-53 -15,-97 -46,-131 -31,-35 -70,-62 -118,-83 -49,-20 -113,-43 -194,-68 -3,-1 -6,-3 -9,-3 -2,-1 -5,-1 -7,-2l-20 -7c-129,-39 -235,-79 -318,-120 -81,-41 -152,-105 -210,-191 -58,-86 -87,-203 -87,-349l0 -62c0,-137 28,-254 85,-353 58,-97 141,-172 250,-223 110,-51 242,-77 398,-77 117,0 221,19 311,57 89,38 165,95 225,170 61,75 105,169 133,281l0 0 -376 178 0 0c-31,-90 -74,-159 -128,-206 -55,-46 -118,-70 -190,-70 -90,0 -160,19 -209,57 -50,39 -75,92 -75,160l0 79c0,58 16,106 48,143 32,37 73,67 121,89 48,21 116,45 202,71 5,2 11,3 19,5 7,2 13,5 20,8 5,1 10,3 15,5 4,1 9,2 14,4 119,36 217,76 295,119 78,42 143,105 195,188 52,84 79,194 79,331l0 101c0,137 -29,255 -88,353 -58,98 -143,172 -255,223 -111,52 -245,77 -402,77z"/>
  <path class="fil3" d="M4333 12169c77,11 164,21 236,-4 48,-188 -29,-589 25,-770l146 9c31,98 13,399 14,520l293 5 301 463c175,31 721,5 929,5 498,0 531,61 752,-177 250,-268 385,-631 387,-1000 1,-135 -34,-82 -44,-172 -10,-91 17,-146 -17,-238l-239 -15c-79,-29 -289,-313 -327,-397l-404 -12c-26,-66 -24,-117 -2,-193l219 -6c4,-69 13,-105 -13,-169l-1062 -7c-26,70 -24,107 -4,172l209 19c25,71 23,107 3,174 -129,46 -311,-24 -424,49 -345,223 -35,212 -548,232 -49,140 11,365 -25,512l-143 9c-46,-199 31,-592 -23,-771 -67,-24 -158,-26 -224,2l-15 1760z"/>
  <path class="fil3" d="M10570 3690c316,-93 467,400 154,506 -328,112 -528,-396 -154,-506zm557 318c194,-182 659,228 913,-248 150,-281 -7,-802 -341,-876 -515,-112 -128,481 -662,636 -290,84 -232,-170 -122,-333 400,-593 -397,-1023 -854,-700 -124,88 -221,295 -111,430 91,113 279,76 370,297 52,126 82,465 -152,381 -125,-44 -194,-236 -352,-316 -385,-193 -702,128 -760,491 -28,179 11,379 172,479 224,138 295,-63 430,-165 123,-94 389,-82 498,19 178,164 -175,275 -263,312 -576,240 -192,1069 364,1045 164,-7 370,-138 315,-326 -54,-185 -201,-235 -88,-492 64,-147 252,-337 346,-91 73,187 -47,276 140,509 112,139 294,193 468,158 306,-61 664,-403 489,-734 -116,-221 -336,-29 -533,-96 -144,-49 -317,-218 -267,-380z"/>
  <path class="fil3" d="M14497 3832l388 -357c250,-17 603,6 861,5 181,-1 178,27 305,138 35,30 195,183 216,212 -106,232 -1035,725 -1770,2zm1626 -487c15,-112 53,-126 50,-280 -2,-105 -19,-238 4,-331 78,-22 339,-22 417,0 79,176 -1,763 -164,881 -86,-38 -236,-196 -307,-270zm-1785 278c-158,-139 -238,-699 -160,-889 80,-22 336,-22 416,0 21,88 4,234 4,331 1,159 36,167 55,284l-315 274zm-65 -1159c1,-141 291,-425 407,-504 944,-643 1829,259 1817,504 -81,23 -2136,24 -2224,0zm935 -952c-809,105 -1388,828 -1289,1647 98,803 835,1380 1641,1283 816,-98 1384,-825 1292,-1643 -89,-801 -842,-1391 -1644,-1287z"/>
  <g id="_407395368">
   <path class="fil3 str0" d="M7031 6190c185,-73 288,220 110,292 -207,84 -330,-205 -110,-292zm-226 868c71,-45 161,-210 222,-290 341,-446 725,-622 775,-698 -15,-44 -445,-474 -492,-493 -94,74 -165,169 -249,253 -176,177 -635,591 -738,746 22,57 426,461 482,482z"/>
   <path class="fil3 str0" d="M6805 7058c-56,-21 -460,-425 -482,-482 103,-155 562,-569 738,-746 84,-84 155,-179 249,-253 47,19 477,449 492,493 -50,76 -434,252 -775,698 -61,80 -151,245 -222,290zm-637 -618c40,-79 944,-975 1025,-1013l46 58c-26,58 -963,994 -1021,1020l-50 -65zm-82 -81c-192,-91 7,-269 87,-349l591 -591c79,-79 238,-248 338,-71 -50,85 -950,982 -1016,1011zm722 854c183,-110 268,-494 824,-887 98,-69 284,-152 316,-266 -62,-101 -594,-597 -721,-725 -315,-316 -373,-146 -838,319 -459,458 -634,524 -319,839 106,105 663,688 738,720z"/>
   <path class="fil3 str0" d="M7314 6801c45,122 674,645 781,822l-114 331 49 44c62,-29 203,-177 240,-233 3,-71 -13,-149 50,-200 75,-61 124,-16 180,-32 32,-10 218,-201 239,-236l-47 -47 -332 115 -803 -794c-71,30 -210,169 -243,230z"/>
   <path class="fil3 str0" d="M8341 7835c-49,35 -208,182 -221,230 219,-22 713,-475 696,-684 -42,8 -218,170 -237,214 -66,155 74,222 -238,240z"/>
  </g>
  <path class="fil3 str0" d="M24012 12977c-21,-73 -15,-79 58,-109 69,23 88,47 47,111 -66,28 -40,29 -105,-2zm-549 -121c89,3 413,-39 312,123 -86,32 -607,28 -681,-17 -44,-161 255,-110 369,-106zm1945 -336c92,-127 224,-21 139,98 -68,26 -57,27 -131,-2l-8 -96zm-349 902l12 -323c76,-28 440,-19 513,6l89 -6c16,-68 25,-67 9,-134 -100,-29 -188,10 -274,-30l-316 -4c-23,-76 -20,-111 2,-178 155,-50 446,29 605,-18 22,-77 25,-288 4,-363 -98,-31 -479,-23 -607,-21 -25,-68 -24,-118 -2,-186 102,-34 490,-7 627,-7l-9 -143 -603 -21c-50,-129 35,-276 -52,-369 -76,-36 -149,133 -328,232 -177,97 -1541,-50 -1679,17 -202,198 -209,1063 -33,1276 186,39 894,22 1132,23 324,0 520,-45 711,156 61,65 63,130 159,133l40 -40z"/>
  <path class="fil3" d="M25673 13099l35 -31 -2 -121 -298 -12c86,40 174,1 274,30 16,67 7,66 -9,134z"/>
  <path class="fil3" d="M20019 3546c70,11 482,333 537,400 -16,58 -153,238 -200,273l-549 -411c23,-74 145,-232 212,-262zm146 2105l21 22c198,-29 526,-580 676,-693 66,-51 149,-14 178,-111 43,-146 -153,-206 -238,-304l39 -83 -197 -158 -124 26c-1,-119 224,-233 218,-408 -6,-144 -215,-260 -324,-343 -110,-83 -274,-257 -415,-242 -183,18 -218,252 -347,318l-48 -25 35 -89 -195 -163 -78 58c-110,-30 -225,-229 -353,-154 -93,55 -39,125 -59,192 -10,34 -97,142 -122,180 -76,112 -159,225 -233,339 -74,115 -227,250 -181,394 87,-29 494,-762 604,-819 77,27 1719,1298 1743,1343 -43,103 -492,588 -600,720z"/>
  <path class="fil3" d="M18800 5366c62,74 255,192 351,192 103,-106 214,-277 309,-399 100,-127 290,-342 54,-469 -194,-103 -319,138 -414,261 -62,79 -283,340 -300,415z"/>
  <path class="fil3" d="M18643 5176c67,-36 281,-346 346,-430 58,-74 139,-154 140,-252 1,-103 -81,-198 -184,-205 -158,-11 -319,250 -406,368 -94,128 -95,107 -38,265 28,79 72,209 142,254z"/>
  <path class="fil3" d="M19366 5651c83,41 191,55 283,67 162,20 146,27 240,-92 100,-129 304,-315 200,-482 -52,-83 -157,-114 -247,-81 -107,38 -472,560 -476,588z"/>
  <path class="fil3" d="M20222 4852c-67,-23 -33,-34 -102,-25 -4,65 0,34 40,91l-29 96c73,11 43,8 97,-37 64,17 34,29 99,21 11,-65 9,-33 -38,-88l37 -90c-70,-24 -37,-6 -104,32z"/>
  <path class="fil3" d="M19056 4038c26,55 165,162 220,155 20,-73 -114,-149 -179,-185l-41 30z"/>
  <polygon class="fil3" points="20186,5673 20165,5651 20139,5684 "/>
  <g id="_407391312">
   <path class="fil3" d="M22116 8170c-66,-48 -49,-71 -125,-59 -49,107 209,360 327,500 131,155 316,453 431,429 39,-71 -2,-63 -21,-139 83,-118 395,-366 436,-461l-507 -622 -541 352z"/>
   <path class="fil3" d="M23589 7287c-207,18 -149,0 -322,116 -68,46 -218,137 -267,187 7,53 402,534 461,568 54,-33 271,-265 329,-327 170,-183 -28,-273 -102,-424l78 -84c108,55 154,269 264,156 14,-93 -151,-295 -243,-325l-198 133z"/>
   <path class="fil3" d="M22634 7674c31,76 621,793 676,819 53,-19 152,-104 183,-154 -19,-60 -591,-759 -664,-823 -65,33 -162,92 -195,158z"/>
   <path class="fil3" d="M22592 9166c67,-89 -192,-339 -317,-492 -125,-153 -327,-466 -438,-435 -35,114 394,547 536,737 53,71 134,204 219,190z"/>
   <path class="fil3" d="M21882 8502l-23 1c82,211 351,631 578,690 -9,-44 -485,-616 -555,-691z"/>
   <polygon class="fil3" points="21859,8503 21882,8502 21855,8470 "/>
  </g>
 </g>
</svg>
