<svg xmlns="http://www.w3.org/2000/svg" width="70" height="81" viewBox="0 0 70 81">
    <path fill="#066735" fill-rule="evenodd" d="M66.818 74h-3.182v3.182c0 1.288-1.893 3.182-3.181 3.182H54.09c-1.289 0-3.182-1.894-3.182-3.182V74H19.091v3.182c0 1.288-1.893 3.182-3.182 3.182H9.545c-1.288 0-3.181-1.894-3.181-3.182V74H3.182C2.539 74 0 73.65 0 70.818v-3.182c0-2.93 2.43-3.143 3.077-3.143l3.287-.038V51.727c0-1.187.601-3.182 3.181-3.182V7.182c0-.392-.127-2.47 0-3.182L12.727.818C13.803.802 15.91-.212 15.91 4v12.727s1.804-9.545 9.546-9.545h19.09c8.7 0 9.546 9.545 9.546 9.545V4c0-4.311 2.307-3.198 3.182-3.182L60.455 4c.028 1.508 0 2.79 0 3.182v41.363c2.577 0 3.181.605 3.181 3.182v12.728l1.299.038h1.988c.646 0 3.077-.185 3.077 3.143v3.182C70 73.85 67.464 74 66.818 74zM22.273 58.09c0 1.29 1.893 3.183 3.182 3.183h19.09c1.29 0 3.182-1.893 3.182-3.182V45.364c0-1.289-1.893-3.182-3.182-3.182h-19.09c-1.29 0-3.182 1.893-3.182 3.182V58.09zm31.818-35H15.909v12.728h38.182V23.091zM27.045 48.546h15.91a1.59 1.59 0 0 1 0 3.182h-15.91a1.59 1.59 0 1 1 0-3.182zm0 6.364h15.91a1.59 1.59 0 0 1 0 3.182h-15.91a1.59 1.59 0 0 1 0-3.182z" opacity=".3"/>
</svg>
