<svg xmlns="http://www.w3.org/2000/svg" width="25" height="21" viewBox="0 0 25 21">
    <path fill="#FFF" fill-rule="nonzero" d="M25 2.42c-.92.408-1.907.685-2.945.808A5.15 5.15 0 0 0 24.31.393a10.339 10.339 0 0 1-3.258 1.245 5.129 5.129 0 0 0-8.739 4.676A14.56 14.56 0 0 1 1.742.955a5.09 5.09 0 0 0-.694 2.578c0 1.78.906 3.35 2.281 4.268a5.129 5.129 0 0 1-2.323-.644v.064a5.134 5.134 0 0 0 4.113 5.03c-.43.115-.882.179-1.35.179-.332 0-.652-.033-.966-.096a5.131 5.131 0 0 0 4.79 3.562 10.29 10.29 0 0 1-6.37 2.192A10.9 10.9 0 0 1 0 18.018a14.497 14.497 0 0 0 7.861 2.307c9.434 0 14.591-7.814 14.591-14.59l-.017-.665A10.241 10.241 0 0 0 25 2.42z"/>
</svg>
