<svg xmlns="http://www.w3.org/2000/svg" width="167" height="150" viewBox="0 0 167 150">
    <g fill="none" fill-rule="evenodd">
        <path fill="#FFFCE1" d="M33.382 149.404c53.886 0 133.305-28.684 133.305-82.57C166.687 12.948 133.004 0 79.117 0 25.231 0 7.038 1.948 7.038 55.834s-27.543 93.57 26.344 93.57z"/>
        <g fill-rule="nonzero">
            <path fill="#292929" d="M111.25 38.798h-77.5a7.76 7.76 0 0 0-7.75 7.75v51.15a7.76 7.76 0 0 0 7.75 7.75h24.8v3.1H47.7a1.55 1.55 0 0 0-1.55 1.55v6.2c0 .856.694 1.55 1.55 1.55h49.6a1.55 1.55 0 0 0 1.55-1.55v-6.2a1.55 1.55 0 0 0-1.55-1.55H86.45v-3.1h24.8a7.76 7.76 0 0 0 7.75-7.75v-51.15a7.76 7.76 0 0 0-7.75-7.75zm-15.5 72.85v3.1h-46.5v-3.1h46.5zm-34.1-3.1v-3.1h21.7v3.1h-21.7zm49.6-6.2h-77.5a4.655 4.655 0 0 1-4.65-4.65v-4.65h86.8v4.65a4.655 4.655 0 0 1-4.65 4.65zm-82.15-12.4v-43.4a4.655 4.655 0 0 1 4.65-4.65h77.5a4.655 4.655 0 0 1 4.65 4.65v43.4H29.1z"/>
            <path fill="#05582D" d="M94.999 55.754h-44.95a1.55 1.55 0 0 0-1.55 1.55v18.6c0 .856.693 1.55 1.55 1.55h44.95a1.55 1.55 0 0 0 1.55-1.55v-18.6a1.55 1.55 0 0 0-1.55-1.55zm-35.65 18.6h-7.75v-9.3h7.75v9.3zm0-12.4h-7.75v-3.1h7.75v3.1zm34.1 12.4h-31v-9.3h31v9.3zm0-12.4h-31v-3.1h31v3.1z"/>
            <path fill="#05582D" d="M67.099 71.254h3.1a1.55 1.55 0 1 0 0-3.1h-3.1a1.55 1.55 0 1 0 0 3.1zM76.399 71.254h3.1a1.55 1.55 0 1 0 0-3.1h-3.1a1.55 1.55 0 1 0 0 3.1zM85.699 71.254h3.1a1.55 1.55 0 1 0 0-3.1h-3.1a1.55 1.55 0 1 0 0 3.1z"/>
        </g>
    </g>
</svg>
