<svg xmlns="http://www.w3.org/2000/svg" width="24" height="17" viewBox="0 0 24 17">
    <path fill="#FFF" fill-rule="nonzero" d="M22.98 1.59C22.329.432 21.622.219 20.184.138 18.747.04 15.134 0 12.003 0 8.867 0 5.251.04 3.816.137 2.381.219 1.673.43 1.016 1.59.345 2.747 0 4.739 0 8.245v.012c0 3.492.345 5.5 1.016 6.644.657 1.158 1.363 1.368 2.798 1.465 1.438.085 5.053.134 8.189.134 3.13 0 6.744-.05 8.183-.132 1.438-.098 2.145-.307 2.796-1.465C23.657 13.758 24 11.75 24 8.258v-.008-.004c0-3.508-.342-5.5-1.02-6.657zM9 12.75v-9l7.5 4.5-7.5 4.5z"/>
</svg>
