<svg xmlns="http://www.w3.org/2000/svg" width="24" height="24" viewBox="0 0 24 24">
    <path fill="#1FB6DB" fill-rule="evenodd" d="M11.984 21.512c-.56 0-1.036-.192-1.428-.576a1.877 1.877 0 0 1-.588-1.392h3.984c0 .576-.188 1.048-.564 1.416-.376.368-.844.552-1.404.552zm6-10.968v4.968L20 17.528v.984H3.968v-.984l2.016-2.016v-4.968c0-1.568.392-2.92 1.176-4.056.8-1.168 1.912-1.928 3.336-2.28v-.696c0-.416.144-.772.432-1.068.288-.296.64-.444 1.056-.444.416 0 .772.148 1.068.444.296.296.444.652.444 1.068v.696c1.408.352 2.512 1.12 3.312 2.304.784 1.136 1.176 2.48 1.176 4.032zm1.968-.528a8.194 8.194 0 0 0-1.056-3.672 8.35 8.35 0 0 0-2.448-2.736l1.392-1.416A10.444 10.444 0 0 1 20.744 5.6a9.933 9.933 0 0 1 1.224 4.416h-2.016zM7.568 3.608a8.497 8.497 0 0 0-2.496 2.736 8.194 8.194 0 0 0-1.056 3.672H2A9.933 9.933 0 0 1 3.224 5.6a10.444 10.444 0 0 1 2.904-3.408l1.44 1.416z"/>
</svg>
