<svg xmlns="http://www.w3.org/2000/svg" width="24" height="24" viewBox="0 0 24 24">
    <path fill="#969FA9" fill-rule="evenodd" d="M18.016 15.512l2.016 2.016v.984H4v-.984l2.016-2.016v-4.968c0-1.568.392-2.92 1.176-4.056.8-1.168 1.912-1.928 3.336-2.28v-.696c0-.416.144-.772.432-1.068.288-.296.64-.444 1.056-.444.416 0 .772.148 1.068.444.296.296.444.652.444 1.068v.696c1.408.352 2.512 1.12 3.312 2.304.784 1.136 1.176 2.48 1.176 4.032v4.968zm-6 6c-.56 0-1.036-.192-1.428-.576A1.877 1.877 0 0 1 10 19.544h4.032c0 .544-.2 1.008-.6 1.392-.4.384-.872.576-1.416.576z"/>
</svg>
