<svg xmlns="http://www.w3.org/2000/svg" width="24" height="24" viewBox="0 0 24 24">
    <path fill="#FFF" fill-rule="evenodd" d="M12 7a1.62 1.62 0 0 0 1.196-.5c.33-.333.495-.727.495-1.18 0-.453-.165-.84-.495-1.16-.33-.32-.729-.48-1.196-.48-.467 0-.873.16-1.216.48-.344.32-.516.707-.516 1.16 0 .453.168.847.505 1.18.337.333.746.5 1.227.5zm4.31-5c.467 0 .865.167 1.195.5.33.333.495.727.495 1.18v11.64c0 .453-.165.847-.495 1.18-.33.333-.728.5-1.196.5h-6.041l2.577 2.5-2.577 2.5v-1.68H6v-1.64h4.268V17H7.691a1.62 1.62 0 0 1-1.196-.5A1.622 1.622 0 0 1 6 15.32V3.68c0-.453.165-.847.495-1.18.33-.333.728-.5 1.196-.5h8.618zm-2.578 16.68H18v1.64h-4.268v-1.64z"/>
</svg>
