<svg xmlns="http://www.w3.org/2000/svg" width="24" height="24" viewBox="0 0 24 24">
    <g fill="#1FB6DB" fill-rule="evenodd">
        <path d="M20 8.032V6.016l-8.016 5.016-8.016-5.016v2.016L11.984 13 20 8.032zm1.968 5.697a4.572 4.572 0 0 0-.186-.112A4.426 4.426 0 0 0 19.5 13c-.815 0-1.572.206-2.272.617a4.429 4.429 0 0 0-1.611 1.611A4.406 4.406 0 0 0 15 17.5c0 .815.206 1.572.617 2.272.05.089.105.176.16.26H3.969a1.86 1.86 0 0 1-1.392-.6A1.977 1.977 0 0 1 2 18.016v-12C2 5.472 2.192 5 2.576 4.6c.384-.4.848-.6 1.392-.6H20c.544 0 1.008.2 1.392.6.384.4.576.872.576 1.416v7.713z"/>
        <path d="M18.78 19.234l3.141-3.14-.494-.511-2.646 2.655-1.24-1.248-.494.494 1.733 1.75zM19.485 14c.637 0 1.226.16 1.767.477.525.302.938.715 1.24 1.24.318.541.477 1.13.477 1.767s-.16 1.226-.477 1.767a3.302 3.302 0 0 1-1.24 1.24 3.426 3.426 0 0 1-1.767.477c-.637 0-1.226-.16-1.767-.477a3.365 3.365 0 0 1-1.24-1.248A3.411 3.411 0 0 1 16 17.484c0-.63.16-1.217.477-1.759.307-.525.723-.94 1.248-1.248A3.411 3.411 0 0 1 19.484 14z"/>
    </g>
</svg>
