<svg xmlns="http://www.w3.org/2000/svg" width="24" height="24" viewBox="0 0 24 24">
    <g fill="#000" fill-rule="nonzero">
        <path d="M20.312 4.609c-3.078 0-5.205-1-7.45-2.5a.65.65 0 0 0-.723 0c-2.246 1.5-4.373 2.5-7.45 2.5a.652.652 0 0 0-.652.652v6.849a9.981 9.981 0 0 0 8.356 9.881.653.653 0 0 0 .214 0 9.981 9.981 0 0 0 8.356-9.881V5.26a.652.652 0 0 0-.651-.651zM12.5 17.652c-3.23 0-5.859-2.633-5.859-5.87 0-3.236 2.628-5.869 5.859-5.869 3.23 0 5.859 2.633 5.859 5.87 0 3.236-2.628 5.87-5.859 5.87z"/>
        <path d="M12.5 7.217a4.566 4.566 0 0 0-4.557 4.566c0 1.045.357 2.007.949 2.777a5.825 5.825 0 0 1 2.18-1.08A2.39 2.39 0 0 1 12.5 9.174a2.392 2.392 0 0 1 1.428 4.306c.792.2 1.532.567 2.18 1.08.593-.771.949-1.732.949-2.777A4.566 4.566 0 0 0 12.5 7.217z"/>
    </g>
</svg>
