<svg xmlns="http://www.w3.org/2000/svg" width="24" height="24" viewBox="0 0 24 24">
    <g fill="#000" fill-rule="nonzero">
        <path d="M21.236 5.644L8.987 3.029a.966.966 0 0 0-1.141.75l-.233 1.508 14.133 3.017.233-1.509a.974.974 0 0 0-.743-1.151zM16.085 8.624a.974.974 0 0 0-1.196-.683l-2.326.651-5.481-1.17-.603 2.873-3.767 1.055a.985.985 0 0 0-.677 1.207l2.123 7.717a.974.974 0 0 0 1.197.683l12.176-3.41a.985.985 0 0 0 .677-1.206l-.364-1.325 1.365.291a.966.966 0 0 0 1.142-.75l.864-4.118-4.92-1.05-.21-.765zm1.407 3.922l.3-1.436a.398.398 0 0 1 .47-.308l1.424.304a.4.4 0 0 1 .305.474l-.3 1.435a.397.397 0 0 1-.47.309l-1.424-.304a.401.401 0 0 1-.305-.474zM2.924 12.12l3.37-.943 7.95-2.226.856-.24a.184.184 0 0 1 .221.126l.1.366.315 1.144-12.522 3.505-.415-1.509a.184.184 0 0 1 .125-.223zm14.52 4.434a.18.18 0 0 1-.017.137.175.175 0 0 1-.108.086l-12.176 3.41a.176.176 0 0 1-.047.006.184.184 0 0 1-.174-.133L3.684 15.56l12.522-3.506.764 2.776.474 1.725z"/>
        <path d="M7.11 16.862a.397.397 0 0 0-.487-.278l-1.422.398a.401.401 0 0 0-.276.492l.394 1.435a.397.397 0 0 0 .488.278l1.422-.398a.401.401 0 0 0 .276-.493l-.395-1.434z"/>
    </g>
</svg>
