<svg xmlns="http://www.w3.org/2000/svg" width="34" height="34" viewBox="0 0 24 24">
    <g fill="#FFF" fill-rule="nonzero">
        <path d="M9.714 3.536C9.714 2.688 9.026 2 8.177 2h-4.61c-.848 0-1.536.688-1.536 1.536v4.61c0 .85.688 1.537 1.536 1.537h4.61c.85 0 1.537-.688 1.537-1.536V3.536zM8.334 8.12c0 .101-.082.183-.182.183h-4.59a.183.183 0 0 1-.182-.183V3.53c0-.1.081-.182.182-.182h4.59c.1 0 .183.082.183.183v4.59z"/>
        <path d="M4.383 4.352h2.948V7.3H4.383zM9.714 15.546c0-.848-.688-1.535-1.537-1.535h-4.61c-.848 0-1.536.687-1.536 1.535v4.611c0 .848.688 1.536 1.536 1.536h4.61c.85 0 1.537-.688 1.537-1.536v-4.61zm-1.38 4.609c0 .1-.074.19-.175.19H3.56c-.1 0-.18-.09-.18-.19v-4.6c0-.1.08-.196.18-.196h4.6c.1 0 .175.096.175.197v4.599z"/>
        <path d="M4.383 16.362h2.948v2.979H4.383zM21.661 3.536c0-.848-.687-1.536-1.536-1.536h-4.61c-.849 0-1.537.688-1.537 1.536v4.61c0 .85.688 1.537 1.537 1.537h4.61c.849 0 1.536-.688 1.536-1.536V3.536zM20.282 8.12c0 .101-.082.183-.183.183h-4.59a.182.182 0 0 1-.182-.183V3.53c0-.1.082-.182.182-.182h4.59c.101 0 .183.082.183.183v4.59z"/>
        <path d="M16.33 4.352h2.979V7.3H16.33zM3.78 10.56a.401.401 0 0 0-.4.402v1.016c0 .222.18.401.4.401h.948v.037c0 .223.18.402.401.402h2.296v.038a.4.4 0 0 0 .401.4h1.017a.4.4 0 0 0 .401-.4v-.985a.401.401 0 0 0-.401-.401h-.508v-.509a.401.401 0 0 0-.402-.401h-.546a.401.401 0 0 0-.402.401v.509H5.2v-.509a.401.401 0 0 0-.402-.401H3.781zM11.25 8.592c0 .221.18.4.402.4h1.455a.4.4 0 0 0 .4-.4V7.575a.4.4 0 0 0-.4-.401h-.508V4.038h.068a.4.4 0 0 0 .401-.402v-.545a.4.4 0 0 0-.4-.401h-1.926a.401.401 0 0 0-.401.401v.546c0 .222.18.401.401.401h.508v1.443h-.508a.401.401 0 0 0-.401.401v.076c0 .222.18.401.401.401h.508v2.233zM12.41 10.052a.401.401 0 0 0-.4-.4h-1.017a.401.401 0 0 0-.401.4v1.017c0 .222.18.401.4.401h1.017c.222 0 .402-.18.402-.401v-1.017zM19.623 14.637h-.507a.4.4 0 0 0-.402.402v1.894c0 .222.18.401.402.401h1.925a.4.4 0 0 0 .401-.4v-5.972a.4.4 0 0 0-.401-.402h-1.017c-.22 0-.4.18-.4.402v3.675zM15.076 13.164h.07a.4.4 0 0 0 .4-.402v-.985a.401.401 0 0 0-.4-.401h-1.017a.401.401 0 0 0-.401.401v.509H11.87a.401.401 0 0 0-.401.401v2.333c0 .222.18.402.401.402h2.804c.221 0 .401-.18.401-.402v-1.856zM18.714 11.031v-.508a.401.401 0 0 0-.402-.402h-.106c-.222 0-.401.18-.401.402v.508h-.947a.4.4 0 0 0-.402.401v1.425c0 .221.18.4.402.4h1.454c.222 0 .402-.179.402-.4V11.03zM16.017 15.985h-.947a.401.401 0 0 0-.402.402v.546c0 .222.18.401.402.401h.947v3.514c0 .222.18.402.401.402h.985c.222 0 .401-.18.401-.402v-6.28a.401.401 0 0 0-.4-.4h-.986a.401.401 0 0 0-.401.4v1.417zM11.501 20.848c0 .222.18.4.402.4h1.454a.4.4 0 0 0 .402-.4v-4.023a.4.4 0 0 0-.402-.4h-1.454a.401.401 0 0 0-.402.4v4.023zM18.4 20.848c0 .222.18.4.4.4h1.332a.4.4 0 0 0 .4-.4v-.985c0-.222-.18-.401-.4-.401H18.8c-.221 0-.401.18-.401.4v.986z"/>
    </g>
</svg>
