<svg xmlns="http://www.w3.org/2000/svg" width="24" height="24" viewBox="0 0 24 24">
    <g fill="#000" fill-rule="nonzero">
        <path d="M6.158 2.157H3.037C2.462 2.157 2 2.617 2 3.192v3.122A1.04 1.04 0 0 0 3.037 7.36h3.121c.575 0 1.043-.47 1.043-1.045V3.192c0-.574-.468-1.035-1.043-1.035zm.104 4.14a.123.123 0 0 1-.124.123H3.023a.123.123 0 0 1-.124-.123V3.18c0-.068.055-.123.124-.123h3.116c.068 0 .124.055.124.123v3.117z"/>
        <path d="M3.603 3.761h1.995v1.994H3.603zM6.158 10.292H3.037A1.03 1.03 0 0 0 2 11.325v3.122c0 .574.462 1.047 1.037 1.047h3.121c.575 0 1.043-.473 1.043-1.047v-3.122c0-.575-.468-1.033-1.043-1.033zm.104 4.153c0 .069-.049.11-.117.11H3.032c-.069 0-.133-.041-.133-.11v-3.114c0-.068.064-.14.133-.14h3.114c.067 0 .117.072.117.14v3.114z"/>
        <path d="M3.603 11.896h1.995v1.995H3.603zM11.127 7.36h3.122c.574 0 1.048-.471 1.048-1.046V3.192c0-.574-.474-1.035-1.048-1.035h-3.122c-.575 0-1.032.46-1.032 1.035v3.122c0 .575.457 1.045 1.032 1.045zm-.132-4.18c0-.068.055-.123.123-.123h3.117c.068 0 .123.055.123.123v3.117a.123.123 0 0 1-.123.123h-3.117a.123.123 0 0 1-.123-.123V3.18z"/>
        <path d="M11.66 3.761h2.033v1.994H11.66zM3.87 7.946h-.69a.283.283 0 0 0-.28.275v.688c0 .15.13.288.28.288h.658v.01c0 .15.106.264.256.264h1.543v.032c0 .15.133.28.283.28h.688c.15 0 .28-.13.28-.28v-.666c0-.15-.13-.266-.28-.266h-.345v-.35c0-.15-.12-.275-.27-.275h-.37c-.15 0-.26.125-.26.275v.35H4.15v-.35a.283.283 0 0 0-.28-.275zM8.257 5.09v1.526c0 .15.103.274.253.274h.986c.15 0 .287-.124.287-.274v-.689a.3.3 0 0 0-.287-.29h-.339v-2.11h.042c.15 0 .271-.117.271-.267v-.37c0-.15-.12-.263-.271-.263H7.895a.258.258 0 0 0-.264.264v.37c0 .15.113.265.264.265h.362v.978h-.362a.269.269 0 0 0-.264.276v.052c0 .15.113.258.264.258h.362zM9 8.26v-.669a.272.272 0 0 0-.271-.271h-.67a.272.272 0 0 0-.271.271v.67c0 .15.122.271.272.271h.669c.15 0 .271-.121.271-.272zM10.188 8.493c-.15 0-.288.13-.288.28v.269c.235-.199.492-.392.746-.549h-.458zM9.83 9.12H8.66c-.15 0-.285.118-.285.269v1.567A6.94 6.94 0 0 1 9.534 9.39a3.56 3.56 0 0 1 .296-.27zM21.403 19.476l-2.56-2.56c1.346-2.154 1.089-5.048-.787-6.924a5.602 5.602 0 0 0-7.914 0 5.598 5.598 0 0 0 .004 7.91 5.59 5.59 0 0 0 6.928.784l2.56 2.56a1.252 1.252 0 1 0 1.769-1.77zm-4.413-2.638a4.091 4.091 0 0 1-5.78 0 4.09 4.09 0 0 1 0-5.78 4.092 4.092 0 0 1 5.78 0 4.093 4.093 0 0 1 0 5.78z"/>
    </g>
</svg>
