<svg xmlns="http://www.w3.org/2000/svg" width="24" height="24" viewBox="0 0 24 24">
    <path fill="#000" fill-rule="nonzero" d="M11.96 15.594c.432 0 .782.35.782.781v3.32a.781.781 0 1 1-1.562 0v-3.32c0-.431.35-.781.78-.781zM2.782 6.688A.781.781 0 0 1 2 5.905V2.781C2 2.35 2.35 2 2.781 2h3.125a.781.781 0 1 1 0 1.563H3.563v2.343c0 .432-.35.782-.782.782zm3.164 8.906c.432 0 .782.35.782.781v1.367a.781.781 0 1 1-1.563 0v-1.367c0-.431.35-.781.781-.781zm-.039 4.844a.781.781 0 1 1 0 1.562H2.781A.781.781 0 0 1 2 21.219v-3.125a.781.781 0 1 1 1.563 0v2.343h2.343zm3.047-4.844c.432 0 .781.35.781.781v1.367a.781.781 0 1 1-1.562 0v-1.367c0-.431.35-.781.781-.781zM21.22 2c.431 0 .781.35.781.781v3.125a.781.781 0 1 1-1.563 0V3.563h-2.343a.781.781 0 1 1 0-1.563h3.125zm-6.133 13.594c.431 0 .781.35.781.781v1.367a.781.781 0 1 1-1.562 0v-1.367c0-.431.35-.781.78-.781zm6.133-2.735a.781.781 0 1 1 0 1.563H2.78a.781.781 0 1 1 0-1.563h2.383V5.906a.781.781 0 1 1 1.563 0v6.953h1.445V5.906a.781.781 0 1 1 1.562 0v6.953h1.446V5.906a.781.781 0 1 1 1.562 0v6.953h1.563V5.906a.781.781 0 1 1 1.562 0v6.953h1.524V5.906a.781.781 0 1 1 1.562 0v6.953h2.266zm-3.047 5.664a.781.781 0 0 1-.781-.78v-1.368a.781.781 0 1 1 1.562 0v1.367c0 .432-.35.781-.781.781zm3.047-1.21c.431 0 .781.35.781.78v3.126c0 .431-.35.781-.781.781h-3.125a.781.781 0 1 1 0-1.563h2.343v-2.343c0-.432.35-.782.782-.782z"/>
</svg>
