<svg xmlns="http://www.w3.org/2000/svg" width="24" height="24" viewBox="0 0 24 24">
    <g fill="#000" fill-rule="nonzero">
        <path d="M14.854 14.14a.714.714 0 0 0-.715.714 2.142 2.142 0 1 1-4.284 0 .714.714 0 1 0-1.428 0 3.57 3.57 0 0 0 7.14 0 .714.714 0 0 0-.713-.715z"/>
        <path d="M15.358 5.065L12.502 2.21a.714.714 0 0 0-1.01 0L8.636 5.066a.714.714 0 0 0 1.01 1.01l1.637-1.638v9.701a.714.714 0 1 0 1.428 0V4.438l1.638 1.637a.714.714 0 1 0 1.01-1.01z"/>
        <path d="M21.28 7.713h-6.426a.714.714 0 1 0 0 1.428h2.206a4.29 4.29 0 0 0 3.506 3.506v4.413a4.29 4.29 0 0 0-3.506 3.506H6.934a4.29 4.29 0 0 0-3.506-3.506v-4.413A4.29 4.29 0 0 0 6.934 9.14h2.207a.714.714 0 1 0 0-1.428H2.714A.714.714 0 0 0 2 8.427V21.28c0 .395.32.714.714.714H21.28c.395 0 .714-.32.714-.714V8.427a.714.714 0 0 0-.714-.714zM3.428 9.14H5.47a2.856 2.856 0 0 1-2.04 2.04v-2.04zm0 11.425v-2.04c1 .26 1.78 1.04 2.041 2.04h-2.04zm17.138 0h-2.04c.26-1 1.041-1.78 2.04-2.04v2.04zm0-9.384a2.856 2.856 0 0 1-2.04-2.041h2.04v2.04z"/>
    </g>
</svg>
