<svg xmlns="http://www.w3.org/2000/svg" width="24" height="24" viewBox="0 0 24 24">
    <path fill="#000" fill-rule="evenodd" d="M11.725 15.488c.624 0 1.208-.16 1.752-.48.544-.32.976-.748 1.296-1.284.32-.536.48-1.116.48-1.74 0-.624-.16-1.208-.48-1.752a3.594 3.594 0 0 0-1.296-1.296 3.397 3.397 0 0 0-1.752-.48c-.624 0-1.204.16-1.74.48-.536.32-.964.752-1.284 1.296a3.397 3.397 0 0 0-.48 1.752c0 .624.16 1.204.48 1.74.32.536.748.964 1.284 1.284.536.32 1.116.48 1.74.48zm7.464-2.52l2.088 1.632c.096.08.152.184.168.312a.566.566 0 0 1-.072.36l-2.016 3.456a.439.439 0 0 1-.252.216.532.532 0 0 1-.348-.024l-2.472-.984c-.64.464-1.208.792-1.704.984l-.36 2.616a.61.61 0 0 1-.18.312.434.434 0 0 1-.3.12H9.709a.434.434 0 0 1-.3-.12.488.488 0 0 1-.156-.312l-.384-2.616c-.672-.272-1.232-.6-1.68-.984l-2.496.984c-.256.112-.456.048-.6-.192l-2.016-3.456a.566.566 0 0 1-.072-.36.467.467 0 0 1 .168-.312l2.112-1.632a7.504 7.504 0 0 1-.048-.984c0-.432.016-.76.048-.984L2.173 9.368a.467.467 0 0 1-.168-.312.566.566 0 0 1 .072-.36L4.093 5.24c.144-.24.344-.304.6-.192l2.496.984a7.748 7.748 0 0 1 1.68-.984l.384-2.616a.488.488 0 0 1 .156-.312.434.434 0 0 1 .3-.12h4.032c.112 0 .212.04.3.12a.61.61 0 0 1 .18.312l.36 2.616c.624.24 1.192.568 1.704.984l2.472-.984a.532.532 0 0 1 .348-.024.439.439 0 0 1 .252.216l2.016 3.456a.566.566 0 0 1 .072.36.467.467 0 0 1-.168.312L19.189 11c.032.224.048.552.048.984 0 .432-.016.76-.048.984z"/>
</svg>
