<svg xmlns="http://www.w3.org/2000/svg" width="24" height="24" viewBox="0 0 24 24">
    <g fill="#000" fill-rule="nonzero">
        <path d="M19.5 4.026h-15C3.122 4.026 2 5.167 2 6.57v3.389C2 11.359 3.122 12.5 4.5 12.5h1.667v7.626a.84.84 0 0 0 .833.848h10a.84.84 0 0 0 .833-.848V12.5H19.5c1.378 0 2.5-1.14 2.5-2.542v-3.39c0-1.401-1.122-2.542-2.5-2.542zM16.167 19.28H7.833V9.11h8.334v10.168zm4.166-9.321a.841.841 0 0 1-.833.847h-1.667V9.111h.834a.84.84 0 0 0 .833-.848.84.84 0 0 0-.833-.847H5.333a.84.84 0 0 0-.833.847.84.84 0 0 0 .833.848h.834v1.694H4.5a.842.842 0 0 1-.833-.847v-3.39c0-.466.374-.847.833-.847h15c.46 0 .833.38.833.848v3.389z"/>
        <path d="M12.333 13.432V12.17c.27.07.529.182.767.33.05.01.1.01.15 0a.42.42 0 0 0 .425-.415.348.348 0 0 0-.083-.22 1.998 1.998 0 0 0-1.259-.534v-.45a.294.294 0 0 0-.291-.288h-.01a.293.293 0 0 0-.299.289v.44a1.51 1.51 0 0 0-1.541 1.44c0 .975.791 1.246 1.541 1.441v1.424c-.35-.05-.68-.193-.958-.415a.398.398 0 0 0-.242-.085.42.42 0 0 0-.4.424c0 .083.03.165.084.228.41.394.951.618 1.516.627v.434c.01.163.148.287.309.278a.294.294 0 0 0 .291-.288v-.424c1.084-.101 1.542-.754 1.575-1.482 0-.992-.825-1.289-1.575-1.492zm-.6-.186c-.383-.11-.658-.212-.658-.543 0-.33.258-.559.658-.601v1.144zm.6 2.38V14.365c.392.119.684.34.684.619 0 .28-.192.567-.684.644z"/>
    </g>
</svg>
