<svg xmlns="http://www.w3.org/2000/svg" width="92" height="25" viewBox="0 0 92 25">
    <path fill="#5DCFD0" fill-rule="nonzero" d="M0 11.029a58.571 58.571 0 0 1 4.786-3.232C18.524-.529 33.549-2.462 48.468 6.06c13.702 7.827 26.53 6.094 37.891-1.565A44.97 44.97 0 0 0 92 0v4.575a48.926 48.926 0 0 1-3.756 2.803C75.902 15.698 61.74 17.61 46.798 9.076 33.093 1.248 19.318 3.02 6.532 10.768A54.506 54.506 0 0 0 0 15.41v-4.38zm10.151 4.26C22.39 9.527 35.47 9.015 48.468 16.44c11.863 6.777 23.071 6.387 33.239 1.19v3.838c-10.709 4.96-22.542 5.053-34.91-2.012-12.42-7.094-24.899-6.303-36.646-.325V15.29z"/>
</svg>
