<svg xmlns="http://www.w3.org/2000/svg" width="68" height="32" viewBox="0 0 68 32">
    <g fill="#FFF" fill-rule="nonzero" stroke="#5DCFD0" stroke-linecap="round" stroke-linejoin="round" stroke-width="2">
        <path d="M29.626 7.555c0-3.741 3.25-6.627 6.702-5.986C47.7 3.6 66.789 9.372 66.789 16.214c0 6.841-19.089 12.507-30.461 14.645-3.554.641-6.702-2.245-6.702-5.987V7.555z"/>
        <path d="M36.023 13.434v5.452H18.761v-5.452z"/>
        <path d="M1.703 17.71v-3.1c0-1.924 1.523-3.527 3.35-3.527h12.795c1.827 0 3.35 1.603 3.35 3.527v3.1c0 1.924-1.523 3.528-3.35 3.528H5.155c-1.929 0-3.452-1.604-3.452-3.528z"/>
    </g>
</svg>
