<svg xmlns="http://www.w3.org/2000/svg" width="188" height="32" viewBox="0 0 188 32">
    <path fill="#424241" fill-rule="nonzero" d="M.483.254h4.966v30.232H.483V.254zM20.9 8.33c4.837 0 8.292 3.283 8.292 8.897v13.26H24.53V17.701c0-3.282-1.9-5.01-4.837-5.01-3.067 0-5.485 1.814-5.485 6.22v11.574H9.542V8.892h4.665v2.764C15.632 9.41 17.964 8.33 20.9 8.33zm15.84 6.522c0 3.93 11.618 1.555 11.618 9.545 0 4.319-3.757 6.65-8.422 6.65-4.319 0-7.428-1.943-8.81-5.052l4.016-2.332c.691 1.943 2.419 3.11 4.794 3.11 2.073 0 3.671-.692 3.671-2.42 0-3.843-11.618-1.684-11.618-9.415 0-4.06 3.499-6.608 7.904-6.608 3.542 0 6.478 1.642 7.99 4.492l-3.93 2.203c-.778-1.685-2.29-2.462-4.06-2.462-1.684 0-3.153.734-3.153 2.289zm25.256-1.468H56.64v10.365c0 2.764 1.814 2.72 5.356 2.548v4.19c-7.17.863-10.02-1.123-10.02-6.738V13.384h-3.973V8.892h3.973V4.227l4.664-1.382v6.047h5.356v4.492zm18.82-4.492h4.665v21.594h-4.665v-3.11c-1.641 2.29-4.19 3.672-7.558 3.672-5.874 0-10.754-4.967-10.754-11.359 0-6.435 4.88-11.359 10.754-11.359 3.369 0 5.917 1.382 7.558 3.628V8.892zm-6.824 17.707c3.887 0 6.824-2.893 6.824-6.91 0-4.016-2.937-6.91-6.824-6.91s-6.824 2.894-6.824 6.91c0 4.017 2.937 6.91 6.824 6.91zM118.511.254v30.232h-4.967V8.936l-9.199 15.202h-.605L94.541 8.892v21.594h-4.967V.254h5.356l9.113 15.116L113.199.254h5.312zm14.286 30.794c-6.306 0-11.402-4.967-11.402-11.359 0-6.435 5.096-11.359 11.402-11.359 6.348 0 11.402 4.924 11.402 11.36 0 6.391-5.054 11.358-11.402 11.358zm0-4.535c3.8 0 6.737-2.894 6.737-6.824 0-3.93-2.937-6.824-6.737-6.824-3.801 0-6.738 2.894-6.738 6.824 0 3.93 2.937 6.824 6.738 6.824zm27.76-17.621h5.096l-8.421 21.594h-5.4l-8.421-21.594h5.096l6.047 16.412 6.003-16.412zm10.053 12.784c.734 3.369 3.455 5.096 6.91 5.096 2.592 0 4.535-1.166 5.572-2.678l3.844 2.246c-1.987 2.937-5.226 4.708-9.459 4.708-7.126 0-11.747-4.88-11.747-11.359 0-6.392 4.62-11.359 11.402-11.359 6.435 0 10.84 5.183 10.84 11.402 0 .648-.086 1.34-.173 1.944H170.61zm-.043-3.8h12.697c-.647-3.715-3.368-5.313-6.176-5.313-3.498 0-5.873 2.073-6.521 5.312z"/>
</svg>
