<svg xmlns="http://www.w3.org/2000/svg" width="417" height="288" viewBox="0 0 417 288">
    <g fill="none" fill-rule="evenodd">
        <path fill="#C9C9C9" d="M120.194 123.588l1.678-2.994.347-.234-3.326-4.203-1.677 1.185-.452-.788.48-1.805-3.748-1.008-.57 2.135 3.496.94.243.915-.572.407-.492-.615-1.006.076h-.54l-1.121-.31-2.438 2.217-1.366 1.642-1.132 1.363-.757.454-.891.234-.463.544-.154.662.23 1.166-.036.583-.784.076.543.896-.274 1.592-.523 1.016-1.606 1.137-2.328.857-1.774.651-.99-.544v-3.193l-1.443-2.06-.878-.262-1.395.985.16 1.034.501.584 1.479-.132.415.29-.24.837 1.471 2.89.927.425.659 2.84-1.006.892h-2.573l-.735.234.395.4 1.67-.334.334.604-.601.738h-1.063l1.606 4.412 1.529 1.096 6.414-1.88-1.003-1.143-.199-1.679 1.137-.672-.087-.376-.347-.583-.659-.194-.232-.389.658-.116.928.583.54.263 1.223-.861 4.309-6.64 3.135-3.775.69-.89 3.088-1.747 1.196-.428zM326.33 38.872l-4.17 4.533.173 1.587.962-.866-.43 4.855 1.858 3.14-5.051 2.912-4.095 2.941-4.43 1.714-1.285-1.714.171-.297-6.155 1.648-3.302 3.296-6.848 2.65-.527-.263 3.689-1.31 3.633-1.367 3.276-3.272 3.57-1.19 2.82-.464.245-.431 3.786-3.784 4.358-2.498 2.793-4.83.74-.67-.21-1.932 1.607-1.606 1.581-1.58 1.1-1.435-.132-.222 1.844-1.992 3.689-3.273 4.683-1.85 2.268 2.275 4.824-1.137h2.695l.711-1.708 2.269-.712 2.697-3.133 2.553-2.562 2.98-.142.568 1.85-.427 3.132 4.54-.425 3.12 1.136h6.243l2.838-.425 4.113-1.567 4.115 1.709 1.562-3.273 3.689-3.701 5.577 1.499-2.315 2.769-2.553 2.706v2.561l-1.554-.417-4.688 1.556-4.825-1.567-2.27 1.426-2.554.711-3.262.853-4.99-1.341-3.806-2.93-4.1-1.1-19.403 24.479-13.097 24.194-10.051 24.671-1.183.712 9.942-23.179 6.97-13.349 7.22-13.094 19.22-24.538-1.778-.478-2.394 2.538-2.98 2.276-3.108.063-.44 1.362-3.408-.425-6.645 1.622-5.615 3.25-2.631.39-.58-.967zM78.475 112.874l.33 1.229.83 16.738-8.007 2.347-3.485 1.233-.925-6.145-5.933-6.606.249-.325-21.902-20.706.45-.47 21.847 20.657 9.801-12.865 4.473 2.152 1.125.936 1.017 1.527-.411-.945-.234-1.121.501.626.87 1.898 1.1.363 13.882 2.163 1.314.108.37.487.029.834-.376.88-.473-.28.396-.676v-.974l-2.07-.181-.2 1.726 2.684 8.009-1.682.537-.188-.682 1.22-.4-2.487-7.398.267-1.895-13.239-1.94.24 7.82.352 2.966 1.332 5.685-.2.357-1.801-5.408-.237-8.133-.429-3.208-.4-.92zm193.053-12.518l-.186.69-3.749 4.156.38 2.62.587 1.017.605 4.293.36 2.235.88 6.367-.255.946-.419.858.055.648h-.215l.564 3.18-1.533.19-.325-2.938-.485.564-.296.485-1.325.357-1.318.354h-1.664l-6.568.12v-.343h4.333l.902-.36.311-.356-.023-.294-5.523.03.013-.318h5.195l.886-.511.306.034-.023.37h1.96l1.213-.053.712-.412.629.063.411-.411.228-1.191-1.31-6.795-.458.069-.571.99-1.174 1.388.828 3.087-.108.398-.214.024-.228-.543h-1.842v-.194h-1.363l.021.25h-13.495l.055-.455-.141-.535.183-.692.865.013 14.231-2.473-.225-.718-5.067.682-.055-.234 5.722-.77-.37-1.537-15.077 2.7v-1.256l12.051-2.003.566-1.492-.66-1.581-.603-.7-5.135 1.114-3.028 1.264-2.45-.315-19.961-5.604.838-3.26 15.162 4.362 2.195.902 11.214-.559 1.207-.606.097-2.606-13.775.372-16.466-4.747-5.87 1.346.423.962 2.2-.506 3.194.983-.977 3.179-.65-.407-10.228-2.871-.548 1.78 2.699.832.031.194-4.75-.55-.12-.654-1.91-.59-2.269-.081-.81.43-1.325-.831-9.466-5.778-2.489-2.231-1-.097-.194-.323-.097-.42 1.082-.574-.564-2.467.671-.118-.995-4.346-.493.05-.411-1.799-.577-.065-.815-3.556-7.333-1.165.936-3.85 1.003-.322-.134-.758-1.074.57-1.024 3.327-2.583-2.785.162-.128-3.663-4.818-.83-1.877h1.423l5.363-3.978-.606-.945-1.027.677.328.328-4.066 3.493-1.53.189-.511-.968-1.601-6.126-.487-.926-1.174-3.645-1.478 1.18 1.942 7.285-.954.462-.692.336-1.658.317-1.475-4.602-.762.243-2.555.968-.34 1.065 1.04 3.241-.283.053-1.109-3.452-8.15 6.092-1.174-.055-1.284-1.062-4.802-3.69.69-1.214 3.436 2.623 1.703-2.237-7.67-5.85 2.957-3.885 9.66 6.819 7.668-6.008 4.769-3.687-1.132-1.757-3.249-4.731-1.24.8-3.423-3.585-.595 1.628 3.66 4.089-1.08 4.358.697.181-.317.737-2.648-1.857.655-.936-1.402-.983-3.702 5.287-2.02-1.417 4.208-6.01-2.74-1.92-5.007 7.07-1.457-.915-.042-.63.288-.943 7.656-10.668 1.142.718.18-.18-2.064-1.708-1.582 2.043-1.606-1.01 1.056-2.357-5.298-2.898-1.973 5.345.53.516.772-.178 1.698-4.115 1.022.318 1.184.742-.045.36-1.826 4.347-1.069.994-.961.22-1.62-.058-1.665-1.28-.692-1.303-.11-1.146 1.907-5.053.38.066.404-.38-.179-.294-12.947-2.156-.226.226 3.592 13.418 1.433 5.358-3.261-2.342-.97.968 1.077.863-.43 1.182-2.258-1.615 2.382-2.41-2.275-3.942-2.905 3.769-1.415-1.201 4.176-4.18-1.47-5.494-7.993 10.447-3.733-2.158 5.832-8.216-11.34-1.86-.185-1.489 12.329 1.923 3.409-3.412-15.479-3.375-.993.26-.346-.866-3.977-.779-.65.478-1.123-.305-.561-.647-7.134-1.645-.456.35 1.493 5.577-.421.223 1.158 4.322 1.252.519 4.15 13.717.778.562h12.28l2.766 2.035v1.114h-15.321l1.745 4.555h13.877v2.596h-13.272v3.071h13.058v2.943h-13.186v4.717h3.285v.346h2.767l.044 1.471h-5.709l-.236 5.258-1.362-1.363.346-3.853h-5.405v5.193l-1.252-.606v-4.629h-8.39l-2.334-5.451 3.115.432.648.735h9.64v-8.09h.389l-6.613-21.119.603-.152-.865-3.223-.516.129-.39-1.039.065-.367-1.231-1.232.48-.28-.656-2.448-.768.302-.754-2.816-5.374 3.105-1.663-2.882-3.972 2.006-3.678-6.378-.902.09-1.346-2.34.086-.994-24.341-5.279-2.01-.283-1.362 1.364-.26.605 4.8 14.41 2.94 7.01.65.91.906.346h16.039v2.811h6.57v2.122h-5.705l.044.388h-4.713v3.029h-1.816V46.23h-10.29l-.776.304-.349.475v5.887l-.346.084v2.51l.781.91.647.217.692.346h10.592l-.086-.39h4.668v3.16l-.518.388H62.372l-.521 1.038v2.164h-3.587l-.427.493-.956 3.574-6.702 19.82-.346.302h-8.991l-.737.737-.432.041-.432-.173-.474-.56-.477-.347-1.08-.04-5.664-1.518-1.512 3.504h-.05l-2.339 4.198-.168 3.451-.972-.975 3.514 3.52 2.945 2.944.052-.029.118.2 1.2 2.084.044-.018 2.492 6.131.251 2.835.055.008-.031.238-.417 3.205-2.365 18.194-.912 7.012.199.005-.042 1.747.325 1.13 1.197 2.022 36.31 23.213-.013.021 4.198 2.74 1.07.428.646-.49 2.064-3.651.23.167-2.503 4.567.201.438.64.81-.134.24-.31.24-.72-.908-.957-.914-1.03-.765-1.607-.95-1.967-1.155v-.516l-.437.684-36.807-23.53-.234-.15.076-.118-1.21-2.048-.445-1.542.042-1.746h.028l.928-7.133 2.366-18.194.382-2.945-.24-2.712-2.293-5.646-1.208-2.092-.07.073-3.46-3.461v-.003l-13.61-13.623 1.006-1.007 8.277 8.284.59-1.34 3.172-2.36.618-1.288 1.79-3.934 1.037.087 6.312 1.385 4.495.346 1.989-1.6h4.498l.993-.131.39-2.379-.345-.692.893-2.381.867-1.503.616-2.305 1.1-.915.847-1.466.086-1.209-.13-.262 2.119-5.32v-2.901h-2.12l-.33-14.777-3.304.886v-1.993l3.375-.905.26-5.279-1.125-2.682-1.124-3.158-7.09 1.902-.136-.38 1.737-1.005.042-.433 5.665-1.904-.045-.605-.519.042-.086-1.08-1.038-.651-4.582-14.539-6.398 1.99-.49-1.077 6.629-1.778-.215-1.212-1.124-.996-15.91-3.33H26.79l-.82 1.166-.173.997 5.242 26.898-1.092 4.085-1.082-.217.605-3.33-.215-.305-3.977.606-.304-.26L22.468 28.1l-6.72 1.27-.456-1.703 6.83-1.211L19.081 9.94l-.538-1.166-.896-.808L6.98 6.084 2.855 0l133.546 27.294-2.11-7.878 3.388 1.416 1.35-2.412h2.606l-.773.965-.917 2.43-.044 1.16h6.023l.676 1.81-3.223.739h-6.484l.542 1.935 11.34 2.588 4.01-2.696-.03-.527.617-.776.993-.233 1.606-.853.273-.621-.351-1.086-1.247-3.102-.883-1.673.385-.273 2.455 5.166.46 2.02-1.53 2.441-1.537 2.455v.786l5.431 2.224.472-.157 1.435.63 1.172-1.289 1.658 1.042-1.1 2.155 5.072 4.201 1.883-2.404 1.169.899-1.1 1.482 4.556 4.717 2.782-3.527 1.75 1.348-2.895 3.708 4.533 3.39-.336.562 2.11 1.482 1.38-.968 1.223.766-2.716 3.482.225.226 2.222-2.74 1.12.852-2.02 2.696.182.18 4.98-6.38 1.976 1.55-4.263 5.009 3.298 2.696 2.243-2.874.427.335-2.177 2.764 1.1.944-2.604 3.346.315.247 2.693-3.483 1.66 1.26-.672 4.963.353.03.275-.892 4.556.165 4.106-4.335-4.97-3.907.251-.404 6.94 4.356-.21.43-.751-.472-.081.139-.592 1.028 3.227 2.087-.091.312 2.135 1.149-.113.27-3.201-1.907-.456.85-2.604-1.707-2.041 3.034 7.645 4.767-.39.727.012-.024.477.247.446-.646 5.97 3.724 1.557-2.347.4.294-1.467 2.357 1.318.821.933-1.36.244.185-.965 1.333-.974.411-.805.215-.83-.48-.346-.015-1.514 1.909-.393-.338 1.346-1.946-5.292-3.443.241-.449-.463-.252-.262.486-1.664-.984.003.003-.724 1.23-.243-.19-.147.221-.747-.43.83-1.44-4.691-2.769v2.268l1.28 3.664-.36.246.515 2.313-.458.208.571 1.903 1.774-.695.207.339-1.847.556.047 1.6 2.444-.315.113.27-2.602.246 1.593 5.974-.382.181-1.122-4.584-.471.157 2.85 11.209h1.077l.92 1.125 3.264-2.316-.154-.161 1.635-1.27.888-2.267-1.504-4.287.657-.157 1.406 3.948.144.814-.96 2.19-1.828 1.42.109.221-3.411 2.447 1.124 1.82 5.968-4.178.56-.763.315-.383 5.342-3.794.335.403-9.55 7.16-.434.813-1.753 1.3 2.177 1.172 2.358-2.504h.726l-.21.886-.201.36 3.254.359.178.606 1.684.18.09.315 7.877-1.505-1.01-5.302.56-.045.92 5.169 7.757-1.524.592-.364.542-.284-1.17-1.896 1.438-.236 1.187 1.923 3.523-.9-.089-.674-1.294-.983.618-1.151 1.439.608.089.79 2.447.579 2.4-.538.673.134 1.417.936 5.025-.15.642-.361.346-1.463.31-.54-.226-.845-.53-.532-4.681-1.254-.435.422h-.375l-.298-.56-.3-.038-.02-.411.207-.265 1.606-5.995-.54-1.172-4.079-1.096.003-.103 3.178.617h1.459l.844-.226-.768 1.335 1.517.409.409-1.524.41.118-.617 1.48-.543.207-.542-.04-1.176 3.989v1.01l.44.765.288.284 5.635 1.51.388.674-.684 1.78-.186 1.33h2.536l.045.428h1.166l.249-2.426.288-.06.81.217v1.663l-.65.065-.068.407h3.502l1.75-.315 1.614-.294h2.178l2.088.315 2.965 1.117.983.57-.12.55.754.435-.61 1.057-.449-.336-.898 1.301.697.496-.002.003.03-.04.399.212 1.024-.604-.703-.424.35-.587 2.08-2.94.588.315 1.278 1.968 1.646 2.153 2.312 3.082-4.534 5.407-3.479-2.987-2.108-2.155 1.794.937.558-.988-2.934-1.729zm-.148-.364l.36-.634.518.15.534-.169.103-.142-.353-.018-.846-.229-.443.771.127.271zm-52.485 31.65l2.687 1.486-5.929-1.7-4.541 1.45-.104-.303 4.092-1.306-5.429-1.557.022.054-3.394 1.086-.12-.382 2.905-.927-3.633-1.043 3.827-1.188 3.524.957 2.365 1.309.174-.327 3.66 2.182-.106.209zm91.908 38.203l-4.042.694-.033-.187 3.952-.679-.06-.082.212-.272.486.272.42.394.173.39-.557.236-.55-.766zm1.068 95.766l-1.211 6.075-.341-.068 1.237-6.21v-.012h.003l.02-.105.342.068-.008.037h1.7v-2.874l-7.509.013v-.227l7.508-.013v-1.854h.235v5.17h-1.976zm-44.232-22.74l.103.517.253.523-.196.584.31.1-.056.361.233.263.25-.263.408.121.194-.36.136-.845.204-.785.772-.463.645-.67-.226-.255.594.258-.244.468-.707.734-.494.672-.288 1.107-.313.201-.842.502.239.502-.328.08-2.185-3.921.365-.211.392.702.633.055.064-.02-.119-.06.19-.292v-1.168l-.234-.901 1.004.36-.196.518-.064.337.35.089.196.561-.174.135-.503.202-.132.383-.234-.12zM110.076 104.164l.027-.117 5.019 1.444-.121.495-5.04-1.335.018-.08-8.613-2.052-3.02.063.054-.264h2.825l-.117-2.149h.351v2.018l8.617 1.977zm197.475 39.304l.333-.367 5.262 4.781-.434.478-5.111-4.645-.052.066-.496-.499-.466.272-1.994-1.824-1.127.304.136.412.094 1.736 3.069 3.09 1.274-.115 12.219 9.97 9.788 9.859.576 2.333h-5.673l-2.665-.7-3.706-2.916-.616-1.056 8.769 3.233.705-.19-2.67-2.217-7.23-4.204.426 3.378-.542-.926-.58-1.869-.924-2.214-.813-1.167-1.158-.818-1.853-1.75-1.622-2.214-1.737-.818-1.853-1.631-1.852-1.402-2.202-.467-1.737-2.798.812-.35.925-.932-.29-2.677-.928-.538-1.58-.177-1.908.792-2.188.11-5.632.888-.411-.724-.626-.361-.459-2.59-.12-1.287 1.611-1.196.131.17.857-.695 1.077 1.53 1.52-.978 2.675 3.452 4.573-3.022 6.423 5.48zm-31.272-61.175l1.677-.87-2.177-5.69.262-.121 2.32 6.072-.26.122-1.767.915-.143-.332-3.347 1.69-.228-.452 3.456-1.744.207.41zm-56.782 40.463l.05-.085 5.037 2.908-.323.558-4.884-2.82-.067.118-3.535-2.072.466-.513 3.256 1.906zm-10.508-6.692l-1.69-1.453-1.042 1.069-.16-.14 1.041-1.066-1.041-.896 1.047.89.079-.08.164.133-.082.084 1.7 1.447.02-.014-2.609-2.61.724-.333 2.566 2.446 1.58-1.154.617.466-1.394.993.73.656-.341.212-.652-.666-2.425 1.57-.434-.384 1.602-1.17zm-2.11 17.388l2.995-.97.094.278-2.991.967 1.055 2.995-1.09.284-1.49-4.227 1.086-.297.342.97zm-13.155 1.667l.114.022-.26 1.219-.386-.057.138-.649-.138-.028.23-1.205.416.105-.114.593zm4.773-10.76l2.256-.02.644-.904.538.087-.578.809 2.804 1.907-.755.428-2.009-1.537-3.043.103.043-.703-.085.143-.086 1.348-1.624-.125-.184-.285 1.37-.927.71-1.248.501.079-.502.846zm3.153 9.957l-2.633.751-.018-.402 3.12-.89.046.164 3.167-.81.12.327-3.77.965-.032-.105zm-5.232-12.82l.306-2.585.34.216-.37 2.369h.111l.259.272-2.581.182.04-.454h.558l.085.012.002-.012h1.25zm-20.159-8.085l2.68-.963.059.134-2.77.995-.236 1.292-.518.164.356-1.313-.058.02.025-.163.079-.028.177-.657h-.227l-.475 1.942-.225-.045.435-2.34.856.101-.158.861zm70.486 79.173v2.585h-.645v-5.17h.645v2.585zM101.248 94.999h.325v4.524h-.646V95h-.153v-1.564l-7.029.183-.27.374h-2.192v-.512h-.034l12.26-.42v.293h-2.26V95zm-3.623 6.326l.076 1.222-.412 2.775.386.048-.238 1.92-.498-.061.237-1.91-.12-.022.386-2.748-.105-1.224H95.12v-.51h2.581v.51h-.076zm-12.828-.431l3.857-.156.021.525-3.868.156-.01-.246v.227h-3.871v-.584h3.871v.078zm20.647 56.146h5.095l.117 3.883.595 3.872h-.755l-.197-7.534h-4.855v.213h-5.162v-.434h5.162zm194.26 53.293l.044.1-.316.246-.356-.509-.07-.423 1.195-1.337.275-.195.233-.121.18.035.053.35-.397.334-.672.863-.303.352.11.249.339-.244.172.192.1.175.073.06h.318l.116.056v.148l-.16.279-.056.308.143.06.304-.075.288.06h.406l.274-.134.143-.145.102-.22.07-.103.132.22.434.16-.087.118-.488.168-.379.385-.665.182-.289.015-.201.03-.216-.237-.03-.22-.446-.234-.175.13-.26.163-.49.015-.145-.279.925-.616-.228-.36zm-20.918 10.673l-.497-.942.55-.291.487.922 2.445-1.405.231.402-2.46 1.414.805 1.525-.55.29-.795-1.505-.916.527-.23-.402.93-.535zm-50.7-68.323l-.021-.03 7.3-5.32.288.396-6.938 5.056.059.08-5.725 4.196-.327-.446 5.365-3.932zm-84.04-13.092h.11v2.585h-.645v-5.16h.44l.252-.254.175-.414-.128-4.512h1.103l.095.588h1.937l1.232-.334.056.352-1.222.332h-2.679v5.417h-.302v.559h-.424v.841zm10.41-8.793h-1.222l-1.3.618-2.583.42-.033-.266 2.573-.425 1.27-.602h1.292v-.512l1.785-.134-.115.202-1.181.048.128.716.9.512.663-1.131.404.215-2.458 4.666.232.357 2.113-.75.137.246-3.022 1.079-.206 1.26-2.768 5.505-.457-.202 2.744-5.214.254-1.643 1.9-3.527-.185-.541-.606-.596-.259-.3zm75.433-17.756l-.31-.308-.133-1.128-.242-.267-1.659-.44.197-1.036 2.694.71 3.633 1.77 1.707.979-7.78 7.528-.608-.348 1.821-1.64.515-.72-.923-.798.223-.3.923.706.303-.314.43.335 1.919-1.908-.409-.406 1.213-1.374-.329-.775-2.686-.53-.263.262.305.305-1.825 1.824-.422-.421 1.706-1.706zm-5.967 7.401l-.405-.279.29-.607 1 .77-.296.523-.353-.244-.227.89-2.16-1.524-.261.196-.877-.53.111-.254-1.098-.86.68-.26 3.596 2.18zm-32.82 10.706l-.023.04-.084-.068-.383-.1.075-.153-3.302-2.71.314-.2 3.154 2.587 2.985.748-.125.543-2.611-.687zM309.33 106.42l3.425-1.403 1.633 4.475 4.329 4.333 6.53-.851 3.12-8.101-.71-5.824-2.41.141-.992-2.266 4.68-2.707 4.061-.251 1.445-5.392 7.194-1.944 3.602-19.977 2.735-6.914 9.4-5.434 7.3-5.62 6.752-11.708 6.368-3.681 10.42 2.796 1.86-6.951 4.45-5.23 20.623.65v47.861l-29.834 36.315 10.055 52.787-40.338 17.63.282 5.93-8.15.391-3.038-4.732-.67-4.296 8.333-5.366 1.243-4.752-4.4-2.27-4.933-4.485-7.844 1.596-4.362 2.809-.142-4.405-.984-6.633-1.554-2.956 4.527-2.913-.507-1.368-8.127 2.602-3.858-3.508-2.09.542-10.069-9.156.003-.206-4.648 2.967-2.312-2.294.68-.801.872.866 3.005-3.656-.45-.227 1.582-1.828-6.367-3.303-.485.609.453.803-4.656 2.918-5.655-4.81-.325-.516-2.583-2.567-.163-1.058.613-.897 6.305-.354.791-.749-2.958-1.849-14.027-12.093 4.332-5.13.964.264 1.355-.361 2.811-.45.938 6.416.613-.031-.225-5.423 3.459 4.715 1.551 1.862 1.866 3.76 4.284-1.141 5.741-5.698 1.45-.286 1.831.765v.02zM193.95 103.02l-.113-.026.186-.239.05.014.007-.014.094.041 1.598.43-.138.176-1.246-.283-.14.283-.411-.15.113-.232zm-4.262-2.276l-.048.073-.32-.232.077-.115-2.013-1.888.3-.35 2.281 2.202-.2.383-.077-.073zm-2.402 4.033l.098.052-2.216 3.702-.364.04 1.999-3.333-.064-.037 1.996-3.683.02-.006-.004-.022.366-.673.203.206-2.034 3.754zm-16.868 24.827l-.326.151.011.024-1.017.44-2.238.972-.11-.296 3.252-1.412.003.006.318-.148-.347-.85.348-.155.44 1.076 2.783-1.384-.419-.962.302-.144.419.957 2.44-1.212.139.315-5.874 2.916-.106-.253v.003l-.018-.044zm12.067-7.46l.14-2.278.512.03-.157 2.577-.188-.011-.213 3.397.289.631-.324.177-.321-.7.24-3.824h.022zm3.355 3.912l1.544 1.085-.31.172-1.116-.785-.34.195-.206-.36-1.739.95-.16-.34 1.741-.952.11.183.422-.242.054.094zm3.48-2.373l-1.696 1.045-.07-.069-.17.07.02-.222-.02-.019.022-.013.144-1.686.48.008-.12 1.37 1.19-.725-.351-.387-.074-.266.277.008.003-.002 2.008 2.175.707.338 1.428.377 2.029.115-.05.22h-1.541l-2.787-.764-1.43-1.573zm-6.065 4.206l-.13.07-.12-.121-.137-.291.041-.023-.041-.043.285-.168.05.054.1-.054.156.325 1.345 1.424-.26.19-1.29-1.363zm-70.95-7.465l-.232.87-1.15.824 1.803-2.627-.42.933zm30.524 67.255l4.148.44 3.63.35-.193.449-5.802-.272-1.107 1.932.883.427h-2.626l-.387.39-.542.82-.141.055.673.677.63-.635.654.18.005.3.964.26.764-.208.042-.145v-.772h1.882l.82-.113h2.291l-.036.208h-4.34l-.298.32-.019.45.222.527-.203.263-.345.604.196.74-.243.538-.692.403-1.6-.63-.924-.25-.436.195-.59.342.384-.51.206-.454-.242-.546.094-.395.203-.074-.018-.3-.073-.303-.473-.477.324-.127-.877.343-.93.509.466.545-.62.662.466.624.268.86-.772-.82-.856-1.5-.843.68.425 1.602.04 1.168-.348-.235-.232-1.286h-1.12l-.927.272-.425-.232-1.532.413-6.465 1.147h-2.668l-3.012-.35-3.169-.51-3.419.926-3.537 2.063-2.626 3.876.76 1.329.713 2.685-1.394 8.741h-.695l.966-5.265.27-2.81-.512-1.926-.355-1.344-1.026-1.37-1.7-1.716-10.354-7.257.387-.427 10.894 6.98h.465l-.04-.74.656-.155.232-.896-2.075-.564.065-.685-.23-.04.115-.43-2.743-1.596-.269.427-1.777-1.036-.272-.914v-1.835l.828-1.444 6.01-4.912 1.199-.234 1.631.442.958.883 2.751.746h3.12l1.829-.495 1.43-.388.334.527 1.042.08.775 1.13 1.613 2.822 1.864 1.086h2.278l2.17-1.262 4.899-2.296h1.547l1.814-2.419 2.705-2.105.542-1.247 1.274-.274h5.294l.926.35v1.795l-.733.08-1.506-1.524-.619-.195.734 1.015-.426-.04-.658-.896h-3.09l-.63 2.38 1.042 1.823zm140.043-63.06l-.375.9v.865l.297 1.12.324.326.323-.13.526.915.183.685.016.498-.093 1.1-2 6.109-4.282-2.062-.678-.542-1.066-1.42-1.059-.615-.903-.527.17-.644.47-.073.325-.568-.03-.557-.309-.821-.468.221-.26-.45.198-.116-.112-.411-.15-.571-.393-.394-.308-.078-.425.078-.986.574-1.03.276-.16-.594 1.961-.53.624-.362.386-.372.57-.574.724-1.068.6-1.786.174-.232h7.508l.647.652-.94 1.178zm6.468 3.513l.3-.173 3.559 3.053-1.31 1.278-2.404 3.032.372.516-.333.229.745 1.029-1.566 1.203-.391-.84h-4.81l-.626-.075 2.345-6.22.587-1.183.86-.725 1.264-.33 1.408-.794zm30.893 106.198l-.122.37 2.122 3.623-.207.396-.257.368-.732.606-.355.35-4.367 2.237-.313.54-.252.018.14-.509-.537-.404-3.01 1.547-.71.186-.19.333.013.176-.425.128-.335.164-1.788.473-1.608-.282-.54.143-.586-.577-.457-.45h-1.115l-.452-.028-.731-.417-.322.19.013.176.23.253.117.355-.025.125-.27.218-.309-.026-.272-.192-.244-.1-.218.1-.244.18-.117.124-.244.154-.205-.051-.4-.126-.282-.012-.205-.154-.195-.076h-.114l-.207-.317-.127-.33-.247-.317-.23-.327-.193-.243-.192-.279-.168-.314-.35-.599-.28-.618-.385-.381-.285-.154v.18l.052.252.116.177.04.217-.04.215-.103.355-.115.202-.179.14-.181.062-.09.013-.336-.013-.23-.112-.065-.205v-.391l-.026-.23-.114-.276-.013-.281.127-.215.272-.09.127-.15.04-.167.038-.176-.013-.138-.039-.115-.078-.09h-.179l-.36.228-.244.243-.257.202-.283.076-.181-.189.025-.294.31-.278.412-.177.436-.248.295-.171.348-.049.322.126h.425l.397-.126.182-.05.334-.23 1.391-.79 1.977-1.274.506-.135.163.158.195.33.114.406.205.481.247.422.205.112.321.177.387.05.397-.025h.578l.646-.171.332-.07.566.15.283.04h.796l.296-.051h.812l.322.064.41.202h.617l.4-.228.192-.38-.076-.583-.13-.254.387-.214.166-.205-.1-.24-.092-.266.314-.537.135-.273-.075-.343-.09-.215.518.138.693-.68.23-.399-.44-.352.264-.448 2.577.642 4.029-1.393.218.792-.908.517.137.506 1.206-.425.436-.248-.145.535zm-98.963-48.22l4.635-1.817.192.543-4.552 1.736 2.166 5.069-.659.298-5.627-13.345h-1.028l-1.369.78-1.19-1.482 2.01-.97 1.897-.836.664-.657.894-1.53.585-1-.198-1.74-.825-2.054-.837-3.091-.502-3.378 1.601-.425.934 3.624-.374.543 1.473 4.024 1.284 1.269h2.153l.633-.137.037.82-1.708.454-.186.482.515.39-.358.55-.037.74-.633.507-.95-.235-2.623 2.038 1.908.9-.574.583-2.049-.908-.454.354 3.152 7.901zm41.98-105.973l-.465-.785L250.2 73.4l-2.102.748-1.659 1.032-.34-.171 2.128-1.193 2.057-.71 4.143 2.128 2.815-5.331 3.086 1.287 1.678-3.333.324.184-1.543 3.124.516.184-.19.367-.542-.158-.243.393-3.06-1.417-2.544 4.858 8.39 3.832.406.84-.268.072zm1.488-17.593l-2.243 4.667-.266-.148 2.46-5.022.766.424-.197.341-.52-.262zm.05 23.402l-.423.05-.072.57.669.314.474-.132-.348.339-1.963.805-.348-.286h-.473l-.447.154-.273-.726v-.543l.099-.416.249-.545.273-.545.075-.467v-.7l.248-.726.646-.517.224-.546-.3-1.168.274-.078.573 1.428.696.414.174.363-.126.339-.447.128-.174.674.522.363-.075.21-.075.232.15.389.249.128.26.482.19-.06.166-.056-.27.42-.397-.291zm-9.43 1.3l-4.098-3.124 1.593-.754 2.924 2.98-.418.897zm-9.348-9.793h-.777l-.053.372.18.655-.155.156-.331-.563-.688-1.505-.613-.124-.055-.152h.875l1.202-.68 1.463.514-.145.265-1.191-.478-.762.32v.716l.906.239 1.508.999.66.647-.298.01-.605-.593-1.121-.798zm-27.01 10.704l2.542-2.61 1.906-2.825.713.489-2.143 2.773-2.701 2.554-.317-.38zm9.68-23.353l-.682.37-.138.517 1.395 2.84.315-.04.19.714-3.246 10.645-1.794 2.872-.559-.495 1.715-2.419 2.992-10.01-.055-.598-1.757-3.04-.175-.85.273-.434.598-.056.436-.108.842-.844.952-2.61.445-1.659 1.677-4.326.217-1.633.873.506-.11.801-1.525 3.808-1.222 3.02-.51 1.897-.279.902-.867.23zm-22.584 26.111l-.412.252-.068.218.26.346.026.22-.435.464-.008-.254.168-.181-.05-.151-1.417-.805 1.915-.547.02.438zm.645-6.332l-.358.077-1.197-4.634-.208.016-1.02-3.95-2.673-1.6-.351-.818 3.34 2 2.467 8.909zm4.516-5.31l-.33.424-.574 2.602.008 2.24-.347.121-.047-2.347.424-2.268.536-1.2.33.427zm-24.732 45.455l.214.304-1.147.989-.143-.374 1.076-.919zm2.362 1.293l-1.503-1.094.448-.199 1.488 1.054-.433.239zm5.502 3.23l-2.295-.526-2.532-2.206-.242-.231.373-.267 2.534 2.348 2.255.45-.093.433zm-.552-7.754l-.06.487-2.521.16 1.26-.647h1.32zm.599 0l-.063.47-.536.024.082-.494h.517zm-.6.659l.333-.013 2.248 3.231-.31-.022-2.27-3.196zm-5.517-9.874l.712-1.125.29.142-.675 1.065-.237.71-.042.668-.337-.048.045-.68.244-.732zm-.29 2.733l.143-1.273.5.04-.141 1.252-.501-.019zm-.645 7.12l.352-6.454.294.025-.35 6.437-.296-.008zm2.32-6.454l-.384-.022.254-1.27h-.01.401l-.26 1.292zm-1.03 6.454l.969-6.454.322.023-.965 6.44-.325-.009zm1.75-9.133l-.1.74h-.359L190 113l.933-1.199.325.13-.833 1.069zm4.486 3.978l-.175 1.286-.064-.023-.19.023.227-3.232.419.217-.217 1.73zm-.653 1.286l.225.076-.34 2.509h-.305l.416-2.538.004-.047zm-10.293-8.037l.535-.971.305-.04-.673 1.227-.396 1.078v.926h-.222v-.998l.45-1.222zm1.767 1.791v.43l-.282-.076v-.49l.408-1.005.613-1.015.27.14-.58.96-.43 1.056zm-.064 1.15v-.074l.41.085v.182h.017l-.19 2.318-.455-.024.2-2.487h.018zm-2.614-.03l.143-.044h.317l-.195 2.585-.436-.026-.014-.025.185-2.49zm-.185 6.393l.266-3.852.38.023-.266 3.854-.38-.025zm2.58.002l.272-3.854.374.023-.271 3.854-.374-.023zm-.4 2.907l.156-2.576.5.03-.154 2.576-.501-.03zm.13 2.966l.27.438-.333.175-.311-.504.037-.605.141-2.123.366.008-.132 2.02-.038.59zm-3.653 9.37l-.398-.54-.195-.744v-.703l.311-.423.516-.531.447.418-.625.643-.14.253v.64l.201.539.29.313.29.135-.208.29-.489-.29zm-2.293-3.02l-.378-.923v-.877l-.241-.936-.514-.928-.393-.54.466-.24.726 1.305.353.639.141.066.393-.183.044.274-.349.195-.19.378-.03.378.045.243.044.135.043.258.115.241.175.152.305.226.504.304.268.16.173.249-.231.15-.777-.467-.458-.168-.234-.091zm-2.9-6.123V124.115l-.561-1.162.303-.165.81 1.307.065.495-.075.45.129.462.287.402.416.477-.529.285-.593-.552-.252-.48zm-7.372.593l.533-.23.769 1.78-.532.23-.77-1.78zm3.227-1.292l.532-.23.769 1.78-.532.23-.77-1.78zm-15.107 9.586l3.591-1.446.16.396-3.592 1.445-.159-.395zm7.077-2.46l-3.12 1.067-.106-.224 3.118-1.068.108.224zm1.841-.871l.095.324-1.837.968-.1-.325 1.842-.967zm7.192-14.694l.443-.17 2.138 6.323-.394.14-1.055-1.438-1.132-4.855zm1.338-2.576v-1.472l.597.116-.533 1.977-.578.994-.169.566-.655.225.047-.181.641-1.11.65-1.115zm.597-1.578l1.016-2.479.275.104-1.016 2.481-.275-.106zm4.517 14.108l-.436.216-4.08-9.967.052-.876.373-.143-.09.862 2.281 5.557 1.9 4.35zm-13.647-7.252l.533-.23 1.537 3.56-.532.23-1.538-3.56zm1.388 3.748l.416-.158 1.52 3.077-.42.155-1.516-3.074zm3.226-1.293l.419-.157 1.517 3.076-.42.155-1.516-3.074zm-.418-3.924l.253-.11-.27 1.55.435 2.239-.223.088-.422-2.279.227-1.488zm-8.076-7.866l.33 1.231 2.494 3.131.384-.077 2.468-4.285.41.109-2.93 5.763.098.365.196.176 8.27-2.744-.315.549-1.55.496-.969 2.387-.379.103 1.024-2.387-5.787 1.852-.129.09.782 2.038-.426.114-.84-2.012-.723.194-1.59 2.601-.534-.308 2.011-3.495.157-.582-.28-.716-2.314-3.065-.397-1.383.539-.145zm14.262-14.96l.912-.912.366.366-.912.913-.366-.366zm.927-1.256l2.285-2.278.365.367-2.284 2.278-.366-.367zm-8.714 14.862l2.96-5.108.35.14-3.422 6.322-1.095-.434.34-.414.867-.506zm-2.823-8.149l.537-.129 1.959 8.17-.537.129-1.959-8.17zm-13.87-9.238h10.324v.506H151.9v-.506zm10.97-.646h4.516v.407h-4.517v-.407zm5.161 0h5.807v.438h-5.807v-.438zm6.452 0h6.976l.122.067-.7.579-.282-.177.293-.165-.417-.025h-5.992v-.28zm0 21.88l2.591-7.663.635.14-2.708 7.615-.518-.092zm3.474-8.955l-.248-.063 1.898-4.627-.125-.321.666-.16.142.23-1.391 2.93-.942 2.01zm1.742-5.323l-.454.153-.245-.5v-.462l.227-.366.472-.193.451-.25.322-.556 1.642-4.136.435.06-.245.5-.037.346.245.44.359.232-.19.287-.396-.153-.34.097-.386.677-.841 2.706-.491.271-.436.153-.092.288v.406zm3.26-7.894l.243-.355.314.297-.156.515-.004.504-.315.623-.64-.196.173-.635-.348-.196.087-.277.14-.02.506-.26zm-11.155 11.546l.45-3.15 3.665-3.58.365.24-3.702 3.356-.182.814.182.066 5.67-2.066.103.554-5.3 2.11-1.406 2.68-.392-.102.547-.922zm21.703-16.075l-.317.163-.538 8.956 2.421.213.057.26-2.241.399-.808-.055-.333-.666v-7.09h-1.768l-.156.029-.63 5.705-.078.259-2.212-1.935-.807-.694.08-.4.394-5.259.465-.207 4.895-.423.021-.614 1.098-.283.457 1.642zm-9.99 9.18l.2-.482 1.09.963-.349.33-.942-.81zm.644 1.18l.348-.37.943.932-.331.361-.96-.923zm21.663 10.617l.645.594 2.21 1.14-.886 1.372-.494.125-.44-1.468-1.406-1.253.068-.36.303-.15zm8.538 3.506l.973-.573v-.825l-.113-1.299.796-.163.365 1.39.814-.283.605-.326h1.21l.698-.294 7.68 2.102-.26 1.117-7.492-2.05-1.494 1.522 1.44 3.517 1.846-.781.86.88-2.166 1.493.286.552-.983.581.507 1.012-.891.555-1.83-1.08-.24-.513.788-3v-2.167l-.469-.458-.384.36-.682 2.602-.991 1.753-1.506-.885-1.146.312-.546-.922.814-.83-.43-.342-.636.617-.415-.291.646-1.144-.33-.155-.761.812-.255-.197.731-.91-.51-.26-.762.781-.51-.357.7-.747-.254-.131-.639.683-.062-.228.51-.812-1.195-1.217.654-1.091 4.233 1.756.796-.066zm-9.554-3.914l-.154.374-.365.034-.126-.646.625.07.02.168zm-1.602-.884l.71.456.247 1.017-1.567.465-1.014-1.125 1.624-.813zm-2.328-1.94l.413.646.291.95-.46.344-.83-1.183.586-.756zm-3.812-1.933l.647-.651 2.579 2.054-.528.53-2.698-1.933zm-7.098-1.521l1.026-1.715.265.236-1.016 1.702-.078-.06-.197-.163zm0 .563l.19-.34 1.1.94-.22.353-1.07-.953zm-4.516-3.878l.31-.34 1.625 1.611-.276.329-1.66-1.6zm3.226 9.196l2.322-3.719.259.229-2.277 3.649-.304-.159zm2.861.805l-.28-.149 2.26-3.729.32.095-2.3 3.783zm.587-4.524l1.714.418-.197.228-1.74-.357.154-.178.07-.11zm3.376 1.293l.273.09-1.67 3.141-.22-.08-.045-.028 1.662-3.123zm-1.367 3.231l.091.042.259.057-.965 1.194-.326-.13.941-1.163zm-2.231 3.101l1.064-1.808.226.122-1.069 1.816-.221-.13zm-1.29 1.943l.966-1.166.324.135-.96 1.157-.33-.126zm-3.872-1.974l2.273-3.716.308.16-2.27 3.717-.31-.16zm1.936 1.29l2.258-3.714.323.17-2.267 3.708-.314-.164zm14.526 2.959l.346-2.149.613.378-.261 1.114-1.25 2.338.007.005-.432.043.653-1.333.019-.26.305-.136zm3.004-3.441l.332.403-.087 1.017.29.915-.416.25-.228-1.184.11-1.401zm-2.045 1.745l1.027-4.231.105-.1.105.161.053.156-.978 4.207-.312-.193zm126.461 62.695h-7.4l-1.407.376-1.143.403-1.15.41-.988.247h-1.232l-1.48-.246-1.274-.288-1.315-.04-2.555-.682-2.75-.999h-1.438l-1.153.738-.493.656-1.137.903-2.38-3.071.318-.225 1.533-1.617 2.193-1.263.624.06.081.618 1.111.08.823.207.946.573.7.575h.408l.784.822 2.264.604h1.887l1.438-.112-1.457-2.389-24.26-21.139-2.848-2.843-7.576-2.508.88-1.978 3.782 1.01 2.71 1.114 30.787 26.164.951-.803 1.143-.61.742.246.655-.368.741-.534.616.246.495.452h1.232l1.612.929.73-.518.661-.246h.697l.453.45.205.576.616-.042.33-.945.288-.368v5.375zm-128.397-33.185l-1.448.411-7.585-.961.055-.331 7.424.722 1.386-.391.168.55zm3.094-.881l.132.486-2.442.806-.138-.483 2.448-.81zm4.476-2.054l.173.548-4.382 1.506-.135-.367 3.31-1.287-.73.284-.713-2.034 1.43-.474.464 1.667.303.265.28-.108zm2.54-1.824l.214.507-1.873 1.924-.56.154-.148-.42.868-.36 1.498-1.805zm3.077-.464l1.302-.829.351.167-1.596.977-.505.149-1.615-.15-.155-.331 1.77.105.448-.088zm5.286-1.492l-1.18.283-2.453.38.477-.448 1.15-.163.804-.193 1.263-.488.177.466-.238.163zm1.039-.344l-.626.361-.175-.49 1.112-.512.51-.061.391-.02.43-.038.606-.06.644-.158.413-.157.311-.297.396-.529.23-.397.508-.512.256.408-.355.617-.565.768-.5.372-.478.278-.705.16h-1.054l-.653.077-.696.19zm5.495-2.87h-.822l-.312-.325 2.218-.51.504-.456 1.42-1.294.375.244-1.992 1.813-.668.353-.723.175zm6.609-5.43l-2.816 2.845-.41-.265 2.842-2.966.384.387zm5.806-1.033l-.315.692h-3.549l-.971.135-.638.466-.333-.582.394-.44.394-.27h5.018zm-14.84 5.637l-.638.18-.007-.31.547-.337.099.467zm1.945-2.813l.586-.621v-.782l-.129-.461-2.706-1.519-.313.442-.197-.155.29-.41-.594-.335-.172-.645.498-.276.719.324.134.637 2.645 1.615.26.646.26.597-.022.506-.422.472-.858.908-1.009.852-.902.551-.195-.436 2.127-1.91zm-36.032 13.104l-1.038-1.02.213-.183-.592-1.011-.191-.21-.201-.044-.19.122-1.336-.968.307-.335 1.137.879h.113l.283-.28.23.14-.17.231.742 1.364.721.71.882.501.917-.015-.046.348h-.92l-.86-.229zm-3.335-4.106l-.211.457-2.08-1.652-.523-.29-.594-.154-1.753-.11.132-.11.211-.269.918.08 1.493.237 1.047.788 1.36 1.023zm-6.847-37.997l2.126-5.404.297.117-2.125 5.404-.298-.117zm-2.185 6.064l1.77-5.739.165.075-1.772 5.742-.163-.078zm-1.64 2.46l.749-1.785.386.163-.75 1.784-.386-.162zm-.617 1.963l.683-1.811.348.131-.684 1.81-.347-.13zm7.793-21.68l2.216-6.577.635.082-.953 3.403.76.42-.06.463-.959-.247-.479 1.709-1.16 1.925-.256-.139-.119-.425.375-.615zm42.334 33.749l-.708.938-.236-.109.564-.968-1.035-.595.454-.817 6.643 3.588-.619.164-.58.126-4.483-2.327zm-1.416 2.326l.775-1.032.341.256-.774 1.032-.342-.256zm-.784-5.863l3.7-3.599.435.447-3.7 3.599-.435-.447zm10.551 6.915l-.448.241-.346-.316-.69-.223-.27.27-.27-.298.223-.509 7.52-.216-.202.483-5.493.191-.024.377zm-46.385 10.581l-.13-.078.982-1.789-4.236-4.409.255-.186 4.139 4.306-.111.206.11-.206.123.179-1.132 1.977zm-26.626-25.85l-2.06-9.94-4.994-4.41-.03-.59.412.03-.027.425 4.586 3.958-.633-2.296-2.69-2.301.027-.294.494.026-.026.187 1.95 1.63-.989-2.137V92.6l.521-.185v1.334l.935 2.005 3.183 13.952-.66.158zm-5.004 20.12l5.599-10.176.566.311-5.599 10.176-.566-.312zm-6.683 15.668l-.686 3.634-.517-.025.807-4.306.632-1.485.496.223-.732 1.959zm-.558 3.634l-1.398 7.109-.538-.048 1.381-7.061h.555zm-.611 24.26l.537-.069v.617l.037.599-1.063.277-.86-3.252-1.643.45.083-.76-1.621.425.149.432-.436.075.125.463.367-.089v.262l-1.228.321-.877 2.42-.454 2.724h-.173l.173 2.511h-.287l-.207-2.446-.399-.037v-1.23l.17-1.587.742-2.313-.577-.152.12-.332.59.092.948-1.38 1.801-4.924.853-2.593.58-.988 1.535-6.667.47.065-2.33 10.151-.175.646.08.342.21.019 1.062-1.814 1.422-1.568 5.404-1.289-.02.504-3.772.785-1.062.28-.532.308-.765.752-.492 1.806 1.515 6.163zm8.354-13.054l-1.432 2.061-1.15.304.03-.423.905-.238 1.324-1.924.323.22zm1.505-1.735l-1.14 1.515-.365-.229 1.155-1.652 4.446-1.996.205.392-4.301 1.97zm4.44-2.344l5.919-2.568.257.593-5.92 2.567-.257-.592zm8.787-3.25l.107.46-1.777-.049-.704.236-.1-.438.678-.209h1.796zm7.205 2.174l-.205.411-6.204-1.467-.043-.471 6.452 1.527zm6.452 3.434l-.35.209-1.046-1.183-5.056-1.605.152-.444 5.114 1.605 1.186 1.418zm7.097 1.86l-.03.474-4.404-.37-.318.105-.257.25v1.12h-1.572l-.516-.5 1.529-1.225-1.338-1.735.32-.238.791.92.407-.191-.03-.908.44.043V159.924l.453.441 4.525.266zm15.494-20.054l1.87-.501 1.338 4.994-1.87.5-1.338-4.993zm7.009 18.366l-.399-1.478-1.793-5.345-2.99-4.588-.545-1.682 1.663-.442.529 1.953.892 2.083.886.875 2.977 5.113 2.086 6.407-1.403.372-1.903-3.268zm8.099 33.404l.571-.3 2.101 4.007-.57.3-2.102-4.007zm-29.978-30.3l.047-.644 4.512.326-.047.643-4.512-.325zm6.361-.588l-.867.106-.956-.068.08-.34 1.785-.137 3.175-.748.122.403-3.339.784zm3.327-1.287l4.387-1.074.134.549-4.387 1.074-.134-.549zm10.91-3.131l.07.386-5.728 1.553-.079-.384 5.736-1.555zm-26.384-3.231h.608v3.877h-.608v-3.877zm.504-1.96l-.14 1.313-.364-.065.194-1.561.13-.312.322.013-.142.611zm.142-2.546l-.125 1.92-.52-.015.124-1.923.52.018zm-.73-5.823l.646-.02.167 5.167-.644.02-.168-5.167zm.084-4.535l.515.385.13 3.48-.502.012-.143-3.877zm41.514-.951l-.304.251-.543-.174-.218-.154.066-.456-.476-.1-.261.352-.436.585-.629-.18.37.027.368-.556.347-.406.737-.05.697.175.586-.278.666-.438.203-.879.41.279.133.378-.11.482-.347.683-.499.51-.413.1-.347-.151zM155.35 148.95h.636l.864-.203.855-.755-.306.468-.598.528-.587.298-.396.349-.119.213-.297.083-.033-.248-.287-.44-.603-.389.871.096zm-1.573-2.948l-.362.375-.084.307.07.467.028.162-.51.033-.376-.462.052-.63.57-.217-.014-.323.708-.223 1.265-.084-.86.266-.487.329zm4.959-1.865l-.68.278-1.642 1.038 1.401-1.132.808-.49.77-.2.373.183.304.507.044.787.46.439.593-.119.7-.967.918-.262.504-.41 1.117-.967.396.647-.353.275.2.485.107.601-.197.3-.393.07-.591-.254-.79-.482-.547.113-.35.439-.133.528-.177.51h-1.355l-.283-.44-.11-.506-.064-.485-.55-.531-.48.045zm9.634-.178l-.293-.236-.049-.235.05-.294.635-.385.281-.049.83.236.464-.147.752-.456.214-.217-.879.93-.786.825-.647.184-.572-.156zm2.884-2.488l.616-.176.166-.441-.028-.484.388-.133h.42l.374.264v.353l-.283.52-1.136.156-.517-.06zm2.144-2.4l.046-.346.06-.472-.149-.251-.191.066-.474.495-.502.53-.23.893-.542.251-.535-.15-.272-.496.39.175.359.156.182-.063.179-.456.123-.532.414-.435.426-.447.552-.337.33.111.12.252.045.379.09.33.33.08.256-.22.075.313-.113.167-.429.448-.388-.016-.152-.424zm-12.658 7.866h-1.656l-.089-.109 1.128-.083h1.477l.4.422.485.297.332-.113.103-.19.415-.178 1-.283.212.334-.152.176-.06.19.285.461.182.302-.27.476-.362-.302-.407-.43-.405.08h-.83l-.811-.636-.977-.414zm-5.733 6.225l-.303-.375-.225-.695.068-.384.116-.264.216-.36.324-.507.194.05v.13l-.194.626.014.37.268.566.1.23.184.25-.028.253-.216.11h-.518zm-13.393-28.435l.485.21-.236.267.051.429.101.491.182.355.435.387.233.192h-.6l-.5.254-.451-.015-.317-.224-.068-.37.185-.224.284-.312-.118-.43-.034-.503.135-.387.233-.12zm2.332 3.747l-.339.137-.258.104.049.33-.307.206-.355-.035-.226-.277-.29-.154.404-.076.579-.358.179-.416v-.623l.33.026.443.478-.03.311-.179.347zm-1.89.295l-.159.326-.036.249.054.214.305.061-.015.278-.362-.126h-.467l-.447.099.377-.289.34-.225v-.499l.07-.227.269-.025.072.164zm.116 5.507l.048.27h-.144l-.238.043-.016.17.08.242-.205.071-.224-.086-.317.058-.237.342.112.327-.24-.215-.078-.411.174-.187.365-.198.093-.256-.045-.397-.288-.201-.41-.285-.254-.256-.064-.299.205-.382.254-.1.192-.044.349.086.157.084-.077.172.245.302.293.452.19.299.08.399zm-.081 3.014l-.301.325-.336.34.207.713.239.48-.11.339-.081-.31-.145-.191-.352-.104-.224.208-.096.355-.272.146.145-.236-.016-.235-.113-.208-.352-.102.45-.03.384-.104.077-.161.081-.444-.032-.25.21-.177.255-.104.142-.206.065-.22v-.209l-.065-.146-.126-.164-.193-.101.271-.134.32.015.097.399-.13.516zm2.064 10.16h-4.178v1.389h.52v5.616h-.682v-.51h-2.757v-.562h.983v-6.495h5.679v-4.066h.435v4.628zm-17.42 6.359h7.097v.646h-7.097v-.646zm-7.743.646h5.162v.646h-5.162v-.646zm5.807 0h1.936v.646H124.8v-.646zm-13.55 0h7.098v.646h-7.097v-.646zm-.645.72l-.426-.04h-7.106l-3.303.612-.133-.385 2.743-.96.265.247.428-.01h7.05l-2.394-7.18.354-.113 2.522 7.83zm-10.968.245l-12.771 4.205-.133-.401 4.279-1.41-1.512-4.516.413-.136 1.512 4.516 8.079-2.659.133.401zm-10.097-2.258L88 148.637l-1.912-5.687.397-.128 1.936 5.68 1.539 4.522-.419.138zm-3.336-12.216l7.95-2.677.147.439-7.949 2.678-.148-.44zm-.117 1.624l-.706.252-1.874-6.41.278-.052 1.236 4.165.874-.316.042.321-.322.143.472 1.897zm-4.516-11.932l.285-.095 1.65 5.076-.285.094-1.65-5.075zm4.168 29.987l-1.207.939-.38-.339.775-.517.994-.66.637-.423.175.339-.994.661zm-3.402 4.017l-.848 2.348-1.552 3.681.179.144.228.443-.673 1.553-.988.96-.429.718-.554-.31 1.34-2.635.211.048-1.208 2.475.113.128.9-1.048 1.027-1.731-.08-.46h-.247l-.211.366h-.327l1.518-3.316-.05-.224-.197.013-.326.547-.486.822-.423-.112 2.037-3.428.62-1.27.706-1.454.39-.656.703-.68.442.333-1.145 1.254-.67 1.491zm-4.205 11.14l6.247 9.961 6.225 4.434-.499.468-6.225-4.592-6.18-9.894.432-.378zm10.997-14.91l-2.786 9.093-.256-.127 2.766-9.158.381-.16-.01.033 10.413-3.513-.397 1.487-.456-.054-.062-.331-.31-.14-.234.106-.085.088h-.608l-.031-.088-8.325 2.763zm36.368-38.834l.203-1.855h-1.909l-.632.494-.398.73.187 1.381h-1.004l-.37-.182 1.056-2.448.414-.038.986-.563 1.267.183.406.425.043-.398.345.076-.234 2.101-.36.094zm-.052 4.474l.233-4.186.413-.184-.322 4.524-.324-.154zm-.335-8.1l1.337-4.986.597.16-1.336 4.986-.598-.16zm4.123-9.835l-1.543-.433-1.425 5.597-.384-.11 1.429-5.596-3.8-1.069.083-.334 3.8 1.071.149-.58.38.106-.148.581 1.543.436-.084.331zm-12.492-3.02l.1-.422 6.29 1.485-.1.422-6.29-1.485zm-3.79-3.449l2.211.434-.256.957.259.364 1.872.497.02.333-4.516-1.065.41-1.52zm17.355 6.584l.167-.623 6.242 1.673-.167.623-6.242-1.673zm9.36 1.512l2.459-.34.096.284-1.887.362h-.857l-1.773-.185.115-.285 1.847.164zm2.555-.153l3.557-1.291 3.522-.835.018.479-3.667.73-3.359 1.376-.071-.459zm8.925-2.126l.041.247.712 4.155-.989.121-.69-4.015h-.257l.02-.402 1.163-.106zm.292 4.624l.516-.095.932 5.085-.516.095-.932-5.085zm3.042 17.193l-.352.155-.574-5.517-1.01-6.048.352-.067.88 5.605.704 5.872zm-63.382 61.329l.376-.525 3.152 2.258-.375.525-3.153-2.258zm22.392 15.45l36.145-9.691.67 2.496-36.146 9.692-.669-2.497zm99.073-24.847l-.218.8-.146 1.382.898.505.067.731-.57-.064-.637.02-.364.223-.205.5-.236.861-.454.762-.965.943-1.597.9-.845.474h-1.273l-1.276-.155-1.32.2-.41.243-1.432-.954.266-.244 1.142-.645h.89l1.638.13h1.246l.917-.239.683-.666 1.456-1.89.523-1.264.365-1.877.454-1.654.218-.632.603-.588 1.456-1.11 1.047 1.356-1.395 1.065-.526.887zm-10.792-1.519l-3.881 3.381-.181-.265 3.442-2.798.33-.48-.057-.334 2.014.168.263.256 1.125.913.717.186.457.102.798.446.493.09.375-.05 2.266 1.27.036.32-3.698-1.771-.29.017-.093.248.291.442-2.978-1.873-.663-.375-.475-.054-.29.161zm-15.676-6.417l.872-5.066.292.052-.49 3.219.068.32.351-.259h.843l-.16 1.839-1.776-.105zm.766-5.427l.405-5.145.512.04-.406 5.146-.511-.04zm-37.56 5.37l4.414-.955.109.501-4.414.956-.109-.501zm12.494-.903l-2.467-.139h-3.564l-1.743.51-.112.064-.074-.513.11-.027 1.157-.34 4.026-.15 1.188-.218.614-.387 1.726-1.087 2.685-1.172.107.518h-.73l-.91.57-1.257.792-.172.248.202 3.003-.604.039-.182-1.71zm-7.96.451l.486-.033.159 1.939-.645-.3v-1.606zm17.42-4.172l-2.618.297-2.469.611-.074-.49 2.396-.523 2.75-.28.015.385zm4.517-.591l-3.857.206-.015-.41 3.83-.236.042.44zm2.712.074l-2.036.132-.031-.416 1.915-.152 2.969-2.663.278.304-3.095 2.795zm3.332-3.732l2.986-2.464.377.457-2.986 2.464-.377-.457zm-19.25-6.181l1.87-.501.668 2.497-1.87.5-.668-2.496zm75.078-12.701l-1.664 1.42-.204-.243 1.73-1.478 3.984-1.51.093.327-3.939 1.484zm8.456-2.834l-3.76 1.023-.112-.272 3.76-1.02.112.269zm19.506 27.974l-.692.355-2.039.483.113-.117 1.595-1.597 1.612-.38.551-.491-1.14 1.747zm-11.481-12.962l.456-.457.914.914-.456.456-.914-.913zm-11.897-32.73v.646h-1.935l.325-.647h1.61zm-.96-1.293h.96v.646h-1.29l.33-.646zm1.606 1.292h6.452v.647h-6.452v-.647zm1.29 1.293h4.516v.646h-4.516v-.646zM211.757 213.5l1.652.775 3.01 2.22-3.19-.222-1.189-1.164-.74-.42-1.652-.432-1.145-.648-2.497-1.596-1.71-.448h-1.846l-1.887-.497-1.187-.672-1.181-1.158-.77-1.287-.361-1.796.28-1.03 1.628-4.866.885-2.449 1.568-2.49.206-.943-.428-2.282-.405-2.096 1.563 1.22.222.816.55.93.206.754-.222.809-.357 1.308-1.48 2.513-.685 1.746-1.858 5.128-.135 1.53.378 1.38 2.136 1.66.542.31.385.18 1.586-.18h.997l1.129.299 1.157.303 1.9 1.329 2.945 1.466zm-43.733-4.493l18.058-.533.017.569-18.058.532-.017-.568zm-8.045-.468l6.966-.21.439.156v.902h-2.251l-.676-.202-.215-.412h-4.41l-.103-.102-.088-1.223.338.024v1.067zm-.338-5.615h.478v4.524h-.478v-4.524zm0-3.231h.478v2.585h-.478v-2.585zm.295-2.565v1.918h-.295v-7.108h.295v4.88h6.803v.31h-6.803zm7.924.937v-1.23h-.476v-.374h10.969v1.405h-1.324v.534h-9.169v-.335zm11.783-1.604h3.226v.423h-3.226v-.423zm19.356-3.23l-.684.64-.065.525.386 1.344.335.547-.202-.016-.371.205-.1.19-.05.442-.188-.364-.287-.393-.235-.24.085-.38-.199-.41-.36-.582.28-.46.582-.316 1.073-.733zm0 3.411l.18-.169.335-.012.13.181v.239l-.16.227-.065-.263-.208-.12-.212-.083zm-5.402-9.228h-.97l-.08-.127v-2.458l1.73 1.22.206.81-.323.298-.563.257zm-13.309-7.109h1.29v3.878h-1.29v-3.878zm46.223-9.694l10.158 7.252 11.366 3.307-.018.428-11.1-3.162-2.587 1.304-.169-.289 2.047-1.044-.124-.211-.246-.518-9.195-6.582-1.018.388-.172-.41 1.058-.463zm22.256 11.395l-.087-.408 1.936.374-.623.272-1.226-.238zm13.734-4.02l-1.44.783-6.897 2.829-.322-.422 3.36-1.244 3.489-1.552 3.326-1.306h1.391l1.338.337-.078.545-1.57-.397-2.597.426zm-12.53-36.776l-2.986.966-.24-.201 3.159-1.091.067.326zm22.35 1.654l-4.728-.318-15.041-.91.036-.378 17.42 1.174.691-.188v-1.024l-.862-1.192-6.023-.398-.899-.906v-.758l-.113-1.455-.335-.814-1.01-.151.449-.398.244-.511.524-.923.807-.813.82-.345 2.076-2.934.637-.371.598.183.225.474.393 1.076.318 1.198.225.851.915 4.8 2.06 2.65.783 1.376 2.603 1.972-.32.284-1.292-.928-1.2-.323zM260.224 140l1.076-.713.357.54-1.076.712-.357-.539zm.716-5.049l-.253.315-.157.203.038.145-.127.098-.182-.135-.055-.233-.077-.136-.152-.077-.19-.058-.135-.156.17-.365.227-.112h.386l.182-.02.245.166.08.365zm-11.613-10.225h7.097v.646h-7.097v-.646zm0 1.939h7.097v.646h-7.097v-.646zm20.665 9.855v-2.18l-.717-2.62-.592-3.583 1.28-.18 2.191 6.07 1.144 1.316 2.101.781 1.688 2.233.728-.41 1.693.634.274-.2.87 1.046h.935l-1.92 5.333-3.196-.982-1.016-.57-1.176-.813-1.954-1.907-1.448-1.774-.528-.894-.357-1.3zm1.6-9.855l.002-.678.522-.944h-1.47l-.526-.458-.147-.79.326-.337.64-.67h3.55l-.105.68-.524 1.248-.733 1.023-.734.524-.801.402zm-26.649-6.11l.366-.353.333.557.459.618h-.94l-.34-.074-.24.192h-.416v-.856l.778-.084zm2.312-.72l.136.367h-1.438l-.443-.545-.055-.017.865-.084.348.116.587.163zm-.78 2.306l-.03-.298-.344-.994h.645v1.292h-.271zm-9.957-78.032l.55-.959.657-1.144.633.529-1.994 3.466-1.347 1.354-1.567 2.728V53.639l-.899-.516.018-3.133.688-1.198 2.122-3.005.837-.71.302-.967zm2.8-3.047l-.931.944-.674-.553 1.317-1.075 5.362-.816 4.59-2.02 3.788-1.433 1.348-1.043 1.005-1.765 3.298-11.692 2.15-2.869 1.015.595-.763 1.34-1.392.815-1.973 5.984-.675 3.323-.577 2.9-1.156 2.999-.791 1.39-.46.433-3.918-.553-5.424 2.315-5.138.781zM181.1 83.03l.533-.308 3.172.627-.108.414-2.666-.566-.42.039-.147.175-.061.393.153.448 2.73.736-.068.319-3.064-.823-.22-.824.166-.63zm22-48.096l.121.714 2.316 2.283 1.935 2.422 4.755 4.69.776 1.84.19.86-.322 1.193-1.26 2.678-5.475 4.302-.3.78-1.006 2.366 1.667.95-1.4 1.383-1.876-1.608 1.182-2.02 1.206-2.057 2.926-2.456 2.504-2.124.846-3.11-.79-2.023-1.497-1.91-2.616-3.438-3.978-4.436-1.225-1.21-1.062-1.05-1.32-.75-.398-.89h.901l.08.377.328.377 1.013-.267.538.212.384.513-.273.295 1.13 1.114zm12.124 9.372l.78-.277.556-2.112-1.757-.705 1.01-3.825-1.923-.734.107-.243 2.378.922-1.31 3.772 1.656.224.561-.984.18-1.26-.315-1.182.483-.678.827-4.56 1.175-3.582.59.19-.055.734-1.149 2.904.026.57 2.033.869 2.75 1.41 1.977-2.58.294.138-6.812 9.632-.374-.298 2.323-3.31-3.27-1.059v1.542l-.21.794-.553.974.374.272-.4.301-.43 1.624.055.789.546.412-.52.916-.826-.164-.348.22-.668.57-1.791-1.82.91.489.72-.407.4-.488zm3.63-15.224l-1.935-.547-.5-.344.26-.329.606-.072 1.716.839-.147.453zm-17.111-3.274l.22-1.65v-.992l-.083-1.818.345-.02-.097 2.849-.081.525-.083 4.218-.304 2.062-.08.04.023-.883.14-4.331zm.102-7.582l.994-.13v2.844l.032.18-.41.02-.043-.21-.164-.34-2.077.737-.115-.273 1.967-.766-.144-1.325-2.14.758-.1-.114 1.702-.596.498-.785zm-6.717 4.994l2.519-1.258.774-.466-.208-.815.943.352.414-.09.074.338-4.43 1.985-.086-.046zm50.662 28.055l-.703-.5-2.132.926-.081-.25 1.93-.882.31-.05.494-.756.492.503-.041.303v.53l-.269.176zm-6.507 3.672l1.445-2.092 1.408-1.154.092.169-1.431 1.513-1.204 1.663-.296 1.18-.295-.172.281-1.107zM268.682 60l1.719.317.615.112 1.813-2.912.204.072-.487.84 2.54 2.018 1.254 1.575 3.024 3.543 2.12 3.646.98 2.234 1.309 2.707 4.91 11.052-.277.102-2.747-6.537-.821-1.632-.356-.054-1.57-3.71-.646-1.115-1.539-3.17-3.995 1.798 3.435-2.187-1.29-2.78-.439-.759-2.098-2.562-2.933-3.154-.88-.63-1.417 1.893-2.428-.707zm32.513 69.897l2.328 3.517-1.957 2.086.239.259-.45.6-4.284-3.83 4.124-2.632zm-18.65 7.755l4.086.248v3.015h1.407l-.053.304h-1.244l-1.188.912-.303.691h-.994l-2.982-.22-.333-.224 1.604-4.726zm6.303 22.706l.823-.087-.07.6.516.338h.946l.833.277.659.53-.173.702-.544.138-.575-.587-.256-.446-.575-.057-.8-.25-.488-.28-.374-.614-.087-.196.165-.068zm4.352 3.193v-.695l4.516 3.558-.249.32-.469-.162-.439-.72-2.368-1.794-.991-.507zm4.63 3.185l1.638 1.529 1.656-2.064-.005-.002.098-.112.163.128-.006.008 4.085 3.464-.099.111-4.079-3.462-1.654 2.058-.157-.124 2.447 2.286-.57.055-3.402-3.382-.834.222-.04-.09.714-.19.045-.435zm3.024 13.59l-2.38 2.333-2.181.87-.556.457-.239.875v3.2l-.36-.13-.136-1.46.223-1.503-.332-.371-.403-.545v-.849l.712-.959.291-.72.834-.47 2.124-2.688 1.034.272 1.457 1.188-.088.5zm-34.108-1.98l.209-.626 6.243 1.702-.184.237-3.333-.828-2.339-.583-.596.098zm6.476 1.454l-.024-.141 6.286 1.75 2.102 1.02-.205.38-1.277-.767-2.166-.602 3.01 2.245-.525.498-4.148-3.247-3.053-1.136zm8.176 4.383l8.795 6.818 1.81-3.259-3.476-1.698.315-.35 3.713 1.942-1.375 1.962-.538 1.545-.113.795-9.588-7.482.457-.273zm20.601-7.13l.023-.075.21.2-.154.201-.076.379-.387.25-.494.32-.202.038.011-.2-.022-.274-.034-.152-.256-.212-.29-.174-.03-.225.165-.3.045-.401.589.075.274.31.428.278.2-.037zm-4.928 7.657l.634-.527.412.12.245.262-.245.528-.412.382-.634-.765zm3.411-1.275l-.185-.545.645.273-.46.272zm.323 5.271l-.235-.13.348-1.11-1.911-1.08.08-.09 2.145-2.554 1.465-1.498.125.253-.832.934-1.575 1.59-1.156 1.46 1.681.78 1.754-1.97.184.132-1.764 1.983-.309 1.3zm3.33-4.412l-.95.535-1.011-1.343.879 1.026.34-.135.993-.559.173-.625-2.971-2.888 3.226 2.548v.585l-.68.856zM281.42 207.54l.166.269-1.313.471-.629.33-2.9.09-1.082.569.233.306-.873.458-.515-.422-.018-.272 3.273-1.497.259.455.875-.462.27.344 1.39-.731.864.092zm-.424 10.45l2.794-1.611.261.451-2.795 1.612-.26-.452zm-3.926 2.614l-2.584 1.526-.344 1.114.009.06.03.538 1.364.492-.194.339-.78-.437-.508-.13-.33.207-.194.304-.85.474-.415.452-.137-.15.554-.54.516-.236.292-.246.098-.283.01-.201-.048-.251.272-.683-.06-.434-.412-.158-1-.26-1.741-2.923.237-.098 1.732 2.913.407.103h.837l3.127-1.733.112.241zm.413 5.777l-.376.06-.683-.712.565-.186.751.245.376.45.244.796-.173.448-.329-.55-.375-.55zm1.929 3.638l-.342-.71-.547-.841-.163-.986.965 1.492.326 1.093-.24-.048zm4.755-2.718l-.36.18-1.87-3.052-.796-.178-.42.008-.425-.551.315-.104.357.358 1.013.129.449.38 1.737 2.83zm-13.192-.466l-.357-1.221.29-.071.355 1.221-.288.071zm.712.817l.457-.187.489 1.196-.456.187-.49-1.196zm.262 1.455l.287-.165 1.293 2.238-.287.166-1.293-2.239zm1.615 3.146l.526-.304.646 1.12-.527.304-.645-1.12zm.644 1.292l.41-.237.647 1.12-.41.236-.647-1.119zm7.19 3.784l.188.307-3.545 1.927.006.01-.358.187-2.555-4.336.357-.187 2.368 4.017 3.54-1.925zm-2.505-2.271l-.23-.053-.303-.099.099-.184.419-.132.172.154.16.097.102-.119.157-.088h.491l.216.088.043.13.117.043.331.044.128.011.146.064-.015.132-.116.142-.128.097-.204.022-.288.077-.142.076-.117.108-.203.14-.274.055-.206.02-.096-.595-.26-.23zm3.25-1.76l.388.95.346 1.3-.023.262-.067.428-.088.247-.09.197-.154.22-.157.105-.09.063-.166.053-.211.052-.245-.026.155-.401.39-.08.344-.404v-.493l-.175-.772-.647-1.467.49-.234zm2.281-1.939l-.902-1.454.735-1.184-.541-1.112.304-.127.622 1.286-.657 1.057.827 1.326-.388.208zm11.785-2.585l.217.391-10.187 5.425-1.427-2.378.323-.184 1.202 2.002 9.872-5.256zm2.798-1.221l-1.231.575.124-.154-.184-.355.507-.259.153-.231-.06-.273-.155-.314-.199-.231.261-.122.784 1.364zm3.864-3.42l-1.748.764-.18-.3.853-.343.866-.456.61-.322.97.377h.6l.916-.227 1.516-.668.12.314-1.383.73-.462.243-.409.025-.284.04h-.238l-.211.027h-.193l-.209-.028-.193-.027-.136-.028-.238-.025-.196-.041-.163-.042-.208-.013zm8.395-2.774l-2.228 1.599-.353-.499 2.21-1.58-.775-2.292-.221-.876-.538-.987.335-.229.489.642.322.753v.56l-.078.272.104.356.153.192.219.15.168.369.193 1.08v.49zm-2.37-5.712l-.13.202-1.371-3.7.093-.177h.431l.049.262.024.224.012.215.048.325.058.162.238.174.024.214.06.174.133.25.166.101.096-.013.154.05-.017.301.135.537.18.063.155-.15.18-.238.024-.225.118-.262.085.2v.173l.072.164.19.124.286-.073.232.154-.47.133h-.496l-.479.134-.28.502zm-23.252.49l-.675.358-.157-.326.76-.404.722-.177h1.149l.65-1.031.59.31-.406.962-.552.293-.761.188h-.804l-.25-.172h-.266zm4.33-1.273l-.12.339-1.816-1.335.397-.604 1.127.384.412 1.216zm.446.768l-.181.41-.265-.188.265-.482 1.352-.17.318.41-.378.883-1.111-.863zm3.618-3.66l.337.307.115.36v.273l-.204.376-.366-.256-1.08 1.984-.264.187-.233-.546-1.079-2.185.246-.28 1.87 1.079.103-.239.174-.761.118-.265.263-.034zm2.961.756l-.381.196-.48.244-.34.078-.223.018-.3-.141-.125-.16-.096-.132-.16-.085-.182-.018-.106-.01-.064-.008-.052-.039.168-.244.268-.01.332.17.147.255.19.235.224.01.276-.058.355-.182.232-.11.168-.235.15-.216.043-.151.129-.246.18-.17.34-.175.214-.125.2-.094.17.037.075.123.01.15-.084.142-.054.123.023.094.105.084-.04.123-.423.098-.24.062-.265.132-.19.094-.194.141zm4.795-5.55l-.206-.27 2.375-1.591-1.13-1.369.731-.378.28.934.15.157.606.313.326.15.332.343.182.118.117.165.282.295.05.21v.373l-.067.326-.067.24-.231.207-.084.178v.238l.332.225.299.103.033.195-.1.268-.215.132-.316-.042-.416-.15-.349-.15-.415-.386v-.535l.016-.403.483-.223.165-.18.1-.163v-.193l-.067-.327-.215-.313-.399-.06-.332.165-.447.295-.134.21-.315.208-.433.208-.92.478zm-.112-4.725l.337.169.214.42-.245.528-.559-1.276-.405-.558-.082-.75.204.413.249.366.287.688zm-3.32-4.7h.311l.979 1.13-.155.81-.73-1.035-.187-.463-.218-.441zm-1.331-1.327l-2.097 1.311-.404.017-.04-.374.142-.58.26.02.505.066.444-.067.263-.29.443-.409.523-.288.204-.017h.463l.08.305.222.408.323.325-.303.324-.525-.513-.503-.238zm3.266 3.526v.387l-.443-.259-.202-.204.07-.13.152-.053.333.053.09.206zm1.003-.097l.25.343.038.115-.328-.036-.318-.13.173-.454.185.162zm14.482 18.288l-.486.291-4.737-9.856-.883-1.532-1.417-5.308-2.148-2.884-1.063-1.067-2.948-2.957-.791-.663-1.283-.346h-1.487l-3.515-.364-2.289-.26-.03-.581-1.44-1.22.182-.556 2.451 1.904 2.449.357-.484-3.587-1.191-.689.224-.765.967.388.356.97.326 1.223v1.813l.413.809h2.838l2.035.548 1.414 1.066 3.319 3.62 1.902 2.649.805 1.939.726 2.719.82 1.425 1.155 1.16 1.2 2.581-.518.904 3.128 6.27zm22.205 22.923l.801-.073.867.231-.397.301h-1.117l-.102.024.201 1.863-2.107.226-.133-1.23-1.013.475-3.264-2.757-.46-.789-.547-1.212-1.03-3.135-1.474-1.957-1.274-1.02-2.149-.179-4.428-.423-4.85-4.513-.635-1.09-.384-1.425.525-.574.514-.579v-1.29l.308-1.139v-.882l-.553-.958.603-.465.216.802.23.849-.355 1.319v1.585l.133 1.134 3.69 4.202 1.229 1.602 1.342.999 2.436.649h3.11l2.56 2.543.303.366-.133.177-.068.335 1.032 3.828.663 1.14 1.814 1.323.953.547.885-.142-3.135-28.91 2.107-.226 3.086 28.448zm-71.028 7.096l.26.09.173.268-.06.404-.287.179-.544-.022h-.516l-.343.022-.374.067-.374.158-.729.126.185-.194.374-.247.43-.336.574-.268.371-.136.575-.111h.285zm21.623 1.939l-.648-.875-.541-1.064.625.649.665 1.003-.1.287zm-.114-2.78l-.496.388-.1.453-.364-.841-.512-.307-.662-.686-.963-.372-.308-.67.064-.517.1-.356.133-.45.1-.454.032-.421-.167-.485-.758-.354-.4-.55 2.15.873.365.128.032.228-.33.419-.297.356-.33.226-.166.356-.23.644.098.453.295.344 1.226.691.33.29.233.355.458.057 1.328-.346-.861.548zm3.755-6.425l-.959-.49 2.056.49.525.094-.97.063-.652-.157zm3.179 1.179l-.191.39v.587l.57.488-.38.098-.455-.13-.114-.456.037-.555-.379-.488.302-.457.265-.499.191.565.228.293-.074.164zm.38 3.071l-.646.43.478-1.013-.281-.925.533.444.054.412.252.377.254.24-.644.035zm-61.147-125.228l1.825-1.825.457.457-1.825 1.825-.457-.457zm-125.493 25.49l.173.817-1.12.475-.17-.797.371-.148.746-.348zm-33.378 6.337l-.412.125-1.524-4.396.41-.128 1.526 4.399zm-4.18-11.263l.565-.177 1.937 6.166-.565.177-1.937-6.166zm17.74-39.02l-.01-.426 5.148-.22.013.426-5.151.22zm6.492 13.825l.55-3.832.43.061-.55 3.832-.43-.061zm.645-3.878l.55-3.832.43.062-.55 3.832-.43-.062zm13.739-9.441l.832-3.117.624.166-.832 3.117-.624-.166zm13.31 2.516l-.05.21-5.757-1.73.047-.21 5.76 1.73zm5.161 1.277l-.068.225-4.448-1.07.066-.223 4.45 1.068zm10.969 49.34h.645v8.401h-.645v-8.4zm-.287 16.481v-4.202h.533v4.784h.4v.386l-3.227-.516.03-.452h2.264zm44.58 4.303l-.67.241-.366-.12-.282.24-.67.182-.701-.452-.31-.421 1.233.241.9-.21.251-.361.218-1.023-.414-1.652.255.682.25.43.392.27.14.36-.252.481-.111.722.138.39zm11.887 15.338l-.98-1.747.062-.444-.278.116-.978.27-.862.514v15.52l.663 1.18h1.666l-.276.404-.018.318-.749.206-.918.434-1.326.51-5.718.236-.013-.333 5.628-.204 1.385-.495.404-.413-.906-1.614-.165-.627-.236-15.533-.266-.352.343-.11.37-.353h2.195l.718.096.029.648.787 1.402h2.108l.726-.979.43.35-.973 1h-2.852zM99.365 180.95l1.015-1.168v-1.072l-1.388-3.552.305-.024 1.63 4.51-.312.725-1.25.581zm26.23 9.868l.19.89-.245.229-.41-.525-.734-.377v-7.066l-1.096-2.132h-3.442l-.22-.861.246-.026.165.612h3.403l.365.619 1.315-.347 2.083.428.18.662-2.66 1.096v6.368l.257.458.424-.122 1.163-1.144 2.02-.188 2.295-.97 5.055-4.201.465.107-5.137 4.175-2.54 1.077-1.94.296-1.202.942zm9.409-12.453l.12.647-1.291-.168 1.17-.479zm126.594-12.13l.228-.228 2.742 2.741-.229.23-2.741-2.743zm.645-.646l.17-.17 2.742 2.742-.17.17-2.742-2.742zm-2.123-1.48l.192-.193 1.828 1.828-.192.192-1.828-1.827zm.644-.648l.254-.254 1.828 1.828-.254.254-1.828-1.828zm-20.274 27.83l-.843-1.712 1.29-.874v2.325l-.447.26zm5.61-3.232l.645 1.293-.645-.086v-1.207zm17.698-8.24l-1.044.457-.776.414-.835 1.336-.48.768-.369.095 1.674-2.678.504-.805 1.476-.79 1.567-.216.586-.035-.846.208-1.017.545-.049.253-.39.449zm-9.107 30.504l.559-.323.97 1.68-.56.322-.969-1.68zm2.258 2.67l.468-.27 1.615 2.8-.468.27-1.615-2.8zm1.613 3.146l.461-.266.97 1.679-.461.266-.97-1.679zm58.617-12.687l-.096-.383.057-.404-.39-.425-3.6-6.277-1.336-.774-5.71-5.168.844-.023-.117.425 5.117 4.659 1.243.722.55-.058 3.917 7.226 3.797-.615.134.133-3.075.443-.284.383-.621.253-.43-.117zm-135.653-91.65l.053.117-1.875.528-.061-.116 1.883-.53zm-.625-1.293l.032.072-1.9.574-.035-.072 1.903-.574zm-4.484 1.292l.041-.083 1.863-.563.032.06-1.936.586zm25.808-.764l.55-1.175.096.13-.508 1.163-.138-.118zm-1.29 1.314l1.092-1.196.198.087-1.027 1.205-.263-.096zm-1.936 2.527l1.683-2.43.253.123-1.65 2.461-.286-.154zm4.517-5.549l-.267.192-.263.341-.115-.092.304-.37.254-.184.087.113zm-5.807 6.868l1.023-1.165.267.116-.998 1.177-.292-.128zm-.945 2.713l-.346-.224.53-1.198.513-1.163.248.171-.084.153-.861 2.26zm.3 2.47l1.069-1.824.221.094-.03.05-1.056 1.795-.204-.115zm1.479-1.824l-.189-.106 1.105-2.479.185.089-.002.006-1.1 2.49zm3.83-7.109l-.148-.055 1.61-3.176.326.6-.107.239-.075.098.017.107-.533.721-.098-.043-.139.176.101.048-.955 1.285zm-3.374 4.442l2.455-3.795.126.059-1.027 1.655-1.38 2.163-.174-.082zm2.581.596l.908-1.771.383-.035-1.007 1.938-.269-.125-.015-.007zm-2.768 5.949l-.458-.075 1.676-2.914 1.194-2.181.038.019.318.138-2.768 5.013zm-3.039 2.674l-.278 1.203-.367-.064.281-1.228h.12l.244.089zm-1.089 2.741l.254-1.265.512.103-.254 1.265-.512-.103zm.438.487l-.13.56-.51-.096.13-.55.51.086zm-1.284 1.797l.306-1.237.339.06-.307 1.233-.338-.056zm1.29-1.406l.083-.477 3.015.684v-.009l.01.035.095-.032.023.614-3.226-.815zm5.162.088l-1.915.727-.021-.611 1.816-.681.12.565zm.645 1.68l3.117-.953.109.335-3.134.958-.092-.34zm-6.452.816l.09-.476 3.76.795.021.497-3.871-.816zm4.039.816l-.149-.03-.019-.557.297.064 2.18-.769.104.44-2.413.852zm-.181 1.637l.013.302-4.516-1.007.063-.285 4.44.99zm-3.858-2.862l-.274 1.225-.371-.082.273-1.21.372.067zm10.968-15.015l.336-.562.217.093-.375.553-.178-.084zm-.104.117l.007-.033.097.145-.02.085-.372.957-.184.106-.069-.22.162-.122.38-.918zm.75-.792l.272-.533.248.116-.3.53-.22-.113zm-5.162 4.151l.117-.16 2.464.5-.133.146-2.448-.486zm.645 2.986l2.024-2.5.557.129-1.988 2.456-.593-.085zm1.936-7.425l.192-.245.453 5.17-.233-.112-.412-4.813zm4.471 2.066l.017.026.008-.005.02.016-2.166 1.372-.206.157-.209-.436 2.108-1.503.428.373zm-7.585 11.26l-.112-.402 3.099-.89.127.385-3.114.907zm4.966-.899l.072.2 1.302 3.652-1.07.278-1.296-3.642-.073-.2-.142-.398 1.067-.284.14.394zm-.517-10.087l.064.162-.328.147.363 1.096.336-.292.165.419-1.123 1.053-.08-.059-.085-.025-.002-.036.69-.91-.363-.766-.048-.548.411-.241zm5.263 8.548l-1.295.5-.142-.404.975-.336 1.184-1.2.422.251-1.144 1.19zm4.37-5.102l-3.449 3.662-.422-.256 3.497-3.621.374.215zm-9.904 5.105l.226.783-1.095.36-.195-.675.866-.618.198.15zm4.058.23l-3.063.912-.124-.384 3.098-.908.128.365-.04.014zm-14.155 4.228l-.138.562-.507-.084.133-.562.512.084zm-.691 2.623l-.095.47-.505-.122.095-.47.505.122zm-.6 2.528l-.237 1.227-.408-.052.237-1.24.408.065zm20.032-8.161l-.627-.365-.048-.015.312-.572-.1.193 2.368 1.372-.203.374-1.702-.987zm-1.214-11.292l1.184 1.084-5.415 3.44-.392-.253 5.041-3.2-.65-.684-.142-.15.374-.237zm-8.397-8.401l-.097-.109 1.833-1.184.102.111-1.838 1.182zm11.187 12.925l-.316-.21 2.959-3.587-.075-.08.342.263-2.91 3.614zm53.877-36.22l2.999-1.188.179.451-3 1.189-.178-.452zm6.74-10.31l-1.483-3.454-2.026-2.949.271-.06 1.936 2.863 1.514 3.274.15.177-.362.149zm-53.712-30.11l.26-.35 2.595 1.925-.26.352-2.595-1.926zm6.974 5.228l-.208.324-3.663-2.91.21-.321 3.66 2.907zm-6.963-5.492l-2.07-1.529 7.281-9.458.092.068 4.886 3.527-.115.152-4.753-3.43-6.975 9.058 1.847 1.363-.193.249zm10.17-6.897l.186-.22 5.427 4.591-.186.22-5.427-4.591zm-.257 14.005l-.556-.235-1.749-1.275.124-.15 1.503 1.129.493.191.39-.17.144-.68.145-.705.164-.66.248-.594 2.017-3.296.47-.238.187-.278.142-.34.268-.448.228-.17.41-1.128.164.065-.245.51-.164.64-.043.36-.165.257-.283.385-.12.07-.768.459-1.453 2.288-.572 1.026-.465 1.796v.786l-.04.277-.474.128zm45.492 38.41l4.833-1.812.17.45-4.834 1.813-.169-.452zm-2.97 1.012l-.307-.187 3.142-1.106.084.267-2.92 1.026zm1.055 1.19l-.002-.006-1.36-.903.055-.112 1.249.826 2.508-.995.059.195-2.364.937.076.048-.056.112-.162-.105-.002.003zM179.872 36.94l.399-.507 12.695 9.994-.4.507-12.694-9.994zm-5.724-4.466l-.273-.463-.038-.456.081-.661.195-.448 3.163-4.55 1.705-.692.018.401-1.454.595-3.17 4.71-.085.403.058.525.303.37 3.614 2.906-.334.43-2.235-1.791-1.548-1.28zm-1.589-2.032l-.406.578-2.187-1.718.404-.58 1.943 1.526 1.278-1.813.246.197-1.278 1.81zM148.86 67.21l7.11 5.417.446.4-1.098-.633h-4.28l-.003-.405h3.189l.013-.31-.816-.55-.133-.335-2.1-1.41-2.514-1.968.186-.206zm45.193-52.228l-.214-.056.475-.82-.06-.393 4.49-1.909.464-.457 1.512-.627.76-.125.879-.5V8.4h1.018l.14 1.385-.371.633v7.03l-.752-.255v-3.917l-1.453.604-.384.343-1.131.393-.935.248-1.31.566-.221-.061.107-.085 2.01-.846 1.069-.611 1.233-.327 1.015-.58v-1.96l-.113-.388-1.711.455-.988.564-2.13 1.01-3.025 1.401-.049.41-.325.569zm90.318 72.262l-.203-.338 4.367-1.6.15.373-4.314 1.565zm14.665-5.423l-10.216 4.13-.136-.398 5.873-2.344.644-.179 2.915-1.28.75-.207.738-.766 1.34-.641v.415l-1.154.488-.754.782zm17.697 84.665l.303.32-.114.41.796.408.646.14v.5l-.455.182-.532-.41-.455-.272-.532.908h-.644v-.499l-1.253-1.138.607-.502.305-.775.302-.317 1.026 1.045zm-1.388 75.947l.233.19.205.481-.088.542-.438.383H312.67l-.758.255 3.06-1.939.373.088zm-2.59-93.669l.433-.478 2.397 2.166-.432.478-2.398-2.166zm6.661 4.278l.239.225-.41.484.094.098-.351.369-.072-.076-.812.96-.24-.226.824-.973-.97-1.018.352-.369.947.999.4-.473zm.32-.345l1.293-1.44.309.277-1.294 1.44-.309-.277zm1.416-1.672l1.676-1.962.424.362-1.677 1.962-.423-.362zm1.68.09l1.71-1.932.968.857-1.71 1.932-.968-.857zm-13.417-7.461l1.286-1.447.387.344-1.287 1.447-.386-.344zm-150.418-37.799l-3.786.777-.085-.413 1.808-.424v.008l.214-.048-.003-.01 1.726-.405.126.515zm24.518 90.606h7.098v.565h-7.098v-.565zm78.398 42.653l-2.02-3.353-4.548 2.516-.211-.348 4.548-2.516.184-.102.021-.01.113-.064 2.23 3.7-.317.177zm.038 1.54l.559-.322.646 1.12-.56.322-.645-1.12zm4.151 6.158l-.27.488-4.79 2.8-.045-.075-1.992-.428.046-.233 2.047.438 4.504-2.633-.023-.013.153-.275-2.856-5.003.308-.179 2.918 5.113zm-32.778-50.35l.518.854-5.32 2.9.863 1.642-.887.42-2.399-4.56.887-.423 1.07 2.039 5.268-2.873zm32.32 17.71l.137 1.248.552.64-.56.731-.33.33-1.687.841-.986.592-.252.343.466.91.291-.097.187.663-.562-.087-.382-.08-.287-.758.113-.797.64-1.103.71.11.851-.349.797-.61.133-1.122-.43-.772.555-1.595.988-.592.16.287-.577.442-.527.825zm3.56 3.616l-.585-.123-1.872-.956.158-.214 1.333.69.643-.183.447.475-.125.31zm1.375-5.17l-.145-.234h-1.047l-.704-.31 2.95-.102.276.246-1.33.4zm1.342-1.251l2.235-1.29.263.455-2.235 1.29-.263-.455zm17.282-9.028l-1.401.794-2.243 1.083-.1-.323 1.136-.645.912-.513.792-.222.51-.701 1.213-.685.298-.142.3.45-1.417.904zm4.307-4.35l.49-.235.491.445-.851.447-.568.372-.644.445-.337.633-.077.61-.931.227-.438.052-.025-.257.846-.205.187-.497.102-.493.466-.42.645-.4.644-.724zm-12.568 8.812l.26-.804.789-1.134.241.313-1.1 1.583-.19.042zm3.88-1.668l.636-.255-.395.338-1.027.293-1.105-.152-.053-.494 1.944.27zm-12.844 36.604l1.657-1.33.21.3-.44.275-.21.368-1.332.995-.6-.628.715.02zm3.797-1.977l.556.183.094.328-.152.136-.493-.205h-.759l-1.038-.06-.138-.246.23-.136h1.7zm30.94-29.541l.267.067.556-.372-.279-.527.966.522h1.106l-.927.505-.381.621-.485-.044-.279.98-.62-1.575-.517.02-1.37.33-1.228.471.628-.59 1.464-.37.481-.374.617.336zm-9.576 43.883l.42.222v1.446l.158.084v1.332l-.262.67-.632-.613.13-1.335.394-.081v-1.03l-.313-.028-.3-.872-.307-1.211.265.6.447.816zm1.39 15.664h-.005l12.743 2.093-.037.214-12.955-2.129.032-.173-.069-2.5-2.268.057v4.331h-.188v-4.53l2.45-.062-.12-4.529-.173.034-.04-.192.207-.04-.035-1.248.225-.005.032 1.209.19-.036.04.192-.225.046.196 7.268zm-11.573 2.307l.573.065.51 1.301-.186.085-.481-1.228-.432-.05-3.354 1.766-.063-.133 3.433-1.806zm1.083 1.687l2.39-1.04h4.062v.231h-3.95l.01.02-2.389 1.041-.123-.252zm6.389-2.528l1.032-.774.178.237-1.033.774-.177-.237zm-5.967-117.146l2.542-2.92.33.288-2.541 2.92-.331-.288zm-66.878-21.814l-.538.21-2.043-.94.227-.352 2.354 1.082zm29.604-83.358l-.188-.045-.382-.247.04-.306.323-.493.866.2.62.034.033.388.054.117-.02.307-.364.246-.563-.103-.417-.098h-.002zm-1.215 1.417l.51-.57 2.07 1.122-.706.171-1.691-.635.002-.008-.185-.08zM38.359 89.093l-.035 1.245-.078.482 1.354-.38 3.258 1.959-.337 1.308h-5.066l-.685-1.235-1.654-.794 1.745-3.141h.808l.69.556zm290.974-18.47l4.598.975 10.886-4.388-5.206 19.568-4.939 1.334-2.538 4.302-5.148-1.389-1.852-3.688-3.545-1.602 1.211-4.143 3.388-1.22.242-5.361 2.903-4.388zm-72.305-22.614l5.724 1.968-.417-.31 2.113 1.064 5.118-5.16.406-.083-3.477 4.384.309 2.495.976 5.488-1.66 2.247 1.023-3.852-.99-3.718-2.865-2.153-6.503-1.96-4.233-5.12 4.476 4.71zM109.963 171.985l-.152.565v-.674l-.029-.302-1.244.71-2.449.18.047-.206 2.153-.127 2.283-1.307.848-.987 1.291-2.222-.147-.851-.506-.164-.113-.414-.3-.047-.188-.698h.653l.714.82v1.105l.362.398-.097.654-.081.32-.305.078-.609.607-.884 1.002-1.076.925-.17.635z"/>
        <g fill-rule="nonzero">
            <path fill="#5DCFD0" d="M186.094 86.532l11.444-2.081 7.476 14.9 11.772 4.949-1.387 1.527 24.04 7 2.132 7.041-1.002 5.684h-5.947l-6.117 6.645h-1.845l-2.337 2.222-6.017 1.496-2.907 1.14-1.566-1.14-5.382 4.164-7.769 1.875-8.093-.987-13.238-10.22-6.433-14.58z"/>
            <path stroke="#5DCFD0" stroke-linecap="round" stroke-linejoin="round" stroke-width="3" d="M153.847 31.006l8.149 3.974 18.162 20.814-1.895 1.634L190.05 68.84l7.346 15.89 7.5 14.76 11.682 4.815 1.608-1.506 25.35-5.927 20.044 1.25 19.368 4.677 16.26 13.643 10.09 3 24.025.974 82.084-47.839v-47.87l-27.816-2.397-16.339 7.634-16.587-5.236-8.9 2.014-20.039-6.66-8.388-11.792-25.071 10.334-23.51 3.706-3.499-3.706-10.786 20.543-16.775 3.496L213.19 23.71l-18.507-10.237-11.406 1.115-17.916-9.961-2.457 15.434z"/>
            <path stroke="#5DCFD0" stroke-linecap="round" stroke-linejoin="round" stroke-width="3" d="M178.18 57.25l12.002 11.571 7.189 15.885-11.405 1.99-13.015 29.447 6.577 14.818 2.708 2.193-1.265 2.413-6.471 3.423-2.46-1.746-22.243 10.405 1.509-5.366-7.365.901v-12.223h1.697l.866-2.7-4.975-12.118-4.49-.84.84-5.396-8.697-1.986 3.725-15.603h5.793v-7.612l18.006-.883-1.5-6.58-2.034-3.314-1.866-1.8v-3.308l5.4 2.185 8.6-8.208 2.004 1.54z"/>
            <path stroke="#5DCFD0" stroke-linecap="round" stroke-linejoin="round" stroke-width="3" d="M96.226 192.705l10.661-9.845h10.116l2.488-1.946h6.214l5.309-1.443 3.215-2.32 1.756-5.32-1.756-2.97v-8.134h5.56v-12.724h4.925l-.949-4.956 7.272-.928-1.01 5.051 22.127-10.237 2.138 1.941 6.665-2.96 1.214-3.02 10.564 7.838 8.057 1.387 7.866-1.387 10.313 28.13v4.765l-7.478 5.844-1.759 5.363-3.392 2.866-4.245.871v6.8l-3.749 11.837 1.056 1.47-58.078 2.14v-15.447l-10.312-3.602-7.918 2.686-17.59 3.819-9.28-5.569z"/>
            <path stroke="#5DCFD0" stroke-linecap="round" stroke-linejoin="round" stroke-width="3" d="M96.286 192.78l10.89-10.185h10.098l2.443-1.928h6.466l5.204-1.196 2.997-2.233 1.696-5.647-1.696-2.353v-8.346h5.377v-13.035h5.196l-.998-5.206v-11.734h1.846l.938-2.73-5.199-12.043-4.298-1.02.873-5.557-8.864-1.76 3.825-15.461h-13.363v-5.92h-17.535v-2.735H51.986v2.735l-18.296.938-2.218 16.045 3.608 8.719v6.174l-3.608 24.35 2.218 6.025 31.941 18.71 12.271 15.208z"/>
            <path stroke="#5DCFD0" stroke-linecap="round" stroke-linejoin="round" stroke-width="3" d="M18.177 3.042L2.33 62.187l27.253 5.832 1.16 19.631 21.196-1.3v-2.711h50.191v2.71h17.466v6.04H138.7v-7.802l18.116-.948-1.587-6.684-2.108-3.3-1.453-1.644V68.02l5.148 2.895 8.75-8.727 1.78 1.971 12.745-8.347-18.101-20.925-8.87-4.17L64.519 8.18l-.873 3.91zM240.645 125.55l-.742 5.711 1.826 6.264 3.918 5.265 25.661-1.548 8.912-1.768 4.726 4.365-5.226 2.09-12.007 23.633-4.725 6.85-12.71 6.081-14.73 8.673-2.971-4.497-5.63 2.859-8.724 4.802h-2.23l-4.493 1.76 2.34 9.92 3.353 1.874-2.693 7.662-8.521-4.277-5.315-1.012-2.292-2.935 3.675-12.307v-6.573l4.367-.83 3.343-2.96 1.743-5.18 7.358-5.96v-4.863l-10.417-28.602 5.399-4.3 1.68 1.124 2.703-1.124 6.191-1.417 2.534-2.351h1.524l6.328-6.429z"/>
            <path stroke="#5DCFD0" stroke-linecap="round" stroke-linejoin="round" stroke-width="3" d="M215.499 106.11l2.54-3.657 25.724-5.905 19.263 1.574 20.088 4.33 16.038 13.897 10.117 3.16 24.522 1.142 8.883-5.67v32.296l-11.544 5.909-9.792 11.479-4.181-1.06-7.067 5.208-29.864-29.295-8.706 1.813-25.87 1.507-4.15-5.553-1.747-6.138 1.747-11.639-1.747-6.877zM235.11 235.81l27.813 49.785h6.379l3.351-5.048 25.83-10.904 12.062 2.038 1.572-7.054h2.694l-.922-6.644h3.094l4.473-9.856-2.055-5.617 16.742-5.408-4.588-31.898-2.248-6.97-18.762 24.4 3.344-7.45-9.364-20.025-14.18-2.292-4.718 8.31-3.706-2.943-13.477 6.97-4.079-8.321-17.45 9.965 7.163 13.136-4.252 2.65-1.695 4.38z"/>
        </g>
    </g>
</svg>
