<svg xmlns="http://www.w3.org/2000/svg" width="40" height="40" viewBox="0 0 40 40">
    <g fill="#262A49" fill-rule="nonzero">
        <path d="M31.797 0H8.203C3.68 0 0 3.68 0 8.203v23.594C0 36.32 3.68 40 8.203 40h23.594C36.32 40 40 36.32 40 31.797V8.203C40 3.68 36.32 0 31.797 0zm5.86 31.797c0 3.23-2.63 5.86-5.86 5.86H8.203a5.866 5.866 0 0 1-5.86-5.86V8.203c0-3.23 2.63-5.86 5.86-5.86h23.594c3.23 0 5.86 2.63 5.86 5.86v23.594z"/>
        <path d="M23.879 9.65A1.955 1.955 0 0 0 20.3 9.18L20 9.7l-.3-.52a1.955 1.955 0 0 0-2.669-.715 1.955 1.955 0 0 0-.715 2.668l1.429 2.474-5.27 9.127H8.633a1.955 1.955 0 0 0-1.953 1.953c0 1.077.876 1.954 1.953 1.954h14.833l-2.256-3.907h-4.225l6.698-11.601c.261-.452.33-.978.196-1.482z"/>
        <path d="M31.367 22.734h-3.842l-4.368-7.565-2.255 3.906 6.782 11.746a1.964 1.964 0 0 0 1.695.978 1.955 1.955 0 0 0 1.688-2.93L29.78 26.64h1.587a1.955 1.955 0 0 0 1.953-1.953 1.955 1.955 0 0 0-1.953-1.954zM9.318 28.203l-.385.665a1.955 1.955 0 0 0 1.689 2.93c.675 0 1.333-.35 1.694-.977l1.512-2.618h-4.51z"/>
    </g>
</svg>
