<svg xmlns="http://www.w3.org/2000/svg" width="30" height="29" viewBox="0 0 30 29">
    <path fill="#e57b93" fill-rule="nonzero" d="M27.959 7.407a14.84 14.84 0 0 0-5.453-5.394C20.21.687 17.703.025 14.984.025c-2.718 0-5.226.662-7.521 1.988A14.838 14.838 0 0 0 2.01 7.407C.67 9.678 0 12.158 0 14.847c0 3.23.953 6.134 2.858 8.714 1.906 2.58 4.367 4.365 7.385 5.355.351.065.611.02.78-.135a.751.751 0 0 0 .254-.578l-.01-1.043c-.007-.656-.01-1.228-.01-1.717l-.448.077a5.786 5.786 0 0 1-1.083.067 8.337 8.337 0 0 1-1.356-.135 3.046 3.046 0 0 1-1.308-.578 2.45 2.45 0 0 1-.858-1.187l-.195-.444a4.814 4.814 0 0 0-.614-.984c-.28-.36-.563-.605-.85-.734l-.136-.096a1.427 1.427 0 0 1-.253-.232 1.057 1.057 0 0 1-.176-.27c-.039-.09-.007-.165.098-.223.104-.058.292-.086.566-.086l.39.058c.26.051.582.205.965.463.384.257.7.592.947 1.003.299.528.66.93 1.082 1.207.423.276.85.414 1.278.414.43 0 .8-.032 1.112-.096a3.91 3.91 0 0 0 .878-.29c.117-.862.436-1.524.956-1.988a13.492 13.492 0 0 1-2-.347 8.011 8.011 0 0 1-1.833-.753 5.24 5.24 0 0 1-1.571-1.293c-.416-.515-.758-1.19-1.024-2.027-.267-.836-.4-1.8-.4-2.895 0-1.557.514-2.882 1.541-3.976-.481-1.17-.436-2.483.137-3.936.377-.116.936-.03 1.678.26.741.29 1.284.538 1.629.743.345.206.621.38.83.521a13.996 13.996 0 0 1 3.745-.501c1.288 0 2.537.167 3.747.501l.741-.463a10.55 10.55 0 0 1 1.795-.85c.69-.256 1.216-.327 1.58-.211.586 1.454.638 2.766.156 3.937 1.028 1.093 1.542 2.419 1.542 3.976 0 1.093-.134 2.061-.4 2.904-.267.843-.611 1.518-1.034 2.027-.423.508-.95.936-1.58 1.283a8.027 8.027 0 0 1-1.834.753c-.592.154-1.259.27-2 .348.676.579 1.014 1.492 1.014 2.74v4.072c0 .231.081.425.244.579.163.154.42.2.77.135 3.019-.99 5.48-2.776 7.386-5.356 1.905-2.58 2.858-5.484 2.858-8.714 0-2.688-.671-5.168-2.01-7.439z"/>
</svg>
