<svg xmlns="http://www.w3.org/2000/svg" width="20" height="13" viewBox="0 0 20 13">
    <g fill="#E57B93" fill-rule="nonzero">
        <path d="M15.898 8.203a.586.586 0 1 0 .001 1.173.586.586 0 0 0 0-1.173z"/>
        <path d="M19.414 0H5.908v1.758a.586.586 0 1 1-1.172 0V0H.586A.586.586 0 0 0 0 .586v3.516c0 .323.262.585.586.585.97 0 1.758.789 1.758 1.758A1.76 1.76 0 0 1 .586 8.203.586.586 0 0 0 0 8.79v3.516c0 .324.262.586.586.586h4.101v-1.758a.586.586 0 1 1 1.172 0v1.758h13.555a.586.586 0 0 0 .586-.586V.585A.586.586 0 0 0 19.414 0zM5.86 8.79a.586.586 0 1 1-1.171 0V7.616a.586.586 0 1 1 1.171 0V8.79zm0-3.517a.586.586 0 1 1-1.171 0V4.102a.586.586 0 1 1 1.171 0v1.171zm3.594-1.171c0-.97.789-1.758 1.758-1.758.97 0 1.758.788 1.758 1.758a1.76 1.76 0 0 1-1.758 1.757 1.76 1.76 0 0 1-1.758-1.757zm1.433 6.346a.586.586 0 0 1-.163-.812l4.688-7.031a.586.586 0 1 1 .975.65l-4.688 7.03a.586.586 0 0 1-.812.163zm5.012.099a1.76 1.76 0 0 1-1.757-1.758c0-.97.788-1.758 1.757-1.758.97 0 1.758.789 1.758 1.758a1.76 1.76 0 0 1-1.758 1.758z"/>
        <path d="M11.21 3.516a.586.586 0 1 0 .002 1.172.586.586 0 0 0-.001-1.172z"/>
    </g>
</svg>
