<svg xmlns="http://www.w3.org/2000/svg" width="40" height="35" viewBox="0 0 40 35">
    <path fill="#FFF" fill-rule="nonzero" d="M23.282 4.105l-.126-.126.816-.756.126.126-.816.756zm-.502-.252l-.063-1.134h-.188l.063 1.134h.188zm9.662 3.715c.816.44 3.45 2.015 3.827 2.267.44.251-.878 1.07-.94 2.015-.064 1.259.627.377.627.377l.376-.692c.878-1.511 1.631-2.708.188-3.59l-.815-.503s-1.067-.378-2.07-3.274c-.754.881-.064 1.952-.064 1.952s-.815-1.197-1.192-1.134c0 .063-.753 2.141.063 2.582zm-10.164-3.4l-.816-.756-.125.189.816.755.125-.188zm-4.894-2.771c-.752-.882-2.007-.504-2.133.567-.125.944.69 1.574 1.443 2.14 0 0 .44.315.565.504l.063.063c.062 0 .062 0 .062-.063a2.62 2.62 0 0 1 .502-.378s.063-.062.126-.062c.69-.567 1.568-1.197 1.443-2.141-.063-1.134-1.38-1.512-2.07-.63zm-1.317 13.16c-1.443.126-2.698-.126-3.702-.944-.188-1.574-.376-3.212-.564-4.786-.126-1.322-1.004-2.456-2.447-2.519-1.255 0-2.635 1.134-2.51 2.456.314 2.582.565 5.163.941 7.682l-4.392 8.69 5.521.063v7.493c0 2.14 3.263 2.14 3.263 0v-7.43h1.004V16.95c.878.252 1.882.378 2.886.252 1.694-.189 1.694-2.834 0-2.645zm21.645 19.394c-1.757-.566-3.576-1.133-5.333-1.763-2.258-.755-3.639-2.77-4.392-4.974-.313-.126-.69-.252-.94-.504-.628 0-1.255-.063-1.82-.063.125 2.015 1.004 3.904 2.133 5.541 1.318 2.015-1.882 3.904-3.2 1.89-1.945-2.96-2.949-6.297-2.447-9.824.126-.818 1.067-1.385 1.82-1.385h2.635c.063-2.204.44-4.597 1.38-6.674l-.125 1.952 1.945-2.708c-.251-.189-4.518-3.337-6.337-4.597-1.004-.63-1.004-1.763-.565-2.581h-1.192V6.246h.314c-.063-.19-.125-.315-.125-.504 0-.44.25-.882.627-1.07l.627-.693.628.692c.376.252.627.63.627 1.07 0 .19-.063.379-.125.505h.752V2.908h1.13v5.415c2.007 1.386 3.89 2.771 5.835 4.22a2.59 2.59 0 0 1 2.07.755c1.004 1.007 1.192 3.022 0 3.967-1.945 1.637-2.008 5.037-2.008 7.43 0 .063.063 1.008-.125 1.385.125.441.565 1.89 2.886 2.897 1.443.44 2.886.944 4.266 1.385 2.322.756 1.38 4.345-.94 3.59zM23.722 5.868c0-.378-.252-.756-.566-.882h-.815c-.314.189-.565.504-.565.882 0 .189.063.378.126.503h1.694c.062-.125.125-.314.125-.503zm3.89 15.616c0-.441-.19-.756-.377-.756-.189 0-.377.315-.377.756 0 .44.188.755.377.755.25 0 .376-.315.376-.755zm.187-1.637c0-.441-.188-.756-.376-.756s-.377.315-.377.756c0 .44.189.755.377.755.25 0 .376-.378.376-.755zM4.146 8.387c1.318.125 1.882-.693 2.008-2.016.188-1.826-.188-3.022.125-4.155.251 0 .502.063.753.125-.063.252-.125.567-.125.82 0 1.51 1.255 2.77 2.76 2.77 1.506 0 2.76-1.26 2.76-2.77 0-1.512-1.254-2.772-2.76-2.772-.69 0-1.38.252-1.882.756C5.84-.995 3.456.264 4.397 2.782c1.13 3.212 1.757 5.29-.25 5.604zm-2.76 5.352c-.502-.567-1.318-.315-1.38.378-.063.63.439 1.007.94 1.385 0 0 .377.315.44.315l.439-.315c.502-.378 1.004-.756.94-1.385-.062-.693-.877-.945-1.38-.378z"/>
</svg>
