<svg xmlns="http://www.w3.org/2000/svg" width="39" height="34" viewBox="0 0 39 34">
    <g fill="#E57B93" fill-rule="nonzero">
        <g>
            <circle cx="13.385" cy="2.798" r="2.798"/>
            <path d="M20.205 9.668a3.202 3.202 0 0 0-3.195-3.18h-1.192l-2.433 6.498-2.432-6.497h-.778c-1.33 0-2.541.675-3.24 1.806l-1.202 1.94L3.1 7.755a1.36 1.36 0 0 0-.163-.13v-2.43A2.108 2.108 0 0 0 4.28 3.232V1.924a.44.44 0 0 0-.44-.44H.505a.44.44 0 0 0-.44.44v1.307c0 .873.531 1.622 1.287 1.942v2.494a1.35 1.35 0 0 0-.105 2.054l3.84 3.613a1.35 1.35 0 0 0 2.073-.272C9.393 9.453 9.252 9.67 9.33 9.578a.272.272 0 0 1 .48.176c-.001 12.78-.015 1.638-.015 22.626a1.62 1.62 0 0 0 3.24 0V19.429h.7v12.95a1.62 1.62 0 0 0 3.24 0c0-12.413-.013-10.66-.014-22.696a.272.272 0 0 1 .543-.001l.05 9.92a1.35 1.35 0 0 0 1.35 1.343h.007a1.35 1.35 0 0 0 1.344-1.357l-.05-9.92zm-4.02 1.315h-1.253v-.589h1.253v.59z"/>
            <path d="M14.441 5.839l-1.056.58-1.056-.58a.196.196 0 0 0-.29.172v1.322c0 .149.16.244.29.172l1.056-.58 1.056.58c.13.072.29-.023.29-.172V6.011a.196.196 0 0 0-.29-.172z"/>
            <circle cx="13.385" cy="8.369" r="1"/>
            <circle cx="13.385" cy="10.137" r="1"/>
        </g>
        <path d="M21.311 19.525l2.646-8.198c.157-.485.679-.865 1.189-.865h.535c.014 0 .025.003.038.004.014-.001.027-.004.04-.004h3.661l6.208-3.811a.988.988 0 0 1 .288-.118l.15-2.349a2.073 2.073 0 0 1-1.106-.656 2.078 2.078 0 0 1-.517-1.516l.074-1.153c.02-.302.265-.513.598-.513l2.944.188c.332.021.657.231.634.592l-.074 1.154a2.096 2.096 0 0 1-1.888 1.948l-.152 2.374c.173.08.324.203.43.37l.346.549a.986.986 0 0 1 .127.754c-.06.26-.22.481-.447.62l-5.86 3.598v5.581c.217.133.405.31.518.51l1.965 3.47c.138.243.159.517.058.752a.844.844 0 0 1-.586.477l-2.132.533v8.75c0 .736-.598 1.334-1.334 1.334h-.13a1.335 1.335 0 0 1-1.333-1.333v-8.093a3.724 3.724 0 0 1-.68-.007v8.1c0 .735-.599 1.333-1.334 1.333h-.13a1.335 1.335 0 0 1-1.333-1.333V23.78l-1.922-.494a.847.847 0 0 1-.584-.48.848.848 0 0 1 .06-.753l1.092-1.93c-.243.281-.61.472-.97.472h-.31a.824.824 0 0 1-.68-.324.823.823 0 0 1-.099-.746zm2.932-.941c.113-.2.3-.377.517-.51v-1.678l-1.14 3.287.623-1.099z"/>
        <path d="M27.968 9.617a3.035 3.035 0 0 1-3.032-3.031 3.035 3.035 0 0 1 3.032-3.031 3.035 3.035 0 0 1 3.03 3.031 3.035 3.035 0 0 1-3.03 3.031z"/>
    </g>
</svg>
