<svg xmlns="http://www.w3.org/2000/svg" width="80" height="67" viewBox="0 0 80 67">
    <g fill="#F7F7FC" fill-rule="nonzero">
        <path d="M13.523 30.364c1.96-.569 3.921-.857 5.828-.857 2.945 0 5.403.678 7.308 1.509-1.837-6.778-6.25-18.473-15.04-19.79a2.094 2.094 0 0 1-1.704-1.514L7.994 2.786a2.117 2.117 0 0 1 .265-1.721A2.087 2.087 0 0 1 9.72.135 14.48 14.48 0 0 1 11.686 0c10.552 0 21.002 11.1 25.411 26.994 2.589 9.324 3.348 23.343-3.028 32.167-3.568 4.937-8.774 7.574-15.472 7.837l-.082.002C10.251 67 2.922 61.39.692 53.36A18.67 18.67 0 0 1 2.39 39.177c2.4-4.296 6.354-7.428 11.134-8.814zM43.39 39.178c2.4-4.297 6.354-7.428 11.133-8.814 1.961-.569 3.922-.858 5.828-.858 2.945 0 5.403.679 7.309 1.51-1.837-6.779-6.25-18.474-15.042-19.79a2.095 2.095 0 0 1-1.704-1.515l-1.92-6.925a2.117 2.117 0 0 1 .265-1.721c.33-.509.863-.848 1.46-.93C51.369.045 52.03 0 52.687 0c10.551 0 21.002 11.1 25.412 26.994 2.588 9.324 3.347 23.342-3.03 32.168-3.567 4.936-8.774 7.574-15.471 7.836l-.083.002c-8.264 0-15.594-5.61-17.823-13.64a18.68 18.68 0 0 1 1.698-14.182z"/>
    </g>
</svg>
