<svg xmlns="http://www.w3.org/2000/svg" width="30" height="30" viewBox="0 0 30 30">
    <path fill="#e57b93" fill-rule="nonzero" d="M14.981 0C6.708 0 0 6.708 0 14.981c0 8.274 6.708 14.982 14.981 14.982 8.274 0 14.982-6.708 14.982-14.982C29.963 6.706 23.255 0 14.98 0zm-3.745 22.238H7.491V9.129h3.745v13.109zM9.479 8.326a1.756 1.756 0 1 1 1.757-1.757c0 .97-.787 1.757-1.757 1.757zm14.866 13.912h-3.746v-8.105c0-.95-.271-1.614-1.438-1.614-1.934 0-2.307 1.614-2.307 1.614v8.105h-3.745V9.129h3.745v1.253a6.264 6.264 0 0 1 3.745-1.251c1.214 0 3.746.727 3.746 5.116v7.99z"/>
</svg>
