<svg xmlns="http://www.w3.org/2000/svg" width="37" height="40" viewBox="0 0 37 40">
    <path fill="#262A49" fill-rule="nonzero" d="M34.051 16.182L6.756.58a4.404 4.404 0 0 0-4.389.014 4.41 4.41 0 0 0-2.19 3.803v31.205c0 1.562.84 3.019 2.19 3.803a4.4 4.4 0 0 0 4.389.014L34.05 23.817a4.407 4.407 0 0 0 2.215-3.818 4.407 4.407 0 0 0-2.215-3.817zm-11.828-3.69l-3.747 5.22L9.51 5.227l12.712 7.267zM4.402 37.318a1.715 1.715 0 0 1-.697-.219 1.736 1.736 0 0 1-.861-1.496V4.397c0-.615.33-1.188.862-1.497.212-.123.45-.197.693-.222l12.435 17.321L4.402 37.317zm5.11-2.544l8.964-12.487 3.747 5.22-12.712 7.267zM32.727 21.5l-8.177 4.674L20.117 20l4.434-6.176 8.177 4.674c.537.308.871.883.871 1.502 0 .62-.333 1.195-.871 1.502z"/>
</svg>
