<svg xmlns="http://www.w3.org/2000/svg" width="50" height="50" viewBox="0 0 50 50">
    <path fill="#FFF" fill-rule="nonzero" d="M46.508 12.465C39.626.545 24.384-3.539 12.465 3.345.545 10.224-3.54 25.466 3.344 37.385c6.88 11.92 22.123 16.005 34.042 9.123 11.92-6.884 16.006-22.125 9.122-34.044zm-10.61 31.461c-10.49 6.06-23.908 2.464-29.965-8.029C-.126 25.407 3.47 11.99 13.962 5.933 24.453-.125 37.87 3.47 43.927 13.962c6.058 10.492 2.463 23.907-8.029 29.964zm-2-20.013l-13.05-7.61c-1.19-.695-2.149-.14-2.142 1.235l.067 15.107c.006 1.376.977 1.935 2.17 1.247l12.95-7.477c1.191-.688 1.194-1.808.005-2.502z"/>
</svg>
