<svg xmlns="http://www.w3.org/2000/svg" width="35" height="34" viewBox="0 0 35 34">
    <path fill="#E57B93" fill-rule="nonzero" d="M34.151 27.072l-3.485.82-2.06-8.773a8.147 8.147 0 0 0 3.318-3.03 8.134 8.134 0 0 0 1.017-6.18L31.788 5a2.264 2.264 0 0 0-2.733-1.695l-9.951 2.341.034-.144a2.278 2.278 0 0 0-1.693-2.735L5.945.06a2.264 2.264 0 0 0-2.733 1.694L2.06 6.666a8.135 8.135 0 0 0 1.017 6.18 8.147 8.147 0 0 0 3.317 3.03l-2.06 8.772-3.484-.82L0 27.443l10.581 2.489.85-3.615-3.486-.82 2.06-8.772h.008c1.811 0 3.603-.62 5.044-1.745a8.194 8.194 0 0 0 1.808-1.967l.15.643a8.194 8.194 0 0 0 2.927 4.567 8.24 8.24 0 0 0 5.046 1.746h.007l2.06 8.772-3.485.82.849 3.614L35 30.687l-.849-3.615z"/>
</svg>
