<svg xmlns="http://www.w3.org/2000/svg" width="63" height="65" viewBox="0 0 63 65">
    <g fill="none" fill-rule="nonzero">
        <path fill="#DBD6E9" d="M12.762 35.363a1.351 1.351 0 0 0-1.473.292l-4.448 4.451-4.449-4.45a1.351 1.351 0 0 0-2.308.956v27.026c0 .746.605 1.351 1.352 1.351h10.81c.746 0 1.351-.605 1.351-1.351V36.612c0-.547-.33-1.04-.835-1.249zM24.013 24.845a1.351 1.351 0 0 0-1.91 0l-5.406 5.405a1.352 1.352 0 0 0-.397.957v32.43c0 .747.605 1.352 1.351 1.352h10.81c.747 0 1.352-.605 1.352-1.351V31.207a1.35 1.35 0 0 0-.395-.957l-5.405-5.405zM40.229 19.44a1.351 1.351 0 0 0-1.91 0l-5.406 5.405a1.352 1.352 0 0 0-.397.956v37.837c0 .746.605 1.351 1.35 1.351h10.811c.747 0 1.352-.605 1.352-1.351V25.8a1.35 1.35 0 0 0-.395-.956l-5.405-5.406zM61.85 16.737l-2.703-2.703a1.351 1.351 0 0 0-.957-.394h-2.702a1.35 1.35 0 0 0-.957.394l-5.405 5.406a1.351 1.351 0 0 0-.395.956v43.242c0 .746.605 1.351 1.352 1.351h10.81c.746 0 1.351-.605 1.351-1.351V17.694c0-.359-.141-.703-.394-.957z"/>
        <path fill="#E57B93" d="M60.893.127h-8.108a1.351 1.351 0 0 0-.956 2.308l3.1 3.097-10.252 10.25-4.448-4.45a1.351 1.351 0 0 0-1.91 0l-9.857 9.856-4.449-4.451a1.351 1.351 0 0 0-1.91 0L6.84 31.998l-4.449-4.45a1.351 1.351 0 0 0-1.91 1.91l5.405 5.405a1.351 1.351 0 0 0 1.91 0l15.26-15.259 4.448 4.449a1.351 1.351 0 0 0 1.91 0l9.857-9.854 4.449 4.449a1.351 1.351 0 0 0 1.91 0L56.84 7.443l3.097 3.097a1.352 1.352 0 0 0 2.308-.954V1.478c0-.746-.605-1.351-1.35-1.351z"/>
        <path fill="#38315D" d="M12.246 64.99H1.436a1.351 1.351 0 0 1-1.352-1.352V36.612a1.351 1.351 0 0 1 2.308-.957l4.449 4.451 4.448-4.448a1.351 1.351 0 0 1 2.309.954v27.026c0 .746-.605 1.351-1.352 1.351zm-9.459-2.703h8.108V39.874l-3.097 3.1a1.351 1.351 0 0 1-1.911 0l-3.1-3.1v22.413zM28.462 64.99h-10.81a1.351 1.351 0 0 1-1.352-1.352V31.207c0-.36.141-.703.395-.957l5.405-5.405a1.351 1.351 0 0 1 1.91 0l5.406 5.405c.253.254.395.598.395.957v32.43c0 .746-.604 1.35-1.35 1.352zm-9.46-2.703h8.108V31.766l-4.053-4.054-4.054 4.054v30.52zM44.677 64.99h-10.81a1.351 1.351 0 0 1-1.351-1.352V25.8c0-.358.141-.702.394-.956l5.406-5.406a1.351 1.351 0 0 1 1.91 0l5.406 5.406c.254.253.397.597.397.956v37.837c0 .746-.605 1.351-1.352 1.351zm-9.459-2.703h8.108V26.36l-4.054-4.054-4.054 4.054v35.926zM60.893 64.99h-10.81a1.351 1.351 0 0 1-1.352-1.352V20.396c0-.358.142-.703.395-.957l5.405-5.405c.254-.253.598-.395.957-.394h2.702c.36-.001.703.14.957.394l2.703 2.703c.253.254.395.598.394.957v45.944c0 .746-.605 1.351-1.35 1.351zm-9.46-2.703h8.109V18.253l-1.911-1.91h-1.584l-4.613 4.613v41.33z"/>
        <path fill="#E57B93" d="M6.841 35.26a1.35 1.35 0 0 1-.957-.394L.48 29.46a1.351 1.351 0 0 1 1.91-1.911l4.452 4.448L22.1 16.737a1.351 1.351 0 0 1 1.91 0l4.452 4.451 9.853-9.854a1.351 1.351 0 0 1 1.911 0l4.451 4.449L55.882 4.578a1.351 1.351 0 1 1 1.911 1.91L45.631 18.65a1.351 1.351 0 0 1-1.91 0l-4.449-4.45-9.853 9.856a1.351 1.351 0 0 1-1.911 0l-4.451-4.452-15.26 15.262a1.351 1.351 0 0 1-.956.394z"/>
        <path fill="#E57B93" d="M60.893 10.937a1.35 1.35 0 0 1-.957-.395L51.83 2.435a1.351 1.351 0 0 1 .956-2.308h8.108c.746 0 1.351.605 1.351 1.35v8.109a1.351 1.351 0 0 1-1.35 1.351zM56.047 2.83l3.495 3.495V2.829h-3.495z"/>
    </g>
</svg>
