<svg xmlns="http://www.w3.org/2000/svg" width="84" height="66" viewBox="0 0 84 66">
    <g fill="none" fill-rule="nonzero">
        <path fill="#38315D" d="M29.98 45.53h-2.516a1.23 1.23 0 1 0 0 2.46h2.515a1.23 1.23 0 1 0 0-2.46z"/>
        <path fill="#38315D" d="M81.204 51.264H80.5v-3.509a5.183 5.183 0 0 0-4.518-5.131l-14.194-1.81-5.568-9.606a2.868 2.868 0 0 0-2.474-1.426c-.921 0-1.79.448-2.326 1.196a2.866 2.866 0 0 0-.38 2.589l2.447 7.16H30.974L29.36 30.225a3.917 3.917 0 0 0-3.893-3.34 3.943 3.943 0 0 0-3.939 3.938v5.274l-14.45 1.58a4.376 4.376 0 0 0-3.906 4.356v9.013h-.356c-.09 0-.18.005-.27.014-.041.004-.083.011-.124.017-.045.006-.09.012-.135.02-.054.01-.106.024-.16.038-.03.007-.06.014-.09.023a2.822 2.822 0 0 0-.174.057l-.047.016c-.009.003-.017.008-.026.012-.051.02-.1.041-.15.064-.013.006-.027.01-.04.017l-.035.02a2.834 2.834 0 0 0-.403.244l-.045.03-.057.047-.05.04a2.798 2.798 0 0 0-.185.166 2.84 2.84 0 0 0-.698 1.155c-.025.08-.045.161-.063.243l-.014.074a2.811 2.811 0 0 0-.028.185c-.003.026-.007.05-.009.077a2.818 2.818 0 0 0-.013.258v1.793a2.927 2.927 0 0 0 2.923 2.923h5.374a9.115 9.115 0 0 0 8.914 7.127 9.115 9.115 0 0 0 8.913-7.127h30.732a9.115 9.115 0 0 0 8.914 7.127 9.115 9.115 0 0 0 6.465-2.674 9.086 9.086 0 0 0 2.449-4.453h6.398a2.758 2.758 0 0 0 2.755-2.755v-1.927a2.636 2.636 0 0 0-2.633-2.633zM53.368 32.771a.39.39 0 0 1 .053-.361.4.4 0 0 1 .67.032l4.803 8.285h-2.807l-2.719-7.956zm-29.38-1.948a1.48 1.48 0 0 1 1.48-1.478c.734 0 1.349.527 1.46 1.254l1.556 10.128h-1.429a1.12 1.12 0 0 1-1.119-1.12 3.46 3.46 0 0 0-.008-.226l-.006-.08a3.313 3.313 0 0 0-.028-.239l-.02-.107a3.593 3.593 0 0 0-.054-.249l-.01-.036a3.413 3.413 0 0 0-.046-.157l-.01-.032a3.56 3.56 0 0 0-.297-.662l-.004-.006a3.58 3.58 0 0 0-.418-.579l-.031-.036a3.773 3.773 0 0 0-.1-.105l-.051-.05c-.033-.032-.065-.063-.1-.094l-.007-.007-.055-.047a3.537 3.537 0 0 0-.16-.13c-.032-.024-.063-.048-.095-.07l-.084-.058a3.614 3.614 0 0 0-.33-.197l-.034-.018v-5.599zM8.078 56.12H2.923a.463.463 0 0 1-.462-.463v-1.793a.352.352 0 0 1 .034-.15.352.352 0 0 1 .067-.099l.005-.004.006-.006.013-.01.018-.015a.35.35 0 0 1 .209-.072h.004l5.778-.001a9.104 9.104 0 0 0-.517 2.613zm13.858 5.173a6.69 6.69 0 0 1-9.45 0 6.685 6.685 0 0 1-1.764-6.314l.005-.022c.022-.089.046-.177.072-.265.01-.036.022-.07.033-.106.018-.06.037-.12.058-.18l.044-.125a6.2 6.2 0 0 1 .179-.442l.056-.125c.026-.055.053-.108.08-.162l.029-.057.043-.082a6.68 6.68 0 0 1 .174-.304l.022-.037.082-.131c.032-.05.065-.099.099-.147.032-.047.063-.093.096-.139.04-.054.08-.107.122-.16.03-.04.06-.08.092-.12.048-.06.1-.118.15-.177l.08-.093a6.638 6.638 0 0 1 4.972-2.219 6.631 6.631 0 0 1 4.725 1.957l.036.037c.072.073.142.147.21.223.032.035.062.072.093.108.047.054.093.107.138.163.034.042.067.086.1.129l.113.15c.035.048.07.098.103.147l.092.137a6.63 6.63 0 0 1 .443.799l.024.053a6.694 6.694 0 0 1-1.351 7.504zm48.559 0a6.69 6.69 0 0 1-9.45 0 6.693 6.693 0 0 1-1.353-7.5l.026-.059a6.32 6.32 0 0 1 .34-.632 6.97 6.97 0 0 1 .198-.307c.032-.047.064-.094.098-.14.039-.054.08-.107.12-.16l.093-.12c.048-.06.1-.118.15-.177l.08-.093a6.748 6.748 0 0 1 .495-.496l.035-.03a6.66 6.66 0 0 1 .224-.193l.006-.005a6.665 6.665 0 0 1 4.212-1.492c1.495 0 2.989.497 4.211 1.49l.008.007c.075.061.149.125.221.19l.039.033a6.704 6.704 0 0 1 .247.235c.09.09.177.183.262.278l.059.07c.067.077.133.155.197.236l.046.06c.07.09.137.182.203.276l.022.033c.074.109.146.22.214.333l.005.006.008.014.05.087a6.18 6.18 0 0 1 .239.455l.048.102c.027.06.053.12.078.181l.042.099c.035.087.068.175.1.263l.04.124c.017.052.035.105.05.158.015.045.027.09.04.136a6.081 6.081 0 0 1 .112.464l.022.104a6.679 6.679 0 0 1-1.837 5.97zm2.71-10.043a9.028 9.028 0 0 0-.56-.704 8.943 8.943 0 0 0-.394-.425l-.016-.018-.079-.075a9.294 9.294 0 0 0-.258-.244l-.076-.066a9.103 9.103 0 0 0-.279-.24l-.025-.02a9.073 9.073 0 0 0-5.748-2.033 9.074 9.074 0 0 0-5.757 2.04l-.017.013c-.1.083-.2.169-.298.256l-.056.048a9.417 9.417 0 0 0-.648.647l-.097.112c-.066.075-.132.15-.196.228l-.103.13a9.017 9.017 0 0 0-.173.223l-.093.131a8.724 8.724 0 0 0-.166.238l-.078.12a9.03 9.03 0 0 0-.608 1.099l-.005.012a9.104 9.104 0 0 0-.838 3.397H26.343a9.101 9.101 0 0 0-1.025-3.777l-.03-.058a9.146 9.146 0 0 0-.398-.676l-.075-.115a8.738 8.738 0 0 0-.17-.243l-.09-.126a9.75 9.75 0 0 0-.176-.228l-.1-.126a8.903 8.903 0 0 0-.2-.232c-.03-.036-.06-.072-.092-.108a9.083 9.083 0 0 0-6.776-3.005 9.084 9.084 0 0 0-6.776 3.005l-.095.109a9.083 9.083 0 0 0-.198.23l-.101.129c-.04.05-.08.098-.118.148h-4.29v-9.012c0-.982.736-1.803 1.712-1.91l14.89-1.628c.097-.01.193-.007.286.006l.027.006c.199.035.377.12.523.24l.01.01c.046.038.088.08.127.126l.011.014c.078.094.14.2.184.317l.004.01c.021.056.037.115.048.176l.004.022c.01.06.016.122.016.186a3.584 3.584 0 0 0 3.58 3.58h33.896l14.72 1.877a2.718 2.718 0 0 1 2.369 2.69v3.51h-4.824l-.011-.016zm7.876 4.87H74.9a9.208 9.208 0 0 0-.084-.855l-.002-.014a9.114 9.114 0 0 0-.066-.393l-.023-.112a9.041 9.041 0 0 0-.057-.262l-.034-.145a9.533 9.533 0 0 0-.088-.329l-.052-.167-.036-.117h6.747c.094 0 .172.077.172.172v1.927a.295.295 0 0 1-.295.295z"/>
        <path fill="#38315D" d="M65.77 52.173a4.4 4.4 0 0 0-4.395 4.394 4.4 4.4 0 0 0 4.395 4.395 4.4 4.4 0 0 0 4.394-4.395 4.4 4.4 0 0 0-4.394-4.394zm0 6.329a1.937 1.937 0 0 1-1.935-1.934c0-1.067.868-1.935 1.935-1.935 1.066 0 1.934.868 1.934 1.935a1.936 1.936 0 0 1-1.934 1.934zM17.21 52.173a4.4 4.4 0 0 0-4.394 4.394 4.4 4.4 0 0 0 4.395 4.395 4.4 4.4 0 0 0 4.394-4.395 4.4 4.4 0 0 0-4.394-4.394zm0 6.329a1.937 1.937 0 0 1-1.934-1.934c0-1.067.868-1.935 1.935-1.935 1.066 0 1.934.868 1.934 1.935a1.936 1.936 0 0 1-1.934 1.934z"/>
        <path fill="#E57B93" d="M56.365 3.082A10.3 10.3 0 0 0 49.112.12a10.29 10.29 0 0 0-7.194 2.902A10.29 10.29 0 0 0 34.725.12a10.3 10.3 0 0 0-7.254 2.963 10.298 10.298 0 0 0-3.102 7.18 1.23 1.23 0 0 0 1.204 1.256h.026a1.23 1.23 0 0 0 1.23-1.205c.086-4.265 3.629-7.734 7.896-7.734a7.857 7.857 0 0 1 6.224 3.036 1.23 1.23 0 0 0 1.938 0 7.857 7.857 0 0 1 6.225-3.036c4.267 0 7.81 3.47 7.896 7.734a1.23 1.23 0 0 0 1.23 1.205h.026a1.23 1.23 0 0 0 1.204-1.255 10.299 10.299 0 0 0-3.103-7.18zM57.46 14.906a1.23 1.23 0 0 0-1.644.567C52.621 22.032 43.984 26.103 41.917 27c-2.067-.896-10.696-4.955-13.897-11.527a1.23 1.23 0 1 0-2.212 1.078c1.711 3.512 4.874 6.758 9.402 9.648 3.33 2.124 6.142 3.234 6.26 3.28a1.232 1.232 0 0 0 .897 0c.118-.046 2.93-1.156 6.26-3.28 4.527-2.89 7.69-6.136 9.401-9.648a1.23 1.23 0 0 0-.567-1.645z"/>
    </g>
</svg>
