<svg xmlns="http://www.w3.org/2000/svg" width="41" height="41" viewBox="0 0 41 41">
    <g fill="none" fill-rule="evenodd">
        <path fill="#37305C" fill-rule="nonzero" d="M26.32 40.442c.744.744 1.95.744 2.694 0l5.156-5.156h1.116c2.956 0 5.714-2.758 5.714-5.715V18.143c0-2.957-2.758-5.714-5.714-5.714v3.81c.853 0 1.904 1.051 1.904 1.904V29.57c0 .853-1.051 1.905-1.904 1.905H33.38c-.505 0-.99.2-1.347.558l-4.367 4.367-4.368-4.367a1.905 1.905 0 0 0-1.347-.558H12.43c-.853 0-1.905-1.052-1.905-1.905l-3.81-2.857v2.857c0 2.957 2.758 5.715 5.715 5.715h9.105l4.786 5.156z"/>
        <path fill="#DBD6E9" stroke="#37305C" stroke-linejoin="round" stroke-width="2" d="M5.925 19.46l5.157 4.997 1.347 1.305 1.346-1.305 5.157-4.998h8.752c2.086 0 3.792-1.655 3.792-3.686V4.686c0-2.03-1.718-3.686-3.822-3.686H4.823C2.714 1 1 2.646 1 4.686v11.087c0 2.027 1.71 3.686 3.81 3.686h1.115z"/>
    </g>
</svg>
