<?xml version="1.0" encoding="UTF-8"?>
<svg width="35px" height="31px" viewBox="0 0 35 31" version="1.1" xmlns="http://www.w3.org/2000/svg" xmlns:xlink="http://www.w3.org/1999/xlink">
    <!-- Generator: Sketch 50.2 (55047) - http://www.bohemiancoding.com/sketch -->
    <title>circuit</title>
    <desc>Created with Sketch.</desc>
    <defs></defs>
    <g id="Page-1" stroke="none" stroke-width="1" fill="none" fill-rule="evenodd">
        <g id="About" transform="translate(-683.000000, -403.000000)" fill-rule="nonzero">
            <g id="circuit" transform="translate(683.000000, 403.000000)">
                <g id="Group" fill="#38315D">
                    <path d="M31.25,16.9027813 C29.3954844,16.9027813 27.8554219,18.2571562 27.5564531,20.0277812 L25,20.0277812 C22.932125,20.0277812 21.25,21.709 21.25,23.7756406 L21.25,30.6527812 L22.5,30.6527812 L22.5,23.7756406 C22.5,22.398375 23.6215156,21.2777812 25,21.2777812 L27.5564531,21.2777812 C27.8554062,23.0484062 29.3954844,24.4027812 31.25,24.4027812 C33.317875,24.4027812 35,22.7206562 35,20.6527812 C35,18.5849062 33.317875,16.9027813 31.25,16.9027813 Z M31.25,23.1527812 C29.8715156,23.1527812 28.75,22.0312656 28.75,20.6527812 C28.75,19.2742969 29.8715156,18.1527812 31.25,18.1527812 C32.6284844,18.1527812 33.75,19.2742969 33.75,20.6527812 C33.75,22.0312656 32.6284844,23.1527812 31.25,23.1527812 Z" id="Shape"></path>
                    <path d="M14.375,7.52778125 L11.875,7.52778125 C11.875,5.45990625 10.192875,3.77778125 8.125,3.77778125 C6.057125,3.77778125 4.375,5.45990625 4.375,7.52778125 C4.375,9.59565625 6.057125,11.2777812 8.125,11.2777812 C9.7540625,11.2777812 11.1397969,10.2319375 11.6562344,8.77778125 L14.375,8.77778125 C15.7534844,8.77778125 16.875,9.90082812 16.875,11.2814375 L16.875,30.6527812 L18.125,30.6527812 L18.125,11.2814375 C18.125,9.21173437 16.442875,7.52778125 14.375,7.52778125 Z M8.125,10.0277812 C6.74651563,10.0277812 5.625,8.90626562 5.625,7.52778125 C5.625,6.14929687 6.74651563,5.02778125 8.125,5.02778125 C9.50348437,5.02778125 10.625,6.14929687 10.625,7.52778125 C10.625,8.90626562 9.50348437,10.0277812 8.125,10.0277812 Z" id="Shape"></path>
                    <path d="M10,16.9027812 L7.44354687,16.9027812 C7.14459375,15.1321562 5.60451562,13.7777813 3.75,13.7777813 C1.682125,13.7777813 0,15.4599062 0,17.5277812 C0,19.5956562 1.682125,21.2777812 3.75,21.2777812 C5.60451562,21.2777812 7.14457813,19.9234062 7.44354687,18.1527812 L10,18.1527812 C11.3784844,18.1527812 12.5,19.2752187 12.5,20.6549219 L12.5,30.6527812 L13.75,30.6527812 L13.75,20.6549219 C13.75,18.586125 12.067875,16.9027812 10,16.9027812 Z M3.75,20.0277812 C2.37151562,20.0277812 1.25,18.9062656 1.25,17.5277812 C1.25,16.1492969 2.37151562,15.0277812 3.75,15.0277812 C5.12848437,15.0277812 6.25,16.1492969 6.25,17.5277812 C6.25,18.9062656 5.12848437,20.0277812 3.75,20.0277812 Z" id="Shape"></path>
                    <path d="M25.5407656,12.5277813 L27.5564531,12.5277813 C27.8554063,14.2984063 29.3954844,15.6527813 31.25,15.6527813 C33.317875,15.6527813 35,13.9706563 35,11.9027813 C35,9.83490625 33.317875,8.15278125 31.25,8.15278125 C29.3954844,8.15278125 27.8554219,9.50715625 27.5564531,11.2777813 L25.5407656,11.2777813 C24.556875,11.2777813 23.7564063,10.477 23.7564063,9.4925 L23.7564063,0.02778125 L22.5064063,0.02778125 L22.5064063,9.4925 C22.5064063,11.1660937 23.8675,12.5277813 25.5407656,12.5277813 Z M31.25,9.40278125 C32.6284844,9.40278125 33.75,10.5242969 33.75,11.9027812 C33.75,13.2812656 32.6284844,14.4027812 31.25,14.4027812 C29.8715156,14.4027812 28.75,13.2812656 28.75,11.9027812 C28.75,10.5242969 29.8715156,9.40278125 31.25,9.40278125 Z" id="Shape"></path>
                </g>
                <path d="M21.2894375,18.1253125 C21.1294531,18.1253125 20.9695312,18.0643125 20.8474688,17.94225 C20.6034062,17.6981875 20.6034062,17.3024531 20.8474688,17.0583906 L23.0571719,14.8487656 C23.3014687,14.6046562 23.697125,14.6047031 23.9411094,14.8487656 C24.1851719,15.0928281 24.1851719,15.4885625 23.9411094,15.732625 L21.7314062,17.94225 C21.6093438,18.0642812 21.4493594,18.1253125 21.2894375,18.1253125 Z" id="Shape" fill="#E57B93"></path>
                <path d="M23.4991406,18.1250156 C23.3391562,18.1250156 23.1792344,18.0640156 23.0571719,17.9419531 L20.8474688,15.7321719 C20.6034062,15.4881094 20.6034062,15.092375 20.8474688,14.8483125 C21.0917656,14.6042031 21.4874219,14.60425 21.7314062,14.8483125 L23.9411094,17.0580937 C24.1851719,17.3021562 24.1851719,17.6978906 23.9411094,17.9419531 C23.8190469,18.0639687 23.6590625,18.1250156 23.4991406,18.1250156 Z" id="Shape" fill="#E57B93"></path>
                <path d="M5.9769375,30.0003125 C4.77073437,30.0003125 3.7894375,29.0190156 3.7894375,27.8128125 C3.7894375,26.6066094 4.77073437,25.6253125 5.9769375,25.6253125 C7.18314062,25.6253125 8.1644375,26.6066094 8.1644375,27.8128125 C8.1644375,29.0190156 7.18315625,30.0003125 5.9769375,30.0003125 Z M5.9769375,26.8753125 C5.45996875,26.8753125 5.0394375,27.2958906 5.0394375,27.8128125 C5.0394375,28.3297344 5.45996875,28.7503125 5.9769375,28.7503125 C6.49390625,28.7503125 6.9144375,28.3297344 6.9144375,27.8128125 C6.9144375,27.2958906 6.49390625,26.8753125 5.9769375,26.8753125 Z" id="Shape" fill="#E57B93"></path>
                <path d="M19.3071719,4.78546875 C19.1471875,4.78546875 18.9872656,4.72446875 18.8652031,4.60240625 L17.0974687,2.83467187 C16.8534062,2.59060937 16.8534062,2.194875 17.0974687,1.9508125 L18.8652031,0.183078125 C19.1093437,-0.060984375 19.5050781,-0.0610625 19.7490625,0.183078125 L21.516875,1.9508125 C21.6341406,2.068 21.6999844,2.227 21.6999844,2.39275 C21.6999844,2.5585 21.6341406,2.7175 21.516875,2.8346875 L19.7490625,4.60242187 C19.6270781,4.7244375 19.4670937,4.78546875 19.3071719,4.78546875 Z M18.4233125,2.39273437 L19.3071719,3.27659375 L20.1911094,2.39273437 L19.3071719,1.508875 L18.4233125,2.39273437 Z" id="Shape" fill="#E57B93"></path>
            </g>
        </g>
    </g>
</svg>