<svg xmlns="http://www.w3.org/2000/svg" width="35" height="33" viewBox="0 0 35 33">
    <g fill="none" fill-rule="nonzero">
        <path fill="#38315D" d="M33.684 23.595l1.255-.71a8.688 8.688 0 0 0-.355-1.392h-1.446l-.792-1.392.737-1.255a7.06 7.06 0 0 0-1.01-1.01l-1.256.71-1.392-.82V16.28c-.027 0-.054-.027-.109-.027a9.88 9.88 0 0 0-1.283-.355l-.737 1.255h-1.61l-.71-1.255a8.688 8.688 0 0 0-1.392.355v1.446l-1.392.792-1.256-.737c-.355.3-.71.628-1.01 1.01l.71 1.256-.819 1.392H18.37c-.163.464-.3.9-.382 1.364l1.256.737v1.61l-1.256.71c.082.465.191.929.355 1.393h1.447l.791 1.392-.737 1.255c.3.355.628.71 1.01 1.01l1.256-.71 1.392.82v1.446c.027 0 .055.028.11.028.409.136.845.272 1.282.354l.737-1.255h1.61l.71 1.255a8.688 8.688 0 0 0 1.393-.354V31.02l1.392-.792 1.255.737c.355-.3.71-.628 1.01-1.01l-.71-1.255.82-1.392h1.446c.164-.464.3-.901.382-1.365l-1.255-.737v-1.61zm-7.207 5.514c-2.62 0-4.776-2.129-4.776-4.75 0-2.62 2.129-4.776 4.776-4.776 2.62 0 4.777 2.129 4.777 4.75 0 2.62-2.156 4.776-4.777 4.776z"/>
        <path fill="#E8889E" d="M19.053 15.597c0-.518-.027-1.064-.11-1.583l-1.555-.327-.573-1.693 1.064-1.2a8.422 8.422 0 0 0-.873-1.31l-1.529.518-1.337-1.174.327-1.583a9.843 9.843 0 0 0-1.42-.71L12.01 7.736l-1.746-.355-.52-1.528c-.518 0-1.064.027-1.582.109l-.328 1.556-1.692.573L4.94 7.026c-.464.246-.901.546-1.31.874l.518 1.529-1.174 1.337-1.583-.328a9.843 9.843 0 0 0-.71 1.42l1.202 1.064-.355 1.747L0 15.161c0 .518.027 1.064.11 1.583l1.582.327.574 1.693-1.065 1.2c.246.465.546.902.873 1.311l1.53-.519L4.94 21.93l-.355 1.583c.464.273.928.519 1.42.71l1.064-1.201 1.747.355.518 1.528c.519 0 1.065-.027 1.583-.109l.328-1.556 1.692-.573 1.201 1.065c.464-.246.901-.546 1.31-.874l-.518-1.528 1.174-1.338 1.583.328c.273-.464.518-.928.71-1.42l-1.201-1.064.354-1.747 1.502-.492zm-9.527 5.05a5.3 5.3 0 0 1-5.295-5.295 5.3 5.3 0 0 1 5.295-5.296 5.3 5.3 0 0 1 5.296 5.296 5.3 5.3 0 0 1-5.296 5.295z"/>
        <path fill="#38315D" d="M31.664 7.627l1.146-.464a9.477 9.477 0 0 0-.164-1.228l-1.228-.164-.519-1.283.765-.983a6.592 6.592 0 0 0-.737-.982l-1.147.464-1.092-.847.164-1.228-.082-.054C28.415.694 28.06.53 27.706.42l-.765.982-1.364-.19-.464-1.174c-.41.027-.82.054-1.229.136l-.163 1.228-1.31.546-.983-.764a6.592 6.592 0 0 0-.983.737l.464 1.146-.846 1.092-1.228-.163a7.243 7.243 0 0 0-.492 1.146l.983.764-.191 1.365-1.147.464c.028.41.082.819.164 1.229l1.228.163.519 1.283-.764.983c.218.355.464.682.737.982l1.146-.464 1.092.847-.164 1.228.082.055c.355.163.71.327 1.065.436l.764-.982 1.365.19.464 1.147c.41-.027.819-.054 1.228-.163l.164-1.229 1.283-.518.983.764c.354-.219.682-.464.982-.737l-.464-1.147.846-1.091 1.229.163c.19-.355.354-.737.491-1.146l-.983-.764.219-1.338zm-6.251 4.04a4.217 4.217 0 0 1-4.231-4.231 4.217 4.217 0 0 1 4.23-4.231 4.217 4.217 0 0 1 4.232 4.23 4.217 4.217 0 0 1-4.231 4.232z"/>
    </g>
</svg>
