<svg xmlns="http://www.w3.org/2000/svg" width="30" height="29" viewBox="0 0 30 29">
    <g fill="#FFF" fill-rule="nonzero">
        <path d="M28.889 20.823l1.111-.63a7.71 7.71 0 0 0-.314-1.233h-1.28l-.7-1.234.651-1.113a6.253 6.253 0 0 0-.893-.895l-1.111.629-1.232-.726v-1.282c-.024 0-.049-.024-.097-.024A8.731 8.731 0 0 0 23.89 14l-.652 1.113h-1.425L21.184 14c-.411.073-.822.17-1.232.315v1.282l-1.232.701-1.111-.653a6.253 6.253 0 0 0-.894.895l.628 1.113-.725 1.234h-1.28a7.55 7.55 0 0 0-.338 1.21l1.111.653v1.427l-1.111.63c.072.41.17.822.314 1.233h1.28l.7 1.234-.651 1.113c.265.315.555.63.893.895l1.111-.629 1.232.726v1.282c.024 0 .049.024.097.024.362.121.749.242 1.135.315l.652-1.113h1.425L23.816 29c.411-.073.822-.17 1.232-.315v-1.282l1.232-.701 1.111.653c.314-.266.628-.557.894-.895l-.628-1.113.725-1.234h1.28a7.55 7.55 0 0 0 .338-1.21l-1.111-.653v-1.427zm-6.377 4.887c-2.319 0-4.227-1.887-4.227-4.21a4.235 4.235 0 0 1 4.227-4.234c2.319 0 4.227 1.887 4.227 4.21 0 2.322-1.908 4.234-4.227 4.234zM16 13.183c0-.435-.023-.894-.092-1.33l-1.306-.274-.482-1.421.894-1.009a7.073 7.073 0 0 0-.733-1.1l-1.284.435-1.123-.985.275-1.33c-.39-.23-.78-.435-1.192-.596l-.871 1.009-1.467-.298L8.183 5c-.435 0-.893.023-1.329.092l-.275 1.306-1.421.482-1.009-.894c-.39.206-.756.458-1.1.733l.435 1.284L2.5 9.126l-1.33-.275c-.229.39-.435.78-.596 1.192l1.009.894-.298 1.467L0 12.817c0 .435.023.894.092 1.33l1.33.274.48 1.421-.893 1.009c.206.39.458.756.733 1.1l1.284-.435 1.123.985-.298 1.33c.39.23.78.435 1.192.596l.894-1.009 1.467.298L7.839 21c.436 0 .894-.023 1.33-.092l.275-1.306 1.421-.482 1.009.894c.39-.206.756-.458 1.1-.733l-.435-1.284.985-1.123 1.33.275c.229-.39.435-.78.596-1.192l-1.009-.894.298-1.467L16 13.183zm-8 4.241a4.451 4.451 0 0 1-4.447-4.447A4.451 4.451 0 0 1 8 8.53a4.451 4.451 0 0 1 4.447 4.447A4.451 4.451 0 0 1 8 17.424zM26.994 6.668L28 6.26a8.342 8.342 0 0 0-.144-1.08l-1.077-.143-.455-1.127.67-.864a5.791 5.791 0 0 0-.646-.863l-1.005.407-.958-.743.144-1.08-.072-.047a7.67 7.67 0 0 0-.934-.384l-.67.863-1.197-.168L21.249 0c-.36.024-.719.048-1.078.12l-.143 1.08-1.15.479-.861-.672a5.782 5.782 0 0 0-.862.648l.407 1.007-.742.96-1.078-.144a6.37 6.37 0 0 0-.43 1.007l.861.672-.167 1.2L15 6.763c.024.36.072.72.144 1.08l1.077.143.455 1.127-.67.864c.191.312.406.6.646.863l1.005-.407.958.743-.144 1.08.072.047c.312.144.623.288.934.384l.67-.863 1.197.168.407 1.007c.36-.024.719-.048 1.078-.144l.143-1.08 1.126-.455.861.672c.312-.192.599-.408.862-.648l-.407-1.007.742-.96 1.078.144a6.37 6.37 0 0 0 .43-1.007l-.861-.672.191-1.175zm-5.482 3.55a3.702 3.702 0 0 1-3.71-3.718 3.702 3.702 0 0 1 3.71-3.718 3.702 3.702 0 0 1 3.71 3.718 3.702 3.702 0 0 1-3.71 3.718z"/>
    </g>
</svg>
