<svg xmlns="http://www.w3.org/2000/svg" width="80" height="27" viewBox="0 0 80 27">
    <g fill="none" fill-rule="evenodd" transform="translate(1 1)">
        <path fill="#FFF" d="M53.926 17.728l-.571.535c-.132.072-.263.156-.393.215-.397.179-.8.224-1.158.224-.38 0-.978-.025-1.587-.463-.847-.593-1.217-1.611-1.217-2.5C49 13.903 50.506 13 51.733 13c.43 0 .87.107 1.229.332.596.391.75.9.836 1.174l-2.805 1.126-.918.07c.297 1.508 1.323 2.384 2.456 2.384.567 0 .987-.183 1.373-.373 0 0 .077-.04.022.015zm-1.692-2.998c.228-.082.346-.153.346-.318 0-.474-.54-1.02-1.183-1.02-.476 0-1.37.368-1.37 1.649 0 .2.023.413.035.626l2.172-.937z"/>
        <path fill="#FFF" d="M48.069 17.482c0 .46.082.532.474.568.205.024.408.035.61.058l-.441.262H46.61c.275-.356.323-.391.323-.628v-.265l-.005-7.05H46l.893-.427H48.6c-.37.213-.48.343-.528.757l-.002 6.725zM44.449 13.429c.273.224.845.698.845 1.6 0 .878-.498 1.292-1 1.683-.154.155-.334.322-.334.58 0 .263.18.405.31.511l.43.33c.525.44 1.002.843 1.002 1.662 0 1.115-1.086 2.24-3.138 2.24-1.728 0-2.564-.818-2.564-1.696 0-.427.214-1.032.92-1.445.739-.45 1.741-.51 2.277-.545-.167-.215-.358-.44-.358-.808 0-.2.06-.32.119-.462-.13.012-.262.025-.381.025-1.266 0-1.981-.938-1.981-1.863 0-.545.25-1.15.764-1.589.68-.556 1.491-.652 2.136-.652h2.458l-.764.429h-.741zm-.846 5.264c-.097-.013-.156-.013-.274-.013-.108 0-.753.023-1.252.19-.264.096-1.027.38-1.027 1.222 0 .84.824 1.446 2.099 1.446 1.145 0 1.753-.546 1.753-1.28 0-.605-.394-.924-1.299-1.565zm.343-2.253c.276-.274.3-.652.3-.867 0-.852-.511-2.18-1.503-2.18-.31 0-.644.154-.835.392-.201.247-.261.568-.261.876 0 .794.465 2.11 1.49 2.11.299 0 .62-.144.81-.331zM36.91 18.677c-1.895 0-2.91-1.467-2.91-2.796C34 14.328 35.275 13 37.09 13c1.753 0 2.851 1.365 2.851 2.797 0 1.4-1.085 2.88-3.03 2.88zm1.492-.959c.289-.38.359-.853.359-1.314 0-1.045-.5-3.036-1.98-3.036-.394 0-.79.153-1.075.403-.466.414-.55.936-.55 1.447 0 1.171.583 3.104 2.029 3.104.467 0 .943-.225 1.217-.604zM30.91 18.677c-1.897 0-2.91-1.467-2.91-2.796C28 14.328 29.276 13 31.09 13c1.752 0 2.849 1.365 2.849 2.797 0 1.4-1.084 2.88-3.03 2.88zm1.492-.959c.286-.38.357-.853.357-1.314 0-1.045-.502-3.036-1.98-3.036a1.66 1.66 0 0 0-1.073.403c-.466.414-.549.936-.549 1.447 0 1.171.585 3.104 2.028 3.104a1.53 1.53 0 0 0 1.217-.604zM26.705 18.625l-1.6.364c-.647.101-1.229.19-1.845.19-3.085 0-4.26-2.256-4.26-4.022C19 13 20.665 11 23.517 11a6.59 6.59 0 0 1 1.713.231c.838.235 1.23.523 1.475.692l-.929.877-.392.087.28-.443c-.379-.367-1.074-1.045-2.394-1.045-1.764 0-3.095 1.334-3.095 3.28 0 2.09 1.52 4.056 3.957 4.056.716 0 1.085-.143 1.42-.277v-1.791l-1.689.09.895-.478h2.37l-.29.277c-.078.066-.088.089-.11.177a7.9 7.9 0 0 0-.023.537v1.355zM56.603 17.804v3.02H56v-7.685h.603v.875A2.402 2.402 0 0 1 58.55 13c1.496 0 2.504 1.128 2.504 2.914 0 1.774-1.008 2.926-2.504 2.926-.788 0-1.493-.404-1.946-1.036zm3.802-1.89c0-1.346-.706-2.372-1.958-2.372-.777 0-1.52.607-1.844 1.136v2.46c.323.53 1.067 1.16 1.844 1.16 1.252 0 1.958-1.035 1.958-2.384zM62 18.684V11h.603v7.684H62zM69.591 20.188c.13.057.35.092.49.092.368 0 .625-.15.856-.68l.44-.991L69 13h.673l2.039 4.86 2.02-4.86h.682l-2.9 6.786c-.3.699-.773 1.035-1.423 1.035-.196 0-.453-.035-.604-.08l.104-.553zM68.073 18.687c-.04-.193-.07-.363-.093-.505a3.304 3.304 0 0 1-.03-.434c-.206.302-.5.553-.874.751a2.42 2.42 0 0 1-1.218.297c-.588 0-1.044-.143-1.37-.435-.325-.291-.488-.686-.488-1.185s.236-.904.708-1.213c.472-.311 1.081-.465 1.835-.465h1.408v-.692c0-.398-.137-.71-.41-.938-.273-.227-.657-.342-1.155-.342-.455 0-.824.105-1.105.31-.279.208-.418.467-.418.778h-.618l-.013-.03c-.022-.42.171-.788.582-1.106.41-.318.946-.478 1.606-.478.657 0 1.19.157 1.591.472.401.31.602.76.602 1.347v2.745a3.606 3.606 0 0 0 .154 1.124h-.694v-.001zm-2.141-.437c.512 0 .88-.114 1.258-.34.374-.224.628-.516.761-.87v-1.067h-1.414c-.54 0-.987.119-1.339.359-.352.238-.531.528-.531.864 0 .317.113.57.338.763.225.194.534.29.927.29zM19 4.94C19 3.76 19.883 3 20.98 3c.736 0 1.217.349 1.517.776l-.538.31a1.22 1.22 0 0 0-.978-.501c-.747 0-1.302.563-1.302 1.355 0 .782.555 1.355 1.302 1.355.385 0 .724-.174.894-.337v-.58h-1.132V4.8h1.788v1.4c-.368.41-.9.686-1.55.686-1.098 0-1.981-.77-1.981-1.946zM24 6.751V3h2.585v.58h-1.923v.967h1.884v.579h-1.884v1.046h1.923v.58H24zM28.143 6.751V3.579H27V3h2.948v.58h-1.143V6.75zM32 6.751V3h.662v3.751zM35.143 6.751V3.579H34V3h2.948v.58h-1.143V6.75zM39 4.94C39 3.82 39.798 3 40.93 3c1.125 0 1.929.821 1.929 1.94 0 1.12-.804 1.94-1.93 1.94C39.798 6.88 39 6.06 39 4.94zm3.18 0c0-.776-.492-1.355-1.25-1.355-.764 0-1.25.579-1.25 1.355 0 .77.486 1.355 1.25 1.355.758 0 1.25-.585 1.25-1.355zM45.63 6.751L43.663 4.07V6.75H43V3h.68l1.928 2.599V3h.662v3.751zM5.36 21.203c-.218-.059-.36-.274-.36-.607V9.593c0-.31.12-.517.31-.593l5.423 6.132-5.374 6.07zm.746-.234l6.527-3.689-1.59-1.797-4.937 5.486zm6.572-8.035L6.242 9.296l4.81 5.474 1.626-1.836zm.436.247l2.522 1.425c.477.27.481.705 0 .977l-2.585 1.461-1.687-1.918 1.75-1.945z"/>
        <rect width="79" height="26" x="-.5" y="-.5" stroke="#FFF" rx="2"/>
    </g>
</svg>
