<svg xmlns="http://www.w3.org/2000/svg" width="70" height="64" viewBox="0 0 70 64">
    <g fill="none" fill-rule="evenodd">
        <path fill="#38315D" fill-rule="nonzero" d="M63.13 6.709C55.512-.91 43.744-1.812 35.17 3.313 26.244-2.017 13.96-.638 6.613 6.71c-8.809 8.809-8.823 23.07-.01 31.894a.413.413 0 0 0 .01.011l5.794 5.793.007.008a6.107 6.107 0 0 0 4.012 1.793 6.127 6.127 0 0 0 1.79 4.008 6.128 6.128 0 0 0 4.01 1.789 6.127 6.127 0 0 0 1.79 4.012 6.127 6.127 0 0 0 4.012 1.789 6.149 6.149 0 0 0 10.427 4.074l6.743-5.753a2.06 2.06 0 0 0 .119-.11 6.128 6.128 0 0 0 1.788-4.009 6.107 6.107 0 0 0 4.013-1.792c1.101-1.102 1.8-2.519 1.98-4.005a6.13 6.13 0 0 0 4.23-1.796 6.128 6.128 0 0 0 1.79-4.008 6.107 6.107 0 0 0 4.01-1.792h.002c9.168-9.168 9.152-22.754 0-31.906zM18.215 41.515c-.8.8-2.095.802-2.898.002l-.002-.002-.005-.005a2.053 2.053 0 0 1-.05-2.84l5.865-4.88a2.08 2.08 0 0 0 .138-.127c.8-.8 2.101-.8 2.9 0 .68.678.781 1.717.31 2.504l-6.139 5.238a2.01 2.01 0 0 0-.119.11zm5.801 5.8c-.8.8-2.1.8-2.9 0a2.053 2.053 0 0 1-.052-2.845c6.437-5.358 5.59-4.597 6.85-5.856.8-.8 2.1-.8 2.9 0 .784.784.8 2.05.047 2.852l-6.726 5.74c-.04.035-.08.071-.119.11zm5.801 5.802c-.8.8-2.1.8-2.9 0a2.053 2.053 0 0 1-.047-2.852l6.726-5.74a2.01 2.01 0 0 0 .119-.11 2.05 2.05 0 1 1 2.947 2.852l-6.726 5.74a2.01 2.01 0 0 0-.119.11zm12.646-.049l-6.726 5.74a2.01 2.01 0 0 0-.119.11 2.05 2.05 0 0 1-2.947-2.853l6.726-5.74a2.01 2.01 0 0 0 .12-.109c.799-.8 2.1-.8 2.9 0 .783.784.799 2.05.046 2.852zM63.13 29.913C56.03 22.81 51.494 18.686 45.317 12.51l-.001-.001a2.054 2.054 0 0 0-2.586-.256L28.4 21.807a2.456 2.456 0 0 1-3.1-3.782l8.414-8.415c7.186-7.186 19.328-7.186 26.515 0 5.803 5.804 7.399 13.98 3.633 21.19a6.154 6.154 0 0 0-.733-.886z"/>
        <path fill="#DBD6E9" stroke="#3A3060" d="M60.23 35.714a2.05 2.05 0 0 1-2.901 0L45.727 24.112a2.051 2.051 0 0 0-2.9 2.9l11.602 11.602a2.05 2.05 0 0 1 0 2.9c-.8.8-2.101.8-2.901 0L39.925 29.913a2.051 2.051 0 0 0-2.9 2.9l11.602 11.602c.768.769.38 2.11-.41 2.9a2.05 2.05 0 0 1-2.9 0c-.002 0-.003 0-.004-.002a6.107 6.107 0 0 0-4.01-1.79 6.127 6.127 0 0 0-1.788-4.008 6.128 6.128 0 0 0-4.012-1.79 6.142 6.142 0 0 0-6.751-5.779 6.118 6.118 0 0 0-1.689-3.183 6.16 6.16 0 0 0-8.628-.073l-5.884 4.898c-.048.04-.094.082-.138.126a6.124 6.124 0 0 0-1.2 1.7l-1.7-1.7a18.338 18.338 0 0 1-5.407-13.052c0-4.93 1.92-9.566 5.407-13.053 5.544-5.543 14.889-6.916 22.018-3.585-.243.223-.483.45-.717.685L22.4 15.123a6.555 6.555 0 0 0 0 9.276 6.577 6.577 0 0 0 8.277.82l12.932-8.621c5.617 5.571 10.01 9.605 16.62 16.215.8.8.8 2.101 0 2.9z"/>
    </g>
</svg>
