<svg xmlns="http://www.w3.org/2000/svg" width="127" height="105" viewBox="0 0 127 105">
    <g fill="none" fill-rule="evenodd">
        <path fill="#F4EBEE" d="M25 48C5.62 25.319 11.62 9.985 43 2c47.07-11.978 82 34 83 54s6.057 21.016-32 30c-38.057 8.984-26.933 2.025-72 16-30.045 9.316-29.045-8.684 3-54z"/>
        <g fill-rule="nonzero">
            <path fill="#E57B93" d="M78.712 13.286A7.782 7.782 0 0 0 73.18 11c-1.71 0-3.334.543-4.677 1.546A7.785 7.785 0 0 0 63.822 11c-2.09 0-4.056.812-5.534 2.286-3.05 3.041-3.05 7.99 0 11.034l9.358 9.327a1.209 1.209 0 0 0 1.711 0l9.355-9.327c3.05-3.043 3.05-7.993 0-11.034zm-1.711 9.328l-8.5 8.474L60 22.614a5.385 5.385 0 0 1 0-7.622 5.376 5.376 0 0 1 3.822-1.58c1.444 0 2.803.562 3.824 1.58a1.212 1.212 0 0 0 1.712 0 5.37 5.37 0 0 1 3.82-1.58c1.445 0 2.802.561 3.823 1.58a5.385 5.385 0 0 1 0 7.622z"/>
            <path fill="#38315D" d="M84.162 35a23.553 23.553 0 0 0-16.172 6.366C63.74 37.416 58.065 35 51.838 35 38.694 35 28 45.766 28 59s10.694 24 23.838 24c6.06 0 11.757-2.252 16.172-6.366C72.26 80.584 77.935 83 84.162 83 97.306 83 108 72.234 108 59S97.306 35 84.162 35zM51.838 80.559c-11.807 0-21.414-9.671-21.414-21.559 0-11.888 9.607-21.56 21.414-21.56 11.808 0 21.414 9.672 21.414 21.56 0 3.79-.972 7.46-2.824 10.71-.37-.481-.716-.978-1.033-1.493a19.892 19.892 0 0 0 1.566-4.04c.449-1.68.675-3.423.675-5.177 0-2.69-.524-5.3-1.556-7.758a19.851 19.851 0 0 0-3.775-5.847l-.02-.022a19.721 19.721 0 0 0-6.74-4.738 19.55 19.55 0 0 0-7.707-1.567 19.602 19.602 0 0 0-9.238 2.3 19.717 19.717 0 0 0-3.824 2.653 20.01 20.01 0 0 0-3.098 3.46c-.187.268-.26.59-.205.912a1.213 1.213 0 0 0 1.193 1.015c.392 0 .762-.192.99-.514a17.574 17.574 0 0 1 6.076-5.37 17.202 17.202 0 0 1 8.106-2.015c2.347 0 4.622.462 6.762 1.373a17.31 17.31 0 0 1 5.275 3.51A23.999 23.999 0 0 0 60.323 59c0 4.62 1.304 8.937 3.56 12.603a17.324 17.324 0 0 1-5.005 3.393 17.155 17.155 0 0 1-7.04 1.495 17.243 17.243 0 0 1-10.67-3.687 17.537 17.537 0 0 1-3.552-3.753A17.466 17.466 0 0 1 34.465 59c0-2.094.363-4.143 1.08-6.087a1.224 1.224 0 0 0-1.137-1.645c-.503 0-.96.319-1.136.795A19.977 19.977 0 0 0 32.04 59a19.906 19.906 0 0 0 3.593 11.451 19.914 19.914 0 0 0 4.047 4.28 19.654 19.654 0 0 0 12.158 4.201l.004-.008v.008c2.79 0 5.488-.575 8.02-1.705a19.81 19.81 0 0 0 5.419-3.594c.33.43.674.85 1.031 1.256a21.157 21.157 0 0 1-14.474 5.67zM69.212 59c0 1.543-.199 3.072-.591 4.545-.171.64-.38 1.269-.623 1.885a17.49 17.49 0 0 1-1.21-6.43c0-1.542.199-3.072.591-4.546.171-.64.38-1.267.622-1.883a17.477 17.477 0 0 1 1.211 6.43zm14.95 21.56c-11.808 0-21.415-9.672-21.415-21.56 0-3.789.973-7.46 2.825-10.71.37.48.715.978 1.032 1.492A19.95 19.95 0 0 0 64.364 59c0 2.692.523 5.301 1.556 7.758a19.85 19.85 0 0 0 3.782 5.855 20.55 20.55 0 0 0 .46.481 19.721 19.721 0 0 0 6.294 4.272 19.553 19.553 0 0 0 7.707 1.567 19.607 19.607 0 0 0 9.236-2.3 19.861 19.861 0 0 0 3.824-2.653 20.01 20.01 0 0 0 3.099-3.461 1.228 1.228 0 0 0-.288-1.702 1.208 1.208 0 0 0-1.69.29 17.58 17.58 0 0 1-6.077 5.37 17.165 17.165 0 0 1-8.105 2.015c-2.347 0-4.623-.464-6.764-1.375a17.332 17.332 0 0 1-5.273-3.51A23.997 23.997 0 0 0 75.677 59c0-4.62-1.305-8.938-3.56-12.603a17.454 17.454 0 0 1 5.005-3.394 17.162 17.162 0 0 1 7.04-1.494 17.217 17.217 0 0 1 6.17 1.134l.003.002c1.621.621 3.14 1.483 4.513 2.562a17.533 17.533 0 0 1 3.542 3.754 17.44 17.44 0 0 1 3.145 10.04c0 2.094-.363 4.142-1.08 6.087-.112.305-.101.636.035.932a1.2 1.2 0 0 0 1.1.713c.504 0 .962-.32 1.138-.796A19.996 19.996 0 0 0 103.96 59a19.915 19.915 0 0 0-3.593-11.453 19.898 19.898 0 0 0-9.2-7.195 19.601 19.601 0 0 0-7.005-1.284h-.002c-2.79 0-5.488.573-8.021 1.705a19.578 19.578 0 0 0-3.467 1.994 19.93 19.93 0 0 0-1.953 1.6c-.33-.43-.674-.85-1.031-1.256a21.156 21.156 0 0 1 14.474-5.67c11.807 0 21.414 9.671 21.414 21.559 0 11.888-9.607 21.56-21.414 21.56z"/>
        </g>
    </g>
</svg>
