<?xml version="1.0" encoding="UTF-8"?>
<svg width="35px" height="33px" viewBox="0 0 35 33" version="1.1" xmlns="http://www.w3.org/2000/svg" xmlns:xlink="http://www.w3.org/1999/xlink">
    <!-- Generator: Sketch 50.2 (55047) - http://www.bohemiancoding.com/sketch -->
    <title>gear</title>
    <desc>Created with Sketch.</desc>
    <defs></defs>
    <g id="Page-1" stroke="none" stroke-width="1" fill="none" fill-rule="evenodd">
        <g id="Landing-Page" transform="translate(-224.000000, -1858.000000)" fill="#E8889E" fill-rule="nonzero">
            <g id="gear" transform="translate(224.000000, 1858.000000)">
                <path d="M33.6835842,23.5952673 L34.9392178,22.8855644 C34.857297,22.4215545 34.7481386,21.9574752 34.5843663,21.4934653 L33.1376535,21.4934653 L32.3460297,20.1013663 L33.0830396,18.8457327 C32.782802,18.4908812 32.4552574,18.1360297 32.073099,17.8357921 L30.8174653,18.545495 L29.4253663,17.7266337 L29.4253663,16.2799208 C29.3980594,16.2799208 29.3707525,16.2526139 29.3162079,16.2526139 C28.9067426,16.1161485 28.4700396,15.9796832 28.0332673,15.8977624 L27.2962574,17.153396 L25.6857723,17.153396 L24.9760693,15.8977624 C24.5120594,15.9796832 24.0479802,16.0888416 23.5839703,16.2526139 L23.5839703,17.6993267 L22.1918713,18.4909505 L20.9362376,17.7539406 C20.5813861,18.0541782 20.2265347,18.3817228 19.926297,18.7638812 L20.636,20.0195149 L19.8171386,21.4116139 L18.3704257,21.4116139 C18.2066535,21.8756238 18.0701881,22.312396 17.9882673,22.7764059 L19.243901,23.5134158 L19.243901,25.123901 L17.9882673,25.833604 C18.0701881,26.2976139 18.1793465,26.7616931 18.3431188,27.225703 L19.7898317,27.225703 L20.5814554,28.617802 L19.8444455,29.8734356 C20.1446832,30.2282871 20.4722277,30.5831386 20.8543861,30.8833762 L22.1100198,30.1736733 L23.5021188,30.9925347 L23.5021188,32.4392475 C23.5294257,32.4392475 23.5567327,32.4665545 23.6112772,32.4665545 C24.0207426,32.6030198 24.4574455,32.7394851 24.8942178,32.8214059 L25.6312277,31.5657723 L27.2417129,31.5657723 L27.9514158,32.8214059 C28.4154257,32.7394851 28.879505,32.6303267 29.3435149,32.4665545 L29.3435149,31.0198416 L30.7356139,30.2282178 L31.9912475,30.9652277 C32.346099,30.6649901 32.7009505,30.3374455 33.0011881,29.9552871 L32.2914851,28.6996535 L33.1103465,27.3075545 L34.5570594,27.3075545 C34.7208317,26.8435446 34.857297,26.4067723 34.9392178,25.9427624 L33.6835842,25.2057525 L33.6835842,23.5952673 Z M26.477396,29.1091188 C23.8569703,29.1091188 21.7005545,26.9800099 21.7005545,24.3595842 C21.7005545,21.7391584 23.8296634,19.5827426 26.477396,19.5827426 C29.0978218,19.5827426 31.2542376,21.7118515 31.2542376,24.3322772 C31.2542376,26.952703 29.0978218,29.1091188 26.477396,29.1091188 Z" id="Shape"></path>
                <path d="M19.0528218,15.5974554 C19.0528218,15.0788317 19.0255149,14.532901 18.9436634,14.0142772 L17.3877921,13.6867327 L16.8145545,11.994396 L17.8791089,10.7933762 C17.6334158,10.3293663 17.3331782,9.89259406 17.0056337,9.48312871 L15.4770693,10.0017525 L14.1395842,8.8280396 L14.4671287,7.24486139 C14.0031188,6.97193069 13.5390396,6.72623762 13.0477228,6.53515842 L12.0104752,7.73617822 L10.2635248,7.38132673 L9.74490099,5.85276238 C9.22627723,5.85276238 8.68034653,5.88006931 8.16172277,5.96192079 L7.83417822,7.51779208 L6.14184158,8.0910297 L4.94082178,7.02647525 C4.47681188,7.27216832 4.0400396,7.57240594 3.63057426,7.8999505 L4.14919802,9.42851485 L2.97548515,10.766 L1.39230693,10.4384554 C1.11937624,10.9024653 0.873683168,11.3665446 0.68260396,11.8578614 L1.88362376,12.9224158 L1.52877228,14.6693663 L0,15.1607525 C0,15.6793762 0.0273069307,16.2253069 0.109158416,16.7439307 L1.69233663,17.0714752 L2.26557426,18.7638119 L1.2010198,19.9648317 C1.44671287,20.4288416 1.7469505,20.8656139 2.07449505,21.2750792 L3.60305941,20.7564554 L4.94054455,21.9301683 L4.58569307,23.5133465 C5.04970297,23.7862772 5.51378218,24.0319703 6.00509901,24.2230495 L7.06965347,23.0220297 L8.81660396,23.3768812 L9.33522772,24.9054455 C9.85385149,24.9054455 10.3997822,24.8781386 10.9184059,24.7962871 L11.2459505,23.2404158 L12.9382871,22.6671782 L14.1393069,23.7317327 C14.6033168,23.4860396 15.0400891,23.185802 15.4495545,22.8582574 L14.9309307,21.3296931 L16.1046436,19.9922079 L17.6878218,20.3197525 C17.9607525,19.8557426 18.2064455,19.3916634 18.3975248,18.9003465 L17.196505,17.8357921 L17.5513564,16.0888416 L19.0528218,15.5974554 Z M9.52637624,20.647297 C6.60564356,20.647297 4.23091089,18.272495 4.23091089,15.3518317 C4.23091089,12.4311683 6.60571287,10.0563663 9.52637624,10.0563663 C12.4470396,10.0563663 14.8218416,12.4311683 14.8218416,15.3518317 C14.8218416,18.272495 12.4471089,20.647297 9.52637624,20.647297 Z" id="Shape"></path>
                <path d="M31.663703,7.6269505 L32.8101782,7.16294059 C32.7828713,6.75347525 32.7282574,6.34407921 32.6464059,5.93461386 L31.4180792,5.77084158 L30.8994554,4.48790099 L31.6637723,3.50526733 C31.4453861,3.15041584 31.1997624,2.82287129 30.9267624,2.52263366 L29.7802871,2.98664356 L28.6884257,2.14047525 L28.852198,0.912148515 L28.7702772,0.857534653 C28.4154257,0.693762376 28.0605743,0.529990099 27.7057228,0.420762376 L26.9414059,1.40339604 L25.5766139,1.21231683 L25.112604,0.0386039604 C24.7031386,0.0659108911 24.2937426,0.0932178218 23.8842772,0.175069307 L23.720505,1.40339604 L22.4102574,1.94932673 L21.4276238,1.1850099 C21.0727723,1.40339604 20.7452277,1.6490198 20.4449901,1.9220198 L20.909,3.06849505 L20.0628317,4.16035644 L18.834505,3.99658416 C18.6434257,4.35143564 18.4796535,4.73359406 18.3431881,5.14305941 L19.3258218,5.90737624 L19.1347426,7.27216832 L17.9882673,7.73617822 C18.0155743,8.14564356 18.0701881,8.5550396 18.1520396,8.96450495 L19.3803663,9.12827723 L19.8989901,10.4112178 L19.1346733,11.3938515 C19.3530594,11.748703 19.5986832,12.0762475 19.8716832,12.3764851 L21.0181584,11.9124752 L22.1100198,12.7586436 L21.9462475,13.9869703 L22.0281683,14.0415842 C22.3830198,14.2053564 22.7378713,14.3691287 23.0927228,14.4783564 L23.8570396,13.4957228 L25.2218317,13.686802 L25.6858416,14.8332772 C26.0953069,14.8059703 26.504703,14.7786634 26.9141683,14.669505 L27.0779406,13.4411782 L28.3608812,12.9225545 L29.3435149,13.6868713 C29.6983663,13.4684851 30.0259109,13.2228614 30.3261485,12.9498614 L29.8621386,11.8033861 L30.7083069,10.7115248 L31.9366337,10.875297 C32.1277129,10.5204455 32.2914851,10.1382871 32.4279505,9.72882178 L31.4453168,8.96450495 C31.4453168,8.96450495 31.663703,7.6269505 31.663703,7.6269505 Z M25.4128416,11.6667822 C23.0653465,11.6667822 21.1819307,9.78336634 21.1819307,7.43587129 C21.1819307,5.08837624 23.0653465,3.2049604 25.4128416,3.2049604 C27.7603366,3.2049604 29.6437525,5.08837624 29.6437525,7.43587129 C29.6437525,9.78336634 27.7603366,11.6667822 25.4128416,11.6667822 Z" id="Shape"></path>
            </g>
        </g>
    </g>
</svg>