<svg xmlns="http://www.w3.org/2000/svg" width="80" height="65" viewBox="0 0 80 65">
    <g fill="none" fill-rule="nonzero">
        <path fill="#38315D" d="M39.917 30.888h-7.984c-.734 0-1.33.553-1.33 1.235 0 .192.047.382.14.553l2.521 4.682v4.65c0 3.412 2.979 6.178 6.653 6.178 3.674 0 6.653-2.766 6.653-6.178v-4.942c-.005-3.41-2.98-6.173-6.653-6.178zm-5.83 2.472h5.83c1.691.001 3.198.99 3.764 2.47h-8.264l-1.33-2.47zm9.822 8.648c0 2.047-1.788 3.707-3.992 3.707-2.205 0-3.992-1.66-3.992-3.707v-3.706h7.984v3.706zM45.24 48.186H34.594c-3.673.004-6.649 2.767-6.653 6.177v8.649c0 .682.596 1.236 1.33 1.236h21.29c.734 0 1.33-.554 1.33-1.236v-8.649c-.004-3.41-2.98-6.173-6.653-6.177zm3.99 13.59h-2.66V58.07c0-.682-.596-1.236-1.33-1.236-.736 0-1.331.554-1.331 1.236v3.707h-7.984V58.07c0-.682-.596-1.236-1.33-1.236-.735 0-1.331.554-1.331 1.236v3.707h-2.661v-7.414c0-2.047 1.787-3.706 3.992-3.706h10.644c2.205 0 3.992 1.66 3.992 3.706v7.414zM14.636 30.888H9.314c-2.205 0-3.992 1.66-3.992 3.707v7.413c0 3.412 2.979 6.178 6.653 6.178 3.674 0 6.653-2.766 6.653-6.178v-7.413c0-2.047-1.787-3.707-3.992-3.707zm1.33 11.12c0 2.047-1.786 3.707-3.99 3.707-2.206 0-3.993-1.66-3.993-3.707v-3.706h7.984v3.706zm0-6.177H7.984v-1.236c0-.682.596-1.235 1.33-1.235h5.323c.735 0 1.33.553 1.33 1.235v1.236zM17.297 48.186H6.653C2.98 48.19.004 50.953 0 54.363v8.649c0 .682.596 1.236 1.33 1.236h21.29c.734 0 1.33-.554 1.33-1.236v-8.649c-.004-3.41-2.98-6.173-6.653-6.177zm3.992 13.59h-2.661V58.07c0-.682-.596-1.236-1.33-1.236-.736 0-1.331.554-1.331 1.236v3.707H7.983V58.07c0-.682-.595-1.236-1.33-1.236-.735 0-1.33.554-1.33 1.236v3.707H2.66v-7.414c0-2.047 1.787-3.706 3.992-3.706h10.644c2.205 0 3.992 1.66 3.992 3.706v7.414zM79.694 38.992v-.001l-2.942-5.463c-2.456-4.561-8.429-6.41-13.34-4.13-1.924.894-3.485 2.343-4.447 4.13l-2.942 5.463c-.328.61-.062 1.352.595 1.658h.001l4.675 2.17c.456 3.366 3.766 5.752 7.392 5.328 2.998-.351 5.36-2.544 5.738-5.328v-.006l4.674-2.164c.658-.304.924-1.046.596-1.657zm-7.844 3.016c0 2.047-1.787 3.707-3.991 3.707-2.205 0-3.992-1.66-3.992-3.707v-3.706h7.983v3.706zm2.661-1.999v-2.943c0-.682-.595-1.235-1.33-1.235H62.536c-.734 0-1.33.553-1.33 1.235v2.943L59 38.985l2.346-4.36c1.798-3.34 6.173-4.693 9.77-3.022 1.409.654 2.551 1.715 3.256 3.023l2.346 4.359-2.207 1.024z"/>
        <path fill="#38315D" d="M73.18 48.186H62.537c-3.672.004-6.648 2.767-6.652 6.177v8.649c0 .682.595 1.236 1.33 1.236h21.29c.734 0 1.33-.554 1.33-1.236v-8.649c-.005-3.41-2.98-6.173-6.653-6.177zm3.993 13.59H74.51V58.07c0-.682-.595-1.236-1.33-1.236-.735 0-1.33.554-1.33 1.236v3.707h-7.984V58.07c0-.682-.596-1.236-1.33-1.236-.735 0-1.331.554-1.331 1.236v3.707h-2.661v-7.414c0-2.047 1.787-3.706 3.991-3.706h10.645c2.204 0 3.992 1.66 3.992 3.706v7.414z"/>
        <path fill="#E57B93" d="M23.298 7.57C21.66 3.055 17.106.01 11.975 0 5.361.014.011 5.003.025 11.144c.012 4.764 3.29 8.993 8.153 10.514l2.606 4.84c.328.611 1.127.86 1.785.555.258-.12.468-.314.597-.554l2.606-4.841c6.268-1.96 9.637-8.268 7.526-14.088zm-2.352 5.868c-.876 2.914-3.328 5.191-6.467 6.005a1.312 1.312 0 0 0-.833.637l-1.67 3.104-1.672-3.104a1.312 1.312 0 0 0-.833-.637c-4.955-1.285-7.85-6.055-6.467-10.656 1.383-4.6 6.52-7.289 11.475-6.005 4.955 1.284 7.85 6.055 6.467 10.656zM51.24 7.57C49.6 3.055 45.048.01 39.917 0c-6.614.014-11.964 5.003-11.95 11.144.012 4.764 3.29 8.993 8.152 10.514l2.607 4.84c.328.611 1.127.86 1.784.555.26-.12.469-.314.598-.554l2.606-4.841c6.268-1.96 9.637-8.268 7.526-14.088zm-2.352 5.868c-.876 2.914-3.329 5.191-6.467 6.005a1.312 1.312 0 0 0-.833.637l-1.671 3.104-1.671-3.104a1.312 1.312 0 0 0-.833-.637c-4.955-1.285-7.85-6.055-6.467-10.656 1.383-4.6 6.52-7.289 11.475-6.005 4.954 1.284 7.85 6.055 6.467 10.656zM79.181 7.57C77.543 3.055 72.99.01 67.86 0c-6.614.014-11.964 5.003-11.95 11.144.011 4.764 3.29 8.993 8.152 10.514l2.607 4.84c.328.611 1.126.86 1.784.555.259-.12.469-.314.597-.554l2.607-4.841c6.268-1.96 9.637-8.268 7.525-14.088zm-2.351 5.868c-.876 2.914-3.329 5.191-6.467 6.005a1.312 1.312 0 0 0-.833.637l-1.671 3.104-1.672-3.104a1.312 1.312 0 0 0-.832-.637c-4.955-1.285-7.85-6.055-6.467-10.656 1.383-4.6 6.52-7.289 11.475-6.005 4.954 1.284 7.85 6.055 6.467 10.656z"/>
        <path fill="#E57B93" d="M73.456 7.158c-1.537-1.373-3.932-1.475-5.597-.239-1.665-1.237-4.06-1.137-5.598.234-1.621 1.506-1.621 3.947 0 5.453l5.598 5.203 5.597-5.198c1.622-1.506 1.622-3.947 0-5.453zm-1.881 3.706v-.005l-3.716 3.456-3.717-3.45a1.317 1.317 0 0 1 0-1.96 1.574 1.574 0 0 1 2.11 0l1.607 1.491 1.606-1.491a1.574 1.574 0 0 1 2.11 0 1.317 1.317 0 0 1 0 1.96zM39.917 4.943c-3.674 0-6.653 2.765-6.653 6.177 0 3.412 2.979 6.178 6.653 6.178 3.674 0 6.653-2.766 6.653-6.178-.005-3.41-2.98-6.173-6.653-6.177zm-3.992 6.177c0-2.047 1.787-3.706 3.992-3.706a4.177 4.177 0 0 1 1.71.37l-5.303 4.924a3.433 3.433 0 0 1-.399-1.588zm3.992 3.707a4.177 4.177 0 0 1-1.71-.37l5.302-4.924c.26.494.397 1.037.4 1.587 0 2.047-1.788 3.707-3.992 3.707zM6.653 9.885h10.644v2.471H6.653z"/>
    </g>
</svg>
