<?xml version="1.0" encoding="UTF-8"?>
<svg width="35px" height="44px" viewBox="0 0 35 44" version="1.1" xmlns="http://www.w3.org/2000/svg" xmlns:xlink="http://www.w3.org/1999/xlink">
    <!-- Generator: Sketch 50.2 (55047) - http://www.bohemiancoding.com/sketch -->
    <title>innovation</title>
    <desc>Created with Sketch.</desc>
    <defs></defs>
    <g id="Page-1" stroke="none" stroke-width="1" fill="none" fill-rule="evenodd">
        <g id="About" transform="translate(-1004.000000, -398.000000)" fill-rule="nonzero">
            <g id="innovation" transform="translate(1004.000000, 398.000000)">
                <path d="M25.9234756,15.4353415 L23.9844756,15.4353415 C23.8660732,15.059561 23.7154878,14.6957317 23.5337439,14.3466707 L24.9047195,12.9756098 C25.0760488,12.8042805 25.170378,12.576439 25.170378,12.3340854 C25.170378,12.0916463 25.0760488,11.8638049 24.9047195,11.6924756 L23.2912195,10.0788902 C22.9374634,9.72539024 22.3619268,9.72521951 22.0080854,10.0789756 L20.6370244,11.4500366 C20.2879634,11.2682927 19.9240488,11.117622 19.5483537,10.9993049 L19.5483537,9.06021951 C19.5482683,8.55997561 19.1412439,8.15286585 18.6409146,8.15286585 L16.359,8.15286585 C15.8587561,8.15286585 15.4517317,8.55989024 15.4517317,9.06021951 L15.4517317,10.9993049 C15.0759512,11.1177073 14.712122,11.2682927 14.3629756,11.4500366 L12.9918293,10.0788902 C12.6380732,9.72530488 12.0625366,9.72539024 11.7087805,10.0789756 L10.0953659,11.6923902 C9.92395122,11.8637195 9.82953659,12.091561 9.82953659,12.334 C9.82953659,12.5763537 9.92395122,12.8041951 10.0952805,12.9755244 L11.4663415,14.3465854 C11.2845976,14.6956463 11.1339268,15.059561 11.0156098,15.4352561 L9.07652439,15.4352561 C8.57628049,15.4352561 8.1692561,15.8422805 8.1692561,16.3426098 L8.1692561,18.6245244 C8.1692561,19.1247683 8.57628049,19.5317927 9.07652439,19.5317927 L11.0156098,19.5317927 C11.1340122,19.9074878 11.2845976,20.2714878 11.4663415,20.6204634 L10.0952805,21.9915244 C9.74152439,22.3452805 9.74152439,22.9209024 10.0952805,23.2746585 L11.7087805,24.8881585 C12.0625366,25.242 12.6382439,25.2419146 12.9919146,24.8881585 L14.3629756,23.5170976 C14.7120366,23.6988415 15.0760366,23.8495122 15.4517317,23.9678293 L15.4517317,25.9069146 C15.4517317,26.4071585 15.8587561,26.8141829 16.359,26.8141829 L18.6409146,26.8141829 C19.1411585,26.8141829 19.5482683,26.4071585 19.5482683,25.9069146 L19.5482683,23.9678293 C19.923878,23.8495122 20.287878,23.6988415 20.636939,23.5170976 L22.008,24.8881585 C22.3618415,25.242 22.9374634,25.2419146 23.2912195,24.8881585 L24.9046341,23.2746585 C25.0759634,23.1033293 25.1702927,22.8754878 25.1702927,22.6331341 C25.1702927,22.3907805 25.0759634,22.162939 24.9046341,21.9915244 L23.5335732,20.6204634 C23.7153171,20.2714024 23.8659878,19.9074878 23.9843049,19.5317927 L25.9233902,19.5317927 C26.4236341,19.5317927 26.8307439,19.1247683 26.8307439,18.6245244 L26.8307439,16.3426098 C26.8308293,15.8423659 26.4237195,15.4353415 25.9234756,15.4353415 Z M25.5504268,18.2513049 L23.4966098,18.2513049 C23.1991951,18.2513049 22.9409634,18.4560976 22.8731829,18.7457439 C22.7366829,19.3292195 22.507561,19.8826463 22.1921341,20.3904878 C22.0351463,20.6431707 22.0729634,20.9706341 22.2832195,21.181061 L23.735378,22.6332195 L22.6496951,23.7189024 L21.1975366,22.2667439 C20.9871951,22.0564024 20.6597317,22.0185 20.406878,22.1755732 C19.8989512,22.491 19.3455244,22.720122 18.7622195,22.8567073 C18.4725732,22.9244024 18.2677805,23.1826341 18.2677805,23.4801341 L18.2677805,25.5340366 L16.7324756,25.5340366 L16.7324756,23.4801341 C16.7324756,23.1827195 16.5276829,22.9244878 16.2380366,22.8567073 C15.6547317,22.7202927 15.1013049,22.4911707 14.5932927,22.1755732 C14.3406951,22.0188415 14.0131463,22.0564024 13.8027195,22.2667439 L12.350561,23.7189024 L11.264878,22.6332195 L12.7170366,21.181061 C12.927378,20.9707195 12.9651098,20.6432561 12.8082073,20.3904878 C12.4927805,19.882561 12.2636585,19.3291341 12.1271585,18.7457439 C12.0594634,18.4560976 11.8011463,18.2513049 11.5037317,18.2513049 L9.44991463,18.2513049 L9.44991463,16.716 L11.5037317,16.716 C11.8011463,16.716 12.059378,16.5112073 12.1271585,16.221561 C12.2636585,15.6381707 12.4927805,15.0847439 12.8082073,14.5768171 C12.9651098,14.3241341 12.927378,13.9966707 12.7170366,13.7862439 L11.264878,12.3340854 L12.350561,11.2484024 L13.8027195,12.700561 C14.0128902,12.9109024 14.3405244,12.9487195 14.5932927,12.7917317 C15.1011341,12.4763049 15.654561,12.2471829 16.2380366,12.1106829 C16.5276829,12.0429878 16.7324756,11.7847561 16.7324756,11.4872561 L16.7324756,9.43335366 L18.2677805,9.43335366 L18.2677805,11.4872561 C18.2677805,11.7846707 18.4725732,12.0429024 18.7622195,12.1106829 C19.3456098,12.2471829 19.8989512,12.4763049 20.4069634,12.7917317 C20.6594756,12.9485488 20.9871098,12.9107317 21.1975366,12.700561 L22.6496951,11.2484024 L23.735378,12.3340854 L22.2832195,13.7862439 C22.072878,13.9965854 22.0351463,14.3240488 22.1921341,14.5768171 C22.5074756,15.0845732 22.7365976,15.638 22.8731829,16.221561 C22.9409634,16.5112073 23.1991098,16.716 23.4966098,16.716 L25.5504268,16.716 L25.5504268,18.2513049 Z" id="Shape" fill="#E57B93"></path>
                <path d="M17.5,14.0536098 C15.6086341,14.0536098 14.07,15.5923293 14.07,17.4836098 C14.07,19.3748902 15.6087195,20.9136098 17.5,20.9136098 C19.3912805,20.9136098 20.93,19.3748902 20.93,17.4836098 C20.93,15.5923293 19.3913659,14.0536098 17.5,14.0536098 Z M17.5,19.633122 C16.3147805,19.633122 15.3504878,18.6688293 15.3504878,17.4836098 C15.3504878,16.2983902 16.3147805,15.3340976 17.5,15.3340976 C18.6852195,15.3340976 19.6495122,16.2983902 19.6495122,17.4836098 C19.6495122,18.6688293 18.6852195,19.633122 17.5,19.633122 Z" id="Shape" fill="#E57B93"></path>
                <path d="M2.78070732,16.8433659 L0.656634146,16.8433659 C0.30304878,16.8433659 0.0163902439,17.1300244 0.0163902439,17.4836098 C0.0163902439,17.8371951 0.30304878,18.1238537 0.656634146,18.1238537 L2.78070732,18.1238537 C3.13429268,18.1238537 3.42095122,17.8371951 3.42095122,17.4836098 C3.42095122,17.1300244 3.13429268,16.8433659 2.78070732,16.8433659 Z" id="Shape" fill="#38315D"></path>
                <path d="M34.3434512,16.8433659 L32.219378,16.8433659 C31.8657073,16.8433659 31.5791341,17.1300244 31.5791341,17.4836098 C31.5791341,17.8371951 31.8657073,18.1238537 32.219378,18.1238537 L34.3434512,18.1238537 C34.697122,18.1238537 34.9836951,17.8371951 34.9836951,17.4836098 C34.9836951,17.1300244 34.6970366,16.8433659 34.3434512,16.8433659 Z" id="Shape" fill="#38315D"></path>
                <path d="M7.54454878,27.439061 C7.29459756,27.1890244 6.88919512,27.1890244 6.63907317,27.439061 L5.13714634,28.9409878 C4.88710976,29.1910244 4.88710976,29.5964268 5.13714634,29.8464634 C5.38718293,30.0965 5.79258537,30.0965 6.04262195,29.8464634 L7.54454878,28.3445366 C7.79458537,28.0945 7.79458537,27.6890976 7.54454878,27.439061 Z" id="Shape" fill="#38315D"></path>
                <path d="M29.8628537,5.12092683 C29.6127317,4.87089024 29.2074146,4.87089024 28.9572927,5.12092683 L27.4553659,6.62285366 C27.2053293,6.87289024 27.2053293,7.27829268 27.4553659,7.52832927 C27.7054878,7.77836585 28.1108049,7.77828049 28.3609268,7.52832927 L29.8628537,6.02640244 C30.1128902,5.77628049 30.1128902,5.37087805 29.8628537,5.12092683 Z" id="Shape" fill="#38315D"></path>
                <path d="M17.5000854,0 C17.1464146,0 16.8598415,0.286658537 16.8598415,0.640243902 L16.8598415,2.76431707 C16.8598415,3.11790244 17.1464146,3.40456098 17.5000854,3.40456098 C17.8537561,3.40456098 18.1403293,3.11790244 18.1403293,2.76431707 L18.1403293,0.640243902 C18.1403293,0.286658537 17.8537561,0 17.5000854,0 Z" id="Shape" fill="#38315D"></path>
                <path d="M29.8628537,28.9409878 L28.3609268,27.439061 C28.1108049,27.1890244 27.7054878,27.1890244 27.4553659,27.439061 C27.2053293,27.6890976 27.2053293,28.0945854 27.4553659,28.3445366 L28.9572927,29.8464634 C29.2074146,30.0965 29.6127317,30.0965 29.8628537,29.8464634 C30.1128902,29.5964268 30.1128902,29.1910244 29.8628537,28.9409878 Z" id="Shape" fill="#38315D"></path>
                <path d="M7.54454878,6.62285366 L6.04262195,5.12092683 C5.79258537,4.87089024 5.38718293,4.87089024 5.13714634,5.12092683 C4.88710976,5.37096341 4.88710976,5.77636585 5.13714634,6.02640244 L6.63907317,7.52832927 C6.88910976,7.77836585 7.2945122,7.77836585 7.54454878,7.52832927 C7.79458537,7.27820732 7.79458537,6.87280488 7.54454878,6.62285366 Z" id="Shape" fill="#38315D"></path>
                <path d="M30.2732073,15.9151829 C29.5842195,10.0356098 24.9235,5.37446341 19.0715,4.66114634 C18.7210732,4.61803659 18.4012073,4.8682439 18.3583537,5.21918293 C18.3155854,5.57020732 18.5654512,5.88947561 18.9164756,5.93232927 C24.2310976,6.58008537 28.3781707,10.7465366 29.0012561,16.0642317 C29.0394146,16.3900732 29.3160854,16.6299512 29.6362927,16.6299512 C29.6612195,16.6299512 29.6863171,16.6285 29.7116707,16.6255976 C30.0630366,16.5845366 30.3143537,16.2664634 30.2732073,15.9151829 Z" id="Shape" fill="#38315D"></path>
                <path d="M29.7041585,18.3423902 C29.3527927,18.2976585 29.0329268,18.5463293 28.9885366,18.8971829 C28.552061,22.344939 26.606061,25.387122 23.6495,27.2434024 C22.3749024,28.0437073 21.6140366,29.4133171 21.6140366,30.9070488 L21.6140366,33.5420366 L13.3862195,33.5420366 L13.3862195,30.8487439 C13.3862195,29.4023049 12.6303049,28.0357683 11.4135854,27.2825854 C7.97282927,25.1527073 5.91858537,21.4685732 5.9185,17.427439 C5.9185,11.5925122 10.289061,6.65102439 16.0848049,5.93309756 C16.4357439,5.88964634 16.6849268,5.56986585 16.6414756,5.21892683 C16.5980244,4.86807317 16.2784146,4.61820732 15.9273049,4.6622561 C9.52358537,5.45556098 4.63767073,10.9625122 4.6377561,17.427439 C4.6377561,19.6583049 5.2179878,21.8563049 6.31587805,23.7838659 C7.38013415,25.6525244 8.90980488,27.2387927 10.7393659,28.3713415 C11.5820122,28.8929268 12.1053902,29.8421951 12.1053902,30.8486585 L12.1053902,33.6352561 C11.4543902,33.8614756 10.9849634,34.4796951 10.9849634,35.2067561 L10.9849634,36.1194878 C10.9849634,36.505939 11.1184756,36.8611463 11.3401707,37.1439634 C11.1183902,37.4267805 10.9849634,37.7819024 10.9849634,38.168439 L10.9849634,39.0810854 C10.9849634,39.9990244 11.7318293,40.7458049 12.6496829,40.7458049 L14.6626098,40.7458049 L14.6626098,42.1931829 C14.6626098,43.0281463 15.3418659,43.7074024 16.1767439,43.7074024 L18.8228293,43.7074024 C19.6577927,43.7074024 20.3369634,43.0281463 20.3369634,42.1931829 L20.3369634,40.7458049 L22.3498902,40.7458049 C23.2678293,40.7458049 24.0146098,39.998939 24.0146098,39.0810854 L24.0146098,38.168439 C24.0146098,37.7819878 23.8810976,37.4267805 23.6593171,37.1439634 C23.8810976,36.8611463 24.0146098,36.5060244 24.0146098,36.1194878 L24.0146098,35.2067561 C24.0146098,34.4796098 23.5452683,33.8614756 22.8941829,33.6352561 L22.8941829,30.9069634 C22.8941829,29.8565366 23.430878,28.8924146 24.3300366,28.3278902 C27.6126951,26.2668171 29.7736463,22.8880366 30.258439,19.0580122 C30.3032561,18.7071585 30.0549268,18.3867805 29.7041585,18.3423902 Z M19.0566463,42.1930976 C19.0566463,42.3196951 18.9496829,42.4267439 18.8230854,42.4267439 L16.177,42.4267439 C16.0504024,42.4267439 15.943439,42.3197805 15.943439,42.1930976 L15.943439,40.7457195 L19.0566463,40.7457195 L19.0566463,42.1930976 Z M22.734378,39.081 C22.734378,39.2892073 22.558439,39.4651463 22.3502317,39.4651463 C21.2199878,39.4651463 13.7165,39.4651463 12.649939,39.4651463 C12.4417317,39.4651463 12.2657927,39.2892073 12.2657927,39.081 L12.2657927,38.1683537 C12.2657927,37.9601463 12.4417317,37.7842073 12.649939,37.7842073 L22.3502317,37.7842073 C22.558439,37.7842073 22.734378,37.9601463 22.734378,38.1683537 L22.734378,39.081 Z M22.734378,36.1194024 C22.734378,36.3276098 22.558439,36.5035488 22.3502317,36.5035488 L12.649939,36.5035488 C12.4417317,36.5035488 12.2657927,36.3276098 12.2657927,36.1194024 L12.2657927,35.2066707 C12.2657927,34.9984634 12.4417317,34.8225244 12.649939,34.8225244 L22.3502317,34.8225244 C22.558439,34.8225244 22.734378,34.9984634 22.734378,35.2066707 L22.734378,36.1194024 Z" id="Shape" fill="#38315D"></path>
            </g>
        </g>
    </g>
</svg>