<svg xmlns="http://www.w3.org/2000/svg" width="42" height="42" viewBox="0 0 42 42">
    <path fill="#DAEAF4" fill-rule="evenodd" stroke="#696B84" stroke-width="2" d="M11.598 2.225c-.67-1-2.12-1.467-3.212-.99 0 0-2.611.716-5.686 3.79C-.374 8.099-.374 18.86 11.155 30.389s22.29 11.529 25.363 8.454c3.075-3.074 3.791-5.685 3.791-5.685.454-1.105-.011-2.483-1.045-3.082l-6.441-3.734c-1.031-.597-2.501-.346-3.292.57l-1.578 1.826c-.788.912-2.226 1.098-3.208.39 0 0-2.798-1.782-6.673-5.657-3.874-3.874-5.656-6.673-5.656-6.673-.696-.984-.52-2.431.38-3.22l2.39-2.096c.906-.794 1.091-2.26.429-3.25l-4.017-6.007z"/>
</svg>
