<svg xmlns="http://www.w3.org/2000/svg" width="50" height="44" viewBox="0 0 50 44">
    <g fill="none" fill-rule="nonzero">
        <path fill="#E57B93" d="M47.5 21.667h-.833v-17.5A4.172 4.172 0 0 0 42.5 0h-35a4.172 4.172 0 0 0-4.167 4.167v12.5H2.5a2.5 2.5 0 0 0-2.5 2.5v21.666a2.5 2.5 0 0 0 2.5 2.5h31.667c.46 0 .833-.373.833-.833a4.172 4.172 0 0 0-4.167-4.167h-2.5v-5h10v7.5a2.5 2.5 0 0 0 2.5 2.5H47.5a2.5 2.5 0 0 0 2.5-2.5V24.167a2.5 2.5 0 0 0-2.5-2.5zM18.333 40.833c0 .46-.373.834-.833.834h-15a.833.833 0 0 1-.833-.834V40h16.666v.833zm0-2.5H1.667V19.167c0-.46.373-.834.833-.834h15c.46 0 .833.373.833.834v19.166zM30.833 40a2.505 2.505 0 0 1 2.358 1.667H19.847c.098-.267.15-.55.153-.834V40h10.833zM20 38.333v-5h1.667v5H20zm3.333 0v-5h3.334v5h-3.334zm15-6.666H20v-5h18.333v5zm0-7.5V25H20v-5.833c-.003-.396-.297-1.123-.285-1.135.008-.007 2.772-2.766 8.29-8.277a.833.833 0 0 0-1.177-1.178l-8.25 8.25c-.02.02-.029.047-.046.069a2.469 2.469 0 0 0-1.032-.23H5v-12.5a2.5 2.5 0 0 1 2.5-2.5h35a2.5 2.5 0 0 1 2.5 2.5v17.5h-4.167a2.5 2.5 0 0 0-2.5 2.5zm10 16.666c0 .46-.373.834-.833.834h-6.667a.833.833 0 0 1-.833-.834V40h8.333v.833zm0-2.5H40V24.167c0-.46.373-.834.833-.834H47.5c.46 0 .833.373.833.834v14.166z"/>
        <path fill="#E9D6DD" d="M9.957 26.81a.833.833 0 0 0-1.178 0l-3.535 3.535a.833.833 0 1 0 1.179 1.178l3.534-3.535c.15-.257-.15-.748 0-1.178zM14.937 26.81a.833.833 0 0 0-1.158 0l-3.535 3.535a.833.833 0 1 0 1.178 1.178l3.535-3.535a.833.833 0 0 0-.02-1.178zM33.069 8.578a.833.833 0 0 0-1.158 0l-8.25 8.25a.833.833 0 1 0 1.178 1.178l8.25-8.25a.833.833 0 0 0-.02-1.178zM45.914 29.066a.833.833 0 0 0-1.158 0l-2.357 2.357a.833.833 0 1 0 1.178 1.178l2.357-2.357a.833.833 0 0 0-.02-1.178z"/>
        <path fill="#E57B93" d="M25.017 28.333h-.009A.833.833 0 0 0 25.017 30a.833.833 0 0 0 0-1.667zM26.667 3.333h-3.334a.833.833 0 0 0 0 1.667h3.334a.833.833 0 0 0 0-1.667z"/>
    </g>
</svg>
