<svg xmlns="http://www.w3.org/2000/svg" width="57" height="65" viewBox="0 0 57 65">
    <g fill="none" fill-rule="nonzero">
        <path fill="#DBD6E9" d="M1.582 44.44h53.299v8.728H1.582z"/>
        <path fill="#38315D" d="M28.067 57.603c-.656 0-1.195.539-1.195 1.195v3.07H16.596c-.656 0-1.194.539-1.194 1.195s.538 1.195 1.194 1.195h22.942c.656 0 1.194-.539 1.194-1.195s-.538-1.194-1.194-1.194H29.26v-3.071a1.19 1.19 0 0 0-1.194-1.195zM2.92 54.349H53.2a2.873 2.873 0 0 0 2.874-2.875V16.865a2.873 2.873 0 0 0-2.874-2.874H39.13c-.656 0-1.194.538-1.194 1.194 0 .656.538 1.194 1.195 1.194H53.2c.275 0 .498.223.498.5V51.5a.499.499 0 0 1-.499.498H2.92a.499.499 0 0 1-.499-.498v-5.762h47.432c.657 0 1.195-.538 1.195-1.194 0-.657-.538-1.195-1.195-1.195h-5.997c-.5-3.452-3.478-6.116-7.061-6.116-.657 0-1.195.538-1.195 1.195 0 .656.538 1.194 1.195 1.194a4.77 4.77 0 0 1 4.646 3.727h-5.434c-.46-3.662-3.373-6.575-7.035-7.048v-8.281c0-.656-.538-1.195-1.194-1.195-.656 0-1.194.539-1.194 1.195v8.334a8.175 8.175 0 0 0-6.733 6.995h-5.46a4.77 4.77 0 0 1 4.646-3.727c.656 0 1.194-.538 1.194-1.194 0-.657-.538-1.195-1.194-1.195-3.583 0-6.562 2.664-7.06 6.116H1.816a1.225 1.225 0 0 0-.577-.157c-.656 0-1.194.538-1.194 1.194v7.1A2.888 2.888 0 0 0 2.92 54.35zm25.029-15.75c2.821 0 5.184 2.048 5.67 4.738H22.291a5.741 5.741 0 0 1 5.657-4.738zM1.24 40.752c.656 0 1.195-.539 1.195-1.195V16.852c0-.276.223-.499.498-.499h14.11c.655 0 1.193-.538 1.193-1.194 0-.656-.538-1.195-1.194-1.195H2.92A2.873 2.873 0 0 0 .046 16.84v22.705c.013.683.538 1.208 1.194 1.208z"/>
        <circle cx="27.962" cy="49.007" r="1.378" fill="#000"/>
        <path fill="#E57B93" d="M17.423 29.884c0 .657.538 1.195 1.194 1.195h2.441v2.756c0 .656.538 1.194 1.195 1.194.656 0 1.194-.538 1.194-1.194v-2.756h.157c.657 0 1.195-.538 1.195-1.195 0-.656-.538-1.194-1.195-1.194h-3.806v-1.325c0-.447.132-.88.394-1.247l2.152-3.085a4.367 4.367 0 0 0 .788-2.506v-10.33c0-.97.354-1.915.984-2.65l3.872-4.528 3.885 4.514c.643.749.997 1.694.997 2.665v10.394c0 .827.237 1.64.683 2.35l2.008 3.163c.223.354.341.748.341 1.168v1.404h-3.61c-.655 0-1.194.538-1.194 1.194 0 .617.46 1.103 1.05 1.182v2.769c0 .656.539 1.194 1.195 1.194s1.194-.538 1.194-1.194v-2.756h2.546c.656 0 1.195-.538 1.195-1.195v-2.598c0-.867-.25-1.706-.71-2.441l-2.007-3.163a1.978 1.978 0 0 1-.315-1.077V10.211a6.507 6.507 0 0 0-1.575-4.226L28.867.407A1.175 1.175 0 0 0 27.962 0c-.341 0-.683.157-.906.42l-4.764 5.578a6.482 6.482 0 0 0-1.549 4.2V20.54c0 .407-.118.814-.354 1.142l-2.153 3.084a4.525 4.525 0 0 0-.813 2.612v2.506z"/>
    </g>
</svg>
