<svg xmlns="http://www.w3.org/2000/svg" width="131" height="132" viewBox="0 0 131 132">
    <g fill="none" fill-rule="evenodd">
        <path fill="#38315D" d="M22.065 119.736L.21 41.838l2.912-3.124 21.855 77.898z"/>
        <path fill="#7972A0" d="M22.065 119.736l58.527 11.856 2.92-3.13-58.528-11.856z"/>
        <path fill="#DBD6E9" d="M3.419 38.397l58.654 11.996 21.668 77.822-58.654-11.997z"/>
        <path fill="#38315D" d="M33.065 110.736L11.21 32.838l2.912-3.124 21.855 77.898z"/>
        <path fill="#7972A0" d="M33.065 110.736l58.527 11.856 2.92-3.13-58.528-11.856z"/>
        <path fill="#DBD6E9" d="M14.419 29.397l58.654 11.996 21.668 77.822-58.654-11.997z"/>
        <g>
            <path fill="#38315D" d="M44.065 99.736L22.21 21.838l2.912-3.124 21.855 77.898z"/>
            <path fill="#7972A0" d="M44.065 99.736l58.527 11.856 2.92-3.13-58.528-11.856z"/>
            <path fill="#DBD6E9" d="M25.419 18.397l58.654 11.996 21.668 77.822-58.654-11.997z"/>
        </g>
        <g>
            <path fill="#38315D" d="M56.065 89.736L34.21 11.838l2.912-3.124 21.855 77.898z"/>
            <path fill="#7972A0" d="M56.065 89.736l58.527 11.856 2.92-3.13-58.528-11.856z"/>
            <path fill="#DBD6E9" d="M37.419 8.397l58.654 11.996 21.668 77.822-58.654-11.997z"/>
            <path fill="#DBD6E9" d="M37.419 8.397l58.654 11.996 21.668 77.822-58.654-11.997z"/>
        </g>
        <g>
            <path fill="#38315D" d="M69.065 81.736L47.21 3.838 50.122.714l21.855 77.898z"/>
            <path fill="#7972A0" d="M69.065 81.736l58.527 11.856 2.92-3.13-58.528-11.856z"/>
            <path fill="#DBD6E9" d="M50.419.397l58.654 11.996 21.668 77.822-58.654-11.997z"/>
            <path fill="#DBD6E9" d="M50.419.397l58.654 11.996 21.668 77.822-58.654-11.997z"/>
        </g>
    </g>
</svg>
