<svg xmlns="http://www.w3.org/2000/svg" width="42" height="42" viewBox="0 0 42 42">
    <g fill="#C4C4C4" fill-rule="nonzero">
        <path d="M31.162 10.341a4.232 4.232 0 0 0-4.228 4.228 4.232 4.232 0 0 0 4.228 4.227 4.232 4.232 0 0 0 4.228-4.227 4.232 4.232 0 0 0-4.228-4.228zm0 6.815a2.59 2.59 0 0 1-2.587-2.587 2.59 2.59 0 0 1 2.587-2.587 2.59 2.59 0 0 1 2.587 2.587 2.59 2.59 0 0 1-2.587 2.587zM31.19 36.6a.81.81 0 0 0-.443-.443.808.808 0 0 0-.769.075.785.785 0 0 0-.226.227.81.81 0 0 0-.122.295.808.808 0 0 0 .224.74.82.82 0 0 0 1.337-.893zM18.28 4.139a.872.872 0 0 0-.177-.267.785.785 0 0 0-.266-.177.828.828 0 0 0-.473-.047.856.856 0 0 0-.296.122.785.785 0 0 0-.227.227.868.868 0 0 0-.138.456.814.814 0 0 0 .063.313c.02.05.045.097.075.142a.882.882 0 0 0 .227.226.832.832 0 0 0 .456.14.808.808 0 0 0 .313-.064.81.81 0 0 0 .444-.444.77.77 0 0 0 .063-.313.816.816 0 0 0-.063-.314z"/>
        <path d="M37.417 3.635a4.725 4.725 0 0 0-4.59-3.631H7.089A7.097 7.097 0 0 0 0 7.092V32.83a4.722 4.722 0 0 0 4.583 4.714 4.725 4.725 0 0 0 4.59 3.632h28.11A4.723 4.723 0 0 0 42 36.46V8.349a4.722 4.722 0 0 0-4.583-4.714zm2.942 32.824a3.08 3.08 0 0 1-3.077 3.077H9.173a3.082 3.082 0 0 1-3.077-3.077v-4.352l9.411-15.957c.287-.486.798-.77 1.359-.76.564.009 1.061.31 1.33.806l4.053 7.44 5.89 10.815a.82.82 0 1 0 1.44-.784l-1.91-3.51a3.384 3.384 0 0 0 2.321-.778l3.69-3.06a1.552 1.552 0 0 1 2.031.05l.193.176 1.64 1.504 2.815 2.58v5.83zm0-8.055l-2.815-2.58-1.64-1.25a3.2 3.2 0 0 0-3.272.482l-3.69 3.06a1.75 1.75 0 0 1-1.453.373c-.517-.1-.959-.422-1.211-.885L23.69 22.85l-1.446-2.653-2.606-4.787a3.151 3.151 0 0 0-2.744-1.662 3.155 3.155 0 0 0-2.8 1.567L6.096 28.877V8.35a3.08 3.08 0 0 1 3.077-3.077h5.07a.82.82 0 1 0 0-1.641h-5.07A4.723 4.723 0 0 0 4.456 8.35v27.545A3.08 3.08 0 0 1 1.64 32.83V7.092a5.454 5.454 0 0 1 5.448-5.448h25.738c1.313 0 2.436.827 2.877 1.988h-14.9a.82.82 0 1 0 0 1.64h15.1l1.64.013A3.08 3.08 0 0 1 40.36 8.35v20.054z"/>
    </g>
</svg>
