<svg xmlns="http://www.w3.org/2000/svg" width="17" height="18" viewBox="0 0 17 18">
    <g fill="#456FFD" fill-rule="nonzero">
        <path d="M3.897 12.775c-.442 0-.818.157-1.128.472-.31.315-.464.697-.464 1.147 0 .45.155.832.464 1.148.31.314.686.472 1.128.472.435 0 .81-.158 1.122-.472.314-.315.47-.698.47-1.148 0-.45-.156-.832-.47-1.147a1.529 1.529 0 0 0-1.122-.472zM3.543 9.356c0-.495-.173-.918-.52-1.27a1.69 1.69 0 0 0-1.249-.53 1.69 1.69 0 0 0-1.249.53c-.346.352-.52.775-.52 1.27s.174.918.52 1.27c.347.353.763.53 1.25.53.486 0 .902-.177 1.249-.53.346-.352.52-.775.52-1.27zM13.803 5.218a.845.845 0 0 0 .625-.264.874.874 0 0 0 .26-.636.874.874 0 0 0-.26-.635.844.844 0 0 0-.625-.264.845.845 0 0 0-.624.264.874.874 0 0 0-.26.635c0 .248.087.46.26.636a.845.845 0 0 0 .624.264zM3.897 2.34a1.86 1.86 0 0 0-1.376.578c-.38.386-.57.853-.57 1.4 0 .548.19 1.014.57 1.4.38.387.838.58 1.376.58a1.86 1.86 0 0 0 1.377-.58c.38-.386.57-.852.57-1.4 0-.547-.19-1.014-.57-1.4a1.86 1.86 0 0 0-1.377-.579zM16.678 8.591a1.014 1.014 0 0 0-.752-.314c-.295 0-.545.104-.752.314a1.05 1.05 0 0 0-.309.765c0 .3.103.555.31.765.206.21.456.315.751.315s.546-.105.752-.315c.206-.21.31-.465.31-.765s-.103-.555-.31-.765zM13.803 13.135c-.339 0-.63.123-.873.37a1.223 1.223 0 0 0-.365.89c0 .344.122.64.365.888.243.247.534.37.873.37.34 0 .63-.123.874-.37.243-.248.365-.544.365-.889s-.122-.64-.365-.888a1.181 1.181 0 0 0-.874-.371zM8.85 15.114c-.39 0-.724.14-1 .422a1.4 1.4 0 0 0-.415 1.017c0 .398.138.737.415 1.018.276.281.61.422 1 .422.391 0 .724-.14 1-.422.277-.281.416-.62.416-1.018 0-.397-.139-.736-.415-1.017a1.352 1.352 0 0 0-1-.422zM8.85 0c-.59 0-1.09.21-1.503.63-.413.42-.62.93-.62 1.53 0 .599.207 1.109.62 1.528.412.42.914.63 1.503.63.59 0 1.091-.21 1.504-.63a2.1 2.1 0 0 0 .619-1.529c0-.6-.206-1.11-.62-1.53A2.03 2.03 0 0 0 8.85 0z"/>
    </g>
</svg>
