<svg xmlns="http://www.w3.org/2000/svg" width="16" height="13" viewBox="0 0 16 13">
    <path fill="#1AD996" fill-rule="nonzero" d="M14.828 5.218a.161.161 0 0 1-.045-.136.162.162 0 0 1 .082-.118l.533-.3c.31-.175.5-.497.5-.846 0-.348-.19-.67-.5-.845a1.023 1.023 0 0 0-1 0l-.71.4a.17.17 0 0 1-.154.006.163.163 0 0 1-.093-.12l-.267-1.55C13.016.769 12.18.079 11.201.08H4.796C3.817.079 2.981.77 2.823 1.712L2.557 3.26a.164.164 0 0 1-.094.12.171.171 0 0 1-.154-.006l-.709-.4a1.015 1.015 0 0 0-1.367.358A.962.962 0 0 0 .6 4.664l.533.301a.162.162 0 0 1 .082.118c.007.05-.01.1-.045.136a2.856 2.856 0 0 0-.837 2.01v1.3a1.622 1.622 0 0 0 1.061 1.505.163.163 0 0 1 .106.151v1.269c0 .807.672 1.462 1.5 1.462s1.5-.655 1.5-1.462v-1.138c0-.09.075-.162.167-.162h6.666c.092 0 .167.072.167.162v1.138c0 .807.672 1.462 1.5 1.462s1.5-.655 1.5-1.462v-1.266c0-.067.042-.127.106-.151a1.622 1.622 0 0 0 1.06-1.506v-1.3c0-.752-.3-1.474-.838-2.013zM4.796 1.38h6.408c.326 0 .604.23.657.544l.32 1.867a.162.162 0 0 1-.038.13.168.168 0 0 1-.127.057H3.984a.168.168 0 0 1-.127-.057.16.16 0 0 1-.038-.132l.32-1.867a.662.662 0 0 1 .657-.542zM13 8.531c-.552 0-1-.436-1-.975a.988.988 0 0 1 1-.975c.552 0 1 .437 1 .975a.988.988 0 0 1-1 .975zM2 7.556a.988.988 0 0 1 1-.975c.552 0 1 .437 1 .975a.988.988 0 0 1-1 .975c-.265 0-.52-.102-.707-.285A.963.963 0 0 1 2 7.556z"/>
</svg>
