<svg xmlns="http://www.w3.org/2000/svg" width="16" height="16" viewBox="0 0 16 16">
    <path fill="#1AD996" fill-rule="evenodd" d="M15.068 7.39l-1.71-1.709a.25.25 0 0 1-.033-.118l.893-2.679a.841.841 0 0 0-1.102-1.102l-2.67.89a.264.264 0 0 1-.12-.023L8.61.932a.775.775 0 0 0-1.365.657l.293 2.62a.274.274 0 0 1-.028.07L4.763 5.805a.79.79 0 0 0 .214 1.513l1.81.417a.16.16 0 0 1 .078.269l-6.63 6.63a.8.8 0 1 0 1.13 1.132l6.631-6.63a.16.16 0 0 1 .269.077l.418 1.812a.79.79 0 0 0 1.512.213l1.517-2.734c.02-.017.04-.03.064-.04l2.636.291a.776.776 0 0 0 .656-1.365z"/>
</svg>
