<svg xmlns="http://www.w3.org/2000/svg" width="14" height="14" viewBox="0 0 14 14">
    <g fill="#FFF" fill-rule="evenodd">
        <path d="M1.184 8.93h.858c.132 0 .257-.06.34-.162l4.052-5.006a.752.752 0 0 1 1.132 0l4.052 5.005a.44.44 0 0 0 .34.163h.858a.73.73 0 0 0 .574-1.18L7.573.35a.752.752 0 0 0-1.146 0L.61 7.75a.73.73 0 0 0 .574 1.18z" opacity=".5"/>
        <path d="M7.573 5.333a.751.751 0 0 0-1.146 0L.61 12.736a.73.73 0 0 0 .574 1.18h11.632a.729.729 0 0 0 .574-1.18L7.573 5.333z"/>
    </g>
</svg>
