<svg xmlns="http://www.w3.org/2000/svg" width="16" height="16" viewBox="0 0 16 16">
    <g fill="#16274A" fill-rule="evenodd" opacity=".7">
        <path d="M10.045 2.657a.333.333 0 0 0-.472 0L2.29 9.94a.333.333 0 0 0 0 .471L5.59 13.71c.13.13.341.13.471 0l7.278-7.278c.13-.13.13-.34 0-.47l-3.294-3.305zM1.62 11.2a.333.333 0 0 0-.56.158L.056 15.543a.333.333 0 0 0 .402.401l4.181-1a.333.333 0 0 0 .158-.56L1.62 11.2zM15.467 1.95L14.05.532a1.667 1.667 0 0 0-2.354 0l-.946.945a.333.333 0 0 0 0 .471l3.3 3.3c.13.13.341.13.472 0l.944-.946a1.667 1.667 0 0 0 0-2.354z"/>
    </g>
</svg>
