<svg xmlns="http://www.w3.org/2000/svg" width="18" height="18" viewBox="0 0 18 18">
    <g fill="#1AD996" fill-rule="evenodd">
        <path d="M17.524 14.825l-2.25-3.885a.188.188 0 0 0-.329.008 3.497 3.497 0 0 1-3.238 1.91.185.185 0 0 0-.143.06 3.398 3.398 0 0 1-.722.573.188.188 0 0 0-.065.256l2.207 3.734a.75.75 0 0 0 1.35-.129l.624-1.715 1.794.303a.75.75 0 0 0 .773-1.115zM6.437 12.918a.187.187 0 0 0-.143-.058 3.5 3.5 0 0 1-3.238-1.91.188.188 0 0 0-.33-.008l-2.25 3.886a.75.75 0 0 0 .774 1.115l1.793-.304.625 1.717a.75.75 0 0 0 1.35.125l2.302-3.896a3.544 3.544 0 0 1-.883-.667z"/>
        <path fill-rule="nonzero" d="M11.11 11.625a2.377 2.377 0 0 0 2.983-2.983 2.378 2.378 0 0 0 0-4.22 2.377 2.377 0 0 0-2.983-2.983 2.378 2.378 0 0 0-4.22 0A2.377 2.377 0 0 0 3.905 4.42a2.377 2.377 0 0 0 0 4.22 2.377 2.377 0 0 0 2.984 2.985 2.377 2.377 0 0 0 4.22 0zM6.443 6.849a1.513 1.513 0 1 1 2.14-2.139l.284.285a.188.188 0 0 0 .266 0l.285-.285a1.513 1.513 0 1 1 2.139 2.139L9.519 8.975a.715.715 0 0 1-1.038 0L6.443 6.849z"/>
    </g>
</svg>
