<svg xmlns="http://www.w3.org/2000/svg" width="18" height="18" viewBox="0 0 18 18">
    <path fill="#16274A" fill-rule="nonzero" d="M16.816 7.322l-.95-.337a1.03 1.03 0 0 1-.585-1.414l.432-.91a1.782 1.782 0 0 0-2.373-2.373l-.91.432a1.031 1.031 0 0 1-1.414-.586l-.338-.949a1.782 1.782 0 0 0-3.357 0l-.337.95a1.031 1.031 0 0 1-1.414.585l-.91-.433a1.782 1.782 0 0 0-2.373 2.374l.432.91a1.031 1.031 0 0 1-.585 1.415l-.95.337a1.781 1.781 0 0 0 0 3.356l.95.338a1.03 1.03 0 0 1 .585 1.414l-.432.91a1.782 1.782 0 0 0 2.373 2.373l.91-.432a1.03 1.03 0 0 1 1.414.586l.338.949a1.782 1.782 0 0 0 3.356 0l.338-.95a1.03 1.03 0 0 1 1.414-.585l.91.432a1.782 1.782 0 0 0 2.373-2.374l-.432-.91a1.03 1.03 0 0 1 .585-1.413l.95-.338a1.781 1.781 0 0 0 0-3.357zM9 12.59a3.698 3.698 0 0 1-3.33-2.208A3.61 3.61 0 0 1 7.62 5.67c1.838-.736 3.929.13 4.71 1.95a3.61 3.61 0 0 1-1.95 4.71c-.437.18-.907.268-1.38.259z" opacity=".7"/>
</svg>
