<svg xmlns="http://www.w3.org/2000/svg" width="16" height="15" viewBox="0 0 16 15">
    <g fill="#1AD996" fill-rule="evenodd">
        <path d="M11.848 8.74l-.364-.354a.325.325 0 0 0-.452 0l-1.807 1.765a.307.307 0 0 0 0 .442l.365.356a.308.308 0 0 1 .082.286c-.199.92.037 1.877.642 2.607A3.226 3.226 0 0 0 12.79 15c.346 0 .69-.055 1.018-.161a.316.316 0 0 0 .212-.224.308.308 0 0 0-.084-.294l-1.567-1.53a.309.309 0 0 1-.094-.222v-.882c0-.172.143-.312.32-.312h.903c.084 0 .166.033.226.092L15.296 13a.325.325 0 0 0 .299.083.317.317 0 0 0 .23-.204 3.065 3.065 0 0 0-.631-3.08 3.241 3.241 0 0 0-3.054-.982.321.321 0 0 1-.292-.076zM7.415 4.412l-.365-.356a.308.308 0 0 1-.082-.286A3.077 3.077 0 0 0 5.962.787 3.253 3.253 0 0 0 2.808.17a.315.315 0 0 0-.207.226.308.308 0 0 0 .087.291L4.26 2.224c.06.058.094.138.094.22v.884a.316.316 0 0 1-.32.313h-.905a.324.324 0 0 1-.226-.092l-1.567-1.53a.325.325 0 0 0-.301-.082.317.317 0 0 0-.23.207 3.066 3.066 0 0 0 .65 3.062 3.242 3.242 0 0 0 3.042.975.325.325 0 0 1 .293.08l.365.358a.325.325 0 0 0 .453 0l1.807-1.765a.307.307 0 0 0 0-.442z"/>
        <path d="M11.85 6.262a.325.325 0 0 1 .293-.08 3.242 3.242 0 0 0 3.044-.976 3.066 3.066 0 0 0 .647-3.065.317.317 0 0 0-.229-.207.325.325 0 0 0-.3.082L13.736 3.55a.324.324 0 0 1-.227.092h-.902a.316.316 0 0 1-.32-.313v-.884c0-.082.034-.162.093-.22L13.952.687a.308.308 0 0 0 .085-.291.315.315 0 0 0-.209-.225 3.253 3.253 0 0 0-3.153.616 3.077 3.077 0 0 0-1.007 2.984.308.308 0 0 1-.081.286l-4.8 4.684a.321.321 0 0 1-.294.08 3.241 3.241 0 0 0-3.054.983 3.065 3.065 0 0 0-.631 3.08.325.325 0 0 0 .536.116l1.574-1.537a.324.324 0 0 1 .224-.088h.905c.177 0 .32.14.32.313v.883a.309.309 0 0 1-.094.222l-1.567 1.529a.308.308 0 0 0-.084.294c.026.105.106.19.212.223.327.107.67.16 1.016.161a3.226 3.226 0 0 0 2.476-1.158c.605-.73.84-1.688.642-2.607a.304.304 0 0 1 .082-.286l4.8-4.687z"/>
    </g>
</svg>
