<svg xmlns="http://www.w3.org/2000/svg" width="233.383" height="189.989" viewBox="0 0 233.383 189.989">
    <defs>
        <style>
            .cls-1{fill:#163182}.cls-2,.cls-3,.cls-5,.cls-6,.cls-8,.cls-9{fill:none;stroke-miterlimit:10}.cls-2,.cls-3{stroke:#163182}.cls-2,.cls-5,.cls-8{stroke-width:2.06px}.cls-3{stroke-width:1.164px}.cls-4{fill:#005fab}.cls-5,.cls-6{stroke:#005fab}.cls-6,.cls-9{stroke-width:1.163px}.cls-7{fill:#129bdb}.cls-8,.cls-9{stroke:#129bdb}.cls-10{fill:#ffdf00}
        </style>
    </defs>
    <g id="Group_254" data-name="Group 254" transform="translate(-979.018 -1141.461)">
        <g id="Group_252" data-name="Group 252" transform="translate(1043.992 1142.063)">
            <path id="Path_167" d="M92.889 21.536c5.435-3.959 40.665-12.864 55.408 22.322 0 0 .618 1.33-.53.543-9.024-16.57-34.935-29.672-52.8-21.962-3.4 1.611-2.078-.9-2.078-.9" class="cls-1" data-name="Path 167" transform="translate(-75.376 -4.892)"/>
            <path id="Path_168" d="M92.889 21.536c5.435-3.959 40.665-12.864 55.408 22.322 0 0 .618 1.33-.53.543-9.024-16.57-34.935-29.672-52.8-21.962-3.399 1.611-2.078-.903-2.078-.903z" class="cls-2" data-name="Path 168" transform="translate(-75.376 -4.892)"/>
            <path id="Path_169" d="M130.729 7.467c-2.01 3.007-1.862 6.633.33 8.1s5.6.216 7.61-2.791 1.862-6.632-.33-8.1-5.6-.217-7.61 2.79" class="cls-1" data-name="Path 169" transform="translate(-77.63 -4.063)"/>
            <path id="Path_170" d="M130.729 7.467c-2.01 3.007-1.862 6.633.33 8.1s5.6.216 7.61-2.791 1.862-6.632-.33-8.1-5.599-.216-7.61 2.791z" class="cls-3" data-name="Path 170" transform="translate(-77.63 -4.063)"/>
            <path id="Path_171" d="M158.964 38.773c1.046 6.644-7.094 42.058-45.129 39.136 0 0-1.466-.057-.242-.72 18.861-.476 42.338-17.562 43.62-36.977.116-3.761 1.751-1.439 1.751-1.439" class="cls-4" data-name="Path 171" transform="translate(-76.634 -6.152)"/>
            <path id="Path_172" d="M158.964 38.773c1.046 6.644-7.094 42.058-45.129 39.136 0 0-1.466-.057-.242-.72 18.861-.476 42.338-17.562 43.62-36.977.116-3.761 1.751-1.439 1.751-1.439z" class="cls-5" data-name="Path 172" transform="translate(-76.634 -6.152)"/>
            <path id="Path_173" d="M158.479 78.487c-.826-3.521-3.577-5.888-6.145-5.285s-3.979 3.947-3.153 7.467 3.579 5.888 6.146 5.285 3.979-3.946 3.152-7.467" class="cls-4" data-name="Path 173" transform="translate(-78.836 -8.305)"/>
            <path id="Path_174" d="M158.479 78.487c-.826-3.521-3.577-5.888-6.145-5.285s-3.979 3.947-3.153 7.467 3.579 5.888 6.146 5.285 3.979-3.946 3.152-7.467z" class="cls-6" data-name="Path 174" transform="translate(-78.836 -8.305)"/>
            <path id="Path_175" d="M110.511 88.422c-6.27-2.433-32.8-27.261-11.166-58.682 0 0 .786-1.237.744.154C91.025 46.44 94 75.323 110.147 86.186c3.193 1.989.363 2.236.363 2.236" class="cls-7" data-name="Path 175" transform="translate(-75.276 -5.609)"/>
            <path id="Path_176" d="M110.511 88.422c-6.27-2.433-32.8-27.261-11.166-58.682 0 0 .786-1.237.744.154C91.025 46.44 94 75.323 110.147 86.186c3.193 1.989.364 2.236.364 2.236z" class="cls-8" data-name="Path 176" transform="translate(-75.276 -5.609)"/>
            <path id="Path_177" d="M77.873 60c-3.085 1.886-4.471 5.241-3.093 7.492s4.992 2.543 8.077.656 4.471-5.242 3.1-7.492-4.998-2.548-8.084-.656" class="cls-7" data-name="Path 177" transform="translate(-74.246 -7.423)"/>
            <path id="Path_178" d="M77.873 60c-3.085 1.886-4.471 5.241-3.093 7.492s4.992 2.543 8.077.656 4.471-5.242 3.1-7.492-4.998-2.548-8.084-.656z" class="cls-9" data-name="Path 178" transform="translate(-74.246 -7.423)"/>
            <path id="Path_179" d="M140.928 50.732c-7.123-8.106-17.086-12.444-26.395-17.475a3.327 3.327 0 0 0-4.838 1.967c-1.355 5.737-1.612 11.754-2.751 17.569-.681 3.47-2.092 10.938 1.833 13.237 4.178 2.449 10.792-.956 14.639-2.514 6.185-2.5 12.409-3.466 17.512-8.126 3.143-2.869-1.528-7.515-4.657-4.658-3.813 3.481-8.838 4.425-13.579 6.039-3.086 1.051-8.462 4.356-11.377 3.241l2.3 2.3c-1.5-3.719-.419-7.466.405-11.264 1.01-4.652.938-9.461 2.026-14.073l-4.837 1.967c8.81 4.763 18.32 8.774 25.062 16.447 2.807 3.2 7.448-1.48 4.657-4.658" class="cls-10" data-name="Path 179" transform="translate(-76.205 -5.831)"/>
        </g>
        <g id="Group_253" data-name="Group 253" transform="translate(979.018 1230.401)">
            <path id="Path_180" d="M24.129 155a18.642 18.642 0 0 1-13.4-5.323A16.9 16.9 0 0 1 5.125 136.9l.373-.374H9.1l.374.374a13.277 13.277 0 0 0 4.3 9.9 14.486 14.486 0 0 0 10.362 4.129 18.669 18.669 0 0 0 11.38-3.529c3.064-2.313 4.621-5.149 4.621-8.429 0-2.8-1.369-5.179-4.072-7.074-2.7-1.935-6.388-3.124-10.978-3.536-5.747-.482-10.418-2.144-13.882-4.941a13.017 13.017 0 0 1-5.27-10.459c0-4.058 1.8-7.579 5.358-10.461a19.83 19.83 0 0 1 12.837-4.313 21.94 21.94 0 0 1 13.82 4.487c3.8 3 5.724 6.676 5.724 10.915l-.374.373h-3.6l-.374-.373c0-3.041-1.492-5.694-4.439-7.889a17.338 17.338 0 0 0-10.758-3.348 15.807 15.807 0 0 0-9.854 3.163 9.115 9.115 0 0 0-3.993 7.446c0 2.9 1.361 5.271 4.162 7.255 2.867 1.992 6.713 3.211 11.427 3.624 5.571.483 10.12 2.117 13.523 4.851a12.852 12.852 0 0 1 5.089 10.281c0 4.422-2.015 8.245-5.994 11.362A22.649 22.649 0 0 1 24.129 155" class="cls-4" data-name="Path 180" transform="translate(-5.025 -98.184)"/>
            <path id="Path_181" d="M76.776 154.185l-.308-.162L63.6 135.3l-6.479 6.185v12.33l-.374.373H53.6l-.374-.373v-46.582l.374-.374h3.142l.374.374v29.593L74.4 120.082l.259-.1h3.928l.257.643-12.657 12.031 14.2 20.946-.31.583z" class="cls-4" data-name="Path 181" transform="translate(-7.98 -98.717)"/>
            <path id="Path_182" d="M86.882 167.612l-.374-.374v-2.354l.374-.374h2.435c1.072 0 2.292-.927 3.627-2.754a30.818 30.818 0 0 0 3.751-7.4l-12.754-33.012.35-.508H87.2l.347.237 11.04 28.4 10.965-28.4.348-.237h3.063l.348.508-14.377 37.075a19.713 19.713 0 0 1-3.925 6.64 7.415 7.415 0 0 1-5.142 2.552z" class="cls-4" data-name="Path 182" transform="translate(-9.867 -99.576)"/>
            <path id="Path_183" d="M120.293 154.185l-.374-.373v-46.579l.374-.374h3.142l.374.374v46.578l-.374.373z" class="cls-4" data-name="Path 183" transform="translate(-12.078 -98.717)"/>
            <path id="Path_184" d="M133.034 154.185l-.373-.373v-46.579l.373-.374h3.141l.374.374v46.578l-.374.373z" class="cls-4" data-name="Path 184" transform="translate(-12.861 -98.717)"/>
            <path id="Path_185" d="M145.745 154.185l-.372-.373v-46.579l.372-.374H164.2c5.019 0 9.374 2.295 12.942 6.818a25.623 25.623 0 0 1 5.264 16.256 28.056 28.056 0 0 1-5.258 17.112c-3.569 4.74-7.925 7.141-12.948 7.141zm18.459-3.73c3.886 0 7.272-2.008 10.065-5.97a24.714 24.714 0 0 0 4.252-14.552 22.173 22.173 0 0 0-4.245-13.678c-2.793-3.705-6.181-5.585-10.072-5.585H149.26v39.785z" class="cls-4" data-name="Path 185" transform="translate(-13.642 -98.717)"/>
            <path id="Path_186" d="M204.285 156.145a13.842 13.842 0 0 1-11.125-5c-2.772-3.352-4.174-7.819-4.174-13.278s1.4-9.926 4.171-13.278a13.848 13.848 0 0 1 11.128-5.005 14.385 14.385 0 0 1 11.115 4.6c2.776 3.044 4.182 7.143 4.182 12.192v1.492l-.374.373H192.88c.056 4.282 1.111 7.749 3.137 10.314a10.042 10.042 0 0 0 8.269 3.943 12.553 12.553 0 0 0 7.022-2.059 11.034 11.034 0 0 0 4.409-5.548l.351-.248h3.141l.369.435a12.131 12.131 0 0 1-5.177 7.939 16.9 16.9 0 0 1-10.116 3.134m11.41-21.651v-.8a11.585 11.585 0 0 0-3.654-7.584 11.239 11.239 0 0 0-7.755-3.039 10.817 10.817 0 0 0-7.677 3.117 11.884 11.884 0 0 0-3.732 7.852v.459z" class="cls-4" data-name="Path 186" transform="translate(-16.322 -99.499)"/>
            <path id="Path_187" d="M235.744 155.044l-.349-.243-12.49-33.463.35-.5h2.906l.348.24 11.03 28.908 10.421-28.9.351-.247h2.989l.351.5L239.4 154.8l-.352.244z" class="cls-4" data-name="Path 187" transform="translate(-18.406 -99.576)"/>
            <path id="Path_188" d="M17.154 184.529a5.715 5.715 0 0 1 1.856 3.664h-2.131a4.438 4.438 0 0 0-1.418-2.467 4.448 4.448 0 0 0-2.982-.91 4.738 4.738 0 0 0-3.779 1.675 7.719 7.719 0 0 0-1.441 5.13 7.555 7.555 0 0 0 1.3 4.6 4.514 4.514 0 0 0 3.879 1.761 4.079 4.079 0 0 0 3.615-1.854 7.132 7.132 0 0 0 .981-2.567h2.131a7.3 7.3 0 0 1-1.868 4.267 6.611 6.611 0 0 1-5.125 2.074A6.72 6.72 0 0 1 7.5 198.2q-2.485-2.248-2.485-6.948a8.949 8.949 0 0 1 1.869-5.852 6.79 6.79 0 0 1 5.569-2.48 6.5 6.5 0 0 1 4.7 1.611" class="cls-7" data-name="Path 188" transform="translate(-5.018 -103.391)"/>
            <path id="Path_189" d="M31.289 189.187a5.92 5.92 0 0 1 1.56 4.449 7.662 7.662 0 0 1-1.374 4.692 4.957 4.957 0 0 1-4.264 1.851 4.8 4.8 0 0 1-3.828-1.637 6.49 6.49 0 0 1-1.418-4.4 7.024 7.024 0 0 1 1.493-4.712 5.005 5.005 0 0 1 4.014-1.755 5.275 5.275 0 0 1 3.817 1.513m-1.228 7.808a7.436 7.436 0 0 0 .723-3.3 5.927 5.927 0 0 0-.521-2.674 2.93 2.93 0 0 0-2.846-1.622 2.8 2.8 0 0 0-2.606 1.38 6.439 6.439 0 0 0-.816 3.33 5.593 5.593 0 0 0 .816 3.123 2.859 2.859 0 0 0 2.585 1.251 2.693 2.693 0 0 0 2.665-1.486" class="cls-7" data-name="Path 189" transform="translate(-6.059 -103.683)"/>
            <path id="Path_190" d="M42.416 192.657a1.073 1.073 0 0 0 .912-.571 1.742 1.742 0 0 0 .131-.757 1.615 1.615 0 0 0-.718-1.472 3.841 3.841 0 0 0-2.055-.456 2.614 2.614 0 0 0-2.193.836 2.77 2.77 0 0 0-.471 1.379h-1.844a3.4 3.4 0 0 1 1.41-3.03 5.777 5.777 0 0 1 3.142-.853 6.4 6.4 0 0 1 3.368.789 2.68 2.68 0 0 1 1.284 2.458v6.767a.872.872 0 0 0 .126.495.61.61 0 0 0 .533.186c.088 0 .187-.007.3-.016s.227-.029.352-.049v1.459a5.488 5.488 0 0 1-.7.163 5.046 5.046 0 0 1-.659.033 1.627 1.627 0 0 1-1.484-.724 2.788 2.788 0 0 1-.34-1.085 5.038 5.038 0 0 1-1.736 1.37 5.355 5.355 0 0 1-2.491.583 3.718 3.718 0 0 1-2.677-.994 3.291 3.291 0 0 1-1.037-2.481 3.2 3.2 0 0 1 1.021-2.531 4.888 4.888 0 0 1 2.68-1.107zm-4.162 5.333a2.32 2.32 0 0 0 1.483.495 4.52 4.52 0 0 0 2.021-.485 2.712 2.712 0 0 0 1.647-2.617V193.8a3.384 3.384 0 0 1-.933.386 7.961 7.961 0 0 1-1.118.22l-1.194.154a4.65 4.65 0 0 0-1.616.448 1.747 1.747 0 0 0-.917 1.642 1.618 1.618 0 0 0 .626 1.345" class="cls-7" data-name="Path 190" transform="translate(-6.895 -103.686)"/>
            <path id="Path_191" d="M57.2 188.64a4.621 4.621 0 0 1 1.5 3.324h-1.926a3.549 3.549 0 0 0-.8-1.806 2.538 2.538 0 0 0-2.01-.718 2.782 2.782 0 0 0-2.7 1.84 7.317 7.317 0 0 0-.527 2.948 5.53 5.53 0 0 0 .747 2.969 2.9 2.9 0 0 0 4.3.457 4.115 4.115 0 0 0 .994-2.049H58.7a4.648 4.648 0 0 1-5.02 4.5 4.5 4.5 0 0 1-3.68-1.686 6.431 6.431 0 0 1-1.373-4.206 7.082 7.082 0 0 1 1.5-4.817 4.868 4.868 0 0 1 3.834-1.722 5.135 5.135 0 0 1 3.234.966" class="cls-7" data-name="Path 191" transform="translate(-7.697 -103.683)"/>
            <path id="Path_192" d="M61.462 183.328h1.977v6.01a5.715 5.715 0 0 1 1.265-1.25 4.252 4.252 0 0 1 2.383-.626 3.525 3.525 0 0 1 3.47 1.789 6.089 6.089 0 0 1 .495 2.709v7.54h-2.034v-7.41a4.142 4.142 0 0 0-.328-1.9 2.108 2.108 0 0 0-2.023-.964 3.368 3.368 0 0 0-2.23.843q-1 .846-1 3.194v6.237h-1.975z" class="cls-7" data-name="Path 192" transform="translate(-8.486 -103.416)"/>
            <path id="Path_193" d="M74.793 183.385H76.8v2.238h-2.007zm0 4.421H76.8V199.5h-2.007z" class="cls-7" data-name="Path 193" transform="translate(-9.305 -103.419)"/>
            <path id="Path_194" d="M80.118 188.019H82v1.669a5.267 5.267 0 0 1 1.769-1.48 4.683 4.683 0 0 1 2.075-.451 3.424 3.424 0 0 1 3.383 1.746 6.183 6.183 0 0 1 .482 2.729v7.537H87.7v-7.405a3.969 3.969 0 0 0-.32-1.732 1.927 1.927 0 0 0-1.91-1.1 3.925 3.925 0 0 0-1.153.144 2.963 2.963 0 0 0-1.428.966 2.9 2.9 0 0 0-.642 1.2 8.086 8.086 0 0 0-.149 1.772v6.153h-1.98z" class="cls-7" data-name="Path 194" transform="translate(-9.633 -103.688)"/>
            <path id="Path_195" d="M99.937 188.495a5.415 5.415 0 0 1 1.138 1.12v-1.48h1.825v10.683a7.9 7.9 0 0 1-.656 3.532q-1.226 2.391-4.632 2.392a5.676 5.676 0 0 1-3.185-.85 3.32 3.32 0 0 1-1.446-2.66h2.01a2.239 2.239 0 0 0 .568 1.217 3.588 3.588 0 0 0 5.058-.945 9.033 9.033 0 0 0 .383-3.365 3.881 3.881 0 0 1-1.422 1.337 5.1 5.1 0 0 1-5.531-.916q-1.429-1.354-1.428-4.483a6.8 6.8 0 0 1 1.439-4.606 4.443 4.443 0 0 1 3.474-1.656 4.264 4.264 0 0 1 2.407.679m.242 2.116a2.869 2.869 0 0 0-2.284-1.052 2.82 2.82 0 0 0-2.841 1.953 7.661 7.661 0 0 0-.4 2.73 4.864 4.864 0 0 0 .8 3.023 2.588 2.588 0 0 0 2.154 1.036 3.032 3.032 0 0 0 2.984-1.92 6.2 6.2 0 0 0 .481-2.533 4.921 4.921 0 0 0-.9-3.238" class="cls-7" data-name="Path 195" transform="translate(-10.401 -103.691)"/>
            <path id="Path_196" d="M115.2 188.564a3.88 3.88 0 0 1-.346-1.545 3.457 3.457 0 0 1 1.049-2.583 3.855 3.855 0 0 1 2.815-1.027 3.521 3.521 0 0 1 2.62.954 3.136 3.136 0 0 1 .941 2.281 4.09 4.09 0 0 1-.972 2.708 9.118 9.118 0 0 1-1.9 1.566l2.93 3.515c.2-.586.33-1.022.407-1.311s.153-.691.23-1.212h1.878a12.122 12.122 0 0 1-.741 2.967c-.373.949-.557 1.329-.557 1.145l2.858 3.479h-2.543l-1.509-1.843a7.838 7.838 0 0 1-1.644 1.426 5.653 5.653 0 0 1-3 .789 4.5 4.5 0 0 1-3.644-1.352 4.616 4.616 0 0 1-1.14-3.056 4.41 4.41 0 0 1 1.106-3.062 12.254 12.254 0 0 1 2.531-1.864 8.241 8.241 0 0 1-1.367-1.975m4.747 9.017a4.6 4.6 0 0 0 1.348-1.25l-3.637-4.442a11.166 11.166 0 0 0-2.009 1.579 2.943 2.943 0 0 0-.719 2.009 2.307 2.307 0 0 0 .934 1.973 3.3 3.3 0 0 0 2 .692 3.778 3.778 0 0 0 2.085-.56m-.154-9.132a2.482 2.482 0 0 0 .641-1.653 1.75 1.75 0 0 0-.472-1.227 1.628 1.628 0 0 0-1.263-.516 1.7 1.7 0 0 0-1.924 1.719 2.441 2.441 0 0 0 .368 1.281 11.916 11.916 0 0 0 1.23 1.589 8.455 8.455 0 0 0 1.421-1.194" class="cls-7" data-name="Path 196" transform="translate(-11.649 -103.421)"/>
            <path id="Path_197" d="M136.588 183.385h11.192v1.974h-9.007v4.893h7.921v1.918h-7.921v7.33h-2.185z" class="cls-7" data-name="Path 197" transform="translate(-13.102 -103.419)"/>
            <path id="Path_198" d="M159.2 189.187a5.927 5.927 0 0 1 1.559 4.449 7.668 7.668 0 0 1-1.375 4.692 4.957 4.957 0 0 1-4.265 1.851 4.8 4.8 0 0 1-3.827-1.637 6.5 6.5 0 0 1-1.419-4.4 7.015 7.015 0 0 1 1.5-4.712 5 5 0 0 1 4.014-1.755 5.283 5.283 0 0 1 3.818 1.513m-1.229 7.808a7.435 7.435 0 0 0 .722-3.3 5.927 5.927 0 0 0-.52-2.674 2.931 2.931 0 0 0-2.846-1.622 2.8 2.8 0 0 0-2.607 1.38 6.447 6.447 0 0 0-.814 3.33 5.6 5.6 0 0 0 .814 3.123 2.861 2.861 0 0 0 2.586 1.251 2.694 2.694 0 0 0 2.665-1.486" class="cls-7" data-name="Path 198" transform="translate(-13.918 -103.683)"/>
            <path id="Path_199" d="M164.114 188.019h1.878v2.03a4.5 4.5 0 0 1 1.131-1.443 2.938 2.938 0 0 1 2.076-.85c.037 0 .1 0 .187.011s.237.023.451.044v2.084a3.073 3.073 0 0 0-.649-.053 2.818 2.818 0 0 0-2.295.958 3.343 3.343 0 0 0-.8 2.209v6.759h-1.977z" class="cls-7" data-name="Path 199" transform="translate(-14.794 -103.688)"/>
            <path id="Path_200" d="M172.037 188.019h1.955v1.669a6.474 6.474 0 0 1 1.275-1.261 3.837 3.837 0 0 1 2.219-.67 3.492 3.492 0 0 1 2.262.691 3.568 3.568 0 0 1 .878 1.163 4.274 4.274 0 0 1 1.549-1.4 4.323 4.323 0 0 1 2-.455 3.272 3.272 0 0 1 3.23 1.711 5.615 5.615 0 0 1 .46 2.479v7.822h-2.052v-8.163a1.9 1.9 0 0 0-.588-1.611 2.324 2.324 0 0 0-1.435-.439 2.84 2.84 0 0 0-2 .78 3.417 3.417 0 0 0-.84 2.6v6.835h-2.009v-7.67a3.993 3.993 0 0 0-.286-1.744 1.744 1.744 0 0 0-1.681-.823 2.9 2.9 0 0 0-2.038.867 4.25 4.25 0 0 0-.916 3.139v6.229h-1.978z" class="cls-7" data-name="Path 200" transform="translate(-15.281 -103.688)"/>
            <path id="Path_201" d="M198.271 192.657a1.073 1.073 0 0 0 .912-.571 1.726 1.726 0 0 0 .132-.757 1.617 1.617 0 0 0-.718-1.472 3.851 3.851 0 0 0-2.057-.456 2.609 2.609 0 0 0-2.191.836 2.761 2.761 0 0 0-.473 1.379h-1.845a3.4 3.4 0 0 1 1.41-3.03 5.778 5.778 0 0 1 3.143-.853 6.4 6.4 0 0 1 3.368.789 2.677 2.677 0 0 1 1.283 2.458v6.767a.864.864 0 0 0 .127.495.611.611 0 0 0 .534.186c.086 0 .186-.007.3-.016s.227-.029.352-.049v1.459a5.488 5.488 0 0 1-.7.163 5.036 5.036 0 0 1-.659.033 1.624 1.624 0 0 1-1.483-.724 2.8 2.8 0 0 1-.342-1.085 5.039 5.039 0 0 1-1.734 1.37 5.364 5.364 0 0 1-2.494.583 3.713 3.713 0 0 1-2.674-.994 3.286 3.286 0 0 1-1.039-2.481 3.194 3.194 0 0 1 1.022-2.531 4.888 4.888 0 0 1 2.681-1.107zm-4.163 5.333a2.327 2.327 0 0 0 1.485.495 4.513 4.513 0 0 0 2.021-.483 2.711 2.711 0 0 0 1.647-2.617V193.8a3.4 3.4 0 0 1-.932.386 7.96 7.96 0 0 1-1.12.22l-1.194.154a4.637 4.637 0 0 0-1.615.44 1.746 1.746 0 0 0-.918 1.642 1.62 1.62 0 0 0 .626 1.345" class="cls-7" data-name="Path 201" transform="translate(-16.471 -103.686)"/>
            <path id="Path_202" d="M205.651 184.543h2v3.278h1.878v1.612h-1.879v7.667a.826.826 0 0 0 .416.821 1.776 1.776 0 0 0 .77.122c.1 0 .2 0 .309-.008s.237-.017.384-.037v1.57a4.62 4.62 0 0 1-.709.141 6.8 6.8 0 0 1-.8.044 2.153 2.153 0 0 1-1.878-.707 3.158 3.158 0 0 1-.493-1.838v-7.778h-1.592v-1.612h1.592z" class="cls-7" data-name="Path 202" transform="translate(-17.248 -103.49)"/>
            <path id="Path_203" d="M211.993 183.385H214v2.238h-2.01zm0 4.421H214V199.5h-2.01z" class="cls-7" data-name="Path 203" transform="translate(-17.736 -103.419)"/>
            <path id="Path_204" d="M225.788 189.187a5.924 5.924 0 0 1 1.56 4.449 7.662 7.662 0 0 1-1.375 4.692 4.956 4.956 0 0 1-4.265 1.851 4.8 4.8 0 0 1-3.826-1.637 6.491 6.491 0 0 1-1.42-4.4 7.015 7.015 0 0 1 1.5-4.712 5 5 0 0 1 4.013-1.755 5.278 5.278 0 0 1 3.817 1.513m-1.229 7.808a7.435 7.435 0 0 0 .722-3.3 5.941 5.941 0 0 0-.519-2.674 2.934 2.934 0 0 0-2.847-1.622 2.8 2.8 0 0 0-2.606 1.38 6.438 6.438 0 0 0-.815 3.33 5.593 5.593 0 0 0 .815 3.123 2.86 2.86 0 0 0 2.585 1.251 2.693 2.693 0 0 0 2.665-1.486" class="cls-7" data-name="Path 204" transform="translate(-18.01 -103.683)"/>
            <path id="Path_205" d="M230.647 188.019h1.878v1.669a5.267 5.267 0 0 1 1.769-1.48 4.683 4.683 0 0 1 2.075-.451 3.427 3.427 0 0 1 3.385 1.746 6.227 6.227 0 0 1 .481 2.729v7.537h-2.008v-7.405a4.026 4.026 0 0 0-.319-1.732 1.931 1.931 0 0 0-1.911-1.1 3.93 3.93 0 0 0-1.154.144 2.967 2.967 0 0 0-1.428.966 2.91 2.91 0 0 0-.642 1.2 8.1 8.1 0 0 0-.148 1.772v6.153h-1.978z" class="cls-7" data-name="Path 205" transform="translate(-18.882 -103.688)"/>
            <path id="Path_206" d="M245.106 196.08a2.822 2.822 0 0 0 .5 1.512 3.2 3.2 0 0 0 2.645.955 3.961 3.961 0 0 0 1.974-.479 1.574 1.574 0 0 0 .852-1.474 1.264 1.264 0 0 0-.681-1.153 8.338 8.338 0 0 0-1.719-.558l-1.6-.393a7.95 7.95 0 0 1-2.257-.835 2.483 2.483 0 0 1-1.294-2.214 3.364 3.364 0 0 1 1.22-2.7 4.907 4.907 0 0 1 3.277-1.03 4.59 4.59 0 0 1 3.886 1.556 3.361 3.361 0 0 1 .724 2.13h-1.869a2.238 2.238 0 0 0-.482-1.213 3.142 3.142 0 0 0-2.418-.773 2.953 2.953 0 0 0-1.737.426 1.32 1.32 0 0 0-.589 1.125 1.382 1.382 0 0 0 .775 1.225 4.671 4.671 0 0 0 1.32.48l1.333.319a10.359 10.359 0 0 1 2.91 1 2.643 2.643 0 0 1 1.153 2.379 3.6 3.6 0 0 1-1.208 2.709 5.179 5.179 0 0 1-3.675 1.14 4.972 4.972 0 0 1-3.764-1.189 4.461 4.461 0 0 1-1.184-2.944z" class="cls-7" data-name="Path 206" transform="translate(-19.654 -103.685)"/>
        </g>
    </g>
</svg>
