<svg xmlns="http://www.w3.org/2000/svg" width="111.5" height="91.074" viewBox="0 0 111.5 91.074">
    <defs>
        <style>
            .cls-1{fill:#163182}.cls-2,.cls-3,.cls-5,.cls-6,.cls-8,.cls-9{fill:none;stroke-miterlimit:10}.cls-2,.cls-3{stroke:#163182}.cls-2,.cls-5,.cls-8{stroke-width:2.06px}.cls-3{stroke-width:1.164px}.cls-4{fill:#005fab}.cls-5,.cls-6{stroke:#005fab}.cls-6,.cls-9{stroke-width:1.163px}.cls-7{fill:#129bdb}.cls-8,.cls-9{stroke:#129bdb}.cls-10{fill:#ffdf00}
        </style>
    </defs>
    <g id="Group_256" data-name="Group 256" transform="translate(0 .593)">
        <g id="Group_252" data-name="Group 252" transform="translate(31.042)">
            <path id="Path_167" d="M92.757 19.454c2.6-1.891 19.428-6.146 26.471 10.664 0 0 .3.635-.253.26-4.311-7.916-16.69-14.176-25.225-10.493-1.624.77-.993-.431-.993-.431" class="cls-1" data-name="Path 167" transform="translate(-84.39 -11.502)"/>
            <path id="Path_168" d="M92.757 19.454c2.6-1.891 19.428-6.146 26.471 10.664 0 0 .3.635-.253.26-4.311-7.916-16.69-14.176-25.225-10.493-1.624.77-.993-.431-.993-.431z" class="cls-2" data-name="Path 168" transform="translate(-84.39 -11.502)"/>
            <path id="Path_169" d="M129.99 5.689c-.96 1.437-.89 3.169.158 3.869s2.675.1 3.636-1.334.89-3.168-.158-3.869-2.675-.1-3.636 1.333" class="cls-1" data-name="Path 169" transform="translate(-104.621 -4.063)"/>
            <path id="Path_170" d="M129.99 5.689c-.96 1.437-.89 3.169.158 3.869s2.675.1 3.636-1.334.89-3.168-.158-3.869-2.676-.102-3.636 1.334z" class="cls-3" data-name="Path 170" transform="translate(-104.621 -4.063)"/>
            <path id="Path_171" d="M135.014 38.4c.5 3.174-3.389 20.093-21.561 18.7 0 0-.7-.027-.116-.344 9.011-.227 20.227-8.39 20.84-17.666.056-1.8.837-.687.837-.687" class="cls-4" data-name="Path 171" transform="translate(-95.681 -22.818)"/>
            <path id="Path_172" d="M135.014 38.4c.5 3.174-3.389 20.093-21.561 18.7 0 0-.7-.027-.116-.344 9.011-.227 20.227-8.39 20.84-17.666.056-1.797.837-.69.837-.69z" class="cls-5" data-name="Path 172" transform="translate(-95.681 -22.818)"/>
            <path id="Path_173" d="M153.5 75.678c-.395-1.682-1.709-2.813-2.936-2.525s-1.9 1.886-1.506 3.567 1.71 2.813 2.936 2.525 1.9-1.885 1.506-3.567" class="cls-4" data-name="Path 173" transform="translate(-115.45 -42.148)"/>
            <path id="Path_174" d="M153.5 75.678c-.395-1.682-1.709-2.813-2.936-2.525s-1.9 1.886-1.506 3.567 1.71 2.813 2.936 2.525 1.901-1.885 1.506-3.567z" class="cls-6" data-name="Path 174" transform="translate(-115.45 -42.148)"/>
            <path id="Path_175" d="M100.32 57.511c-3-1.162-15.671-13.024-5.335-28.036 0 0 .375-.591.356.074-4.33 7.905-2.907 21.7 4.805 26.894 1.525.95.174 1.068.174 1.068" class="cls-7" data-name="Path 175" transform="translate(-83.486 -17.947)"/>
            <path id="Path_176" d="M100.32 57.511c-3-1.162-15.671-13.024-5.335-28.036 0 0 .375-.591.356.074-4.33 7.905-2.907 21.7 4.805 26.894 1.526.95.174 1.068.174 1.068z" class="cls-8" data-name="Path 176" transform="translate(-83.486 -17.947)"/>
            <path id="Path_177" d="M75.979 59.347c-1.474.9-2.136 2.5-1.478 3.579s2.385 1.215 3.859.313 2.136-2.5 1.479-3.58-2.385-1.215-3.86-.313" class="cls-7" data-name="Path 177" transform="translate(-74.246 -34.229)"/>
            <path id="Path_178" d="M75.979 59.347c-1.474.9-2.136 2.5-1.478 3.579s2.385 1.215 3.859.313 2.136-2.5 1.479-3.58-2.386-1.215-3.86-.312z" class="cls-9" data-name="Path 178" transform="translate(-74.246 -34.229)"/>
            <path id="Path_179" d="M122.754 41.391c-3.4-3.873-8.163-5.945-12.61-8.349a1.59 1.59 0 0 0-2.311.94c-.647 2.741-.77 5.616-1.314 8.394-.326 1.658-1 5.226.876 6.324 2 1.17 5.156-.457 6.994-1.2 2.955-1.2 5.928-1.656 8.367-3.882 1.5-1.371-.73-3.59-2.225-2.225-1.822 1.663-4.223 2.114-6.487 2.885-1.474.5-4.043 2.081-5.435 1.548l1.1 1.1c-.716-1.777-.2-3.567.194-5.381.482-2.223.448-4.52.968-6.723l-2.311.94c4.209 2.276 8.752 4.192 11.974 7.858 1.341 1.528 3.558-.707 2.225-2.225" class="cls-10" data-name="Path 179" transform="translate(-91.833 -19.94)"/>
        </g>
        <g id="Group_253" data-name="Group 253" transform="translate(0 42.204)">
            <path id="Path_180" d="M14.2 125.329a8.906 8.906 0 0 1-6.4-2.543 8.075 8.075 0 0 1-2.678-6.105l.178-.181h1.72l.178.179a6.343 6.343 0 0 0 2.052 4.729 6.921 6.921 0 0 0 4.95 1.973 8.919 8.919 0 0 0 5.44-1.686 4.941 4.941 0 0 0 2.207-4.027 4.039 4.039 0 0 0-1.946-3.38 10.542 10.542 0 0 0-5.245-1.69 11.943 11.943 0 0 1-6.632-2.361 6.188 6.188 0 0 1 .042-9.995 9.474 9.474 0 0 1 6.133-2.06 10.482 10.482 0 0 1 6.6 2.144 6.488 6.488 0 0 1 2.735 5.215l-.178.178h-1.72l-.178-.178a4.629 4.629 0 0 0-2.121-3.769 8.283 8.283 0 0 0-5.14-1.6 7.552 7.552 0 0 0-4.697 1.513 4.355 4.355 0 0 0-1.907 3.557 4.111 4.111 0 0 0 1.989 3.466 11.21 11.21 0 0 0 5.459 1.731 11.737 11.737 0 0 1 6.461 2.318 6.14 6.14 0 0 1 2.431 4.912 6.727 6.727 0 0 1-2.863 5.428 10.821 10.821 0 0 1-6.861 2.232" class="cls-4" data-name="Path 180" transform="translate(-5.077 -98.184)"/>
            <path id="Path_181" d="M64.479 129.469l-.147-.077-6.148-8.946-3.1 2.955v5.89l-.179.178h-1.5l-.178-.178v-22.253l.178-.179h1.5l.179.179v14.138l8.254-8 .124-.05h1.877l.123.307-6.045 5.75 6.783 10.008-.148.279z" class="cls-4" data-name="Path 181" transform="translate(-31.611 -102.969)"/>
            <path id="Path_182" d="M85.346 143.183l-.179-.183v-1.12l.179-.178h1.163c.512 0 1.095-.443 1.733-1.316a14.723 14.723 0 0 0 1.792-3.533l-6.093-15.774.167-.243H85.5l.166.113 5.275 13.569 5.239-13.569.166-.113h1.463l.166.243-6.875 17.713a9.418 9.418 0 0 1-1.875 3.172 3.542 3.542 0 0 1-2.457 1.219z" class="cls-4" data-name="Path 182" transform="translate(-48.552 -110.679)"/>
            <path id="Path_183" d="M120.1 129.469l-.178-.178v-22.253l.178-.179h1.5l.178.179v22.253l-.178.178z" class="cls-4" data-name="Path 183" transform="translate(-68.398 -102.969)"/>
            <path id="Path_184" d="M132.839 129.469l-.178-.178v-22.253l.178-.179h1.5l.179.179v22.253l-.179.178z" class="cls-4" data-name="Path 184" transform="translate(-75.426 -102.969)"/>
            <path id="Path_185" d="M145.551 129.469l-.178-.178v-22.253l.178-.179h8.819a7.691 7.691 0 0 1 6.183 3.257 12.241 12.241 0 0 1 2.515 7.766 13.4 13.4 0 0 1-2.512 8.175 7.593 7.593 0 0 1-6.186 3.411zm8.819-1.782a5.833 5.833 0 0 0 4.809-2.852 11.807 11.807 0 0 0 2.031-6.952 10.593 10.593 0 0 0-2.028-6.535 5.922 5.922 0 0 0-4.812-2.668h-7.14v19.008z" class="cls-4" data-name="Path 185" transform="translate(-82.438 -102.969)"/>
            <path id="Path_186" d="M196.3 137.049a6.613 6.613 0 0 1-5.315-2.391 11.09 11.09 0 0 1 0-12.687 6.616 6.616 0 0 1 5.316-2.391 6.873 6.873 0 0 1 5.31 2.2 8.343 8.343 0 0 1 2 5.825v.713l-.178.178h-12.586a7.938 7.938 0 0 0 1.5 4.927 4.8 4.8 0 0 0 3.95 1.884 6 6 0 0 0 3.355-.984 5.272 5.272 0 0 0 2.107-2.65l.168-.118h1.5l.176.208a5.8 5.8 0 0 1-2.473 3.793 8.072 8.072 0 0 1-4.833 1.5m5.451-10.339v-.385A5.535 5.535 0 0 0 200 122.7a5.37 5.37 0 0 0-3.705-1.452 5.168 5.168 0 0 0-3.668 1.489 5.677 5.677 0 0 0-1.783 3.751v.219z" class="cls-4" data-name="Path 186" transform="translate(-106.496 -109.986)"/>
            <path id="Path_187" d="M229.039 137.179l-.167-.116-5.967-15.987.167-.24h1.389l.166.115 5.27 13.811 4.979-13.808.168-.118h1.427l.168.24-5.855 15.987-.168.116z" class="cls-4" data-name="Path 187" transform="translate(-125.205 -110.679)"/>
            <path id="Path_188" d="M10.816 183.688a2.731 2.731 0 0 1 .887 1.751h-1.018a2.12 2.12 0 0 0-.678-1.179 2.125 2.125 0 0 0-1.425-.435 2.264 2.264 0 0 0-1.807.8 3.688 3.688 0 0 0-.688 2.451 3.61 3.61 0 0 0 .621 2.2 2.156 2.156 0 0 0 1.853.841 1.949 1.949 0 0 0 1.727-.886 3.408 3.408 0 0 0 .47-1.231h1.018a3.49 3.49 0 0 1-.892 2.038 3.159 3.159 0 0 1-2.449.991 3.21 3.21 0 0 1-2.23-.813 5.043 5.043 0 0 1-.3-6.115 3.244 3.244 0 0 1 2.661-1.185 3.106 3.106 0 0 1 2.246.77" class="cls-7" data-name="Path 188" transform="translate(-5.018 -144.923)"/>
            <path id="Path_189" d="M26.419 188.4a2.829 2.829 0 0 1 .745 2.125 3.661 3.661 0 0 1-.656 2.242 2.368 2.368 0 0 1-2.037.884 2.294 2.294 0 0 1-1.829-.782 3.1 3.1 0 0 1-.678-2.1 3.356 3.356 0 0 1 .713-2.251 2.391 2.391 0 0 1 1.918-.839 2.52 2.52 0 0 1 1.824.723m-.587 3.73a3.552 3.552 0 0 0 .345-1.577 2.831 2.831 0 0 0-.249-1.277 1.4 1.4 0 0 0-1.36-.775 1.338 1.338 0 0 0-1.245.659 3.076 3.076 0 0 0-.39 1.591 2.672 2.672 0 0 0 .39 1.492 1.366 1.366 0 0 0 1.235.6 1.287 1.287 0 0 0 1.273-.71" class="cls-7" data-name="Path 189" transform="translate(-14.365 -147.547)"/>
            <path id="Path_190" d="M38.837 190.085a.513.513 0 0 0 .436-.273.832.832 0 0 0 .063-.362.771.771 0 0 0-.343-.7 1.834 1.834 0 0 0-.982-.218 1.249 1.249 0 0 0-1.048.4 1.324 1.324 0 0 0-.225.659h-.882a1.625 1.625 0 0 1 .673-1.447 2.76 2.76 0 0 1 1.5-.408 3.059 3.059 0 0 1 1.609.377 1.28 1.28 0 0 1 .613 1.174v3.233a.416.416 0 0 0 .06.236.292.292 0 0 0 .255.089c.042 0 .089 0 .142-.008l.168-.023v.7a2.614 2.614 0 0 1-.336.078 2.4 2.4 0 0 1-.315.016.777.777 0 0 1-.709-.346 1.332 1.332 0 0 1-.162-.518 2.407 2.407 0 0 1-.83.655 2.558 2.558 0 0 1-1.19.278 1.777 1.777 0 0 1-1.279-.475 1.572 1.572 0 0 1-.5-1.185 1.527 1.527 0 0 1 .488-1.209 2.335 2.335 0 0 1 1.28-.529zm-1.989 2.548a1.108 1.108 0 0 0 .708.236 2.159 2.159 0 0 0 .966-.231 1.3 1.3 0 0 0 .787-1.25v-.759a1.617 1.617 0 0 1-.446.184 3.811 3.811 0 0 1-.534.1l-.57.074a2.221 2.221 0 0 0-.772.214.835.835 0 0 0-.438.785.773.773 0 0 0 .3.643" class="cls-7" data-name="Path 190" transform="translate(-21.867 -147.579)"/>
            <path id="Path_191" d="M52.72 188.135a2.208 2.208 0 0 1 .717 1.588h-.918a1.7 1.7 0 0 0-.383-.863 1.213 1.213 0 0 0-.96-.343 1.329 1.329 0 0 0-1.291.879 3.5 3.5 0 0 0-.252 1.408 2.642 2.642 0 0 0 .357 1.418 1.387 1.387 0 0 0 2.055.218 1.966 1.966 0 0 0 .475-.979h.918a2.221 2.221 0 0 1-2.4 2.149 2.151 2.151 0 0 1-1.758-.8 3.072 3.072 0 0 1-.656-2.009 3.383 3.383 0 0 1 .719-2.3 2.325 2.325 0 0 1 1.832-.823 2.453 2.453 0 0 1 1.545.461" class="cls-7" data-name="Path 191" transform="translate(-29.071 -147.547)"/>
            <path id="Path_192" d="M61.462 183.328h.944v2.872a2.73 2.73 0 0 1 .6-.6 2.031 2.031 0 0 1 1.138-.3 1.684 1.684 0 0 1 1.658.855 2.909 2.909 0 0 1 .236 1.294v3.6h-.971v-3.538a1.979 1.979 0 0 0-.156-.906 1.007 1.007 0 0 0-.966-.461 1.609 1.609 0 0 0-1.065.4 1.941 1.941 0 0 0-.478 1.526v2.976h-.944z" class="cls-7" data-name="Path 192" transform="translate(-36.153 -145.149)"/>
            <path id="Path_193" d="M74.793 183.385h.96v1.069h-.96zm0 2.112h.96v5.587h-.96z" class="cls-7" data-name="Path 193" transform="translate(-43.506 -145.181)"/>
            <path id="Path_194" d="M80.118 187.882h.9v.8a2.516 2.516 0 0 1 .845-.707 2.237 2.237 0 0 1 .991-.216 1.636 1.636 0 0 1 1.616.834 2.954 2.954 0 0 1 .23 1.3v3.6h-.96v-3.538a1.9 1.9 0 0 0-.153-.827.921.921 0 0 0-.912-.525 1.875 1.875 0 0 0-.551.069 1.415 1.415 0 0 0-.682.461 1.385 1.385 0 0 0-.307.574 3.863 3.863 0 0 0-.071.847v2.94h-.944z" class="cls-7" data-name="Path 194" transform="translate(-46.443 -147.592)"/>
            <path id="Path_195" d="M96.114 188.14a2.586 2.586 0 0 1 .544.535v-.707h.871v5.1a3.773 3.773 0 0 1-.313 1.687A2.253 2.253 0 0 1 95 195.9a2.712 2.712 0 0 1-1.521-.406 1.586 1.586 0 0 1-.691-1.271h.96a1.069 1.069 0 0 0 .271.582 1.714 1.714 0 0 0 2.416-.452 4.316 4.316 0 0 0 .183-1.607 1.855 1.855 0 0 1-.679.639 2.436 2.436 0 0 1-2.642-.438 2.85 2.85 0 0 1-.682-2.142 3.247 3.247 0 0 1 .687-2.2 2.122 2.122 0 0 1 1.66-.791 2.037 2.037 0 0 1 1.15.325m.116 1.011a1.371 1.371 0 0 0-1.091-.5 1.347 1.347 0 0 0-1.357.933 3.66 3.66 0 0 0-.193 1.3 2.324 2.324 0 0 0 .384 1.444 1.236 1.236 0 0 0 1.03.5 1.449 1.449 0 0 0 1.425-.917 2.964 2.964 0 0 0 .23-1.21 2.351 2.351 0 0 0-.428-1.547" class="cls-7" data-name="Path 195" transform="translate(-53.338 -147.625)"/>
            <path id="Path_196" d="M114.018 185.872a1.854 1.854 0 0 1-.165-.738 1.652 1.652 0 0 1 .5-1.234 1.842 1.842 0 0 1 1.345-.491 1.682 1.682 0 0 1 1.251.456 1.5 1.5 0 0 1 .45 1.09 1.954 1.954 0 0 1-.465 1.294 4.355 4.355 0 0 1-.91.748l1.4 1.679c.094-.28.158-.488.195-.626s.073-.33.11-.579h.9a5.791 5.791 0 0 1-.354 1.417c-.178.453-.266.635-.266.547l1.365 1.662h-1.215l-.721-.881a3.746 3.746 0 0 1-.786.681 2.7 2.7 0 0 1-1.431.377 2.152 2.152 0 0 1-1.741-.646 2.205 2.205 0 0 1-.545-1.46 2.107 2.107 0 0 1 .528-1.463 5.853 5.853 0 0 1 1.209-.891 3.937 3.937 0 0 1-.653-.943m2.268 4.308a2.2 2.2 0 0 0 .644-.6l-1.738-2.122a5.334 5.334 0 0 0-.96.754 1.406 1.406 0 0 0-.343.96 1.1 1.1 0 0 0 .446.943 1.577 1.577 0 0 0 .954.33 1.8 1.8 0 0 0 1-.268m-.074-4.363a1.186 1.186 0 0 0 .306-.79.836.836 0 0 0-.226-.586.778.778 0 0 0-.6-.247.812.812 0 0 0-.919.821 1.166 1.166 0 0 0 .176.612 5.694 5.694 0 0 0 .587.759 4.04 4.04 0 0 0 .679-.57" class="cls-7" data-name="Path 196" transform="translate(-64.545 -145.194)"/>
            <path id="Path_197" d="M136.588 183.385h5.347v.943h-4.3v2.338h3.784v.916h-3.784v3.5h-1.044z" class="cls-7" data-name="Path 197" transform="translate(-77.592 -145.181)"/>
            <path id="Path_198" d="M154.326 188.4a2.832 2.832 0 0 1 .745 2.125 3.664 3.664 0 0 1-.657 2.242 2.368 2.368 0 0 1-2.038.884 2.293 2.293 0 0 1-1.829-.782 3.1 3.1 0 0 1-.678-2.1 3.351 3.351 0 0 1 .714-2.251 2.389 2.389 0 0 1 1.918-.839 2.524 2.524 0 0 1 1.824.723m-.587 3.73a3.552 3.552 0 0 0 .345-1.577 2.832 2.832 0 0 0-.248-1.277 1.4 1.4 0 0 0-1.36-.775 1.339 1.339 0 0 0-1.246.659 3.08 3.08 0 0 0-.389 1.591 2.676 2.676 0 0 0 .389 1.492 1.367 1.367 0 0 0 1.235.6 1.287 1.287 0 0 0 1.273-.71" class="cls-7" data-name="Path 198" transform="translate(-84.919 -147.547)"/>
            <path id="Path_199" d="M164.114 187.882h.9v.97a2.151 2.151 0 0 1 .54-.689 1.4 1.4 0 0 1 .992-.406c.017 0 .047 0 .089.005l.215.021v1c-.056-.01-.108-.017-.155-.021s-.1 0-.155 0a1.346 1.346 0 0 0-1.1.458 1.6 1.6 0 0 0-.383 1.056v3.229h-.944z" class="cls-7" data-name="Path 199" transform="translate(-92.776 -147.592)"/>
            <path id="Path_200" d="M172.037 187.882h.934v.8a3.094 3.094 0 0 1 .609-.6 1.833 1.833 0 0 1 1.06-.32 1.669 1.669 0 0 1 1.081.33 1.705 1.705 0 0 1 .42.556 2.041 2.041 0 0 1 .74-.668 2.065 2.065 0 0 1 .955-.217 1.563 1.563 0 0 1 1.543.817 2.683 2.683 0 0 1 .22 1.184v3.737h-.98v-3.9a.909.909 0 0 0-.281-.769 1.11 1.11 0 0 0-.686-.21 1.357 1.357 0 0 0-.958.373 1.632 1.632 0 0 0-.4 1.241v3.265h-.96v-3.663a1.908 1.908 0 0 0-.134-.838.833.833 0 0 0-.8-.393 1.385 1.385 0 0 0-.973.414 2.031 2.031 0 0 0-.438 1.5v2.976h-.945z" class="cls-7" data-name="Path 200" transform="translate(-97.146 -147.592)"/>
            <path id="Path_201" d="M194.692 190.085a.513.513 0 0 0 .436-.273.825.825 0 0 0 .063-.362.772.772 0 0 0-.343-.7 1.84 1.84 0 0 0-.983-.218 1.246 1.246 0 0 0-1.047.4 1.319 1.319 0 0 0-.226.659h-.882a1.626 1.626 0 0 1 .673-1.447 2.76 2.76 0 0 1 1.5-.408 3.058 3.058 0 0 1 1.609.377 1.279 1.279 0 0 1 .613 1.174v3.233a.413.413 0 0 0 .061.236.292.292 0 0 0 .255.089c.041 0 .089 0 .141-.008l.168-.023v.7a2.613 2.613 0 0 1-.336.078 2.4 2.4 0 0 1-.315.016.776.776 0 0 1-.708-.346 1.339 1.339 0 0 1-.163-.518 2.407 2.407 0 0 1-.829.655 2.563 2.563 0 0 1-1.191.278 1.774 1.774 0 0 1-1.277-.475 1.57 1.57 0 0 1-.5-1.185 1.526 1.526 0 0 1 .488-1.209 2.335 2.335 0 0 1 1.281-.529zm-1.989 2.548a1.112 1.112 0 0 0 .709.236 2.156 2.156 0 0 0 .965-.231 1.3 1.3 0 0 0 .787-1.25v-.759a1.626 1.626 0 0 1-.445.184 3.81 3.81 0 0 1-.535.1l-.57.074a2.215 2.215 0 0 0-.772.214.834.834 0 0 0-.439.785.774.774 0 0 0 .3.643" class="cls-7" data-name="Path 201" transform="translate(-107.836 -147.579)"/>
            <path id="Path_202" d="M204.82 184.543h.955v1.566h.9v.77h-.9v3.664a.4.4 0 0 0 .2.392.849.849 0 0 0 .368.058h.148c.053 0 .113-.008.183-.017v.75a2.2 2.2 0 0 1-.339.067 3.245 3.245 0 0 1-.381.021 1.029 1.029 0 0 1-.9-.338 1.509 1.509 0 0 1-.235-.878v-3.718h-.76v-.77h.76z" class="cls-7" data-name="Path 202" transform="translate(-114.809 -145.82)"/>
            <path id="Path_203" d="M211.993 183.385h.96v1.069h-.96zm0 2.112h.96v5.587h-.96z" class="cls-7" data-name="Path 203" transform="translate(-119.186 -145.181)"/>
            <path id="Path_204" d="M220.918 188.4a2.83 2.83 0 0 1 .745 2.125 3.661 3.661 0 0 1-.657 2.242 2.368 2.368 0 0 1-2.038.884 2.292 2.292 0 0 1-1.828-.782 3.1 3.1 0 0 1-.678-2.1 3.351 3.351 0 0 1 .715-2.251 2.388 2.388 0 0 1 1.917-.839 2.522 2.522 0 0 1 1.824.723m-.587 3.73a3.552 3.552 0 0 0 .345-1.577 2.838 2.838 0 0 0-.248-1.277 1.4 1.4 0 0 0-1.36-.775 1.339 1.339 0 0 0-1.245.659 3.076 3.076 0 0 0-.389 1.591 2.672 2.672 0 0 0 .389 1.492 1.366 1.366 0 0 0 1.235.6 1.287 1.287 0 0 0 1.273-.71" class="cls-7" data-name="Path 204" transform="translate(-121.651 -147.547)"/>
            <path id="Path_205" d="M230.647 187.882h.9v.8a2.516 2.516 0 0 1 .845-.707 2.237 2.237 0 0 1 .991-.216 1.637 1.637 0 0 1 1.617.834 2.974 2.974 0 0 1 .23 1.3v3.6h-.959v-3.538a1.923 1.923 0 0 0-.152-.827.923.923 0 0 0-.913-.525 1.877 1.877 0 0 0-.552.069 1.418 1.418 0 0 0-.682.461 1.391 1.391 0 0 0-.307.574 3.87 3.87 0 0 0-.071.847v2.94h-.945z" class="cls-7" data-name="Path 205" transform="translate(-129.475 -147.592)"/>
            <path id="Path_206" d="M244.114 191.709a1.348 1.348 0 0 0 .241.722 1.53 1.53 0 0 0 1.264.456 1.892 1.892 0 0 0 .943-.229.752.752 0 0 0 .407-.7.6.6 0 0 0-.326-.551 3.988 3.988 0 0 0-.821-.267l-.762-.188a3.8 3.8 0 0 1-1.078-.4 1.186 1.186 0 0 1-.618-1.058 1.607 1.607 0 0 1 .583-1.29 2.345 2.345 0 0 1 1.566-.492 2.193 2.193 0 0 1 1.856.743 1.605 1.605 0 0 1 .346 1.017h-.893a1.07 1.07 0 0 0-.23-.579 1.5 1.5 0 0 0-1.155-.369 1.411 1.411 0 0 0-.83.2.631.631 0 0 0-.282.538.66.66 0 0 0 .37.585 2.231 2.231 0 0 0 .63.229l.637.152a4.95 4.95 0 0 1 1.39.478 1.263 1.263 0 0 1 .551 1.137 1.719 1.719 0 0 1-.577 1.294 2.474 2.474 0 0 1-1.756.545 2.376 2.376 0 0 1-1.8-.568 2.131 2.131 0 0 1-.565-1.407z" class="cls-7" data-name="Path 206" transform="translate(-136.403 -147.567)"/>
        </g>
    </g>
</svg>
