<svg xmlns="http://www.w3.org/2000/svg" xmlns:xlink="http://www.w3.org/1999/xlink" width="164" height="38" viewBox="0 0 164 38">
    <defs>
        <path id="a" d="M0 0h164v38H0z"/>
    </defs>
    <g fill="none" fill-rule="evenodd">
        <mask id="b" fill="#fff">
            <use xlink:href="#a"/>
        </mask>
        <path fill="#FFF" d="M160.201 23.15c-.102.512-.277.959-.525 1.343a2.911 2.911 0 0 1-.977.934c-.4.24-.901.36-1.5.36-.582 0-1.079-.12-1.489-.36a2.866 2.866 0 0 1-.989-.934 4.062 4.062 0 0 1-.539-1.344 7.334 7.334 0 0 1-.166-1.56c0-.548.052-1.076.154-1.587.103-.512.279-.964.526-1.359.248-.391.574-.711.976-.958.4-.247.901-.372 1.501-.372.582 0 1.073.125 1.475.372.403.247.731.57.989.972.257.401.44.858.552 1.37.112.512.167 1.033.167 1.562 0 .528-.052 1.049-.155 1.56zm3.44-4.16a6.59 6.59 0 0 0-1.105-2.266 5.555 5.555 0 0 0-1.872-1.56c-.754-.394-1.653-.59-2.696-.59a5.2 5.2 0 0 0-2.258.486c-.684.325-1.25.846-1.694 1.562h-.05v-1.69H150.5V32.8h3.644v-6.27h.052a4.285 4.285 0 0 0 1.707 1.47c.692.333 1.45.5 2.272.5.974 0 1.825-.19 2.553-.564a5.39 5.39 0 0 0 1.822-1.51 6.494 6.494 0 0 0 1.09-2.176c.241-.82.36-1.672.36-2.56 0-.938-.119-1.838-.36-2.7zm-17.964 4.16c-.104.512-.28.959-.527 1.343a2.892 2.892 0 0 1-.977.934c-.4.24-.902.36-1.5.36-.583 0-1.077-.12-1.488-.36a2.863 2.863 0 0 1-.989-.934 4.033 4.033 0 0 1-.539-1.344 7.297 7.297 0 0 1-.166-1.56c0-.548.05-1.076.153-1.587.104-.512.278-.964.527-1.359.246-.391.573-.711.976-.958.401-.247.9-.372 1.5-.372.581 0 1.075.125 1.476.372.402.247.732.57.988.972.256.401.44.858.551 1.37.112.512.166 1.033.166 1.562 0 .528-.05 1.049-.151 1.56zm2.334-6.426a5.546 5.546 0 0 0-1.874-1.56c-.753-.394-1.65-.59-2.694-.59-.822 0-1.574.162-2.258.486-.686.325-1.25.846-1.694 1.562h-.052v-1.69h-3.466V32.8h3.647v-6.27h.05a4.277 4.277 0 0 0 1.708 1.47c.691.333 1.448.5 2.27.5.976 0 1.826-.19 2.553-.564a5.39 5.39 0 0 0 1.823-1.51 6.53 6.53 0 0 0 1.091-2.176c.238-.82.36-1.672.36-2.56 0-.938-.122-1.838-.36-2.7-.241-.861-.608-1.617-1.104-2.266zm-23.97 4.378l2.387-6.707h.05l2.31 6.707h-4.747zm.384-11.212l-6.928 18.276h4.054l1.437-4.07h6.853l1.385 4.07h4.184L128.558 9.89h-4.133zm-7.237 12.479a3.296 3.296 0 0 0-.95-1.05 5.182 5.182 0 0 0-1.347-.68 15.911 15.911 0 0 0-1.553-.433c-.513-.12-1.017-.23-1.514-.333a12.122 12.122 0 0 1-1.322-.345c-.385-.129-.696-.294-.936-.5a.99.99 0 0 1-.359-.794c0-.273.067-.49.205-.652.137-.162.304-.286.5-.372.198-.085.414-.14.654-.166.24-.025.463-.037.668-.037.65 0 1.215.123 1.695.37.478.247.744.721.794 1.42h3.465c-.069-.818-.278-1.496-.629-2.035a4.146 4.146 0 0 0-1.321-1.292 5.533 5.533 0 0 0-1.81-.691 10.518 10.518 0 0 0-2.09-.204c-.72 0-1.422.064-2.105.19a5.823 5.823 0 0 0-1.848.667 3.68 3.68 0 0 0-1.322 1.292c-.335.546-.501 1.247-.501 2.1 0 .58.12 1.071.36 1.472.237.401.556.733.948.998.395.264.844.478 1.348.639.505.164 1.023.304 1.552.423 1.302.274 2.316.546 3.042.82.728.272 1.091.682 1.091 1.229 0 .324-.076.591-.23.805a1.744 1.744 0 0 1-.578.512 2.73 2.73 0 0 1-.77.281c-.282.06-.553.09-.809.09a4.18 4.18 0 0 1-1.038-.127 2.7 2.7 0 0 1-.886-.398 2.12 2.12 0 0 1-.63-.69c-.161-.283-.244-.618-.244-1.012h-3.464c.035.887.235 1.626.604 2.214a4.375 4.375 0 0 0 1.41 1.421 5.995 5.995 0 0 0 1.965.769c.735.153 1.488.23 2.256.23.754 0 1.494-.073 2.222-.217a5.638 5.638 0 0 0 1.938-.757 4.194 4.194 0 0 0 1.373-1.42c.35-.59.525-1.319.525-2.19 0-.614-.12-1.129-.36-1.547zm-15.064-11.404h-3.645v3.967h-2.207v2.432h2.207v7.807c0 .667.112 1.204.334 1.613.222.409.526.727.91.948.385.222.83.37 1.336.447.503.077 1.04.115 1.603.115.36 0 .728-.009 1.105-.024.375-.018.717-.051 1.026-.104V25.35c-.172.035-.351.062-.54.077a6.419 6.419 0 0 1-.59.027c-.615 0-1.026-.104-1.232-.308-.205-.205-.307-.614-.307-1.23v-6.552h2.669v-2.432h-2.67v-3.967zM91.678 23.046c0 .206-.02.48-.064.82a2.727 2.727 0 0 1-.346 1.011c-.189.333-.48.62-.873.858-.393.24-.95.359-1.669.359-.29 0-.573-.026-.846-.078a2.046 2.046 0 0 1-.719-.269 1.377 1.377 0 0 1-.488-.524c-.119-.222-.18-.494-.18-.818 0-.342.061-.625.18-.846.12-.22.279-.405.476-.55.196-.145.427-.26.692-.346.265-.085.534-.153.81-.205.289-.05.58-.094.87-.128.293-.033.57-.077.835-.127.266-.051.513-.116.745-.193.23-.077.423-.182.577-.32v1.356zm3.644 2.177v-6.885c0-.804-.178-1.447-.54-1.933a3.683 3.683 0 0 0-1.384-1.14 6.226 6.226 0 0 0-1.874-.55c-.684-.094-1.36-.14-2.027-.14-.735 0-1.468.072-2.194.217a6.278 6.278 0 0 0-1.964.73 4.345 4.345 0 0 0-1.437 1.356c-.377.563-.59 1.271-.642 2.125h3.644c.068-.717.309-1.23.72-1.536.41-.308.974-.46 1.694-.46.324 0 .627.02.91.063.282.043.53.127.745.256.214.128.385.307.512.538.129.23.193.542.193.934.017.376-.095.66-.333.857-.24.197-.565.347-.976.448a9.43 9.43 0 0 1-1.412.23c-.53.052-1.069.122-1.616.206-.548.085-1.091.2-1.629.345-.539.145-1.02.363-1.438.652-.42.292-.761.68-1.028 1.166-.264.487-.397 1.106-.397 1.856 0 .682.116 1.27.347 1.765.23.496.551.905.963 1.229.41.324.89.564 1.436.718.547.153 1.138.23 1.772.23.82 0 1.625-.12 2.411-.358a4.763 4.763 0 0 0 2.054-1.255 5.2 5.2 0 0 0 .256 1.28h3.697c-.171-.272-.292-.682-.36-1.23a13.62 13.62 0 0 1-.103-1.714zM80.308 16.07c-.358-.47-.85-.836-1.474-1.101-.625-.263-1.426-.395-2.4-.395-.685 0-1.386.174-2.105.525-.719.348-1.31.908-1.77 1.676h-.078V9.89h-3.644v18.276h3.644V21.23c0-1.349.222-2.316.668-2.906.444-.588 1.163-.883 2.155-.883.873 0 1.48.269 1.822.807.343.537.514 1.352.514 2.444v7.474h3.644v-8.14c0-.818-.073-1.564-.218-2.24-.146-.673-.398-1.245-.758-1.715zM61.06 22.484h-.05L57.879 9.89h-3.773l-3.183 12.44h-.05L47.971 9.89h-4.03l4.851 18.276h4.081l3.054-12.44h.051l3.105 12.44h4.004L68.016 9.89h-3.952L61.06 22.484zm-33.407.288c-.472-.236-2.792-1.374-3.225-1.531-.432-.157-.747-.235-1.061.235-.315.471-1.22 1.531-1.494 1.845-.276.314-.55.354-1.023.118-.472-.236-1.992-.732-3.794-2.335-1.403-1.248-2.35-2.789-2.625-3.26-.276-.47-.03-.725.207-.96.212-.21.471-.55.707-.824.236-.275.315-.471.472-.785.158-.314.079-.59-.039-.824-.118-.236-1.062-2.552-1.455-3.494-.383-.917-.772-.793-1.062-.807-.274-.014-.59-.017-.904-.017-.314 0-.826.118-1.258.589-.433.47-1.651 1.61-1.651 3.925 0 2.316 1.69 4.553 1.926 4.867.236.314 3.327 5.066 8.06 7.104a27.24 27.24 0 0 0 2.69.991c1.131.358 2.16.308 2.973.187.906-.135 2.791-1.139 3.185-2.238.393-1.099.393-2.04.275-2.237-.118-.196-.433-.314-.904-.55zm-8.61 11.721h-.006a15.708 15.708 0 0 1-7.99-2.181l-.572-.34-5.94 1.554 1.585-5.775-.373-.592a15.582 15.582 0 0 1-2.4-8.33C3.35 10.202 10.39 3.18 19.049 3.18a15.612 15.612 0 0 1 11.097 4.59 15.533 15.533 0 0 1 4.593 11.073c-.004 8.63-7.045 15.65-15.696 15.65zm0-34.493C8.634 0 .163 8.447.158 18.829a18.751 18.751 0 0 0 2.521 9.413L0 38l10.01-2.619a18.912 18.912 0 0 0 9.025 2.292h.008c10.408 0 18.88-8.447 18.884-18.83a18.689 18.689 0 0 0-5.526-13.32C28.836 1.962 24.095.002 19.043 0z" mask="url(#b)"/>
    </g>
</svg>
