<svg xmlns="http://www.w3.org/2000/svg" width="19" height="35" viewBox="0 0 19 35">
    <path fill="#FFF" fill-rule="evenodd" d="M17.956.007L13.488 0c-5.02 0-8.265 3.35-8.265 8.536v3.935H.73a.705.705 0 0 0-.702.708v5.702c0 .39.314.707.702.707h4.493v14.388c0 .391.315.708.703.708h5.862a.705.705 0 0 0 .703-.708V19.588h5.253a.705.705 0 0 0 .702-.707l.003-5.702a.71.71 0 0 0-.206-.5.7.7 0 0 0-.497-.208H12.49V9.135c0-1.604.38-2.418 2.454-2.418h3.01a.705.705 0 0 0 .703-.708V.714a.705.705 0 0 0-.702-.707z"/>
</svg>
