<svg xmlns="http://www.w3.org/2000/svg" width="35" height="35" viewBox="0 0 35 35">
    <g fill="#FFF" fill-rule="evenodd">
        <path fill-rule="nonzero" d="M25.341 0H9.66C4.333 0 0 4.333 0 9.659V25.34C0 30.667 4.333 35 9.659 35H25.34C30.667 35 35 30.667 35 25.341V9.66C35 4.333 30.667 0 25.341 0zm6.554 25.341a6.56 6.56 0 0 1-6.554 6.554H9.66a6.56 6.56 0 0 1-6.554-6.554V9.66A6.56 6.56 0 0 1 9.66 3.105H25.34a6.561 6.561 0 0 1 6.554 6.554V25.34z"/>
        <path fill-rule="nonzero" d="M17.5 8.38c-5.029 0-9.12 4.091-9.12 9.12 0 5.029 4.091 9.12 9.12 9.12 5.029 0 9.12-4.091 9.12-9.12 0-5.029-4.091-9.12-9.12-9.12zm0 15.1a5.986 5.986 0 0 1-5.98-5.98 5.986 5.986 0 0 1 5.98-5.98 5.986 5.986 0 0 1 5.98 5.98 5.986 5.986 0 0 1-5.98 5.98z"/>
        <path d="M26.866 5.915c-.583 0-1.155.236-1.567.65a2.229 2.229 0 0 0-.651 1.569c0 .583.238 1.155.651 1.569.412.411.984.65 1.567.65a2.24 2.24 0 0 0 1.57-.65c.413-.414.649-.986.649-1.57 0-.584-.236-1.157-.65-1.568a2.228 2.228 0 0 0-1.569-.65z"/>
    </g>
</svg>
