<svg xmlns="http://www.w3.org/2000/svg" width="27" height="27" viewBox="0 0 27 27">
    <g fill="none" fill-rule="evenodd">
        <path d="M0 0h27v27H0z"/>
        <path fill="#FFF" d="M6 11h3v10H6V11zm1.99-2h-.024C6.773 9 6 8.339 6 7.502 6 6.648 6.796 6 8.013 6 9.229 6 9.976 6.646 10 7.5 10 8.337 9.229 9 7.99 9zM22 21h-3.344v-5.126c0-1.342-.523-2.256-1.674-2.256-.88 0-1.369.617-1.597 1.213-.085.213-.072.51-.072.81V21H12s.043-9.08 0-9.905h3.313v1.555c.196-.68 1.255-1.65 2.944-1.65C20.353 11 22 12.426 22 15.492V21z"/>
    </g>
</svg>
