<svg xmlns="http://www.w3.org/2000/svg" width="54" height="34" viewBox="0 0 54 34">
    <path fill="#FFF" fill-rule="nonzero" d="M48.766 4.811h-13.53v-3.4h13.531v3.4h-.001zM26.228 18.757c.873 1.369 1.31 3.03 1.31 4.98 0 2.018-.493 3.827-1.493 5.426a9.37 9.37 0 0 1-2.377 2.67c-1.07.832-2.336 1.403-3.792 1.707-1.46.306-3.041.46-4.744.46H0V0h16.227c4.09.067 6.99 1.266 8.702 3.621 1.027 1.445 1.536 3.178 1.536 5.192 0 2.079-.515 3.742-1.552 5.006-.577.708-1.43 1.353-2.559 1.935 1.71.633 3.007 1.63 3.874 3.003zm-18.48-5.353h7.11c1.462 0 2.643-.28 3.553-.842.909-.561 1.362-1.558 1.362-2.99 0-1.581-.6-2.631-1.804-3.136-1.035-.351-2.36-.532-3.966-.532H7.749v7.5zm12.71 9.848c0-1.766-.713-2.987-2.137-3.642-.796-.373-1.92-.563-3.36-.576H7.749v9.06h7.1c1.459 0 2.588-.193 3.403-.596 1.47-.741 2.206-2.152 2.206-4.246zm33.328-5.531c.164 1.112.237 2.726.207 4.836H36.47c.097 2.447.932 4.159 2.515 5.138.955.615 2.113.915 3.47.915 1.429 0 2.594-.366 3.491-1.118.489-.399.92-.961 1.293-1.67h6.423c-.168 1.445-.942 2.91-2.332 4.4-2.153 2.369-5.173 3.556-9.051 3.556-3.204 0-6.028-1.001-8.479-2.997-2.442-2.002-3.67-5.25-3.67-9.756 0-4.225 1.102-7.459 3.313-9.71 2.218-2.255 5.08-3.377 8.61-3.377 2.092 0 3.977.378 5.66 1.139 1.676.761 3.062 1.96 4.154 3.606.987 1.45 1.623 3.128 1.92 5.038zm-6.322.634c-.118-1.692-.676-2.973-1.682-3.849-.997-.877-2.243-1.318-3.73-1.318-1.617 0-2.866.47-3.754 1.397-.893.924-1.45 2.18-1.677 3.77h10.843z"/>
</svg>
