<svg xmlns="http://www.w3.org/2000/svg" width="34" height="34" viewBox="0 0 34 34">
    <path fill="#FFF" fill-rule="nonzero" d="M17 0C7.627 0 0 7.627 0 17c0 9.373 7.627 17 17 17 9.373 0 17-7.627 17-17 0-9.373-7.627-17-17-17zm11.24 7.84a14.448 14.448 0 0 1 3.276 9.045c-.48-.102-5.277-1.075-10.11-.467l-.313-.75a45.714 45.714 0 0 0-.963-2.104c5.37-2.191 7.803-5.31 8.11-5.725zM17 2.5a14.45 14.45 0 0 1 9.624 3.66c-.26.371-2.444 3.308-7.607 5.244a77.561 77.561 0 0 0-5.42-8.5A14.493 14.493 0 0 1 17 2.5zm-6.173 1.38a92.59 92.59 0 0 1 5.383 8.397c-6.792 1.804-12.774 1.779-13.424 1.77.941-4.507 3.978-8.251 8.04-10.168zm-8.35 13.14l.007-.444c.635.015 7.673.104 14.922-2.065.418.813.814 1.64 1.18 2.465l-.575.172c-7.486 2.42-11.47 9.02-11.802 9.581a14.481 14.481 0 0 1-3.731-9.709zm14.52 14.52c-3.355 0-6.449-1.143-8.911-3.064.261-.531 3.202-6.213 11.392-9.067l.095-.032c2.04 5.295 2.88 9.737 3.099 11.012a14.405 14.405 0 0 1-5.674 1.151zm8.116-2.482c-.149-.884-.924-5.134-2.82-10.353 4.55-.728 8.547.466 9.044.623a14.548 14.548 0 0 1-6.224 9.73z"/>
</svg>
