<svg xmlns="http://www.w3.org/2000/svg" width="14" height="15" viewBox="0 0 14 15">
    <g fill="#FFF" fill-rule="evenodd">
        <path d="M4.074 13.485A7.01 7.01 0 0 1 .512 9.752 6.978 6.978 0 0 1 4.354.667c3.578-1.446 7.653.28 9.1 3.842 1.4 3.47-.187 7.436-3.593 8.976-.56.249-.934-.591-.39-.856a6.053 6.053 0 0 0 3.112-7.777c-1.245-3.08-4.776-4.574-7.871-3.33a6.054 6.054 0 0 0-3.33 7.888 6.022 6.022 0 0 0 3.127 3.25l.14-.746c.016-.078.125-.109.172-.031l1.15 1.99-2.302.281c-.077.015-.14-.093-.077-.156l.482-.513z"/>
        <path d="M7.278 10.545c1.074 0 1.79-.482 2.256-1.105.047-.062.062-.14.047-.233a.278.278 0 0 0-.14-.186l-.42-.218a.265.265 0 0 0-.343.078c-.31.404-.84.7-1.415.7-.887 0-1.602-.498-1.913-1.26h2.193c.155 0 .28-.125.28-.28v-.063a.279.279 0 0 0-.28-.28H5.194c-.016-.093-.016-.217-.016-.326 0-.125.016-.234.016-.342h2.364c.156 0 .28-.125.28-.28v-.063a.279.279 0 0 0-.28-.28H5.365c.327-.762 1.027-1.244 1.913-1.244a1.79 1.79 0 0 1 1.4.7c.078.109.218.14.343.078l.42-.218c.077-.031.124-.109.14-.187a.321.321 0 0 0-.047-.233c-.467-.607-1.182-1.105-2.256-1.105-1.462 0-2.675.856-3.064 2.194h-.202a.279.279 0 0 0-.28.28v.062c0 .156.124.28.28.28h.093c-.015.124-.015.233-.015.342 0 .11 0 .234.015.327h-.078a.279.279 0 0 0-.28.28v.062c0 .156.125.28.28.28h.202c.374 1.385 1.572 2.24 3.05 2.24"/>
    </g>
</svg>
