<svg xmlns="http://www.w3.org/2000/svg" width="19" height="20" viewBox="0 0 19 20">
    <g fill="#6166AF" fill-rule="evenodd">
        <path d="M17.242 6.528H1.014V5.007c0-.84.682-1.521 1.52-1.521h1.522V4.5H5.07V3.486h8.114V4.5H14.2V3.486h1.52c.84 0 1.522.682 1.522 1.52v1.522zm0 10.649c0 .839-.683 1.521-1.521 1.521H2.536a1.522 1.522 0 0 1-1.521-1.521V7.542h16.227v9.635zM15.72 2.471h-1.521V.951h-1.015v1.52H5.071V.951H4.057v1.52H2.535A2.538 2.538 0 0 0 0 5.007v12.17a2.538 2.538 0 0 0 2.536 2.536H15.72a2.538 2.538 0 0 0 2.535-2.536V5.007A2.539 2.539 0 0 0 15.72 2.47z"/>
        <path d="M8.113 9.57h2.028l.001 2.029H8.113V9.57zm0 3.043h2.028c.56 0 1.015-.455 1.015-1.014V9.57c0-.56-.455-1.014-1.015-1.014H8.113c-.56 0-1.015.455-1.015 1.014V11.6c.001.56.456 1.014 1.015 1.014zM13.184 9.57h2.029V11.6h-2.03V9.57zm0 3.043h2.029c.56 0 1.013-.455 1.013-1.014V9.57c0-.56-.454-1.014-1.013-1.014h-2.03c-.559 0-1.013.455-1.013 1.014V11.6c0 .56.455 1.014 1.014 1.014zM3.043 14.641h2.028l.001 2.029H3.043V14.64zm0 3.043h2.028c.56 0 1.015-.455 1.015-1.014V14.64c0-.56-.455-1.014-1.015-1.014H3.043c-.56 0-1.015.455-1.015 1.014v2.029c0 .56.455 1.014 1.015 1.014zM8.113 14.641h2.028l.001 2.029H8.113V14.64zm0 3.043h2.028c.56 0 1.015-.455 1.015-1.014V14.64c0-.56-.455-1.014-1.015-1.014H8.113c-.56 0-1.015.455-1.015 1.014v2.029c.001.56.456 1.014 1.015 1.014zM13.184 14.641h2.029v2.029h-2.03V14.64zm0 3.043h2.029c.56 0 1.013-.455 1.013-1.014V14.64c0-.56-.454-1.014-1.013-1.014h-2.03c-.559 0-1.013.455-1.013 1.014v2.029c0 .56.455 1.014 1.014 1.014z"/>
    </g>
</svg>
