<svg xmlns="http://www.w3.org/2000/svg" width="14" height="13" viewBox="0 0 14 13">
    <g fill="#4A4A49" fill-rule="evenodd">
        <path d="M4.875 2.645c1.334 0 2.414 1.056 2.414 2.36 0 1.302-1.08 2.359-2.414 2.359-1.333 0-2.413-1.057-2.413-2.36s1.08-2.36 2.413-2.36M8.894 10.138a3.206 3.206 0 0 0-.544-1.206 3.15 3.15 0 0 0-1.658-1.14l-.45-.13-.876 3.37-.159-2.216a.434.434 0 0 0 .305-.402v-.208a.437.437 0 0 0-.438-.428h-.398a.437.437 0 0 0-.437.428v.208c0 .194.132.35.305.402l-.16 2.216-.875-3.37-.45.13a3.138 3.138 0 0 0-.61.246c-.412.22-.77.531-1.049.894-.265.363-.45.778-.543 1.206-.053.246-.093.493-.146.739a.633.633 0 0 0 .371.7c1.101.454 2.4.713 3.793.713 1.393 0 2.68-.26 3.794-.713a.634.634 0 0 0 .384-.7l-.159-.74M11.865 2.476a.395.395 0 0 1-.398-.389c0-.22.173-.389.398-.389.226 0 .398.169.398.39 0 .22-.186.388-.398.388m-1.326 0a.395.395 0 0 1-.398-.389c0-.22.172-.389.398-.389.225 0 .398.169.398.39 0 .22-.173.388-.398.388m-1.313 0a.395.395 0 0 1-.398-.389c0-.22.172-.389.398-.389.212 0 .398.169.398.39 0 .22-.186.388-.398.388M10.539.13C9.014.13 7.78 1.01 7.78 2.087c0 .648.438 1.219 1.114 1.569a1.94 1.94 0 0 1-.504.817c-.093.103-.013.272.133.246.623-.117 1.26-.454 1.67-.687.107.013.213.013.332.013 1.526 0 2.76-.882 2.76-1.958S12.064.13 10.538.13"/>
    </g>
</svg>
