<svg xmlns="http://www.w3.org/2000/svg" width="21" height="24" viewBox="0 0 21 24">
    <g fill="#CECED2" fill-rule="evenodd">
        <path d="M3.113 13.944c.554 0 .9.096 1.177.214l.24-.901c-.248-.118-.75-.244-1.402-.244-1.658 0-2.88.946-2.888 2.6-.007.73.248 1.38.713 1.809.465.443 1.132.672 2.055.672.667 0 1.334-.163 1.687-.28v-2.622H2.813v.878h.78v1.042c-.09.044-.3.074-.563.074-.937 0-1.59-.606-1.59-1.633 0-1.078.72-1.61 1.673-1.61M5.588 18.042h1.147v-4.977H5.588zM10.815 13.988v-.923h-3.09v4.977h1.147v-2.001h1.815v-.916H8.872v-1.137zM13.898 5.471h3.642C16.447 3.961 14.31 1.566 13.1.519v4.05c0 .497.358.902.799.902"/>
        <path d="M18.225 9.838V6.754h-4.327c-1.067 0-1.935-.98-1.935-2.186V0H1.367C.612 0 0 .691 0 1.545v4.753h.003v4.524h19.922v9.267H.003v2.324c.03.823.628 1.48 1.364 1.48h15.491c.755 0 1.367-.692 1.367-1.545v-1.275h2.7V9.838h-2.7z"/>
    </g>
</svg>
