<svg xmlns="http://www.w3.org/2000/svg" xmlns:xlink="http://www.w3.org/1999/xlink" width="21" height="25" viewBox="0 0 21 25">
    <defs>
        <path id="a" d="M0 .109h20.925v24.266H0z"/>
    </defs>
    <g fill="none" fill-rule="evenodd">
        <path fill="#827EB9" d="M3.135 18.45l-.458-.916c-.187-.352-.307-.615-.45-.907h-.015c-.105.292-.232.554-.39.907l-.42.915H.097l1.463-2.557-1.41-2.498h1.312l.443.923c.15.307.262.555.382.84h.015c.12-.323.218-.548.345-.84l.428-.923H4.38l-1.425 2.468 1.5 2.587h-1.32zM5.07 13.394h1.148v4.095h2.01v.96H5.07zM8.94 17.272c.307.157.78.315 1.267.315.525 0 .803-.218.803-.548 0-.315-.24-.495-.848-.712-.84-.293-1.387-.758-1.387-1.493 0-.862.72-1.522 1.912-1.522.57 0 .99.12 1.29.255l-.255.922a2.403 2.403 0 0 0-1.057-.24c-.495 0-.735.225-.735.488 0 .322.285.465.937.712.893.33 1.313.795 1.313 1.508 0 .847-.653 1.567-2.04 1.567-.578 0-1.148-.15-1.432-.307l.232-.945zM13.898 5.682h3.642C16.447 4.147 14.308 1.715 13.1.652v4.113c0 .505.358.917.799.917"/>
        <g transform="translate(0 .017)">
            <mask id="b" fill="#fff">
                <use xlink:href="#a"/>
            </mask>
            <path fill="#827EB9" d="M18.225 10.1V6.968h-4.327c-1.067 0-1.935-.996-1.935-2.22V.108H1.367C.612.109 0 .812 0 1.679v4.827h.003V11.1h19.922v9.411H.003v2.36c.03.836.628 1.504 1.364 1.504h15.491c.755 0 1.367-.702 1.367-1.569v-1.295h2.7v-11.41h-2.7z" mask="url(#b)"/>
        </g>
    </g>
</svg>
