<svg xmlns="http://www.w3.org/2000/svg" xmlns:xlink="http://www.w3.org/1999/xlink" width="16" height="16" viewBox="0 0 16 16">
    <defs>
        <path id="a" d="M0 0h15.16v15.165H0z"/>
    </defs>
    <g fill="none" fill-rule="evenodd">
        <mask id="b" fill="#fff">
            <use xlink:href="#a"/>
        </mask>
        <path fill="#6561A8" d="M.453 1.35A.506.506 0 0 0 0 1.857V14.66c0 .28.226.506.505.506H13.31c.279 0 .505-.227.505-.506V5.9a.505.505 0 0 0-1.01-.014v8.269H1.01V2.362h8.254A.505.505 0 1 0 9.28 1.35H.453zm12.35-.13l1.137 1.142-7.107 7.107-1.342.205.205-1.348 7.107-7.107zM12.745.002a.505.505 0 0 0-.3.148l-7.58 7.58a.505.505 0 0 0-.143.28l-.337 2.19a.505.505 0 0 0 .58.573l2.19-.337a.506.506 0 0 0 .278-.142l7.581-7.58a.506.506 0 0 0 0-.711L13.161.15a.506.506 0 0 0-.416-.148z" mask="url(#b)"/>
    </g>
</svg>
