<svg xmlns="http://www.w3.org/2000/svg" width="14" height="14" viewBox="0 0 14 14">
    <g fill="#ABD8A5" fill-rule="evenodd">
        <path d="M5.6 8.94V6.46c0-.428.4-.812.955-.857.63-.044 1.145.34 1.145.813v2.568c0 .473-.515.857-1.145.813C6 9.752 5.6 9.368 5.6 8.94M6.555 4.896A1.042 1.042 0 0 1 5.6 3.875v-.053c0-.546.44-1.004 1.03-1.021.593-.018 1.07.422 1.07.968v.158c0 .581-.515 1.022-1.145.969"/>
        <path d="M6.748 1.174a5.572 5.572 0 0 0-5.574 5.574 5.572 5.572 0 0 0 5.574 5.575 5.572 5.572 0 0 0 5.575-5.575 5.572 5.572 0 0 0-5.575-5.574m0 12.322A6.75 6.75 0 0 1 6.748 0a6.75 6.75 0 0 1 0 13.496"/>
    </g>
</svg>
