<svg xmlns="http://www.w3.org/2000/svg" width="21" height="24" viewBox="0 0 21 24">
    <g fill="#CECED2" fill-rule="evenodd">
        <path d="M1.605 17.352c.113.015.248.015.442.015.518 0 .975-.192.975-.717 0-.502-.457-.701-1.027-.701h-.39v1.403zm0-2.208h.375c.6 0 .922-.244.922-.613 0-.377-.292-.576-.81-.576-.247 0-.39.015-.487.03v1.159zM.472 13.239c.3-.06.908-.104 1.478-.104.697 0 1.125.067 1.492.28.353.185.608.525.608.976 0 .443-.263.856-.833 1.063v.015c.578.155 1.005.583 1.005 1.225 0 .45-.21.805-.525 1.056-.367.288-.982.45-1.987.45-.563 0-.983-.036-1.238-.073v-4.888zM9.277 16.244a55.115 55.115 0 0 1-.045-2.045H9.21a26.623 26.623 0 0 1-.563 1.927l-.615 1.942H7.14L6.6 16.14a22.444 22.444 0 0 1-.458-1.942h-.015c-.03.672-.052 1.44-.09 2.06l-.09 1.89H4.89l.323-4.977h1.522l.495 1.662c.157.576.315 1.196.427 1.78h.023c.143-.577.315-1.234.48-1.788l.54-1.654h1.492l.278 4.977H9.352l-.075-1.905zM12.48 15.498c.097.022.217.03.383.03.607 0 .982-.303.982-.813 0-.458-.323-.73-.893-.73-.232 0-.39.022-.472.043v1.47zm-1.133-2.26c.353-.058.848-.103 1.545-.103.705 0 1.208.133 1.545.399.322.251.54.664.54 1.152 0 .487-.165.9-.465 1.181-.39.362-.968.525-1.643.525-.15 0-.285-.008-.39-.022v1.78h-1.132v-4.911zM13.898 5.578h3.642C16.447 4.068 14.31 1.673 13.1.626v4.05c0 .497.358.902.799.902"/>
        <path d="M18.225 9.945V6.861h-4.327c-1.067 0-1.935-.98-1.935-2.185V.107H1.367C.612.107 0 .798 0 1.652v4.753h.003v4.525h19.922v9.265H.003v2.325c.03.823.628 1.48 1.364 1.48h15.491c.755 0 1.367-.692 1.367-1.545V21.18h2.7V9.945h-2.7z"/>
    </g>
</svg>
