<svg xmlns="http://www.w3.org/2000/svg" xmlns:xlink="http://www.w3.org/1999/xlink" width="21" height="25" viewBox="0 0 21 25">
    <defs>
        <path id="a" d="M.03.109h20.925v24.27H.03z"/>
        <path id="c" d="M0 .003h2.632V5.14H0z"/>
    </defs>
    <g fill="none" fill-rule="evenodd">
        <path fill="#CECED2" d="M13.927 5.681h3.643c-1.093-1.534-3.232-3.966-4.442-5.029v4.113c0 .505.359.916.8.916"/>
        <g transform="translate(0 .016)">
            <mask id="b" fill="#fff">
                <use xlink:href="#a"/>
            </mask>
            <path fill="#CECED2" d="M18.255 10.102V6.97h-4.328c-1.066 0-1.934-.996-1.934-2.22V.109H1.397C.642.109.03.81.03 1.678v4.829h.003v4.596h19.922v9.412H.033v2.362c.03.835.628 1.503 1.364 1.503h15.491c.755 0 1.367-.702 1.367-1.569v-1.296h2.7V10.102h-2.7z" mask="url(#b)"/>
        </g>
        <path fill="#CECED2" d="M13.927 5.681h3.643c-1.093-1.534-3.232-3.966-4.442-5.029v4.113c0 .505.359.916.8.916"/>
        <g transform="translate(0 13.391)">
            <mask id="d" fill="#fff">
                <use xlink:href="#c"/>
            </mask>
            <path fill="#CECED2" d="M1.492.003h1.14v3.195c0 1.44-.69 1.942-1.8 1.942-.262 0-.607-.045-.832-.12l.127-.922c.158.052.36.09.585.09.48 0 .78-.218.78-1.005V.003z" mask="url(#d)"/>
        </g>
        <path fill="#CECED2" d="M4.717 15.757c.098.022.218.03.383.03.607 0 .982-.308.982-.826 0-.465-.322-.742-.892-.742-.233 0-.39.023-.473.045v1.492zm-1.132-2.295c.352-.06.847-.105 1.545-.105.705 0 1.207.135 1.545.405.322.255.54.674.54 1.17 0 .495-.165.914-.465 1.2-.39.367-.968.532-1.643.532-.15 0-.285-.008-.39-.022v1.807H3.585v-4.987zM12.164 18.217a5.66 5.66 0 0 1-1.687.284c-.922 0-1.59-.232-2.055-.682-.465-.435-.72-1.095-.712-1.837.007-1.68 1.23-2.64 2.887-2.64.653 0 1.155.127 1.403.247l-.24.915c-.278-.12-.623-.218-1.178-.218-.952 0-1.672.54-1.672 1.635 0 1.043.652 1.658 1.59 1.658.262 0 .472-.03.562-.075v-1.058h-.78v-.892h1.882v2.663z"/>
    </g>
</svg>
