<svg xmlns="http://www.w3.org/2000/svg" width="17" height="14" viewBox="0 0 17 14">
    <g fill="#ABD8A5" fill-rule="evenodd">
        <path d="M16.254 8.068a.593.593 0 0 0-.593.593v4.153H1.186V8.66a.593.593 0 0 0-1.186 0v4.746c0 .327.266.593.593.593h15.661a.593.593 0 0 0 .593-.593V8.66a.593.593 0 0 0-.593-.593"/>
        <path d="M8.424 0a.593.593 0 0 0-.593.593v8.764L4.816 6.343a.593.593 0 1 0-.839.84l3.994 3.993a.586.586 0 0 0 .905 0l3.994-3.994a.593.593 0 0 0-.839-.839L9.017 9.357V.593A.593.593 0 0 0 8.424 0"/>
    </g>
</svg>
