<svg xmlns="http://www.w3.org/2000/svg" width="14" height="18" viewBox="0 0 14 18">
    <path fill="#F16A5E" fill-rule="evenodd" d="M4.579 1.862l.142-.705h3.688l.142.705H4.579zm7.987 0H9.699l-.282-1.4A.567.567 0 0 0 8.867 0H4.262a.567.567 0 0 0-.55.461l-.283 1.4H.562A.57.57 0 0 0 0 2.44c0 .32.252.578.562.578h12.003a.57.57 0 0 0 .563-.578.57.57 0 0 0-.562-.578zm-.943 1.927h-.018a.57.57 0 0 0-.562.56l-.375 11.998a.49.49 0 0 1-.481.496H2.943c-.266 0-.483-.222-.483-.514l-.375-11.98c-.01-.319-.285-.58-.58-.56a.571.571 0 0 0-.544.597l.375 11.961c0 .912.72 1.653 1.607 1.653h7.244c.885 0 1.606-.741 1.605-1.634l.375-11.98a.572.572 0 0 0-.544-.597zM7.935 15.315a.57.57 0 0 0 .562-.568l.188-10.369a.571.571 0 0 0-.553-.589c-.301-.013-.566.248-.572.568l-.187 10.369a.571.571 0 0 0 .551.589h.011zm-2.741 0h.01a.571.571 0 0 0 .552-.589L5.57 4.357c-.006-.32-.276-.583-.573-.568a.571.571 0 0 0-.552.59l.188 10.368a.57.57 0 0 0 .562.568z"/>
</svg>
