<svg xmlns="http://www.w3.org/2000/svg" width="50" height="43" viewBox="0 0 50 43">
    <g fill="#CECED2" fill-rule="evenodd">
        <path d="M26 38h2v-3h-2zM26 40v1h-1v2h3v-3zM19 43h3v-2h-3zM6 43h3v-2H6zM12 43h3v-2h-3zM0 40v3h3v-2H2v-1zM0 24h2v-3H0zM0 31h2v-3H0zM0 37h2v-3H0zM0 15v3h2v-1h1v-2zM6 17h3v-2H6z"/>
        <path d="M37.653 23.05l-5.73-1.73a.895.895 0 0 0-1.115.61.91.91 0 0 0 .008.537l2.789 8.631H14.013V1.896h16.526v6.27a.9.9 0 0 0 .895.902h6.219V23.05zM32.329 3.046l4.178 4.216h-4.178V3.047zm17.25 24.07a.91.91 0 0 0-.612-.655l-9.524-2.87V8.043c.001-.24-.095-.47-.263-.637L32.19.357A.875.875 0 0 0 31.56.09H13.117a.901.901 0 0 0-.895.903v14.604h-.896v1.805h.896v15.502h13.794v.903h1.791v-.903h6.38l1.952 6.044a.91.91 0 0 0 .851.624.906.906 0 0 0 .622-.253l3.761-3.643 3.376 3.404a.892.892 0 0 0 1.267 0l2.865-2.89a.91.91 0 0 0 .265-.64.889.889 0 0 0-.265-.637l-3.285-3.318 3.733-3.616a.904.904 0 0 0 .25-.862z"/>
        <path d="M34.223 12.003c0 .374-.3.677-.67.677H17.77a.675.675 0 0 1-.67-.679.675.675 0 0 1 .67-.675h15.782c.37 0 .671.302.672.676v.001zM34.223 15.28c0 .374-.3.677-.67.678H17.77a.675.675 0 0 1-.674-.676c0-.373.3-.678.67-.679h15.786c.37 0 .671.302.672.676v.001zM34.223 18.562c0 .374-.3.677-.67.678H17.77a.675.675 0 0 1-.67-.68.675.675 0 0 1 .67-.675h15.782c.37 0 .671.302.672.676v.001z"/>
    </g>
</svg>
