<svg xmlns="http://www.w3.org/2000/svg" width="21" height="24" viewBox="0 0 21 24">
    <g fill="#CECED2" fill-rule="evenodd">
        <path d="M1.605 15.39c.097.023.218.03.383.03.607 0 .982-.302.982-.812 0-.458-.323-.73-.893-.73-.232 0-.39.022-.472.043v1.47zM.472 13.132c.353-.058.848-.103 1.545-.103.705 0 1.208.133 1.545.399.323.25.54.664.54 1.151 0 .488-.165.901-.465 1.182-.39.362-.967.525-1.642.525-.15 0-.285-.008-.39-.023v1.78H.472v-4.91zM4.83 18.042v-4.977h1.335l1.05 1.824c.3.524.6 1.144.825 1.706h.022a18.192 18.192 0 0 1-.097-2.075v-1.455h1.05v4.977h-1.2l-1.08-1.92c-.3-.532-.63-1.174-.878-1.758l-.022.008c.03.657.045 1.359.045 2.171v1.5H4.83v-.001zM14.227 17.813c-.352.118-1.02.28-1.687.28-.923 0-1.59-.228-2.055-.671-.465-.429-.72-1.079-.712-1.81.007-1.654 1.23-2.599 2.887-2.599.652 0 1.155.126 1.402.244l-.24.9c-.277-.118-.622-.214-1.177-.214-.952 0-1.672.532-1.672 1.61 0 1.027.652 1.632 1.59 1.632.262 0 .472-.03.562-.074V16.07h-.78v-.879h1.883v2.622zM13.898 5.471h3.642C16.447 3.961 14.31 1.566 13.1.519v4.05c0 .497.358.902.799.902"/>
        <path d="M18.225 9.838V6.754h-4.327c-1.067 0-1.935-.98-1.935-2.186V0H1.367C.612 0 0 .691 0 1.544v4.754h.003v4.524h19.922v9.266H.003v2.325c.03.823.628 1.48 1.364 1.48h15.491c.755 0 1.367-.692 1.367-1.545v-1.275h2.7V9.838h-2.7z"/>
    </g>
</svg>
