<svg xmlns="http://www.w3.org/2000/svg" width="14" height="14" viewBox="0 0 14 14">
    <path fill="#4A4A49" fill-rule="evenodd" d="M11.9 4.2H2.1a.701.701 0 0 1 0-1.4h9.8a.701.701 0 0 1 0 1.4m0 2.8H2.1a.701.701 0 0 1 0-1.4h9.8a.701.701 0 0 1 0 1.4m0 4.9H9.8a.701.701 0 0 1 0-1.4h2.1a.701.701 0 0 1 0 1.4M6.3 9.8H2.1a.701.701 0 0 1 0-1.4h4.2a.701.701 0 0 1 0 1.4m6.102-8.695L11.398.083a.28.28 0 0 0-.396 0l-1.004 1.02a.28.28 0 0 1-.396 0L8.598.082a.28.28 0 0 0-.396 0l-1.004 1.02a.28.28 0 0 1-.396 0L5.798.082a.28.28 0 0 0-.396 0l-1.004 1.02a.28.28 0 0 1-.396 0L2.998.082a.28.28 0 0 0-.396 0L1.598 1.105a.28.28 0 0 1-.396 0L.477.37C.3.19 0 .317 0 .57v12.862c0 .254.3.38.477.201l.725-.735a.28.28 0 0 1 .396 0l1.004 1.02c.11.11.286.11.396 0l1.004-1.02a.28.28 0 0 1 .396 0l1.004 1.02c.11.11.286.11.396 0l1.004-1.02a.28.28 0 0 1 .396 0l1.004 1.02c.11.11.286.11.396 0l1.004-1.02a.28.28 0 0 1 .396 0l1.004 1.02c.11.11.286.11.396 0l1.004-1.02a.28.28 0 0 1 .396 0l.725.735c.177.18.477.053.477-.2V.57c0-.253-.3-.38-.477-.2l-.725.735a.28.28 0 0 1-.396 0"/>
</svg>
