<svg xmlns="http://www.w3.org/2000/svg" width="32" height="26" viewBox="0 0 32 26">
    <g fill="#6166AF" fill-rule="nonzero">
        <path d="M7.83.174V4.59h1.107v15.783a1.1 1.1 0 0 1-.325.78l-1.567 1.563 3.132 3.124 1.566-1.561a5.5 5.5 0 0 0 1.622-3.906V.174H7.829zM4.833 14.263a1.1 1.1 0 0 1-.325-.781V4.59H.081v8.89a5.5 5.5 0 0 0 1.621 3.907l1.567 1.561L6.4 15.824l-1.567-1.561zM22.776 4.592c-4.788 0-6.09 2.676-6.09 5.437v3.481c0 2.761 1.302 5.439 6.09 5.439v-.006.006c4.787 0 6.089-2.678 6.089-5.439v-3.48c0-2.762-1.302-5.438-6.089-5.438zm2.214 8.69c0 1.152-.698 1.801-2.213 1.801h-.002c-1.515 0-2.213-.65-2.213-1.8v-3.025c0-1.152.698-1.8 2.213-1.801l.001-.002.001.002c1.515 0 2.213.65 2.213 1.801v3.025zM28.863.67c.946 0 1.716.768 1.716 1.712a1.716 1.716 0 0 1-3.432 0c0-.943.77-1.712 1.716-1.712m0-.496a2.21 2.21 0 0 0-2.214 2.209c0 1.22.99 2.208 2.214 2.208a2.211 2.211 0 0 0 2.214-2.208c0-1.221-.992-2.21-2.214-2.21"/>
        <path d="M29.35 2.656c.174-.087.274-.262.274-.51v-.198c0-.396-.212-.596-.684-.596h-.858v2.06h.497v-.669h.249l.472.67h.572l-.522-.757zm-.21-.56c0 .125-.063.2-.238.2h-.323v-.484h.323c.163 0 .238.05.238.186v.098z"/>
    </g>
</svg>
