<svg xmlns="http://www.w3.org/2000/svg" width="14" height="14" viewBox="0 0 14 14">
    <path fill="#4A4A49" fill-rule="evenodd" d="M12.833 1.167V10.5H9.718c-.291 0-.431.245-.49.362-.618.933-1.446 1.237-2.228 1.237-.793 0-1.61-.316-2.228-1.237-.094-.175-.199-.362-.479-.362H1.167V1.167h11.666zM13.417 0H.583C0 0 0-.012 0 .583v12.25C0 14 0 14 1.167 14h11.666C14 14 14 14 14 12.833V.583C14-.012 14 0 13.417 0zM7 9.333c.537 0 .875-.35.875-.898V5.833h-1.75v2.602c0 .548.338.898.875.898zm-2.672-3.5h5.344L7 2.917 4.328 5.833z"/>
</svg>
