<svg xmlns="http://www.w3.org/2000/svg" width="14" height="14" viewBox="0 0 14 14">
    <g fill="#4A4A49" fill-rule="evenodd">
        <path d="M1.881 10.436H.35a.36.36 0 0 0-.35.361v2.785c0 .196.16.362.35.362h1.531a.36.36 0 0 0 .35-.362v-2.785a.343.343 0 0 0-.35-.361M5.367 7.862H3.835a.36.36 0 0 0-.35.361v5.344c0 .196.16.362.35.362h1.532a.36.36 0 0 0 .35-.362V8.223a.351.351 0 0 0-.35-.361M8.852 5.303H7.321a.36.36 0 0 0-.35.361v7.918c0 .196.16.361.35.361h1.531a.36.36 0 0 0 .35-.36V5.663a.36.36 0 0 0-.35-.361M13.767 2.488L11.842.124a.355.355 0 0 0-.54 0L9.377 2.488c-.19.24-.03.602.262.602h.817v10.492c0 .196.16.362.35.362h1.531a.36.36 0 0 0 .35-.362V3.09h.817c.292 0 .467-.362.263-.602"/>
    </g>
</svg>
