<svg xmlns="http://www.w3.org/2000/svg" xmlns:xlink="http://www.w3.org/1999/xlink" width="14" height="15" viewBox="0 0 14 15">
    <defs>
        <path id="a" d="M13.38 14.98H0V0h13.38v14.98z"/>
    </defs>
    <g fill="none" fill-rule="evenodd">
        <mask id="b" fill="#fff">
            <use xlink:href="#a"/>
        </mask>
        <path fill="#4A4A49" d="M3.107 6.554a.712.712 0 0 0 .716-.703V3.51a.71.71 0 0 0-.716-.702h-.239V0H.956v2.81H.718A.711.711 0 0 0 0 3.51v2.34c0 .387.323.704.718.704h.238v8.426h1.912V6.554h.239zm4.778 5.617a.713.713 0 0 0 .717-.703v-2.34a.713.713 0 0 0-.717-.702h-.239V0H5.735v8.426h-.239a.713.713 0 0 0-.717.703v2.34c0 .385.323.702.717.702h.239v2.809h1.911v-2.81h.239zm4.54-5.617h.238a.711.711 0 0 0 .717-.703V3.51a.71.71 0 0 0-.717-.702h-.238V0h-1.912v2.81h-.239a.71.71 0 0 0-.716.701v2.34c0 .387.322.704.716.704h.239v8.426h1.912V6.554z" mask="url(#b)"/>
    </g>
</svg>
