<svg xmlns="http://www.w3.org/2000/svg" width="1169" height="278" viewBox="0 0 1169 278">
    <g fill="#FFF" fill-rule="evenodd">
        <path d="M108.25 75H49v31.5h53.75V148H49v74H0V33.5h108.25V75zM251 189.25h-67.5l-13 32.75h-52L191 33.5h53.5l71 188.5h-52.25L251 189.25zm-13.25-37.5l-20-60h-.5l-20.25 60h40.75zm142-118.25v147h58.75V222H330.75V33.5h49zm209.5 4.625V96.75c-5-6.667-11.333-11.75-19-15.25s-15.667-5.25-24-5.25c-15 0-27.125 5.042-36.375 15.125S496 113.833 496 128.5c0 14.833 4.708 27.083 14.125 36.75 9.417 9.667 21.708 14.5 36.875 14.5 8 0 15.75-1.792 23.25-5.375s13.833-8.458 19-14.625v58.5c-4.5 1.5-8.75 2.792-12.75 3.875A240 240 0 0 1 564.75 225c-3 .667-6.042 1.167-9.125 1.5-3.083.333-6.292.5-9.625.5-13.167 0-25.792-2.375-37.875-7.125-12.083-4.75-23.042-11.542-32.875-20.375-10.333-9.333-17.958-20.042-22.875-32.125C447.458 155.292 445 142.25 445 128.25c0-12.833 2.375-25.25 7.125-37.25s11.625-22.583 20.625-31.75c9-9.167 19.583-16.458 31.75-21.875 12.167-5.417 24.75-8.292 37.75-8.625h2.25c7.833 0 15.458.833 22.875 2.5s14.708 4 21.875 7v-.125zm0 0V38v.125zm125-10.875c27.167.167 51.333 9.292 72.5 27.375S818.5 96 818.5 124.5c0 30.5-9.792 55.417-29.375 74.75s-44.542 29-74.875 29c-30.167 0-55.083-9.667-74.75-29S610 155 610 124.5c0-28.5 10.583-51.792 31.75-69.875S687.083 27.5 714.25 27.5v-.25zm0 47.5c-14.667.167-27.208 5.292-37.625 15.375C666.208 100.208 661 111.75 661 124.75c0 16.167 5.208 29.583 15.625 40.25 10.417 10.667 22.958 16 37.625 16 14.667 0 27.208-5.333 37.625-16 10.417-10.667 15.625-24.083 15.625-40.25 0-13-5.208-24.542-15.625-34.625C741.458 80.042 728.917 75 714.25 75v-.25zm127 147.25V33.5h49L980 148.75h.5V33.5h49V222h-49l-89.75-115.5h-.5V222h-49zm327.5-147h-58.25v31.5h55.25V148h-55.25v32.5h58.25V222H1061.5V33.5h107.25V75z" opacity=".2"/>
        <g fill-rule="nonzero">
            <path d="M314.723 128.623l-12.378-11.224c-2.018-1.953-2.4-2.26-5.197-1.896l-21.942 4.307c12.378-26.556 23.538-50.015 31.52-64.995 1.998-3.554 3.57-4.855.401-5.544l-7.605-3.42c17.954-2.68 39.916-7 55.47-10.834l-18.36 39.421c-.782 1.927 1.605.891 4-.141 7.565-2.451 31.512-11.042 38.695-14.196 2.388-1.399 3.598-1.533 4.786-3.907 6.774-13.732 14.366-26.798 18.752-33.617.802-.844 1.606-2.425.802-2.683L374.535.926c-1.184-.585-1.606-1.264-2.787-.736-58.638 15.648-129.65 28.503-170.341 34.115-2.009.259-.812.84.382 1.792l18.37 17.087c1.184 1.302 1.985 1.924 3.984 1.678 8.776-.756 25.54-2.569 45.47-4.788-17.941 35.359-30.721 59.763-40.282 78.246l-40.694 7.461c-3.592.814-1.21 1.99 1.187 4.244l16.381 13.658c1.969 1.59 3.974.591 6.764-.135l3.984-.88c-16.744 32.258-21.137 40.886-49.47 95.548-1.19 2.72 0 2.929 1.606 4.213l35.118 25.168c.791.632 1.2.574 1.586-.555 11.164-28.251 35.895-84.265 59.453-135.387l46.69-10.803c2.365-.669 4.363-.938 2.787-2.23zM989.119 53.072c-24.796 31.8-80.395 76.891-104.424 87.558-10.898 4.86-17.286 6.725-18.052 2.335-.363-3.396 1.874-10.936 6.408-20.12l6.008 3.014c1.119.534 1.119.534 2.6.336 38.706-6.345 63.501-34.73 81.522-80.469.76-1.454 1.139-1.867-.372-2.707l-22.902-12.907c-.745-.229-1.128-.87-1.508.201l-4.14 9.855c-.346 1.071-.346 1.397-1.485.537l-10.901-9.979c-1.502-1.179-1.502-1.531-3.379-.947-21.669 7.215-50.712 35.616-69.117 63.9l-40.227 44.305c-.145.15-.269.268-.373.373 9.384-23.955 19.909-48.39 31.177-73.295.745-2.495 1.857-3.684 0-4.802-9.025-5.73-17.286-10.89-25.928-16.666-1.128-.538-1.5-1.19-2.257-.058l-57.086 78.353c-.77.792-1.888 1.978-1.132.15 7.137-16.77 14.273-33.885 21.41-50.665.363-1.082.363-1.435-.38-2.03l-25.927-16.628c-.362-.286-1.49-1.18-2.24.631-5.058 12.763-10.3 25.926-15.408 38.985l-18.81 8.85c2.619-9.968 4.13-19.833 2.24-29.583 0-1.388-.364-1.337-1.482-2.23-6.391-4.333-12.027-8.774-18.414-12.78-.75-.239-.75-.239-1.512.89l-4.13 9.135c-.75 2.17-.353 1.76-2.267.642-3.742-1.589-12.742-5.243-16.887-6.103-1.508-.48-1.508-.48-2.63.336-21.06 11.413-41.772 36.654-55.242 61.716-27.385 26.978-63.975 55.07-82.282 63.218-10.902 4.84-17.283 6.708-18.032 2.314-1.138-9.844 20.292-53.958 52.963-72.988l-8.628 15.568c-1.501 2.297.37 2.727 2.247 3.845l12.782 7.672c1.878.786 1.878 1.491 3.379-.094l34.572-48.228c1.118-1.868 1.49-2.257 0-3.433L590.448 74.49c-1.857-1.48-2.62-2.411-3.748-.554l-9.027 17.355-10.505-13.795c-1.512-1.874-1.878-2.868-4.508-1.837-21.524 7.903-50.107 35.992-68.34 63.89l-35.734 39.472c-4.151 4.668-4.897 5.46-3.01.403 19.896-49.444 41.689-106.348 69.497-152.335 1.491-2.257 2.247-2.707 0-4.131L498.007 5.744c-1.128-.86-1.128-1.226-2.247.306-12.748 21.583-36.741 76.451-56.835 128.33l-50.652 56.12c-1.857 1.982-2.256 2.708-1.49.9 9.393-23.285 19.918-48.408 30.437-72.175 2.237-4.084 2.62-3.09-1.129-5.357L393.916 99.49c-3.752-2.287-3.389-3.358-5.263 1.005-1.118 2.562-2.237 5.128-2.992 7.298-1.122 2.553-.77 2.153-2.26.279l-6.775-8.773-.735.104c-59.36 20.052-99.94 112.813-90.537 121.616l20.651 18.332c1.501 1.186 3.379.611 4.9-.615l41.688-46.038c1.112-.833.76-.46.373.978-2.63 7.597-4.89 14.073-6.764 20.532-1.121 3.567.37 3.385 3.376 5.071l20.301 12.186c1.119.537 1.119.537 1.878-.571l57.62-71.28c-6.226 16.915-11.75 32.836-15.902 46.267-.759 2.832 0 3.09 2.637 4.467l20.281 11.863c1.501.84 1.878 1.828 3.379.239l37.866-47.012c-2.196 10.143-1.125 18.607 4.977 23.581l15.775 13.472c2.996 2.372 6.774 2.573 10.905 1.347 25.46-6.009 62.084-36.469 91.826-66.358-4.83 14.362-6.055 26.933-2.028 34.46 0 .669.745 1.962 2.257 2.449l26.306 12.132c6.009 3.006 11.268 2.68 18.78-2.096 16.904-10.446 47.718-40.947 60.852-75.723l17.918-11.463c-8.944 23.239-17.065 45.386-22.394 63.047-.363.725 0 1.024.755 1.28 8.265 4.792 16.54 9.232 24.423 14.082.38.28.38-.057.755-.45l66.105-99.505c.759-1.129.383-.726 0 1.044-9.757 24.684-18.77 48.937-26.287 73.677-.749 2.51-.749 2.173 1.522 3.275l22.538 13.28c1.118.545.736.592 1.481-.191l38.81-47.815c-2.36 10.426-1.367 19.152 4.813 24.264l15.774 13.468c2.61 2.442 6.764 2.583 10.875 1.377 41.719-9.844 113.086-85.23 135.624-116.413l-10.881 1.414zm-617.003 88.17c-4.487 11.624-8.618 22.836-12.769 34.393-.352.383-.352.736-.739.783l-42.447 37.503c-1.521 1.243-1.521.9-1.118-.537 6.733-21.89 29.665-53.098 56.72-73.13 1.129-.82 1.129-.497.353.988zm297.988-16.713c2.26.413 6.767 1.894 6.767 1.894s.766.249 2.267.393c-8.275 17.27-31.187 51.93-47.344 52.974-2.996-27.525 35.317-73.476 46.578-81.819.38-.403.766-.46.766-.46l-9.766 24.368c-.004 0-1.142 1.864.732 2.65zm254.405-57.606c-9.773 24.348-29.31 42.706-46.968 47.06 9.394-15.323 29.696-37.262 46.968-47.06z"/>
        </g>
    </g>
</svg>
