<svg xmlns="http://www.w3.org/2000/svg" xmlns:xlink="http://www.w3.org/1999/xlink" width="27" height="27" viewBox="0 0 27 27">
    <defs>
        <path id="a" d="M0 13.5C0 6.044 6.044 0 13.5 0S27 6.044 27 13.5 20.956 27 13.5 27 0 20.956 0 13.5z"/>
    </defs>
    <g fill="none" fill-rule="evenodd">
        <mask id="b" fill="#fff">
            <use xlink:href="#a"/>
        </mask>
        <use fill="#FFF" xlink:href="#a"/>
        <path fill="#000" d="M13.5 6.3c-1.955 0-2.2.009-2.968.044-.767.035-1.29.156-1.748.334-.473.184-.875.43-1.275.83-.4.4-.647.802-.831 1.276-.179.458-.3.98-.335 1.747-.034.768-.043 1.014-.043 2.97 0 1.954.009 2.2.044 2.967.035.767.156 1.29.334 1.748.184.473.43.875.83 1.275.4.4.802.647 1.275.831.459.178.982.3 1.748.335.768.035 1.014.043 2.969.043 1.955 0 2.2-.008 2.968-.043.767-.035 1.29-.157 1.748-.335.474-.184.875-.43 1.275-.83.4-.401.646-.803.831-1.276.177-.458.298-.981.334-1.748.035-.768.044-1.013.044-2.968s-.009-2.2-.044-2.969c-.036-.766-.157-1.29-.334-1.747a3.534 3.534 0 0 0-.831-1.276c-.4-.4-.801-.646-1.275-.83-.459-.178-.983-.3-1.749-.334-.768-.035-1.013-.044-2.969-.044h.003zm-.645 1.298h.646c1.922 0 2.15.006 2.91.04.701.033 1.082.15 1.336.249.336.13.575.286.827.538.252.252.408.492.54.828.098.254.215.635.247 1.337.035.759.042.987.042 2.908 0 1.922-.007 2.15-.042 2.909-.032.702-.15 1.083-.248 1.336-.13.336-.287.576-.539.828a2.227 2.227 0 0 1-.827.538c-.254.1-.635.216-1.337.248-.759.035-.987.042-2.91.042-1.922 0-2.15-.007-2.909-.042-.702-.032-1.083-.15-1.337-.248a2.23 2.23 0 0 1-.828-.539 2.232 2.232 0 0 1-.539-.827c-.098-.254-.216-.635-.247-1.337-.035-.759-.042-.987-.042-2.91 0-1.922.007-2.149.042-2.908.032-.702.149-1.083.247-1.337a2.23 2.23 0 0 1 .54-.828c.251-.252.491-.408.827-.539.254-.099.635-.216 1.337-.248.664-.03.922-.039 2.264-.04v.002zm4.489 1.195a.864.864 0 1 0 0 1.728.864.864 0 0 0 0-1.728zm-3.843 1.01a3.698 3.698 0 1 0 0 7.395 3.698 3.698 0 0 0 0-7.395zm0 1.297a2.4 2.4 0 1 1 0 4.8 2.4 2.4 0 0 1 0-4.8z" mask="url(#b)"/>
    </g>
</svg>
