<svg xmlns="http://www.w3.org/2000/svg" xmlns:xlink="http://www.w3.org/1999/xlink" width="16" height="16" viewBox="0 0 16 16">
    <defs>
        <path id="a" d="M0 7.98C0 4.515 2.231 1.55 5.329.455v15.051C2.231 14.412 0 11.454 0 7.98z"/>
        <path id="c" d="M5.961 7.98a7.96 7.96 0 0 1-5.32 7.526V.455A7.97 7.97 0 0 1 5.96 7.98z"/>
        <path id="e" d="M2.98 0c.946 0 1.838.157 2.66.455v15.05a7.793 7.793 0 0 1-2.66.465c-.927 0-1.82-.167-2.651-.464V.455A7.85 7.85 0 0 1 2.98 0z"/>
    </defs>
    <g fill="none" fill-rule="evenodd">
        <g>
            <mask id="b" fill="#fff">
                <use xlink:href="#a"/>
            </mask>
            <path fill="#062493" d="M-5-4.545h15.329v25.051H-5z" mask="url(#b)"/>
        </g>
        <g transform="translate(10)">
            <mask id="d" fill="#fff">
                <use xlink:href="#c"/>
            </mask>
            <path fill="#EC2938" d="M-4.36-4.545h15.321v25.05h-15.32z" mask="url(#d)"/>
        </g>
        <g transform="translate(5)">
            <mask id="f" fill="#fff">
                <use xlink:href="#e"/>
            </mask>
            <path fill="#FFF" d="M-4.671-5h15.312v25.97H-4.671z" mask="url(#f)"/>
        </g>
    </g>
</svg>
