<svg xmlns="http://www.w3.org/2000/svg" width="42" height="48" fill="none" viewBox="0 0 42 48">
    <path fill="#F37F2A" d="M33 15h9v25.5c0 2.063-.75 3.844-2.25 5.344-1.5 1.5-3.188 2.156-5.25 2.156h-27c-2.063 0-3.844-.656-5.344-2.156C.656 44.344 0 42.562 0 40.5V15h9v-3c0-2.156.469-4.125 1.594-6 1.031-1.875 2.437-3.281 4.312-4.406C16.781.562 18.75 0 21 0c2.156 0 4.125.563 6 1.594C28.875 2.719 30.281 4.125 31.406 6 32.438 7.875 33 9.844 33 12v3zm-18-3v3h12v-3c0-1.594-.656-3-1.781-4.219C24 6.656 22.594 6 21 6c-1.688 0-3.094.656-4.219 1.781C15.563 9 15 10.406 15 12zm15 11.25c.563 0 1.125-.188 1.594-.656.375-.375.656-.938.656-1.594 0-.563-.281-1.125-.656-1.594-.469-.375-1.032-.656-1.594-.656-.656 0-1.219.281-1.594.656A2.196 2.196 0 0 0 27.75 21c0 .656.188 1.219.656 1.594.375.468.938.656 1.594.656zm-18 0c.563 0 1.125-.188 1.594-.656.375-.375.656-.938.656-1.594 0-.563-.281-1.125-.656-1.594-.469-.375-1.031-.656-1.594-.656-.656 0-1.219.281-1.594.656A2.196 2.196 0 0 0 9.75 21c0 .656.188 1.219.656 1.594.375.468.938.656 1.594.656z"/>
</svg>
