<svg xmlns="http://www.w3.org/2000/svg" width="91" height="104" fill="none" viewBox="0 0 91 104">
    <path fill="#F37F2A" d="M71.5 32.5H91v55.25c0 4.469-1.625 8.328-4.875 11.578S79.219 104 74.75 104h-58.5c-4.469 0-8.328-1.422-11.578-4.672S0 92.218 0 87.75V32.5h19.5V26c0-4.672 1.016-8.938 3.453-13 2.235-4.063 5.281-7.11 9.344-9.547C36.359 1.22 40.625 0 45.5 0c4.672 0 8.938 1.219 13 3.453 4.063 2.438 7.11 5.485 9.547 9.547 2.234 4.063 3.453 8.328 3.453 13v6.5zm-39-6.5v6.5h26V26c0-3.453-1.422-6.5-3.86-9.14C52 14.421 48.954 13 45.5 13c-3.656 0-6.703 1.422-9.14 3.86-2.641 2.64-3.86 5.687-3.86 9.14zM65 50.375c1.219 0 2.438-.406 3.453-1.422a4.9 4.9 0 0 0 1.422-3.453c0-1.219-.61-2.438-1.422-3.453-1.016-.813-2.234-1.422-3.453-1.422a4.9 4.9 0 0 0-3.453 1.422c-1.016 1.016-1.422 2.234-1.422 3.453 0 1.422.406 2.64 1.422 3.453.812 1.016 2.031 1.422 3.453 1.422zm-39 0c1.219 0 2.438-.406 3.453-1.422a4.9 4.9 0 0 0 1.422-3.453c0-1.219-.61-2.438-1.422-3.453-1.015-.813-2.234-1.422-3.453-1.422a4.9 4.9 0 0 0-3.453 1.422c-1.016 1.016-1.422 2.234-1.422 3.453 0 1.422.406 2.64 1.422 3.453.812 1.016 2.031 1.422 3.453 1.422z"/>
</svg>
