<svg xmlns="http://www.w3.org/2000/svg" width="128" height="128" fill="none" viewBox="0 0 128 128">
    <mask id="a" fill="#fff">
        <path fill-rule="evenodd" d="M64 128c35.346 0 64-28.654 64-64 0-35.346-28.654-64-64-64C28.654 0 0 28.654 0 64c0 35.346 28.654 64 64 64zm35.374-87.293a1 1 0 0 0-1.414-1.414L48 89.253 27.374 68.626a1 1 0 0 0-1.414 1.414l21.333 21.334a1 1 0 0 0 1.414 0l50.667-50.667z" clip-rule="evenodd"/>
    </mask>
    <path fill="#0E9BD8" fill-rule="evenodd" d="M64 128c35.346 0 64-28.654 64-64 0-35.346-28.654-64-64-64C28.654 0 0 28.654 0 64c0 35.346 28.654 64 64 64zm35.374-87.293a1 1 0 0 0-1.414-1.414L48 89.253 27.374 68.626a1 1 0 0 0-1.414 1.414l21.333 21.334a1 1 0 0 0 1.414 0l50.667-50.667z" clip-rule="evenodd"/>
    <path fill="#0E9BD8" d="M99.374 39.293l.707-.707-.707.707zm0 1.414L98.667 40l.707.707zm-1.414-1.414l-.707-.707.707.707zM48 89.253l-.707.707.707.707.707-.707-.707-.707zM27.374 68.626l.707-.707-.707.707zm-1.414 0l-.707-.707.707.707zm0 1.414l-.708.708.708-.708zm21.333 21.334l-.707.707.707-.707zm1.414 0l.707.707-.707-.707zM127 64c0 34.794-28.206 63-63 63v2c35.898 0 65-29.102 65-65h-2zM64 1c34.794 0 63 28.206 63 63h2c0-35.898-29.102-65-65-65v2zM1 64C1 29.206 29.206 1 64 1v-2C28.102-1-1 28.102-1 64h2zm63 63C29.206 127 1 98.794 1 64h-2c0 35.898 29.102 65 65 65v-2zm34.667-87l1.414 1.414a2 2 0 0 0 0-2.828L98.667 40zm0 0l1.414-1.414a2 2 0 0 0-2.829 0L98.668 40zm-49.96 49.96L98.667 40l-1.415-1.414-49.96 49.96 1.415 1.414zm-22.04-20.627L47.293 89.96l1.414-1.415L28.081 67.92l-1.414 1.414zm0 0l1.414-1.414a2 2 0 0 0-2.828 0l1.414 1.414zm0 0l-1.415-1.414a2 2 0 0 0 0 2.829l1.415-1.415zM48 90.667L26.667 69.333l-1.415 1.415L46.587 92.08 48 90.667zm0 0l-1.414 1.414a2 2 0 0 0 2.828 0L48 90.667zM98.667 40L48 90.667l1.414 1.414 50.667-50.667L98.667 40z" mask="url(#a)"/>
</svg>
