<svg xmlns="http://www.w3.org/2000/svg" width="23" height="20" fill="none" viewBox="0 0 23 20">
    <path fill="#0E9BD8" d="M15.742 3.242a.422.422 0 0 0-.273-.117.355.355 0 0 0-.274.117l-8.554 8.555-.391 3.594c-.04.273.04.507.195.664.157.156.39.234.664.195l3.594-.39 8.555-8.555a.355.355 0 0 0 .117-.274.422.422 0 0 0-.117-.273l-3.516-3.516zm6.328-.898c.274.312.43.703.43 1.094 0 .43-.156.78-.43 1.054l-1.406 1.406a.422.422 0 0 1-.273.118.354.354 0 0 1-.274-.118l-3.515-3.515a.354.354 0 0 1-.118-.274c0-.078.04-.195.118-.273L18.008.43c.273-.274.625-.43 1.055-.43.39 0 .78.156 1.093.43l1.914 1.914zM15 13.516c0-.118.04-.235.156-.313l1.563-1.562c.117-.157.273-.196.468-.118.196.079.313.235.313.43v6.172c0 .547-.195.977-.547 1.328-.39.39-.82.547-1.328.547H1.875c-.547 0-.977-.156-1.328-.547-.39-.351-.547-.781-.547-1.328V4.375c0-.508.156-.938.547-1.328A1.795 1.795 0 0 1 1.875 2.5h11.172c.195 0 .351.117.43.313.078.195.039.351-.118.468l-1.562 1.602a.443.443 0 0 1-.313.117H2.5v12.5H15v-3.984z"/>
</svg>
