<svg xmlns="http://www.w3.org/2000/svg" width="124" height="15" fill="none" viewBox="0 0 124 15">
    <path fill="#0E9BD8" d="M10.025 10.045h.82c.053.213.1.473.14.78.054.294.094.614.12.96.04.334.067.668.08 1.001.014.334.02.634.02.9-.467.294-1.054.5-1.76.62-.694.12-1.408.18-2.142.18-1.107 0-2.114-.133-3.021-.4a6.015 6.015 0 0 1-2.301-1.3c-.627-.6-1.114-1.354-1.46-2.261C.172 9.605 0 8.504 0 7.223 0 5.956.187 4.87.56 3.962c.387-.92.9-1.674 1.541-2.261A5.878 5.878 0 0 1 4.322.42 8.545 8.545 0 0 1 7.003 0c.88 0 1.674.067 2.381.2.72.12 1.308.287 1.761.5 0 .214-.013.487-.04.82-.013.334-.046.688-.1 1.061-.04.36-.093.72-.16 1.08-.053.348-.107.641-.16.881h-.84l-1.1-3.021c-.12-.067-.314-.12-.581-.16-.267-.04-.54-.06-.82-.06-.547 0-1.061.113-1.541.34-.48.213-.907.56-1.28 1.04-.374.48-.668 1.1-.881 1.861-.214.747-.32 1.648-.32 2.701 0 1.908.38 3.375 1.14 4.402.76 1.028 1.794 1.541 3.102 1.541.373 0 .687-.027.94-.08.267-.066.447-.153.54-.26l.98-2.801zM12.893 9.244c0-.813.12-1.54.36-2.18a4.734 4.734 0 0 1 1.06-1.661 4.706 4.706 0 0 1 1.681-1.04c.654-.241 1.394-.361 2.221-.361.934 0 1.735.133 2.402.4.68.254 1.233.614 1.66 1.08.44.454.76 1.008.96 1.661.2.64.3 1.341.3 2.101 0 .814-.12 1.548-.36 2.201a4.485 4.485 0 0 1-2.741 2.681c-.653.24-1.393.36-2.22.36-.908 0-1.695-.126-2.362-.38-.667-.266-1.22-.626-1.66-1.08a4.426 4.426 0 0 1-.98-1.66 6.793 6.793 0 0 1-.321-2.122zm3.101 0c0 .6.034 1.154.1 1.661.08.494.214.914.4 1.26.187.348.44.621.761.821.32.187.734.28 1.24.28.294 0 .56-.066.8-.2.241-.147.448-.373.621-.68.174-.32.3-.734.38-1.24.094-.521.14-1.155.14-1.902 0-.613-.04-1.167-.12-1.66-.066-.494-.193-.914-.38-1.261a1.912 1.912 0 0 0-.72-.8c-.307-.2-.694-.3-1.16-.3-.348 0-.648.073-.901.22-.254.133-.467.36-.64.68-.174.307-.307.72-.4 1.24-.08.507-.12 1.134-.12 1.881zM42.342 14.247h-5.983v-.76a6.61 6.61 0 0 1 1.6-.58V4.541l.1-2.341h-.16l-.66 2.141-3.861 9.905h-.92l-3.843-9.825-.72-2.341h-.18l.02 2.541v8.204c.253.053.534.14.84.26.307.12.594.254.86.4v.76h-4.882v-.76c.214-.106.474-.233.78-.38.32-.147.621-.247.901-.3V1.581a9.1 9.1 0 0 1-.86-.22 3.234 3.234 0 0 1-.78-.36V.24h5.422l3.061 8.143.58 1.92h.02l.601-1.96L37.399.24h4.963V1a5.452 5.452 0 0 1-.74.36 5.209 5.209 0 0 1-.78.22v11.346c.28.053.546.133.8.24.266.107.5.214.7.32v.76zM52.48 12.566c-.106.227-.28.46-.52.7a3.657 3.657 0 0 1-.86.62 5.082 5.082 0 0 1-1.18.42c-.441.12-.921.18-1.442.18-.827 0-1.56-.12-2.2-.36a4.367 4.367 0 0 1-1.601-1.06 4.806 4.806 0 0 1-.98-1.66c-.214-.64-.321-1.361-.321-2.162 0-1.707.447-3.008 1.34-3.901.894-.894 2.135-1.341 3.722-1.341.68 0 1.314.093 1.901.28.6.187 1.094.494 1.481.92.4.427.674.988.82 1.681.16.694.154 1.541-.02 2.541h-6.142c.013 1.054.28 1.895.8 2.522.533.627 1.314.94 2.34.94.441 0 .895-.067 1.362-.2.48-.133.853-.307 1.12-.52l.38.4zm-4.122-7.424a1.78 1.78 0 0 0-.72.14c-.2.094-.38.267-.54.52-.147.24-.267.574-.36 1.001-.094.414-.16.94-.2 1.58h3.221c.093-1.04.033-1.84-.18-2.4-.214-.56-.62-.84-1.22-.84zM66.149 14.247h-5.303v-.78a5.6 5.6 0 0 1 .5-.24c.174-.08.374-.16.6-.24V8.283c0-.84-.12-1.494-.36-1.961-.24-.48-.666-.72-1.28-.72-.507 0-.947.166-1.32.5-.36.32-.634.76-.82 1.32v5.563c.213.053.4.12.56.2.173.067.353.16.54.28v.78h-5.303v-.78c.334-.173.774-.333 1.32-.48V5.663l-1.32-.16v-.78c.174-.08.4-.154.68-.22.28-.08.58-.154.9-.221.334-.067.668-.12 1.001-.16.347-.053.66-.093.94-.12h.681v2.06h.02c.28-.56.7-1.04 1.26-1.44.561-.413 1.241-.62 2.042-.62.52 0 .987.067 1.4.2.414.12.76.34 1.04.66.294.32.514.754.661 1.3.16.534.24 1.215.24 2.042v4.782c.534.093.974.254 1.32.48v.78zM66.54 4.722a5.268 5.268 0 0 1 1.6-.68v-1.62c.108-.08.368-.194.781-.341.427-.16.9-.287 1.42-.38h.681v2.541h2.641v1.26h-2.64v5.183c0 .827.1 1.4.3 1.72.213.321.56.481 1.04.481.24 0 .507-.013.8-.04.307-.04.587-.107.84-.2l.14.66c-.12.12-.3.247-.54.38-.226.134-.493.26-.8.38-.293.12-.62.22-.98.3-.347.08-.714.12-1.1.12-.868 0-1.515-.226-1.942-.68-.427-.453-.64-1.187-.64-2.2V5.502h-1.6v-.78zM74.992 9.244c0-.813.12-1.54.36-2.18a4.732 4.732 0 0 1 1.061-1.661 4.706 4.706 0 0 1 1.68-1.04c.654-.241 1.395-.361 2.222-.361.934 0 1.734.133 2.401.4.68.254 1.234.614 1.66 1.08.441.454.761 1.008.961 1.661.2.64.3 1.341.3 2.101 0 .814-.12 1.548-.36 2.201a4.484 4.484 0 0 1-2.741 2.681c-.654.24-1.394.36-2.221.36-.907 0-1.694-.126-2.361-.38-.667-.266-1.22-.626-1.661-1.08a4.426 4.426 0 0 1-.98-1.66 6.793 6.793 0 0 1-.32-2.122zm3.102 0c0 .6.033 1.154.1 1.661.08.494.213.914.4 1.26.187.348.44.621.76.821.32.187.734.28 1.241.28.293 0 .56-.066.8-.2.24-.147.447-.373.62-.68.174-.32.3-.734.38-1.24.094-.521.14-1.155.14-1.902 0-.613-.04-1.167-.12-1.66-.066-.494-.193-.914-.38-1.261a1.912 1.912 0 0 0-.72-.8c-.306-.2-.693-.3-1.16-.3-.347 0-.647.073-.9.22-.254.133-.468.36-.64.68-.174.307-.308.72-.401 1.24-.08.507-.12 1.134-.12 1.881zM92.055 6.543c-.16.08-.346.214-.56.4-.213.187-.407.494-.58.92v5.123c.267.027.533.08.8.16.267.067.534.174.8.32v.78h-5.802v-.78c.24-.133.467-.233.68-.3.214-.066.427-.127.64-.18V5.663l-1.32-.16v-.78c.213-.094.474-.18.78-.26.32-.08.647-.148.98-.201.334-.067.654-.12.961-.16l.8-.1h.68v2.661h.08c.108-.293.261-.6.461-.92.214-.32.46-.614.74-.88.28-.268.587-.48.92-.641.334-.16.681-.233 1.041-.22.147.187.274.453.38.8.107.334.194.654.26.96v.781h-2.74zM104.274 11.345v.76c.014.214.034.44.06.681l1.381.2v.7c-.16.08-.38.16-.66.24-.267.08-.554.16-.861.24-.293.067-.587.12-.88.16-.293.054-.554.094-.78.12h-.681a2.958 2.958 0 0 1-.24-.92c-.026-.306-.046-.68-.06-1.12h-.1c-.067.267-.18.527-.34.78a2.889 2.889 0 0 1-1.48 1.12 3.29 3.29 0 0 1-1.121.18c-.44 0-.847-.066-1.22-.2a3.08 3.08 0 0 1-.981-.56c-.28-.24-.5-.527-.66-.86a2.736 2.736 0 0 1-.24-1.16c0-.6.113-1.094.34-1.481.226-.387.58-.7 1.06-.94.493-.254 1.12-.44 1.88-.56.775-.121 1.708-.208 2.802-.261.107-1.147.06-1.988-.14-2.521-.2-.534-.634-.8-1.301-.8-.413 0-.793.066-1.14.2l-.94 2.4h-.88a6.436 6.436 0 0 1-.321-.54 32.89 32.89 0 0 1-.28-.66c-.08-.24-.154-.48-.22-.72a6.996 6.996 0 0 1-.12-.7c.507-.347 1.16-.62 1.96-.821.8-.2 1.648-.3 2.542-.3.76 0 1.38.087 1.861.26.48.16.853.387 1.12.68.28.28.474.614.58 1 .107.388.16.801.16 1.241 0 .8-.02 1.528-.06 2.181-.026.64-.04 1.301-.04 1.981zm-4.502 1.541c.28 0 .521-.053.721-.16.2-.107.367-.234.5-.38.147-.147.253-.307.32-.48.08-.174.14-.327.18-.46V9.403c-.627.014-1.14.054-1.54.12-.4.067-.714.18-.941.34-.227.147-.387.34-.48.58-.08.228-.12.508-.12.841 0 .507.12.9.36 1.18.24.281.573.421 1 .421zM106.168 4.722a5.272 5.272 0 0 1 1.601-.68v-1.62c.107-.08.367-.194.78-.341.427-.16.901-.287 1.421-.38h.68v2.541h2.641v1.26h-2.641v5.183c0 .827.1 1.4.3 1.72.214.321.561.481 1.041.481.24 0 .507-.013.8-.04.307-.04.587-.107.841-.2l.14.66c-.12.12-.3.247-.541.38a5.57 5.57 0 0 1-.8.38c-.293.12-.62.22-.98.3-.347.08-.714.12-1.101.12-.867 0-1.514-.226-1.941-.68-.427-.453-.64-1.187-.64-2.2V5.502h-1.601v-.78zM123.725 12.566c-.107.227-.28.46-.521.7a3.637 3.637 0 0 1-.86.62 5.07 5.07 0 0 1-1.181.42c-.44.12-.92.18-1.44.18-.827 0-1.561-.12-2.201-.36a4.363 4.363 0 0 1-1.601-1.06 4.791 4.791 0 0 1-.98-1.66c-.214-.64-.321-1.361-.321-2.162 0-1.707.447-3.008 1.341-3.901.894-.894 2.134-1.341 3.722-1.341.68 0 1.314.093 1.901.28.6.187 1.094.494 1.48.92.401.427.674.988.821 1.681.16.694.153 1.541-.02 2.541h-6.143c.013 1.054.28 1.895.8 2.522.534.627 1.314.94 2.341.94.441 0 .894-.067 1.361-.2.48-.133.854-.307 1.12-.52l.381.4zm-4.122-7.424c-.267 0-.507.047-.721.14-.2.094-.38.267-.54.52-.147.24-.267.574-.36 1.001-.093.414-.16.94-.2 1.58h3.221c.094-1.04.034-1.84-.18-2.4-.213-.56-.62-.84-1.22-.84z"/>
</svg>
