<svg xmlns="http://www.w3.org/2000/svg" width="112" height="14" fill="none" viewBox="0 0 112 14">
    <path fill="#fff" d="M9.055 9.073h.74c.049.192.09.427.127.704.048.266.084.555.108.868.037.301.06.602.073.904.012.3.018.572.018.813-.422.265-.952.452-1.59.56-.627.109-1.272.163-1.934.163-1 0-1.91-.12-2.73-.362A5.433 5.433 0 0 1 1.79 11.55C1.223 11.007.783 10.326.47 9.506.158 8.676 0 7.681 0 6.524 0 5.38.169 4.398.506 3.578c.35-.83.813-1.512 1.392-2.042A5.309 5.309 0 0 1 3.904.38 7.718 7.718 0 0 1 6.326 0c.795 0 1.512.06 2.15.18.65.11 1.181.26 1.59.453 0 .192-.011.44-.036.74-.012.302-.042.621-.09.958-.036.326-.084.651-.144.976-.049.314-.097.579-.145.796h-.76l-.993-2.73c-.109-.06-.283-.108-.524-.144a4.99 4.99 0 0 0-.741-.054c-.494 0-.958.102-1.392.307-.434.193-.82.506-1.157.94-.337.434-.602.994-.795 1.68C3.096 4.778 3 5.592 3 6.543c0 1.723.343 3.049 1.03 3.976.687.928 1.62 1.392 2.802 1.392.337 0 .62-.024.849-.072.241-.06.404-.139.488-.235l.886-2.53zm2.59-.723c0-.735.109-1.392.325-1.97.23-.59.549-1.09.958-1.5.422-.41.928-.723 1.518-.94.59-.217 1.26-.325 2.007-.325.843 0 1.566.12 2.168.361.615.229 1.115.554 1.5.976.398.41.687.91.868 1.5.18.578.271 1.211.271 1.898 0 .735-.108 1.397-.325 1.988a4.052 4.052 0 0 1-2.476 2.422c-.59.216-1.26.325-2.006.325-.82 0-1.53-.115-2.133-.344-.602-.24-1.102-.566-1.5-.976a3.997 3.997 0 0 1-.886-1.5 6.137 6.137 0 0 1-.289-1.915zm2.802 0c0 .542.03 1.042.09 1.5.072.446.193.825.361 1.138.169.314.398.56.687.741.29.17.663.253 1.12.253.266 0 .507-.06.724-.18.216-.133.403-.338.56-.615.156-.289.27-.662.343-1.12.085-.47.127-1.043.127-1.717 0-.554-.036-1.055-.109-1.5-.06-.446-.174-.826-.343-1.139a1.727 1.727 0 0 0-.65-.723c-.278-.18-.627-.27-1.049-.27-.313 0-.584.065-.813.198-.23.12-.422.325-.579.614-.156.277-.277.651-.361 1.12a11.154 11.154 0 0 0-.108 1.7zm23.797 4.518H32.84v-.687c.241-.12.476-.223.705-.307.23-.084.476-.157.741-.217V4.103l.09-2.115h-.144l-.596 1.934-3.489 8.946h-.83l-3.47-8.874-.652-2.114h-.162l.018 2.295v7.41c.229.048.482.126.759.235.277.108.536.229.777.361v.687h-4.41v-.687c.193-.096.428-.21.705-.343.29-.133.56-.223.813-.271V1.427a8.229 8.229 0 0 1-.777-.198 2.921 2.921 0 0 1-.705-.325V.217h4.898l2.765 7.356.524 1.735h.019l.542-1.772 2.82-7.32h4.481v.688c-.205.12-.428.229-.669.325-.228.084-.463.15-.704.199v10.247c.253.048.494.12.723.217.24.096.451.193.632.29v.686zm9.157-1.518a2.315 2.315 0 0 1-.47.632 3.31 3.31 0 0 1-.776.56 4.592 4.592 0 0 1-1.067.38 4.936 4.936 0 0 1-1.301.163c-.747 0-1.41-.109-1.988-.325a3.947 3.947 0 0 1-1.446-.958 4.342 4.342 0 0 1-.886-1.5c-.192-.579-.289-1.23-.289-1.952 0-1.542.404-2.717 1.211-3.524.807-.808 1.928-1.211 3.362-1.211.614 0 1.187.084 1.717.253.542.168.988.445 1.337.831.362.386.609.892.741 1.518.145.627.139 1.392-.018 2.295H41.98c.012.952.253 1.711.723 2.278.481.566 1.186.849 2.114.849.398 0 .807-.06 1.229-.18.434-.121.771-.278 1.012-.47l.343.36zm-3.723-6.705c-.24 0-.457.042-.65.126-.18.085-.343.241-.488.47-.133.217-.241.518-.325.904-.085.373-.145.85-.181 1.428h2.91c.084-.94.03-1.663-.163-2.17-.193-.505-.56-.758-1.102-.758zm16.07 8.223h-4.79v-.705a5.06 5.06 0 0 1 .452-.217c.157-.072.337-.144.542-.217V7.482c0-.759-.108-1.35-.325-1.77-.217-.435-.603-.652-1.157-.652-.458 0-.855.151-1.193.452-.325.29-.572.687-.74 1.193v5.024c.192.049.36.109.505.181.157.06.32.145.488.253v.705h-4.79v-.705c.302-.156.7-.301 1.194-.434V5.115L48.74 4.97v-.705c.157-.072.361-.138.614-.199.253-.072.525-.138.814-.198.3-.06.602-.109.903-.145.314-.048.597-.084.85-.108h.614v1.861h.018a3.54 3.54 0 0 1 1.139-1.301c.506-.374 1.12-.56 1.843-.56.47 0 .892.06 1.265.18.374.109.687.308.94.597.265.289.464.68.597 1.174.144.482.216 1.097.216 1.844v4.32c.482.084.88.228 1.193.433v.705zm.353-8.603c.458-.289.94-.494 1.446-.614V2.187c.096-.072.33-.175.704-.307a7.36 7.36 0 0 1 1.284-.344h.614v2.295h2.386v1.14h-2.386v4.68c0 .747.09 1.265.271 1.554.193.29.506.434.94.434.217 0 .458-.012.723-.036.277-.036.53-.096.759-.18l.127.596a2.233 2.233 0 0 1-.488.343c-.205.12-.446.235-.723.343-.265.109-.56.2-.886.271a4.409 4.409 0 0 1-.994.109c-.783 0-1.367-.205-1.753-.615-.386-.41-.578-1.072-.578-1.988V4.97H60.1v-.705zm7.634 4.085c0-.735.109-1.392.325-1.97.23-.59.549-1.09.958-1.5.422-.41.928-.723 1.518-.94.59-.217 1.26-.325 2.007-.325.843 0 1.566.12 2.168.361.615.229 1.115.554 1.5.976.398.41.687.91.868 1.5.18.578.27 1.211.27 1.898 0 .735-.108 1.397-.324 1.988a4.052 4.052 0 0 1-2.476 2.422c-.59.216-1.26.325-2.006.325-.82 0-1.53-.115-2.133-.344-.603-.24-1.103-.566-1.5-.976a3.999 3.999 0 0 1-.886-1.5 6.137 6.137 0 0 1-.289-1.915zm2.801 0c0 .542.03 1.042.09 1.5.073.446.194.825.362 1.138.169.314.398.56.687.741.29.17.663.253 1.12.253.266 0 .507-.06.723-.18.217-.133.404-.338.56-.615.157-.289.272-.662.344-1.12.084-.47.127-1.043.127-1.717 0-.554-.037-1.055-.109-1.5-.06-.446-.175-.826-.343-1.139a1.728 1.728 0 0 0-.65-.723c-.278-.18-.627-.27-1.05-.27-.312 0-.584.065-.812.198-.23.12-.422.325-.579.614-.156.277-.277.651-.361 1.12a11.155 11.155 0 0 0-.109 1.7zm12.61-2.44a2.53 2.53 0 0 0-.505.361c-.193.169-.368.446-.524.832v4.626c.24.025.482.073.723.145.24.06.481.157.722.29v.704h-5.24v-.705c.216-.12.421-.21.614-.271.193-.06.385-.114.578-.163V5.115l-1.193-.145v-.705c.193-.084.428-.162.705-.235.29-.072.585-.132.886-.18.301-.06.59-.109.867-.145l.723-.09h.615v2.403h.072c.096-.265.235-.542.416-.831.192-.29.415-.554.668-.795.253-.241.53-.434.832-.579.3-.144.614-.21.94-.198.132.168.246.41.343.723.096.3.175.59.235.867v.705h-2.476zm11.037 4.337v.687c.012.193.03.398.055.615l1.247.18v.633a3.578 3.578 0 0 1-.597.217c-.24.072-.5.144-.777.217-.265.06-.53.108-.795.144-.265.049-.5.085-.705.109h-.615a2.654 2.654 0 0 1-.216-.832 18.447 18.447 0 0 1-.055-1.012h-.09c-.06.241-.163.476-.307.705a2.6 2.6 0 0 1-1.338 1.012 2.974 2.974 0 0 1-1.012.163c-.397 0-.765-.06-1.102-.18a2.784 2.784 0 0 1-.886-.507 2.355 2.355 0 0 1-.596-.777 2.472 2.472 0 0 1-.217-1.048c0-.543.102-.988.307-1.338.205-.35.524-.632.958-.85.446-.228 1.012-.397 1.699-.505a24.66 24.66 0 0 1 2.53-.235c.097-1.036.054-1.795-.126-2.277-.181-.482-.573-.723-1.175-.723-.374 0-.717.06-1.03.18l-.85 2.17h-.795a5.813 5.813 0 0 1-.289-.489 29.72 29.72 0 0 1-.253-.596 13.555 13.555 0 0 1-.199-.65 6.323 6.323 0 0 1-.108-.633c.458-.314 1.048-.56 1.77-.741a9.434 9.434 0 0 1 2.296-.271c.687 0 1.247.078 1.68.235.435.144.772.349 1.013.614.253.253.428.554.524.904.096.35.145.723.145 1.12 0 .723-.018 1.38-.055 1.97a42.995 42.995 0 0 0-.036 1.79zm-4.066 1.392c.253 0 .47-.048.65-.145.181-.096.332-.21.452-.343.133-.133.23-.277.29-.434a3.23 3.23 0 0 0 .162-.415V8.494c-.566.012-1.03.049-1.391.109-.362.06-.645.162-.85.307a1.08 1.08 0 0 0-.434.524 2.3 2.3 0 0 0-.108.76c0 .457.108.813.325 1.065.217.253.518.38.904.38zm5.777-7.374c.458-.289.94-.494 1.446-.614V2.187c.096-.072.331-.175.704-.307a7.357 7.357 0 0 1 1.284-.344h.614v2.295h2.386v1.14h-2.386v4.68c0 .747.091 1.265.271 1.554.193.29.506.434.94.434.217 0 .458-.012.723-.036.277-.036.53-.096.759-.18l.127.596a2.27 2.27 0 0 1-.488.343c-.205.12-.446.235-.723.343a5.487 5.487 0 0 1-.886.271 4.41 4.41 0 0 1-.994.109c-.783 0-1.368-.205-1.753-.615-.386-.41-.578-1.072-.578-1.988V4.97h-1.446v-.705zm15.857 7.085a2.305 2.305 0 0 1-.47.632 3.276 3.276 0 0 1-.777.56 4.58 4.58 0 0 1-1.066.38 4.935 4.935 0 0 1-1.301.163c-.747 0-1.41-.109-1.988-.325a3.937 3.937 0 0 1-1.446-.958 4.338 4.338 0 0 1-.886-1.5c-.193-.579-.289-1.23-.289-1.952 0-1.542.404-2.717 1.211-3.524.807-.808 1.928-1.211 3.362-1.211.614 0 1.186.084 1.716.253.543.168.988.445 1.338.831.361.386.608.892.741 1.518.144.627.138 1.392-.018 2.295h-5.549c.012.952.253 1.711.723 2.278.482.566 1.187.849 2.115.849.397 0 .807-.06 1.229-.18.434-.121.771-.278 1.012-.47l.343.36zm-3.723-6.705c-.241 0-.458.042-.65.126-.181.085-.344.241-.488.47-.133.217-.241.518-.326.904a9.34 9.34 0 0 0-.18 1.428h2.909c.085-.94.03-1.663-.162-2.17-.193-.505-.561-.758-1.103-.758z"/>
</svg>
