<svg xmlns="http://www.w3.org/2000/svg" width="199" height="24" fill="none" viewBox="0 0 199 24">
    <path fill="#0E9BD8" d="M16.088 16.12h1.317c.085.343.16.76.224 1.252.086.471.15.985.193 1.542.064.535.107 1.07.129 1.605.02.536.032 1.017.032 1.446-.75.47-1.692.802-2.826.995a20.12 20.12 0 0 1-3.436.289c-1.777 0-3.393-.214-4.85-.642-1.433-.45-2.664-1.146-3.692-2.087-1.006-.964-1.788-2.173-2.344-3.63C.278 15.415 0 13.649 0 11.593 0 9.56.3 7.814.9 6.358c.62-1.477 1.444-2.687 2.472-3.628A9.433 9.433 0 0 1 6.936.673C8.306.224 9.741 0 11.24 0c1.413 0 2.687.107 3.821.321 1.156.193 2.098.46 2.826.803 0 .342-.021.781-.064 1.317a16.823 16.823 0 0 1-.16 1.701 24.2 24.2 0 0 1-.257 1.734 22.343 22.343 0 0 1-.257 1.413h-1.349l-1.766-4.848c-.193-.108-.503-.193-.931-.257a8.865 8.865 0 0 0-1.317-.097c-.878 0-1.702.182-2.473.546-.77.343-1.455.9-2.055 1.67-.6.77-1.07 1.766-1.413 2.986-.342 1.2-.513 2.644-.513 4.335 0 3.062.61 5.417 1.83 7.065 1.22 1.648 2.88 2.473 4.977 2.473.6 0 1.103-.043 1.51-.129.428-.107.717-.246.867-.417l1.573-4.496zm4.603-1.284c0-1.306.193-2.473.578-3.5.407-1.05.974-1.938 1.702-2.666.75-.728 1.648-1.284 2.697-1.67 1.05-.385 2.238-.578 3.565-.578 1.498 0 2.783.214 3.853.643 1.092.406 1.98.984 2.666 1.734.706.728 1.22 1.616 1.54 2.665.322 1.027.483 2.151.483 3.372 0 1.306-.193 2.483-.578 3.532a7.081 7.081 0 0 1-1.702 2.633c-.728.728-1.627 1.285-2.698 1.67-1.049.385-2.237.578-3.564.578-1.456 0-2.719-.203-3.79-.61-1.07-.428-1.958-1.006-2.665-1.734a7.103 7.103 0 0 1-1.573-2.666c-.343-1.049-.514-2.183-.514-3.403zm4.977 0c0 .963.054 1.851.16 2.665.13.792.343 1.466.643 2.023.3.557.707.995 1.22 1.317.514.3 1.178.45 1.991.45a2.6 2.6 0 0 0 1.285-.322c.385-.235.717-.6.995-1.092.279-.514.482-1.177.61-1.99.15-.836.225-1.852.225-3.051 0-.985-.064-1.873-.192-2.666-.107-.792-.31-1.466-.61-2.023a3.068 3.068 0 0 0-1.157-1.284c-.492-.321-1.113-.482-1.862-.482-.557 0-1.038.118-1.445.353-.407.214-.75.578-1.028 1.092-.278.493-.492 1.156-.642 1.991-.128.814-.193 1.82-.193 3.019zm42.284 8.028H58.35v-1.22c.428-.215.846-.397 1.253-.546.406-.15.845-.279 1.316-.386V7.29l.16-3.757h-.256l-1.06 3.436-6.197 15.896h-1.478L45.923 7.097 44.767 3.34h-.29l.033 4.078v13.166c.407.085.856.224 1.349.417.492.193.952.407 1.38.642v1.22h-7.835v-1.22c.343-.17.76-.374 1.253-.61a6.349 6.349 0 0 1 1.445-.481V2.537a14.604 14.604 0 0 1-1.381-.353 5.19 5.19 0 0 1-1.253-.578V.386h8.703l4.913 13.069.931 3.083h.032l.964-3.147L60.02.385h7.964v1.22c-.364.215-.76.407-1.188.579-.407.15-.825.267-1.253.353v18.207c.45.086.878.214 1.285.386.428.17.802.342 1.124.513v1.22zm16.27-2.698c-.17.364-.45.739-.835 1.124-.364.364-.824.696-1.38.996-.536.278-1.167.503-1.895.674a8.77 8.77 0 0 1-2.312.289c-1.327 0-2.505-.193-3.532-.578-1.028-.407-1.884-.974-2.57-1.702a7.715 7.715 0 0 1-1.573-2.665c-.342-1.028-.514-2.184-.514-3.468 0-2.74.718-4.828 2.152-6.262 1.434-1.434 3.425-2.152 5.973-2.152 1.091 0 2.108.15 3.05.45.964.3 1.756.792 2.377 1.477.642.685 1.08 1.584 1.316 2.697.257 1.114.246 2.473-.032 4.079H74.59c.021 1.69.45 3.04 1.284 4.046.857 1.006 2.109 1.509 3.757 1.509a7.93 7.93 0 0 0 2.184-.321c.77-.214 1.37-.493 1.798-.835l.61.642zM77.607 8.253c-.428 0-.813.075-1.156.225-.32.15-.61.428-.867.834-.235.386-.428.921-.578 1.606-.15.664-.257 1.51-.32 2.537h5.17c.149-1.67.053-2.954-.29-3.854-.342-.899-.995-1.348-1.959-1.348zm28.551 14.61h-8.51v-1.252c.279-.15.547-.278.803-.385.279-.128.6-.257.964-.385v-7.547c0-1.348-.193-2.397-.578-3.147-.386-.77-1.07-1.156-2.055-1.156-.814 0-1.52.268-2.12.803-.578.514-1.017 1.22-1.316 2.12v8.927c.342.085.642.192.899.32.278.108.567.258.867.45v1.253h-8.51V21.61c.535-.278 1.242-.535 2.12-.77V9.088l-2.12-.257V7.578a5.96 5.96 0 0 1 1.092-.353c.45-.128.931-.246 1.445-.353.535-.107 1.07-.193 1.606-.257.556-.086 1.06-.15 1.509-.193h1.092V9.73h.032c.45-.9 1.124-1.67 2.023-2.312.899-.664 1.99-.996 3.275-.996.835 0 1.584.107 2.248.321.664.193 1.22.546 1.67 1.06.471.514.824 1.21 1.06 2.087.256.857.385 1.949.385 3.276v7.675c.856.15 1.563.406 2.119.77v1.253zm.628-15.285a8.46 8.46 0 0 1 2.569-1.091V3.886c.171-.129.589-.31 1.252-.546.686-.257 1.446-.46 2.28-.61h1.092v4.078h4.239V8.83h-4.239v8.317c0 1.327.161 2.248.482 2.761.342.514.899.771 1.67.771.385 0 .813-.021 1.284-.064a6.224 6.224 0 0 0 1.349-.321l.225 1.06c-.193.192-.482.395-.867.61a9.008 9.008 0 0 1-1.285.61 9.723 9.723 0 0 1-1.573.481 7.839 7.839 0 0 1-1.766.193c-1.392 0-2.43-.364-3.115-1.092-.685-.728-1.028-1.905-1.028-3.532V8.83h-2.569V7.578zm13.565 7.258c0-1.306.192-2.473.578-3.5.406-1.05.974-1.938 1.702-2.666.749-.728 1.648-1.284 2.697-1.67 1.049-.385 2.237-.578 3.564-.578 1.499 0 2.783.214 3.854.643 1.092.406 1.98.984 2.665 1.734.707.728 1.22 1.616 1.542 2.665.321 1.027.481 2.151.481 3.372 0 1.306-.192 2.483-.578 3.532a7.07 7.07 0 0 1-1.702 2.633c-.728.728-1.627 1.285-2.697 1.67-1.049.385-2.237.578-3.565.578-1.455 0-2.718-.203-3.789-.61-1.07-.428-1.959-1.006-2.665-1.734a7.104 7.104 0 0 1-1.574-2.666c-.342-1.049-.513-2.183-.513-3.403zm4.977 0c0 .963.054 1.851.161 2.665.128.792.342 1.466.642 2.023.3.557.706.995 1.22 1.317.514.3 1.177.45 1.991.45.471 0 .899-.108 1.284-.322.386-.235.718-.6.996-1.092.278-.514.482-1.177.61-1.99.15-.836.225-1.852.225-3.051 0-.985-.064-1.873-.193-2.666-.107-.792-.31-1.466-.61-2.023a3.069 3.069 0 0 0-1.156-1.284c-.492-.321-1.113-.482-1.862-.482-.557 0-1.039.118-1.446.353-.406.214-.749.578-1.027 1.092-.278.493-.492 1.156-.642 1.991-.129.814-.193 1.82-.193 3.019zm22.406-4.335c-.257.128-.557.342-.899.642-.343.3-.653.792-.931 1.477v8.22c.428.043.856.129 1.284.258.428.107.856.278 1.285.513v1.253h-9.313V21.61a5.888 5.888 0 0 1 1.092-.481c.343-.107.685-.204 1.028-.29V9.089l-2.12-.257V7.578c.343-.15.76-.289 1.253-.417a18.542 18.542 0 0 1 1.573-.321 23.128 23.128 0 0 1 1.541-.257l1.285-.16h1.092v4.27h.128c.171-.47.418-.963.739-1.477a8.27 8.27 0 0 1 1.188-1.413c.449-.428.942-.77 1.477-1.027a3.507 3.507 0 0 1 1.67-.354c.235.3.439.728.61 1.285.171.535.31 1.049.417 1.541v1.253h-4.399zm19.61 7.706v1.22c.021.343.053.707.096 1.093l2.216.32v1.125c-.257.128-.61.256-1.06.385a39.18 39.18 0 0 1-1.381.385c-.471.107-.942.193-1.413.257-.471.086-.888.15-1.252.193h-1.092a4.723 4.723 0 0 1-.385-1.477 33.009 33.009 0 0 1-.097-1.799h-.16a4.284 4.284 0 0 1-.546 1.253 4.623 4.623 0 0 1-.996 1.06 4.97 4.97 0 0 1-1.38.738 5.29 5.29 0 0 1-1.799.289 5.782 5.782 0 0 1-1.958-.321 4.949 4.949 0 0 1-1.574-.9 4.192 4.192 0 0 1-1.06-1.38 4.406 4.406 0 0 1-.385-1.863c0-.963.182-1.755.546-2.376.364-.62.931-1.124 1.702-1.51.792-.406 1.798-.706 3.018-.898 1.242-.193 2.741-.332 4.496-.418.171-1.84.096-3.19-.225-4.046-.321-.856-1.017-1.284-2.087-1.284-.664 0-1.274.107-1.83.32l-1.51 3.854h-1.413a10.336 10.336 0 0 1-.513-.867c-.15-.342-.3-.696-.45-1.06-.128-.385-.246-.77-.353-1.155-.086-.386-.15-.76-.193-1.124.814-.557 1.863-.996 3.147-1.317a16.766 16.766 0 0 1 4.078-.482c1.221 0 2.216.14 2.987.418.77.257 1.37.62 1.798 1.092.45.45.76.984.931 1.605.172.621.257 1.285.257 1.991a57.89 57.89 0 0 1-.096 3.5 76.098 76.098 0 0 0-.064 3.18zm-7.226 2.473c.45 0 .835-.086 1.156-.257.322-.171.589-.374.803-.61.236-.235.407-.492.514-.77.129-.279.225-.525.289-.74v-3.21c-1.006.021-1.83.085-2.473.192-.642.107-1.145.29-1.509.546a1.912 1.912 0 0 0-.77.931c-.129.364-.193.814-.193 1.35 0 .813.193 1.444.578 1.894.385.45.92.674 1.605.674zm10.265-13.102a8.45 8.45 0 0 1 2.569-1.091V3.886c.171-.129.588-.31 1.252-.546.685-.257 1.445-.46 2.28-.61h1.092v4.078h4.239V8.83h-4.239v8.317c0 1.327.16 2.248.481 2.761.343.514.9.771 1.67.771a14.3 14.3 0 0 0 1.285-.064 6.214 6.214 0 0 0 1.348-.321l.225 1.06c-.192.192-.481.395-.867.61a9.045 9.045 0 0 1-1.284.61 9.736 9.736 0 0 1-1.574.481 7.826 7.826 0 0 1-1.766.193c-1.391 0-2.43-.364-3.115-1.092-.685-.728-1.027-1.905-1.027-3.532V8.83h-2.569V7.578zm28.175 12.588c-.171.364-.449.739-.835 1.124a5.872 5.872 0 0 1-1.381.996c-.535.278-1.166.503-1.894.674a8.772 8.772 0 0 1-2.312.289c-1.328 0-2.505-.193-3.533-.578-1.027-.407-1.883-.974-2.569-1.702-.685-.75-1.209-1.638-1.573-2.665-.343-1.028-.514-2.184-.514-3.468 0-2.74.717-4.828 2.152-6.262 1.434-1.434 3.425-2.152 5.972-2.152 1.092 0 2.109.15 3.051.45.963.3 1.756.792 2.376 1.477.643.685 1.081 1.584 1.317 2.697.257 1.114.246 2.473-.032 4.079h-9.858c.021 1.69.449 3.04 1.284 4.046.856 1.006 2.109 1.509 3.757 1.509.707 0 1.434-.107 2.184-.321.77-.214 1.37-.493 1.798-.835l.61.642zm-6.615-11.913c-.428 0-.813.075-1.156.225-.321.15-.61.428-.867.834-.235.386-.428.921-.578 1.606-.15.664-.257 1.51-.321 2.537h5.17c.15-1.67.053-2.954-.289-3.854-.343-.899-.996-1.348-1.959-1.348z"/>
</svg>
