<svg xmlns="http://www.w3.org/2000/svg" width="48" height="29" fill="none" viewBox="0 0 48 29">
    <rect width="48" height="28.8" fill="#E5E5E5" rx="4"/>
    <path fill="#C00" fill-rule="evenodd" d="M26.942 14.633A9.367 9.367 0 0 1 17.575 24a9.367 9.367 0 1 1 9.367-9.367z" clip-rule="evenodd"/>
    <path fill="#F90" fill-rule="evenodd" d="M30.15 5.266a9.334 9.334 0 0 0-7.233 3.416h1.892c.259.315.497.646.714.992h-3.32c-.2.319-.38.65-.54.992h4.4c.15.321.283.652.396.992h-5.193a9.31 9.31 0 0 0-.272.991h5.737a9.433 9.433 0 0 1-.272 4.96h-5.193c.114.34.246.67.396.992h4.4c-.16.342-.34.673-.54.992h-3.32c.217.346.456.677.715.991h1.892c-.291.353-.607.685-.947.992A9.332 9.332 0 0 0 30.151 24a9.367 9.367 0 0 0 0-18.734z" clip-rule="evenodd"/>
    <path fill="#006" fill-rule="evenodd" d="M15.387 15.659a1.738 1.738 0 0 0-.227-.016c-.576 0-.868.197-.868.588 0 .24.143.393.365.393.414 0 .713-.394.73-.965zm.74 1.721h-.843l.02-.4c-.257.316-.6.467-1.066.467-.551 0-.93-.43-.93-1.055 0-.941.658-1.49 1.786-1.49.116 0 .263.01.415.03a.954.954 0 0 0 .04-.25c0-.257-.178-.353-.653-.353a3.395 3.395 0 0 0-1.076.175l.14-.87c.507-.148.842-.204 1.218-.204.873 0 1.336.392 1.335 1.133.002.199-.031.443-.083.766-.088.56-.277 1.76-.303 2.051zM12.883 17.38h-1.017l.583-3.652-1.301 3.652h-.693l-.086-3.631-.612 3.631h-.952L9.6 12.63h1.462l.089 2.66.892-2.66h1.626l-.786 4.751zM31.407 15.659a1.732 1.732 0 0 0-.226-.016c-.577 0-.868.197-.868.588 0 .24.142.393.364.393.414 0 .713-.394.73-.965zm.74 1.721h-.842l.019-.4c-.257.316-.6.467-1.066.467-.551 0-.929-.43-.929-1.055 0-.941.657-1.49 1.785-1.49.116 0 .263.01.415.03a.95.95 0 0 0 .04-.25c0-.257-.178-.353-.653-.353a3.4 3.4 0 0 0-1.077.175c.012-.065.142-.87.142-.87.507-.148.841-.204 1.217-.204.874 0 1.336.392 1.335 1.133a4.91 4.91 0 0 1-.083.766c-.087.56-.277 1.76-.303 2.051zM20.646 17.322a2.325 2.325 0 0 1-.73.125c-.52 0-.804-.299-.804-.849-.007-.17.075-.62.14-1.03.059-.36.44-2.637.44-2.637h1.011l-.118.585h.611l-.138.929h-.613c-.117.735-.284 1.65-.286 1.771 0 .2.106.287.348.287a.83.83 0 0 0 .274-.037l-.134.856zM23.745 17.29a3.435 3.435 0 0 1-1.037.157c-1.131-.001-1.721-.592-1.721-1.724 0-1.32.75-2.293 1.77-2.293.832 0 1.365.544 1.365 1.398 0 .284-.037.56-.125.95h-2.013c-.068.561.29.795.88.795.36 0 .687-.075 1.05-.243l-.169.96zM23.177 15c.006-.081.107-.69-.47-.69-.322 0-.553.245-.646.69h1.116zM16.737 14.738c0 .488.236.825.774 1.079.412.193.476.25.476.426 0 .24-.182.35-.584.35-.304 0-.586-.048-.912-.153l-.14.893c.232.05.438.097 1.059.114 1.073 0 1.568-.409 1.568-1.291 0-.531-.207-.843-.716-1.077-.427-.196-.476-.24-.476-.42 0-.209.17-.316.498-.316.2 0 .472.022.73.058l.145-.896a6.865 6.865 0 0 0-.895-.075c-1.137 0-1.531.594-1.527 1.308zM28.691 13.532c.283 0 .547.073.909.257l.166-1.032c-.149-.058-.673-.402-1.117-.402-.68 0-1.256.338-1.66.895-.591-.195-.834.2-1.131.593l-.265.062c.02-.13.039-.258.033-.389h-.934c-.128 1.197-.354 2.408-.53 3.604l-.047.26h1.017c.17-1.103.263-1.81.32-2.288l.383-.212c.057-.213.236-.285.595-.276a4.322 4.322 0 0 0-.072.792c0 1.264.683 2.051 1.777 2.051.282 0 .524-.037.9-.14l.178-1.082c-.338.166-.614.244-.864.244-.591 0-.949-.437-.949-1.158 0-1.046.532-1.78 1.291-1.78zM37.301 12.629l-.226 1.373c-.278-.366-.576-.631-.97-.631-.514 0-.98.389-1.286.962-.426-.089-.867-.239-.867-.239v.004c.034-.32.048-.515.045-.582h-.934c-.127 1.197-.353 2.408-.53 3.604l-.047.26h1.018c.137-.891.242-1.633.32-2.22.347-.314.522-.588.872-.57-.155.376-.246.81-.246 1.254 0 .966.488 1.603 1.228 1.603.372 0 .658-.129.937-.426l-.048.359h.962l.775-4.751h-1.003zm-1.272 3.859c-.346 0-.52-.257-.52-.762 0-.76.327-1.298.788-1.298.35 0 .539.266.539.757 0 .766-.333 1.303-.806 1.303z" clip-rule="evenodd"/>
    <path fill="#fff" fill-rule="evenodd" d="M13.175 17.098H12.16l.582-3.652-1.3 3.652h-.694l-.085-3.63-.613 3.63h-.951l.795-4.75h1.462l.041 2.94.987-2.94h1.58l-.787 4.75zM15.68 15.377a1.682 1.682 0 0 0-.227-.016c-.576 0-.868.198-.868.588 0 .24.142.394.364.394.415 0 .713-.394.73-.966zm.74 1.721h-.843l.02-.4c-.257.316-.6.467-1.066.467-.551 0-.93-.43-.93-1.055 0-.942.658-1.49 1.786-1.49.115 0 .263.01.415.03a.959.959 0 0 0 .04-.25c0-.257-.178-.352-.653-.352a3.378 3.378 0 0 0-1.076.174l.14-.87c.508-.148.842-.204 1.218-.204.873 0 1.335.392 1.335 1.133.001.199-.031.444-.082.766-.089.559-.278 1.76-.304 2.051zM30.06 12.475l-.167 1.031c-.363-.182-.626-.256-.908-.256-.76 0-1.292.734-1.292 1.78 0 .721.358 1.157.949 1.157.25 0 .527-.077.864-.244l-.18 1.083c-.373.102-.616.14-.898.14-1.095 0-1.777-.788-1.777-2.052 0-1.698.943-2.886 2.29-2.886.445 0 .97.189 1.119.247zM31.7 15.377a1.67 1.67 0 0 0-.226-.016c-.576 0-.868.198-.868.588 0 .24.142.394.364.394.414 0 .713-.394.73-.966zm.74 1.721h-.843l.02-.4c-.258.316-.6.467-1.066.467-.552 0-.93-.43-.93-1.055 0-.942.658-1.49 1.786-1.49.115 0 .263.01.414.03a.956.956 0 0 0 .04-.25c0-.257-.177-.352-.652-.352a3.381 3.381 0 0 0-1.076.174l.14-.87c.507-.148.841-.204 1.217-.204.874 0 1.337.392 1.335 1.133a4.89 4.89 0 0 1-.082.766c-.088.559-.277 1.76-.303 2.051zM20.939 17.04a2.324 2.324 0 0 1-.73.125c-.52 0-.805-.299-.805-.848-.007-.172.076-.62.14-1.03.059-.362.441-2.637.441-2.637h1.011l-.118.585h.519l-.139.928h-.52c-.118.735-.285 1.65-.287 1.772 0 .2.107.286.348.286a.816.816 0 0 0 .275-.037l-.135.856zM24.039 17.01a3.463 3.463 0 0 1-1.038.155c-1.132 0-1.721-.592-1.721-1.723 0-1.322.75-2.294 1.768-2.294.834 0 1.367.544 1.367 1.399 0 .283-.037.56-.125.95h-2.013c-.068.56.29.794.878.794.362 0 .688-.075 1.052-.243l-.168.961zm-.569-2.292c.006-.081.108-.69-.47-.69-.322 0-.552.246-.646.69h1.117zM17.03 14.456c0 .49.236.825.774 1.08.412.193.475.25.475.426 0 .24-.181.35-.584.35-.303 0-.585-.048-.911-.153l-.14.892c.232.05.438.097 1.059.114 1.073 0 1.568-.408 1.568-1.291 0-.531-.207-.843-.717-1.077-.426-.196-.475-.239-.475-.42 0-.209.17-.316.498-.316.2 0 .472.022.73.059l.145-.896a6.924 6.924 0 0 0-.895-.076c-1.137 0-1.531.594-1.528 1.308zM37.822 17.098h-.962l.048-.36c-.28.299-.565.427-.938.427-.739 0-1.228-.636-1.228-1.603 0-1.285.759-2.369 1.655-2.369.395 0 .693.161.971.527l.226-1.373h1.003l-.775 4.751zm-1.5-.892c.474 0 .806-.537.806-1.302 0-.491-.189-.758-.538-.758-.462 0-.79.538-.79 1.298 0 .506.176.761.522.761zM33.356 13.235c-.127 1.196-.353 2.407-.53 3.604l-.047.26h1.018c.364-2.364.451-2.825 1.022-2.767.09-.484.26-.907.386-1.12-.426-.09-.664.151-.976.609.025-.198.07-.39.062-.586h-.935zM24.985 13.235c-.128 1.196-.354 2.407-.531 3.604l-.046.26h1.017c.364-2.364.451-2.825 1.021-2.767.092-.484.261-.907.387-1.12-.426-.09-.664.151-.975.609.024-.198.07-.39.06-.586h-.933z" clip-rule="evenodd"/>
</svg>
