<svg xmlns="http://www.w3.org/2000/svg" width="48" height="29" fill="none" viewBox="0 0 48 29">
    <rect width="48" height="28.8" fill="#E5E5E5" rx="4" transform="matrix(1 0 0 -1 0 28.8)"/>
    <path fill="#0079C1" fill-rule="evenodd" d="M37.645 10.557l-.969 6.16a.197.197 0 0 0 .195.226h.973a.328.328 0 0 0 .324-.277l.955-6.048a.196.196 0 0 0-.195-.227h-1.09c-.096 0-.178.07-.193.166z" clip-rule="evenodd"/>
    <path fill="#00457C" fill-rule="evenodd" d="M25.505 12.573H24.37a.327.327 0 0 0-.271.144l-1.567 2.306-.663-2.216a.328.328 0 0 0-.314-.234h-1.116a.197.197 0 0 0-.186.26l1.25 3.67-1.176 1.658c-.092.13 0 .31.16.31h1.135a.329.329 0 0 0 .269-.14l3.775-5.45a.197.197 0 0 0-.161-.308z" clip-rule="evenodd"/>
    <path fill="#0079C1" fill-rule="evenodd" d="M34.74 14.771a1.26 1.26 0 0 1-1.276 1.079c-.327 0-.59-.105-.758-.305-.167-.198-.23-.48-.177-.793a1.264 1.264 0 0 1 1.266-1.087c.32 0 .58.106.753.308.173.202.241.486.191.798zm1.573-2.198h-1.13c-.096 0-.178.07-.193.166l-.05.315-.079-.114c-.245-.355-.79-.474-1.334-.474-1.248 0-2.314.946-2.521 2.272-.108.662.045 1.294.42 1.736.345.405.837.574 1.423.574 1.006 0 1.563-.646 1.563-.646l-.05.314a.196.196 0 0 0 .194.227h1.017a.327.327 0 0 0 .324-.276l.61-3.867a.197.197 0 0 0-.194-.227z" clip-rule="evenodd"/>
    <path fill="#00457C" fill-rule="evenodd" d="M17.914 14.771a1.26 1.26 0 0 1-1.274 1.079c-.328 0-.59-.105-.759-.305-.167-.198-.23-.48-.177-.793a1.264 1.264 0 0 1 1.266-1.087c.32 0 .581.106.753.308.173.202.241.486.191.798zm1.575-2.198h-1.13c-.097 0-.179.07-.194.166l-.05.315-.078-.114c-.245-.355-.79-.474-1.335-.474-1.248 0-2.314.946-2.521 2.272-.108.662.045 1.294.42 1.736.345.405.837.574 1.423.574a2.163 2.163 0 0 0 1.564-.646l-.05.314a.196.196 0 0 0 .194.227h1.017a.327.327 0 0 0 .323-.276l.611-3.867a.197.197 0 0 0-.194-.227zM12.71 12.6c-.129.847-.775.847-1.4.847h-.357l.25-1.581a.196.196 0 0 1 .194-.166h.163c.426 0 .828 0 1.036.242.124.145.161.36.114.658zm-.271-2.21h-2.36a.328.328 0 0 0-.323.277l-.954 6.049a.197.197 0 0 0 .194.227h1.127a.328.328 0 0 0 .323-.276l.258-1.632a.328.328 0 0 1 .324-.277h.746c1.554 0 2.45-.752 2.685-2.242.105-.652.004-1.164-.301-1.523-.335-.394-.93-.602-1.72-.602z" clip-rule="evenodd"/>
    <path fill="#0079C1" fill-rule="evenodd" d="M29.535 12.6c-.129.847-.776.847-1.401.847h-.356l.25-1.581a.196.196 0 0 1 .194-.166h.163c.426 0 .828 0 1.035.242.124.145.162.36.115.658zm-.272-2.21h-2.359a.328.328 0 0 0-.324.277l-.953 6.049a.197.197 0 0 0 .194.227h1.21a.23.23 0 0 0 .227-.193l.27-1.715a.328.328 0 0 1 .324-.277h.746c1.554 0 2.45-.752 2.685-2.242.105-.652.004-1.164-.3-1.523-.336-.394-.93-.602-1.72-.602z" clip-rule="evenodd"/>
</svg>
