<svg xmlns="http://www.w3.org/2000/svg" width="104" height="104" fill="none" viewBox="0 0 104 104">
    <path fill="#0E9BD8" d="M52 0c9.226 0 18.032 2.516 26 7.129C85.968 11.742 92.258 18.032 96.871 26 101.484 33.968 104 42.774 104 52c0 9.435-2.516 18.032-7.129 26C92.258 85.968 85.968 92.468 78 97.08c-7.968 4.614-16.774 6.92-26 6.92-9.435 0-18.032-2.306-26-6.92A52.048 52.048 0 0 1 6.92 78C2.305 70.032 0 61.435 0 52c0-9.226 2.306-18.032 6.92-26C11.531 18.032 18.031 11.742 26 7.129 33.968 2.516 42.565 0 52 0zm24.323 57.032c1.677-.838 2.516-2.306 2.516-4.403 0-1.887-.839-3.355-2.516-4.403L39.419 25.79c-1.677-.838-3.354-.838-5.032 0-1.677 1.049-2.516 2.517-2.516 4.404v43.612c0 2.097.839 3.565 2.516 4.404 1.678 1.048 3.355 1.048 5.032 0l36.904-21.178z"/>
</svg>
