<svg xmlns="http://www.w3.org/2000/svg" width="154" height="154" fill="none" viewBox="0 0 154 154">
    <path fill="#EEFAFE" d="M0 0h84c38.66 0 70 31.34 70 70v84H70c-38.66 0-70-31.34-70-70V0z"/>
    <path fill="#99DBF7" d="M90.38 54.819c.281.142.422.425.562.708.07.283.07.567-.07.85l-4.006 8.072c-.141.283-.422.496-.703.637-.281.142-.563.071-.773-.07l-4.007-1.983c-.422-.142-.773-.142-1.125.07-.351.213-.492.496-.492.921V82.01c0 .637-.28 1.204-.703 1.629a2.173 2.173 0 0 1-1.546.637H59.523c-.633 0-1.195-.213-1.617-.637-.421-.425-.632-.992-.632-1.629V64.024c0-.425-.211-.708-.563-.92-.35-.213-.702-.213-1.054-.071l-4.006 1.983c-.281.141-.563.212-.844.07a1.384 1.384 0 0 1-.632-.637l-4.007-8.072c-.14-.283-.21-.567-.07-.85.07-.283.281-.566.562-.708l13.707-6.798c.703.992 1.757 1.841 3.233 2.408 1.476.637 3.093.92 4.92.92 1.757 0 3.374-.283 4.85-.92 1.476-.567 2.6-1.416 3.374-2.408L90.38 54.82zM110 99.476c0 .472-.174.886-.522 1.122-.116.472-.174 1.18-.174 2.183 0 1.062.058 1.77.174 2.183.348.354.522.708.522 1.121v.944c0 .413-.174.768-.406 1.004-.29.295-.638.413-.986.413h-19.03c-1.566 0-2.9-.531-3.945-1.653-1.102-1.062-1.624-2.419-1.624-4.012V83.898c0-1.534.522-2.891 1.624-4.012 1.044-1.063 2.379-1.653 3.945-1.653h19.03c.348 0 .696.177.986.413.232.296.406.65.406 1.004v19.826zM91.435 86.141v1.18c0 .118 0 .177.116.236.058.118.116.118.232.118h12.299c.058 0 .116 0 .232-.118.058-.06.116-.118.116-.236v-1.18c0-.06-.058-.119-.116-.237-.116-.058-.174-.117-.232-.117h-12.3c-.115 0-.173.058-.231.117-.116.118-.116.178-.116.237zm0 3.776v1.18c0 .118 0 .177.116.236.058.118.116.118.232.118h12.299c.058 0 .116 0 .232-.118.058-.059.116-.118.116-.236v-1.18c0-.059-.058-.118-.116-.236-.116-.059-.174-.118-.232-.118h-12.3c-.115 0-.173.059-.231.118-.116.118-.116.177-.116.236zm14.678 14.752c-.058-.472-.058-1.121-.058-1.888 0-.708 0-1.357.058-1.888H89.578c-.522 0-.986.236-1.334.59a1.847 1.847 0 0 0-.522 1.298c0 .531.174 1.003.522 1.357.348.354.812.531 1.334.531h16.535z"/>
    <mask id="a" fill="#fff">
        <path d="M87.359 51.798c.281.141.422.425.562.708.07.283.07.566-.07.85l-4.007 8.072c-.14.283-.421.496-.703.637-.28.142-.562.071-.773-.07l-4.006-1.983c-.422-.142-.773-.142-1.125.07-.351.213-.492.496-.492.921v17.986c0 .637-.281 1.203-.703 1.628a2.173 2.173 0 0 1-1.546.638H56.502c-.633 0-1.195-.213-1.617-.638-.421-.425-.632-.991-.632-1.628V61.003c0-.425-.211-.708-.563-.92-.351-.213-.703-.213-1.054-.071l-4.007 1.982c-.28.142-.562.213-.843.071a1.384 1.384 0 0 1-.633-.637l-4.006-8.072c-.14-.284-.211-.567-.07-.85.07-.283.28-.567.562-.708L57.345 45c.703.991 1.758 1.841 3.234 2.407 1.476.638 3.092.921 4.92.921 1.757 0 3.374-.283 4.85-.92 1.476-.567 2.6-1.417 3.374-2.408l13.636 6.798zM106.979 96.455c0 .472-.174.885-.522 1.121-.116.472-.174 1.18-.174 2.184 0 1.062.058 1.77.174 2.183.348.354.522.708.522 1.121v.944c0 .413-.174.767-.406 1.003-.29.295-.639.413-.987.413H86.557c-1.567 0-2.9-.531-3.945-1.652-1.102-1.062-1.625-2.419-1.625-4.012V80.877c0-1.534.523-2.891 1.625-4.013 1.044-1.062 2.379-1.652 3.945-1.652h19.029c.348 0 .697.177.987.413.232.295.406.65.406 1.003v19.827zM88.413 83.12v1.18c0 .118 0 .177.117.236.058.118.116.118.232.118h12.299c.058 0 .116 0 .232-.118.058-.058.116-.117.116-.236v-1.18c0-.059-.058-.118-.116-.236-.116-.059-.174-.118-.232-.118h-12.3c-.115 0-.173.06-.231.118-.117.118-.117.177-.117.236zm0 3.777v1.18c0 .118 0 .177.117.236.058.118.116.118.232.118h12.299c.058 0 .116 0 .232-.118.058-.059.116-.118.116-.236v-1.18c0-.06-.058-.118-.116-.236-.116-.06-.174-.118-.232-.118h-12.3c-.115 0-.173.059-.231.118-.117.118-.117.177-.117.236zm14.679 14.752c-.058-.472-.058-1.121-.058-1.888 0-.709 0-1.358.058-1.889H86.557c-.522 0-.986.236-1.334.59a1.847 1.847 0 0 0-.522 1.299c0 .531.174 1.003.522 1.357.348.354.812.531 1.334.531h16.535z"/>
    </mask>
    <path fill="#0E9BD8" d="M87.359 51.798l.45-.893-.004-.002-.446.895zm.562.708l.97-.241-.026-.106-.048-.098-.896.445zm-5.553 9.488l.558-.83-.055-.037-.06-.029-.443.896zm-4.006-1.982l.443-.897-.06-.03-.065-.021-.318.948zm-25.726 0l-.374-.928-.035.014-.035.017.444.897zm-4.007 1.982l-.443-.896-.006.003.45.893zm-1.476-.566l-.895.445.895-.445zm-4.006-8.072l.896-.445-.896.445zm-.07-.85l.895.444.049-.097.026-.106-.97-.241zm.562-.708l-.444-.896-.006.003.45.893zM57.345 45l.816-.578-.494-.698-.766.38.444.896zm3.234 2.407l.396-.918-.019-.008-.02-.007-.357.934zm9.77 0l-.359-.933-.019.007-.019.008.397.919zM73.723 45l.446-.895-.732-.365-.503.645.789.615zm32.734 52.576l-.562-.827-.318.215-.091.374.971.238zm0 4.367l-.963.27.069.248.181.183.713-.701zm.116 3.068l-.713-.701.713.701zm-23.961-1.239l.732-.681-.019-.02-.02-.019-.693.72zm0-26.908l-.713-.7.713.7zm23.961-1.239l.786-.618-.069-.087-.086-.07-.631.775zm-18.043 8.91l.897-.44-.147-.3-.297-.15-.454.89zm12.763 0l.713.702-.713-.701zm0-1.652l.898-.44-.147-.3-.298-.151-.453.891zm-12.764 0l.714.701-.713-.7zm0 5.429l.898-.441-.147-.3-.297-.15-.454.891zm12.764 0l.713.701-.713-.701zm0-1.652l.898-.441-.147-.3-.298-.15-.453.89zm-12.764 0l.714.7-.713-.7zm14.563 14.988v1h1.13l-.138-1.122-.992.122zm0-3.777l.994.109.121-1.109h-1.115v1zm-16.183-45.18c-.047-.024-.057-.05-.032-.014.014.02.032.05.058.097.027.049.054.103.09.176l1.792-.889c-.108-.217-.378-.84-1.008-1.156l-.9 1.786zm.042.056a.418.418 0 0 1 .016.122.1.1 0 0 1-.012.042l1.792.89c.273-.552.255-1.091.145-1.536l-1.941.482zm.004.164l-4.006 8.072 1.791.89 4.007-8.073-1.792-.889zm-4.006 8.072c.002-.005-.008.018-.057.06a1.007 1.007 0 0 1-.2.13l.9 1.785c.367-.185.87-.524 1.148-1.085l-1.791-.89zm-.257.19a.304.304 0 0 1 .17-.027.206.206 0 0 1 .064.018l-1.115 1.66c.414.279 1.085.485 1.78.134l-.9-1.786zm.12-.075l-4.007-1.983-.887 1.793 4.007 1.983.887-1.793zm-4.132-2.034c-.608-.205-1.285-.246-1.96.163l1.034 1.711a.201.201 0 0 1 .045-.021.082.082 0 0 1 .022-.004.653.653 0 0 1 .222.047l.637-1.896zm-1.96.163c-.3.18-.566.429-.746.77-.176.336-.229.685-.229 1.006h2c0-.052.004-.08.007-.09.001-.007 0 0-.007.015a.142.142 0 0 1-.023.033c-.004.003.003-.005.032-.023l-1.034-1.711zm-.975 1.776v17.986h2V61.003h-2zm0 17.986c0 .33-.144.654-.413.924l1.42 1.409c.575-.58.993-1.39.993-2.333h-2zm-.413.924a1.172 1.172 0 0 1-.836.342v2c.812 0 1.635-.308 2.256-.933l-1.42-1.41zm-.836.342H56.502v2h17.994v-2zm-17.994 0c-.4 0-.696-.13-.907-.342l-1.42 1.409c.633.636 1.462.933 2.327.933v-2zm-.907-.342c-.212-.214-.342-.515-.342-.924h-2c0 .865.291 1.697.922 2.333l1.42-1.41zm-.342-.924V61.003h-2v17.986h2zm0-17.986c0-.389-.1-.756-.308-1.08a2.228 2.228 0 0 0-.737-.696l-1.035 1.711c.086.052.097.078.089.066a.088.088 0 0 1-.01-.023c-.002-.006 0 0 0 .022h2zm-1.045-1.776c-.658-.398-1.345-.385-1.946-.143l.748 1.855a.26.26 0 0 1 .103-.026.05.05 0 0 1 .013.003.223.223 0 0 1 .047.022l1.035-1.711zm-2.016-.112l-4.006 1.983.887 1.793 4.007-1.983-.888-1.793zm-4.012 1.986a.753.753 0 0 1-.089.04c-.018.005-.02.004-.008.003a.291.291 0 0 1 .153.028l-.9 1.786c.71.358 1.367.12 1.743-.07l-.9-1.787zm.056.071a.387.387 0 0 1-.187-.189l-1.791.89c.236.476.603.846 1.078 1.085l.9-1.786zm-.187-.189l-4.006-8.072-1.792.89 4.007 8.072 1.791-.89zm-4.006-8.072a.766.766 0 0 1-.04-.09c-.006-.02-.005-.023-.004-.013a.278.278 0 0 1-.026.143l-1.792-.89c-.351.707-.118 1.36.07 1.74l1.792-.89zm.004-.164c0 .004 0 .001.003-.007a.168.168 0 0 1 .037-.047c.005-.004.006-.004.002-.002l-.9-1.786c-.556.28-.947.81-1.083 1.36l1.941.482zm.036-.053l13.707-6.798-.889-1.792-13.706 6.798.888 1.792zm12.447-7.116c.825 1.164 2.044 2.131 3.69 2.763l.717-1.867c-1.306-.501-2.195-1.234-2.776-2.052l-1.631 1.156zm3.652 2.748c1.627.702 3.384 1.002 5.317 1.002v-2c-1.722 0-3.199-.266-4.524-.839l-.793 1.837zm5.317 1.002c1.865 0 3.622-.3 5.246-1.002l-.793-1.837c-1.327.574-2.804.84-4.453.84v2zm5.208-.987c1.632-.626 2.91-1.58 3.804-2.726l-1.577-1.23c-.652.837-1.623 1.582-2.944 2.089l.717 1.867zm2.57-2.446l13.636 6.798.892-1.79-13.636-6.798-.892 1.79zm32.702 50.56a.592.592 0 0 1-.041.236c-.018.04-.034.052-.043.058l1.123 1.655c.695-.471.961-1.243.961-1.949h-2zm-.493.883c-.146.594-.203 1.401-.203 2.422h2c0-.986.059-1.595.145-1.945l-1.942-.477zm-.203 2.422c0 1.061.054 1.894.211 2.453l1.925-.541c-.075-.266-.136-.849-.136-1.912h-2zm.461 2.884c.22.224.235.34.235.42h2c0-.746-.334-1.338-.809-1.822l-1.426 1.402zm.235.42v.944h2v-.944h-2zm0 .944a.436.436 0 0 1-.119.302l1.426 1.402c.4-.406.693-1.007.693-1.704h-2zm-.119.302a.373.373 0 0 1-.129.089.382.382 0 0 1-.145.025v2c.59 0 1.204-.207 1.7-.712l-1.426-1.402zm-.274.114H86.557v2h19.029v-2zm-19.029 0c-1.316 0-2.376-.434-3.213-1.333l-1.464 1.363c1.251 1.343 2.86 1.97 4.677 1.97v-2zm-3.251-1.372c-.885-.852-1.319-1.939-1.319-3.292h-2c0 1.832.611 3.46 1.931 4.732l1.388-1.44zm-1.319-3.292V80.877h-2V99.76h2zm0-18.883c0-1.284.428-2.386 1.338-3.311l-1.426-1.403c-1.295 1.317-1.912 2.93-1.912 4.714h2zm1.338-3.311c.861-.876 1.94-1.354 3.232-1.354v-2c-1.841 0-3.43.703-4.658 1.951l1.426 1.403zm3.232-1.354h19.029v-2H86.557v2zm19.029 0c.024 0 .153.024.356.189l1.262-1.551c-.378-.308-.945-.638-1.618-.638v2zm.201.031c.161.206.192.345.192.385h2c0-.667-.318-1.236-.62-1.621l-1.572 1.236zm.192.385v19.827h2V76.628h-2zM87.413 83.12v1.18h2v-1.18h-2zm0 1.18c0 .019 0 .087.005.157a1.182 1.182 0 0 0 .658.97l.907-1.782a.732.732 0 0 1 .172.125.86.86 0 0 1 .257.53c.002.024.001.041.001 0h-2zm.22.678c.087.177.264.446.614.588.147.06.278.077.356.083.072.006.141.005.159.005v-2c-.04 0-.022 0 .004.002a.863.863 0 0 1 .541.268.73.73 0 0 1 .12.171l-1.795.883zm1.129.676h12.299v-2h-12.3v2zm12.299 0c.039 0 .24.006.471-.088a1.41 1.41 0 0 0 .474-.328l-1.426-1.403.003-.002a.734.734 0 0 1 .196-.12c.158-.064.302-.059.282-.059v2zm.945-.416c.071-.072.403-.386.403-.938h-2a.71.71 0 0 1 .103-.368c.05-.085.11-.139.068-.097l1.426 1.403zm.403-.938v-1.18h-2v1.18h2zm0-1.18c0-.182-.045-.327-.083-.42a1.266 1.266 0 0 0-.092-.184l-.024-.04-.013-.021-.006-.012-1.795.882c.029.06.057.109.078.146l.027.043a.15.15 0 0 0 .001.002.882.882 0 0 1-.093-.395h2zm-.663-1.127c.002 0 0 0-.009-.006l-.021-.013a1.348 1.348 0 0 0-.224-.12 1.112 1.112 0 0 0-.431-.088v2a.889.889 0 0 1-.409-.1l-.018-.01.018.012.043.026c.037.023.086.052.145.082l.906-1.783zm-.685-.227h-12.3v2h12.3v-2zm-12.3 0c-.562 0-.879.35-.944.417l1.426 1.402c.042-.043-.012.02-.098.072a.753.753 0 0 1-.383.11v-2zm-.944.417c-.11.112-.238.267-.32.475-.089.228-.084.424-.084.462h2c0-.02.006.117-.054.27a.706.706 0 0 1-.114.193l-.002.002-1.426-1.402zm-.403 4.714v1.18h2v-1.18h-2zm0 1.18c0 .018-.001.087.004.157a1.182 1.182 0 0 0 .658.97l.907-1.782a.726.726 0 0 1 .172.125.86.86 0 0 1 .257.53c.002.024.001.04.001 0h-2zm.218.677c.087.178.265.446.615.589a1.2 1.2 0 0 0 .356.083c.072.006.141.005.159.005v-2c-.04 0-.022 0 .004.001a.864.864 0 0 1 .541.268.73.73 0 0 1 .12.172l-1.795.882zm1.13.677h12.299v-2h-12.3v2zm12.299 0c.039 0 .24.006.471-.088a1.41 1.41 0 0 0 .474-.329l-1.426-1.402.003-.003a.739.739 0 0 1 .196-.12c.158-.064.302-.058.282-.058v2zm.945-.417c.071-.072.403-.386.403-.937h-2a.71.71 0 0 1 .103-.368c.05-.085.11-.14.068-.097l1.426 1.402zm.403-.937v-1.18h-2v1.18h2zm0-1.18c0-.182-.045-.328-.083-.42a1.266 1.266 0 0 0-.092-.184l-.024-.04-.013-.022-.006-.011-1.795.882c.029.06.057.108.078.145l.027.044a.15.15 0 0 0 .001.001.882.882 0 0 1-.093-.396h2zm-.663-1.128l-.009-.005-.021-.013a1.348 1.348 0 0 0-.224-.12 1.112 1.112 0 0 0-.431-.088v2a.889.889 0 0 1-.409-.1l-.018-.01.018.011.043.027c.037.022.086.051.145.081l.906-1.783zm-.685-.226h-12.3v2h12.3v-2zm-12.3 0c-.562 0-.879.35-.944.417l1.426 1.402c.042-.043-.012.019-.098.071a.761.761 0 0 1-.383.11v-2zm-.944.417c-.11.112-.238.267-.32.475-.089.227-.084.424-.084.462h2c0-.02.006.117-.054.27a.706.706 0 0 1-.114.192l-.002.003-1.426-1.402zm16.267 15.567c-.049-.397-.05-.973-.05-1.766h-2c0 .74-.002 1.462.065 2.01l1.985-.244zm-.05-1.766c0-.727.001-1.315.052-1.78l-1.988-.217c-.066.597-.064 1.306-.064 1.997h2zm-.942-2.889H86.557v2h16.535v-2zm-16.535 0c-.837 0-1.547.38-2.047.89l1.426 1.401c.195-.198.414-.29.621-.29v-2zm-2.047.89a2.847 2.847 0 0 0-.81 1.999h2c0-.23.085-.444.236-.598l-1.427-1.402zm-.81 1.999c0 .756.253 1.492.81 2.058l1.426-1.402c-.14-.143-.236-.351-.236-.656h-2zm.81 2.058c.557.567 1.29.83 2.047.83v-2c-.286 0-.483-.091-.621-.232l-1.427 1.402zm2.047.83h16.535v-2H86.557v2z" mask="url(#a)"/>
</svg>
