<svg xmlns="http://www.w3.org/2000/svg" width="288" height="313" fill="none" viewBox="0 0 288 313">
    <path fill="#FFCE00" fill-rule="evenodd" d="M285.297 13.405a15.16 15.16 0 0 0-.422-3.556 14.36 14.36 0 0 0-3.195-4.324 15.06 15.06 0 0 0-8.3-2.124c-8.353.304-14.878 7.323-14.574 15.676.045 1.222.235 2.404.55 3.532a14.363 14.363 0 0 0 2.588 3.505 15.06 15.06 0 0 0 8.219 2.426c8.358 0 15.134-6.776 15.134-15.135zm-7.945-2.702a1.73 1.73 0 1 1 0 3.458 1.73 1.73 0 0 1 0-3.458zm-10.703 0a1.73 1.73 0 1 1 0 3.46 1.73 1.73 0 0 1 0-3.46zm0 16.097a4.41 4.41 0 0 1-4.406-4.407c0-1.03.643-2.317 1.966-3.937a23.678 23.678 0 0 1 1.845-2.003l.595-.564.595.564c.038.036.936.89 1.845 2.003.467.572.847 1.1 1.146 1.592a9.893 9.893 0 0 1 3.81.043 9.955 9.955 0 0 1 5.812 3.636l-1.366 1.062a8.223 8.223 0 0 0-4.8-3.005 8.151 8.151 0 0 0-2.729-.1c.061.249.093.486.093.71a4.41 4.41 0 0 1-4.406 4.406z" clip-rule="evenodd"/>
    <path fill="#FFB100" fill-rule="evenodd" d="M284.875 9.848a15.16 15.16 0 0 1 .422 3.557c0 8.359-6.776 15.135-15.135 15.135-3.03 0-5.852-.892-8.218-2.426A14.224 14.224 0 0 0 272 30.27c7.869 0 14.27-6.402 14.27-14.27 0-2.201-.501-4.288-1.395-6.152z" clip-rule="evenodd"/>
    <path fill="#FFE454" fill-rule="evenodd" d="M273.38 3.4c3.027-.11 5.879.679 8.299 2.125A14.214 14.214 0 0 0 272 1.73c-7.869 0-14.27 6.401-14.27 14.27 0 2.384.588 4.632 1.626 6.61a15.196 15.196 0 0 1-.55-3.533c-.304-8.353 6.22-15.372 14.574-15.676z" clip-rule="evenodd"/>
    <path fill="#000" fill-rule="evenodd" d="M272 0c-8.822 0-16 7.178-16 16s7.178 16 16 16 16-7.178 16-16-7.177-16-16-16zm0 30.27a14.224 14.224 0 0 1-10.056-4.156 14.363 14.363 0 0 1-2.588-3.505A14.179 14.179 0 0 1 257.73 16c0-7.868 6.402-14.27 14.27-14.27 3.732 0 7.134 1.442 9.679 3.796a14.346 14.346 0 0 1 3.196 4.323A14.185 14.185 0 0 1 286.27 16c0 7.868-6.401 14.27-14.27 14.27z" clip-rule="evenodd"/>
    <path fill="#000" fill-rule="evenodd" d="M266.649 14.162a1.73 1.73 0 1 0 0-3.459 1.73 1.73 0 0 0 0 3.459zM277.351 14.162a1.73 1.73 0 1 0 0-3.46 1.73 1.73 0 0 0 0 3.46z" clip-rule="evenodd"/>
    <path fill="#28E0FF" fill-rule="evenodd" d="M266.649 18.302c-1.261 1.316-2.677 3.154-2.677 4.091a2.68 2.68 0 0 0 2.677 2.677 2.68 2.68 0 0 0 2.676-2.677c0-.94-1.415-2.777-2.676-4.091z" clip-rule="evenodd"/>
    <path fill="#000" fill-rule="evenodd" d="M270.962 21.684a8.151 8.151 0 0 1 2.729.1 8.223 8.223 0 0 1 4.8 3.005l1.366-1.062a9.955 9.955 0 0 0-5.812-3.636 9.893 9.893 0 0 0-3.81-.043 14.218 14.218 0 0 0-1.146-1.591 23.667 23.667 0 0 0-1.845-2.004l-.595-.564-.595.564c-.038.036-.936.89-1.846 2.003-1.322 1.62-1.965 2.907-1.965 3.937a4.41 4.41 0 0 0 4.406 4.407 4.41 4.41 0 0 0 4.406-4.407c0-.223-.032-.46-.093-.709zm-4.313 3.386a2.68 2.68 0 0 1-2.677-2.677c0-.937 1.417-2.775 2.677-4.091 1.261 1.314 2.677 3.151 2.677 4.091a2.68 2.68 0 0 1-2.677 2.677z" clip-rule="evenodd"/>
    <path fill="#FFCE00" fill-rule="evenodd" d="M18.774 27.812v-5.7a4.84 4.84 0 0 0-1.81-.793 4.893 4.893 0 0 0-3.811.798v6.391c.324.02.646.032.973.032 1.622 0 3.243-.256 4.649-.728z" clip-rule="evenodd"/>
    <path fill="#FFCE00" fill-rule="evenodd" d="M29.279 13.405c0-1.225-.139-2.416-.414-3.556a14.333 14.333 0 0 0-3.19-4.324A15.051 15.051 0 0 0 17.376 3.4C9.024 3.705 2.5 10.724 2.805 19.077c.044 1.222.235 2.404.55 3.532a14.28 14.28 0 0 0 2.57 3.505c.62.402 1.282.76 1.93 1.069V14.27h-.648v-1.73h6.702v1.73h-.756v5.855c1.297-.601 2.742-.796 4.165-.5a6.067 6.067 0 0 1 1.456.492V14.27h-.756v-1.73h6.702v1.73h-.648v10.543c3.243-2.774 5.207-6.856 5.207-11.408z" clip-rule="evenodd"/>
    <path fill="#FFB100" fill-rule="evenodd" d="M28.874 9.848c.275 1.141.405 2.332.405 3.557 0 4.552-1.964 8.633-5.207 11.408v2.923c3.784-2.578 6.18-6.877 6.18-11.736 0-2.201-.484-4.288-1.378-6.152zM7.855 27.736v-.553a17.288 17.288 0 0 1-1.948-1.069c.6.596 1.3 1.139 1.948 1.622zM18.774 29.991v-2.18c-1.405.473-3.026.73-4.648.73-.327 0-.649-.012-.973-.033v1.483a14.79 14.79 0 0 0 2.81.279c.963 0 1.947-.096 2.812-.279z" clip-rule="evenodd"/>
    <path fill="#FFE454" fill-rule="evenodd" d="M17.38 3.4c3.027-.11 5.878.679 8.299 2.125a14.215 14.215 0 0 0-9.68-3.795C8.132 1.73 1.73 8.13 1.73 16c0 2.384.589 4.632 1.627 6.61a15.159 15.159 0 0 1-.55-3.533C2.5 10.724 9.026 3.705 17.379 3.401z" clip-rule="evenodd"/>
    <path fill="#28E0FF" fill-rule="evenodd" d="M11.423 14.27H9.585v14.492c.65.297 1.19.554 1.838.767V14.27zM22.342 14.27h-1.838v15.26c.65-.214 1.298-.471 1.838-.768V14.27z" clip-rule="evenodd"/>
    <path fill="#000" fill-rule="evenodd" d="M16 0C7.178 0 0 7.178 0 16s7.178 16 16 16 16-7.178 16-16S24.822 0 16 0zM9.585 28.762V14.27h1.838v15.259c-.649-.213-1.189-.47-1.838-.767zm3.568-.254v-6.391a4.893 4.893 0 0 1 3.81-.798 4.84 4.84 0 0 1 1.811.794v7.879c-.864.182-1.848.278-2.81.278s-1.838-.096-2.811-.279v-1.483zm7.351 1.021V14.27h1.838v14.492c-.54.297-1.19.554-1.838.767zm3.568-1.793V14.27h.649v-1.73h-6.703v1.73h.756v5.847a6.067 6.067 0 0 0-1.456-.491c-1.422-.297-2.868-.102-4.165.5V14.27h.757v-1.73H7.207v1.73h.649V27.736c-.65-.483-1.331-1.026-1.93-1.622a14.31 14.31 0 0 1-2.58-3.505A14.177 14.177 0 0 1 1.727 16c0-7.868 6.403-14.27 14.271-14.27 3.733 0 7.136 1.442 9.681 3.796a14.348 14.348 0 0 1 3.196 4.323A14.173 14.173 0 0 1 30.252 16c0 4.859-2.396 9.158-6.18 11.736z" clip-rule="evenodd"/>
    <path fill="#FFCE00" fill-rule="evenodd" d="M84.588 27.102c-1.743-.232-3.11-1.728-3.11-3.535V22.27H71.314v-1.73h17.297v3.027c0 .293-.018.576-.085.849a15.1 15.1 0 0 0 4.76-11.01c0-1.226-.142-2.417-.417-3.557a14.338 14.338 0 0 0-3.194-4.324A15.055 15.055 0 0 0 81.379 3.4c-8.353.304-14.877 7.323-14.573 15.676.045 1.222.235 2.404.55 3.532a14.348 14.348 0 0 0 2.588 3.505 15.03 15.03 0 0 0 8.21 2.426c2.305 0 4.48-.516 6.435-1.438zm-2.36-16.209L83.45 9.67l1.954 1.954 1.954-1.954 1.223 1.223-1.94 1.94 1.94 1.939-1.223 1.223-1.954-1.954-1.953 1.954-1.224-1.223 1.94-1.94-1.94-1.939zm-10.811 0l1.222-1.223 1.954 1.954 1.954-1.954 1.223 1.223-1.94 1.94 1.94 1.939-1.223 1.223-1.954-1.954-1.953 1.954-1.224-1.223 1.94-1.94-1.94-1.939z" clip-rule="evenodd"/>
    <path fill="#FFB100" fill-rule="evenodd" d="M92.875 9.848a15.16 15.16 0 0 1 .422 3.557c0 4.339-1.826 8.25-4.751 11.01a3.573 3.573 0 0 1-3.94 2.687 15.075 15.075 0 0 1-6.444 1.438 15.06 15.06 0 0 1-8.219-2.426A14.225 14.225 0 0 0 80 30.27c7.868 0 14.27-6.402 14.27-14.27 0-2.201-.501-4.288-1.395-6.152z" clip-rule="evenodd"/>
    <path fill="#FFE454" fill-rule="evenodd" d="M81.38 3.4c3.027-.11 5.878.679 8.299 2.125a14.215 14.215 0 0 0-9.68-3.795C72.132 1.73 65.73 8.13 65.73 16c0 2.384.589 4.632 1.627 6.61a15.159 15.159 0 0 1-.55-3.533c-.305-8.353 6.22-15.372 14.573-15.676z" clip-rule="evenodd"/>
    <path fill="#000" fill-rule="evenodd" d="M80 0c-8.822 0-16 7.178-16 16s7.178 16 16 16 16-7.178 16-16S88.822 0 80 0zm0 30.27c-3.92 0-7.475-1.589-10.057-4.156a14.348 14.348 0 0 1-2.587-3.505A14.18 14.18 0 0 1 65.73 16C65.73 8.132 72.13 1.73 80 1.73c3.732 0 7.134 1.442 9.68 3.796a14.345 14.345 0 0 1 3.195 4.323A14.184 14.184 0 0 1 94.27 16c0 7.868-6.402 14.27-14.27 14.27z" clip-rule="evenodd"/>
    <path fill="#000" fill-rule="evenodd" d="M72.64 15.995l1.953-1.954 1.954 1.954 1.223-1.223-1.94-1.94 1.94-1.94-1.223-1.222-1.954 1.953L72.64 9.67l-1.223 1.223 1.94 1.94-1.94 1.939 1.223 1.223zM83.45 15.995l1.954-1.954 1.954 1.954 1.223-1.223-1.94-1.94 1.94-1.94-1.223-1.222-1.954 1.953-1.953-1.953-1.223 1.223 1.94 1.94-1.94 1.939 1.223 1.223z" clip-rule="evenodd"/>
    <path fill="#E36600" fill-rule="evenodd" d="M85.045 25.405a1.84 1.84 0 0 0 1.838-1.838V22.27h-3.676v1.297a1.84 1.84 0 0 0 1.838 1.838z" clip-rule="evenodd"/>
    <path fill="#000" fill-rule="evenodd" d="M88.612 22.27v-1.73H71.315v1.73h10.162v1.297c0 1.807 1.368 3.303 3.111 3.535a3.558 3.558 0 0 0 3.935-2.687 3.56 3.56 0 0 0 .09-.848V22.27zm-5.405 0h3.676v1.297a1.84 1.84 0 0 1-1.838 1.838 1.84 1.84 0 0 1-1.838-1.838V22.27z" clip-rule="evenodd"/>
    <path fill="#FFCE00" fill-rule="evenodd" d="M157.297 13.405a15.16 15.16 0 0 0-.422-3.556 14.346 14.346 0 0 0-3.196-4.324A15.057 15.057 0 0 0 145.38 3.4c-8.353.304-14.878 7.323-14.574 15.676.045 1.222.235 2.404.55 3.532a14.363 14.363 0 0 0 2.588 3.505 15.057 15.057 0 0 0 8.218 2.426c8.359 0 15.135-6.776 15.135-15.135zm-9.343-5.611l5.478 2.372-.687 1.587-5.478-2.372.687-1.587zm-.171 6.26a1.66 1.66 0 0 0 1.686 1.686 1.66 1.66 0 0 0 1.686-1.686h1.73c0 1.838-1.532 3.416-3.416 3.416s-3.416-1.578-3.416-3.416h1.73zm-7.809-6.26l.688 1.587-5.479 2.372-.687-1.587 5.478-2.372zm-4.859 6.26h1.73a1.66 1.66 0 0 0 1.686 1.686 1.66 1.66 0 0 0 1.686-1.686h1.73c0 1.838-1.532 3.416-3.416 3.416-1.883 0-3.416-1.578-3.416-3.416zm3.444 7.46h10.81v1.729h-10.81v-1.73z" clip-rule="evenodd"/>
    <path fill="#FFB100" fill-rule="evenodd" d="M156.875 9.848a15.16 15.16 0 0 1 .422 3.557c0 8.359-6.776 15.135-15.135 15.135-3.03 0-5.852-.892-8.218-2.426A14.224 14.224 0 0 0 144 30.27c7.869 0 14.27-6.402 14.27-14.27 0-2.201-.501-4.288-1.395-6.152z" clip-rule="evenodd"/>
    <path fill="#FFE454" fill-rule="evenodd" d="M145.379 3.4a15.06 15.06 0 0 1 8.3 2.125A14.216 14.216 0 0 0 144 1.73c-7.869 0-14.27 6.401-14.27 14.27 0 2.384.588 4.632 1.626 6.61a15.09 15.09 0 0 1-.55-3.533c-.305-8.353 6.22-15.372 14.573-15.676z" clip-rule="evenodd"/>
    <path fill="#000" fill-rule="evenodd" d="M144 0c-8.822 0-16 7.178-16 16s7.178 16 16 16 16-7.178 16-16-7.178-16-16-16zm0 30.27c-3.92 0-7.475-1.589-10.056-4.156a14.337 14.337 0 0 1-2.588-3.505A14.179 14.179 0 0 1 129.73 16c0-7.868 6.401-14.27 14.27-14.27 3.732 0 7.134 1.442 9.679 3.796a14.346 14.346 0 0 1 3.196 4.323A14.185 14.185 0 0 1 158.27 16c0 7.868-6.401 14.27-14.27 14.27z" clip-rule="evenodd"/>
    <path fill="#000" fill-rule="evenodd" d="M149.469 17.47c1.883 0 3.416-1.578 3.416-3.416h-1.73a1.66 1.66 0 0 1-1.686 1.686 1.66 1.66 0 0 1-1.686-1.686h-1.73c0 1.838 1.532 3.416 3.416 3.416zM141.947 14.054h-1.73a1.66 1.66 0 0 1-1.686 1.686 1.66 1.66 0 0 1-1.686-1.686h-1.73c0 1.838 1.532 3.416 3.416 3.416 1.883 0 3.416-1.578 3.416-3.416z" clip-rule="evenodd"/>
    <path fill="#000" d="M138.558 21.513h10.811v1.73h-10.811zM152.744 11.754l-5.478-2.372.688-1.588 5.477 2.372zM135.184 11.754l-.688-1.588 5.479-2.373.687 1.588z"/>
    <path fill="#FFCE00" fill-rule="evenodd" d="M221.272 13.405c0-.364-.014-.725-.039-1.083a4.376 4.376 0 0 1-1.635.316 4.41 4.41 0 0 1-4.403-4.407c0-.883.474-1.956 1.442-3.264a15.04 15.04 0 0 0-7.272-1.566c-8.346.304-14.865 7.323-14.561 15.676.044 1.222.234 2.405.549 3.533a14.355 14.355 0 0 0 2.586 3.505 15.033 15.033 0 0 0 8.211 2.426c8.352 0 15.122-6.777 15.122-15.136zm-9.667.757a1.73 1.73 0 1 1 3.456 0c0 .225-.044.439-.122.636a3.568 3.568 0 0 1 2.823 3.49 3.567 3.567 0 0 1-3.565 3.568 3.567 3.567 0 0 1-2.08-6.465 1.726 1.726 0 0 1-.512-1.229zm-9.829 7.694a3.567 3.567 0 0 1-.742-7.058 1.73 1.73 0 1 1 2.821.593 3.567 3.567 0 0 1-2.079 6.466zm2.61.414h7.129V24h-7.129v-1.73z" clip-rule="evenodd"/>
    <path fill="#FFB100" fill-rule="evenodd" d="M221.272 13.405c0 8.36-6.771 15.136-15.122 15.136a15.04 15.04 0 0 1-8.212-2.427 14.208 14.208 0 0 0 10.048 4.156c7.862 0 14.258-6.401 14.258-14.27 0-1.351-.189-2.66-.541-3.9a4.417 4.417 0 0 1-.471.222c.026.358.04.719.04 1.083z" clip-rule="evenodd"/>
    <path fill="#FFE454" fill-rule="evenodd" d="M209.365 3.4a15.041 15.041 0 0 1 7.272 1.567c.046-.064.094-.128.143-.192a14.18 14.18 0 0 0-8.794-3.045c-7.862 0-14.258 6.401-14.258 14.27 0 2.384.588 4.632 1.625 6.61a15.143 15.143 0 0 1-.549-3.533c-.305-8.353 6.214-15.372 14.561-15.676z" clip-rule="evenodd"/>
    <path fill="#FF9E00" fill-rule="evenodd" d="M203.855 15.391a1.73 1.73 0 0 1-2.822-.593 3.568 3.568 0 0 0-2.823 3.49 3.567 3.567 0 0 0 3.565 3.569 3.567 3.567 0 0 0 2.08-6.466zM210.632 18.288a3.567 3.567 0 0 0 3.565 3.569 3.567 3.567 0 0 0 3.565-3.569 3.568 3.568 0 0 0-2.823-3.49 1.727 1.727 0 0 1-2.822.593 3.564 3.564 0 0 0-1.485 2.897z" clip-rule="evenodd"/>
    <path fill="#000" fill-rule="evenodd" d="M202.64 15.892a1.72 1.72 0 0 0 1.215-.501 1.73 1.73 0 1 0-2.944-1.229c0 .225.045.439.123.636.253.64.876 1.094 1.606 1.094zM214.939 14.798a1.73 1.73 0 1 0 0 0z" clip-rule="evenodd"/>
    <path fill="#000" d="M204.386 22.27h7.129V24h-7.129z"/>
    <path fill="#28E0FF" fill-rule="evenodd" d="M216.923 8.231c0 1.476 1.2 2.677 2.675 2.677 1.474 0 2.674-1.2 2.674-2.677 0-.94-1.415-2.777-2.674-4.091-1.26 1.316-2.675 3.154-2.675 4.091z" clip-rule="evenodd"/>
    <path fill="#000" fill-rule="evenodd" d="M224 8.231c0-1.03-.642-2.317-1.964-3.937a23.754 23.754 0 0 0-1.844-2.003l-.594-.564-.595.564c-.027.026-.507.483-1.115 1.157A15.9 15.9 0 0 0 207.986 0C199.172 0 192 7.178 192 16s7.172 16 15.986 16c8.815 0 15.986-7.178 15.986-16 0-1.796-.297-3.524-.845-5.137A4.387 4.387 0 0 0 224 8.23zM222.244 16c0 7.869-6.396 14.27-14.258 14.27a14.208 14.208 0 0 1-10.048-4.155 14.352 14.352 0 0 1-2.585-3.505 14.19 14.19 0 0 1-1.624-6.61c0-7.869 6.395-14.27 14.257-14.27 3.316 0 6.37 1.138 8.795 3.045-.049.065-.098.128-.144.192-.968 1.308-1.442 2.381-1.442 3.264a4.41 4.41 0 0 0 4.403 4.407 4.381 4.381 0 0 0 2.105-.538c.352 1.24.541 2.549.541 3.9zm-2.646-5.092a2.679 2.679 0 0 1-2.675-2.677c0-.937 1.415-2.775 2.675-4.091 1.26 1.314 2.674 3.151 2.674 4.091 0 1.476-1.2 2.677-2.674 2.677z" clip-rule="evenodd"/>
    <path fill="#FFCE00" fill-rule="evenodd" d="M285.297 69.405c0-.444-.021-.884-.058-1.319a4.383 4.383 0 0 1-2.482.768 4.41 4.41 0 0 1-4.406-4.406c0-.985.589-2.206 1.796-3.725a15.072 15.072 0 0 0-6.767-1.322c-8.353.304-14.878 7.323-14.574 15.676.045 1.222.235 2.404.55 3.532a14.363 14.363 0 0 0 2.588 3.505 15.06 15.06 0 0 0 8.219 2.426c8.358 0 15.134-6.776 15.134-15.135zm-7.828-2.55c1.884 0 3.416 1.47 3.416 3.415h-1.73a1.66 1.66 0 0 0-1.686-1.686 1.66 1.66 0 0 0-1.686 1.686h-1.73c0-1.946 1.533-3.416 3.416-3.416zm-10.938 0c1.884 0 3.416 1.47 3.416 3.415h-1.729c0-.973-.757-1.686-1.687-1.686-.929 0-1.686.713-1.686 1.686h-1.729c0-1.946 1.532-3.416 3.415-3.416zm-3.426 6.983h17.791a8.896 8.896 0 0 1-17.791 0z" clip-rule="evenodd"/>
    <path fill="#FFB100" fill-rule="evenodd" d="M285.634 67.781a4.547 4.547 0 0 1-.395.305c.037.435.058.875.058 1.32 0 8.358-6.776 15.134-15.135 15.134-3.03 0-5.852-.892-8.218-2.426A14.224 14.224 0 0 0 272 86.27c7.869 0 14.27-6.401 14.27-14.27 0-1.468-.223-2.885-.636-4.219z" clip-rule="evenodd"/>
    <path fill="#FFE454" fill-rule="evenodd" d="M273.38 59.4a15.068 15.068 0 0 1 6.766 1.323l.17-.212.052-.063A14.195 14.195 0 0 0 272 57.73c-7.869 0-14.27 6.401-14.27 14.27 0 2.384.588 4.632 1.626 6.61a15.197 15.197 0 0 1-.55-3.533c-.304-8.353 6.22-15.372 14.574-15.676z" clip-rule="evenodd"/>
    <path fill="#000" fill-rule="evenodd" d="M286.856 66.06a4.39 4.39 0 0 0 .307-1.612c0-1.03-.643-2.318-1.966-3.937a23.678 23.678 0 0 0-1.845-2.004l-.595-.564-.595.564c-.02.019-.273.26-.639.644A15.916 15.916 0 0 0 272 56c-8.822 0-16 7.177-16 15.999 0 8.822 7.178 16 16 16s16-7.178 16-16a15.92 15.92 0 0 0-1.144-5.94zM272 86.27a14.224 14.224 0 0 1-10.056-4.156 14.363 14.363 0 0 1-2.588-3.505A14.178 14.178 0 0 1 257.73 72c0-7.868 6.402-14.27 14.27-14.27a14.19 14.19 0 0 1 8.368 2.72l-.052.062-.17.212c-1.206 1.52-1.796 2.74-1.796 3.725a4.412 4.412 0 0 0 4.407 4.406 4.382 4.382 0 0 0 2.877-1.073c.413 1.334.636 2.75.636 4.219 0 7.868-6.401 14.27-14.27 14.27zm13.433-21.822a2.68 2.68 0 0 1-2.676 2.676 2.68 2.68 0 0 1-2.677-2.676c0-.938 1.416-2.776 2.677-4.092 1.261 1.315 2.676 3.152 2.676 4.092z" clip-rule="evenodd"/>
    <path fill="#000" fill-rule="evenodd" d="M266.531 68.584c.93 0 1.686.713 1.686 1.686h1.73c0-1.946-1.532-3.416-3.416-3.416s-3.416 1.47-3.416 3.416h1.73a1.66 1.66 0 0 1 1.686-1.686zM277.469 68.584c.93 0 1.686.713 1.686 1.686h1.73c0-1.946-1.532-3.416-3.416-3.416s-3.416 1.47-3.416 3.416h1.73a1.66 1.66 0 0 1 1.686-1.686z" clip-rule="evenodd"/>
    <path fill="#28E0FF" fill-rule="evenodd" d="M280.08 64.448a2.68 2.68 0 0 0 2.677 2.676 2.68 2.68 0 0 0 2.676-2.676c0-.94-1.416-2.777-2.676-4.092-1.261 1.316-2.677 3.154-2.677 4.092z" clip-rule="evenodd"/>
    <path fill="#fff" fill-rule="evenodd" d="M271.991 81.003c3.355 0 6.17-2.317 6.946-5.436H265.045c.776 3.119 3.591 5.436 6.946 5.436z" clip-rule="evenodd"/>
    <path fill="#000" fill-rule="evenodd" d="M280.896 73.838h-17.791a8.896 8.896 0 0 0 17.791 0zm-1.977 1.73h.018c-.776 3.118-3.591 5.435-6.946 5.435-3.355 0-6.17-2.317-6.945-5.436h13.873z" clip-rule="evenodd"/>
    <path fill="#FFCE00" fill-rule="evenodd" d="M29.297 69.405c0-1.225-.147-2.416-.422-3.556a14.344 14.344 0 0 0-3.196-4.324 15.06 15.06 0 0 0-8.3-2.124c-8.353.304-14.877 7.323-14.573 15.676a15.16 15.16 0 0 0 .55 3.532 14.345 14.345 0 0 0 2.588 3.505 15.06 15.06 0 0 0 8.218 2.426c8.359 0 15.135-6.776 15.135-15.135zm-6.216-.108a1.73 1.73 0 1 1-3.46 0 1.73 1.73 0 0 1 3.46 0zm-2.457-5.93l1.014 1.402-2.804 2.026-1.013-1.401 2.803-2.027zm-9.285 0l2.803 2.027-1.013 1.401-2.804-2.027 1.014-1.401zm-.69 4.2a1.73 1.73 0 1 1 0 3.46 1.73 1.73 0 0 1 0-3.46zM6.27 72h19.46c0 5.373-4.357 9.73-9.73 9.73S6.27 77.372 6.27 72z" clip-rule="evenodd"/>
    <path fill="#FFB100" fill-rule="evenodd" d="M28.875 65.849c.275 1.14.422 2.331.422 3.556 0 8.36-6.776 15.135-15.135 15.135a15.06 15.06 0 0 1-8.219-2.426A14.225 14.225 0 0 0 16 86.27c7.868 0 14.27-6.401 14.27-14.27 0-2.201-.502-4.288-1.395-6.151z" clip-rule="evenodd"/>
    <path fill="#FFE454" fill-rule="evenodd" d="M17.38 59.4a15.06 15.06 0 0 1 8.299 2.125 14.215 14.215 0 0 0-9.68-3.795C8.132 57.73 1.73 64.13 1.73 72c0 2.384.589 4.632 1.627 6.61a15.16 15.16 0 0 1-.55-3.533c-.305-8.353 6.22-15.372 14.573-15.676z" clip-rule="evenodd"/>
    <path fill="#000" fill-rule="evenodd" d="M16 56C7.178 56 0 63.178 0 72s7.178 16 16 16 16-7.178 16-16-7.178-16-16-16zm0 30.27c-3.92 0-7.475-1.589-10.057-4.156a14.347 14.347 0 0 1-2.587-3.505A14.18 14.18 0 0 1 1.73 72c0-7.868 6.401-14.27 14.27-14.27 3.732 0 7.134 1.442 9.68 3.796a14.347 14.347 0 0 1 3.195 4.324 14.183 14.183 0 0 1 1.395 6.15c0 7.87-6.402 14.271-14.27 14.271z" clip-rule="evenodd"/>
    <path fill="#fff" fill-rule="evenodd" d="M15.993 80c3.818 0 7.012-2.688 7.804-6.27H8.188c.793 3.582 3.988 6.27 7.805 6.27z" clip-rule="evenodd"/>
    <path fill="#000" fill-rule="evenodd" d="M25.73 72H6.27c0 5.373 4.357 9.73 9.73 9.73s9.73-4.357 9.73-9.73zm-1.946 1.73h.014C23.005 77.312 19.81 80 15.993 80c-3.817 0-7.012-2.688-7.804-6.27h15.595zM10.648 71.027a1.73 1.73 0 1 0 0-3.46 1.73 1.73 0 0 0 0 3.46zM21.35 71.027a1.73 1.73 0 1 0 0-3.46 1.73 1.73 0 0 0 0 3.46z" clip-rule="evenodd"/>
    <path fill="#000" d="M13.129 66.796l-2.804-2.027 1.013-1.402 2.804 2.027zM18.834 66.795l-1.014-1.401 2.804-2.028 1.014 1.402z"/>
    <path fill="#FFCE00" fill-rule="evenodd" d="M93.297 69.405a15.16 15.16 0 0 0-.422-3.556 14.345 14.345 0 0 0-3.196-4.324 15.06 15.06 0 0 0-8.3-2.124c-8.353.304-14.877 7.323-14.573 15.676a15.16 15.16 0 0 0 .55 3.532 14.345 14.345 0 0 0 2.588 3.505 15.06 15.06 0 0 0 8.218 2.426c8.359 0 15.135-6.776 15.135-15.135zm-7.927-2.702a1.73 1.73 0 1 1 0 3.46 1.73 1.73 0 0 1 0-3.46zm-5.406 13.513c4.54 0 8.252-3.675 8.252-8.216h1.73c0 5.513-4.468 9.946-9.982 9.946v-1.73zm-5.297-10.054a1.73 1.73 0 1 1 0-3.46 1.73 1.73 0 0 1 0 3.46z" clip-rule="evenodd"/>
    <path fill="#FFB100" fill-rule="evenodd" d="M92.875 65.849c.275 1.14.422 2.33.422 3.556 0 8.359-6.776 15.135-15.135 15.135a15.06 15.06 0 0 1-8.219-2.426A14.224 14.224 0 0 0 80 86.27c7.869 0 14.27-6.402 14.27-14.27 0-2.201-.501-4.288-1.395-6.151z" clip-rule="evenodd"/>
    <path fill="#FFE454" fill-rule="evenodd" d="M81.38 59.4a15.06 15.06 0 0 1 8.299 2.125 14.216 14.216 0 0 0-9.68-3.795c-7.868 0-14.27 6.401-14.27 14.27 0 2.384.589 4.632 1.627 6.61a15.16 15.16 0 0 1-.55-3.533c-.305-8.353 6.22-15.372 14.573-15.676z" clip-rule="evenodd"/>
    <path fill="#000" fill-rule="evenodd" d="M80 56c-8.822 0-16 7.178-16 16s7.178 16 16 16 16-7.178 16-16-7.178-16-16-16zm0 30.27c-3.92 0-7.475-1.589-10.057-4.156a14.348 14.348 0 0 1-2.587-3.505A14.18 14.18 0 0 1 65.73 72c0-7.868 6.401-14.27 14.27-14.27 3.732 0 7.134 1.442 9.68 3.796a14.346 14.346 0 0 1 3.195 4.324 14.184 14.184 0 0 1 1.395 6.15c0 7.87-6.402 14.271-14.27 14.271z" clip-rule="evenodd"/>
    <path fill="#000" fill-rule="evenodd" d="M89.946 72h-1.73c0 4.54-3.712 8.216-8.252 8.216v1.73c5.514 0 9.982-4.433 9.982-9.946zM74.666 70.162a1.73 1.73 0 1 0 0-3.46 1.73 1.73 0 0 0 0 3.46zM85.37 70.162a1.73 1.73 0 1 0 0-3.46 1.73 1.73 0 0 0 0 3.46z" clip-rule="evenodd"/>
    <path fill="#FFCE00" fill-rule="evenodd" d="M157.297 69.405a15.16 15.16 0 0 0-.422-3.556 14.347 14.347 0 0 0-3.196-4.324 15.058 15.058 0 0 0-8.299-2.124c-8.353.304-14.878 7.323-14.574 15.676.045 1.222.235 2.404.55 3.532a14.363 14.363 0 0 0 2.588 3.505 15.057 15.057 0 0 0 8.218 2.426c8.359 0 15.135-6.776 15.135-15.135zm-7.819-2.702a1.73 1.73 0 1 1 0 3.46 1.73 1.73 0 0 1 0-3.46zm-10.703 0a1.73 1.73 0 1 1 0 3.46 1.73 1.73 0 0 1 0-3.46zm-3.134 9.609l1.453-.939a8.297 8.297 0 0 0 5.954 3.709 8.288 8.288 0 0 0 7.858-3.709l1.453.939c-1.836 2.841-5.043 4.553-8.389 4.553-.373 0-.746-.021-1.121-.065-2.914-.336-5.609-2.014-7.208-4.488z" clip-rule="evenodd"/>
    <path fill="#FFB100" fill-rule="evenodd" d="M156.875 65.849c.275 1.14.422 2.33.422 3.556 0 8.359-6.776 15.135-15.135 15.135-3.03 0-5.852-.892-8.218-2.426A14.223 14.223 0 0 0 144 86.27c7.869 0 14.27-6.402 14.27-14.27 0-2.201-.501-4.288-1.395-6.151z" clip-rule="evenodd"/>
    <path fill="#FFE454" fill-rule="evenodd" d="M145.379 59.4c3.028-.11 5.879.679 8.3 2.125A14.216 14.216 0 0 0 144 57.73c-7.869 0-14.27 6.401-14.27 14.27 0 2.384.588 4.632 1.626 6.61a15.091 15.091 0 0 1-.55-3.533c-.305-8.353 6.22-15.372 14.573-15.676z" clip-rule="evenodd"/>
    <path fill="#000" fill-rule="evenodd" d="M144 56c-8.822 0-16 7.178-16 16s7.178 16 16 16 16-7.178 16-16-7.178-16-16-16zm0 30.27c-3.92 0-7.475-1.589-10.056-4.156a14.337 14.337 0 0 1-2.588-3.505A14.179 14.179 0 0 1 129.73 72c0-7.868 6.401-14.27 14.27-14.27 3.732 0 7.134 1.442 9.679 3.796a14.348 14.348 0 0 1 3.196 4.324 14.185 14.185 0 0 1 1.395 6.15c0 7.87-6.401 14.271-14.27 14.271z" clip-rule="evenodd"/>
    <path fill="#000" fill-rule="evenodd" d="M138.775 70.162a1.73 1.73 0 1 0 0-3.46 1.73 1.73 0 0 0 0 3.46zM149.477 70.162a1.73 1.73 0 1 0 .001-3.46 1.73 1.73 0 0 0-.001 3.46zM143.969 80.865c3.347 0 6.554-1.712 8.39-4.553l-1.453-.94a8.288 8.288 0 0 1-7.859 3.71c-2.406-.278-4.632-1.664-5.953-3.71l-1.453.94c1.599 2.474 4.293 4.152 7.208 4.488.374.043.748.065 1.12.065z" clip-rule="evenodd"/>
    <path fill="#FFCE00" fill-rule="evenodd" d="M221.297 69.405a15.16 15.16 0 0 0-.422-3.556 14.36 14.36 0 0 0-3.195-4.324 15.062 15.062 0 0 0-8.3-2.124c-8.353.304-14.878 7.323-14.574 15.676.045 1.222.235 2.404.55 3.532a14.363 14.363 0 0 0 2.588 3.505 15.06 15.06 0 0 0 8.219 2.426c8.358 0 15.134-6.776 15.134-15.135zm-7.828-2.767c1.884 0 3.416 1.47 3.416 3.416h-1.73a1.66 1.66 0 0 0-1.686-1.686 1.66 1.66 0 0 0-1.686 1.686h-1.73c0-1.946 1.533-3.416 3.416-3.416zm-10.938 0c1.884 0 3.416 1.47 3.416 3.416h-1.73a1.66 1.66 0 0 0-1.686-1.686c-.929 0-1.686.713-1.686 1.686h-1.73c0-1.946 1.533-3.416 3.416-3.416zm-2.89 9.674l1.453-.939c1.322 2.045 3.547 3.431 5.954 3.709a8.288 8.288 0 0 0 7.858-3.709l1.453.939c-1.836 2.841-5.043 4.553-8.389 4.553-.373 0-.746-.021-1.121-.065-2.914-.336-5.609-2.014-7.208-4.488z" clip-rule="evenodd"/>
    <path fill="#FFB100" fill-rule="evenodd" d="M220.875 65.849c.275 1.14.422 2.33.422 3.556 0 8.359-6.776 15.135-15.135 15.135-3.03 0-5.852-.892-8.218-2.426A14.223 14.223 0 0 0 208 86.27c7.869 0 14.27-6.402 14.27-14.27 0-2.201-.501-4.288-1.395-6.151z" clip-rule="evenodd"/>
    <path fill="#FFE454" fill-rule="evenodd" d="M209.38 59.4c3.027-.11 5.879.678 8.299 2.125A14.214 14.214 0 0 0 208 57.73c-7.869 0-14.27 6.401-14.27 14.27 0 2.384.588 4.632 1.626 6.61a15.197 15.197 0 0 1-.55-3.533c-.304-8.353 6.22-15.372 14.574-15.676z" clip-rule="evenodd"/>
    <path fill="#000" fill-rule="evenodd" d="M208 56c-8.822 0-16 7.178-16 16s7.178 16 16 16 16-7.178 16-16-7.178-16-16-16zm0 30.27c-3.92 0-7.475-1.589-10.056-4.156a14.337 14.337 0 0 1-2.588-3.505A14.179 14.179 0 0 1 193.73 72c0-7.868 6.402-14.27 14.27-14.27 3.732 0 7.134 1.442 9.679 3.796a14.348 14.348 0 0 1 3.196 4.324 14.185 14.185 0 0 1 1.395 6.15c0 7.87-6.401 14.271-14.27 14.271z" clip-rule="evenodd"/>
    <path fill="#000" fill-rule="evenodd" d="M202.531 68.368c.93 0 1.686.713 1.686 1.686h1.73c0-1.946-1.533-3.416-3.416-3.416-1.884 0-3.416 1.47-3.416 3.416h1.73a1.66 1.66 0 0 1 1.686-1.686zM213.469 68.368c.93 0 1.686.713 1.686 1.686h1.73c0-1.946-1.533-3.416-3.416-3.416-1.884 0-3.416 1.47-3.416 3.416h1.73a1.66 1.66 0 0 1 1.686-1.686zM207.969 80.865c3.347 0 6.554-1.712 8.39-4.553l-1.453-.94a8.29 8.29 0 0 1-7.859 3.71c-2.406-.278-4.632-1.664-5.953-3.71l-1.453.94c1.599 2.474 4.294 4.152 7.208 4.488a9.76 9.76 0 0 0 1.12.065z" clip-rule="evenodd"/>
    <path fill="#FFCE00" fill-rule="evenodd" d="M285.297 125.405a15.15 15.15 0 0 0-.422-3.556 14.357 14.357 0 0 0-3.195-4.324 15.064 15.064 0 0 0-8.3-2.124c-8.353.304-14.878 7.323-14.574 15.676.045 1.222.235 2.405.55 3.533a14.364 14.364 0 0 0 2.588 3.504 15.06 15.06 0 0 0 8.219 2.426c8.358 0 15.134-6.776 15.134-15.135zm-7.945-3.459a1.73 1.73 0 1 1-.001 3.46 1.73 1.73 0 0 1 .001-3.46zm-10.703 0a1.73 1.73 0 1 1-.001 3.461 1.73 1.73 0 0 1 .001-3.461zM262.271 128h19.459c0 5.373-4.356 9.73-9.73 9.73-5.373 0-9.729-4.357-9.729-9.73z" clip-rule="evenodd"/>
    <path fill="#FFB100" fill-rule="evenodd" d="M284.875 121.849a15.15 15.15 0 0 1 .422 3.556c0 8.359-6.776 15.135-15.135 15.135-3.03 0-5.852-.892-8.218-2.426A14.224 14.224 0 0 0 272 142.27c7.869 0 14.27-6.402 14.27-14.27 0-2.201-.501-4.288-1.395-6.151z" clip-rule="evenodd"/>
    <path fill="#FFE454" fill-rule="evenodd" d="M273.38 115.401a15.06 15.06 0 0 1 8.299 2.124A14.214 14.214 0 0 0 272 113.73c-7.869 0-14.27 6.401-14.27 14.27 0 2.384.588 4.632 1.626 6.609a15.195 15.195 0 0 1-.55-3.532c-.304-8.353 6.22-15.372 14.574-15.676z" clip-rule="evenodd"/>
    <path fill="#000" fill-rule="evenodd" d="M272 112c-8.822 0-16 7.178-16 16s7.178 16 16 16 16-7.178 16-16-7.177-16-16-16zm0 30.27a14.224 14.224 0 0 1-10.056-4.156 14.35 14.35 0 0 1-2.588-3.505A14.175 14.175 0 0 1 257.73 128c0-7.869 6.402-14.27 14.27-14.27 3.732 0 7.134 1.441 9.679 3.795a14.343 14.343 0 0 1 3.196 4.324A14.182 14.182 0 0 1 286.27 128c0 7.869-6.401 14.27-14.27 14.27z" clip-rule="evenodd"/>
    <path fill="#fff" fill-rule="evenodd" d="M271.993 136c3.818 0 7.012-2.688 7.805-6.27h-15.609c.792 3.582 3.987 6.27 7.804 6.27z" clip-rule="evenodd"/>
    <path fill="#000" fill-rule="evenodd" d="M281.73 128h-19.459c0 5.373 4.356 9.729 9.729 9.729 5.374 0 9.73-4.356 9.73-9.729zm-1.946 1.73h.014c-.793 3.582-3.987 6.27-7.804 6.27-3.818 0-7.012-2.688-7.805-6.27h15.595zM266.649 125.405a1.729 1.729 0 1 0 0-3.458 1.729 1.729 0 0 0 0 3.458zM277.351 125.405a1.73 1.73 0 1 0 .002-3.458 1.73 1.73 0 0 0-.002 3.458z" clip-rule="evenodd"/>
    <path fill="#FFCE00" fill-rule="evenodd" d="M29.297 125.405a15.15 15.15 0 0 0-.422-3.556 14.342 14.342 0 0 0-3.196-4.324 15.063 15.063 0 0 0-8.3-2.124c-8.353.304-14.877 7.323-14.573 15.676a15.16 15.16 0 0 0 .55 3.533 14.346 14.346 0 0 0 2.588 3.504 15.06 15.06 0 0 0 8.218 2.426c8.359 0 15.135-6.776 15.135-15.135zm-9.142.167a1.73 1.73 0 1 1 2.393 0 3.117 3.117 0 1 1-2.393 0zM7.53 128.45c0-1.297.793-2.409 1.921-2.878a1.73 1.73 0 1 1 2.393 0 3.117 3.117 0 1 1-4.314 2.878zm3.784 3.982v-.864h9.298v.864c0 2.551-2.098 4.626-4.65 4.626-2.55 0-4.648-2.075-4.648-4.626z" clip-rule="evenodd"/>
    <path fill="#FFB100" fill-rule="evenodd" d="M28.875 121.849c.275 1.141.422 2.331.422 3.556 0 8.359-6.776 15.135-15.135 15.135a15.06 15.06 0 0 1-8.219-2.426A14.225 14.225 0 0 0 16 142.27c7.868 0 14.27-6.401 14.27-14.27 0-2.201-.502-4.288-1.395-6.151z" clip-rule="evenodd"/>
    <path fill="#FFE454" fill-rule="evenodd" d="M17.38 115.401c3.027-.11 5.878.678 8.299 2.124a14.215 14.215 0 0 0-9.68-3.795c-7.868 0-14.27 6.401-14.27 14.27 0 2.384.589 4.632 1.627 6.609a15.152 15.152 0 0 1-.55-3.532c-.305-8.353 6.22-15.372 14.573-15.676z" clip-rule="evenodd"/>
    <path fill="#000" fill-rule="evenodd" d="M16 112c-8.822 0-16 7.178-16 16s7.178 16 16 16 16-7.178 16-16-7.178-16-16-16zm0 30.27c-3.92 0-7.475-1.589-10.057-4.156a14.335 14.335 0 0 1-2.587-3.505A14.177 14.177 0 0 1 1.73 128c0-7.869 6.401-14.27 14.27-14.27 3.732 0 7.134 1.441 9.68 3.795a14.343 14.343 0 0 1 3.195 4.324A14.181 14.181 0 0 1 30.27 128c0 7.869-6.402 14.27-14.27 14.27z" clip-rule="evenodd"/>
    <path fill="#FF9E00" fill-rule="evenodd" d="M13.765 128.45a3.12 3.12 0 0 0-1.92-2.879 1.72 1.72 0 0 1-2.393 0 3.117 3.117 0 1 0 4.313 2.879zM21.351 131.567a3.117 3.117 0 0 0 1.197-5.996 1.72 1.72 0 0 1-2.393 0 3.117 3.117 0 0 0 1.197 5.996z" clip-rule="evenodd"/>
    <path fill="#000" fill-rule="evenodd" d="M11.845 125.572a1.73 1.73 0 1 0-1.197.482c.465 0 .886-.184 1.197-.482zM22.548 125.572a1.73 1.73 0 1 0-1.197.482c.465 0 .886-.184 1.197-.482z" clip-rule="evenodd"/>
    <path fill="#fff" fill-rule="evenodd" d="M15.986 135.328a2.9 2.9 0 0 0 2.764-2.031h-5.528a2.9 2.9 0 0 0 2.764 2.031z" clip-rule="evenodd"/>
    <path fill="#000" fill-rule="evenodd" d="M20.612 132.432v-.865h-9.297v.865c0 2.551 2.098 4.626 4.649 4.626 2.55 0 4.648-2.075 4.648-4.626zm-1.861.865a2.9 2.9 0 0 1-2.765 2.031 2.9 2.9 0 0 1-2.764-2.031h5.529z" clip-rule="evenodd"/>
    <path fill="#FFCE00" fill-rule="evenodd" d="M93.297 125.405a15.15 15.15 0 0 0-.422-3.556 14.342 14.342 0 0 0-3.196-4.324 15.063 15.063 0 0 0-8.3-2.124c-8.353.304-14.877 7.323-14.573 15.676.045 1.222.235 2.405.55 3.533a14.346 14.346 0 0 0 2.588 3.504 15.06 15.06 0 0 0 8.218 2.426c8.359 0 15.135-6.776 15.135-15.135zm-7.927-2.702a1.73 1.73 0 1 1 0 3.46 1.73 1.73 0 0 1 0-3.46zm-10.703 0a1.73 1.73 0 1 1 0 3.46 1.73 1.73 0 0 1 0-3.46zM70.054 128h1.73c0 4.541 3.686 8.216 8.216 8.216 4.53 0 8.216-3.675 8.216-8.216h1.73A9.938 9.938 0 0 1 80 137.946 9.938 9.938 0 0 1 70.054 128z" clip-rule="evenodd"/>
    <path fill="#FFB100" fill-rule="evenodd" d="M92.875 121.849a15.15 15.15 0 0 1 .422 3.556c0 8.359-6.776 15.135-15.135 15.135-3.03 0-5.852-.892-8.219-2.426A14.225 14.225 0 0 0 80 142.27c7.868 0 14.27-6.402 14.27-14.27 0-2.201-.501-4.288-1.395-6.151z" clip-rule="evenodd"/>
    <path fill="#FFE454" fill-rule="evenodd" d="M81.38 115.401c3.027-.11 5.878.678 8.299 2.124a14.215 14.215 0 0 0-9.68-3.795c-7.868 0-14.27 6.401-14.27 14.27 0 2.384.589 4.632 1.627 6.609a15.158 15.158 0 0 1-.55-3.532c-.305-8.353 6.22-15.372 14.573-15.676z" clip-rule="evenodd"/>
    <path fill="#000" fill-rule="evenodd" d="M80 112c-8.822 0-16 7.178-16 16s7.178 16 16 16 16-7.178 16-16-7.178-16-16-16zm0 30.27c-3.92 0-7.475-1.589-10.057-4.156a14.335 14.335 0 0 1-2.587-3.505A14.176 14.176 0 0 1 65.73 128c0-7.869 6.401-14.27 14.27-14.27 3.732 0 7.134 1.441 9.68 3.795a14.342 14.342 0 0 1 3.195 4.324A14.181 14.181 0 0 1 94.27 128c0 7.869-6.402 14.27-14.27 14.27z" clip-rule="evenodd"/>
    <path fill="#000" fill-rule="evenodd" d="M89.946 128h-1.73c0 4.54-3.686 8.216-8.216 8.216-4.53 0-8.216-3.676-8.216-8.216h-1.73A9.939 9.939 0 0 0 80 137.946 9.939 9.939 0 0 0 89.946 128zM74.667 126.162a1.73 1.73 0 1 0 0-3.46 1.73 1.73 0 0 0 0 3.46zM85.37 126.162a1.73 1.73 0 1 0 0-3.459 1.73 1.73 0 0 0 0 3.459z" clip-rule="evenodd"/>
    <path fill="#FFCE00" fill-rule="evenodd" d="M145.324 115.389c-6.76.247-12.336 4.905-14.025 11.105 1.234-.325 2.701-.428 3.994-.44v-.005c0-1.875 1.547-3.42 3.418-3.42 1.874 0 3.417 1.546 3.417 3.378h-1.724c0-.862-.752-1.654-1.676-1.654-.924 0-1.675.767-1.675 1.697v.043l-.019.776h-.002l.001.054c.001.042.016.887-.069 1.993h13.897a22.97 22.97 0 0 1-.069-1.987l.002-.06h-.003l-.019-.792c0-.931-.751-1.716-1.675-1.716s-1.676.784-1.676 1.646h-1.723c0-1.832 1.524-3.378 3.399-3.378 1.871 0 3.393 1.534 3.399 3.41l.001.015c1.525.014 3.313.155 4.645.636a15.116 15.116 0 0 0-.362-4.875 14.287 14.287 0 0 0-3.185-4.309 15.008 15.008 0 0 0-8.271-2.117zM153.905 134.771a4.529 4.529 0 0 1-1.574-1.027 3.156 3.156 0 0 1-.525-.723 8.862 8.862 0 0 1-7.857 4.76 8.86 8.86 0 0 1-7.899-4.841c-.165.31-.349.57-.556.777a4.363 4.363 0 0 1-3.106 1.286 4.45 4.45 0 0 1-.827-.078 14.272 14.272 0 0 0 2.365 3.101 15.009 15.009 0 0 0 8.191 2.418c4.771 0 9.024-2.215 11.788-5.673z" clip-rule="evenodd"/>
    <path fill="#FFB100" fill-rule="evenodd" d="M155.437 135.057a4.26 4.26 0 0 1-1.532-.286 15.054 15.054 0 0 1-11.788 5.673c-3.02 0-5.832-.889-8.191-2.418a14.174 14.174 0 0 0 10.023 4.142c5.291 0 9.915-2.905 12.365-7.203-.286.06-.579.092-.877.092zM157.142 126.69c.379.136.72.3 1.008.496a14.109 14.109 0 0 0-1.37-5.371 15.116 15.116 0 0 1 .362 4.875z" clip-rule="evenodd"/>
    <path fill="#FFE454" fill-rule="evenodd" d="M129.75 127.137c.43-.276.969-.486 1.567-.643 1.689-6.2 7.247-10.858 14.007-11.105 3.017-.11 5.859.676 8.271 2.117a14.167 14.167 0 0 0-9.646-3.782c-7.571 0-13.778 5.946-14.199 13.413z" clip-rule="evenodd"/>
    <path fill="#fff" fill-rule="evenodd" d="M143.94 136.057c3.343 0 6.149-2.31 6.922-5.417h-13.845c.773 3.108 3.579 5.417 6.923 5.417z" clip-rule="evenodd"/>
    <path fill="#28E0FF" fill-rule="evenodd" d="M132.388 133.28c.713 0 1.383-.278 1.887-.782.663-.662.976-2.926 1.029-4.72-2.379.027-4.247.393-4.802.948a2.67 2.67 0 0 0 1.886 4.554zM152.522 127.778c.054 1.795.367 4.086 1.028 4.747.504.504 1.174.808 1.887.808.713 0 1.382-.304 1.886-.808a2.687 2.687 0 0 0 0-3.786c-.554-.554-2.422-.934-4.801-.961z" clip-rule="evenodd"/>
    <path fill="#000" fill-rule="evenodd" d="M159.771 129.931c.081-.65.124-1.313.124-1.985 0-8.792-7.154-15.946-15.946-15.946-8.793 0-15.946 7.154-15.946 15.946 0 .588.033 1.169.095 1.74a4.398 4.398 0 0 0 .84 3.641c2.212 6.153 8.106 10.565 15.011 10.565 6.953 0 12.88-4.474 15.056-10.695.688-.96.943-2.141.766-3.266zm-15.822 12.237c-3.907 0-7.45-1.583-10.023-4.142a14.272 14.272 0 0 1-2.365-3.101c.27.052.546.078.827.078a4.361 4.361 0 0 0 3.106-1.286c.207-.207.391-.466.556-.777a8.862 8.862 0 0 0 7.899 4.841 8.862 8.862 0 0 0 7.857-4.76c.157.287.331.529.526.723.453.454.989.803 1.573 1.027.484.186 1 .286 1.532.286.298 0 .592-.031.877-.092-2.449 4.299-7.074 7.203-12.365 7.203zm13.374-9.643c-.504.504-1.173.808-1.886.808-.713 0-1.383-.304-1.886-.808-.662-.661-.975-2.952-1.029-4.747 2.379.027 4.247.407 4.801.961a2.687 2.687 0 0 1 0 3.786zm-.543-10.709a14.1 14.1 0 0 1 1.37 5.37 4.486 4.486 0 0 0-1.008-.496c-1.332-.48-3.12-.621-4.645-.635l-.001-.016c-.006-1.876-1.528-3.41-3.399-3.41-1.875 0-3.399 1.546-3.399 3.378h1.723c0-.862.752-1.654 1.676-1.654.924 0 1.676.794 1.676 1.724l.018.792h.003l-.002.06c-.001.043-.015.885.069 1.987h-13.897c.085-1.106.07-1.95.069-1.993l-.001-.054h.002l.019-.776v-.034c0-.931.752-1.702 1.675-1.702.924 0 1.676.788 1.676 1.65h1.724c0-1.832-1.543-3.378-3.417-3.378-1.871 0-3.418 1.545-3.418 3.42v.005c-1.293.012-2.76.115-3.994.44-.598.157-1.128.367-1.558.643.421-7.467 6.633-13.413 14.203-13.413 3.72 0 7.112 1.436 9.649 3.782a14.285 14.285 0 0 1 3.187 4.31zm-5.918 8.824c-.773 3.108-3.578 5.417-6.922 5.417s-6.149-2.31-6.923-5.417h13.845zm-20.36-1.914c.554-.555 2.423-.921 4.802-.948-.053 1.794-.367 4.057-1.029 4.72a2.65 2.65 0 0 1-1.887.781 2.65 2.65 0 0 1-1.886-.781 2.67 2.67 0 0 1 0-3.772z" clip-rule="evenodd"/>
    <path fill="#FFCE00" fill-rule="evenodd" d="M221.297 125.405a15.15 15.15 0 0 0-.422-3.556 14.357 14.357 0 0 0-3.195-4.324 15.064 15.064 0 0 0-8.3-2.124 15.08 15.08 0 0 0-9.971 4.247c.204-.049.416-.074.633-.074.627 0 1.258.226 1.742.668a2.588 2.588 0 0 1 1.742-.668c.701 0 1.36.265 1.855.748.381.37.835 1.037.835 2.11 0 2.061-3.262 4.588-3.917 5.073l-.515.383-.516-.383c-.654-.485-3.917-3.012-3.917-5.073a3.5 3.5 0 0 1 .018-.347 15.065 15.065 0 0 0-2.563 8.992c.045 1.222.235 2.405.55 3.533.126.239.258.474.396.705l2.525-2.543a10.774 10.774 0 0 1-1.169-4.88h1.729c0 4.973 4.111 9.163 9.163 9.163 5.052 0 9.163-4.19 9.163-9.163h1.73c0 5.946-4.887 10.892-10.893 10.892-1.647 0-3.21-.372-4.611-1.035l-2.008 2.02c1.503.5 3.11.772 4.782.772 8.358-.001 15.134-6.777 15.134-15.136zm-6.565 2.1l-.516.383-.515-.383c-.654-.485-3.917-3.012-3.917-5.073 0-1.073.454-1.74.835-2.11a2.64 2.64 0 0 1 1.855-.748c.627 0 1.258.226 1.742.668a2.59 2.59 0 0 1 1.743-.668c.7 0 1.359.265 1.855.748.381.37.835 1.037.835 2.11 0 2.061-3.263 4.588-3.917 5.073z" clip-rule="evenodd"/>
    <path fill="#FFB100" fill-rule="evenodd" d="M220.875 121.849c.275 1.141.422 2.331.422 3.556 0 8.359-6.776 15.135-15.135 15.135a15.09 15.09 0 0 1-4.781-.772l-.558.562a14.19 14.19 0 0 0 7.177 1.94c7.869 0 14.27-6.402 14.27-14.27 0-2.201-.501-4.288-1.395-6.151z" clip-rule="evenodd"/>
    <path fill="#FFE454" fill-rule="evenodd" d="M197.368 122.085c.085-.872.48-1.435.818-1.764a2.634 2.634 0 0 1 1.222-.673 15.083 15.083 0 0 1 9.972-4.247 15.052 15.052 0 0 1 8.299 2.124A14.214 14.214 0 0 0 208 113.73c-7.869 0-14.27 6.401-14.27 14.27 0 2.384.588 4.632 1.626 6.609a15.195 15.195 0 0 1-.55-3.532 15.065 15.065 0 0 1 2.562-8.992z" clip-rule="evenodd"/>
    <path fill="#000" fill-rule="evenodd" d="M208 112c-8.822 0-16 7.178-16 16 0 3.344 1.032 6.452 2.794 9.022a3.582 3.582 0 0 0-.096.837 3.536 3.536 0 0 0 1.054 2.516 3.539 3.539 0 0 0 2.513 1.03h.014c.288 0 .57-.035.843-.101A15.906 15.906 0 0 0 208 144c8.822 0 16-7.178 16-16s-7.178-16-16-16zm0 30.27a14.19 14.19 0 0 1-7.177-1.94l.558-.561 2.008-2.02a10.752 10.752 0 0 0 4.611 1.035c6.006 0 10.892-4.946 10.892-10.892h-1.729c0 4.973-4.111 9.163-9.163 9.163-5.053 0-9.163-4.19-9.163-9.163h-1.73c0 1.746.422 3.406 1.17 4.88l-2.525 2.543A14.175 14.175 0 0 1 193.73 128c0-7.869 6.402-14.27 14.27-14.27 3.732 0 7.134 1.441 9.679 3.795a14.343 14.343 0 0 1 3.196 4.324A14.182 14.182 0 0 1 222.27 128c0 7.869-6.401 14.27-14.27 14.27zm-11.573-4.415a1.83 1.83 0 0 1 .534-1.302l2.248-2.264a11.042 11.042 0 0 0 2.63 2.564l-2.269 2.285a1.816 1.816 0 0 1-1.298.538h-.007c-.488 0-.948-.184-1.294-.529a1.812 1.812 0 0 1-.544-1.292z" clip-rule="evenodd"/>
    <path fill="#E36600" fill-rule="evenodd" d="M200.041 121.304c-.443 0-.96.295-.96 1.128 0 .566 1.066 1.961 2.703 3.285 1.637-1.324 2.702-2.719 2.702-3.285 0-.833-.517-1.128-.96-1.128-.206 0-.878.077-.878 1.074h-1.729c0-.997-.672-1.074-.878-1.074z" clip-rule="evenodd"/>
    <path fill="#000" fill-rule="evenodd" d="M197.369 122.085a3.5 3.5 0 0 0-.018.347c0 2.061 3.263 4.588 3.917 5.073l.516.383.515-.383c.655-.485 3.917-3.012 3.917-5.073 0-1.073-.454-1.74-.835-2.11a2.638 2.638 0 0 0-1.855-.748c-.627 0-1.258.226-1.742.668a2.589 2.589 0 0 0-1.743-.668 2.634 2.634 0 0 0-1.855.748c-.338.328-.732.891-.817 1.763zm5.28.293c0-.997.671-1.074.877-1.074.443 0 .96.295.96 1.128 0 .566-1.065 1.961-2.702 3.285-1.637-1.324-2.703-2.719-2.703-3.285 0-.833.517-1.128.96-1.128.206 0 .878.077.878 1.074h1.73z" clip-rule="evenodd"/>
    <path fill="#E36600" fill-rule="evenodd" d="M212.474 121.304c-.443 0-.961.295-.961 1.128 0 .566 1.066 1.961 2.703 3.285 1.637-1.324 2.703-2.719 2.703-3.285 0-.833-.517-1.128-.96-1.128-.206 0-.878.077-.878 1.074h-1.73c0-.997-.671-1.074-.877-1.074z" clip-rule="evenodd"/>
    <path fill="#000" fill-rule="evenodd" d="M215.959 119.574a2.59 2.59 0 0 0-1.743.668 2.588 2.588 0 0 0-1.742-.668 2.64 2.64 0 0 0-1.855.748c-.381.37-.835 1.037-.835 2.11 0 2.061 3.263 4.588 3.917 5.073l.515.383.516-.383c.654-.485 3.917-3.012 3.917-5.073 0-1.073-.454-1.74-.835-2.11a2.642 2.642 0 0 0-1.855-.748zm-.878 2.804c0-.997.672-1.074.878-1.074.443 0 .96.295.96 1.128 0 .566-1.066 1.961-2.703 3.285-1.637-1.324-2.702-2.719-2.702-3.285 0-.833.517-1.128.96-1.128.206 0 .878.077.878 1.074h1.729z" clip-rule="evenodd"/>
    <path fill="#E36600" fill-rule="evenodd" d="M198.272 139.675c.491 0 .952-.189 1.298-.537l2.269-2.285a11.098 11.098 0 0 1-2.63-2.564l-2.248 2.264a1.826 1.826 0 0 0-.533 1.302c.001.491.194.946.543 1.292a1.82 1.82 0 0 0 1.294.528h.007z" clip-rule="evenodd"/>
    <path fill="#FFCE00" fill-rule="evenodd" d="M285.297 182.406c0-1.226-.147-2.416-.422-3.557a14.357 14.357 0 0 0-3.195-4.324 15.064 15.064 0 0 0-8.3-2.124c-8.353.305-14.878 7.323-14.574 15.676.045 1.222.235 2.405.55 3.533a14.388 14.388 0 0 0 2.588 3.505 15.068 15.068 0 0 0 8.219 2.425c8.358 0 15.134-6.776 15.134-15.134zm-10.516-3.679a2.646 2.646 0 0 1 1.855-.748c.628 0 1.259.226 1.743.668a2.588 2.588 0 0 1 1.742-.668c.701 0 1.36.266 1.855.748.381.371.835 1.038.835 2.111 0 2.06-3.263 4.587-3.917 5.073l-.515.382-.516-.382c-.654-.486-3.917-3.013-3.917-5.073 0-1.074.454-1.741.835-2.111zm-13.267 2.111c0-1.074.454-1.741.835-2.111a2.643 2.643 0 0 1 1.855-.748c.627 0 1.258.226 1.742.668a2.589 2.589 0 0 1 1.743-.668c.7 0 1.359.266 1.855.748.381.371.835 1.038.835 2.111 0 2.06-3.263 4.587-3.917 5.073l-.516.382-.515-.382c-.654-.486-3.917-3.013-3.917-5.073zm3.558 7.838h14.289a7.148 7.148 0 0 1-7.144 7.144 7.148 7.148 0 0 1-7.145-7.144z" clip-rule="evenodd"/>
    <path fill="#FFB100" fill-rule="evenodd" d="M284.875 178.849a15.15 15.15 0 0 1 .422 3.556c0 8.359-6.776 15.135-15.135 15.135-3.03 0-5.852-.892-8.218-2.426A14.224 14.224 0 0 0 272 199.27c7.869 0 14.27-6.401 14.27-14.27 0-2.201-.501-4.288-1.395-6.151z" clip-rule="evenodd"/>
    <path fill="#FFE454" fill-rule="evenodd" d="M273.38 172.401a15.06 15.06 0 0 1 8.299 2.124A14.214 14.214 0 0 0 272 170.73c-7.869 0-14.27 6.401-14.27 14.27 0 2.384.588 4.632 1.626 6.61a15.203 15.203 0 0 1-.55-3.533c-.304-8.353 6.22-15.372 14.574-15.676z" clip-rule="evenodd"/>
    <path fill="#000" fill-rule="evenodd" d="M272 169c-8.822 0-16 7.178-16 16s7.178 16 16 16 16-7.178 16-16-7.177-16-16-16zm0 30.27a14.224 14.224 0 0 1-10.056-4.156 14.364 14.364 0 0 1-2.588-3.504 14.182 14.182 0 0 1-1.626-6.61c0-7.869 6.402-14.27 14.27-14.27 3.732 0 7.134 1.441 9.679 3.795a14.343 14.343 0 0 1 3.196 4.324A14.182 14.182 0 0 1 286.27 185c0 7.869-6.401 14.27-14.27 14.27z" clip-rule="evenodd"/>
    <path fill="#E36600" fill-rule="evenodd" d="M264.204 179.709c-.443 0-.96.296-.96 1.129 0 .566 1.065 1.96 2.702 3.284 1.637-1.324 2.703-2.718 2.703-3.284 0-.833-.517-1.129-.96-1.129-.206 0-.878.077-.878 1.075h-1.73c0-.998-.671-1.075-.877-1.075z" clip-rule="evenodd"/>
    <path fill="#000" fill-rule="evenodd" d="M265.946 186.293l.516-.382c.654-.486 3.916-3.013 3.916-5.073 0-1.074-.454-1.741-.835-2.111a2.643 2.643 0 0 0-1.855-.748c-.627 0-1.258.226-1.742.668a2.588 2.588 0 0 0-1.742-.668c-.701 0-1.36.266-1.856.748-.38.37-.834 1.037-.834 2.111 0 2.06 3.262 4.587 3.916 5.073l.516.382zm.865-5.509c0-.998.672-1.075.877-1.075.443 0 .961.296.961 1.129 0 .566-1.066 1.96-2.703 3.284-1.637-1.324-2.703-2.718-2.703-3.284 0-.833.518-1.129.961-1.129.205 0 .877.078.877 1.075h1.73z" clip-rule="evenodd"/>
    <path fill="#E36600" fill-rule="evenodd" d="M276.636 179.709c-.443 0-.96.296-.96 1.129 0 .566 1.065 1.96 2.702 3.284 1.637-1.324 2.703-2.718 2.703-3.284 0-.833-.517-1.129-.96-1.129-.206 0-.878.077-.878 1.075h-1.729c0-.998-.672-1.075-.878-1.075z" clip-rule="evenodd"/>
    <path fill="#000" fill-rule="evenodd" d="M277.863 185.911l.516.382.515-.382c.654-.486 3.917-3.013 3.917-5.073 0-1.074-.454-1.741-.835-2.111a2.645 2.645 0 0 0-1.855-.748c-.627 0-1.258.226-1.742.668a2.59 2.59 0 0 0-1.743-.668c-.7 0-1.359.266-1.855.748-.381.37-.835 1.037-.835 2.111 0 2.06 3.263 4.587 3.917 5.073zm1.381-5.127c0-.998.672-1.075.878-1.075.443 0 .96.296.96 1.129 0 .566-1.065 1.96-2.702 3.284-1.637-1.324-2.703-2.718-2.703-3.284 0-.833.517-1.129.96-1.129.206 0 .878.078.878 1.075h1.729z" clip-rule="evenodd"/>
    <path fill="#fff" fill-rule="evenodd" d="M272.204 194.09c2.381 0 4.395-1.545 5.119-3.685h-10.238c.724 2.14 2.738 3.685 5.119 3.685z" clip-rule="evenodd"/>
    <path fill="#000" fill-rule="evenodd" d="M279.36 188.676h-14.288a7.148 7.148 0 0 0 7.144 7.144 7.147 7.147 0 0 0 7.144-7.144zm-2.063 1.729h.025c-.723 2.14-2.737 3.685-5.118 3.685-2.381 0-4.396-1.545-5.119-3.685h10.212z" clip-rule="evenodd"/>
    <path fill="#FFCE00" fill-rule="evenodd" d="M29.297 182.406c0-1.226-.147-2.416-.422-3.557a14.342 14.342 0 0 0-3.196-4.324 15.063 15.063 0 0 0-8.3-2.124c-8.353.305-14.877 7.323-14.573 15.676.045 1.222.235 2.405.55 3.533a14.37 14.37 0 0 0 2.588 3.505 15.067 15.067 0 0 0 8.218 2.425c8.359 0 15.135-6.776 15.135-15.134zm-7.946-2.595a1.73 1.73 0 1 1 0 3.46 1.73 1.73 0 0 1 0-3.46zm-10.702 0a1.73 1.73 0 1 1 0 3.46 1.73 1.73 0 0 1 0-3.46zm-3.644 9.856l17.637-3.676.353 1.694-17.637 3.675-.353-1.693z" clip-rule="evenodd"/>
    <path fill="#FFB100" fill-rule="evenodd" d="M28.875 178.849c.275 1.141.422 2.331.422 3.557 0 8.358-6.776 15.134-15.135 15.134-3.03 0-5.852-.892-8.219-2.425A14.228 14.228 0 0 0 16 199.27c7.869 0 14.27-6.401 14.27-14.27 0-2.201-.501-4.288-1.395-6.151z" clip-rule="evenodd"/>
    <path fill="#FFE454" fill-rule="evenodd" d="M17.38 172.401c3.027-.11 5.878.678 8.299 2.124a14.215 14.215 0 0 0-9.68-3.795c-7.868 0-14.27 6.401-14.27 14.27 0 2.384.589 4.632 1.627 6.61a15.166 15.166 0 0 1-.55-3.533c-.305-8.353 6.22-15.371 14.573-15.676z" clip-rule="evenodd"/>
    <path fill="#000" fill-rule="evenodd" d="M16 169c-8.822 0-16 7.178-16 16s7.178 16 16 16 16-7.178 16-16-7.178-16-16-16zm0 30.27c-3.92 0-7.475-1.589-10.057-4.156a14.348 14.348 0 0 1-2.587-3.504A14.185 14.185 0 0 1 1.73 185c0-7.869 6.401-14.27 14.27-14.27 3.732 0 7.134 1.441 9.68 3.795a14.343 14.343 0 0 1 3.195 4.324A14.181 14.181 0 0 1 30.27 185c0 7.869-6.402 14.27-14.27 14.27z" clip-rule="evenodd"/>
    <path fill="#000" d="M24.994 187.685L7.357 191.36l-.353-1.693 17.637-3.676z"/>
    <path fill="#000" fill-rule="evenodd" d="M10.648 183.27a1.73 1.73 0 1 0 .001-3.459 1.73 1.73 0 0 0 0 3.459zM21.35 183.27a1.73 1.73 0 1 0 .002-3.459 1.73 1.73 0 0 0-.001 3.459z" clip-rule="evenodd"/>
    <path fill="#FFCE00" fill-rule="evenodd" d="M157.297 182.405a15.15 15.15 0 0 0-.422-3.556 14.343 14.343 0 0 0-3.196-4.324 15.06 15.06 0 0 0-8.299-2.124c-8.353.305-14.878 7.323-14.574 15.676.045 1.222.235 2.405.55 3.533a14.364 14.364 0 0 0 2.588 3.504 15.057 15.057 0 0 0 8.218 2.426c8.359 0 15.135-6.776 15.135-15.135zm-7.927-2.594a1.73 1.73 0 1 1 0 3.458 1.73 1.73 0 0 1 0-3.458zm-10.703 3.459a1.73 1.73 0 1 1 0-3.46 1.73 1.73 0 0 1 0 3.46zm8.149 3.692a7.687 7.687 0 0 1 5.175 1.129l-.928 1.46a5.96 5.96 0 0 0-4.009-.876 6.002 6.002 0 0 0-4.847 4.05l-1.643-.538a7.739 7.739 0 0 1 6.252-5.225z" clip-rule="evenodd"/>
    <path fill="#FFB100" fill-rule="evenodd" d="M156.875 178.849c.275 1.141.422 2.331.422 3.557 0 8.358-6.776 15.134-15.135 15.134-3.03 0-5.852-.892-8.218-2.425A14.225 14.225 0 0 0 144 199.27c7.869 0 14.27-6.401 14.27-14.27 0-2.201-.501-4.288-1.395-6.151z" clip-rule="evenodd"/>
    <path fill="#FFE454" fill-rule="evenodd" d="M145.379 172.401c3.028-.11 5.879.678 8.3 2.124A14.216 14.216 0 0 0 144 170.73c-7.869 0-14.27 6.401-14.27 14.27 0 2.384.588 4.632 1.626 6.61a15.15 15.15 0 0 1-.55-3.533c-.305-8.353 6.22-15.371 14.573-15.676z" clip-rule="evenodd"/>
    <path fill="#000" fill-rule="evenodd" d="M144 169c-8.822 0-16 7.178-16 16s7.178 16 16 16 16-7.178 16-16-7.178-16-16-16zm0 30.27c-3.92 0-7.475-1.589-10.057-4.156a14.36 14.36 0 0 1-2.587-3.504 14.182 14.182 0 0 1-1.626-6.61c0-7.869 6.401-14.27 14.27-14.27 3.732 0 7.134 1.441 9.679 3.795a14.343 14.343 0 0 1 3.196 4.324A14.182 14.182 0 0 1 158.27 185c0 7.869-6.401 14.27-14.27 14.27z" clip-rule="evenodd"/>
    <path fill="#000" fill-rule="evenodd" d="M147.054 188.675a5.96 5.96 0 0 1 4.009.876l.927-1.46a7.69 7.69 0 0 0-5.174-1.129 7.741 7.741 0 0 0-6.253 5.225l1.644.538a6.001 6.001 0 0 1 4.847-4.05zM138.666 183.27a1.73 1.73 0 1 0 .002-3.458 1.73 1.73 0 0 0-.002 3.458zM149.37 183.27a1.729 1.729 0 1 0 0-3.458 1.729 1.729 0 0 0 0 3.458z" clip-rule="evenodd"/>
    <path fill="#FFCE00" fill-rule="evenodd" d="M217.579 191.138c-1.111-1.041-2.385-2.516-2.385-3.808 0-1.073.451-1.74.829-2.111a2.619 2.619 0 0 1 1.843-.747c.623 0 1.25.225 1.731.667.339-.311.75-.512 1.181-.606.211-1.009.322-2.055.322-3.127 0-1.226-.146-2.416-.419-3.557a14.343 14.343 0 0 0-3.174-4.324 14.886 14.886 0 0 0-8.244-2.124c-8.298.305-14.779 7.323-14.476 15.676.044 1.222.233 2.405.546 3.533a14.347 14.347 0 0 0 2.57 3.504 14.888 14.888 0 0 0 8.164 2.426c4.621 0 8.754-2.099 11.512-5.402zm-2.71-11.94c1.18 0 2.254.589 2.872 1.575l-1.454.923a1.655 1.655 0 0 0-1.418-.768c-.587 0-1.117.287-1.418.768l-1.454-.923a3.363 3.363 0 0 1 2.872-1.575zm-4.435 12.106a.943.943 0 0 0 .947-.954.943.943 0 0 0-.947-.955v-1.745a.943.943 0 0 0 .947-.955.943.943 0 0 0-.947-.954v-1.73c1.396 0 2.683 1.204 2.683 2.684 0 .706-.279 1.348-.733 1.828.454.479.729 1.121.729 1.827 0 1.479-1.283 2.684-2.679 2.684v-1.73zm-6.079-9.142a1.723 1.723 0 0 1-1.718-1.729c0-.956.769-1.73 1.718-1.73s1.718.774 1.718 1.73c0 .955-.769 1.729-1.718 1.729zM219.598 187.243h-.002l.001.033.001-.033z" clip-rule="evenodd"/>
    <path fill="#FFB100" fill-rule="evenodd" d="M220.779 184.533a2.618 2.618 0 0 1 1.277.039 14.265 14.265 0 0 0-1.374-6.723c.273 1.141.419 2.331.419 3.557 0 1.072-.111 2.118-.322 3.127zM217.58 191.138c-2.758 3.303-6.892 5.403-11.513 5.403-3.01 0-5.813-.892-8.163-2.426 2.564 2.567 6.095 4.155 9.989 4.155 4.643 0 8.772-2.259 11.358-5.743l-.166-.124a18.412 18.412 0 0 1-1.505-1.265z" clip-rule="evenodd"/>
    <path fill="#FFE454" fill-rule="evenodd" d="M209.264 171.401c3.007-.11 5.84.678 8.244 2.124a14.07 14.07 0 0 0-9.615-3.795c-7.815 0-14.174 6.401-14.174 14.27 0 2.384.584 4.632 1.615 6.61a15.246 15.246 0 0 1-.546-3.533c-.302-8.353 6.179-15.371 14.476-15.676z" clip-rule="evenodd"/>
    <path fill="#000" fill-rule="evenodd" d="M213.118 190.35c0-.706-.28-1.348-.733-1.827.453-.48.729-1.122.729-1.828 0-1.48-1.284-2.684-2.68-2.684v1.73c.537 0 .948.428.948.954a.943.943 0 0 1-.948.955v1.745c.537 0 .948.428.948.955a.943.943 0 0 1-.948.954v1.73c1.396 0 2.684-1.204 2.684-2.684z" clip-rule="evenodd"/>
    <path fill="#E36600" fill-rule="evenodd" d="M221.328 186.184c-.205 0-.872.086-.872 1.059h-.858l-.001.033-.001-.033h-.858c0-.973-.667-1.058-.872-1.058-.44 0-.954.304-.954 1.137 0 .566 1.059 1.965 2.685 3.288 1.626-1.323 2.685-2.716 2.685-3.282 0-.833-.514-1.144-.954-1.144z" clip-rule="evenodd"/>
    <path fill="#000" fill-rule="evenodd" d="M223.673 185.9a16.32 16.32 0 0 0 .112-1.9c0-8.822-7.129-16-15.892-16S192 175.178 192 184s7.13 16 15.893 16c6.589 0 12.255-4.059 14.66-9.823.785-.89 1.447-1.916 1.447-2.847a3.07 3.07 0 0 0-.327-1.43zm-15.779 12.37c-3.894 0-7.425-1.589-9.989-4.155A14.272 14.272 0 0 1 193.719 184c0-7.869 6.359-14.27 14.175-14.27 3.707 0 7.086 1.441 9.614 3.795a14.343 14.343 0 0 1 3.174 4.324 14.262 14.262 0 0 1 1.374 6.723 2.67 2.67 0 0 0-.727-.101 2.62 2.62 0 0 0-.55.062 2.533 2.533 0 0 0-1.181.606 2.558 2.558 0 0 0-1.73-.668c-.696 0-1.351.266-1.843.748-.378.371-.829 1.038-.829 2.111 0 1.292 1.274 2.767 2.384 3.807a18.629 18.629 0 0 0 1.506 1.266l.166.124c-2.586 3.484-6.715 5.743-11.358 5.743zm11.703-7.66c-1.626-1.323-2.685-2.722-2.685-3.288 0-.833.514-1.137.954-1.137.205 0 .872.085.872 1.058h1.718c0-.973.667-1.059.871-1.059.441 0 .954.311.954 1.144 0 .566-1.058 1.959-2.684 3.282z" clip-rule="evenodd"/>
    <path fill="#000" fill-rule="evenodd" d="M204.356 182.162c.949 0 1.718-.774 1.718-1.729 0-.956-.769-1.73-1.718-1.73s-1.719.774-1.719 1.73c0 .955.77 1.729 1.719 1.729zM214.87 180.928c.587 0 1.117.287 1.419.768l1.453-.923a3.364 3.364 0 0 0-2.872-1.575 3.365 3.365 0 0 0-2.872 1.575l1.454.923a1.655 1.655 0 0 1 1.418-.768z" clip-rule="evenodd"/>
    <path fill="#FFCE00" fill-rule="evenodd" d="M75.31 194.395a8.886 8.886 0 0 1-4.206-7.557h17.791a8.886 8.886 0 0 1-4.204 7.557 4.81 4.81 0 0 1-.857 2.046c5.548-2.245 9.463-7.683 9.463-14.035 0-1.226-.147-2.416-.422-3.557a14.344 14.344 0 0 0-3.196-4.324 15.063 15.063 0 0 0-8.3-2.124c-8.353.305-14.877 7.323-14.573 15.676.045 1.222.235 2.405.55 3.533a14.37 14.37 0 0 0 2.588 3.505 15.052 15.052 0 0 0 7.298 2.397 4.813 4.813 0 0 1-1.933-3.117zm9.111-15.725l1.223 1.223-1.94 1.94 1.94 1.939-1.223 1.223-3.162-3.163 3.162-3.162zm-10.065 1.223l1.223-1.223 3.162 3.163-3.162 3.162-1.223-1.223 1.94-1.939-1.94-1.94z" clip-rule="evenodd"/>
    <path fill="#FFB100" fill-rule="evenodd" d="M92.875 178.849c.275 1.141.422 2.331.422 3.557 0 6.353-3.915 11.79-9.463 14.035A4.739 4.739 0 0 1 80 198.405a4.695 4.695 0 0 1-2.758-.893 15.042 15.042 0 0 1-7.299-2.398A14.225 14.225 0 0 0 80 199.27c7.868 0 14.27-6.401 14.27-14.27 0-2.201-.501-4.288-1.395-6.151z" clip-rule="evenodd"/>
    <path fill="#FFE454" fill-rule="evenodd" d="M81.38 172.401c3.027-.11 5.878.678 8.299 2.124a14.215 14.215 0 0 0-9.68-3.795c-7.868 0-14.27 6.401-14.27 14.27 0 2.384.589 4.632 1.627 6.61a15.166 15.166 0 0 1-.55-3.533c-.305-8.353 6.22-15.372 14.573-15.676z" clip-rule="evenodd"/>
    <path fill="#000" fill-rule="evenodd" d="M80 169c-8.822 0-16 7.178-16 16s7.178 16 16 16 16-7.178 16-16-7.178-16-16-16zm0 30.27c-3.92 0-7.475-1.589-10.057-4.156a14.349 14.349 0 0 1-2.587-3.504A14.184 14.184 0 0 1 65.73 185c0-7.869 6.401-14.27 14.27-14.27 3.732 0 7.134 1.441 9.68 3.795a14.342 14.342 0 0 1 3.195 4.324A14.181 14.181 0 0 1 94.27 185c0 7.869-6.402 14.27-14.27 14.27z" clip-rule="evenodd"/>
    <path fill="#000" fill-rule="evenodd" d="M75.579 184.995l3.162-3.163-3.162-3.162-1.223 1.223 1.94 1.939-1.94 1.94 1.223 1.223zM85.644 183.772l-1.94-1.94 1.94-1.939-1.223-1.223-3.163 3.162 3.163 3.163 1.223-1.223z" clip-rule="evenodd"/>
    <path fill="#fff" fill-rule="evenodd" d="M75.207 192.194v-1.789h9.513v1.773a7.052 7.052 0 0 0 2.216-3.611H73.045c.354 1.425 1.189 2.681 2.162 3.627z" clip-rule="evenodd"/>
    <path fill="#000" fill-rule="evenodd" d="M88.895 186.838h-17.79a8.889 8.889 0 0 0 4.204 7.557 4.816 4.816 0 0 0 1.933 3.117c.779.561 1.73.893 2.758.893a4.737 4.737 0 0 0 3.834-1.965 4.8 4.8 0 0 0 .857-2.045 8.889 8.889 0 0 0 4.204-7.557zm-8.931 9.838c-1.698 0-3.027-1.35-3.027-3.074v-1.467h6.054v1.467c0 1.724-1.33 3.074-3.027 3.074zm6.955-8.109h.018a7.053 7.053 0 0 1-2.216 3.611v-1.773h-9.514v1.789c-.973-.946-1.807-2.202-2.162-3.627H86.92z" clip-rule="evenodd"/>
    <path fill="#E36600" fill-rule="evenodd" d="M82.992 193.602v-1.467h-6.054v1.467c0 1.724 1.33 3.074 3.027 3.074s3.027-1.35 3.027-3.074z" clip-rule="evenodd"/>
    <path fill="#FFCE00" fill-rule="evenodd" d="M285.297 238.406c0-1.226-.147-2.416-.422-3.557a14.357 14.357 0 0 0-3.195-4.324 15.064 15.064 0 0 0-8.3-2.124c-8.353.305-14.878 7.323-14.574 15.677.045 1.222.235 2.404.55 3.532a14.37 14.37 0 0 0 2.588 3.505 15.06 15.06 0 0 0 8.219 2.426c8.358 0 15.134-6.777 15.134-15.135zm-8.875-3.628l1.223 1.224-1.94 1.939 1.94 1.939-1.224 1.223-3.162-3.162 3.163-3.163zm-10.066 1.224l1.223-1.224 3.163 3.163-3.163 3.162-1.223-1.223 1.94-1.939-1.94-1.939zm-3.251 6.836h17.791a8.895 8.895 0 0 1-8.896 8.895 8.895 8.895 0 0 1-8.895-8.895z" clip-rule="evenodd"/>
    <path fill="#FFB100" fill-rule="evenodd" d="M284.875 234.849c.275 1.141.422 2.331.422 3.557 0 8.358-6.776 15.135-15.135 15.135-3.03 0-5.852-.892-8.218-2.426A14.223 14.223 0 0 0 272 255.27c7.869 0 14.27-6.401 14.27-14.27 0-2.201-.501-4.287-1.395-6.151z" clip-rule="evenodd"/>
    <path fill="#FFE454" fill-rule="evenodd" d="M273.38 228.401a15.06 15.06 0 0 1 8.299 2.124A14.214 14.214 0 0 0 272 226.73c-7.869 0-14.27 6.402-14.27 14.27 0 2.384.588 4.632 1.626 6.61a15.203 15.203 0 0 1-.55-3.533c-.304-8.353 6.22-15.371 14.574-15.676z" clip-rule="evenodd"/>
    <path fill="#000" fill-rule="evenodd" d="M272 225c-8.822 0-16 7.178-16 16s7.178 16 16 16 16-7.178 16-16-7.177-16-16-16zm0 30.27a14.227 14.227 0 0 1-10.056-4.155 14.388 14.388 0 0 1-2.588-3.505 14.182 14.182 0 0 1-1.626-6.61c0-7.868 6.402-14.27 14.27-14.27 3.732 0 7.134 1.441 9.679 3.795a14.343 14.343 0 0 1 3.196 4.324A14.182 14.182 0 0 1 286.27 241c0 7.869-6.401 14.27-14.27 14.27z" clip-rule="evenodd"/>
    <path fill="#000" fill-rule="evenodd" d="M267.579 241.103l3.163-3.162-3.163-3.163-1.223 1.223 1.94 1.94-1.94 1.939 1.223 1.223zM277.644 239.88l-1.939-1.939 1.939-1.94-1.223-1.223-3.162 3.163 3.162 3.162 1.223-1.223z" clip-rule="evenodd"/>
    <path fill="#fff" fill-rule="evenodd" d="M271.991 250.003c3.355 0 6.17-2.317 6.946-5.436H265.045c.776 3.119 3.591 5.436 6.946 5.436z" clip-rule="evenodd"/>
    <path fill="#000" fill-rule="evenodd" d="M280.896 242.838h-17.791a8.895 8.895 0 0 0 8.895 8.895 8.895 8.895 0 0 0 8.896-8.895zm-1.977 1.729h.018c-.776 3.119-3.591 5.436-6.946 5.436-3.355 0-6.17-2.317-6.945-5.436h13.873z" clip-rule="evenodd"/>
    <path fill="#FFCE00" fill-rule="evenodd" d="M29.297 238.406c0-1.226-.147-2.416-.422-3.557a14.342 14.342 0 0 0-3.196-4.324 15.063 15.063 0 0 0-8.3-2.124c-8.353.305-14.877 7.323-14.573 15.677.045 1.222.235 2.404.55 3.532a14.351 14.351 0 0 0 2.588 3.505 15.06 15.06 0 0 0 8.218 2.426c8.359 0 15.135-6.777 15.135-15.135zm-20.81 5.729a3.117 3.117 0 1 1 .55-6.185 1.73 1.73 0 1 1 1.854 1.085c.445.539.712 1.23.712 1.983 0 .797-.3 1.524-.791 2.075A7.635 7.635 0 0 0 16 245.137a7.636 7.636 0 0 0 5.188-2.044 3.104 3.104 0 0 1-.792-2.075c0-.753.267-1.444.712-1.983a1.728 1.728 0 0 1 .243-3.44 1.73 1.73 0 0 1 1.611 2.355 3.117 3.117 0 1 1-.255 6.079A9.372 9.372 0 0 1 16 246.867a9.372 9.372 0 0 1-6.707-2.838 3.108 3.108 0 0 1-.807.106z" clip-rule="evenodd"/>
    <path fill="#FFB100" fill-rule="evenodd" d="M28.875 234.849c.275 1.141.422 2.331.422 3.557 0 8.358-6.776 15.135-15.135 15.135a15.06 15.06 0 0 1-8.219-2.426A14.224 14.224 0 0 0 16 255.27c7.869 0 14.27-6.401 14.27-14.27 0-2.201-.501-4.287-1.395-6.151z" clip-rule="evenodd"/>
    <path fill="#FFE454" fill-rule="evenodd" d="M17.38 228.401c3.027-.11 5.878.678 8.299 2.124a14.215 14.215 0 0 0-9.68-3.795c-7.868 0-14.27 6.402-14.27 14.27 0 2.384.589 4.632 1.627 6.61a15.166 15.166 0 0 1-.55-3.533c-.305-8.353 6.22-15.371 14.573-15.676z" clip-rule="evenodd"/>
    <path fill="#000" fill-rule="evenodd" d="M16 225c-8.822 0-16 7.178-16 16s7.178 16 16 16 16-7.178 16-16-7.178-16-16-16zm0 30.27c-3.92 0-7.475-1.589-10.057-4.155a14.373 14.373 0 0 1-2.587-3.505A14.185 14.185 0 0 1 1.73 241c0-7.868 6.401-14.27 14.27-14.27 3.732 0 7.134 1.441 9.68 3.795a14.343 14.343 0 0 1 3.195 4.324A14.181 14.181 0 0 1 30.27 241c0 7.869-6.402 14.27-14.27 14.27z" clip-rule="evenodd"/>
    <path fill="#000" fill-rule="evenodd" d="M22.707 244.029a3.118 3.118 0 0 1-1.52-.936A7.635 7.635 0 0 1 16 245.137a7.635 7.635 0 0 1-5.188-2.044 3.118 3.118 0 0 1-1.519.936A9.372 9.372 0 0 0 16 246.867a9.372 9.372 0 0 0 6.708-2.838z" clip-rule="evenodd"/>
    <path fill="#FF9E00" fill-rule="evenodd" d="M10.812 243.093a3.104 3.104 0 0 0 .791-2.075c0-.753-.267-1.444-.711-1.983a1.728 1.728 0 0 1-1.854-1.085 3.117 3.117 0 1 0 1.774 5.143zM22.707 244.029a3.117 3.117 0 1 0 .255-6.079 1.728 1.728 0 0 1-1.854 1.085 3.106 3.106 0 0 0-.712 1.983c0 .797.3 1.524.792 2.075a3.11 3.11 0 0 0 1.519.936z" clip-rule="evenodd"/>
    <path fill="#000" fill-rule="evenodd" d="M10.648 239.054a1.728 1.728 0 0 0 0-3.459 1.73 1.73 0 1 0 0 3.459zM22.962 237.95a1.73 1.73 0 1 0 0 0z" clip-rule="evenodd"/>
    <path fill="#FFCE00" fill-rule="evenodd" d="M93.297 238.406c0-1.226-.147-2.416-.422-3.557a14.342 14.342 0 0 0-3.196-4.324 15.063 15.063 0 0 0-8.3-2.124c-8.353.305-14.877 7.323-14.573 15.677.045 1.222.235 2.404.55 3.532a14.351 14.351 0 0 0 2.588 3.505 15.06 15.06 0 0 0 8.218 2.426c8.359 0 15.135-6.777 15.135-15.135zm-7.946-2.703a1.73 1.73 0 1 1 0 3.46 1.73 1.73 0 0 1 0-3.46zm-10.702 0a1.73 1.73 0 1 1 0 3.459 1.73 1.73 0 0 1 0-3.459zm-.776 11.427l-2.545-2.544 2.544-2.545a3.59 3.59 0 0 1 2.545-1.054 3.59 3.59 0 0 1 2.544 1.054c.62.62.966 1.41 1.039 2.219a3.585 3.585 0 0 1 1.039-2.219 3.59 3.59 0 0 1 2.544-1.054c.92 0 1.842.352 2.544 1.054l2.545 2.545-2.545 2.544a3.59 3.59 0 0 1-2.544 1.054 3.59 3.59 0 0 1-2.544-1.054 3.582 3.582 0 0 1-1.04-2.219 3.584 3.584 0 0 1-1.038 2.219 3.59 3.59 0 0 1-2.544 1.054 3.59 3.59 0 0 1-2.544-1.054z" clip-rule="evenodd"/>
    <path fill="#FFB100" fill-rule="evenodd" d="M92.875 234.849c.275 1.141.422 2.331.422 3.557 0 8.358-6.776 15.135-15.135 15.135-3.03 0-5.852-.892-8.219-2.426A14.224 14.224 0 0 0 80 255.27c7.868 0 14.27-6.401 14.27-14.27 0-2.201-.501-4.287-1.395-6.151z" clip-rule="evenodd"/>
    <path fill="#FFE454" fill-rule="evenodd" d="M81.38 228.401c3.027-.11 5.878.678 8.299 2.124a14.215 14.215 0 0 0-9.68-3.795c-7.868 0-14.27 6.402-14.27 14.27 0 2.384.589 4.632 1.627 6.61a15.161 15.161 0 0 1-.55-3.533c-.305-8.353 6.22-15.371 14.573-15.676z" clip-rule="evenodd"/>
    <path fill="#000" fill-rule="evenodd" d="M80 225c-8.822 0-16 7.178-16 16s7.178 16 16 16 16-7.178 16-16-7.178-16-16-16zm0 30.27c-3.92 0-7.475-1.589-10.057-4.155a14.373 14.373 0 0 1-2.587-3.505A14.184 14.184 0 0 1 65.73 241c0-7.868 6.401-14.27 14.27-14.27 3.732 0 7.134 1.441 9.68 3.795a14.342 14.342 0 0 1 3.195 4.324A14.181 14.181 0 0 1 94.27 241c0 7.869-6.402 14.27-14.27 14.27z" clip-rule="evenodd"/>
    <path fill="#000" fill-rule="evenodd" d="M80 244.911c.073.81.419 1.599 1.039 2.219a3.59 3.59 0 0 0 2.544 1.054 3.59 3.59 0 0 0 2.544-1.054l2.545-2.544-2.544-2.545a3.59 3.59 0 0 0-2.545-1.054 3.59 3.59 0 0 0-2.544 1.054c-.62.62-.966 1.41-1.039 2.219a3.586 3.586 0 0 0-1.039-2.219 3.59 3.59 0 0 0-2.544-1.054 3.59 3.59 0 0 0-2.544 1.054l-2.545 2.545 2.545 2.544a3.59 3.59 0 0 0 2.544 1.054 3.59 3.59 0 0 0 2.544-1.054c.62-.62.966-1.409 1.039-2.219zM74.648 239.162a1.73 1.73 0 1 0 0-3.459 1.73 1.73 0 0 0 0 3.459zM85.35 239.162a1.73 1.73 0 1 0 .001-3.46 1.73 1.73 0 0 0 0 3.46z" clip-rule="evenodd"/>
    <path fill="#FFCE00" fill-rule="evenodd" d="M157.297 238.406c0-1.226-.147-2.416-.422-3.557a14.343 14.343 0 0 0-3.196-4.324 15.06 15.06 0 0 0-8.299-2.124c-8.353.305-14.878 7.323-14.574 15.677.045 1.222.235 2.404.55 3.532a14.37 14.37 0 0 0 2.588 3.505 15.057 15.057 0 0 0 8.218 2.426c8.359 0 15.135-6.777 15.135-15.135zm-7.946-2.703a1.73 1.73 0 1 1 .001 3.459 1.73 1.73 0 0 1-.001-3.459zm-10.702 0a1.73 1.73 0 1 1 0 3.458 1.73 1.73 0 0 1 0-3.458zm-2.074 13.265c-3.242-1.914-3.278-4.472-3.278-4.472s.682.385 1.659.385c.115 0 .234-.005.357-.017.802-.078 1.752-.626 2.56-1.201.907-.646 1.837-.999 2.734-.999h.006v-.042.042c.865.006 1.653.322 2.33.999a3.7 3.7 0 0 1 1.048 2.07 3.698 3.698 0 0 1 1.043-2.07c.683-.683 1.49-.999 2.339-.999.897 0 1.846.353 2.753.999.808.575 1.758 1.123 2.561 1.201.122.012.242.017.357.017.977 0 1.659-.385 1.659-.385s-.036 2.558-3.278 4.472c-1.069.615-2.207.946-3.29.946-1.142 0-2.223-.369-3.096-1.163a3.283 3.283 0 0 1-1.039-1.962 3.283 3.283 0 0 1-1.039 1.962c-.872.794-1.954 1.163-3.096 1.163-1.083 0-2.221-.331-3.29-.946z" clip-rule="evenodd"/>
    <path fill="#FFB100" fill-rule="evenodd" d="M156.875 234.849c.275 1.141.422 2.331.422 3.557 0 8.358-6.776 15.135-15.135 15.135-3.03 0-5.852-.892-8.218-2.426A14.223 14.223 0 0 0 144 255.27c7.869 0 14.27-6.401 14.27-14.27 0-2.201-.501-4.287-1.395-6.151z" clip-rule="evenodd"/>
    <path fill="#FFE454" fill-rule="evenodd" d="M145.379 228.401c3.028-.11 5.879.678 8.3 2.124A14.216 14.216 0 0 0 144 226.73c-7.869 0-14.27 6.402-14.27 14.27 0 2.384.588 4.632 1.626 6.61a15.098 15.098 0 0 1-.55-3.533c-.305-8.353 6.22-15.371 14.573-15.676z" clip-rule="evenodd"/>
    <path fill="#000" fill-rule="evenodd" d="M144 225c-8.822 0-16 7.178-16 16s7.178 16 16 16 16-7.178 16-16-7.178-16-16-16zm0 30.27c-3.92 0-7.475-1.589-10.056-4.155a14.362 14.362 0 0 1-2.588-3.505 14.182 14.182 0 0 1-1.626-6.61c0-7.868 6.401-14.27 14.27-14.27 3.732 0 7.134 1.441 9.679 3.795a14.343 14.343 0 0 1 3.196 4.324A14.182 14.182 0 0 1 158.27 241c0 7.869-6.401 14.27-14.27 14.27z" clip-rule="evenodd"/>
    <path fill="#000" fill-rule="evenodd" d="M138.648 239.162a1.73 1.73 0 1 0 .001-3.459 1.73 1.73 0 0 0-.001 3.459zM149.351 239.162a1.73 1.73 0 1 0 0-3.46 1.73 1.73 0 0 0 0 3.46zM144 246.789c.11.733.451 1.428 1.039 1.962.872.794 1.954 1.163 3.096 1.163 1.083 0 2.221-.331 3.29-.946 3.241-1.914 3.278-4.472 3.278-4.472s-.682.385-1.659.385a3.67 3.67 0 0 1-.357-.017c-.802-.078-1.752-.627-2.56-1.201-.908-.646-1.855-.999-2.752-.999-.849 0-1.653.316-2.336.999a3.686 3.686 0 0 0-1.039 2.07 3.686 3.686 0 0 0-1.039-2.07c-.677-.677-1.472-.993-2.312-.999h-.024c-.897 0-1.845.353-2.753.999-.807.574-1.757 1.123-2.56 1.201a3.635 3.635 0 0 1-.356.017c-.977 0-1.659-.385-1.659-.385s.036 2.558 3.278 4.472c1.069.615 2.207.946 3.289.946 1.143 0 2.224-.369 3.097-1.163a3.283 3.283 0 0 0 1.039-1.962z" clip-rule="evenodd"/>
    <path fill="#FFCE00" fill-rule="evenodd" d="M221.297 238.406c0-1.226-.147-2.416-.422-3.557a14.357 14.357 0 0 0-3.195-4.324 15.064 15.064 0 0 0-8.3-2.124c-8.353.305-14.878 7.323-14.574 15.676.045 1.222.235 2.405.55 3.533a14.388 14.388 0 0 0 2.588 3.505 15.068 15.068 0 0 0 8.219 2.425c8.358 0 15.134-6.776 15.134-15.134zm-7.945-2.703a1.73 1.73 0 1 1 0 3.458 1.73 1.73 0 0 1 0-3.458zm-10.703 3.459a1.73 1.73 0 1 1 0-3.46 1.73 1.73 0 0 1 0 3.46zm2.173 10.88l1.94-1.939-1.939-1.939 1.223-1.223 1.953 1.953 1.954-1.953 1.223 1.223-1.939 1.939 1.939 1.939-1.223 1.224-1.954-1.954-1.953 1.954-1.224-1.224z" clip-rule="evenodd"/>
    <path fill="#FFB100" fill-rule="evenodd" d="M220.875 234.849c.275 1.141.422 2.331.422 3.556 0 8.359-6.776 15.135-15.135 15.135-3.03 0-5.852-.892-8.218-2.426A14.224 14.224 0 0 0 208 255.27c7.869 0 14.27-6.401 14.27-14.27 0-2.201-.501-4.288-1.395-6.151z" clip-rule="evenodd"/>
    <path fill="#FFE454" fill-rule="evenodd" d="M209.38 228.401a15.06 15.06 0 0 1 8.299 2.124A14.214 14.214 0 0 0 208 226.73c-7.869 0-14.27 6.402-14.27 14.27 0 2.384.588 4.632 1.626 6.61a15.203 15.203 0 0 1-.55-3.533c-.304-8.353 6.22-15.371 14.574-15.676z" clip-rule="evenodd"/>
    <path fill="#000" fill-rule="evenodd" d="M208 225c-8.822 0-16 7.178-16 16s7.178 16 16 16 16-7.178 16-16-7.178-16-16-16zm0 30.27c-3.92 0-7.475-1.589-10.056-4.155a14.362 14.362 0 0 1-2.588-3.505 14.182 14.182 0 0 1-1.626-6.61c0-7.868 6.402-14.27 14.27-14.27 3.732 0 7.134 1.441 9.679 3.795a14.343 14.343 0 0 1 3.196 4.324A14.182 14.182 0 0 1 222.27 241c0 7.869-6.401 14.27-14.27 14.27z" clip-rule="evenodd"/>
    <path fill="#000" fill-rule="evenodd" d="M209.953 251.265l1.223-1.223-1.94-1.939 1.94-1.939-1.223-1.224-1.954 1.954-1.954-1.954-1.223 1.224 1.94 1.939-1.94 1.939 1.223 1.223 1.954-1.953 1.954 1.953zM202.648 239.162a1.73 1.73 0 1 0 .001-3.459 1.73 1.73 0 0 0-.001 3.459zM213.351 239.162a1.73 1.73 0 1 0 0-3.46 1.73 1.73 0 0 0 0 3.46z" clip-rule="evenodd"/>
    <path fill="#FFCE00" fill-rule="evenodd" d="M284.899 290.946l-.024-.097a14.343 14.343 0 0 0-3.196-4.324 15.062 15.062 0 0 0-8.3-2.124 15.115 15.115 0 0 0-11.917 6.545H284.899zM285.297 294.406c0-.586-.035-1.163-.1-1.73h-.908v2.519c0 2.934-2.401 5.321-5.352 5.321-2.951 0-5.351-2.397-5.351-5.343v-2.497h-3.352v2.519a5.321 5.321 0 0 1-4.198 5.2 3.374 3.374 0 0 1-.593 1.635c1.742 2.287 4.625 3.533 7.505 3.2a8.298 8.298 0 0 0 5.956-3.709l1.454.939c-1.599 2.475-4.293 4.153-7.208 4.489a9.793 9.793 0 0 1-1.12.064c-3.06 0-6.003-1.432-7.888-3.85a3.369 3.369 0 0 1-2.246.273l.383-1.687a1.67 1.67 0 0 0 1.552-.467 1.69 1.69 0 0 0 .441-.804c-2.656-.312-4.74-2.571-4.74-5.305v-.427a15.478 15.478 0 0 0-.744 5.332 15.2 15.2 0 0 0 .559 3.532 14.384 14.384 0 0 0 2.592 3.505 15.07 15.07 0 0 0 8.221 2.426c8.359-.001 15.137-6.777 15.137-15.135z" clip-rule="evenodd"/>
    <path fill="#FFB100" fill-rule="evenodd" d="M285.6 292.676h-.403c.065.567.1 1.144.1 1.73 0 8.358-6.776 15.134-15.135 15.134-3.03 0-5.852-.892-8.218-2.425A14.227 14.227 0 0 0 272 311.27c7.869 0 14.27-6.401 14.27-14.27 0-1.507-.235-2.96-.67-4.324zM284.92 290.946l-.045-.097.024.097h.021z" clip-rule="evenodd"/>
    <path fill="#FFE454" fill-rule="evenodd" d="M273.38 284.401c3.028-.11 5.879.678 8.3 2.124a14.218 14.218 0 0 0-9.68-3.795c-5.705 0-10.638 3.366-12.92 8.216h2.383a15.109 15.109 0 0 1 11.917-6.545zM259.531 294.746v-2.07H258.4a14.21 14.21 0 0 0-.67 4.324c0 2.384.588 4.633 1.626 6.61a15.205 15.205 0 0 1-.568-3.532 15.478 15.478 0 0 1 .743-5.332z" clip-rule="evenodd"/>
    <path fill="#000" fill-rule="evenodd" d="M272 281c-8.822 0-16 7.178-16 16s7.178 16 16 16 16-7.178 16-16-7.177-16-16-16zm0 30.27c-3.92 0-7.475-1.589-10.056-4.155a14.388 14.388 0 0 1-2.588-3.505 14.18 14.18 0 0 1-1.626-6.61c0-1.507.236-2.96.671-4.324h1.131v2.497c0 2.733 2.084 4.993 4.739 5.305-.073.296-.22.575-.449.804a1.663 1.663 0 0 1-1.548.467l-.38 1.687a3.367 3.367 0 0 0 2.247-.273 10.059 10.059 0 0 0 7.889 3.85c.372 0 .746-.021 1.121-.064 2.914-.337 5.609-2.015 7.208-4.489l-1.453-.939c-1.321 2.045-3.547 3.432-5.954 3.709-2.88.333-5.758-.913-7.5-3.2.342-.49.53-1.053.584-1.636a5.32 5.32 0 0 0 4.198-5.199v-2.52h3.352v2.497c0 2.947 2.4 5.344 5.351 5.344s5.351-2.387 5.351-5.321v-2.52h1.312a14.22 14.22 0 0 1 .67 4.325c0 7.869-6.401 14.27-14.27 14.27zm3.315-18.594h7.244v2.52c0 1.98-1.625 3.591-3.622 3.591a3.623 3.623 0 0 1-3.622-3.614v-2.497zm-16.235-1.73c2.282-4.85 7.215-8.216 12.92-8.216 3.732 0 7.134 1.441 9.679 3.795a14.343 14.343 0 0 1 3.196 4.324l.045.097h-25.84zm5.803 7.841a3.623 3.623 0 0 1-3.622-3.614v-2.497h7.244v2.52c0 1.98-1.625 3.591-3.622 3.591z" clip-rule="evenodd"/>
    <path fill="#FFE454" fill-rule="evenodd" d="M268.504 295.195v-2.519h-7.243v2.497a3.623 3.623 0 0 0 3.622 3.614c1.997 0 3.621-1.611 3.621-3.592zm-3.585 2.021a1.73 1.73 0 1 1-.002-3.458 1.73 1.73 0 0 1 .002 3.458z" clip-rule="evenodd"/>
    <path fill="#000" fill-rule="evenodd" d="M264.919 297.216a1.73 1.73 0 1 0 0-3.46 1.73 1.73 0 0 0 0 3.46z" clip-rule="evenodd"/>
    <path fill="#FFE454" fill-rule="evenodd" d="M278.937 298.787c1.997 0 3.622-1.611 3.622-3.592v-2.519h-7.244v2.497a3.623 3.623 0 0 0 3.622 3.614zm.036-5.03a1.73 1.73 0 1 1 0 3.46 1.73 1.73 0 0 1 0-3.46z" clip-rule="evenodd"/>
    <path fill="#000" fill-rule="evenodd" d="M278.973 297.216a1.73 1.73 0 1 0 .002-3.458 1.73 1.73 0 0 0-.002 3.458z" clip-rule="evenodd"/>
    <path fill="#FFCE00" fill-rule="evenodd" d="M29.278 295.162h-1.873a5.263 5.263 0 0 1-5.189 4.397 5.263 5.263 0 0 1-5.19-4.397h-2.053a5.263 5.263 0 0 1-5.19 4.397 5.263 5.263 0 0 1-5.189-4.397h-1.16a15.12 15.12 0 0 0-.628 4.916c.045 1.222.235 2.404.55 3.532a14.351 14.351 0 0 0 2.588 3.505 15.06 15.06 0 0 0 8.218 2.426c8.105 0 14.722-6.371 15.116-14.379zm-20.422 5.406h14.288A7.148 7.148 0 0 1 16 307.712a7.148 7.148 0 0 1-7.144-7.144zM25.68 286.525a15.063 15.063 0 0 0-8.3-2.124c-5.991.219-11.041 3.891-13.306 9.032h.52a5.263 5.263 0 0 1 5.19-4.397 5.263 5.263 0 0 1 5.189 4.397h2.054a5.263 5.263 0 0 1 5.189-4.397 5.263 5.263 0 0 1 5.19 4.397h1.86a15.085 15.085 0 0 0-.391-2.584 14.342 14.342 0 0 0-3.196-4.324z" clip-rule="evenodd"/>
    <path fill="#FFB100" fill-rule="evenodd" d="M30.152 295.162h-.874c-.394 8.007-7.011 14.379-15.116 14.379a15.06 15.06 0 0 1-8.219-2.426A14.224 14.224 0 0 0 16 311.27c7.868 0 14.27-6.401 14.27-14.27 0-.622-.04-1.236-.118-1.838zM28.875 290.849c.201.836.335 1.699.39 2.584h.553a14.139 14.139 0 0 0-.943-2.584z" clip-rule="evenodd"/>
    <path fill="#FFE454" fill-rule="evenodd" d="M17.38 284.401c3.027-.11 5.878.678 8.299 2.124a14.215 14.215 0 0 0-9.68-3.795c-6.636 0-12.23 4.555-13.818 10.703h1.892c2.265-5.141 7.315-8.813 13.306-9.032zM3.434 295.162H1.847A14.374 14.374 0 0 0 1.73 297c0 2.384.589 4.633 1.627 6.61a15.152 15.152 0 0 1-.55-3.532c-.063-1.71.162-3.364.628-4.916z" clip-rule="evenodd"/>
    <path fill="#000" fill-rule="evenodd" d="M16 281c-8.822 0-16 7.178-16 16s7.178 16 16 16 16-7.178 16-16-7.178-16-16-16zm0 30.27c-3.92 0-7.475-1.588-10.057-4.155a14.354 14.354 0 0 1-2.587-3.505A14.181 14.181 0 0 1 1.73 297c0-.623.04-1.236.118-1.838h2.747a5.262 5.262 0 0 0 5.188 4.397 5.263 5.263 0 0 0 5.19-4.397h2.054a5.263 5.263 0 0 0 5.189 4.397 5.263 5.263 0 0 0 5.19-4.397h2.746c.078.602.118 1.215.118 1.838 0 7.869-6.402 14.27-14.27 14.27zm13.266-17.837h-1.86a5.263 5.263 0 0 0-5.19-4.397 5.263 5.263 0 0 0-5.19 4.397h-2.053a5.263 5.263 0 0 0-5.19-4.397 5.263 5.263 0 0 0-5.189 4.397H2.181C3.77 287.285 9.363 282.73 16 282.73c3.732 0 7.134 1.441 9.68 3.795a14.343 14.343 0 0 1 3.195 4.324c.393.821.711 1.685.943 2.584h-.552zm-3.518.864a3.535 3.535 0 0 1-3.532 3.532 3.535 3.535 0 0 1-3.532-3.532 3.535 3.535 0 0 1 3.532-3.531 3.535 3.535 0 0 1 3.531 3.531zm-12.433 0a3.535 3.535 0 0 1-3.532 3.532 3.535 3.535 0 0 1-3.531-3.532 3.535 3.535 0 0 1 3.531-3.531 3.535 3.535 0 0 1 3.532 3.531z" clip-rule="evenodd"/>
    <path fill="#FFE454" fill-rule="evenodd" d="M9.783 290.766a3.535 3.535 0 0 0-3.531 3.532 3.535 3.535 0 0 0 3.531 3.531 3.535 3.535 0 0 0 3.532-3.531 3.535 3.535 0 0 0-3.532-3.532zm1.73 3.532a1.73 1.73 0 1 1-3.459 0 1.73 1.73 0 0 1 3.46 0zM22.216 290.766a3.535 3.535 0 0 0-3.531 3.532 3.535 3.535 0 0 0 3.531 3.531 3.535 3.535 0 0 0 3.532-3.531 3.535 3.535 0 0 0-3.532-3.532zm1.73 3.532a1.73 1.73 0 1 1-3.459 0 1.73 1.73 0 0 1 3.459 0z" clip-rule="evenodd"/>
    <path fill="#000" fill-rule="evenodd" d="M9.783 296.027a1.73 1.73 0 1 0 .001-3.459 1.73 1.73 0 0 0 0 3.459zM22.216 296.027a1.73 1.73 0 1 0 0-3.459 1.73 1.73 0 0 0 0 3.459z" clip-rule="evenodd"/>
    <path fill="#fff" fill-rule="evenodd" d="M15.987 305.982c2.381 0 4.396-1.545 5.119-3.685H10.869c.723 2.14 2.737 3.685 5.118 3.685z" clip-rule="evenodd"/>
    <path fill="#000" fill-rule="evenodd" d="M23.144 300.568H8.855A7.148 7.148 0 0 0 16 307.712a7.148 7.148 0 0 0 7.144-7.144zm-2.063 1.729h.025c-.724 2.14-2.738 3.685-5.119 3.685s-4.395-1.545-5.119-3.685h10.213z" clip-rule="evenodd"/>
    <path fill="#FFCE00" fill-rule="evenodd" d="M89.68 286.525a15.063 15.063 0 0 0-8.3-2.124 15.083 15.083 0 0 0-10.17 4.443 5.263 5.263 0 0 1 7.762 3.724h2.055a5.263 5.263 0 0 1 5.19-4.397 5.263 5.263 0 0 1 5.044 3.769l1.44-1.441a14.365 14.365 0 0 0-3.022-3.974zM93.297 294.406c0-.655-.042-1.3-.123-1.933l-1.757 1.756a5.269 5.269 0 0 1-3.66 4.235c-.347.317-.578.764-.578 1.239 0 .93.785 1.686 1.65 1.686v1.73c-.865 0-1.804-.409-2.428-1.063a11.603 11.603 0 0 1-6.41 1.907 11.67 11.67 0 0 1-6.494-1.947 3.437 3.437 0 0 1-2.506 1.103v-1.73c.973 0 1.701-.756 1.701-1.686 0-.451-.167-.874-.486-1.192l-.042-.046-.022-.033a5.265 5.265 0 0 1-3.56-4.203l-.595-.595a15.079 15.079 0 0 0-1.181 6.444c.044 1.222.234 2.404.55 3.532a14.352 14.352 0 0 0 2.587 3.505 15.06 15.06 0 0 0 8.219 2.426c8.359 0 15.135-6.777 15.135-15.135z" clip-rule="evenodd"/>
    <path fill="#FFCE00" fill-rule="evenodd" d="M80 302.233a9.922 9.922 0 0 0 5.575-1.694 3.372 3.372 0 0 1 .06-1.878 5.264 5.264 0 0 1-4.608-4.364h-2.054a5.264 5.264 0 0 1-4.693 4.373 3.34 3.34 0 0 1 .066 1.816A9.917 9.917 0 0 0 80 302.233z" clip-rule="evenodd"/>
    <path fill="#FFB100" fill-rule="evenodd" d="M93.44 292.206l-.266.267c.08.633.123 1.278.123 1.933 0 8.358-6.776 15.134-15.135 15.134-3.03 0-5.852-.892-8.219-2.425A14.228 14.228 0 0 0 80 311.27c7.868 0 14.27-6.401 14.27-14.27 0-1.681-.293-3.295-.83-4.794z" clip-rule="evenodd"/>
    <path fill="#FFE454" fill-rule="evenodd" d="M67.987 293.634l-1.428-1.428a14.205 14.205 0 0 0-.83 4.794c0 2.384.589 4.633 1.627 6.61a15.158 15.158 0 0 1-.55-3.532 15.08 15.08 0 0 1 1.181-6.444zM81.38 284.401c3.027-.11 5.879.678 8.299 2.124a14.215 14.215 0 0 0-9.68-3.795c-5.528 0-10.332 3.16-12.7 7.769l1.44 1.44a5.272 5.272 0 0 1 2.471-3.095 15.083 15.083 0 0 1 10.17-4.443z" clip-rule="evenodd"/>
    <path fill="#000" fill-rule="evenodd" d="M80 281c-8.822 0-16 7.178-16 16s7.178 16 16 16 16-7.178 16-16-7.178-16-16-16zm0 30.27c-3.92 0-7.475-1.588-10.057-4.155a14.354 14.354 0 0 1-2.587-3.505A14.18 14.18 0 0 1 65.73 297c0-1.681.293-3.295.83-4.794l1.427 1.428.595.595a5.266 5.266 0 0 0 3.562 4.203l.024.033.047.046c.319.318.477.741.477 1.192 0 .93-.728 1.686-1.701 1.686v1.73c.973 0 1.88-.426 2.51-1.103a11.656 11.656 0 0 0 6.49 1.947c2.31 0 4.498-.657 6.406-1.907.623.654 1.567 1.063 2.432 1.063v-1.73c-.865 0-1.65-.756-1.65-1.686 0-.475.222-.922.57-1.239a5.274 5.274 0 0 0 3.664-4.235l1.759-1.756.268-.267c.536 1.499.83 3.113.83 4.794 0 7.869-6.402 14.27-14.27 14.27zm11.261-19.33a5.263 5.263 0 0 0-5.045-3.769 5.263 5.263 0 0 0-5.19 4.397h-2.053a5.263 5.263 0 0 0-7.763-3.724 5.273 5.273 0 0 0-2.471 3.096l-1.44-1.44c2.368-4.61 7.172-7.77 12.7-7.77 3.733 0 7.135 1.441 9.68 3.795a14.361 14.361 0 0 1 3.022 3.974l-1.44 1.441zm-21.009 1.493a3.535 3.535 0 0 1 3.532-3.532 3.535 3.535 0 0 1 3.531 3.532 3.535 3.535 0 0 1-3.531 3.531 3.535 3.535 0 0 1-3.532-3.531zm4.028 5.237a5.263 5.263 0 0 0 4.693-4.373h2.054a5.263 5.263 0 0 0 4.608 4.364 3.372 3.372 0 0 0-.06 1.878A9.922 9.922 0 0 1 80 302.233a9.915 9.915 0 0 1-5.654-1.747 3.34 3.34 0 0 0-.066-1.816zm11.936-1.706a3.535 3.535 0 0 1-3.532-3.531 3.536 3.536 0 0 1 3.532-3.532 3.535 3.535 0 0 1 3.532 3.532 3.535 3.535 0 0 1-3.532 3.531z" clip-rule="evenodd"/>
    <path fill="#fff" fill-rule="evenodd" d="M77.315 293.433a3.535 3.535 0 0 0-3.531-3.532 3.536 3.536 0 0 0-3.532 3.532 3.535 3.535 0 0 0 3.532 3.531 3.535 3.535 0 0 0 3.531-3.531zm-5.261 0a1.73 1.73 0 1 1 3.459 0 1.73 1.73 0 0 1-3.46 0zM89.747 293.433a3.535 3.535 0 0 0-3.531-3.532 3.535 3.535 0 0 0-3.532 3.532 3.535 3.535 0 0 0 3.532 3.531 3.535 3.535 0 0 0 3.531-3.531zm-5.261 0a1.73 1.73 0 1 1 3.46 0 1.73 1.73 0 0 1-3.46 0z" clip-rule="evenodd"/>
    <path fill="#000" fill-rule="evenodd" d="M73.784 295.162a1.73 1.73 0 1 0 0-3.459 1.73 1.73 0 0 0 0 3.459zM86.216 295.162a1.73 1.73 0 1 0 .001-3.459 1.73 1.73 0 0 0 0 3.459z" clip-rule="evenodd"/>
    <path fill="#FFCE00" fill-rule="evenodd" d="M157.297 294.406c0-1.226-.147-2.416-.422-3.557a14.343 14.343 0 0 0-3.196-4.324 15.06 15.06 0 0 0-8.299-2.124c-8.353.305-14.878 7.323-14.574 15.677.045 1.222.235 2.404.55 3.532a14.37 14.37 0 0 0 2.588 3.505 15.057 15.057 0 0 0 8.218 2.426c8.359 0 15.135-6.777 15.135-15.135zm-7.945-2.595a1.73 1.73 0 1 1-.001 3.46 1.73 1.73 0 0 1 .001-3.46zm-10.703 0a1.73 1.73 0 1 1-.001 3.461 1.73 1.73 0 0 1 .001-3.461zm1.423 11.135v-1.513h-4.216v1.513h-1.73v-4.757h1.73v1.514h4.216v-1.514h1.73v1.514h4.216v-1.514h1.73v1.514h4.216v-1.514h1.73v4.757h-1.73v-1.513h-4.216v1.513h-1.73v-1.513h-4.216v1.513h-1.73z" clip-rule="evenodd"/>
    <path fill="#FFB100" fill-rule="evenodd" d="M156.875 290.849c.275 1.141.422 2.331.422 3.557 0 8.358-6.776 15.135-15.135 15.135-3.03 0-5.852-.892-8.218-2.426A14.223 14.223 0 0 0 144 311.27c7.869 0 14.27-6.401 14.27-14.27 0-2.201-.501-4.287-1.395-6.151z" clip-rule="evenodd"/>
    <path fill="#FFE454" fill-rule="evenodd" d="M145.379 284.401c3.028-.11 5.879.678 8.3 2.124A14.216 14.216 0 0 0 144 282.73c-7.869 0-14.27 6.402-14.27 14.27 0 2.384.588 4.633 1.626 6.61a15.09 15.09 0 0 1-.55-3.533c-.305-8.353 6.22-15.371 14.573-15.676z" clip-rule="evenodd"/>
    <path fill="#000" fill-rule="evenodd" d="M144 281c-8.822 0-16 7.178-16 16s7.178 16 16 16 16-7.178 16-16-7.178-16-16-16zm0 30.27c-3.92 0-7.475-1.588-10.056-4.155a14.362 14.362 0 0 1-2.588-3.505 14.18 14.18 0 0 1-1.626-6.61c0-7.868 6.401-14.27 14.27-14.27 3.732 0 7.134 1.441 9.679 3.795a14.343 14.343 0 0 1 3.196 4.324A14.185 14.185 0 0 1 158.27 297c0 7.869-6.401 14.27-14.27 14.27z" clip-rule="evenodd"/>
    <path fill="#000" fill-rule="evenodd" d="M138.649 295.27a1.73 1.73 0 1 0 0-3.46 1.73 1.73 0 0 0 0 3.46zM149.352 295.27a1.729 1.729 0 1 0 0-3.458 1.729 1.729 0 0 0 0 3.458zM146.018 301.433v1.513h1.73v-1.513h4.216v1.513h1.73v-4.757h-1.73v1.514h-4.216v-1.514h-1.73v1.514h-4.216v-1.514h-1.73v1.514h-4.216v-1.514h-1.73v4.757h1.73v-1.513h4.216v1.513h1.73v-1.513h4.216z" clip-rule="evenodd"/>
    <path fill="#FFCE00" fill-rule="evenodd" d="M221.297 294.406c0-1.226-.147-2.416-.422-3.557a14.357 14.357 0 0 0-3.195-4.324 15.064 15.064 0 0 0-8.3-2.124c-8.353.305-14.878 7.323-14.574 15.676.045 1.223.235 2.405.55 3.533a14.37 14.37 0 0 0 2.588 3.505 15.06 15.06 0 0 0 8.219 2.426c8.358 0 15.134-6.777 15.134-15.135zm-7.927-2.703a1.73 1.73 0 1 1 0 3.46 1.73 1.73 0 0 1 0-3.46zm-10.703 0a1.73 1.73 0 1 1 0 3.46 1.73 1.73 0 0 1 0-3.46zm-1.157 12.583l-1.366-1.061c2.318-2.982 6.204-4.408 9.901-3.636a9.956 9.956 0 0 1 5.812 3.636l-1.366 1.061a8.223 8.223 0 0 0-4.8-3.004 8.28 8.28 0 0 0-8.181 3.004z" clip-rule="evenodd"/>
    <path fill="#FFB100" fill-rule="evenodd" d="M220.875 290.849c.275 1.141.422 2.331.422 3.557 0 8.358-6.776 15.134-15.135 15.134-3.03 0-5.852-.892-8.218-2.425A14.227 14.227 0 0 0 208 311.27c7.869 0 14.27-6.401 14.27-14.27 0-2.201-.501-4.288-1.395-6.151z" clip-rule="evenodd"/>
    <path fill="#FFE454" fill-rule="evenodd" d="M209.38 284.401a15.06 15.06 0 0 1 8.299 2.124A14.214 14.214 0 0 0 208 282.73c-7.869 0-14.27 6.402-14.27 14.27 0 2.384.588 4.633 1.626 6.61a15.195 15.195 0 0 1-.55-3.533c-.304-8.353 6.22-15.371 14.574-15.676z" clip-rule="evenodd"/>
    <path fill="#000" fill-rule="evenodd" d="M208 281c-8.822 0-16 7.178-16 16s7.178 16 16 16 16-7.178 16-16-7.178-16-16-16zm0 30.27c-3.92 0-7.475-1.588-10.056-4.155a14.362 14.362 0 0 1-2.588-3.505 14.18 14.18 0 0 1-1.626-6.61c0-7.868 6.402-14.27 14.27-14.27 3.732 0 7.134 1.441 9.679 3.795a14.343 14.343 0 0 1 3.196 4.324A14.185 14.185 0 0 1 222.27 297c0 7.869-6.401 14.27-14.27 14.27z" clip-rule="evenodd"/>
    <path fill="#000" fill-rule="evenodd" d="M209.691 301.282a8.223 8.223 0 0 1 4.8 3.005l1.366-1.062a9.956 9.956 0 0 0-5.812-3.636c-3.697-.772-7.583.654-9.901 3.636l1.366 1.062a8.279 8.279 0 0 1 8.181-3.005zM202.667 295.162a1.73 1.73 0 1 0 0-3.46 1.73 1.73 0 0 0 0 3.46zM213.37 295.162a1.729 1.729 0 1 0 0-3.458 1.729 1.729 0 0 0 0 3.458z" clip-rule="evenodd"/>
</svg>
