<svg xmlns="http://www.w3.org/2000/svg" width="32" height="32" fill="none" viewBox="0 0 32 32">
    <path fill="#FFCE00" fill-rule="evenodd" d="M29.298 13.405a15.16 15.16 0 0 0-.422-3.556 14.345 14.345 0 0 0-3.196-4.324 15.06 15.06 0 0 0-8.3-2.124c-8.353.304-14.877 7.323-14.573 15.676.045 1.222.235 2.405.55 3.533a14.345 14.345 0 0 0 2.588 3.505 15.06 15.06 0 0 0 8.218 2.426c8.36 0 15.135-6.777 15.135-15.136zm-7.82-2.702a1.73 1.73 0 1 1 0 3.46 1.73 1.73 0 0 1 0-3.46zm-10.704 0a1.73 1.73 0 1 1 0 3.46 1.73 1.73 0 0 1 0-3.46zM7.64 20.312l1.453-.939c1.322 2.045 3.547 3.431 5.954 3.709a8.288 8.288 0 0 0 7.859-3.709l1.453.939c-1.837 2.841-5.044 4.553-8.39 4.553-.373 0-.746-.021-1.12-.065-2.915-.336-5.61-2.014-7.209-4.488z" clip-rule="evenodd"/>
    <path fill="#FFB100" fill-rule="evenodd" d="M28.875 9.849a15.16 15.16 0 0 1 .422 3.556c0 8.36-6.776 15.136-15.135 15.136a15.06 15.06 0 0 1-8.219-2.427A14.225 14.225 0 0 0 16 30.27c7.869 0 14.27-6.401 14.27-14.27 0-2.201-.501-4.288-1.395-6.151z" clip-rule="evenodd"/>
    <path fill="#FFE454" fill-rule="evenodd" d="M17.38 3.4a15.06 15.06 0 0 1 8.3 2.125A14.216 14.216 0 0 0 16 1.73C8.133 1.73 1.73 8.13 1.73 16c0 2.384.589 4.632 1.627 6.61a15.154 15.154 0 0 1-.55-3.533C2.502 10.724 9.027 3.705 17.38 3.401z" clip-rule="evenodd"/>
    <path fill="#000" fill-rule="evenodd" d="M16 0C7.178 0 0 7.178 0 16s7.178 16 16 16 16-7.178 16-16S24.823 0 16 0zm0 30.27c-3.92 0-7.475-1.588-10.057-4.155a14.347 14.347 0 0 1-2.587-3.505A14.18 14.18 0 0 1 1.73 16C1.73 8.131 8.13 1.73 16 1.73c3.732 0 7.134 1.44 9.68 3.795a14.345 14.345 0 0 1 3.195 4.324A14.184 14.184 0 0 1 30.27 16c0 7.869-6.401 14.27-14.27 14.27z" clip-rule="evenodd"/>
    <path fill="#000" fill-rule="evenodd" d="M10.775 14.162a1.73 1.73 0 1 0 0-3.46 1.73 1.73 0 0 0 0 3.46zM21.478 14.162a1.73 1.73 0 1 0 0-3.46 1.73 1.73 0 0 0 0 3.46zM15.97 24.865c3.346 0 6.553-1.712 8.389-4.553l-1.453-.939a8.289 8.289 0 0 1-7.859 3.709c-2.407-.277-4.632-1.664-5.954-3.709l-1.452.939c1.599 2.474 4.293 4.152 7.208 4.488.374.044.748.065 1.12.065z" clip-rule="evenodd"/>
</svg>
