<svg xmlns="http://www.w3.org/2000/svg" width="159" height="32" fill="none" viewBox="0 0 159 32">
    <rect width="159" height="32" fill="#000" fill-opacity=".5" rx="4"/>
    <path fill="#fff" d="M16.719 9.719L13.937 12.5H10.75a.723.723 0 0 0-.531.219.723.723 0 0 0-.219.531v4.5c0 .208.073.385.219.531a.723.723 0 0 0 .531.219h3.188l2.78 2.781a.723.723 0 0 0 .532.219.723.723 0 0 0 .531-.219.723.723 0 0 0 .219-.531v-10.5a.723.723 0 0 0-.219-.531.723.723 0 0 0-.531-.219.723.723 0 0 0-.531.219zM24 8.125a.601.601 0 0 0-.563-.094.8.8 0 0 0-.5.313.747.747 0 0 0-.093.562.662.662 0 0 0 .343.469 7.37 7.37 0 0 1 2.407 2.656A7.012 7.012 0 0 1 26.5 15.5c0 1.23-.302 2.385-.906 3.469a7.37 7.37 0 0 1-2.407 2.656.662.662 0 0 0-.343.469.747.747 0 0 0 .093.562.8.8 0 0 0 .5.313.601.601 0 0 0 .563-.094 8.634 8.634 0 0 0 2.938-3.188A8.688 8.688 0 0 0 28 15.5c0-1.48-.354-2.875-1.063-4.188A8.634 8.634 0 0 0 24 8.126zm1 7.375c0-1-.24-1.927-.719-2.781a5.284 5.284 0 0 0-1.968-2.094.601.601 0 0 0-.563-.094.662.662 0 0 0-.469.344.747.747 0 0 0-.093.563.757.757 0 0 0 .343.468 4.32 4.32 0 0 1 1.438 1.563c.354.625.531 1.302.531 2.031 0 .73-.177 1.417-.531 2.063a4.4 4.4 0 0 1-1.438 1.53.765.765 0 0 0-.343.5.78.78 0 0 0 .093.563.8.8 0 0 0 .469.344c.208.042.396 0 .563-.125a5.342 5.342 0 0 0 1.968-2.063c.48-.875.719-1.812.719-2.812zm-4.438-2.406A.659.659 0 0 0 20 13.03a.77.77 0 0 0-.469.375.852.852 0 0 0-.062.563.903.903 0 0 0 .375.469c.208.104.364.25.468.437.125.188.188.396.188.625 0 .23-.063.438-.188.625-.104.188-.26.344-.468.469a.768.768 0 0 0-.375.468.882.882 0 0 0 .062.563.8.8 0 0 0 .469.344.659.659 0 0 0 .563-.063c.437-.25.78-.583 1.03-1C21.866 16.47 22 16 22 15.5c0-.5-.135-.958-.406-1.375a2.723 2.723 0 0 0-1.032-1.031z"/>
    <rect width="107" height="10" x="42" y="11" fill="#fff" fill-opacity=".9" rx="2"/>
    <rect width="56" height="10" x="42" y="11" fill="#0E9BD8" rx="2"/>
</svg>
