<svg xmlns="http://www.w3.org/2000/svg" width="990" height="801" fill="none" viewBox="0 0 990 801">
    <rect width="990" height="801" fill="#F32A5A" rx="4"/>
    <mask id="a" width="990" height="801" x="0" y="0" maskUnits="userSpaceOnUse">
        <rect width="990" height="801" fill="#F32A5A" rx="4"/>
    </mask>
    <g mask="url(#a)">
        <path stroke="#FFD53E" stroke-width="20" d="M813.745 815.534c0 61.369-49.75 111.119-111.12 111.119-61.37 0-111.12-49.75-111.12-111.119s49.75-111.119 111.12-111.119c61.37 0 111.12 49.75 111.12 111.119z"/>
        <path stroke="#FFD53E" stroke-width="21" d="M-80.81-128.383h214.485v295.524H-80.81z"/>
        <path fill="#fff" d="M133.612 324.014l-3.806 15.51h-5.302l-2.134-9.504-2.178 9.504h-5.302l-3.762-15.51h4.664l1.804 10.604 2.442-10.604h4.73l2.376 10.516 1.804-10.516h4.664zm9.947 3.058c1.408 0 2.523.477 3.344 1.43.836.939 1.254 2.215 1.254 3.828v7.194h-4.312v-6.622c0-.704-.183-1.254-.55-1.65-.366-.41-.858-.616-1.474-.616-.645 0-1.151.206-1.518.616-.366.396-.55.946-.55 1.65v6.622h-4.312v-16.28h4.312v5.698a4.178 4.178 0 0 1 1.54-1.342c.66-.352 1.416-.528 2.266-.528zm6.261 6.27c0-1.276.227-2.39.682-3.344.469-.953 1.1-1.686 1.892-2.2a4.897 4.897 0 0 1 2.684-.77c.85 0 1.584.169 2.2.506a3.671 3.671 0 0 1 1.43 1.364v-1.716h4.312v12.342h-4.312v-1.716a3.632 3.632 0 0 1-1.452 1.364c-.616.338-1.342.506-2.178.506a4.889 4.889 0 0 1-2.684-.77c-.792-.513-1.423-1.246-1.892-2.2-.455-.968-.682-2.09-.682-3.366zm8.888 0c0-.792-.22-1.415-.66-1.87a2.085 2.085 0 0 0-1.584-.682c-.646 0-1.181.228-1.606.682-.426.44-.638 1.064-.638 1.87 0 .792.212 1.423.638 1.892.425.455.96.682 1.606.682.63 0 1.158-.227 1.584-.682.44-.454.66-1.085.66-1.892zm14.051 2.508v3.674h-1.87c-3.154 0-4.73-1.562-4.73-4.686v-4.07h-1.518v-3.586h1.518v-2.992h4.334v2.992h2.244v3.586h-2.244v4.136c0 .338.073.58.22.726.161.147.425.22.792.22h1.254zm8.581-9.812c-.762 0-1.378-.205-1.848-.616a2.082 2.082 0 0 1-.682-1.584c0-.645.228-1.18.682-1.606.47-.425 1.086-.638 1.848-.638.748 0 1.35.213 1.804.638.47.426.704.961.704 1.606 0 .631-.234 1.159-.704 1.584-.454.411-1.056.616-1.804.616zm2.134 1.144v12.342h-4.312v-12.342h4.312zm7.692 12.496c-1.115 0-2.105-.183-2.97-.55-.866-.381-1.555-.894-2.068-1.54a4.087 4.087 0 0 1-.836-2.222h4.18c.058.411.234.726.528.946.308.22.696.33 1.166.33.352 0 .63-.073.836-.22.205-.161.308-.359.308-.594 0-.308-.169-.535-.506-.682-.338-.146-.895-.308-1.672-.484-.895-.19-1.636-.388-2.222-.594a3.579 3.579 0 0 1-1.496-1.034c-.426-.498-.638-1.173-.638-2.024 0-.748.19-1.422.572-2.024.396-.601.975-1.078 1.738-1.43.777-.352 1.708-.528 2.794-.528 1.613 0 2.882.396 3.806 1.188.924.792 1.459 1.834 1.606 3.124h-3.894c-.074-.396-.25-.704-.528-.924-.264-.234-.624-.352-1.078-.352-.352 0-.624.074-.814.22-.176.132-.264.323-.264.572 0 .294.168.521.506.682.337.147.88.301 1.628.462.894.191 1.635.404 2.222.638a3.916 3.916 0 0 1 1.562 1.122c.44.514.66 1.218.66 2.112a3.34 3.34 0 0 1-.616 1.958c-.411.572-1.005 1.027-1.782 1.364-.763.323-1.672.484-2.728.484zm-64.854 61.189c-4.018 0-7.318-.947-9.898-2.842-2.581-1.927-3.969-4.671-4.165-8.232h10.241c.098 1.242.457 2.14 1.078 2.695.62.556 1.421.833 2.401.833.882 0 1.6-.212 2.156-.637.588-.457.882-1.094.882-1.911 0-1.012-.474-1.796-1.421-2.352-.948-.555-2.483-1.176-4.606-1.862-2.254-.751-4.084-1.47-5.488-2.156-1.372-.718-2.581-1.747-3.626-3.087-1.013-1.372-1.519-3.152-1.519-5.341 0-2.221.555-4.116 1.666-5.684 1.11-1.6 2.646-2.809 4.606-3.626 1.96-.816 4.181-1.225 6.664-1.225 4.018 0 7.219.948 9.604 2.842 2.417 1.862 3.707 4.492 3.871 7.889h-10.437c-.033-1.078-.36-1.878-.98-2.401-.588-.522-1.356-.784-2.303-.784-.719 0-1.307.213-1.764.637-.458.425-.686 1.046-.686 1.862 0 .654.245 1.225.735 1.715.522.458 1.159.866 1.911 1.225.751.327 1.862.752 3.332 1.274 2.188.752 3.985 1.503 5.39 2.254 1.437.719 2.662 1.748 3.675 3.087 1.045 1.307 1.568 2.973 1.568 4.998 0 2.058-.523 3.904-1.568 5.537-1.013 1.634-2.499 2.924-4.459 3.871-1.928.948-4.214 1.421-6.86 1.421zm33.57-8.526v8.183h-4.165c-7.023 0-10.535-3.479-10.535-10.437v-9.065h-3.381v-7.987h3.381v-6.664h9.653v6.664h4.998v7.987h-4.998v9.212c0 .752.164 1.291.49 1.617.36.327.948.49 1.764.49h2.793zm2.837-5.586c0-2.842.507-5.324 1.519-7.448 1.046-2.123 2.45-3.756 4.214-4.9 1.797-1.143 3.79-1.715 5.978-1.715 1.895 0 3.528.376 4.9 1.127 1.372.752 2.434 1.764 3.185 3.038v-3.822h9.604v27.489h-9.604v-3.822c-.751 1.274-1.829 2.287-3.234 3.038-1.372.752-2.989 1.127-4.851 1.127-2.188 0-4.181-.571-5.978-1.715-1.764-1.143-3.168-2.776-4.214-4.9-1.012-2.156-1.519-4.655-1.519-7.497zm19.796 0c0-1.764-.49-3.152-1.47-4.165-.947-1.012-2.123-1.519-3.528-1.519-1.437 0-2.629.507-3.577 1.519-.947.98-1.421 2.369-1.421 4.165 0 1.764.474 3.169 1.421 4.214.948 1.013 2.14 1.519 3.577 1.519 1.405 0 2.581-.506 3.528-1.519.98-1.012 1.47-2.417 1.47-4.214zm24.681-8.722c1.078-1.6 2.385-2.874 3.92-3.822 1.535-.947 3.185-1.421 4.949-1.421v10.241h-2.695c-2.091 0-3.642.409-4.655 1.225-1.013.817-1.519 2.238-1.519 4.263v12.005h-9.604v-27.489h9.604v4.998zm28.531 14.308v8.183h-4.165c-7.023 0-10.535-3.479-10.535-10.437v-9.065h-3.381v-7.987h3.381v-6.664h9.653v6.664h4.998v7.987h-4.998v9.212c0 .752.163 1.291.49 1.617.359.327.947.49 1.764.49h2.793zm32.531-19.306v27.489h-9.653v-3.92c-.816 1.242-1.943 2.254-3.381 3.038-1.437.752-3.087 1.127-4.949 1.127-3.201 0-5.733-1.045-7.595-3.136-1.829-2.123-2.744-4.998-2.744-8.624v-15.974h9.555v14.749c0 1.568.409 2.81 1.225 3.724.85.882 1.96 1.323 3.332 1.323 1.405 0 2.516-.441 3.332-1.323.817-.914 1.225-2.156 1.225-3.724v-14.749h9.653zm15.07 3.822c.751-1.274 1.813-2.286 3.185-3.038 1.372-.751 2.989-1.127 4.851-1.127 2.189 0 4.165.572 5.929 1.715 1.797 1.144 3.201 2.777 4.214 4.9 1.045 2.124 1.568 4.606 1.568 7.448 0 2.842-.523 5.341-1.568 7.497-1.013 2.124-2.417 3.757-4.214 4.9-1.764 1.144-3.74 1.715-5.929 1.715-1.862 0-3.479-.375-4.851-1.127a8.623 8.623 0 0 1-3.185-3.038v16.954h-9.604v-40.621h9.604v3.822zm9.996 9.898c0-1.796-.49-3.185-1.47-4.165-.947-1.012-2.123-1.519-3.528-1.519-1.405 0-2.597.507-3.577 1.519-.947 1.013-1.421 2.401-1.421 4.165 0 1.797.474 3.202 1.421 4.214.98 1.013 2.172 1.519 3.577 1.519 1.405 0 2.581-.506 3.528-1.519.98-1.045 1.47-2.45 1.47-4.214z"/>
        <rect width="238" height="642" x="950.963" y="-292" fill="#FFD53E" rx="119" transform="rotate(45 950.963 -292)"/>
    </g>
</svg>
