<svg xmlns="http://www.w3.org/2000/svg" width="154" height="154" fill="none" viewBox="0 0 154 154">
    <path fill="#EEFAFE" d="M0 0h84c38.66 0 70 31.34 70 70v84H70c-38.66 0-70-31.34-70-70V0z"/>
    <path fill="#99DBF7" d="M57.667 76.143c-1.625 0-2.98-.536-4.063-1.697-1.173-1.071-1.715-2.41-1.715-4.017 0-1.518.542-2.858 1.715-4.018 1.084-1.072 2.438-1.697 4.063-1.697 1.534 0 2.889.625 4.062 1.697 1.084 1.16 1.715 2.5 1.715 4.018 0 1.607-.632 2.946-1.715 4.017-1.173 1.161-2.528 1.697-4.062 1.697zm40.444 0c-1.625 0-2.98-.536-4.062-1.697-1.174-1.071-1.716-2.41-1.716-4.017 0-1.518.542-2.858 1.716-4.018 1.083-1.072 2.437-1.697 4.062-1.697 1.535 0 2.889.625 4.063 1.697 1.083 1.16 1.715 2.5 1.715 4.018 0 1.607-.632 2.946-1.715 4.017-1.174 1.161-2.528 1.697-4.063 1.697zM101 79c1.535 0 2.889.625 4.063 1.696 1.083 1.161 1.715 2.5 1.715 4.018v2.857c0 .804-.361 1.518-.903 2.054a2.818 2.818 0 0 1-1.986.804h-5.958a14.893 14.893 0 0 0-2.257-5.715c-1.264-1.696-2.709-3.035-4.514-4.018C92.243 79.625 93.597 79 95.222 79H101zm-23.111 0c-1.806 0-3.52-.446-5.056-1.34-1.625-.892-2.798-2.053-3.701-3.66-.903-1.518-1.354-3.214-1.354-5s.451-3.393 1.354-5c.903-1.518 2.076-2.768 3.701-3.66 1.535-.894 3.25-1.34 5.056-1.34 1.805 0 3.43.446 5.055 1.34A10.33 10.33 0 0 1 86.646 64C87.549 65.607 88 67.214 88 69s-.451 3.482-1.354 5c-.903 1.607-2.167 2.768-3.702 3.66-1.625.894-3.25 1.34-5.055 1.34zm6.951 2.857c1.806 0 3.521.536 5.146 1.429a9.524 9.524 0 0 1 3.792 3.75c.903 1.607 1.444 3.303 1.444 5.089v2.59c0 1.25-.451 2.231-1.264 3.035-.902.893-1.895 1.25-3.07 1.25h-26c-1.263 0-2.256-.357-3.069-1.25-.902-.804-1.263-1.786-1.263-3.036v-2.589c0-1.786.45-3.482 1.354-5.09a9.524 9.524 0 0 1 3.791-3.75c1.625-.892 3.34-1.428 5.237-1.428h.722c1.986.982 4.062 1.429 6.229 1.429 2.076 0 4.153-.447 6.23-1.429h.721zm-20.222-1.16c-1.805.982-3.34 2.32-4.514 4.017-1.264 1.786-1.986 3.661-2.257 5.715H51.89c-.813 0-1.535-.268-2.077-.804-.541-.536-.812-1.25-.812-2.054v-2.857c0-1.518.542-2.857 1.715-4.018C51.8 79.625 53.153 79 54.778 79h5.778c1.534 0 2.888.625 4.062 1.696z"/>
    <path stroke="#0E9BD8" stroke-width="2" d="M52.335 69.764l-.027-.03-.03-.026c-.948-.866-1.39-1.928-1.39-3.28 0-1.245.432-2.33 1.42-3.306.911-.902 2.018-1.408 3.359-1.408 1.225 0 2.338.487 3.358 1.408.931 1.009 1.42 2.105 1.42 3.307 0 1.315-.507 2.405-1.419 3.306-.987.977-2.09 1.408-3.36 1.408-1.375 0-2.455-.44-3.33-1.379zm40.445 0l-.028-.03-.03-.026c-.948-.866-1.389-1.928-1.389-3.28 0-1.245.432-2.33 1.419-3.306.912-.902 2.019-1.408 3.36-1.408 1.225 0 2.338.487 3.358 1.408.931 1.009 1.419 2.105 1.419 3.307 0 1.315-.507 2.405-1.419 3.306-.987.977-2.089 1.408-3.359 1.408-1.376 0-2.456-.44-3.331-1.379zm1.73 10.401l-.017-.025-.017-.023c-1.032-1.385-2.192-2.562-3.566-3.515A4.557 4.557 0 0 1 93.222 76H99c1.226 0 2.339.487 3.359 1.408.931 1.009 1.419 2.105 1.419 3.306v2.857c0 .491-.219.96-.606 1.343a1.817 1.817 0 0 1-1.283.515h-5.14a15.802 15.802 0 0 0-2.24-5.264zm-23.174-7.369l-.01-.006-.011-.006c-1.462-.803-2.5-1.83-3.311-3.274l-.006-.01-.007-.011c-.807-1.358-1.213-2.876-1.213-4.489 0-1.596.398-3.032 1.22-4.5.826-1.385 1.876-2.493 3.317-3.284l.01-.006.011-.006c1.376-.8 2.916-1.204 4.553-1.204 1.62 0 3.077.395 4.563 1.21a9.33 9.33 0 0 1 3.328 3.29C84.602 61.969 85 63.405 85 65c0 1.613-.406 3.131-1.214 4.489l-.006.01-.006.011c-.799 1.423-1.919 2.462-3.322 3.28-1.486.815-2.943 1.21-4.563 1.21-1.637 0-3.177-.403-4.553-1.204zM60.56 93.077l-.035-.039-.04-.035c-.65-.579-.928-1.267-.928-2.289v-2.589c0-1.609.404-3.137 1.226-4.6a8.524 8.524 0 0 1 3.4-3.363c1.509-.828 3.06-1.305 4.755-1.305h.493c2.068.983 4.226 1.429 6.459 1.429 2.156 0 4.31-.45 6.45-1.429h.501c1.602 0 3.152.474 4.665 1.305a8.524 8.524 0 0 1 3.4 3.363c.84 1.495 1.317 3.023 1.317 4.6v2.59c0 .97-.336 1.7-.967 2.324-.702.695-1.436.961-2.366.961h-26c-1.043 0-1.744-.28-2.33-.923zM58.556 76c.806 0 1.564.21 2.278.617a13.756 13.756 0 0 0-3.55 3.524c-1.175 1.663-1.92 3.409-2.286 5.288h-5.11c-.584 0-1.042-.188-1.372-.515-.33-.326-.516-.773-.516-1.343v-2.857c0-1.246.431-2.33 1.419-3.307.911-.901 2.018-1.407 3.359-1.407h5.778z"/>
</svg>
