<svg xmlns="http://www.w3.org/2000/svg" width="37" height="37" fill="none" viewBox="0 0 37 37">
    <mask id="a" fill="#fff">
        <path fill-rule="evenodd" d="M18.5 37C28.717 37 37 28.717 37 18.5S28.717 0 18.5 0 0 8.283 0 18.5 8.283 37 18.5 37zm10.728-24.73a1 1 0 1 0-1.414-1.415l-13.939 13.94-5.46-5.46a1 1 0 1 0-1.414 1.414l6.167 6.166a1 1 0 0 0 1.414 0L29.228 12.27z" clip-rule="evenodd"/>
    </mask>
    <path fill="#0E9BD8" fill-rule="evenodd" d="M18.5 37C28.717 37 37 28.717 37 18.5S28.717 0 18.5 0 0 8.283 0 18.5 8.283 37 18.5 37zm10.728-24.73a1 1 0 1 0-1.414-1.415l-13.939 13.94-5.46-5.46a1 1 0 1 0-1.414 1.414l6.167 6.166a1 1 0 0 0 1.414 0L29.228 12.27z" clip-rule="evenodd"/>
    <path fill="#0E9BD8" d="M29.228 10.855l-.707.707.707-.707zm0 1.415l-.707-.707.707.707zm-1.414-1.415l.707.707-.707-.707zm-13.939 13.94l-.707.706.707.707.707-.707-.707-.707zm-5.46-5.46l.708-.707-.707.707zm-1.414 0l.707.707-.707-.707zm0 1.414l.707-.707-.707.707zm6.167 6.166l.707-.707-.707.707zm1.414 0l-.707-.707.707.707zM36 18.5C36 28.165 28.165 36 18.5 36v2C29.27 38 38 29.27 38 18.5h-2zM18.5 1C28.165 1 36 8.835 36 18.5h2C38 7.73 29.27-1 18.5-1v2zM1 18.5C1 8.835 8.835 1 18.5 1v-2C7.73-1-1 7.73-1 18.5h2zM18.5 36C8.835 36 1 28.165 1 18.5h-2C-1 29.27 7.73 38 18.5 38v-2zm10.02-24.438l1.415 1.415a2 2 0 0 0 0-2.829l-1.414 1.415zm0 0l1.415-1.414a2 2 0 0 0-2.828 0l1.414 1.415zm-13.938 13.94l13.939-13.94-1.414-1.414-13.939 13.939 1.414 1.414zm-6.874-5.46l5.46 5.46 1.414-1.415-5.46-5.46-1.414 1.415zm0 0l1.415-1.415a2 2 0 0 0-2.829 0l1.414 1.415zm0 0l-1.414-1.415a2 2 0 0 0 0 2.829l1.414-1.414zm6.167 6.166l-6.167-6.166-1.414 1.414 6.167 6.166 1.414-1.414zm0 0l-1.414 1.415a2 2 0 0 0 1.414.585v-2zm0 0v2a2 2 0 0 0 1.414-.585l-1.414-1.415zm14.646-14.645L13.875 26.207l1.414 1.415 14.646-14.646-1.414-1.415z" mask="url(#a)"/>
</svg>
