<svg xmlns="http://www.w3.org/2000/svg" width="14" height="14" fill="none" viewBox="0 0 14 14">
    <path fill="#fff" d="M0 4.625V.75C0 .542.073.365.219.219A.723.723 0 0 1 .75 0h3.875c.104 0 .188.042.25.125A.297.297 0 0 1 5 .375v1.25a.389.389 0 0 1-.125.281.338.338 0 0 1-.25.094H2v2.625a.389.389 0 0 1-.125.281.338.338 0 0 1-.25.094H.375a.457.457 0 0 1-.281-.094A.457.457 0 0 1 0 4.625zm9-4.25v1.25c0 .104.031.198.094.281A.457.457 0 0 0 9.375 2H12v2.625c0 .104.031.198.094.281a.457.457 0 0 0 .281.094h1.25a.338.338 0 0 0 .25-.094.389.389 0 0 0 .125-.281V.75a.723.723 0 0 0-.219-.531A.723.723 0 0 0 13.25 0H9.375a.389.389 0 0 0-.281.125.338.338 0 0 0-.094.25zM13.625 9h-1.25a.388.388 0 0 0-.281.125.338.338 0 0 0-.094.25V12H9.375a.389.389 0 0 0-.281.125.338.338 0 0 0-.094.25v1.25c0 .104.031.188.094.25a.389.389 0 0 0 .281.125h3.875a.723.723 0 0 0 .531-.219.723.723 0 0 0 .219-.531V9.375a.297.297 0 0 0-.125-.25.297.297 0 0 0-.25-.125zM5 13.625v-1.25a.297.297 0 0 0-.125-.25.297.297 0 0 0-.25-.125H2V9.375a.297.297 0 0 0-.125-.25.297.297 0 0 0-.25-.125H.375a.389.389 0 0 0-.281.125.338.338 0 0 0-.094.25v3.875c0 .208.073.385.219.531A.723.723 0 0 0 .75 14h3.875a.297.297 0 0 0 .25-.125.297.297 0 0 0 .125-.25z"/>
</svg>
