<svg xmlns="http://www.w3.org/2000/svg" width="18" height="15" fill="none" viewBox="0 0 18 15">
    <path fill="#fff" d="M6.719 1.719L3.937 4.5H.75a.723.723 0 0 0-.531.219A.723.723 0 0 0 0 5.25v4.5c0 .208.073.385.219.531a.723.723 0 0 0 .531.219h3.188l2.78 2.781a.723.723 0 0 0 .532.219.723.723 0 0 0 .531-.219A.723.723 0 0 0 8 12.75V2.25a.723.723 0 0 0-.219-.531.723.723 0 0 0-.531-.219.723.723 0 0 0-.531.219zM14 .125a.601.601 0 0 0-.563-.094.8.8 0 0 0-.5.313.747.747 0 0 0-.093.562.662.662 0 0 0 .344.469 7.37 7.37 0 0 1 2.406 2.656A7.012 7.012 0 0 1 16.5 7.5c0 1.23-.302 2.385-.906 3.469a7.37 7.37 0 0 1-2.406 2.656.662.662 0 0 0-.344.469.747.747 0 0 0 .094.562.8.8 0 0 0 .5.313.601.601 0 0 0 .562-.094 8.634 8.634 0 0 0 2.938-3.188A8.688 8.688 0 0 0 18 7.5c0-1.48-.354-2.875-1.063-4.188A8.634 8.634 0 0 0 14 .126zM15 7.5c0-1-.24-1.927-.719-2.781a5.284 5.284 0 0 0-1.969-2.094.601.601 0 0 0-.562-.094.662.662 0 0 0-.469.344.747.747 0 0 0-.094.563.757.757 0 0 0 .344.468A4.32 4.32 0 0 1 12.97 5.47c.354.625.531 1.302.531 2.031 0 .73-.177 1.417-.531 2.063a4.4 4.4 0 0 1-1.438 1.53.765.765 0 0 0-.344.5.78.78 0 0 0 .094.563.8.8 0 0 0 .469.344c.208.042.396 0 .563-.125a5.342 5.342 0 0 0 1.968-2.063C14.761 9.438 15 8.5 15 7.5zm-4.438-2.406A.659.659 0 0 0 10 5.03a.769.769 0 0 0-.469.375.852.852 0 0 0-.062.563.904.904 0 0 0 .375.468c.208.105.364.25.469.438.124.188.187.396.187.625 0 .23-.063.438-.188.625-.104.188-.26.344-.468.469a.769.769 0 0 0-.375.469.882.882 0 0 0 .062.562.8.8 0 0 0 .469.344.659.659 0 0 0 .563-.063c.437-.25.78-.583 1.03-1C11.866 8.47 12 8 12 7.5c0-.5-.135-.958-.406-1.375a2.724 2.724 0 0 0-1.031-1.031z"/>
</svg>
