<svg xmlns="http://www.w3.org/2000/svg" width="154" height="154" fill="none" viewBox="0 0 154 154">
    <path fill="#EEFAFE" d="M0 0h84c38.66 0 70 31.34 70 70v84H70c-38.66 0-70-31.34-70-70V0z"/>
    <path fill="#99DBF7" d="M84 57c1.354 0 2.5.52 3.542 1.458C88.479 59.5 89 60.646 89 62v30c0 1.458-.52 2.604-1.458 3.542C86.5 96.583 85.354 97 84 97H54c-1.458 0-2.604-.417-3.542-1.458C49.417 94.604 49 93.458 49 92V62c0-1.354.417-2.5 1.458-3.542C51.396 57.521 52.542 57 54 57h30zm19.792 3.958a3.423 3.423 0 0 1 2.291-.52c.834.104 1.459.416 2.084 1.041.521.625.833 1.25.833 2.084v26.77c0 .938-.312 1.667-.833 2.292-.625.625-1.25.938-2.084 1.042-.833.104-1.666-.105-2.291-.625l-11.459-7.813V68.771l11.459-7.813z"/>
    <path stroke="#0E9BD8" stroke-width="2" d="M46.202 88.873l-.036-.04-.039-.035C45.337 88.086 45 87.233 45 86V56c0-1.107.324-1.993 1.165-2.835C46.922 52.408 47.817 52 49 52h30c1.046 0 1.951.385 2.833 1.167C82.615 54.049 83 54.954 83 56v30c0 1.183-.409 2.078-1.165 2.835C80.993 89.676 80.107 90 79 90H49c-1.233 0-2.087-.336-2.798-1.127zm53.23-2.6l-.037-.03-.04-.028-11.022-7.514V63.299l11.013-7.509.004-.002a2.425 2.425 0 0 1 1.609-.358c.587.073 1.005.27 1.469.725.401.49.572.89.572 1.407v26.771c0 .666-.206 1.164-.573 1.617-.464.454-.881.651-1.468.724-.595.075-1.142-.08-1.527-.4z"/>
</svg>
