<svg xmlns="http://www.w3.org/2000/svg" width="16" height="14" fill="none" viewBox="0 0 16 14">
    <path fill="#fff" d="M15.5 11H5v-.5a.416.416 0 0 0-.156-.344A.416.416 0 0 0 4.5 10h-1a.512.512 0 0 0-.375.156A.465.465 0 0 0 3 10.5v.5H.5a.512.512 0 0 0-.375.156A.465.465 0 0 0 0 11.5v1c0 .146.042.27.125.375.104.083.23.125.375.125H3v.5c0 .146.042.26.125.344.104.104.23.156.375.156h1c.146 0 .26-.052.344-.156A.416.416 0 0 0 5 13.5V13h10.5c.146 0 .26-.042.344-.125A.512.512 0 0 0 16 12.5v-1a.417.417 0 0 0-.156-.344A.417.417 0 0 0 15.5 11zm0-5H13v-.5a.416.416 0 0 0-.156-.344A.416.416 0 0 0 12.5 5h-1a.512.512 0 0 0-.375.156A.465.465 0 0 0 11 5.5V6H.5a.511.511 0 0 0-.375.156A.465.465 0 0 0 0 6.5v1c0 .146.042.27.125.375C.229 7.958.355 8 .5 8H11v.5c0 .146.042.27.125.375.104.083.23.125.375.125h1c.146 0 .26-.042.344-.125A.512.512 0 0 0 13 8.5V8h2.5c.146 0 .26-.042.344-.125A.512.512 0 0 0 16 7.5v-1a.416.416 0 0 0-.156-.344A.416.416 0 0 0 15.5 6zm0-5H9V.5a.416.416 0 0 0-.156-.344A.416.416 0 0 0 8.5 0h-1a.511.511 0 0 0-.375.156A.465.465 0 0 0 7 .5V1H.5a.511.511 0 0 0-.375.156A.465.465 0 0 0 0 1.5v1c0 .146.042.27.125.375C.229 2.958.355 3 .5 3H7v.5c0 .146.042.27.125.375.104.083.23.125.375.125h1c.146 0 .26-.042.344-.125A.511.511 0 0 0 9 3.5V3h6.5c.146 0 .26-.042.344-.125A.512.512 0 0 0 16 2.5v-1a.416.416 0 0 0-.156-.344A.416.416 0 0 0 15.5 1z"/>
</svg>
