<svg xmlns="http://www.w3.org/2000/svg" width="48" height="29" fill="none" viewBox="0 0 48 29">
    <rect width="48" height="28.8" fill="#0E9BD8" rx="4"/>
    <path fill="#FFFFFE" fill-rule="evenodd" d="M19.915 18.982l1.476-9.155h2.359l-1.476 9.155h-2.359zM30.832 10.052a5.832 5.832 0 0 0-2.114-.385c-2.333 0-3.974 1.243-3.988 3.022-.015 1.316 1.172 2.05 2.066 2.487.92.449 1.228.736 1.224 1.137-.006.613-.733.894-1.412.894-.944 0-1.446-.139-2.222-.48l-.303-.146-.33 2.05c.55.254 1.57.476 2.628.487 2.48 0 4.09-1.227 4.109-3.127.008-1.044-.62-1.835-1.982-2.488-.824-.424-1.33-.706-1.325-1.135.001-.38.428-.788 1.352-.788a4.14 4.14 0 0 1 1.765.352l.212.104.32-1.984zM33.973 15.736c.196-.526.94-2.559.94-2.559-.014.024.195-.53.314-.873l.159.79s.453 2.185.546 2.642h-1.959zm2.91-5.9H35.06c-.565 0-.989.162-1.236.76l-3.504 8.39h2.478s.404-1.13.496-1.377l3.022.005c.07.32.287 1.372.287 1.372h2.19l-1.91-9.15zM17.936 9.835l-2.31 6.241-.246-1.268c-.43-1.462-1.77-3.047-3.268-3.84l2.112 8.006 2.497-.001 3.715-9.138h-2.5z" clip-rule="evenodd"/>
    <path fill="#EC982D" fill-rule="evenodd" d="M13.483 9.828H9.68l-.031.19c2.96.758 4.919 2.59 5.732 4.79l-.827-4.207c-.143-.58-.557-.752-1.07-.773z" clip-rule="evenodd"/>
</svg>
