<svg xmlns="http://www.w3.org/2000/svg" width="48" height="48" fill="none" viewBox="0 0 48 48">
    <path fill="#0E9BD8" d="M24 0c4.258 0 8.323 1.161 12 3.29 3.677 2.13 6.58 5.033 8.71 8.71C46.839 15.677 48 19.742 48 24c0 4.355-1.161 8.323-3.29 12-2.13 3.677-5.033 6.677-8.71 8.806C32.323 46.936 28.258 48 24 48c-4.355 0-8.323-1.065-12-3.194A24.021 24.021 0 0 1 3.194 36C1.064 32.323 0 28.355 0 24c0-4.258 1.065-8.323 3.194-12C5.323 8.323 8.323 5.42 12 3.29 15.677 1.161 19.645 0 24 0zm11.226 26.323c.774-.387 1.161-1.065 1.161-2.033 0-.87-.387-1.548-1.161-2.032L18.194 11.903c-.775-.387-1.549-.387-2.323 0-.774.484-1.161 1.162-1.161 2.032v20.13c0 .967.387 1.645 1.161 2.032.774.484 1.548.484 2.322 0l17.033-9.774z"/>
</svg>
